<svg width="247" height="247" viewBox="0 0 247 247" fill="none" xmlns="http://www.w3.org/2000/svg">
<g filter="url(#filter0_d_2731_81972)">
<circle cx="119.591" cy="119.591" r="78.7979" transform="rotate(-61.9586 119.591 119.591)" fill="url(#paint0_radial_2731_81972)"/>
</g>
<g style="mix-blend-mode:saturation">
<circle cx="119.591" cy="119.592" r="78.7979" transform="rotate(-61.9586 119.591 119.592)" fill="url(#paint1_radial_2731_81972)"/>
</g>
<g filter="url(#filter1_d_2731_81972)">
<circle cx="119.591" cy="119.592" r="78.7979" transform="rotate(-61.9586 119.591 119.592)" fill="url(#paint2_radial_2731_81972)"/>
</g>
<path d="M118 91.1836C132.912 91.1836 145 103.271 145 118.184C145 133.096 132.912 145.184 118 145.184C113.228 145.192 108.541 143.929 104.419 141.525L91.0108 145.184L94.6612 131.77C92.2554 127.647 90.9917 122.957 91 118.184C91 103.271 103.088 91.1836 118 91.1836ZM108.798 105.494L108.258 105.515C107.909 105.539 107.568 105.631 107.254 105.785C106.961 105.951 106.694 106.159 106.46 106.401C106.136 106.706 105.953 106.97 105.756 107.227C104.757 108.525 104.219 110.12 104.227 111.758C104.233 113.081 104.578 114.368 105.118 115.573C106.223 118.008 108.04 120.587 110.437 122.976C111.015 123.551 111.582 124.129 112.192 124.666C115.172 127.289 118.722 129.181 122.56 130.19L124.094 130.425C124.593 130.452 125.093 130.415 125.595 130.39C126.381 130.349 127.149 130.136 127.844 129.767C128.197 129.584 128.543 129.386 128.878 129.173C128.878 129.173 128.993 129.095 129.216 128.93C129.58 128.66 129.804 128.468 130.107 128.152C130.334 127.918 130.523 127.646 130.674 127.337C130.884 126.896 131.095 126.057 131.181 125.357C131.246 124.823 131.227 124.531 131.219 124.35C131.208 124.061 130.968 123.762 130.706 123.635L129.135 122.93C129.135 122.93 126.786 121.907 125.349 121.253C125.199 121.188 125.038 121.151 124.874 121.143C124.689 121.123 124.503 121.144 124.327 121.203C124.151 121.262 123.989 121.359 123.854 121.486C123.84 121.48 123.659 121.634 121.707 123.999C121.595 124.15 121.441 124.264 121.264 124.326C121.087 124.389 120.895 124.397 120.714 124.35C120.538 124.303 120.365 124.244 120.198 124.172C119.863 124.032 119.747 123.978 119.517 123.881C117.967 123.205 116.532 122.292 115.265 121.172C114.925 120.875 114.609 120.551 114.285 120.238C113.223 119.221 112.297 118.07 111.531 116.815L111.372 116.558C111.259 116.385 111.166 116.199 111.096 116.005C110.994 115.608 111.261 115.289 111.261 115.289C111.261 115.289 111.917 114.571 112.222 114.182C112.519 113.804 112.77 113.437 112.932 113.175C113.251 112.662 113.351 112.136 113.183 111.728C112.427 109.881 111.646 108.044 110.84 106.217C110.68 105.855 110.208 105.596 109.779 105.545C109.633 105.527 109.487 105.512 109.341 105.502C108.979 105.481 108.615 105.484 108.253 105.512L108.798 105.494Z" fill="white" style="mix-blend-mode:color-dodge"/>
<defs>
<filter id="filter0_d_2731_81972" x="0.777344" y="0.777832" width="245.627" height="245.627" filterUnits="userSpaceOnUse" color-interpolation-filters="sRGB">
<feFlood flood-opacity="0" result="BackgroundImageFix"/>
<feColorMatrix in="SourceAlpha" type="matrix" values="0 0 0 0 0 0 0 0 0 0 0 0 0 0 0 0 0 0 127 0" result="hardAlpha"/>
<feOffset dx="4" dy="4"/>
<feGaussianBlur stdDeviation="22"/>
<feComposite in2="hardAlpha" operator="out"/>
<feColorMatrix type="matrix" values="0 0 0 0 0.411765 0 0 0 0 0.25098 0 0 0 0 0.94902 0 0 0 0.15 0"/>
<feBlend mode="normal" in2="BackgroundImageFix" result="effect1_dropShadow_2731_81972"/>
<feBlend mode="normal" in="SourceGraphic" in2="effect1_dropShadow_2731_81972" result="shape"/>
</filter>
<filter id="filter1_d_2731_81972" x="0.777344" y="0.77832" width="245.627" height="245.627" filterUnits="userSpaceOnUse" color-interpolation-filters="sRGB">
<feFlood flood-opacity="0" result="BackgroundImageFix"/>
<feColorMatrix in="SourceAlpha" type="matrix" values="0 0 0 0 0 0 0 0 0 0 0 0 0 0 0 0 0 0 127 0" result="hardAlpha"/>
<feOffset dx="4" dy="4"/>
<feGaussianBlur stdDeviation="22"/>
<feComposite in2="hardAlpha" operator="out"/>
<feColorMatrix type="matrix" values="0 0 0 0 0.0352941 0 0 0 0 0.8 0 0 0 0 0.580392 0 0 0 0.49 0"/>
<feBlend mode="normal" in2="BackgroundImageFix" result="effect1_dropShadow_2731_81972"/>
<feBlend mode="normal" in="SourceGraphic" in2="effect1_dropShadow_2731_81972" result="shape"/>
</filter>
<radialGradient id="paint0_radial_2731_81972" cx="0" cy="0" r="1" gradientUnits="userSpaceOnUse" gradientTransform="translate(162.292 62.7536) rotate(123.618) scale(144.296 115.391)">
<stop stop-color="#F9FDFF"/>
<stop offset="0.38325" stop-color="#5AF087"/>
<stop offset="0.925" stop-color="#09503B"/>
</radialGradient>
<radialGradient id="paint1_radial_2731_81972" cx="0" cy="0" r="1" gradientUnits="userSpaceOnUse" gradientTransform="translate(40.512 119.268) rotate(-1.44818) scale(180.995 180.994)">
<stop stop-color="#FFA3A3" stop-opacity="0"/>
<stop offset="0.737543" stop-color="#4A658E"/>
<stop offset="0.9375" stop-color="#A99CEC"/>
</radialGradient>
<radialGradient id="paint2_radial_2731_81972" cx="0" cy="0" r="1" gradientUnits="userSpaceOnUse" gradientTransform="translate(147.878 67.5991) rotate(116.061) scale(129.619 103.654)">
<stop offset="0.209049" stop-color="#92EF99"/>
<stop offset="0.645" stop-color="#54AB5A"/>
<stop offset="0.98" stop-color="#1D4420"/>
</radialGradient>
</defs>
</svg>
