<svg width="209" height="140" viewBox="0 0 209 140" fill="none" xmlns="http://www.w3.org/2000/svg">
<g filter="url(#filter0_d_1565_54577)">
<circle cx="134.514" cy="66.1337" r="25.7348" fill="url(#paint0_radial_1565_54577)"/>
</g>
<path d="M134.515 54.4363C135.671 54.4363 136.802 54.7793 137.764 55.422C138.726 56.0647 139.475 56.9781 139.918 58.0469C140.361 59.1156 140.477 60.2916 140.251 61.4262C140.025 62.5607 139.468 63.6029 138.65 64.4209C137.832 65.2388 136.79 65.7959 135.656 66.0216C134.521 66.2472 133.345 66.1314 132.276 65.6887C131.208 65.246 130.294 64.4964 129.651 63.5345C129.009 62.5727 128.666 61.4419 128.666 60.2851L128.672 60.0313C128.737 58.5255 129.381 57.1031 130.47 56.0607C131.558 55.0183 133.007 54.4364 134.515 54.4363ZM136.854 68.4735C138.405 68.4735 139.893 69.0897 140.99 70.1866C142.087 71.2834 142.703 72.7711 142.703 74.3223V75.4921C142.703 76.1125 142.456 76.7076 142.018 77.1464C141.579 77.5851 140.984 77.8316 140.363 77.8316H128.666C128.045 77.8316 127.45 77.5851 127.011 77.1464C126.573 76.7076 126.326 76.1125 126.326 75.4921V74.3223C126.326 72.7711 126.942 71.2834 128.039 70.1866C129.136 69.0897 130.624 68.4735 132.175 68.4735H136.854Z" fill="#453D8A"/>
<rect x="17.7676" y="29.0457" width="159.591" height="77" rx="38.5" stroke="#2D3154" stroke-width="2"/>
<rect x="17.7676" y="29.0457" width="159.591" height="77" rx="38.5" stroke="#2D3154" stroke-width="2"/>
<g filter="url(#filter1_d_1565_54577)">
<path d="M89.0282 59.6999H87.9559V57.5554C87.9559 51.6428 83.1457 46.8325 77.2331 46.8325H68.6548V42.5434C68.6548 41.3596 67.6962 40.3988 66.5102 40.3988C65.3243 40.3988 64.3657 41.3596 64.3657 42.5434V46.8325H55.7874C49.8748 46.8325 45.0645 51.6428 45.0645 57.5554V59.6999H43.9922C42.2187 59.6999 40.7754 61.1432 40.7754 62.9168V69.3505C40.7754 71.1241 42.2187 72.5674 43.9922 72.5674H45.0645V74.7119C45.0645 80.6245 49.8748 85.4348 55.7874 85.4348H72.2941L80.7931 91.1008C81.5651 91.6155 82.4551 91.8749 83.3473 91.8749C84.0936 91.8749 84.8399 91.6948 85.524 91.3281C87.0231 90.5239 87.9559 88.9691 87.9559 87.2663V72.5652H89.0282C90.8018 72.5652 92.2451 71.1219 92.2451 69.3484V62.9147C92.2451 61.1411 90.8018 59.6978 89.0282 59.6978V59.6999ZM59.0042 57.5554C60.7799 57.5554 62.2211 58.9965 62.2211 60.7722C62.2211 62.5479 60.7799 63.9891 59.0042 63.9891C57.2285 63.9891 55.7874 62.5479 55.7874 60.7722C55.7874 58.9965 57.2285 57.5554 59.0042 57.5554ZM76.2273 73.7962C74.0034 75.1923 70.5099 76.8565 66.5102 76.8565C62.5106 76.8565 59.0171 75.1923 56.7932 73.7962C55.7895 73.1679 55.4871 71.8425 56.1176 70.841C56.7482 69.8395 58.0714 69.5349 59.0729 70.1633C60.8207 71.2613 63.5314 72.5674 66.5124 72.5674C69.4933 72.5674 72.2019 71.2613 73.9519 70.1633C74.9513 69.5328 76.2788 69.8373 76.9071 70.841C77.5376 71.8446 77.2331 73.1679 76.2316 73.7962H76.2273ZM74.0162 63.9891C72.2405 63.9891 70.7994 62.5479 70.7994 60.7722C70.7994 58.9965 72.2405 57.5554 74.0162 57.5554C75.7919 57.5554 77.2331 58.9965 77.2331 60.7722C77.2331 62.5479 75.7919 63.9891 74.0162 63.9891Z" fill="url(#paint1_radial_1565_54577)"/>
</g>
<defs>
<filter id="filter0_d_1565_54577" x="68.7793" y="0.398804" width="139.469" height="139.47" filterUnits="userSpaceOnUse" color-interpolation-filters="sRGB">
<feFlood flood-opacity="0" result="BackgroundImageFix"/>
<feColorMatrix in="SourceAlpha" type="matrix" values="0 0 0 0 0 0 0 0 0 0 0 0 0 0 0 0 0 0 127 0" result="hardAlpha"/>
<feOffset dx="4" dy="4"/>
<feGaussianBlur stdDeviation="22"/>
<feComposite in2="hardAlpha" operator="out"/>
<feColorMatrix type="matrix" values="0 0 0 0 0.411765 0 0 0 0 0.25098 0 0 0 0 0.94902 0 0 0 0.49 0"/>
<feBlend mode="normal" in2="BackgroundImageFix" result="effect1_dropShadow_1565_54577"/>
<feBlend mode="normal" in="SourceGraphic" in2="effect1_dropShadow_1565_54577" result="shape"/>
</filter>
<filter id="filter1_d_1565_54577" x="0.775391" y="0.398804" width="139.469" height="139.476" filterUnits="userSpaceOnUse" color-interpolation-filters="sRGB">
<feFlood flood-opacity="0" result="BackgroundImageFix"/>
<feColorMatrix in="SourceAlpha" type="matrix" values="0 0 0 0 0 0 0 0 0 0 0 0 0 0 0 0 0 0 127 0" result="hardAlpha"/>
<feOffset dx="4" dy="4"/>
<feGaussianBlur stdDeviation="22"/>
<feComposite in2="hardAlpha" operator="out"/>
<feColorMatrix type="matrix" values="0 0 0 0 0.411765 0 0 0 0 0.25098 0 0 0 0 0.94902 0 0 0 0.49 0"/>
<feBlend mode="normal" in2="BackgroundImageFix" result="effect1_dropShadow_1565_54577"/>
<feBlend mode="normal" in="SourceGraphic" in2="effect1_dropShadow_1565_54577" result="shape"/>
</filter>
<radialGradient id="paint0_radial_1565_54577" cx="0" cy="0" r="1" gradientUnits="userSpaceOnUse" gradientTransform="translate(143.923 44.6335) rotate(111.414) scale(52.6852 42.1314)">
<stop offset="0.209049" stop-color="#F9FDFF"/>
<stop offset="0.839525" stop-color="#5B4BB9"/>
</radialGradient>
<radialGradient id="paint1_radial_1565_54577" cx="0" cy="0" r="1" gradientUnits="userSpaceOnUse" gradientTransform="translate(75.9192 44.634) rotate(111.412) scale(52.6909 42.1321)">
<stop offset="0.209049" stop-color="#F9FDFF"/>
<stop offset="0.839525" stop-color="#375FC8"/>
</radialGradient>
</defs>
</svg>
