<svg width="278" height="144" viewBox="0 0 278 144" fill="none" xmlns="http://www.w3.org/2000/svg">
<g filter="url(#filter0_d_1565_54698)">
<g filter="url(#filter1_d_1565_54698)">
<rect x="174.781" y="40.6434" width="54.4017" height="54.4017" rx="23" fill="url(#paint0_radial_1565_54698)"/>
</g>
<path d="M210.577 67.7989L205.758 73.0603C203.485 75.5419 200.274 76.955 196.909 76.955H194.597C193.298 76.955 192.24 75.8976 192.24 74.5982V69.0991C192.24 67.7997 193.298 66.7423 194.597 66.7423H197.347C197.564 66.7423 197.74 66.5665 197.74 66.3495C197.74 66.1326 197.563 65.9602 197.349 65.9243C196.493 65.7807 195.792 65.1739 195.513 64.3713C195.37 63.9614 195.735 63.6 196.169 63.6C196.603 63.6 196.951 64.0261 197.316 64.261C197.438 64.3398 197.584 64.3856 197.74 64.3856H199.607C199.877 64.3856 200.097 64.1656 200.097 63.8953C200.097 63.6542 199.925 63.4515 199.687 63.4114L197.106 62.9817C196.107 62.8152 195.383 61.9597 195.383 60.9478C195.383 59.8111 196.308 58.8864 197.445 58.8864C197.608 58.8864 197.74 58.7542 197.74 58.591V58.4936C197.74 58.2767 197.916 58.1008 198.133 58.1008H198.919C199.136 58.1008 199.312 58.2767 199.312 58.4936C199.312 58.7106 199.489 58.883 199.703 58.9189C200.559 59.0625 201.26 59.6693 201.539 60.4718C201.681 60.8817 201.317 61.2432 200.883 61.2432C200.449 61.2432 200.101 60.817 199.736 60.5822C199.613 60.5033 199.468 60.4576 199.312 60.4576H197.445C197.174 60.4576 196.954 60.6776 196.954 60.9478C196.954 61.189 197.127 61.3917 197.365 61.4317L199.946 61.8615C200.944 62.028 201.669 62.8835 201.669 63.8953C201.669 65.0321 200.744 65.9567 199.607 65.9567C199.444 65.9567 199.312 66.089 199.312 66.2522V66.3495C199.312 66.5665 199.487 66.7423 199.704 66.7423H201.501C202.46 66.7423 203.24 67.5224 203.24 68.4808C203.24 69.3403 202.599 70.0803 201.747 70.2021L199.193 70.5671C198.763 70.6284 198.465 71.0262 198.526 71.4556C198.588 71.8849 198.985 72.1831 199.415 72.1218L201.97 71.7568C203.59 71.5258 204.812 70.1172 204.812 68.4808C204.812 68.1628 204.889 67.8444 205.107 67.6136L207.543 65.0439C207.9 64.6511 208.405 64.4131 208.952 64.3879C209.496 64.3612 210.023 64.5521 210.428 64.9205C211.254 65.6731 211.322 66.9647 210.576 67.7997L210.577 67.7989ZM205.544 62.8876C205.348 63.084 205.348 63.4026 205.544 63.599L205.744 63.7988C206.051 64.1055 206.548 64.1055 206.855 63.7988L208.256 62.398C208.568 62.0861 208.74 61.6713 208.74 61.2298C208.74 60.7883 208.568 60.3735 208.256 60.0625L206.888 58.6947C206.581 58.388 206.084 58.388 205.777 58.6947L205.575 58.8966C205.38 59.0919 205.38 59.4085 205.575 59.6038C205.89 59.919 205.667 60.4576 205.221 60.4576H204.026C203.592 60.4576 203.24 60.8093 203.24 61.2432C203.24 61.6771 203.592 62.0288 204.026 62.0288H205.189C205.637 62.0288 205.861 62.5707 205.544 62.8876Z" fill="#31715E"/>
<g filter="url(#filter2_d_1565_54698)">
<rect x="40.0098" y="40.6434" width="54.4017" height="54.4017" rx="23" fill="url(#paint1_radial_1565_54698)"/>
</g>
<g clip-path="url(#clip0_1565_54698)">
<path d="M76.8438 71.3688C76.7087 71.3688 76.5754 71.3374 76.4545 71.2771L74.7087 70.4042C74.5015 70.3008 74.3439 70.1192 74.2706 69.8995C74.1973 69.6798 74.2142 69.44 74.3177 69.2328C74.4212 69.0256 74.6027 68.868 74.8224 68.7947C75.0421 68.7214 75.2819 68.7383 75.4891 68.8418L77.2348 69.7147C77.411 69.8025 77.5524 69.9473 77.6359 70.1256C77.7194 70.3038 77.7402 70.5051 77.6949 70.6967C77.6496 70.8883 77.5409 71.059 77.3864 71.181C77.2319 71.303 77.0407 71.3692 76.8438 71.3688ZM75.4882 63.4256L77.234 62.5527C77.4412 62.4492 77.5988 62.2677 77.6721 62.048C77.7454 61.8283 77.7285 61.5885 77.625 61.3813C77.5215 61.1741 77.34 61.0165 77.1203 60.9432C76.9006 60.8698 76.6608 60.8868 76.4536 60.9902L74.7079 61.8631C74.5007 61.9666 74.3431 62.1482 74.2697 62.3678C74.1964 62.5875 74.2133 62.8273 74.3168 63.0345C74.4203 63.2417 74.6018 63.3993 74.8215 63.4727C75.0412 63.546 75.281 63.5291 75.4882 63.4256ZM77.7167 66.1315C77.7167 65.9 77.6247 65.678 77.461 65.5143C77.2973 65.3506 77.0753 65.2586 76.8438 65.2586H75.098C74.8665 65.2586 74.6445 65.3506 74.4808 65.5143C74.3171 65.678 74.2252 65.9 74.2252 66.1315C74.2252 66.363 74.3171 66.585 74.4808 66.7487C74.6445 66.9124 74.8665 67.0044 75.098 67.0044H76.8438C77.0753 67.0044 77.2973 66.9124 77.461 66.7487C77.6247 66.585 77.7167 66.363 77.7167 66.1315ZM72.4794 73.9874V58.2756C72.4794 58.0441 72.3874 57.8221 72.2237 57.6584C72.06 57.4947 71.838 57.4027 71.6065 57.4027C71.375 57.4027 71.153 57.4947 70.9893 57.6584C70.8256 57.8221 70.7336 58.0441 70.7336 58.2756C70.7336 60.8497 68.479 61.7671 66.3692 61.7671H60.2591C59.3331 61.7671 58.445 62.135 57.7902 62.7897C57.1354 63.4445 56.7676 64.3326 56.7676 65.2586V67.0044C56.7676 67.9304 57.1354 68.8185 57.7902 69.4733C58.445 70.128 59.3331 70.4959 60.2591 70.4959H66.3692C68.479 70.4959 70.7336 71.4133 70.7336 73.9874C70.7336 74.2189 70.8256 74.4409 70.9893 74.6046C71.153 74.7683 71.375 74.8603 71.6065 74.8603C71.838 74.8603 72.06 74.7683 72.2237 74.6046C72.3874 74.4409 72.4794 74.2189 72.4794 73.9874ZM65.3218 75.3212C64.4634 73.4449 62.5897 72.2416 60.5265 72.2416H60.2591C59.7622 72.2397 59.3475 72.7539 59.5506 73.2073L61.235 76.9683C61.4182 77.3801 61.717 77.73 62.095 77.9755C62.473 78.2211 62.914 78.3518 63.3648 78.3518C63.7234 78.3513 64.0762 78.2611 64.3911 78.0894C64.7059 77.9176 64.9727 77.6698 65.1673 77.3686C65.3618 77.0673 65.4779 76.7221 65.5049 76.3645C65.5318 76.0069 65.4689 75.6482 65.3218 75.3212Z" fill="#453D8A"/>
</g>
<g filter="url(#filter3_d_1565_54698)">
<rect x="107.047" y="40.6434" width="54.4017" height="54.4017" rx="23" fill="url(#paint2_radial_1565_54698)"/>
</g>
<path d="M126.83 65.0841C126.258 65.0841 125.814 64.5645 125.915 63.9984C126.247 62.1353 127.169 60.4035 128.557 59.0954C130.347 57.4055 132.685 56.5629 135.15 56.7239C139.796 57.0256 143.425 61.0953 143.357 65.9574C143.32 68.5812 141.146 70.6714 138.538 70.6714H135.825C135.492 70.9936 135.042 71.1938 134.544 71.1938C133.522 71.1938 132.694 70.3604 132.694 69.3316C132.694 68.3028 133.522 67.4695 134.544 67.4695C135.384 67.4695 136.086 68.0365 136.312 68.8093H138.538C140.144 68.8093 141.489 67.5216 141.506 65.9062C141.549 62.046 138.689 58.8216 135.031 58.5833C133.089 58.4623 131.236 59.1215 129.821 60.4557C128.703 61.5106 127.982 62.8616 127.729 64.3457C127.655 64.7796 127.267 65.0859 126.83 65.0859V65.0841ZM134.567 72.5326C131.148 72.5326 128.19 74.6667 127.206 77.8416C127.119 78.1247 127.169 78.4329 127.344 78.6712C127.519 78.9096 127.796 79.0502 128.09 79.0502H141.045C141.339 79.0502 141.616 78.9096 141.79 78.6712C141.965 78.4329 142.016 78.1247 141.928 77.8416C140.945 74.6667 137.986 72.5326 134.567 72.5326ZM137.282 66.9462H139.46C139.585 66.5021 139.657 66.0347 139.657 65.5496C139.657 62.721 137.379 60.4287 134.567 60.4287C131.756 60.4287 129.478 62.721 129.478 65.5496C129.478 66.9378 130.03 68.1948 130.921 69.1175C131.033 67.1939 132.604 65.6641 134.544 65.6641C135.646 65.6641 136.618 66.1678 137.283 66.9462H137.282Z" fill="#1F3671"/>
</g>
<rect x="22.3203" y="28.2168" width="225.703" height="77.3654" rx="38.6827" stroke="#2D3154" stroke-width="2"/>
<defs>
<filter id="filter0_d_1565_54698" x="0.00976562" y="0.643433" width="277.174" height="142.402" filterUnits="userSpaceOnUse" color-interpolation-filters="sRGB">
<feFlood flood-opacity="0" result="BackgroundImageFix"/>
<feColorMatrix in="SourceAlpha" type="matrix" values="0 0 0 0 0 0 0 0 0 0 0 0 0 0 0 0 0 0 127 0" result="hardAlpha"/>
<feOffset dx="4" dy="4"/>
<feGaussianBlur stdDeviation="22"/>
<feComposite in2="hardAlpha" operator="out"/>
<feColorMatrix type="matrix" values="0 0 0 0 0 0 0 0 0 0 0 0 0 0 0 0 0 0 0.12 0"/>
<feBlend mode="normal" in2="BackgroundImageFix" result="effect1_dropShadow_1565_54698"/>
<feBlend mode="normal" in="SourceGraphic" in2="effect1_dropShadow_1565_54698" result="shape"/>
</filter>
<filter id="filter1_d_1565_54698" x="134.781" y="0.643433" width="142.402" height="142.402" filterUnits="userSpaceOnUse" color-interpolation-filters="sRGB">
<feFlood flood-opacity="0" result="BackgroundImageFix"/>
<feColorMatrix in="SourceAlpha" type="matrix" values="0 0 0 0 0 0 0 0 0 0 0 0 0 0 0 0 0 0 127 0" result="hardAlpha"/>
<feOffset dx="4" dy="4"/>
<feGaussianBlur stdDeviation="22"/>
<feComposite in2="hardAlpha" operator="out"/>
<feColorMatrix type="matrix" values="0 0 0 0 0.411765 0 0 0 0 0.25098 0 0 0 0 0.94902 0 0 0 0.49 0"/>
<feBlend mode="normal" in2="BackgroundImageFix" result="effect1_dropShadow_1565_54698"/>
<feBlend mode="normal" in="SourceGraphic" in2="effect1_dropShadow_1565_54698" result="shape"/>
</filter>
<filter id="filter2_d_1565_54698" x="0.00976562" y="0.643433" width="142.402" height="142.402" filterUnits="userSpaceOnUse" color-interpolation-filters="sRGB">
<feFlood flood-opacity="0" result="BackgroundImageFix"/>
<feColorMatrix in="SourceAlpha" type="matrix" values="0 0 0 0 0 0 0 0 0 0 0 0 0 0 0 0 0 0 127 0" result="hardAlpha"/>
<feOffset dx="4" dy="4"/>
<feGaussianBlur stdDeviation="22"/>
<feComposite in2="hardAlpha" operator="out"/>
<feColorMatrix type="matrix" values="0 0 0 0 0.411765 0 0 0 0 0.25098 0 0 0 0 0.94902 0 0 0 0.49 0"/>
<feBlend mode="normal" in2="BackgroundImageFix" result="effect1_dropShadow_1565_54698"/>
<feBlend mode="normal" in="SourceGraphic" in2="effect1_dropShadow_1565_54698" result="shape"/>
</filter>
<filter id="filter3_d_1565_54698" x="67.0469" y="0.643433" width="142.402" height="142.402" filterUnits="userSpaceOnUse" color-interpolation-filters="sRGB">
<feFlood flood-opacity="0" result="BackgroundImageFix"/>
<feColorMatrix in="SourceAlpha" type="matrix" values="0 0 0 0 0 0 0 0 0 0 0 0 0 0 0 0 0 0 127 0" result="hardAlpha"/>
<feOffset dx="4" dy="4"/>
<feGaussianBlur stdDeviation="22"/>
<feComposite in2="hardAlpha" operator="out"/>
<feColorMatrix type="matrix" values="0 0 0 0 0.411765 0 0 0 0 0.25098 0 0 0 0 0.94902 0 0 0 0.49 0"/>
<feBlend mode="normal" in2="BackgroundImageFix" result="effect1_dropShadow_1565_54698"/>
<feBlend mode="normal" in="SourceGraphic" in2="effect1_dropShadow_1565_54698" result="shape"/>
</filter>
<radialGradient id="paint0_radial_1565_54698" cx="0" cy="0" r="1" gradientUnits="userSpaceOnUse" gradientTransform="translate(211.927 45.1193) rotate(111.414) scale(55.6864 44.5315)">
<stop offset="0.209049" stop-color="#F9FDFF"/>
<stop offset="0.839525" stop-color="#399578"/>
</radialGradient>
<radialGradient id="paint1_radial_1565_54698" cx="0" cy="0" r="1" gradientUnits="userSpaceOnUse" gradientTransform="translate(77.1556 45.1193) rotate(111.414) scale(55.6864 44.5315)">
<stop offset="0.209049" stop-color="#F9FDFF"/>
<stop offset="0.839525" stop-color="#5B4BB9"/>
</radialGradient>
<radialGradient id="paint2_radial_1565_54698" cx="0" cy="0" r="1" gradientUnits="userSpaceOnUse" gradientTransform="translate(144.193 45.1193) rotate(111.414) scale(55.6864 44.5315)">
<stop offset="0.209049" stop-color="#F9FDFF"/>
<stop offset="0.839525" stop-color="#375FC8"/>
</radialGradient>
<clipPath id="clip0_1565_54698">
<rect width="20.9491" height="20.9491" fill="white" transform="translate(56.7676 57.4027)"/>
</clipPath>
</defs>
</svg>
