<svg width="66" height="65" viewBox="0 0 66 65" fill="none" xmlns="http://www.w3.org/2000/svg">
<rect x="1" y="0.5" width="64" height="64" rx="26.5" stroke="#908EB5"/>
<path d="M51.4999 44.1488C51.3373 45.0644 51.1233 45.9629 50.6955 46.793C49.2835 49.5442 47.0415 51.1658 43.9695 51.5081C39.5667 51.9958 35.5748 48.9238 34.8132 44.5553C34.0002 39.9172 37.222 35.4888 41.8644 34.8042C46.5666 34.1111 50.811 37.4014 51.4528 41.9539C51.4614 42.0138 51.4827 42.0694 51.4999 42.1293V44.1488ZM35.8529 43.1305C35.8529 47.131 39.1089 50.3956 43.0966 50.4042C47.0971 50.4085 50.3917 47.1267 50.3917 43.1305C50.3917 39.1428 47.1185 35.8696 43.1351 35.8654C39.1089 35.8654 35.8571 39.1086 35.8571 43.1305H35.8529Z" fill="#908EB5"/>
<path d="M32.0877 49.8693C31.1978 49.8693 30.3078 49.8608 29.4179 49.8693C29.1483 49.8693 29.0371 49.7923 29.0242 49.5014C28.9729 48.4232 28.8916 47.3449 28.836 46.2624C28.8188 45.9587 28.6777 45.8132 28.3953 45.7362C27.2743 45.4324 26.2132 44.9917 25.2077 44.4055C24.9039 44.2301 24.66 44.2643 24.3947 44.5082C23.6117 45.2227 22.8116 45.9116 22.0286 46.6219C21.8404 46.793 21.7206 46.7716 21.5537 46.6005C20.2872 45.3169 19.0122 44.0376 17.7329 42.7668C17.5404 42.5785 17.5489 42.4587 17.7286 42.2662C18.4389 41.496 19.1234 40.7088 19.8337 39.9386C20.0819 39.6691 20.1247 39.4337 19.9364 39.1043C19.3716 38.1202 18.9395 37.0762 18.6442 35.9809C18.5587 35.6642 18.4089 35.4931 18.0538 35.476C17.0226 35.4289 15.9915 35.3391 14.9603 35.292C14.648 35.2792 14.5154 35.2022 14.5196 34.8556C14.5367 33.1013 14.5325 31.3428 14.5239 29.5886C14.5239 29.3147 14.5838 29.1778 14.8962 29.165C15.9658 29.1179 17.0312 29.0366 18.0966 28.981C18.4132 28.9639 18.5715 28.8184 18.6485 28.5232C18.9437 27.4022 19.4058 26.3454 19.9792 25.3356C20.146 25.0447 20.1204 24.8093 19.8893 24.5526C19.1791 23.7696 18.4859 22.9652 17.7757 22.1823C17.596 21.9854 17.6088 21.8656 17.7928 21.6817C19.0764 20.4152 20.3557 19.1401 21.6265 17.8608C21.8019 17.6854 21.9174 17.6811 22.1014 17.8523C22.8715 18.5625 23.6588 19.2514 24.4247 19.9616C24.7028 20.2226 24.951 20.2654 25.289 20.0729C26.2731 19.5081 27.3128 19.0674 28.4124 18.7807C28.7333 18.6994 28.8916 18.5283 28.9087 18.1774C28.9558 17.1335 29.0456 16.0937 29.097 15.0498C29.1098 14.7503 29.221 14.6604 29.5077 14.6604C31.2748 14.6732 33.0419 14.6732 34.8132 14.6647C35.1042 14.6647 35.2069 14.7588 35.2197 15.054C35.2668 16.1237 35.3481 17.1891 35.4037 18.2545C35.4208 18.5582 35.562 18.7037 35.8444 18.7807C36.9397 19.076 37.9794 19.5124 38.9721 20.0686C39.4213 20.3168 39.5197 20.2996 39.8963 19.9659C40.6579 19.2856 41.4237 18.6096 42.181 17.9207C42.3779 17.741 42.5148 17.7239 42.7202 17.9293C43.9567 19.1915 45.1975 20.4494 46.4554 21.6945C46.7079 21.9426 46.6907 22.0838 46.4554 22.332C45.7452 23.085 45.0691 23.868 44.3674 24.6296C44.1449 24.8692 44.1193 25.0917 44.2819 25.3741C44.8552 26.3967 45.3173 27.4621 45.6125 28.6002C45.6938 28.9126 45.8778 29.0409 46.2072 29.058C47.2641 29.1094 48.3166 29.1949 49.3734 29.2506C49.643 29.2634 49.7243 29.3661 49.72 29.6228C49.7115 31.4156 49.7115 33.2083 49.72 35.0011C49.72 35.2621 49.6302 35.3861 49.3649 35.3647C49.3521 35.3647 49.3392 35.3647 49.3307 35.3647C48.6118 35.5231 48 35.3134 47.3539 34.9583C45.7666 34.0812 44.038 33.7731 42.2324 33.9656C41.9115 33.9999 41.8644 33.8629 41.8987 33.5934C42.2495 30.778 41.582 28.2365 39.7764 26.0416C37.9409 23.8081 35.5705 22.5973 32.6696 22.4219C27.5395 22.1095 23.1668 25.8063 22.3881 30.6026C21.451 36.3659 25.3745 41.0211 30.2009 41.9624C31.2833 42.1721 32.3744 42.1849 33.4655 42.0437C33.9447 41.9838 33.9447 41.9752 33.9147 42.4502C33.8163 44.1659 34.1115 45.8089 34.9202 47.3321C35.1384 47.7429 35.2582 48.1451 35.2026 48.6029C35.1769 48.8168 35.1684 49.035 35.147 49.2489C35.1042 49.6654 34.8774 49.8736 34.4667 49.8736C33.6708 49.8736 32.8793 49.8736 32.0835 49.8736L32.0877 49.8693Z" fill="#908EB5"/>
<path d="M32.1526 23.1918C36.735 23.2004 40.6115 26.6618 41.1377 31.2057C41.2362 32.0743 41.2019 32.93 41.0693 33.79C41.0265 34.0596 40.9153 34.1751 40.6585 34.2478C38.1256 34.9709 36.2259 36.4898 34.9679 38.8089C34.6342 39.425 34.3732 40.0711 34.2149 40.7556C34.1507 41.0295 34.0138 41.1535 33.7443 41.2049C30.0347 41.928 26.0641 40.0711 24.22 36.738C21.7042 32.1898 23.3557 26.6233 27.9553 24.2016C29.2645 23.5127 30.6722 23.1833 32.1569 23.1918H32.1526ZM32.5035 30.166C32.5035 29.4814 32.5035 28.7968 32.5035 28.108C32.5035 27.9069 32.4179 27.7571 32.2039 27.7143C32.02 27.6801 31.8531 27.7272 31.7846 27.9112C31.7419 28.031 31.7376 28.1679 31.7376 28.3005C31.7376 29.3359 31.729 30.3714 31.7376 31.4025C31.7376 31.7149 31.6263 31.8304 31.314 31.8176C30.8562 31.8004 30.3984 31.8176 29.9448 31.8133C29.6795 31.8133 29.4485 31.8775 29.4399 32.1941C29.4314 32.515 29.6582 32.5877 29.9277 32.5877C30.6123 32.5877 31.2969 32.5963 31.9857 32.5877C32.4093 32.5877 32.5035 32.4807 32.5077 32.04C32.512 31.4154 32.5077 30.7907 32.5077 30.1617L32.5035 30.166ZM26.3722 26.1141C26.2096 26.1141 26.0983 26.1911 26.0299 26.3366C25.9443 26.5163 26.0128 26.6703 26.1326 26.7944C26.4321 27.1068 26.7358 27.4106 27.0439 27.7101C27.2279 27.8898 27.4333 27.9625 27.6429 27.7528C27.8483 27.5475 27.7927 27.3421 27.6087 27.1538C27.3135 26.8543 27.014 26.5591 26.7187 26.2639C26.6203 26.1655 26.5091 26.1056 26.3679 26.1141H26.3722ZM38.2454 26.4864C38.2326 26.3366 38.1684 26.2083 38.0272 26.1441C37.8603 26.0713 37.6934 26.0927 37.5608 26.2211C37.2442 26.5292 36.9276 26.8458 36.6195 27.1581C36.4312 27.3507 36.397 27.556 36.6024 27.7528C36.7992 27.9411 37.0003 27.8855 37.1757 27.7143C37.4838 27.4148 37.7876 27.1068 38.0914 26.803C38.1769 26.7131 38.2283 26.6062 38.2454 26.4821V26.4864ZM27.3434 36.5797C27.3135 36.5882 27.2407 36.5882 27.2022 36.6225C26.7829 36.9776 26.3764 37.3541 26.047 37.7905C25.9272 37.9488 26.017 38.1157 26.1539 38.2355C26.2951 38.3596 26.4663 38.3938 26.6118 38.2655C27.0054 37.9317 27.3648 37.568 27.7028 37.1744C27.8012 37.0632 27.8183 36.9134 27.7328 36.7722C27.6515 36.6353 27.5317 36.5711 27.3477 36.5797H27.3434ZM31.7419 24.8049C31.7419 25.0573 31.7333 25.3055 31.7419 25.5579C31.7547 25.7847 31.9087 25.913 32.1184 25.913C32.328 25.913 32.4863 25.7804 32.4906 25.5536C32.4992 25.0659 32.5035 24.5738 32.4906 24.086C32.4863 23.8636 32.3409 23.7395 32.1141 23.7395C31.8873 23.7395 31.7547 23.8636 31.7419 24.0903C31.729 24.3299 31.7419 24.5695 31.7419 24.8049ZM32.4992 39.6047C32.4992 39.3779 32.5035 39.1511 32.4992 38.9244C32.4906 38.6848 32.3708 38.5393 32.1227 38.5393C31.8745 38.5393 31.7461 38.6805 31.7419 38.9201C31.7333 39.3865 31.7333 39.8528 31.7419 40.3192C31.7419 40.5631 31.8916 40.7128 32.1184 40.7128C32.3451 40.7128 32.4949 40.5674 32.4992 40.3235C32.5077 40.0839 32.4992 39.8443 32.4992 39.6047ZM24.7078 32.5877C24.9474 32.5877 25.187 32.592 25.4266 32.5877C25.6491 32.5792 25.7903 32.4679 25.7945 32.2326C25.7945 31.993 25.6747 31.8347 25.4351 31.8304C24.9688 31.8176 24.5024 31.8218 24.036 31.8304C23.7964 31.8304 23.6552 31.9587 23.6509 32.2112C23.6509 32.4593 23.7879 32.5877 24.0317 32.592C24.2585 32.5963 24.4853 32.592 24.7163 32.592L24.7078 32.5877ZM39.4862 32.5877C39.7258 32.5877 39.9654 32.5877 40.205 32.5877C40.4446 32.5834 40.5944 32.4722 40.5944 32.2155C40.5944 31.9716 40.4617 31.8304 40.2178 31.8261C39.7515 31.8176 39.2851 31.8176 38.8187 31.8261C38.5748 31.8304 38.4465 31.9801 38.4508 32.2197C38.4508 32.4765 38.6048 32.5792 38.8444 32.5834C39.0583 32.5834 39.2765 32.5834 39.4905 32.5834L39.4862 32.5877Z" fill="#908EB5"/>
<path d="M43.1224 36.6737C46.7079 36.6737 49.5746 39.5532 49.5703 43.1473C49.5703 46.7285 46.6865 49.5653 43.0839 49.5909C39.9049 49.6123 36.6445 47.0665 36.6445 43.1302C36.6445 39.2537 39.8364 36.6181 43.1181 36.6737H43.1224ZM41.4409 45.7145C41.6249 45.7145 41.7532 45.599 41.8944 45.5091C43.5075 44.4352 45.1162 43.357 46.725 42.283C46.7935 42.236 46.8662 42.1932 46.9304 42.1375C47.1186 41.9835 47.1486 41.7824 47.0373 41.5899C46.9133 41.3717 46.6993 41.3845 46.4982 41.4786C46.3913 41.53 46.2929 41.6027 46.1945 41.6712C44.744 42.6424 43.2935 43.6094 41.8516 44.5849C41.6206 44.739 41.4837 44.7347 41.3339 44.4908C41.0259 44.003 40.6964 43.5281 40.3712 43.0532C40.23 42.8435 40.0461 42.7023 39.7979 42.8606C39.5412 43.0232 39.5583 43.2671 39.708 43.4896C40.153 44.1613 40.6066 44.8288 41.0601 45.4963C41.1542 45.6332 41.274 45.7273 41.4494 45.7145H41.4409Z" fill="#908EB5"/>
</svg>
