<svg width="66" height="65" viewBox="0 0 66 65" fill="none" xmlns="http://www.w3.org/2000/svg">
<rect x="1" y="0.5" width="64" height="64" rx="26.5" stroke="#908EB5"/>
<path d="M26.8418 32.9829C26.8418 30.6856 26.8418 28.3884 26.8418 26.0911C26.8418 25.396 26.9312 25.3093 27.6361 25.3093C29.7854 25.3093 31.936 25.3093 34.0853 25.3093C34.606 25.3093 34.6073 25.3106 34.6086 25.8283C34.61 26.5738 34.602 27.3206 34.6126 28.0661C34.6233 28.9048 35.0825 29.4238 35.9476 29.5247C36.846 29.6295 37.7538 29.548 38.6563 29.5648C39.1422 29.5739 39.1529 29.5752 39.1529 30.0385C39.1542 33.3544 39.1542 36.6703 39.1529 39.9861C39.1529 40.5983 39.0394 40.7019 38.4 40.7019C34.7969 40.7019 31.1924 40.7019 27.5894 40.7019C26.9539 40.7019 26.8418 40.597 26.8404 39.9823C26.8391 37.6487 26.8404 35.3165 26.8404 32.9829H26.8418ZM33.036 37.7911C32.1216 37.7911 31.2071 37.7911 30.2913 37.7911C30.011 37.7911 29.7293 37.782 29.4503 37.7963C29.0859 37.8144 28.8442 38.0435 28.8496 38.3411C28.8536 38.6181 29.0912 38.8356 29.433 38.8731C29.505 38.8808 29.5798 38.8783 29.6519 38.8783C31.884 38.8783 34.116 38.8783 36.3481 38.8783C36.507 38.8783 36.6645 38.8731 36.814 38.8097C37.0263 38.7204 37.1397 38.5586 37.1451 38.3411C37.1491 38.1224 37.0356 37.9606 36.8314 37.8597C36.6832 37.7872 36.5256 37.7885 36.3668 37.7885C35.2574 37.7885 34.1467 37.7885 33.0374 37.7885L33.036 37.7911ZM32.9987 35.0719C31.8279 35.0719 30.6571 35.068 29.4863 35.0745C29.0431 35.077 28.7641 35.3605 28.8616 35.7035C28.9484 36.0141 29.1887 36.1163 29.5037 36.115C30.7599 36.1112 32.0161 36.115 33.2723 36.115C34.3456 36.115 35.419 36.1124 36.4923 36.115C36.8247 36.115 37.0717 36.005 37.1411 35.6698C37.2118 35.3346 36.9408 35.0757 36.5123 35.0745C35.3415 35.0693 34.1708 35.0732 33 35.0732L32.9987 35.0719ZM33.036 32.3112C32.3165 32.3112 31.5969 32.3112 30.8774 32.3112C30.3781 32.3112 29.8775 32.3035 29.3782 32.319C29.0578 32.3293 28.8322 32.5584 28.8496 32.838C28.8669 33.1408 29.0458 33.313 29.3569 33.3427C29.4904 33.3557 29.6252 33.3518 29.7587 33.3518C31.9053 33.3518 34.0506 33.3518 36.1972 33.3518C36.3561 33.3518 36.5163 33.3583 36.6725 33.3376C36.9662 33.3 37.1317 33.1253 37.1477 32.8406C37.1651 32.5235 36.9155 32.3138 36.5123 32.3125C35.3535 32.3073 34.1961 32.3112 33.0374 32.3099L33.036 32.3112ZM31.5662 29.548C30.8961 29.548 30.2259 29.5441 29.5558 29.548C29.1112 29.5506 28.8416 29.7641 28.8482 30.0955C28.8536 30.4061 29.1206 30.6145 29.5411 30.63C29.748 30.6378 29.9549 30.6326 30.1618 30.6326C31.2458 30.6326 32.3298 30.6326 33.4138 30.6326C33.5353 30.6326 33.6581 30.6352 33.7783 30.6183C34.1401 30.5666 34.3176 30.3724 34.3069 30.0566C34.2962 29.7551 34.084 29.5571 33.7209 29.5519C33.0027 29.5415 32.2831 29.5493 31.5649 29.5493L31.5662 29.548Z" fill="#908EB5"/>
<path d="M48.228 30.5341C47.5925 30.5341 46.9569 30.5145 46.3229 30.5417C45.9576 30.5583 45.8156 30.4118 45.7402 30.0707C45.1786 27.5783 43.9694 25.4406 42.1503 23.6547C40.4157 21.9519 38.3581 20.8121 35.9834 20.2716C35.5849 20.1811 35.4445 20.0226 35.4535 19.6104C35.4792 18.368 35.4626 17.1241 35.4626 15.8816C35.4626 15.3563 35.4883 15.3276 36.0015 15.4197C39.1265 15.9752 41.9344 17.2328 44.3679 19.2753C47.7117 22.0802 49.7769 25.6414 50.565 29.9378C50.6721 30.5175 50.657 30.5356 50.0517 30.5356C49.4433 30.5356 48.8364 30.5356 48.228 30.5356V30.5341Z" fill="#908EB5"/>
<path d="M35.462 48.2526C35.462 47.617 35.4817 46.9815 35.4545 46.3474C35.4379 45.973 35.5707 45.816 35.9391 45.733C38.3575 45.188 40.4484 44.0271 42.2056 42.285C43.9839 40.5218 45.169 38.4128 45.7291 35.9687C45.8151 35.5943 45.957 35.4449 46.3601 35.4524C47.6161 35.4781 48.8736 35.4615 50.1311 35.463C50.6399 35.463 50.6671 35.4962 50.575 36.017C50.0934 38.7404 49.0684 41.2404 47.4229 43.464C44.5681 47.3242 40.7684 49.6913 36.0463 50.5684C35.4862 50.6725 35.4636 50.6514 35.4636 50.0777C35.4636 49.4694 35.4636 48.8625 35.4636 48.2541L35.462 48.2526Z" fill="#908EB5"/>
<path d="M17.7536 30.5345C17.1317 30.5345 16.5112 30.5345 15.8893 30.5345C15.3488 30.5345 15.3292 30.5074 15.4258 29.9624C15.6764 28.5569 16.0523 27.1847 16.6516 25.8879C19.3086 20.1377 23.759 16.6565 29.9696 15.4277C30.507 15.322 30.5342 15.3507 30.5342 15.8972C30.5342 17.126 30.5191 18.3563 30.5433 19.5852C30.5523 20.0049 30.4225 20.1694 29.9998 20.2796C25.2958 21.5009 22.1437 24.4205 20.5404 29.0083C20.4272 29.3329 20.317 29.668 20.2717 30.0062C20.2128 30.4485 19.9939 30.5662 19.5743 30.5451C18.9689 30.5134 18.359 30.5376 17.7521 30.5376L17.7536 30.5345Z" fill="#908EB5"/>
<path d="M17.7645 35.4602C18.3865 35.4602 19.0084 35.4844 19.6289 35.4512C20.0274 35.4301 20.1799 35.578 20.2659 35.9584C20.8366 38.4629 22.0624 40.6081 23.9042 42.3925C25.6282 44.0636 27.6662 45.1838 30.0091 45.7212C30.4046 45.8118 30.5526 45.9628 30.5435 46.3794C30.5164 47.6354 30.5345 48.893 30.533 50.1505C30.533 50.6305 30.5058 50.6592 30.0393 50.5777C26.5475 49.9678 23.48 48.4808 20.8834 46.0639C17.9683 43.3496 16.1597 40.0208 15.4381 36.1018C15.3204 35.4648 15.3219 35.4602 15.9816 35.4602C16.5749 35.4602 17.1697 35.4602 17.763 35.4602H17.7645Z" fill="#908EB5"/>
<path d="M17.1884 34.2385C16.2645 34.2385 15.3391 34.2536 14.4152 34.234C13.526 34.2159 13.0006 33.7434 12.9961 33.0067C12.9931 32.4164 13.3645 31.9378 13.9472 31.8201C14.1751 31.7733 14.4121 31.7567 14.6446 31.7567C16.355 31.7521 18.0655 31.7537 19.7759 31.7537C19.8166 31.7537 19.8589 31.7537 19.8997 31.7537C20.8673 31.7703 21.4501 32.2307 21.4576 32.987C21.4651 33.7434 20.8794 34.2234 19.9193 34.2385C19.4921 34.2461 19.0633 34.24 18.6361 34.24C18.153 34.24 17.6699 34.24 17.1884 34.24V34.2385Z" fill="#908EB5"/>
<path d="M48.7587 34.2402C47.9027 34.2402 47.0483 34.2447 46.1923 34.2371C45.9598 34.2356 45.7213 34.219 45.4949 34.1707C44.9242 34.0499 44.5287 33.5427 44.5393 32.9766C44.5498 32.4211 44.9363 31.9425 45.4918 31.8217C45.679 31.781 45.8738 31.7568 46.0655 31.7568C47.8725 31.7523 49.6796 31.7523 51.4866 31.7568C51.6783 31.7568 51.8731 31.7795 52.0603 31.8202C52.6369 31.944 53.0083 32.4256 53.0008 33.0158C52.9932 33.5865 52.6249 34.0545 52.0633 34.1722C51.8353 34.219 51.5983 34.2356 51.3658 34.2371C50.4963 34.2447 49.6282 34.2402 48.7587 34.2402Z" fill="#908EB5"/>
<path d="M34.2382 17.2206C34.2382 18.0901 34.2427 18.9582 34.2352 19.8277C34.2337 20.0602 34.2156 20.2987 34.1658 20.5252C34.042 21.0762 33.5483 21.4581 32.9958 21.4581C32.4523 21.4581 31.9451 21.0626 31.8273 20.5221C31.7775 20.2957 31.7594 20.0572 31.7579 19.8247C31.7519 18.0871 31.7534 16.3495 31.7579 14.6104C31.7579 14.3915 31.7745 14.1681 31.8183 13.9537C31.933 13.3725 32.4085 12.9951 32.9988 12.9951C33.5891 12.9951 34.0616 13.3725 34.1763 13.9568C34.2186 14.1711 34.2337 14.3945 34.2352 14.6134C34.2412 15.483 34.2382 16.351 34.2382 17.2206Z" fill="#908EB5"/>
<path d="M34.2391 48.7864C34.2391 49.6273 34.2437 50.4697 34.2361 51.3105C34.2346 51.5445 34.218 51.78 34.1788 52.0095C34.0806 52.5922 33.6111 52.9862 33.0239 52.9968C32.4321 53.0074 31.943 52.6375 31.8222 52.0638C31.7739 51.8359 31.7588 51.5989 31.7573 51.3664C31.7528 49.6424 31.7528 47.9184 31.7573 46.1944C31.7573 45.9891 31.7739 45.7807 31.8071 45.5769C31.9128 44.9504 32.411 44.5262 33.0088 44.5353C33.5975 44.5444 34.0791 44.955 34.1818 45.5634C34.2965 46.2336 34.218 46.913 34.2346 47.5878C34.2437 47.9878 34.2361 48.3879 34.2361 48.7879L34.2391 48.7864Z" fill="#908EB5"/>
<path d="M37.7137 28.384C37.3189 28.384 36.924 28.3827 36.5291 28.384C36.2416 28.3853 36.0811 28.2456 36.0799 27.9378C36.0774 27.1334 36.0774 26.3303 36.0799 25.5259C36.0799 25.4496 36.0515 25.3449 36.1515 25.3138C36.2243 25.2905 36.2724 25.363 36.3205 25.4095C37.2288 26.3122 38.1358 27.2162 39.0416 28.1215C39.0946 28.1745 39.1859 28.2275 39.144 28.3232C39.1045 28.4137 39.0058 28.3827 38.9305 28.3827C38.5245 28.3866 38.1185 28.384 37.7125 28.3827L37.7137 28.384Z" fill="#908EB5"/>
</svg>
