<svg width="66" height="65" viewBox="0 0 66 65" fill="none" xmlns="http://www.w3.org/2000/svg">
<rect x="1" y="0.5" width="64" height="64" rx="26.5" stroke="#908EB5"/>
<path d="M23.7812 26.137C23.4347 26.4267 23.1563 26.6483 22.8837 26.8812C22.2417 27.4209 21.6169 27.9833 20.9522 28.5002C20.3841 28.9433 20.1455 29.4943 20.1626 30.1988C20.1967 31.7326 20.2194 33.2607 20.2421 34.7945C20.2421 35.0728 20.2592 35.3569 20.2421 35.6352C20.1796 36.3908 19.4695 36.8282 18.7651 36.5612C18.4527 36.4419 18.2595 36.2317 18.2084 35.8909C17.8676 33.6299 17.521 31.3633 17.1802 29.1024C17.0779 28.415 17.237 27.8072 17.6858 27.2448C18.731 25.9325 19.7479 24.5919 20.742 23.2455C21.2874 22.507 21.935 22.0014 22.8723 21.8253C23.7869 21.6549 24.6845 21.3822 25.5877 21.155C25.9967 21.0528 25.9967 21.0357 25.7183 20.729C24.8662 19.8087 24.5481 18.735 24.923 17.5193C25.2923 16.315 26.1217 15.5595 27.3544 15.2754C28.7916 14.946 30.2913 15.6788 30.8992 17.0194C31.0185 17.2864 31.1832 17.3376 31.4332 17.2921C34.6485 16.7524 37.8638 16.2071 41.0791 15.6674C42.0789 15.497 43.073 15.3266 44.0728 15.1618C44.4932 15.0937 44.533 15.1618 44.3853 15.5822C43.8172 17.1331 43.8229 18.6839 44.4023 20.2291C44.5443 20.5983 44.5102 20.6665 44.1183 20.621C43.1241 20.5131 42.1357 20.3881 41.1472 20.2575C40.5224 20.1722 40.511 20.1722 40.3292 20.7517C39.96 21.9617 39.5737 23.166 39.2272 24.3817C38.9431 25.3872 38.3523 25.995 37.3071 26.2336C35.5688 26.6256 33.8475 27.0971 32.1149 27.5174C31.6945 27.6197 31.5354 27.8185 31.5241 28.2616C31.4957 29.8977 31.4218 31.5337 31.382 33.1698C31.3593 34.0503 31.382 34.0503 30.4731 34.0503C29.9959 34.0503 29.5131 34.0446 29.0359 34.0503C27.8316 34.073 26.9227 34.9876 26.8999 36.1863C26.8943 36.6521 26.8886 37.1179 26.8999 37.5837C26.8999 37.8507 26.7977 37.97 26.525 37.97C25.4059 37.9643 24.2868 37.9643 23.1677 37.97C22.8212 37.97 22.77 37.8223 22.8439 37.5212C23.1563 36.226 23.4631 34.9308 23.7017 33.6242C23.7755 33.2152 23.8323 32.8119 23.8323 32.3972C23.8323 30.4658 23.8323 28.5343 23.8323 26.6028C23.8323 26.4836 23.821 26.3699 23.8096 26.1427L23.7812 26.137ZM31.6661 19.0929C31.4559 19.0929 31.223 18.9623 31.1264 19.3145C30.9162 20.1211 30.439 20.746 29.7346 21.1891C29.5074 21.3311 29.5131 21.4391 29.7119 21.6038C30.2629 22.0639 30.7969 22.5468 31.3423 23.0069C31.7967 23.3932 32.3364 23.5807 32.9329 23.5296C33.7509 23.4614 34.5689 23.3648 35.3927 23.2796C36.1993 23.2001 36.7333 22.7683 37.0571 22.0355C37.2673 21.5583 37.5059 21.1039 37.7274 20.6324C38.0626 19.9166 38.0626 19.8996 37.2787 19.7973C35.4097 19.553 33.535 19.3258 31.6661 19.0929Z" fill="#908EB5"/>
<path d="M41.1406 39.1632C41.1406 35.6582 41.1406 32.1532 41.1406 28.6482C41.1406 27.637 41.561 27.2109 42.5665 27.2109C43.8731 27.2109 45.1796 27.2109 46.4862 27.2109C47.4122 27.2109 47.8325 27.6256 47.8325 28.5516C47.8325 35.3742 47.8325 42.1967 47.8325 49.0193C47.8325 49.9453 47.4178 50.36 46.4919 50.36C44.8956 50.36 43.2936 50.36 41.6973 50.36C41.152 50.36 41.1463 50.36 41.1463 49.7919C41.1463 46.2471 41.1463 42.7023 41.1463 39.1575L41.1406 39.1632Z" fill="#908EB5"/>
<path d="M40.1186 40.7194C40.1186 43.7188 40.1186 46.7125 40.1186 49.712C40.1186 50.3653 40.1186 50.3653 39.4824 50.3653C38.0054 50.3653 36.5227 50.3653 35.0457 50.3653C34.5344 50.3653 34.5117 50.3425 34.5117 49.8597C34.5117 44.0369 34.5117 38.2141 34.5117 32.3914C34.5117 31.5166 34.9719 31.0678 35.8524 31.0621C37.0908 31.0564 38.3292 31.0621 39.5676 31.0621C40.0732 31.0621 40.1129 31.0962 40.1129 31.6074C40.1129 34.6466 40.1129 37.6802 40.1129 40.7194H40.1186Z" fill="#908EB5"/>
<path d="M33.4993 42.7477C33.4993 45.0768 33.4993 47.4059 33.4993 49.735C33.4993 50.3542 33.4936 50.3598 32.8744 50.3598C31.3974 50.3598 29.9204 50.3598 28.4434 50.3598C27.9208 50.3598 27.8924 50.3314 27.8867 49.8259C27.8867 45.3665 27.8867 40.9071 27.8867 36.4477C27.8867 35.5274 28.3469 35.0673 29.2615 35.0616C30.4999 35.0559 31.7383 35.0616 32.9767 35.0616C33.4482 35.0616 33.4936 35.1071 33.4936 35.5956C33.4936 37.9758 33.4936 40.3617 33.4936 42.742L33.4993 42.7477Z" fill="#908EB5"/>
<path d="M26.8705 44.662C26.8705 46.3946 26.8649 48.1216 26.8762 49.8542C26.8762 50.2234 26.774 50.3711 26.3763 50.3711C24.8425 50.3541 23.3144 50.3541 21.7806 50.3711C21.4113 50.3711 21.2523 50.2632 21.258 49.8769C21.2693 46.7354 21.258 43.594 21.2693 40.4469C21.2693 39.413 21.7067 39.004 22.7406 38.9926C23.9393 38.9812 25.1379 38.9926 26.3365 38.9926C26.8308 38.9926 26.8649 39.0324 26.8649 39.555C26.8649 41.2592 26.8649 42.9634 26.8649 44.6677L26.8705 44.662Z" fill="#908EB5"/>
<path d="M20.2423 46.6726C20.2423 47.752 20.2309 48.8313 20.2423 49.905C20.2423 50.2515 20.123 50.3708 19.7765 50.3651C18.4301 50.3537 17.0895 50.3651 15.7431 50.3594C15.033 50.3594 14.6865 50.0129 14.6808 49.2687C14.6695 47.911 14.6808 46.5533 14.6808 45.1956C14.6808 44.7809 14.6695 44.3719 14.6865 43.9572C14.7149 43.2585 15.0387 42.9517 15.7374 42.9517C17.0838 42.9517 18.4244 42.9631 19.7708 42.946C20.1457 42.946 20.2536 43.0767 20.248 43.4346C20.2309 44.5139 20.248 45.5933 20.2423 46.6669V46.6726Z" fill="#908EB5"/>
<path d="M48.0664 17.9172C48.072 18.5364 47.9755 19.1385 47.7482 19.7123C47.6687 19.9111 47.5778 20.1043 47.4642 20.2804C46.9132 21.1211 46.1463 21.1154 45.5896 20.2804C44.7829 19.0647 44.7772 16.6844 45.5896 15.4744C46.1406 14.6394 46.9132 14.6394 47.4699 15.4744C47.8562 16.0482 48.072 16.9344 48.0664 17.9172Z" fill="#908EB5"/>
<path d="M50.5201 17.1502C50.6678 17.1502 50.8155 17.1332 50.9575 17.1502C51.2642 17.1957 51.4687 17.3775 51.4971 17.6956C51.5255 18.0137 51.3608 18.2409 51.0597 18.3205C50.6848 18.417 50.2928 18.4114 49.9179 18.3205C49.6111 18.2466 49.4521 18.0137 49.4748 17.7013C49.4975 17.3831 49.702 17.1957 50.0088 17.1502C50.1792 17.1275 50.3496 17.1502 50.5257 17.1502H50.5201Z" fill="#908EB5"/>
<path d="M51.4237 20.7181C51.4237 21.1044 51.0715 21.3998 50.6966 21.2918C50.3785 21.1953 50.066 21.0703 49.7763 20.9112C49.4923 20.7522 49.373 20.4795 49.5207 20.1614C49.657 19.8603 49.9126 19.7183 50.2421 19.8262C50.5432 19.9285 50.8386 20.0534 51.1283 20.1898C51.3385 20.292 51.4294 20.4852 51.4294 20.7181H51.4237Z" fill="#908EB5"/>
<path d="M51.425 14.7756C51.4364 15.1505 51.1864 15.3266 50.8796 15.4289C50.4877 15.5595 50.1014 15.9344 49.6583 15.5482C49.3629 15.2868 49.3913 14.8437 49.7321 14.6222C50.0332 14.4234 50.3741 14.2927 50.7206 14.2075C51.0898 14.1166 51.4136 14.395 51.4193 14.7756H51.425Z" fill="#908EB5"/>
</svg>
