<svg width="1920" height="1104" viewBox="0 0 1920 1104" fill="none" xmlns="http://www.w3.org/2000/svg">
<g clip-path="url(#clip0_4262_115303)">
<g style="mix-blend-mode:color-dodge">
<path d="M735.452 812.119L802.437 799.912H921.014L868.131 812.119H735.452Z" fill="url(#paint0_diamond_4262_115303)" stroke="#55567A"/>
<path d="M1287.73 799.084L1277.02 813.766L1142.82 812.953L1167.74 799.084H1287.73Z" fill="url(#paint1_radial_4262_115303)" stroke="#55567A"/>
<path d="M1418.49 812.942H1279.19L1288.98 799.084H1410.49L1418.49 812.942Z" fill="url(#paint2_diamond_4262_115303)" stroke="#55567A"/>
<path d="M1420.57 812.942L1410.76 798.268L1528.89 799.086L1553.63 811.32L1420.57 812.942Z" fill="url(#paint3_radial_4262_115303)" stroke="#55567A"/>
<path d="M1691.8 812.947H1556.8L1532.88 799.914H1651.95L1691.8 812.947Z" fill="url(#paint4_diamond_4262_115303)" stroke="#55567A"/>
<path d="M1769.26 799.084L1835.08 812.942H1695.97L1653.28 799.084H1769.26Z" fill="url(#paint5_radial_4262_115303)" stroke="#55567A"/>
<path d="M1838.87 813.119L1916.15 829.453H1756.99L1697.68 813.119H1838.87Z" fill="url(#paint6_diamond_4262_115303)" stroke="#55567A"/>
<path d="M1967.61 813.947L2049.75 828.631H1914.31L1840.21 813.947H1967.61Z" fill="url(#paint7_radial_4262_115303)" stroke="#55567A"/>
<path d="M1838.88 789.184L1894.23 798.915H1772.23L1717.34 787.601L1838.88 789.184Z" fill="url(#paint8_radial_4262_115303)" stroke="#55567A"/>
<path d="M2032.08 856.696H1842.82L1760.14 831.249L1918.97 829.631L2032.08 856.696Z" fill="url(#paint9_radial_4262_115303)" stroke="#55567A"/>
<path d="M1267.05 831.279H1431.5L1450.77 856.697L1249.6 857.515L1267.05 831.279Z" fill="url(#paint10_diamond_4262_115303)" stroke="#55567A"/>
<path d="M1142.93 813.119H1278.23L1266.52 830.283L1102.17 832.722L1142.93 813.119Z" fill="url(#paint11_diamond_4262_115303)" stroke="#55567A"/>
<path d="M1431.76 831.93H1266.77L1279.44 813.119H1419.09L1431.76 831.93Z" fill="url(#paint12_radial_4262_115303)" stroke="#55567A"/>
<path d="M1432.96 831.932L1420.3 813.93L1558.45 811.473L1593.9 831.932H1432.96Z" fill="url(#paint13_diamond_4262_115303)" stroke="#55567A"/>
<path d="M1051.93 857.691L972.965 895.487H732.331L856.816 857.691H1051.93Z" fill="url(#paint14_radial_4262_115303)" stroke="#55567A"/>
<path d="M854.205 857.737L730.792 895.489L486.971 900.341L667.04 860.167L854.205 857.737Z" fill="url(#paint15_diamond_4262_115303)" stroke="#55567A"/>
<path d="M1451.07 856.694L1432.75 832.105H1592.79L1642.27 856.694H1451.07Z" fill="url(#paint16_radial_4262_115303)" stroke="#55567A"/>
<path d="M1054.25 857.691H1249.61L1223.62 894.662H975.332L1054.25 857.691Z" fill="url(#paint17_diamond_4262_115303)" stroke="#55567A"/>
<path d="M1478.73 894.662L1451.8 857.691H1645.24L1723.23 894.662H1478.73Z" fill="url(#paint18_diamond_4262_115303)" stroke="#55567A"/>
<path d="M1077.97 1103.5L1173.8 962.523H1530.4L1631.03 1103.5H1077.97Z" fill="url(#paint19_radial_4262_115303)" stroke="#55567A"/>
<path d="M1175.25 961.524L1222.15 894.838H1482.91L1531.84 961.524H1175.25Z" fill="url(#paint20_diamond_4262_115303)" stroke="#55567A"/>
<path d="M558.395 1103.5L827.225 962.523H1173.34L1078.46 1103.5H558.395Z" fill="url(#paint21_diamond_4262_115303)" stroke="#55567A"/>
<path d="M831.289 961.522L970.337 894.836H1222.9L1175.3 961.522H831.289Z" fill="url(#paint22_radial_4262_115303)" stroke="#55567A"/>
<path d="M489.468 961.542L733.799 894.838H969.948L828.976 963.174L489.468 961.542Z" fill="url(#paint23_radial_4262_115303)" stroke="#55567A"/>
<path d="M88.1923 961.524L378.51 901.959L730.969 896.213L490.787 961.524H88.1923Z" fill="url(#paint24_radial_4262_115303)" stroke="#55567A"/>
<path d="M115.69 1095.79L490.304 961.531H831.964L560.877 1103.5L115.69 1095.79Z" fill="url(#paint25_radial_4262_115303)" stroke="#55567A"/>
<path d="M-287.951 1095.74L86.531 961.531H491.396L118.942 1095.74H-287.951Z" fill="url(#paint26_radial_4262_115303)" stroke="#55567A"/>
<path d="M2158.17 1103.5L1876.41 962.523H1529.99L1631.3 1103.5H2158.17Z" fill="url(#paint27_diamond_4262_115303)" stroke="#55567A"/>
<path d="M1871.89 961.524L1724.39 894.838H1482.13L1533.18 961.524H1871.89Z" fill="url(#paint28_radial_4262_115303)" stroke="#55567A"/>
<path d="M2193.24 958.273L1979.03 894.838H1726.8L1876.22 963.173L2193.24 958.273Z" fill="url(#paint29_radial_4262_115303)" stroke="#55567A"/>
<path d="M943.594 832.105H1102.6L1053.06 857.52H861.022L943.594 832.105Z" fill="url(#paint30_diamond_4262_115303)" stroke="#55567A"/>
<path d="M1102.9 831.279H1265.86L1248.39 858.344H1054.16L1102.9 831.279Z" fill="url(#paint31_radial_4262_115303)" stroke="#55567A"/>
<path d="M788.144 829.632L943.125 832.056L860.482 856.697L664.741 859.924L788.144 829.632Z" fill="url(#paint32_radial_4262_115303)" stroke="#55567A"/>
<path d="M929.273 799.084H1049.64L1004.48 812.116H872.593L929.273 799.084Z" fill="url(#paint33_radial_4262_115303)" stroke="#55567A"/>
<path d="M1976.6 894.676L1724.61 895.49L1645.6 856.869H1847.43L1976.6 894.676Z" fill="url(#paint34_radial_4262_115303)" stroke="#55567A"/>
<path d="M2214.61 890.652L1979.17 896.313L1845.19 856.043H2028.65L2214.61 890.652Z" fill="url(#paint35_radial_4262_115303)" stroke="#55567A"/>
<path d="M1844.14 855.895L1645.47 857.517L1594.05 832.083L1757.8 830.454L1844.14 855.895Z" fill="url(#paint36_diamond_4262_115303)" stroke="#55567A"/>
<path d="M1759.86 831.104H1591.12L1558.6 813.119H1693.91L1759.86 831.104Z" fill="url(#paint37_radial_4262_115303)" stroke="#55567A"/>
<path d="M1004.62 813.119H1140.63L1101.7 831.93H943.055L1004.62 813.119Z" fill="url(#paint38_radial_4262_115303)" stroke="#55567A"/>
<path d="M1001.2 813.947L939.633 832.757L789.671 830.353L867.284 813.947H1001.2Z" fill="url(#paint39_diamond_4262_115303)" stroke="#55567A"/>
<path d="M870.475 812.293L788.989 831.103L647.221 828.712L736.641 812.293H870.475Z" fill="url(#paint40_radial_4262_115303)" stroke="#55567A"/>
<path d="M1051.34 799.084H1167.49L1142.69 812.116H1005.29L1051.34 799.084Z" fill="url(#paint41_diamond_4262_115303)" stroke="#55567A"/>
<path d="M934.406 798.088L975.047 788.357H1082.41L1052.15 798.088H934.406Z" fill="url(#paint42_diamond_4262_115303)" stroke="#55567A"/>
<path d="M1054.17 798.914L1083.78 788.359L1188.25 789.974L1168.46 798.914H1054.17Z" fill="url(#paint43_radial_4262_115303)" stroke="#55567A"/>
<path d="M1169.86 798.912L1190.61 789.182H1295.44L1289.39 798.912H1169.86Z" fill="url(#paint44_diamond_4262_115303)" stroke="#55567A"/>
<path d="M1296.61 788.357H1402.87L1409.84 798.914H1289.64L1296.61 788.357Z" fill="url(#paint45_radial_4262_115303)" stroke="#55567A"/>
<path d="M1404.96 788.357H1507.9L1526.19 798.914H1411.06L1404.96 788.357Z" fill="url(#paint46_diamond_4262_115303)" stroke="#55567A"/>
<path d="M1612.93 787.857L1650.12 799.414H1529.97L1509.95 787.857H1612.93Z" stroke="#55567A"/>
<path d="M1620.28 789.182H1720.63L1765.21 798.087H1651.14L1620.28 789.182Z" fill="url(#paint47_diamond_4262_115303)" stroke="#55567A"/>
<path d="M1967.77 812.947H1840.89L1777.12 799.914H1895.14L1967.77 812.947Z" fill="url(#paint48_diamond_4262_115303)" stroke="#55567A"/>
<path d="M808.739 798.912L870.134 789.182H972.47L920.587 798.912H808.739Z" fill="url(#paint49_radial_4262_115303)" stroke="#55567A"/>
<path d="M1016.05 779.277H1109.05L1080.76 788.183H981.762L1016.05 779.277Z" fill="url(#paint50_radial_4262_115303)" stroke="#55567A"/>
<path d="M1088.62 787.357L1112.38 779.277H1205.74L1191.32 787.357H1088.62Z" fill="url(#paint51_diamond_4262_115303)" stroke="#55567A"/>
<path d="M1191.33 789.007L1208.75 778.451H1302.02L1294.18 789.007H1191.33Z" fill="url(#paint52_radial_4262_115303)" stroke="#55567A"/>
<path d="M1296.41 787.349L1303.27 778.451H1397.15L1402.24 786.538L1296.41 787.349Z" fill="url(#paint53_diamond_4262_115303)" stroke="#55567A"/>
<path d="M1404.38 788.182L1398.32 778.451H1488.84L1507 788.182H1404.38Z" fill="url(#paint54_radial_4262_115303)" stroke="#55567A"/>
<path d="M1492.79 779.277H1587.2L1611.97 788.183H1508.71L1492.79 779.277Z" fill="url(#paint55_diamond_4262_115303)" stroke="#55567A"/>
<path d="M1719.92 788.183H1614.93L1590.92 779.277H1679.63L1719.92 788.183Z" fill="url(#paint56_radial_4262_115303)" stroke="#55567A"/>
</g>
</g>
<defs>
<radialGradient id="paint0_diamond_4262_115303" cx="0" cy="0" r="1" gradientUnits="userSpaceOnUse" gradientTransform="translate(731.918 805.671) rotate(44.4291) scale(8.76692 247.19)">
<stop offset="0.0141989" stop-color="#0C0B24"/>
<stop offset="1" stop-color="#2D3154"/>
</radialGradient>
<radialGradient id="paint1_radial_4262_115303" cx="0" cy="0" r="1" gradientUnits="userSpaceOnUse" gradientTransform="translate(1189.29 804.941) rotate(66.4166) scale(8.98913 185.905)">
<stop offset="0.0141989" stop-color="#0C0B24" stop-opacity="0.3"/>
<stop offset="1" stop-color="#2D3154" stop-opacity="0.46"/>
</radialGradient>
<radialGradient id="paint2_diamond_4262_115303" cx="0" cy="0" r="1" gradientUnits="userSpaceOnUse" gradientTransform="translate(1279.67 805.626) rotate(56.7892) scale(8.2521 213.292)">
<stop offset="0.0141989" stop-color="#0C0B24"/>
<stop offset="1" stop-color="#2D3154"/>
</radialGradient>
<radialGradient id="paint3_radial_4262_115303" cx="0" cy="0" r="1" gradientUnits="userSpaceOnUse" gradientTransform="translate(1457.57 804.118) rotate(66.6883) scale(8.97067 183.884)">
<stop offset="0.0141989" stop-color="#0C0B24" stop-opacity="0.3"/>
<stop offset="1" stop-color="#2D3154" stop-opacity="0.46"/>
</radialGradient>
<radialGradient id="paint4_diamond_4262_115303" cx="0" cy="0" r="1" gradientUnits="userSpaceOnUse" gradientTransform="translate(1532.6 806.065) rotate(51.1463) scale(8.37321 230.723)">
<stop offset="0.0141989" stop-color="#0C0B24"/>
<stop offset="1" stop-color="#2D3154"/>
</radialGradient>
<radialGradient id="paint5_radial_4262_115303" cx="0" cy="0" r="1" gradientUnits="userSpaceOnUse" gradientTransform="translate(1712.23 804.606) rotate(59.3914) scale(9.06828 224.142)">
<stop offset="0.0141989" stop-color="#0C0B24" stop-opacity="0.3"/>
<stop offset="1" stop-color="#2D3154" stop-opacity="0.46"/>
</radialGradient>
<radialGradient id="paint6_diamond_4262_115303" cx="0" cy="0" r="1" gradientUnits="userSpaceOnUse" gradientTransform="translate(1703.85 820.834) rotate(48.9107) scale(10.6873 298.594)">
<stop offset="0.0141989" stop-color="#0C0B24"/>
<stop offset="1" stop-color="#2D3154"/>
</radialGradient>
<radialGradient id="paint7_radial_4262_115303" cx="0" cy="0" r="1" gradientUnits="userSpaceOnUse" gradientTransform="translate(1942.78 819.548) rotate(61.3943) scale(8.39602 199.055)">
<stop offset="0.0141989" stop-color="#0C0B24" stop-opacity="0.3"/>
<stop offset="1" stop-color="#2D3154" stop-opacity="0.46"/>
</radialGradient>
<radialGradient id="paint8_radial_4262_115303" cx="0" cy="0" r="1" gradientUnits="userSpaceOnUse" gradientTransform="translate(1819.78 793.133) rotate(61.3943) scale(8.39602 199.055)">
<stop offset="0.0141989" stop-color="#0C0B24" stop-opacity="0.3"/>
<stop offset="1" stop-color="#2D3154" stop-opacity="0.46"/>
</radialGradient>
<radialGradient id="paint9_radial_4262_115303" cx="0" cy="0" r="1" gradientUnits="userSpaceOnUse" gradientTransform="translate(1893.49 840.047) rotate(68.8661) scale(14.1417 268.242)">
<stop offset="0.0141989" stop-color="#0C0B24" stop-opacity="0.3"/>
<stop offset="1" stop-color="#2D3154" stop-opacity="0.46"/>
</radialGradient>
<radialGradient id="paint10_diamond_4262_115303" cx="0" cy="0" r="1" gradientUnits="userSpaceOnUse" gradientTransform="translate(1250.78 841.82) rotate(65.1981) scale(15.7626 338.545)">
<stop offset="0.0141989" stop-color="#0C0B24"/>
<stop offset="1" stop-color="#2D3154"/>
</radialGradient>
<radialGradient id="paint11_diamond_4262_115303" cx="0" cy="0" r="1" gradientUnits="userSpaceOnUse" gradientTransform="translate(1101.77 820.983) rotate(61.7026) scale(12.3111 289.835)">
<stop offset="0.0141989" stop-color="#0C0B24"/>
<stop offset="1" stop-color="#2D3154"/>
</radialGradient>
<radialGradient id="paint12_radial_4262_115303" cx="0" cy="0" r="1" gradientUnits="userSpaceOnUse" gradientTransform="translate(1320.45 820.649) rotate(68.6848) scale(11.1705 213.355)">
<stop offset="0.0141989" stop-color="#0C0B24" stop-opacity="0.3"/>
<stop offset="1" stop-color="#2D3154" stop-opacity="0.46"/>
</radialGradient>
<radialGradient id="paint13_diamond_4262_115303" cx="0" cy="0" r="1" gradientUnits="userSpaceOnUse" gradientTransform="translate(1421.16 821.142) rotate(60.4673) scale(11.4619 277.263)">
<stop offset="0.0141989" stop-color="#0C0B24"/>
<stop offset="1" stop-color="#2D3154"/>
</radialGradient>
<radialGradient id="paint14_radial_4262_115303" cx="0" cy="0" r="1" gradientUnits="userSpaceOnUse" gradientTransform="translate(835.39 872.916) rotate(68.7816) scale(21.8611 416.01)">
<stop offset="0.0141989" stop-color="#0C0B24" stop-opacity="0.3"/>
<stop offset="1" stop-color="#2D3154" stop-opacity="0.46"/>
</radialGradient>
<radialGradient id="paint15_diamond_4262_115303" cx="0" cy="0" r="1" gradientUnits="userSpaceOnUse" gradientTransform="translate(495.329 872.916) rotate(59.675) scale(23.6094 580.356)">
<stop offset="0.0141989" stop-color="#0C0B24"/>
<stop offset="1" stop-color="#2D3154"/>
</radialGradient>
<radialGradient id="paint16_radial_4262_115303" cx="0" cy="0" r="1" gradientUnits="userSpaceOnUse" gradientTransform="translate(1501.35 841.977) rotate(68.9463) scale(14.403 272.356)">
<stop offset="0.0141989" stop-color="#0C0B24" stop-opacity="0.3"/>
<stop offset="1" stop-color="#2D3154" stop-opacity="0.46"/>
</radialGradient>
<radialGradient id="paint17_diamond_4262_115303" cx="0" cy="0" r="1" gradientUnits="userSpaceOnUse" gradientTransform="translate(975.949 872.581) rotate(65.782) scale(21.8703 461.479)">
<stop offset="0.0141989" stop-color="#0C0B24"/>
<stop offset="1" stop-color="#2D3154"/>
</radialGradient>
<radialGradient id="paint18_diamond_4262_115303" cx="0" cy="0" r="1" gradientUnits="userSpaceOnUse" gradientTransform="translate(1453.68 872.581) rotate(65.8562) scale(21.8575 460.15)">
<stop offset="0.0141989" stop-color="#0C0B24"/>
<stop offset="1" stop-color="#2D3154"/>
</radialGradient>
<radialGradient id="paint19_radial_4262_115303" cx="0" cy="0" r="1" gradientUnits="userSpaceOnUse" gradientTransform="translate(1282.37 1019.57) rotate(81.233) scale(75.4604 641.133)">
<stop offset="0.0141989" stop-color="#0C0B24" stop-opacity="0.3"/>
<stop offset="1" stop-color="#2D3154" stop-opacity="0.46"/>
</radialGradient>
<radialGradient id="paint20_diamond_4262_115303" cx="0" cy="0" r="1" gradientUnits="userSpaceOnUse" gradientTransform="translate(1178.01 921.772) rotate(71.8258) scale(37.4219 625.499)">
<stop offset="0.0141989" stop-color="#0C0B24"/>
<stop offset="1" stop-color="#2D3154"/>
</radialGradient>
<radialGradient id="paint21_diamond_4262_115303" cx="0" cy="0" r="1" gradientUnits="userSpaceOnUse" gradientTransform="translate(785.005 1019.57) rotate(80.2569) scale(75.6702 711.86)">
<stop offset="0.0141989" stop-color="#0C0B24"/>
<stop offset="1" stop-color="#2D3154"/>
</radialGradient>
<radialGradient id="paint22_radial_4262_115303" cx="0" cy="0" r="1" gradientUnits="userSpaceOnUse" gradientTransform="translate(958.3 921.77) rotate(74.8814) scale(36.8297 523.045)">
<stop offset="0.0141989" stop-color="#0C0B24" stop-opacity="0.3"/>
<stop offset="1" stop-color="#2D3154" stop-opacity="0.46"/>
</radialGradient>
<radialGradient id="paint23_radial_4262_115303" cx="0" cy="0" r="1" gradientUnits="userSpaceOnUse" gradientTransform="translate(615.013 921.772) rotate(74.8814) scale(36.8297 523.045)">
<stop offset="0.0141989" stop-color="#0C0B24" stop-opacity="0.3"/>
<stop offset="1" stop-color="#2D3154" stop-opacity="0.46"/>
</radialGradient>
<radialGradient id="paint24_radial_4262_115303" cx="0" cy="0" r="1" gradientUnits="userSpaceOnUse" gradientTransform="translate(263.061 921.773) rotate(74.8814) scale(36.8297 523.045)">
<stop offset="0.0141989" stop-color="#0C0B24" stop-opacity="0.3"/>
<stop offset="1" stop-color="#2D3154" stop-opacity="0.46"/>
</radialGradient>
<radialGradient id="paint25_radial_4262_115303" cx="0" cy="0" r="1" gradientUnits="userSpaceOnUse" gradientTransform="translate(469.656 990.406) rotate(74.8814) scale(36.8297 523.046)">
<stop offset="0.0141989" stop-color="#0C0B24" stop-opacity="0.3"/>
<stop offset="1" stop-color="#2D3154" stop-opacity="0.46"/>
</radialGradient>
<radialGradient id="paint26_radial_4262_115303" cx="0" cy="0" r="1" gradientUnits="userSpaceOnUse" gradientTransform="translate(65.883 990.406) rotate(74.8814) scale(36.8297 523.046)">
<stop offset="0.0141989" stop-color="#0C0B24" stop-opacity="0.3"/>
<stop offset="1" stop-color="#2D3154" stop-opacity="0.46"/>
</radialGradient>
<radialGradient id="paint27_diamond_4262_115303" cx="0" cy="0" r="1" gradientUnits="userSpaceOnUse" gradientTransform="translate(1918.67 1019.57) rotate(99.7523) scale(75.6723 712.528)">
<stop offset="0.0141989" stop-color="#0C0B24"/>
<stop offset="1" stop-color="#2D3154"/>
</radialGradient>
<radialGradient id="paint28_radial_4262_115303" cx="0" cy="0" r="1" gradientUnits="userSpaceOnUse" gradientTransform="translate(1744.37 921.772) rotate(105.188) scale(36.8419 525.399)">
<stop offset="0.0141989" stop-color="#0C0B24" stop-opacity="0.3"/>
<stop offset="1" stop-color="#2D3154" stop-opacity="0.46"/>
</radialGradient>
<radialGradient id="paint29_radial_4262_115303" cx="0" cy="0" r="1" gradientUnits="userSpaceOnUse" gradientTransform="translate(2091.48 921.772) rotate(105.188) scale(36.8419 525.399)">
<stop offset="0.0141989" stop-color="#0C0B24" stop-opacity="0.3"/>
<stop offset="1" stop-color="#2D3154" stop-opacity="0.46"/>
</radialGradient>
<radialGradient id="paint30_diamond_4262_115303" cx="0" cy="0" r="1" gradientUnits="userSpaceOnUse" gradientTransform="translate(860.263 842.311) rotate(59.9093) scale(16.0363 392.371)">
<stop offset="0.0141989" stop-color="#0C0B24"/>
<stop offset="1" stop-color="#2D3154"/>
</radialGradient>
<radialGradient id="paint31_radial_4262_115303" cx="0" cy="0" r="1" gradientUnits="userSpaceOnUse" gradientTransform="translate(1122.45 842.154) rotate(70.4998) scale(15.6394 277.566)">
<stop offset="0.0141989" stop-color="#0C0B24" stop-opacity="0.3"/>
<stop offset="1" stop-color="#2D3154" stop-opacity="0.46"/>
</radialGradient>
<radialGradient id="paint32_radial_4262_115303" cx="0" cy="0" r="1" gradientUnits="userSpaceOnUse" gradientTransform="translate(800.143 841.331) rotate(70.4998) scale(15.6394 277.566)">
<stop offset="0.0141989" stop-color="#0C0B24" stop-opacity="0.3"/>
<stop offset="1" stop-color="#2D3154" stop-opacity="0.46"/>
</radialGradient>
<radialGradient id="paint33_radial_4262_115303" cx="0" cy="0" r="1" gradientUnits="userSpaceOnUse" gradientTransform="translate(958.614 804.042) rotate(62.893) scale(7.40908 169.499)">
<stop offset="0.0141989" stop-color="#0C0B24" stop-opacity="0.3"/>
<stop offset="1" stop-color="#2D3154" stop-opacity="0.46"/>
</radialGradient>
<radialGradient id="paint34_radial_4262_115303" cx="0" cy="0" r="1" gradientUnits="userSpaceOnUse" gradientTransform="translate(1753.61 872.428) rotate(68.5187) scale(22.3663 429.878)">
<stop offset="0.0141989" stop-color="#0C0B24" stop-opacity="0.3"/>
<stop offset="1" stop-color="#2D3154" stop-opacity="0.46"/>
</radialGradient>
<radialGradient id="paint35_radial_4262_115303" cx="0" cy="0" r="1" gradientUnits="userSpaceOnUse" gradientTransform="translate(1999.64 874.078) rotate(68.5187) scale(22.3663 429.878)">
<stop offset="0.0141989" stop-color="#0C0B24" stop-opacity="0.3"/>
<stop offset="1" stop-color="#2D3154" stop-opacity="0.46"/>
</radialGradient>
<radialGradient id="paint36_diamond_4262_115303" cx="0" cy="0" r="1" gradientUnits="userSpaceOnUse" gradientTransform="translate(1594.61 841.641) rotate(57.3982) scale(15.4409 395.307)">
<stop offset="0.0141989" stop-color="#0C0B24"/>
<stop offset="1" stop-color="#2D3154"/>
</radialGradient>
<radialGradient id="paint37_radial_4262_115303" cx="0" cy="0" r="1" gradientUnits="userSpaceOnUse" gradientTransform="translate(1624.39 820.314) rotate(63.2121) scale(11.1717 253.509)">
<stop offset="0.0141989" stop-color="#0C0B24" stop-opacity="0.3"/>
<stop offset="1" stop-color="#2D3154" stop-opacity="0.46"/>
</radialGradient>
<radialGradient id="paint38_radial_4262_115303" cx="0" cy="0" r="1" gradientUnits="userSpaceOnUse" gradientTransform="translate(1006.18 820.649) rotate(64.5962) scale(11.5203 251.798)">
<stop offset="0.0141989" stop-color="#0C0B24" stop-opacity="0.3"/>
<stop offset="1" stop-color="#2D3154" stop-opacity="0.46"/>
</radialGradient>
<radialGradient id="paint39_diamond_4262_115303" cx="0" cy="0" r="1" gradientUnits="userSpaceOnUse" gradientTransform="translate(787.503 821.477) rotate(55.5457) scale(12.6202 332.065)">
<stop offset="0.0141989" stop-color="#0C0B24"/>
<stop offset="1" stop-color="#2D3154"/>
</radialGradient>
<radialGradient id="paint40_radial_4262_115303" cx="0" cy="0" r="1" gradientUnits="userSpaceOnUse" gradientTransform="translate(755.923 819.82) rotate(66.3567) scale(10.5876 219.388)">
<stop offset="0.0141989" stop-color="#0C0B24" stop-opacity="0.3"/>
<stop offset="1" stop-color="#2D3154" stop-opacity="0.46"/>
</radialGradient>
<radialGradient id="paint41_diamond_4262_115303" cx="0" cy="0" r="1" gradientUnits="userSpaceOnUse" gradientTransform="translate(1003.43 804.272) rotate(53.4539) scale(9.17521 247.569)">
<stop offset="0.0141989" stop-color="#0C0B24"/>
<stop offset="1" stop-color="#2D3154"/>
</radialGradient>
<radialGradient id="paint42_diamond_4262_115303" cx="0" cy="0" r="1" gradientUnits="userSpaceOnUse" gradientTransform="translate(931.759 792.943) rotate(45.0485) scale(7.04584 198.702)">
<stop offset="0.0141989" stop-color="#0C0B24"/>
<stop offset="1" stop-color="#2D3154"/>
</radialGradient>
<radialGradient id="paint43_radial_4262_115303" cx="0" cy="0" r="1" gradientUnits="userSpaceOnUse" gradientTransform="translate(1096.84 792.541) rotate(60.8362) scale(6.95162 166.847)">
<stop offset="0.0141989" stop-color="#0C0B24" stop-opacity="0.3"/>
<stop offset="1" stop-color="#2D3154" stop-opacity="0.46"/>
</radialGradient>
<radialGradient id="paint44_diamond_4262_115303" cx="0" cy="0" r="1" gradientUnits="userSpaceOnUse" gradientTransform="translate(1168.93 793.767) rotate(50.4153) scale(6.47006 179.215)">
<stop offset="0.0141989" stop-color="#0C0B24"/>
<stop offset="1" stop-color="#2D3154"/>
</radialGradient>
<radialGradient id="paint45_radial_4262_115303" cx="0" cy="0" r="1" gradientUnits="userSpaceOnUse" gradientTransform="translate(1328.66 792.541) rotate(63.9298) scale(6.75794 150.469)">
<stop offset="0.0141989" stop-color="#0C0B24" stop-opacity="0.3"/>
<stop offset="1" stop-color="#2D3154" stop-opacity="0.46"/>
</radialGradient>
<radialGradient id="paint46_diamond_4262_115303" cx="0" cy="0" r="1" gradientUnits="userSpaceOnUse" gradientTransform="translate(1405.36 793.334) rotate(53.5235) scale(6.67819 180.06)">
<stop offset="0.0141989" stop-color="#0C0B24"/>
<stop offset="1" stop-color="#2D3154"/>
</radialGradient>
<radialGradient id="paint47_diamond_4262_115303" cx="0" cy="0" r="1" gradientUnits="userSpaceOnUse" gradientTransform="translate(1618.31 793.376) rotate(43.1105) scale(6.73509 189.526)">
<stop offset="0.0141989" stop-color="#0C0B24"/>
<stop offset="1" stop-color="#2D3154"/>
</radialGradient>
<radialGradient id="paint48_diamond_4262_115303" cx="0" cy="0" r="1" gradientUnits="userSpaceOnUse" gradientTransform="translate(1774.23 806.065) rotate(45.3394) scale(9.16743 258.516)">
<stop offset="0.0141989" stop-color="#0C0B24"/>
<stop offset="1" stop-color="#2D3154"/>
</radialGradient>
<radialGradient id="paint49_radial_4262_115303" cx="0" cy="0" r="1" gradientUnits="userSpaceOnUse" gradientTransform="translate(859.818 793.031) rotate(52.8598) scale(7.07106 191.956)">
<stop offset="0.0141989" stop-color="#0C0B24" stop-opacity="0.3"/>
<stop offset="1" stop-color="#2D3154" stop-opacity="0.46"/>
</radialGradient>
<radialGradient id="paint50_radial_4262_115303" cx="0" cy="0" r="1" gradientUnits="userSpaceOnUse" gradientTransform="translate(1021.85 782.792) rotate(57.8398) scale(6.14623 156.212)">
<stop offset="0.0141989" stop-color="#0C0B24" stop-opacity="0.3"/>
<stop offset="1" stop-color="#2D3154" stop-opacity="0.46"/>
</radialGradient>
<radialGradient id="paint51_diamond_4262_115303" cx="0" cy="0" r="1" gradientUnits="userSpaceOnUse" gradientTransform="translate(1086.85 783.081) rotate(47.1853) scale(5.75176 161.736)">
<stop offset="0.0141989" stop-color="#0C0B24"/>
<stop offset="1" stop-color="#2D3154"/>
</radialGradient>
<radialGradient id="paint52_radial_4262_115303" cx="0" cy="0" r="1" gradientUnits="userSpaceOnUse" gradientTransform="translate(1226.68 782.635) rotate(65.5416) scale(6.66881 141.759)">
<stop offset="0.0141989" stop-color="#0C0B24" stop-opacity="0.3"/>
<stop offset="1" stop-color="#2D3154" stop-opacity="0.46"/>
</radialGradient>
<radialGradient id="paint53_diamond_4262_115303" cx="0" cy="0" r="1" gradientUnits="userSpaceOnUse" gradientTransform="translate(1296.49 782.646) rotate(53.1392) scale(5.75282 155.734)">
<stop offset="0.0141989" stop-color="#0C0B24"/>
<stop offset="1" stop-color="#2D3154"/>
</radialGradient>
<radialGradient id="paint54_radial_4262_115303" cx="0" cy="0" r="1" gradientUnits="userSpaceOnUse" gradientTransform="translate(1433.94 782.3) rotate(64.2843) scale(6.25642 137.952)">
<stop offset="0.0141989" stop-color="#0C0B24" stop-opacity="0.3"/>
<stop offset="1" stop-color="#2D3154" stop-opacity="0.46"/>
</radialGradient>
<radialGradient id="paint55_diamond_4262_115303" cx="0" cy="0" r="1" gradientUnits="userSpaceOnUse" gradientTransform="translate(1492.14 783.472) rotate(49.2207) scale(6.07847 169.564)">
<stop offset="0.0141989" stop-color="#0C0B24"/>
<stop offset="1" stop-color="#2D3154"/>
</radialGradient>
<radialGradient id="paint56_radial_4262_115303" cx="0" cy="0" r="1" gradientUnits="userSpaceOnUse" gradientTransform="translate(1632.77 782.792) rotate(57.4751) scale(6.17105 157.791)">
<stop offset="0.0141989" stop-color="#0C0B24" stop-opacity="0.3"/>
<stop offset="1" stop-color="#2D3154" stop-opacity="0.46"/>
</radialGradient>
<clipPath id="clip0_4262_115303">
<rect width="1920" height="1104" fill="white"/>
</clipPath>
</defs>
</svg>
