<svg width="173" height="173" viewBox="0 0 173 173" fill="none" xmlns="http://www.w3.org/2000/svg">
<g filter="url(#filter0_dii_3132_93098)">
<rect width="91" height="91" rx="33" transform="matrix(1 0 0 -1 41 132)" fill="#26294A"/>
</g>
<path d="M76.4844 78.2505C79.8125 78.2505 82.5199 75.5029 82.5199 72.1253C82.5199 68.7476 79.8125 66 76.4844 66C73.1562 66 70.4489 68.7476 70.4489 72.1253C70.4489 75.5029 73.1562 78.2505 76.4844 78.2505ZM76.4844 69.5001C77.9105 69.5001 79.071 70.6779 79.071 72.1253C79.071 73.5726 77.9105 74.7504 76.4844 74.7504C75.0583 74.7504 73.8977 73.5726 73.8977 72.1253C73.8977 70.6779 75.0583 69.5001 76.4844 69.5001ZM84.2443 83.5007C82.8182 83.5007 81.6577 84.6785 81.6577 86.1258C81.6577 86.6999 81.837 87.2441 82.1733 87.6992C82.7458 88.4709 82.5923 89.5682 81.8301 90.1493C81.5197 90.3855 81.1559 90.501 80.7955 90.501C80.2712 90.501 79.7539 90.2595 79.4159 89.8027C78.6261 88.7352 78.2071 87.4646 78.2071 86.1258C78.2071 82.7482 80.9145 80.0006 84.2426 80.0006C86.1309 80.0006 87.9363 80.9159 89.071 82.4489C89.6435 83.2225 89.4883 84.3198 88.7279 84.899C87.9639 85.4801 86.8862 85.3226 86.3137 84.5508C85.8205 83.8822 85.0652 83.499 84.2443 83.499V83.5007ZM92.0043 78.2505C95.3324 78.2505 98.0398 75.5029 98.0398 72.1253C98.0398 68.7476 95.3324 66 92.0043 66C88.6761 66 85.9688 68.7476 85.9688 72.1253C85.9688 75.5029 88.6761 78.2505 92.0043 78.2505ZM92.0043 69.5001C93.4304 69.5001 94.5909 70.6779 94.5909 72.1253C94.5909 73.5726 93.4304 74.7504 92.0043 74.7504C90.5782 74.7504 89.4176 73.5726 89.4176 72.1253C89.4176 70.6779 90.5782 69.5001 92.0043 69.5001ZM106.138 99.4859L104.458 98.5024C104.744 97.6326 104.938 96.719 104.938 95.7512C104.938 94.7834 104.746 93.8699 104.458 93.0001L106.138 92.0166C106.962 91.5336 107.245 90.4625 106.769 89.626C106.291 88.7877 105.239 88.4989 104.413 88.9855L102.735 89.969C101.52 88.5794 99.9005 87.5626 98.0398 87.1794V85.2526C98.0398 84.2865 97.2673 83.5025 96.3154 83.5025C95.3635 83.5025 94.5909 84.2865 94.5909 85.2526V87.1794C92.7303 87.5644 91.111 88.5812 89.8953 89.969L88.2174 88.9855C87.3897 88.5007 86.3378 88.7877 85.8619 89.626C85.3859 90.4643 85.6687 91.5336 86.493 92.0166L88.1726 93.0001C87.8863 93.8699 87.6932 94.7834 87.6932 95.7512C87.6932 96.719 87.8846 97.6326 88.1726 98.5024L86.493 99.4859C85.6687 99.9689 85.3859 101.04 85.8619 101.876C86.1826 102.438 86.7603 102.752 87.3569 102.752C87.6484 102.752 87.945 102.676 88.2174 102.517L89.8953 101.533C91.111 102.923 92.7303 103.94 94.5909 104.323V106.25C94.5909 107.216 95.3635 108 96.3154 108C97.2673 108 98.0398 107.216 98.0398 106.25V104.323C99.9005 103.938 101.52 102.921 102.735 101.533L104.413 102.517C104.686 102.676 104.982 102.752 105.274 102.752C105.87 102.752 106.45 102.438 106.769 101.876C107.245 101.038 106.962 99.9689 106.138 99.4859ZM96.3154 101.001C93.4632 101.001 91.1421 98.6459 91.1421 95.7512C91.1421 92.8566 93.4632 90.501 96.3154 90.501C99.1676 90.501 101.489 92.8566 101.489 95.7512C101.489 98.6459 99.1676 101.001 96.3154 101.001ZM75.6222 83.5007C72.77 83.5007 70.4489 85.8563 70.4489 88.7509C70.4489 89.717 69.6763 90.501 68.7244 90.501C67.7725 90.501 67 89.717 67 88.7509C67 83.926 70.8679 80.0006 75.6222 80.0006C76.5741 80.0006 77.3466 80.7846 77.3466 81.7507C77.3466 82.7167 76.5741 83.5007 75.6222 83.5007ZM84.2443 95.7512C84.2443 96.7173 83.4718 97.5013 82.5199 97.5013C79.6677 97.5013 77.3466 99.8569 77.3466 102.752C77.3466 103.718 76.5741 104.502 75.6222 104.502C74.6703 104.502 73.8977 103.718 73.8977 102.752C73.8977 97.9266 77.7656 94.0012 82.5199 94.0012C83.4718 94.0012 84.2443 94.7852 84.2443 95.7512Z" fill="#55567A"/>
<rect opacity="0.6" x="0.5" y="-0.5" width="120" height="120" rx="32.5" transform="matrix(1 0 0 -1 26 146)" stroke="#908EB5"/>
<rect opacity="0.3" x="0.5" y="-0.5" width="146" height="146" rx="32.5" transform="matrix(1 0 0 -1 13 159)" stroke="#908EB5"/>
<rect opacity="0.1" x="0.5" y="-0.5" width="172" height="172" rx="32.5" transform="matrix(1 0 0 -1 0 172)" stroke="#908EB5"/>
<defs>
<filter id="filter0_dii_3132_93098" x="23" y="23" width="135" height="135" filterUnits="userSpaceOnUse" color-interpolation-filters="sRGB">
<feFlood flood-opacity="0" result="BackgroundImageFix"/>
<feColorMatrix in="SourceAlpha" type="matrix" values="0 0 0 0 0 0 0 0 0 0 0 0 0 0 0 0 0 0 127 0" result="hardAlpha"/>
<feOffset dx="4" dy="4"/>
<feGaussianBlur stdDeviation="11"/>
<feComposite in2="hardAlpha" operator="out"/>
<feColorMatrix type="matrix" values="0 0 0 0 0 0 0 0 0 0 0 0 0 0 0 0 0 0 1 0"/>
<feBlend mode="screen" in2="BackgroundImageFix" result="effect1_dropShadow_3132_93098"/>
<feBlend mode="normal" in="SourceGraphic" in2="effect1_dropShadow_3132_93098" result="shape"/>
<feColorMatrix in="SourceAlpha" type="matrix" values="0 0 0 0 0 0 0 0 0 0 0 0 0 0 0 0 0 0 127 0" result="hardAlpha"/>
<feOffset dx="-2" dy="-1"/>
<feGaussianBlur stdDeviation="2.5"/>
<feComposite in2="hardAlpha" operator="arithmetic" k2="-1" k3="1"/>
<feColorMatrix type="matrix" values="0 0 0 0 0.72549 0 0 0 0 0.701961 0 0 0 0 0.803922 0 0 0 1 0"/>
<feBlend mode="normal" in2="shape" result="effect2_innerShadow_3132_93098"/>
<feColorMatrix in="SourceAlpha" type="matrix" values="0 0 0 0 0 0 0 0 0 0 0 0 0 0 0 0 0 0 127 0" result="hardAlpha"/>
<feOffset dx="3" dy="2"/>
<feGaussianBlur stdDeviation="1"/>
<feComposite in2="hardAlpha" operator="arithmetic" k2="-1" k3="1"/>
<feColorMatrix type="matrix" values="0 0 0 0 0.724221 0 0 0 0 0.700295 0 0 0 0 0.804167 0 0 0 1 0"/>
<feBlend mode="normal" in2="effect2_innerShadow_3132_93098" result="effect3_innerShadow_3132_93098"/>
</filter>
</defs>
</svg>
