<svg width="173" height="173" viewBox="0 0 173 173" fill="none" xmlns="http://www.w3.org/2000/svg">
<g filter="url(#filter0_dii_3132_93105)">
<rect width="91" height="91" rx="33" transform="matrix(1 0 0 -1 41 132)" fill="#26294A"/>
</g>
<circle cx="87" cy="87" r="3" fill="#55567A"/>
<path d="M109.332 87.3556L109.24 87.6746C109.218 87.751 109.197 87.8297 109.174 87.9096C109.122 88.0996 109.067 88.2967 109.004 88.487L109.004 88.4872C108.338 90.4837 106.487 91.7907 104.369 91.773M109.332 87.3556L100.061 88.3637M109.332 87.3556H109.248M109.332 87.3556H109.248M104.369 91.773C102.275 91.7573 100.442 90.435 99.822 88.4378M104.369 91.773C104.369 91.773 104.369 91.773 104.369 91.773L104.371 91.523L104.369 91.773C104.369 91.773 104.369 91.773 104.369 91.773ZM99.822 88.4378L100.061 88.3637M99.822 88.4378C99.822 88.4379 99.822 88.438 99.8221 88.4381L100.061 88.3637M99.822 88.4378C99.7725 88.2789 99.7298 88.2287 99.7009 88.2075C99.6725 88.1867 99.6139 88.162 99.4516 88.1639L99.4515 88.1639C98.1806 88.178 96.908 88.1759 95.6715 88.1738C95.295 88.1732 94.9218 88.1726 94.553 88.1724M100.061 88.3637C99.9516 88.0132 99.8082 87.9097 99.4487 87.9139C98.1796 87.928 96.9093 87.9259 95.6733 87.9238C95.2377 87.9231 94.8064 87.9224 94.3809 87.9224M94.553 88.1724C94.5729 88.1195 94.5932 88.0663 94.6139 88.013L94.3809 87.9224M94.553 88.1724C94.4955 88.1724 94.4382 88.1724 94.3809 88.1724V87.9224M94.553 88.1724C94.4703 88.3922 94.394 88.6091 94.3175 88.8266C94.2576 88.9966 94.1977 89.167 94.1344 89.3396C93.9737 89.778 93.7976 90.213 93.5674 90.6232L93.5673 90.6233C93.339 91.0297 93.0604 91.4028 92.7698 91.7656C92.6546 91.9093 92.5396 92.0491 92.4246 92.1887C92.2794 92.3651 92.1344 92.5412 91.9897 92.7248M94.3809 87.9224C94.2731 88.1997 94.1756 88.4767 94.0792 88.7504C93.8637 89.3627 93.654 89.958 93.3494 90.5009C93.0472 91.0387 92.6488 91.5229 92.2362 92.0242C92.0526 92.2473 91.8663 92.4737 91.6844 92.7098M109.248 87.3556V86.4188V86.3636L109.225 86.3135C109.215 86.2922 109.204 86.2734 109.196 86.2591L109.185 86.2393L109.177 86.2243C109.174 86.2186 109.172 86.2147 109.17 86.2123C108.727 84.0123 106.945 82.3788 104.813 82.2624L104.812 82.2624C102.424 82.134 100.456 83.4578 99.7786 85.7069M109.248 87.3556L79.1904 77.1083C79.1902 77.1083 79.19 77.1084 79.1898 77.1084C76.8304 77.7572 74.4145 76.7055 73.4341 74.498C73.0317 73.5928 72.8866 72.6958 73.0156 71.832C73.1447 70.9678 73.5455 70.1538 74.2078 69.411L74.2079 69.4109C74.8825 68.6551 75.6629 68.1457 76.5278 67.9065C77.3929 67.6672 78.3264 67.7026 79.3001 68.0107L79.3001 68.0107C80.2532 68.3125 81.0179 68.8068 81.578 69.4813C82.1378 70.1555 82.4825 70.9968 82.6162 71.9763C82.8207 73.4731 82.3131 74.7466 81.3117 75.8395C81.8077 76.6236 82.3029 77.4069 82.799 78.1918C83.2086 78.8398 83.6189 79.4889 84.0309 80.1404C86.014 79.3305 87.9832 79.3286 89.9684 80.1383C90.8793 78.6982 91.7815 77.2717 92.6888 75.837C91.9057 74.9956 91.45 74.0244 91.3518 72.8783C91.134 70.3564 93.0436 68.1134 95.6599 67.7898C98.0915 67.4885 100.505 69.2689 100.913 71.6662L100.913 71.6663C101.518 75.2274 98.2986 78.0804 94.803 77.1063C94.8029 77.1063 94.8026 77.1062 94.8023 77.1061C94.8018 77.106 94.801 77.1059 94.8 77.1057C94.7979 77.1053 94.7949 77.1049 94.7911 77.1045C94.7834 77.1036 94.7735 77.1031 94.7617 77.1032C94.7377 77.1034 94.7109 77.1062 94.6857 77.1114C94.6683 77.1149 94.6547 77.119 94.645 77.1225C93.8868 78.2938 93.1421 79.4731 92.3894 80.6649C92.2402 80.9012 92.0906 81.1381 91.9405 81.3755C93.3066 82.5772 94.145 84.0611 94.4567 85.8416C94.5196 85.8464 94.5755 85.8499 94.6356 85.8499C94.9619 85.8499 95.2883 85.8498 95.6147 85.8498C96.921 85.8494 98.228 85.8491 99.5348 85.8541C99.664 85.8541 99.6996 85.843 99.7137 85.835C99.7162 85.8335 99.7224 85.83 99.7325 85.8149C99.7442 85.7976 99.7608 85.7653 99.7786 85.7069M109.248 87.3556H109H108.998V86.4188C108.99 86.401 108.98 86.3837 108.97 86.3665C108.952 86.3349 108.934 86.3038 108.927 86.271C108.508 84.1676 106.811 82.6218 104.799 82.512L109.248 87.3556ZM99.7786 85.7069C99.7786 85.7066 99.7787 85.7064 99.7788 85.7062L100.018 85.7789L99.7786 85.7069ZM91.9897 92.7248C91.9583 92.6751 91.9269 92.6256 91.8956 92.5761L91.6844 92.7098M91.9897 92.7248C92.135 92.9546 92.2816 93.1867 92.4294 93.4208C93.1448 94.5536 93.888 95.7303 94.6449 96.8997M91.9897 92.7248C91.9539 92.7702 91.9181 92.816 91.8824 92.8624L91.6844 92.7098M91.6844 92.7098L94.6449 96.8997M94.6449 96.8997C94.64 96.8979 94.6361 96.8962 94.6332 96.8949C94.6294 96.893 94.6308 96.8932 94.6356 96.8969C94.6401 96.9004 94.6517 96.9102 94.6635 96.9284C94.6573 96.9188 94.6511 96.9092 94.6449 96.8997ZM94.6449 96.8997C94.6545 96.9031 94.6679 96.9071 94.685 96.9105C94.7101 96.9155 94.7368 96.9182 94.7608 96.9182C94.7861 96.9182 94.7999 96.9154 94.8026 96.9146L94.8039 96.9142C97.3231 96.2129 99.8768 97.501 100.733 99.9356M94.6449 96.8997L94.871 97.1551C97.2679 96.4877 99.6862 97.7126 100.497 100.019M100.733 99.9356L100.497 100.019M100.733 99.9356C100.733 99.9356 100.733 99.9357 100.733 99.9357L100.497 100.019M100.733 99.9356C101.5 102.115 100.545 104.548 98.4977 105.657L98.3786 105.437M100.497 100.019C101.223 102.08 100.32 104.386 98.3786 105.437M98.3786 105.437L98.4977 105.657C96.4242 106.78 93.8408 106.27 92.3835 104.44M98.3786 105.437C96.4097 106.504 93.9593 106.018 92.5789 104.284C91.19 102.544 91.2649 100.122 92.7544 98.4855C92.8014 98.4338 92.8476 98.3804 92.8993 98.3207C92.93 98.2853 92.9625 98.2476 92.9984 98.2067C92.3721 97.2149 91.7467 96.2258 91.1147 95.2262C90.7684 94.6784 90.4201 94.1276 90.0686 93.5714C88.0312 94.4583 85.9917 94.4689 83.9308 93.5672C83.3721 94.4495 82.8175 95.3263 82.2621 96.2047C81.843 96.8673 81.4233 97.5308 81.0009 98.1983C81.0263 98.2278 81.0513 98.2571 81.0761 98.286C81.1435 98.3648 81.2092 98.4415 81.2749 98.5172C82.5525 99.9511 82.7751 102.035 81.8249 103.691L82.0417 103.815C82.0417 103.815 82.0417 103.815 82.0417 103.815M92.3835 104.44L79.3474 77.126C80.1286 78.3328 80.8955 79.5466 81.6715 80.7748C81.7981 80.9751 81.9249 81.1759 82.0521 81.377C80.685 82.5731 79.8492 84.0556 79.5324 85.8499H79.2675C78.8466 85.8499 78.4255 85.849 78.0041 85.848C76.8789 85.8455 75.7519 85.843 74.6247 85.8584C74.4334 85.8604 74.3539 85.8392 74.3083 85.8101C74.2695 85.7852 74.2149 85.728 74.1555 85.5409C73.4561 83.3211 71.2035 81.9564 68.8996 82.2856L68.8995 82.2857C66.5898 82.617 64.8105 84.5669 64.7516 86.8558L64.7516 86.856C64.6906 89.2858 66.4162 91.3343 68.8546 91.7233C71.1867 92.1022 73.4839 90.6827 74.1882 88.3972L74.1883 88.3969C74.2332 88.2504 74.2749 88.2114 74.298 88.1964C74.3271 88.1774 74.386 88.1577 74.5411 88.1597L74.5416 88.1597C75.7245 88.1724 76.908 88.1708 78.0898 88.1692C78.4833 88.1687 78.8766 88.1682 79.2696 88.1682H79.5261C79.8172 89.2756 79.9966 89.9099 80.3337 90.5087C80.6713 91.1085 81.1637 91.6665 82.0533 92.6481C81.8943 92.8993 81.7353 93.1506 81.5763 93.4021C80.8362 94.5722 80.0945 95.745 79.3409 96.9116C79.3351 96.9127 79.3283 96.9139 79.3205 96.9149C79.2967 96.9181 79.2705 96.9193 79.2461 96.9183C79.2206 96.9172 79.2044 96.914 79.1983 96.9123L79.1978 96.9122C75.7452 95.9467 72.4897 98.768 73.0735 102.265C73.3988 104.213 74.9658 105.814 76.8927 106.161L76.8928 106.161C78.9854 106.536 81.0071 105.619 82.0417 103.815M92.3835 104.44C90.9186 102.605 90.9968 100.045 92.5695 98.3173C92.6087 98.2741 92.646 98.2313 92.6878 98.1831C92.0942 97.2433 91.5012 96.3053 90.9022 95.3578C90.5935 94.8696 90.2832 94.3789 89.9705 93.8841C88.0004 94.6882 86.0202 94.6971 84.0285 93.8801C83.5083 94.7018 82.9915 95.5189 82.4738 96.3375C82.0873 96.9487 81.7003 97.5607 81.3109 98.1759C81.3621 98.2357 81.4123 98.2941 81.4626 98.352C82.8102 99.8654 83.0458 102.066 82.0417 103.815M92.3835 104.44L82.0417 103.815M92.2498 87.002L92.2499 87.1063L92.2509 87.1074C92.1968 89.9039 89.8698 92.1836 87.0225 92.1916C84.1166 92.1997 81.7477 89.8631 81.7517 87.0041V87.0039C81.7538 84.1656 84.1125 81.8371 86.9997 81.8371C89.8869 81.8371 92.2457 84.1656 92.2498 87.002ZM92.4998 87.0016C92.4955 84.024 90.0215 81.5871 86.9997 81.5871C83.9778 81.5871 81.5039 84.024 81.5017 87.0038L92.4998 87.0016ZM69.6031 84.5507L69.6035 84.5507C70.9391 84.5582 72.0149 85.6049 72.0686 86.9118L72.0685 86.9119V87.0164C72.0685 88.3826 70.9496 89.4854 69.5574 89.4758C68.1959 89.4662 67.0751 88.346 67.077 87.0105C67.0789 85.6579 68.2183 84.5411 69.6031 84.5507ZM104.402 89.4758C103.066 89.4702 101.985 88.427 101.929 87.1214L101.929 87.0182C101.927 85.6471 103.038 84.5449 104.432 84.5507H104.432C105.793 84.5545 106.916 85.6686 106.92 87.0066C106.924 88.3569 105.785 89.4816 104.402 89.4758ZM96.1511 70.0723L96.1486 69.8224L96.1511 70.0723C97.5168 70.0589 98.672 71.1949 98.6701 72.542C98.6682 73.8831 97.5569 74.9856 96.1836 74.9933C94.7828 75.001 93.6766 73.9087 93.6764 72.5363C93.6784 71.1851 94.7766 70.0858 96.1511 70.0723ZM96.1658 99.0311H96.2683L96.2684 99.031C97.5967 99.0825 98.655 100.15 98.6701 101.466C98.6856 102.805 97.5374 103.952 96.1658 103.952C94.7812 103.952 93.6667 102.834 93.6764 101.465L93.6764 101.465C93.6842 100.108 94.7801 99.0311 96.1658 99.0311ZM96.1658 98.7811C94.6463 98.7811 93.435 99.9658 93.4264 101.463C93.4157 102.973 94.6441 104.202 96.1658 104.202C97.6724 104.202 98.9372 102.946 98.9201 101.463C98.903 99.9743 97.6767 98.779 96.1679 98.779L96.1658 98.7811ZM77.8314 70.0724C79.2154 70.0724 80.3295 71.187 80.3229 72.5557H80.3229C80.3152 73.9101 79.2166 74.9933 77.8336 74.9933L77.8332 74.9933C76.4417 74.9952 75.3138 73.8708 75.3292 72.522C75.3448 71.1806 76.4725 70.0724 77.8314 70.0724ZM77.8493 99.0311C79.2323 99.0388 80.3229 100.126 80.3229 101.482V101.484C80.3229 102.852 79.1941 103.967 77.8171 103.954C76.4518 103.939 75.3312 102.821 75.3293 101.488C75.3273 100.132 76.4554 99.0234 77.8493 99.0311Z" fill="#55567A" stroke="#55567A" stroke-width="0.5"/>
<rect opacity="0.6" x="0.5" y="-0.5" width="120" height="120" rx="32.5" transform="matrix(1 0 0 -1 26 146)" stroke="#908EB5"/>
<rect opacity="0.3" x="0.5" y="-0.5" width="146" height="146" rx="32.5" transform="matrix(1 0 0 -1 13 159)" stroke="#908EB5"/>
<rect opacity="0.1" x="0.5" y="-0.5" width="172" height="172" rx="32.5" transform="matrix(1 0 0 -1 0 172)" stroke="#908EB5"/>
<defs>
<filter id="filter0_dii_3132_93105" x="23" y="23" width="135" height="135" filterUnits="userSpaceOnUse" color-interpolation-filters="sRGB">
<feFlood flood-opacity="0" result="BackgroundImageFix"/>
<feColorMatrix in="SourceAlpha" type="matrix" values="0 0 0 0 0 0 0 0 0 0 0 0 0 0 0 0 0 0 127 0" result="hardAlpha"/>
<feOffset dx="4" dy="4"/>
<feGaussianBlur stdDeviation="11"/>
<feComposite in2="hardAlpha" operator="out"/>
<feColorMatrix type="matrix" values="0 0 0 0 0 0 0 0 0 0 0 0 0 0 0 0 0 0 1 0"/>
<feBlend mode="screen" in2="BackgroundImageFix" result="effect1_dropShadow_3132_93105"/>
<feBlend mode="normal" in="SourceGraphic" in2="effect1_dropShadow_3132_93105" result="shape"/>
<feColorMatrix in="SourceAlpha" type="matrix" values="0 0 0 0 0 0 0 0 0 0 0 0 0 0 0 0 0 0 127 0" result="hardAlpha"/>
<feOffset dx="-2" dy="-1"/>
<feGaussianBlur stdDeviation="2.5"/>
<feComposite in2="hardAlpha" operator="arithmetic" k2="-1" k3="1"/>
<feColorMatrix type="matrix" values="0 0 0 0 0.72549 0 0 0 0 0.701961 0 0 0 0 0.803922 0 0 0 1 0"/>
<feBlend mode="normal" in2="shape" result="effect2_innerShadow_3132_93105"/>
<feColorMatrix in="SourceAlpha" type="matrix" values="0 0 0 0 0 0 0 0 0 0 0 0 0 0 0 0 0 0 127 0" result="hardAlpha"/>
<feOffset dx="3" dy="2"/>
<feGaussianBlur stdDeviation="1"/>
<feComposite in2="hardAlpha" operator="arithmetic" k2="-1" k3="1"/>
<feColorMatrix type="matrix" values="0 0 0 0 0.724221 0 0 0 0 0.700295 0 0 0 0 0.804167 0 0 0 1 0"/>
<feBlend mode="normal" in2="effect2_innerShadow_3132_93105" result="effect3_innerShadow_3132_93105"/>
</filter>
</defs>
</svg>
