<svg width="173" height="173" viewBox="0 0 173 173" fill="none" xmlns="http://www.w3.org/2000/svg">
<g filter="url(#filter0_dii_1385_33964)">
<rect width="91" height="91" rx="33" transform="matrix(1 0 0 -1 41 132)" fill="#26294A"/>
</g>
<path d="M96.6579 69.125C96.1043 69.125 95.5735 68.9028 95.182 68.5072C94.7906 68.1116 94.5707 67.5751 94.5707 67.0156C94.5707 66.4562 94.7906 65.9197 95.182 65.5241C95.5735 65.1285 96.1043 64.9062 96.6579 64.9062H105.007C105.56 64.9062 106.091 65.1285 106.482 65.5241C106.874 65.9197 107.094 66.4562 107.094 67.0156V75.4531C107.094 76.0126 106.874 76.5491 106.482 76.9447C106.091 77.3403 105.56 77.5625 105.007 77.5625C104.453 77.5625 103.922 77.3403 103.531 76.9447C103.139 76.5491 102.919 76.0126 102.919 75.4531V72.1077L90.8284 84.3273C90.437 84.7227 89.9062 84.9449 89.3528 84.9449C88.7994 84.9449 88.2686 84.7227 87.8772 84.3273L82.0477 78.4358L71.0003 89.6007C70.6067 89.9849 70.0794 90.1976 69.5322 90.1927C68.9849 90.1879 68.4614 89.9661 68.0745 89.575C67.6875 89.1839 67.468 88.6549 67.4632 88.1018C67.4585 87.5487 67.6688 87.0159 68.049 86.618L80.5721 73.9618C80.9635 73.5664 81.4943 73.3442 82.0477 73.3442C82.6011 73.3442 83.1319 73.5664 83.5233 73.9618L89.3528 79.8533L99.9682 69.125H96.6579ZM71.6118 98.6562V104.984C71.6118 105.544 71.3919 106.08 71.0005 106.476C70.6091 106.872 70.0782 107.094 69.5247 107.094C68.9711 107.094 68.4402 106.872 68.0488 106.476C67.6574 106.08 67.4375 105.544 67.4375 104.984V98.6562C67.4375 98.0968 67.6574 97.5603 68.0488 97.1647C68.4402 96.7691 68.9711 96.5469 69.5247 96.5469C70.0782 96.5469 70.6091 96.7691 71.0005 97.1647C71.3919 97.5603 71.6118 98.0968 71.6118 98.6562ZM82.0477 90.2188C82.0477 89.6593 81.8278 89.1228 81.4364 88.7272C81.045 88.3316 80.5141 88.1094 79.9605 88.1094C79.407 88.1094 78.8761 88.3316 78.4847 88.7272C78.0933 89.1228 77.8734 89.6593 77.8734 90.2188V104.984C77.8734 105.544 78.0933 106.08 78.4847 106.476C78.8761 106.872 79.407 107.094 79.9605 107.094C80.5141 107.094 81.045 106.872 81.4364 106.476C81.8278 106.08 82.0477 105.544 82.0477 104.984V90.2188ZM90.3964 92.3281C90.9499 92.3281 91.4808 92.5504 91.8722 92.9459C92.2637 93.3415 92.4836 93.8781 92.4836 94.4375V104.984C92.4836 105.544 92.2637 106.08 91.8722 106.476C91.4808 106.872 90.9499 107.094 90.3964 107.094C89.8428 107.094 89.312 106.872 88.9205 106.476C88.5291 106.08 88.3092 105.544 88.3092 104.984V94.4375C88.3092 93.8781 88.5291 93.3415 88.9205 92.9459C89.312 92.5504 89.8428 92.3281 90.3964 92.3281ZM102.919 83.8906C102.919 83.3312 102.7 82.7947 102.308 82.3991C101.917 82.0035 101.386 81.7812 100.832 81.7812C100.279 81.7812 99.7478 82.0035 99.3564 82.3991C98.965 82.7947 98.7451 83.3312 98.7451 83.8906V104.984C98.7451 105.544 98.965 106.08 99.3564 106.476C99.7478 106.872 100.279 107.094 100.832 107.094C101.386 107.094 101.917 106.872 102.308 106.476C102.7 106.08 102.919 105.544 102.919 104.984V83.8906Z" fill="#55567A"/>
<rect opacity="0.6" x="0.5" y="-0.5" width="120" height="120" rx="32.5" transform="matrix(1 0 0 -1 26 146)" stroke="#908EB5"/>
<rect opacity="0.3" x="0.5" y="-0.5" width="146" height="146" rx="32.5" transform="matrix(1 0 0 -1 13 159)" stroke="#908EB5"/>
<rect opacity="0.1" x="0.5" y="-0.5" width="172" height="172" rx="32.5" transform="matrix(1 0 0 -1 0 172)" stroke="#908EB5"/>
<defs>
<filter id="filter0_dii_1385_33964" x="23" y="23" width="135" height="135" filterUnits="userSpaceOnUse" color-interpolation-filters="sRGB">
<feFlood flood-opacity="0" result="BackgroundImageFix"/>
<feColorMatrix in="SourceAlpha" type="matrix" values="0 0 0 0 0 0 0 0 0 0 0 0 0 0 0 0 0 0 127 0" result="hardAlpha"/>
<feOffset dx="4" dy="4"/>
<feGaussianBlur stdDeviation="11"/>
<feComposite in2="hardAlpha" operator="out"/>
<feColorMatrix type="matrix" values="0 0 0 0 0 0 0 0 0 0 0 0 0 0 0 0 0 0 1 0"/>
<feBlend mode="screen" in2="BackgroundImageFix" result="effect1_dropShadow_1385_33964"/>
<feBlend mode="normal" in="SourceGraphic" in2="effect1_dropShadow_1385_33964" result="shape"/>
<feColorMatrix in="SourceAlpha" type="matrix" values="0 0 0 0 0 0 0 0 0 0 0 0 0 0 0 0 0 0 127 0" result="hardAlpha"/>
<feOffset dx="-2" dy="-1"/>
<feGaussianBlur stdDeviation="2.5"/>
<feComposite in2="hardAlpha" operator="arithmetic" k2="-1" k3="1"/>
<feColorMatrix type="matrix" values="0 0 0 0 0.72549 0 0 0 0 0.701961 0 0 0 0 0.803922 0 0 0 1 0"/>
<feBlend mode="normal" in2="shape" result="effect2_innerShadow_1385_33964"/>
<feColorMatrix in="SourceAlpha" type="matrix" values="0 0 0 0 0 0 0 0 0 0 0 0 0 0 0 0 0 0 127 0" result="hardAlpha"/>
<feOffset dx="3" dy="2"/>
<feGaussianBlur stdDeviation="1"/>
<feComposite in2="hardAlpha" operator="arithmetic" k2="-1" k3="1"/>
<feColorMatrix type="matrix" values="0 0 0 0 0.724221 0 0 0 0 0.700295 0 0 0 0 0.804167 0 0 0 1 0"/>
<feBlend mode="normal" in2="effect2_innerShadow_1385_33964" result="effect3_innerShadow_1385_33964"/>
</filter>
</defs>
</svg>
