<svg width="66" height="65" viewBox="0 0 66 65" fill="none" xmlns="http://www.w3.org/2000/svg">
<rect x="1" y="0.5" width="64" height="64" rx="26.5" stroke="#908EB5"/>
<path d="M33.5 20C31.7385 20 30.0767 20.7735 28.9413 22.1222C27.273 21.9305 25.5538 22.5621 24.3079 23.8068C23.0632 25.0527 22.4348 26.7752 22.5854 28.5323C21.2735 29.5767 20.5 31.2385 20.5 33C20.5 34.7615 21.2735 36.4233 22.6233 37.5587C22.4338 39.2238 23.0621 40.9462 24.3079 42.1921C25.5538 43.439 27.273 44.0662 29.0323 43.9146C30.0767 45.2254 31.7385 46 33.5 46C35.2615 46 36.9233 45.2265 38.0587 43.8777C39.7292 44.0684 41.4463 43.4379 42.6921 42.1932C43.9368 40.9473 44.5652 39.2248 44.4146 37.4677C45.7265 36.4233 46.5 34.7615 46.5 33C46.5 31.2385 45.7265 29.5767 44.3767 28.4413C44.5663 26.7762 43.9379 25.0537 42.6921 23.8079C41.4452 22.5621 39.7227 21.9348 37.9677 22.0854C36.9233 20.7746 35.2615 20 33.5 20ZM29.0291 24.251C29.6368 24.251 30.2002 23.9899 30.5978 23.5187C31.3214 22.6596 32.3788 22.1667 33.5 22.1667C34.6213 22.1667 35.6786 22.6596 36.4023 23.5187C36.8388 24.0376 37.4748 24.2997 38.1529 24.2445C39.2731 24.1502 40.3673 24.5478 41.1602 25.3408C41.9522 26.1327 42.3519 27.2291 42.2566 28.3482C42.1981 29.0242 42.4624 29.6622 42.9824 30.0999C43.8404 30.8225 44.3333 31.8809 44.3333 33.0011C44.3333 34.1213 43.8404 35.1797 42.9824 35.9022C42.4635 36.3388 42.1981 36.978 42.2566 37.654C42.3519 38.7731 41.9532 39.8694 41.1602 40.6613C40.3673 41.4532 39.2666 41.8487 38.154 41.7577C37.4758 41.6959 36.8388 41.9646 36.4023 42.4824C35.6786 43.3415 34.6213 43.8344 33.5 43.8344C32.3788 43.8344 31.3214 43.3415 30.5978 42.4824C30.1601 41.9635 29.522 41.7035 28.8471 41.7566C27.7215 41.8541 26.6328 41.4532 25.8398 40.6602C25.0478 39.8683 24.6481 38.772 24.7434 37.6529C24.8019 36.9769 24.5376 36.3388 24.0176 35.9012C23.1596 35.1786 22.6667 34.1202 22.6667 33C22.6667 31.8798 23.1596 30.8214 24.0176 30.0988C24.5365 29.6622 24.8019 29.0231 24.7434 28.3471C24.6481 27.228 25.0468 26.1317 25.8398 25.3398C26.6328 24.5468 27.7388 24.1502 28.846 24.2434C28.9078 24.2488 28.9684 24.251 29.0291 24.251ZM30.25 37.3333C29.652 37.3333 29.1667 36.848 29.1667 36.25C29.1667 35.652 29.652 35.1667 30.25 35.1667C30.848 35.1667 31.3333 35.652 31.3333 36.25C31.3333 36.848 30.848 37.3333 30.25 37.3333ZM36.75 30.8333C36.152 30.8333 35.6667 30.348 35.6667 29.75C35.6667 29.152 36.152 28.6667 36.75 28.6667C37.348 28.6667 37.8333 29.152 37.8333 29.75C37.8333 30.348 37.348 30.8333 36.75 30.8333ZM32.2347 29.1487L36.568 35.6487C36.9006 36.146 36.7663 36.8198 36.2679 37.1513C35.7685 37.485 35.0968 37.3485 34.7653 36.8512L30.432 30.3512C30.0994 29.854 30.2338 29.1802 30.7321 28.8487C30.9173 28.7252 31.1253 28.6667 31.3322 28.6667C31.6822 28.6667 32.0267 28.8357 32.2347 29.1487Z" fill="#908EB5"/>
</svg>
