<svg width="61" height="61" viewBox="0 0 61 61" fill="none" xmlns="http://www.w3.org/2000/svg">
<path d="M41.82 22.6C41.25 21.9 40.4 21.5 39.5 21.5H25.74L25.7 21.15C25.52 19.64 24.24 18.5 22.72 18.5H21.5C20.95 18.5 20.5 18.95 20.5 19.5C20.5 20.05 20.95 20.5 21.5 20.5H22.72C23.23 20.5 23.65 20.88 23.71 21.38L25.09 33.08C25.39 35.6 27.52 37.5 30.06 37.5H38.5C39.05 37.5 39.5 37.05 39.5 36.5C39.5 35.95 39.05 35.5 38.5 35.5H30.06C28.77 35.5 27.65 34.68 27.23 33.5H36.66C39.04 33.5 41.1 31.81 41.56 29.48L42.44 25.09C42.62 24.21 42.39 23.3 41.82 22.6ZM40.48 24.7L39.6 29.09C39.32 30.49 38.08 31.5 36.66 31.5H26.92L25.98 23.5H39.5C39.8 23.5 40.08 23.63 40.27 23.87C40.46 24.1 40.54 24.41 40.48 24.7ZM29.5 40.5C29.5 41.6 28.6 42.5 27.5 42.5C26.4 42.5 25.5 41.6 25.5 40.5C25.5 39.4 26.4 38.5 27.5 38.5C28.6 38.5 29.5 39.4 29.5 40.5ZM38.5 40.5C38.5 41.6 37.6 42.5 36.5 42.5C35.4 42.5 34.5 41.6 34.5 40.5C34.5 39.4 35.4 38.5 36.5 38.5C37.6 38.5 38.5 39.4 38.5 40.5ZM18.5 24.5C18.5 23.95 18.95 23.5 19.5 23.5H21.04C21.59 23.5 22.04 23.95 22.04 24.5C22.04 25.05 21.59 25.5 21.04 25.5H19.5C18.95 25.5 18.5 25.05 18.5 24.5ZM18.5 28.5C18.5 27.95 18.95 27.5 19.5 27.5H21.5C22.05 27.5 22.5 27.95 22.5 28.5C22.5 29.05 22.05 29.5 21.5 29.5H19.5C18.95 29.5 18.5 29.05 18.5 28.5ZM23.5 32.5C23.5 33.05 23.05 33.5 22.5 33.5H19.5C18.95 33.5 18.5 33.05 18.5 32.5C18.5 31.95 18.95 31.5 19.5 31.5H22.5C23.05 31.5 23.5 31.95 23.5 32.5Z" fill="#908EB5"/>
</svg>
