<svg width="591" height="643" viewBox="0 0 591 643" fill="none" xmlns="http://www.w3.org/2000/svg">
<g filter="url(#filter0_i_1737_32475)">
<rect width="591" height="621" rx="33" fill="url(#paint0_linear_1737_32475)"/>
<rect width="591" height="621" rx="33" fill="url(#paint1_linear_1737_32475)" fill-opacity="0.2"/>
</g>
<rect x="0.5" y="0.5" width="590" height="620" rx="32.5" stroke="#2D3154"/>
<rect x="54.5" y="39.5" width="482" height="338" rx="32.5" fill="url(#paint2_linear_1737_32475)" fill-opacity="0.2" stroke="#2D3154"/>
<path d="M54.5 72C54.5 54.0507 69.0507 39.5 87 39.5H504C521.949 39.5 536.5 54.0507 536.5 72V95.5H54.5V72Z" fill="url(#paint3_linear_1737_32475)" fill-opacity="0.2" stroke="#2D3154"/>
<circle cx="6.5" cy="6.5" r="6.5" transform="matrix(1 0 0 -1 81 74)" fill="#0ACD95"/>
<circle cx="6.5" cy="6.5" r="6.5" transform="matrix(1 0 0 -1 98.5508 74)" fill="#2B64F7"/>
<circle cx="6.5" cy="6.5" r="6.5" transform="matrix(1 0 0 -1 116.1 74)" fill="#6940F2"/>
<path d="M152.5 67C152.5 56.7827 160.783 48.5 171 48.5H497C507.217 48.5 515.5 56.7827 515.5 67C515.5 77.2173 507.217 85.5 497 85.5H171C160.783 85.5 152.5 77.2173 152.5 67Z" fill="url(#paint4_linear_1737_32475)" fill-opacity="0.2" stroke="#2D3154"/>
<path d="M170.486 67.4659V72H168.999V61.8182H170.466V65.6065H170.56C170.739 65.1955 171.013 64.8691 171.381 64.6271C171.749 64.3852 172.229 64.2642 172.822 64.2642C173.346 64.2642 173.804 64.3719 174.195 64.5874C174.589 64.8028 174.894 65.1243 175.109 65.5518C175.328 65.9761 175.438 66.5064 175.438 67.1428V72H173.951V67.3217C173.951 66.7616 173.807 66.3274 173.518 66.0192C173.23 65.7076 172.829 65.5518 172.315 65.5518C171.964 65.5518 171.649 65.6264 171.371 65.7756C171.096 65.9247 170.879 66.1435 170.719 66.4318C170.564 66.7169 170.486 67.0616 170.486 67.4659ZM181.133 64.3636V65.5568H176.962V64.3636H181.133ZM178.081 62.5341H179.567V69.7578C179.567 70.0462 179.61 70.2633 179.696 70.4091C179.782 70.5516 179.893 70.6494 180.029 70.7024C180.169 70.7521 180.319 70.777 180.482 70.777C180.601 70.777 180.706 70.7687 180.795 70.7521C180.884 70.7356 180.954 70.7223 181.004 70.7124L181.272 71.9403C181.186 71.9735 181.063 72.0066 180.904 72.0398C180.745 72.0762 180.546 72.0961 180.308 72.0994C179.917 72.1061 179.552 72.0365 179.214 71.8906C178.876 71.7448 178.603 71.5194 178.394 71.2145C178.185 70.9096 178.081 70.5268 178.081 70.0661V62.5341ZM186.489 64.3636V65.5568H182.318V64.3636H186.489ZM183.437 62.5341H184.923V69.7578C184.923 70.0462 184.966 70.2633 185.053 70.4091C185.139 70.5516 185.25 70.6494 185.386 70.7024C185.525 70.7521 185.676 70.777 185.838 70.777C185.957 70.777 186.062 70.7687 186.151 70.7521C186.241 70.7356 186.31 70.7223 186.36 70.7124L186.629 71.9403C186.542 71.9735 186.42 72.0066 186.261 72.0398C186.102 72.0762 185.903 72.0961 185.664 72.0994C185.273 72.1061 184.908 72.0365 184.57 71.8906C184.232 71.7448 183.959 71.5194 183.75 71.2145C183.541 70.9096 183.437 70.5268 183.437 70.0661V62.5341ZM188.281 74.8636V64.3636H189.733V65.6016H189.857C189.943 65.4425 190.067 65.2585 190.23 65.0497C190.392 64.8409 190.618 64.6586 190.906 64.5028C191.194 64.3438 191.575 64.2642 192.049 64.2642C192.666 64.2642 193.216 64.42 193.7 64.7315C194.184 65.0431 194.563 65.4922 194.838 66.0788C195.117 66.6655 195.256 67.3714 195.256 68.1967C195.256 69.022 195.119 69.7296 194.843 70.3196C194.568 70.9062 194.191 71.3587 193.71 71.6768C193.229 71.9917 192.681 72.1491 192.064 72.1491C191.6 72.1491 191.221 72.0713 190.926 71.9155C190.634 71.7597 190.405 71.5774 190.24 71.3686C190.074 71.1598 189.946 70.9742 189.857 70.8118H189.767V74.8636H188.281ZM189.738 68.1818C189.738 68.7187 189.816 69.1894 189.971 69.5938C190.127 69.9981 190.352 70.3146 190.647 70.5433C190.942 70.7687 191.304 70.8814 191.731 70.8814C192.175 70.8814 192.547 70.7637 192.845 70.5284C193.143 70.2898 193.369 69.9666 193.521 69.5589C193.677 69.1513 193.755 68.6922 193.755 68.1818C193.755 67.678 193.678 67.2256 193.526 66.8246C193.377 66.4235 193.151 66.107 192.85 65.875C192.552 65.643 192.179 65.527 191.731 65.527C191.3 65.527 190.936 65.638 190.637 65.8601C190.343 66.0821 190.119 66.392 189.966 66.7898C189.814 67.1875 189.738 67.6515 189.738 68.1818ZM198.048 72.0945C197.776 72.0945 197.543 71.9983 197.347 71.8061C197.152 71.6106 197.054 71.3752 197.054 71.1001C197.054 70.8284 197.152 70.5964 197.347 70.4041C197.543 70.2086 197.776 70.1108 198.048 70.1108C198.32 70.1108 198.554 70.2086 198.749 70.4041C198.945 70.5964 199.043 70.8284 199.043 71.1001C199.043 71.2824 198.996 71.4498 198.903 71.6023C198.814 71.7514 198.695 71.8707 198.545 71.9602C198.396 72.0497 198.231 72.0945 198.048 72.0945ZM198.048 66.5362C197.776 66.5362 197.543 66.4384 197.347 66.2429C197.152 66.0473 197.054 65.8137 197.054 65.5419C197.054 65.2701 197.152 65.0381 197.347 64.8459C197.543 64.6503 197.776 64.5526 198.048 64.5526C198.32 64.5526 198.554 64.6503 198.749 64.8459C198.945 65.0381 199.043 65.2701 199.043 65.5419C199.043 65.7242 198.996 65.8916 198.903 66.044C198.814 66.1932 198.695 66.3125 198.545 66.402C198.396 66.4915 198.231 66.5362 198.048 66.5362ZM205.059 61.3409L201.778 73.5312H200.45L203.731 61.3409H205.059ZM210.347 61.3409L207.065 73.5312H205.738L209.019 61.3409H210.347Z" fill="#3D4278"/>
<g filter="url(#filter1_d_1737_32475)">
<path d="M397.836 309.4H374.115C351.225 309.4 332.604 327.887 332.604 350.613V448.427C332.604 467.715 318.526 484.165 300.569 485.86C290.393 486.838 280.597 483.635 273.101 476.852C265.688 470.164 261.442 460.638 261.442 450.7V350.613C261.442 327.887 242.821 309.4 219.931 309.4H196.21C173.32 309.4 154.699 327.887 154.699 350.613V446.602C154.699 525.365 216.136 592 297.059 592C334.585 592 369.905 577.682 396.733 551.529C424.201 524.741 439.347 488.933 439.347 450.7V350.613C439.347 327.887 420.726 309.4 397.836 309.4ZM403.766 450.7C403.766 479.372 392.416 506.231 371.802 526.319C351.213 546.407 323.899 557.146 295.019 556.651C237.271 555.604 190.28 506.231 190.28 446.591V380.038H225.861V450.688C225.861 470.553 234.353 489.605 249.167 502.969C263.968 516.334 283.941 522.928 303.961 521.009C339.981 517.594 368.197 485.707 368.197 448.404V380.026H403.778V450.676L403.766 450.7Z" fill="url(#paint5_radial_1737_32475)"/>
</g>
<g filter="url(#filter2_d_1737_32475)">
<circle cx="182.509" cy="199.5" r="40.6687" fill="url(#paint6_radial_1737_32475)"/>
</g>
<path d="M182.436 189.096C183.495 189.096 184.53 189.41 185.41 189.999C186.29 190.587 186.976 191.423 187.381 192.401C187.787 193.379 187.893 194.456 187.686 195.494C187.48 196.532 186.97 197.486 186.221 198.235C185.472 198.983 184.519 199.493 183.48 199.7C182.442 199.906 181.365 199.8 180.387 199.395C179.409 198.99 178.573 198.304 177.985 197.424C177.397 196.543 177.083 195.508 177.083 194.45L177.088 194.217C177.148 192.839 177.737 191.537 178.734 190.583C179.73 189.629 181.056 189.097 182.436 189.096ZM184.577 201.944C185.997 201.944 187.358 202.508 188.362 203.512C189.366 204.516 189.93 205.877 189.93 207.297V208.368C189.93 208.936 189.705 209.48 189.303 209.882C188.901 210.283 188.357 210.509 187.789 210.509H177.083C176.515 210.509 175.97 210.283 175.569 209.882C175.167 209.48 174.941 208.936 174.941 208.368V207.297C174.941 205.877 175.505 204.516 176.509 203.512C177.513 202.508 178.875 201.944 180.295 201.944H184.577Z" fill="#513D95"/>
<g filter="url(#filter3_d_1737_32475)">
<circle cx="296.001" cy="161.669" r="40.6687" fill="url(#paint7_radial_1737_32475)"/>
</g>
<path d="M295.928 151.265C296.987 151.265 298.022 151.579 298.902 152.167C299.782 152.755 300.469 153.591 300.874 154.57C301.279 155.548 301.385 156.624 301.178 157.663C300.972 158.701 300.462 159.655 299.713 160.403C298.965 161.152 298.011 161.662 296.972 161.868C295.934 162.075 294.858 161.969 293.879 161.564C292.901 161.159 292.065 160.473 291.477 159.592C290.889 158.712 290.575 157.677 290.575 156.618L290.58 156.386C290.64 155.008 291.23 153.706 292.226 152.752C293.222 151.798 294.549 151.265 295.928 151.265ZM298.069 164.113C299.489 164.113 300.851 164.677 301.855 165.68C302.858 166.684 303.422 168.046 303.422 169.466V170.536C303.422 171.104 303.197 171.649 302.795 172.05C302.394 172.452 301.849 172.678 301.281 172.678H290.575C290.007 172.678 289.462 172.452 289.061 172.05C288.659 171.649 288.434 171.104 288.434 170.536V169.466C288.434 168.046 288.998 166.684 290.001 165.68C291.005 164.677 292.367 164.113 293.787 164.113H298.069Z" fill="#513D95"/>
<g filter="url(#filter4_d_1737_32475)">
<circle cx="409.493" cy="199.5" r="40.6687" fill="url(#paint8_radial_1737_32475)"/>
</g>
<path d="M409.42 189.096C410.479 189.096 411.514 189.41 412.394 189.998C413.275 190.587 413.961 191.423 414.366 192.401C414.771 193.379 414.877 194.455 414.67 195.494C414.464 196.532 413.954 197.486 413.205 198.235C412.457 198.983 411.503 199.493 410.465 199.7C409.426 199.906 408.35 199.8 407.372 199.395C406.393 198.99 405.557 198.304 404.969 197.423C404.381 196.543 404.067 195.508 404.067 194.449L404.072 194.217C404.132 192.839 404.722 191.537 405.718 190.583C406.715 189.629 408.041 189.096 409.42 189.096ZM411.561 201.944C412.981 201.944 414.343 202.508 415.347 203.512C416.351 204.516 416.915 205.877 416.915 207.297V208.368C416.915 208.935 416.689 209.48 416.287 209.882C415.886 210.283 415.341 210.509 414.773 210.509H404.067C403.499 210.509 402.955 210.283 402.553 209.882C402.151 209.48 401.926 208.935 401.926 208.368V207.297C401.926 205.877 402.49 204.516 403.494 203.512C404.498 202.508 405.859 201.944 407.279 201.944H411.561Z" fill="#513D95"/>
<path d="M407.605 290.97L407.605 251.037" stroke="url(#paint9_linear_1737_32475)" stroke-width="4" stroke-linecap="round"/>
<path d="M297.025 258.204L297.025 218.272" stroke="url(#paint10_linear_1737_32475)" stroke-width="4" stroke-linecap="round"/>
<path d="M186.441 290.97L186.441 251.037" stroke="url(#paint11_linear_1737_32475)" stroke-width="4" stroke-linecap="round"/>
<path d="M508.553 416L485.284 455.899L531.472 456.101L508.553 416ZM379.936 615.876C427.408 604.451 459.933 589.044 480.883 563.295C501.828 537.552 510.642 502.162 512.393 452.148L504.398 451.868C502.668 501.293 493.967 534.537 474.677 558.246C455.392 581.949 424.959 596.812 378.064 608.098L379.936 615.876Z" fill="url(#paint12_linear_1737_32475)"/>
<path d="M88.757 404L113.122 443.239L66.9574 444.72L88.757 404ZM160.994 518.584C136.714 512.741 119.024 504.999 106.836 492.548C94.5676 480.015 88.3696 463.227 85.9341 440.41L93.8889 439.561C96.2198 461.398 102.013 476.185 112.553 486.952C123.174 497.802 139.11 505.089 162.866 510.806L160.994 518.584Z" fill="url(#paint13_linear_1737_32475)"/>
<defs>
<filter id="filter0_i_1737_32475" x="0" y="0" width="593" height="623" filterUnits="userSpaceOnUse" color-interpolation-filters="sRGB">
<feFlood flood-opacity="0" result="BackgroundImageFix"/>
<feBlend mode="normal" in="SourceGraphic" in2="BackgroundImageFix" result="shape"/>
<feColorMatrix in="SourceAlpha" type="matrix" values="0 0 0 0 0 0 0 0 0 0 0 0 0 0 0 0 0 0 127 0" result="hardAlpha"/>
<feOffset dx="2" dy="2"/>
<feGaussianBlur stdDeviation="4"/>
<feComposite in2="hardAlpha" operator="arithmetic" k2="-1" k3="1"/>
<feColorMatrix type="matrix" values="0 0 0 0 0 0 0 0 0 0 0 0 0 0 0 0 0 0 0.25 0"/>
<feBlend mode="normal" in2="shape" result="effect1_innerShadow_1737_32475"/>
</filter>
<filter id="filter1_d_1737_32475" x="114.699" y="269.4" width="372.648" height="370.6" filterUnits="userSpaceOnUse" color-interpolation-filters="sRGB">
<feFlood flood-opacity="0" result="BackgroundImageFix"/>
<feColorMatrix in="SourceAlpha" type="matrix" values="0 0 0 0 0 0 0 0 0 0 0 0 0 0 0 0 0 0 127 0" result="hardAlpha"/>
<feOffset dx="4" dy="4"/>
<feGaussianBlur stdDeviation="22"/>
<feComposite in2="hardAlpha" operator="out"/>
<feColorMatrix type="matrix" values="0 0 0 0 0.411765 0 0 0 0 0.25098 0 0 0 0 0.94902 0 0 0 0.49 0"/>
<feBlend mode="normal" in2="BackgroundImageFix" result="effect1_dropShadow_1737_32475"/>
<feBlend mode="normal" in="SourceGraphic" in2="effect1_dropShadow_1737_32475" result="shape"/>
</filter>
<filter id="filter2_d_1737_32475" x="101.84" y="118.831" width="169.338" height="169.337" filterUnits="userSpaceOnUse" color-interpolation-filters="sRGB">
<feFlood flood-opacity="0" result="BackgroundImageFix"/>
<feColorMatrix in="SourceAlpha" type="matrix" values="0 0 0 0 0 0 0 0 0 0 0 0 0 0 0 0 0 0 127 0" result="hardAlpha"/>
<feOffset dx="4" dy="4"/>
<feGaussianBlur stdDeviation="22"/>
<feComposite in2="hardAlpha" operator="out"/>
<feColorMatrix type="matrix" values="0 0 0 0 0.411765 0 0 0 0 0.25098 0 0 0 0 0.94902 0 0 0 0.49 0"/>
<feBlend mode="normal" in2="BackgroundImageFix" result="effect1_dropShadow_1737_32475"/>
<feBlend mode="normal" in="SourceGraphic" in2="effect1_dropShadow_1737_32475" result="shape"/>
</filter>
<filter id="filter3_d_1737_32475" x="215.332" y="81" width="169.338" height="169.337" filterUnits="userSpaceOnUse" color-interpolation-filters="sRGB">
<feFlood flood-opacity="0" result="BackgroundImageFix"/>
<feColorMatrix in="SourceAlpha" type="matrix" values="0 0 0 0 0 0 0 0 0 0 0 0 0 0 0 0 0 0 127 0" result="hardAlpha"/>
<feOffset dx="4" dy="4"/>
<feGaussianBlur stdDeviation="22"/>
<feComposite in2="hardAlpha" operator="out"/>
<feColorMatrix type="matrix" values="0 0 0 0 0.411765 0 0 0 0 0.25098 0 0 0 0 0.94902 0 0 0 0.49 0"/>
<feBlend mode="normal" in2="BackgroundImageFix" result="effect1_dropShadow_1737_32475"/>
<feBlend mode="normal" in="SourceGraphic" in2="effect1_dropShadow_1737_32475" result="shape"/>
</filter>
<filter id="filter4_d_1737_32475" x="328.824" y="118.831" width="169.338" height="169.337" filterUnits="userSpaceOnUse" color-interpolation-filters="sRGB">
<feFlood flood-opacity="0" result="BackgroundImageFix"/>
<feColorMatrix in="SourceAlpha" type="matrix" values="0 0 0 0 0 0 0 0 0 0 0 0 0 0 0 0 0 0 127 0" result="hardAlpha"/>
<feOffset dx="4" dy="4"/>
<feGaussianBlur stdDeviation="22"/>
<feComposite in2="hardAlpha" operator="out"/>
<feColorMatrix type="matrix" values="0 0 0 0 0.411765 0 0 0 0 0.25098 0 0 0 0 0.94902 0 0 0 0.49 0"/>
<feBlend mode="normal" in2="BackgroundImageFix" result="effect1_dropShadow_1737_32475"/>
<feBlend mode="normal" in="SourceGraphic" in2="effect1_dropShadow_1737_32475" result="shape"/>
</filter>
<linearGradient id="paint0_linear_1737_32475" x1="295.5" y1="0" x2="295.5" y2="621" gradientUnits="userSpaceOnUse">
<stop stop-color="#141530" stop-opacity="0.13"/>
<stop offset="1" stop-color="#2D3154" stop-opacity="0.13"/>
</linearGradient>
<linearGradient id="paint1_linear_1737_32475" x1="295.5" y1="0" x2="295.5" y2="621" gradientUnits="userSpaceOnUse">
<stop stop-color="#2D3154" stop-opacity="0.37"/>
<stop offset="1" stop-color="#5B4BB9" stop-opacity="0.28"/>
</linearGradient>
<linearGradient id="paint2_linear_1737_32475" x1="295.5" y1="39" x2="295.5" y2="378" gradientUnits="userSpaceOnUse">
<stop stop-color="#2D3154" stop-opacity="0.37"/>
<stop offset="1" stop-color="#5B4BB9" stop-opacity="0.28"/>
</linearGradient>
<linearGradient id="paint3_linear_1737_32475" x1="295.5" y1="39" x2="295.5" y2="96" gradientUnits="userSpaceOnUse">
<stop stop-color="#2D3154" stop-opacity="0.37"/>
<stop offset="1" stop-color="#5B4BB9" stop-opacity="0.28"/>
</linearGradient>
<linearGradient id="paint4_linear_1737_32475" x1="334" y1="48" x2="334" y2="86" gradientUnits="userSpaceOnUse">
<stop stop-color="#2D3154" stop-opacity="0.37"/>
<stop offset="1" stop-color="#5B4BB9" stop-opacity="0.28"/>
</linearGradient>
<radialGradient id="paint5_radial_1737_32475" cx="0" cy="0" r="1" gradientUnits="userSpaceOnUse" gradientTransform="translate(377.222 316.129) rotate(115.457) scale(316.004 253.86)">
<stop offset="0.209049" stop-color="#F9FDFF"/>
<stop offset="0.839525" stop-color="#5B4BB9"/>
</radialGradient>
<radialGradient id="paint6_radial_1737_32475" cx="0" cy="0" r="1" gradientUnits="userSpaceOnUse" gradientTransform="translate(197.377 165.523) rotate(111.414) scale(83.2581 66.5801)">
<stop offset="0.209049" stop-color="#F9FDFF"/>
<stop offset="0.839525" stop-color="#5B4BB9"/>
</radialGradient>
<radialGradient id="paint7_radial_1737_32475" cx="0" cy="0" r="1" gradientUnits="userSpaceOnUse" gradientTransform="translate(310.87 127.692) rotate(111.414) scale(83.2581 66.5801)">
<stop offset="0.209049" stop-color="#F9FDFF"/>
<stop offset="0.839525" stop-color="#2D644C"/>
</radialGradient>
<radialGradient id="paint8_radial_1737_32475" cx="0" cy="0" r="1" gradientUnits="userSpaceOnUse" gradientTransform="translate(424.362 165.523) rotate(111.414) scale(83.2581 66.5801)">
<stop offset="0.209049" stop-color="#F9FDFF"/>
<stop offset="0.839525" stop-color="#4B65B9"/>
</radialGradient>
<linearGradient id="paint9_linear_1737_32475" x1="409.658" y1="250.767" x2="422.061" y2="256.876" gradientUnits="userSpaceOnUse">
<stop stop-color="#2D3154" stop-opacity="0"/>
<stop offset="1" stop-color="#6940F2"/>
</linearGradient>
<linearGradient id="paint10_linear_1737_32475" x1="299.078" y1="218.001" x2="311.481" y2="224.111" gradientUnits="userSpaceOnUse">
<stop stop-color="#2D3154" stop-opacity="0"/>
<stop offset="1" stop-color="#6940F2"/>
</linearGradient>
<linearGradient id="paint11_linear_1737_32475" x1="188.494" y1="250.767" x2="200.897" y2="256.876" gradientUnits="userSpaceOnUse">
<stop stop-color="#2D3154" stop-opacity="0"/>
<stop offset="1" stop-color="#6940F2"/>
</linearGradient>
<linearGradient id="paint12_linear_1737_32475" x1="511.823" y1="416.256" x2="446.961" y2="583.997" gradientUnits="userSpaceOnUse">
<stop stop-color="#6940F2"/>
<stop offset="1" stop-color="#2D3154" stop-opacity="0"/>
</linearGradient>
<linearGradient id="paint13_linear_1737_32475" x1="86.9102" y1="404.144" x2="123.545" y2="498.886" gradientUnits="userSpaceOnUse">
<stop stop-color="#6940F2"/>
<stop offset="1" stop-color="#2D3154" stop-opacity="0"/>
</linearGradient>
</defs>
</svg>
