<svg width="626" height="638" viewBox="0 0 626 638" fill="none" xmlns="http://www.w3.org/2000/svg">
<rect x="13.5" y="1.13145" width="590" height="623" rx="32.5" fill="#0E1738" stroke="#2D3154"/>
<circle cx="310.5" cy="308.131" r="231" stroke="#2D3154" stroke-width="3"/>
<rect x="436.5" y="166.5" width="154" height="57" rx="28.5" fill="#232638" fill-opacity="0.53" stroke="url(#paint0_linear_1824_40397)"/>
<circle cx="468.5" cy="195" r="17.5" fill="#2D3154" fill-opacity="0.29"/>
<path d="M468.996 193.499C471.205 193.499 472.996 191.708 472.996 189.499C472.996 187.29 471.205 185.499 468.996 185.499C466.787 185.499 464.996 187.29 464.996 189.499C464.996 191.708 466.787 193.499 468.996 193.499Z" fill="#2D3154"/>
<path d="M476.998 200.999C476.998 203.484 476.998 205.499 468.998 205.499C460.998 205.499 460.998 203.484 460.998 200.999C460.998 198.514 464.58 196.499 468.998 196.499C473.416 196.499 476.998 198.514 476.998 200.999Z" fill="#2D3154"/>
<path d="M495.147 182H493.319L496.647 172.545H498.761L502.094 182H500.266L497.741 174.484H497.667L495.147 182ZM495.207 178.293H500.192V179.669H495.207V178.293ZM503.988 182L501.984 174.909H503.688L504.934 179.895H504.999L506.273 174.909H507.958L509.232 179.867H509.301L510.529 174.909H512.238L510.229 182H508.489L507.159 177.208H507.062L505.733 182H503.988ZM516.488 182.138C515.777 182.138 515.163 181.991 514.646 181.695C514.132 181.397 513.736 180.975 513.459 180.43C513.182 179.883 513.044 179.238 513.044 178.496C513.044 177.767 513.182 177.127 513.459 176.576C513.739 176.022 514.13 175.591 514.632 175.283C515.134 174.972 515.723 174.817 516.4 174.817C516.837 174.817 517.249 174.888 517.637 175.029C518.028 175.168 518.373 175.383 518.671 175.675C518.973 175.968 519.21 176.34 519.382 176.793C519.555 177.242 519.641 177.777 519.641 178.399V178.912H513.829V177.785H518.039C518.036 177.465 517.967 177.18 517.831 176.931C517.696 176.679 517.506 176.48 517.263 176.336C517.023 176.191 516.743 176.119 516.423 176.119C516.081 176.119 515.781 176.202 515.523 176.368C515.264 176.531 515.063 176.746 514.918 177.014C514.777 177.279 514.704 177.57 514.701 177.887V178.87C514.701 179.282 514.777 179.636 514.927 179.932C515.078 180.224 515.289 180.449 515.56 180.606C515.831 180.76 516.148 180.837 516.511 180.837C516.754 180.837 516.974 180.803 517.171 180.735C517.368 180.664 517.539 180.561 517.683 180.426C517.828 180.29 517.937 180.123 518.011 179.923L519.572 180.098C519.473 180.51 519.285 180.871 519.008 181.178C518.734 181.483 518.384 181.72 517.956 181.889C517.528 182.055 517.039 182.138 516.488 182.138ZM526.806 176.783L525.283 176.95C525.24 176.796 525.164 176.651 525.057 176.516C524.952 176.38 524.81 176.271 524.632 176.188C524.453 176.105 524.235 176.063 523.976 176.063C523.629 176.063 523.336 176.139 523.099 176.289C522.865 176.44 522.75 176.636 522.753 176.876C522.75 177.082 522.825 177.25 522.979 177.379C523.136 177.508 523.395 177.614 523.755 177.697L524.964 177.956C525.635 178.101 526.134 178.33 526.46 178.644C526.789 178.958 526.956 179.369 526.959 179.876C526.956 180.323 526.825 180.717 526.566 181.058C526.311 181.397 525.955 181.661 525.5 181.852C525.044 182.043 524.521 182.138 523.93 182.138C523.062 182.138 522.364 181.957 521.834 181.594C521.305 181.228 520.99 180.718 520.888 180.066L522.518 179.909C522.591 180.229 522.748 180.47 522.988 180.634C523.228 180.797 523.541 180.878 523.926 180.878C524.323 180.878 524.641 180.797 524.881 180.634C525.124 180.47 525.246 180.269 525.246 180.029C525.246 179.826 525.167 179.658 525.01 179.526C524.857 179.393 524.617 179.292 524.29 179.221L523.081 178.967C522.401 178.825 521.897 178.587 521.571 178.251C521.245 177.913 521.083 177.485 521.086 176.968C521.083 176.531 521.202 176.152 521.442 175.832C521.685 175.509 522.022 175.26 522.453 175.085C522.887 174.906 523.387 174.817 523.953 174.817C524.784 174.817 525.438 174.994 525.915 175.348C526.395 175.702 526.692 176.18 526.806 176.783ZM531.577 182.138C530.884 182.138 530.284 181.986 529.777 181.681C529.269 181.377 528.875 180.951 528.595 180.403C528.318 179.855 528.179 179.215 528.179 178.482C528.179 177.75 528.318 177.108 528.595 176.557C528.875 176.006 529.269 175.578 529.777 175.274C530.284 174.969 530.884 174.817 531.577 174.817C532.269 174.817 532.87 174.969 533.377 175.274C533.885 175.578 534.278 176.006 534.555 176.557C534.835 177.108 534.975 177.75 534.975 178.482C534.975 179.215 534.835 179.855 534.555 180.403C534.278 180.951 533.885 181.377 533.377 181.681C532.87 181.986 532.269 182.138 531.577 182.138ZM531.586 180.8C531.962 180.8 532.276 180.697 532.528 180.49C532.78 180.281 532.968 180.001 533.091 179.65C533.217 179.299 533.28 178.908 533.28 178.478C533.28 178.044 533.217 177.651 533.091 177.3C532.968 176.946 532.78 176.665 532.528 176.456C532.276 176.246 531.962 176.142 531.586 176.142C531.201 176.142 530.881 176.246 530.626 176.456C530.374 176.665 530.184 176.946 530.058 177.3C529.935 177.651 529.873 178.044 529.873 178.478C529.873 178.908 529.935 179.299 530.058 179.65C530.184 180.001 530.374 180.281 530.626 180.49C530.881 180.697 531.201 180.8 531.586 180.8ZM536.54 182V174.909H538.138V176.114H538.221C538.368 175.708 538.613 175.391 538.955 175.163C539.296 174.932 539.704 174.817 540.178 174.817C540.658 174.817 541.063 174.934 541.392 175.168C541.725 175.398 541.959 175.714 542.094 176.114H542.168C542.325 175.72 542.589 175.406 542.962 175.172C543.337 174.935 543.782 174.817 544.296 174.817C544.949 174.817 545.481 175.023 545.893 175.435C546.306 175.848 546.512 176.449 546.512 177.24V182H544.836V177.499C544.836 177.059 544.719 176.737 544.485 176.534C544.251 176.328 543.965 176.225 543.627 176.225C543.223 176.225 542.908 176.351 542.68 176.603C542.456 176.853 542.343 177.177 542.343 177.577V182H540.704V177.43C540.704 177.063 540.594 176.771 540.372 176.553C540.154 176.334 539.867 176.225 539.513 176.225C539.273 176.225 539.055 176.286 538.858 176.409C538.661 176.529 538.504 176.7 538.387 176.922C538.27 177.14 538.212 177.396 538.212 177.688V182H536.54ZM551.494 182.138C550.783 182.138 550.169 181.991 549.652 181.695C549.138 181.397 548.742 180.975 548.465 180.43C548.188 179.883 548.05 179.238 548.05 178.496C548.05 177.767 548.188 177.127 548.465 176.576C548.745 176.022 549.136 175.591 549.638 175.283C550.14 174.972 550.729 174.817 551.406 174.817C551.843 174.817 552.256 174.888 552.643 175.029C553.034 175.168 553.379 175.383 553.677 175.675C553.979 175.968 554.216 176.34 554.388 176.793C554.561 177.242 554.647 177.777 554.647 178.399V178.912H548.835V177.785H553.045C553.042 177.465 552.973 177.18 552.837 176.931C552.702 176.679 552.513 176.48 552.269 176.336C552.029 176.191 551.749 176.119 551.429 176.119C551.088 176.119 550.788 176.202 550.529 176.368C550.27 176.531 550.069 176.746 549.924 177.014C549.783 177.279 549.71 177.57 549.707 177.887V178.87C549.707 179.282 549.783 179.636 549.933 179.932C550.084 180.224 550.295 180.449 550.566 180.606C550.837 180.76 551.154 180.837 551.517 180.837C551.76 180.837 551.98 180.803 552.177 180.735C552.374 180.664 552.545 180.561 552.69 180.426C552.834 180.29 552.943 180.123 553.017 179.923L554.578 180.098C554.479 180.51 554.291 180.871 554.014 181.178C553.741 181.483 553.39 181.72 552.962 181.889C552.534 182.055 552.045 182.138 551.494 182.138ZM493.859 197.659V187.909H495.502V189.082H495.599C495.685 188.909 495.807 188.726 495.964 188.532C496.121 188.335 496.333 188.168 496.601 188.029C496.869 187.888 497.21 187.817 497.626 187.817C498.174 187.817 498.667 187.957 499.108 188.237C499.551 188.514 499.902 188.925 500.16 189.469C500.422 190.011 500.553 190.676 500.553 191.464C500.553 192.242 500.425 192.904 500.169 193.449C499.914 193.994 499.566 194.409 499.126 194.695C498.686 194.982 498.187 195.125 497.63 195.125C497.224 195.125 496.887 195.057 496.619 194.922C496.352 194.786 496.136 194.623 495.973 194.432C495.813 194.238 495.688 194.055 495.599 193.883H495.53V197.659H493.859ZM495.498 191.455C495.498 191.913 495.562 192.315 495.691 192.659C495.824 193.004 496.013 193.273 496.259 193.467C496.509 193.658 496.81 193.754 497.164 193.754C497.533 193.754 497.843 193.655 498.092 193.458C498.341 193.258 498.529 192.986 498.655 192.641C498.784 192.293 498.849 191.898 498.849 191.455C498.849 191.014 498.786 190.624 498.66 190.282C498.534 189.94 498.346 189.673 498.097 189.479C497.847 189.285 497.536 189.188 497.164 189.188C496.807 189.188 496.504 189.282 496.255 189.469C496.005 189.657 495.816 189.92 495.687 190.259C495.561 190.597 495.498 190.996 495.498 191.455ZM502.131 195V187.909H503.751V189.091H503.825C503.954 188.682 504.176 188.366 504.49 188.145C504.807 187.92 505.169 187.808 505.575 187.808C505.667 187.808 505.77 187.812 505.884 187.821C506.001 187.828 506.098 187.838 506.175 187.854V189.391C506.104 189.366 505.992 189.345 505.838 189.326C505.687 189.305 505.541 189.294 505.399 189.294C505.095 189.294 504.821 189.36 504.578 189.493C504.338 189.622 504.148 189.802 504.01 190.033C503.871 190.263 503.802 190.53 503.802 190.831V195H502.131ZM510.234 195.138C509.541 195.138 508.941 194.986 508.433 194.681C507.925 194.377 507.531 193.951 507.251 193.403C506.974 192.855 506.836 192.215 506.836 191.482C506.836 190.75 506.974 190.108 507.251 189.557C507.531 189.006 507.925 188.578 508.433 188.274C508.941 187.969 509.541 187.817 510.234 187.817C510.926 187.817 511.526 187.969 512.034 188.274C512.542 188.578 512.934 189.006 513.211 189.557C513.491 190.108 513.631 190.75 513.631 191.482C513.631 192.215 513.491 192.855 513.211 193.403C512.934 193.951 512.542 194.377 512.034 194.681C511.526 194.986 510.926 195.138 510.234 195.138ZM510.243 193.8C510.618 193.8 510.932 193.697 511.185 193.49C511.437 193.281 511.625 193.001 511.748 192.65C511.874 192.299 511.937 191.908 511.937 191.478C511.937 191.044 511.874 190.651 511.748 190.3C511.625 189.946 511.437 189.665 511.185 189.456C510.932 189.246 510.618 189.142 510.243 189.142C509.858 189.142 509.538 189.246 509.283 189.456C509.03 189.665 508.841 189.946 508.715 190.3C508.592 190.651 508.53 191.044 508.53 191.478C508.53 191.908 508.592 192.299 508.715 192.65C508.841 193.001 509.03 193.281 509.283 193.49C509.538 193.697 509.858 193.8 510.243 193.8ZM517.828 195.125C517.271 195.125 516.773 194.982 516.333 194.695C515.893 194.409 515.545 193.994 515.289 193.449C515.034 192.904 514.906 192.242 514.906 191.464C514.906 190.676 515.035 190.011 515.294 189.469C515.556 188.925 515.908 188.514 516.351 188.237C516.794 187.957 517.288 187.817 517.833 187.817C518.248 187.817 518.59 187.888 518.858 188.029C519.126 188.168 519.338 188.335 519.495 188.532C519.652 188.726 519.773 188.909 519.86 189.082H519.929V185.545H521.605V195H519.961V193.883H519.86C519.773 194.055 519.649 194.238 519.486 194.432C519.323 194.623 519.107 194.786 518.839 194.922C518.572 195.057 518.235 195.125 517.828 195.125ZM518.295 193.754C518.649 193.754 518.95 193.658 519.199 193.467C519.449 193.273 519.638 193.004 519.767 192.659C519.897 192.315 519.961 191.913 519.961 191.455C519.961 190.996 519.897 190.597 519.767 190.259C519.641 189.92 519.453 189.657 519.204 189.469C518.958 189.282 518.655 189.188 518.295 189.188C517.922 189.188 517.611 189.285 517.362 189.479C517.113 189.673 516.925 189.94 516.799 190.282C516.673 190.624 516.61 191.014 516.61 191.455C516.61 191.898 516.673 192.293 516.799 192.641C516.928 192.986 517.117 193.258 517.367 193.458C517.619 193.655 517.928 193.754 518.295 193.754ZM528.052 192.018V187.909H529.723V195H528.103V193.74H528.029C527.869 194.137 527.606 194.461 527.24 194.714C526.877 194.966 526.429 195.092 525.896 195.092C525.432 195.092 525.021 194.989 524.664 194.783C524.31 194.574 524.033 194.271 523.833 193.874C523.633 193.473 523.533 192.99 523.533 192.424V187.909H525.204V192.165C525.204 192.615 525.327 192.972 525.573 193.237C525.819 193.501 526.143 193.634 526.543 193.634C526.789 193.634 527.027 193.574 527.258 193.453C527.489 193.333 527.678 193.155 527.826 192.918C527.977 192.678 528.052 192.378 528.052 192.018ZM534.682 195.138C533.974 195.138 533.367 194.983 532.859 194.672C532.354 194.361 531.965 193.932 531.691 193.384C531.42 192.833 531.285 192.199 531.285 191.482C531.285 190.762 531.423 190.127 531.7 189.576C531.977 189.022 532.368 188.591 532.873 188.283C533.38 187.972 533.981 187.817 534.673 187.817C535.249 187.817 535.758 187.923 536.201 188.135C536.647 188.345 537.003 188.642 537.267 189.026C537.532 189.408 537.683 189.854 537.72 190.365H536.123C536.058 190.023 535.904 189.739 535.661 189.511C535.421 189.28 535.099 189.165 534.696 189.165C534.354 189.165 534.054 189.257 533.796 189.442C533.537 189.623 533.336 189.885 533.191 190.227C533.05 190.568 532.979 190.978 532.979 191.455C532.979 191.938 533.05 192.353 533.191 192.701C533.333 193.046 533.531 193.312 533.787 193.5C534.045 193.684 534.348 193.777 534.696 193.777C534.942 193.777 535.162 193.73 535.356 193.638C535.553 193.543 535.718 193.406 535.85 193.227C535.983 193.049 536.073 192.832 536.123 192.576H537.72C537.68 193.078 537.532 193.523 537.277 193.911C537.021 194.295 536.673 194.597 536.233 194.815C535.793 195.031 535.276 195.138 534.682 195.138ZM542.78 187.909V189.202H538.704V187.909H542.78ZM539.71 186.21H541.381V192.867C541.381 193.092 541.415 193.264 541.483 193.384C541.554 193.501 541.646 193.581 541.76 193.624C541.874 193.667 542 193.689 542.139 193.689C542.243 193.689 542.339 193.681 542.425 193.666C542.514 193.65 542.582 193.637 542.628 193.624L542.909 194.931C542.82 194.962 542.693 194.995 542.526 195.032C542.363 195.069 542.163 195.091 541.926 195.097C541.508 195.109 541.131 195.046 540.795 194.908C540.46 194.766 540.193 194.548 539.997 194.252C539.803 193.957 539.707 193.587 539.71 193.144V186.21Z" fill="white"/>
<path d="M500.573 205.391C501.022 204.009 502.978 204.009 503.427 205.391L503.684 206.182C503.885 206.8 504.461 207.219 505.11 207.219L505.943 207.219C507.396 207.219 508 209.078 506.825 209.932L506.151 210.422C505.625 210.804 505.405 211.481 505.606 212.099L505.863 212.891C506.313 214.273 504.731 215.422 503.555 214.568L502.882 214.078C502.356 213.696 501.644 213.696 501.118 214.078L500.445 214.568C499.269 215.422 497.687 214.273 498.137 212.891L498.394 212.099C498.595 211.481 498.375 210.804 497.849 210.422L497.175 209.932C496 209.078 496.604 207.219 498.057 207.219L498.89 207.219C499.539 207.219 500.115 206.8 500.316 206.182L500.573 205.391Z" fill="url(#paint1_diamond_1824_40397)"/>
<path d="M518.573 205.391C519.022 204.009 520.978 204.009 521.427 205.391L521.684 206.182C521.885 206.8 522.461 207.219 523.11 207.219L523.943 207.219C525.396 207.219 526 209.078 524.825 209.932L524.151 210.422C523.625 210.804 523.405 211.481 523.606 212.099L523.863 212.891C524.313 214.273 522.731 215.422 521.555 214.568L520.882 214.078C520.356 213.696 519.644 213.696 519.118 214.078L518.445 214.568C517.269 215.422 515.687 214.273 516.137 212.891L516.394 212.099C516.595 211.481 516.375 210.804 515.849 210.422L515.175 209.932C514 209.078 514.604 207.219 516.057 207.219L516.89 207.219C517.539 207.219 518.115 206.8 518.316 206.182L518.573 205.391Z" fill="url(#paint2_diamond_1824_40397)"/>
<path d="M536.573 205.391C537.022 204.009 538.978 204.009 539.427 205.391L539.684 206.182C539.885 206.8 540.461 207.219 541.11 207.219L541.943 207.219C543.396 207.219 544 209.078 542.825 209.932L542.151 210.422C541.625 210.804 541.405 211.481 541.606 212.099L541.863 212.891C542.313 214.273 540.731 215.422 539.555 214.568L538.882 214.078C538.356 213.696 537.644 213.696 537.118 214.078L536.445 214.568C535.269 215.422 533.687 214.273 534.137 212.891L534.394 212.099C534.595 211.481 534.375 210.804 533.849 210.422L533.175 209.932C532 209.078 532.604 207.219 534.057 207.219L534.89 207.219C535.539 207.219 536.115 206.8 536.316 206.182L536.573 205.391Z" fill="url(#paint3_diamond_1824_40397)"/>
<path d="M554.573 205.391C555.022 204.009 556.978 204.009 557.427 205.391L557.684 206.182C557.885 206.8 558.461 207.219 559.11 207.219L559.943 207.219C561.396 207.219 562 209.078 560.825 209.932L560.151 210.422C559.625 210.804 559.405 211.481 559.606 212.099L559.863 212.891C560.313 214.273 558.731 215.422 557.555 214.568L556.882 214.078C556.356 213.696 555.644 213.696 555.118 214.078L554.445 214.568C553.269 215.422 551.687 214.273 552.137 212.891L552.394 212.099C552.595 211.481 552.375 210.804 551.849 210.422L551.175 209.932C550 209.078 550.604 207.219 552.057 207.219L552.89 207.219C553.539 207.219 554.115 206.8 554.316 206.182L554.573 205.391Z" fill="url(#paint4_diamond_1824_40397)"/>
<path d="M572.573 205.391C573.022 204.009 574.978 204.009 575.427 205.391L575.684 206.182C575.885 206.8 576.461 207.219 577.11 207.219L577.943 207.219C579.396 207.219 580 209.078 578.825 209.932L578.151 210.422C577.625 210.804 577.405 211.481 577.606 212.099L577.863 212.891C578.313 214.273 576.731 215.422 575.555 214.568L574.882 214.078C574.356 213.696 573.644 213.696 573.118 214.078L572.445 214.568C571.269 215.422 569.687 214.273 570.137 212.891L570.394 212.099C570.595 211.481 570.375 210.804 569.849 210.422L569.175 209.932C568 209.078 568.604 207.219 570.057 207.219L570.89 207.219C571.539 207.219 572.115 206.8 572.316 206.182L572.573 205.391Z" fill="#282545" fill-opacity="0.29"/>
<rect x="62.5" y="456.5" width="154" height="57" rx="28.5" fill="#232638" fill-opacity="0.53" stroke="url(#paint5_linear_1824_40397)"/>
<circle cx="94.5" cy="485" r="17.5" fill="#2D3154" fill-opacity="0.29"/>
<path d="M94.9961 483.499C97.2052 483.499 98.9961 481.708 98.9961 479.499C98.9961 477.29 97.2052 475.499 94.9961 475.499C92.787 475.499 90.9961 477.29 90.9961 479.499C90.9961 481.708 92.787 483.499 94.9961 483.499Z" fill="#2D3154"/>
<path d="M102.998 490.999C102.998 493.484 102.998 495.499 94.998 495.499C86.998 495.499 86.998 493.484 86.998 490.999C86.998 488.514 90.58 486.499 94.998 486.499C99.416 486.499 102.998 488.514 102.998 490.999Z" fill="#2D3154"/>
<path d="M123.455 468.824H125.006L125.925 470.015L126.58 470.79L128.154 472.812H126.493L125.422 471.455L124.964 470.809L123.455 468.824ZM128.381 467.273C128.381 468.291 128.19 469.164 127.808 469.89C127.43 470.614 126.913 471.167 126.257 471.552C125.605 471.937 124.864 472.129 124.037 472.129C123.209 472.129 122.467 471.937 121.811 471.552C121.159 471.164 120.642 470.609 120.26 469.886C119.882 469.159 119.692 468.288 119.692 467.273C119.692 466.254 119.882 465.383 120.26 464.66C120.642 463.933 121.159 463.378 121.811 462.993C122.467 462.609 123.209 462.416 124.037 462.416C124.864 462.416 125.605 462.609 126.257 462.993C126.913 463.378 127.43 463.933 127.808 464.66C128.19 465.383 128.381 466.254 128.381 467.273ZM126.659 467.273C126.659 466.556 126.546 465.951 126.322 465.458C126.1 464.963 125.792 464.589 125.398 464.337C125.004 464.081 124.551 463.953 124.037 463.953C123.523 463.953 123.069 464.081 122.675 464.337C122.281 464.589 121.971 464.963 121.747 465.458C121.525 465.951 121.414 466.556 121.414 467.273C121.414 467.99 121.525 468.596 121.747 469.092C121.971 469.584 122.281 469.958 122.675 470.213C123.069 470.466 123.523 470.592 124.037 470.592C124.551 470.592 125.004 470.466 125.398 470.213C125.792 469.958 126.1 469.584 126.322 469.092C126.546 468.596 126.659 467.99 126.659 467.273ZM134.606 469.018V464.909H136.277V472H134.656V470.74H134.582C134.422 471.137 134.159 471.461 133.793 471.714C133.43 471.966 132.982 472.092 132.45 472.092C131.985 472.092 131.574 471.989 131.217 471.783C130.863 471.574 130.586 471.271 130.386 470.874C130.186 470.473 130.086 469.99 130.086 469.424V464.909H131.757V469.165C131.757 469.615 131.88 469.972 132.127 470.236C132.373 470.501 132.696 470.634 133.096 470.634C133.342 470.634 133.581 470.573 133.812 470.453C134.042 470.333 134.232 470.155 134.379 469.918C134.53 469.678 134.606 469.378 134.606 469.018ZM140.183 472.143C139.734 472.143 139.329 472.063 138.969 471.903C138.612 471.74 138.329 471.5 138.119 471.183C137.913 470.866 137.81 470.475 137.81 470.01C137.81 469.61 137.884 469.279 138.032 469.018C138.179 468.756 138.381 468.547 138.636 468.39C138.892 468.233 139.18 468.114 139.5 468.034C139.823 467.951 140.157 467.891 140.501 467.854C140.917 467.811 141.254 467.773 141.513 467.739C141.771 467.702 141.959 467.647 142.076 467.573C142.196 467.496 142.256 467.377 142.256 467.217V467.19C142.256 466.842 142.153 466.573 141.946 466.382C141.74 466.191 141.443 466.096 141.055 466.096C140.646 466.096 140.321 466.185 140.081 466.363C139.844 466.542 139.684 466.753 139.601 466.996L138.041 466.774C138.164 466.343 138.367 465.983 138.65 465.694C138.933 465.401 139.28 465.183 139.689 465.038C140.098 464.891 140.551 464.817 141.046 464.817C141.388 464.817 141.728 464.857 142.066 464.937C142.405 465.017 142.714 465.149 142.994 465.334C143.274 465.515 143.499 465.763 143.668 466.077C143.841 466.391 143.927 466.783 143.927 467.254V472H142.32V471.026H142.265C142.163 471.223 142.02 471.408 141.836 471.58C141.654 471.749 141.425 471.886 141.148 471.991C140.874 472.092 140.552 472.143 140.183 472.143ZM140.617 470.915C140.952 470.915 141.243 470.849 141.489 470.717C141.736 470.581 141.925 470.403 142.057 470.181C142.193 469.96 142.26 469.718 142.26 469.456V468.621C142.208 468.664 142.119 468.704 141.993 468.741C141.87 468.778 141.731 468.81 141.577 468.838C141.423 468.865 141.271 468.89 141.12 468.912C140.969 468.933 140.838 468.952 140.728 468.967C140.478 469.001 140.255 469.056 140.058 469.133C139.861 469.21 139.706 469.318 139.592 469.456C139.478 469.592 139.421 469.767 139.421 469.983C139.421 470.29 139.534 470.523 139.758 470.68C139.983 470.837 140.269 470.915 140.617 470.915ZM147.426 462.545V472H145.755V462.545H147.426ZM149.292 472V464.909H150.963V472H149.292ZM150.132 463.903C149.867 463.903 149.639 463.815 149.448 463.64C149.258 463.461 149.162 463.247 149.162 462.998C149.162 462.745 149.258 462.532 149.448 462.356C149.639 462.178 149.867 462.088 150.132 462.088C150.399 462.088 150.627 462.178 150.815 462.356C151.006 462.532 151.101 462.745 151.101 462.998C151.101 463.247 151.006 463.461 150.815 463.64C150.627 463.815 150.399 463.903 150.132 463.903ZM156.369 464.909V466.202H152.293V464.909H156.369ZM153.299 463.21H154.97V469.867C154.97 470.092 155.004 470.264 155.072 470.384C155.143 470.501 155.235 470.581 155.349 470.624C155.463 470.667 155.589 470.689 155.728 470.689C155.832 470.689 155.928 470.681 156.014 470.666C156.103 470.65 156.171 470.637 156.217 470.624L156.499 471.931C156.409 471.962 156.282 471.995 156.115 472.032C155.952 472.069 155.752 472.091 155.515 472.097C155.097 472.109 154.72 472.046 154.384 471.908C154.049 471.766 153.783 471.548 153.586 471.252C153.392 470.957 153.296 470.587 153.299 470.144V463.21ZM158.953 474.659C158.725 474.659 158.514 474.641 158.32 474.604C158.13 474.57 157.977 474.53 157.863 474.484L158.251 473.182C158.494 473.253 158.711 473.286 158.902 473.283C159.093 473.28 159.261 473.22 159.405 473.103C159.553 472.989 159.678 472.799 159.779 472.531L159.922 472.148L157.351 464.909H159.124L160.758 470.264H160.832L162.471 464.909H164.248L161.409 472.859C161.277 473.234 161.101 473.556 160.883 473.823C160.664 474.094 160.396 474.301 160.079 474.442C159.765 474.587 159.39 474.659 158.953 474.659ZM170.387 472L168.383 464.909H170.087L171.333 469.895H171.398L172.672 464.909H174.357L175.631 469.867H175.701L176.929 464.909H178.637L176.628 472H174.888L173.559 467.208H173.462L172.132 472H170.387ZM181.991 472.143C181.542 472.143 181.137 472.063 180.777 471.903C180.42 471.74 180.137 471.5 179.928 471.183C179.721 470.866 179.618 470.475 179.618 470.01C179.618 469.61 179.692 469.279 179.84 469.018C179.988 468.756 180.189 468.547 180.445 468.39C180.7 468.233 180.988 468.114 181.308 468.034C181.631 467.951 181.965 467.891 182.31 467.854C182.725 467.811 183.062 467.773 183.321 467.739C183.579 467.702 183.767 467.647 183.884 467.573C184.004 467.496 184.064 467.377 184.064 467.217V467.19C184.064 466.842 183.961 466.573 183.755 466.382C183.549 466.191 183.252 466.096 182.864 466.096C182.454 466.096 182.13 466.185 181.89 466.363C181.653 466.542 181.493 466.753 181.41 466.996L179.849 466.774C179.972 466.343 180.175 465.983 180.459 465.694C180.742 465.401 181.088 465.183 181.497 465.038C181.907 464.891 182.359 464.817 182.855 464.817C183.196 464.817 183.536 464.857 183.875 464.937C184.213 465.017 184.523 465.149 184.803 465.334C185.083 465.515 185.307 465.763 185.477 466.077C185.649 466.391 185.735 466.783 185.735 467.254V472H184.129V471.026H184.073C183.972 471.223 183.829 471.408 183.644 471.58C183.462 471.749 183.233 471.886 182.956 471.991C182.682 472.092 182.361 472.143 181.991 472.143ZM182.425 470.915C182.761 470.915 183.051 470.849 183.298 470.717C183.544 470.581 183.733 470.403 183.866 470.181C184.001 469.96 184.069 469.718 184.069 469.456V468.621C184.016 468.664 183.927 468.704 183.801 468.741C183.678 468.778 183.539 468.81 183.385 468.838C183.232 468.865 183.079 468.89 182.928 468.912C182.778 468.933 182.647 468.952 182.536 468.967C182.287 469.001 182.064 469.056 181.867 469.133C181.67 469.21 181.514 469.318 181.4 469.456C181.286 469.592 181.23 469.767 181.23 469.983C181.23 470.29 181.342 470.523 181.567 470.68C181.791 470.837 182.077 470.915 182.425 470.915ZM193.167 466.783L191.644 466.95C191.601 466.796 191.525 466.651 191.418 466.516C191.313 466.38 191.171 466.271 190.993 466.188C190.814 466.105 190.596 466.063 190.337 466.063C189.99 466.063 189.697 466.139 189.46 466.289C189.226 466.44 189.111 466.636 189.114 466.876C189.111 467.082 189.186 467.25 189.34 467.379C189.497 467.508 189.756 467.614 190.116 467.697L191.325 467.956C191.996 468.101 192.495 468.33 192.821 468.644C193.15 468.958 193.317 469.369 193.32 469.876C193.317 470.323 193.186 470.717 192.927 471.058C192.672 471.397 192.316 471.661 191.861 471.852C191.405 472.043 190.882 472.138 190.291 472.138C189.423 472.138 188.725 471.957 188.195 471.594C187.666 471.227 187.351 470.718 187.249 470.066L188.879 469.909C188.952 470.229 189.109 470.47 189.349 470.634C189.59 470.797 189.902 470.878 190.287 470.878C190.684 470.878 191.002 470.797 191.242 470.634C191.485 470.47 191.607 470.269 191.607 470.029C191.607 469.826 191.528 469.658 191.371 469.526C191.218 469.393 190.978 469.292 190.651 469.221L189.442 468.967C188.762 468.825 188.258 468.587 187.932 468.251C187.606 467.913 187.444 467.485 187.447 466.968C187.444 466.531 187.563 466.152 187.803 465.832C188.046 465.509 188.383 465.26 188.814 465.085C189.248 464.906 189.748 464.817 190.314 464.817C191.145 464.817 191.799 464.994 192.276 465.348C192.756 465.702 193.053 466.18 193.167 466.783ZM125.463 479.783L123.94 479.95C123.897 479.796 123.821 479.651 123.713 479.516C123.609 479.38 123.467 479.271 123.289 479.188C123.11 479.105 122.892 479.063 122.633 479.063C122.285 479.063 121.993 479.139 121.756 479.289C121.522 479.44 121.407 479.636 121.41 479.876C121.407 480.082 121.482 480.25 121.636 480.379C121.793 480.508 122.051 480.614 122.412 480.697L123.621 480.956C124.292 481.101 124.791 481.33 125.117 481.644C125.446 481.958 125.612 482.369 125.615 482.876C125.612 483.323 125.482 483.717 125.223 484.058C124.968 484.397 124.612 484.661 124.157 484.852C123.701 485.043 123.178 485.138 122.587 485.138C121.719 485.138 121.02 484.957 120.491 484.594C119.962 484.227 119.646 483.718 119.545 483.066L121.174 482.909C121.248 483.229 121.405 483.47 121.645 483.634C121.885 483.797 122.198 483.878 122.582 483.878C122.979 483.878 123.298 483.797 123.538 483.634C123.781 483.47 123.903 483.269 123.903 483.029C123.903 482.826 123.824 482.658 123.667 482.526C123.513 482.393 123.273 482.292 122.947 482.221L121.738 481.967C121.057 481.825 120.554 481.587 120.228 481.251C119.902 480.913 119.74 480.485 119.743 479.968C119.74 479.531 119.859 479.152 120.099 478.832C120.342 478.509 120.679 478.26 121.11 478.085C121.544 477.906 122.044 477.817 122.61 477.817C123.441 477.817 124.095 477.994 124.572 478.348C125.052 478.702 125.349 479.18 125.463 479.783ZM130.234 485.138C129.541 485.138 128.941 484.986 128.433 484.681C127.926 484.377 127.532 483.951 127.252 483.403C126.975 482.855 126.836 482.215 126.836 481.482C126.836 480.75 126.975 480.108 127.252 479.557C127.532 479.006 127.926 478.578 128.433 478.274C128.941 477.969 129.541 477.817 130.234 477.817C130.926 477.817 131.526 477.969 132.034 478.274C132.542 478.578 132.934 479.006 133.211 479.557C133.491 480.108 133.631 480.75 133.631 481.482C133.631 482.215 133.491 482.855 133.211 483.403C132.934 483.951 132.542 484.377 132.034 484.681C131.526 484.986 130.926 485.138 130.234 485.138ZM130.243 483.8C130.618 483.8 130.932 483.697 131.185 483.49C131.437 483.281 131.625 483.001 131.748 482.65C131.874 482.299 131.937 481.908 131.937 481.478C131.937 481.044 131.874 480.651 131.748 480.3C131.625 479.946 131.437 479.665 131.185 479.456C130.932 479.246 130.618 479.142 130.243 479.142C129.858 479.142 129.538 479.246 129.283 479.456C129.03 479.665 128.841 479.946 128.715 480.3C128.592 480.651 128.53 481.044 128.53 481.478C128.53 481.908 128.592 482.299 128.715 482.65C128.841 483.001 129.03 483.281 129.283 483.49C129.538 483.697 129.858 483.8 130.243 483.8ZM141.653 487.807C141.053 487.807 140.537 487.725 140.106 487.562C139.675 487.402 139.329 487.187 139.068 486.916C138.806 486.645 138.624 486.345 138.523 486.016L140.028 485.651C140.096 485.789 140.194 485.926 140.323 486.062C140.453 486.2 140.626 486.314 140.845 486.403C141.067 486.496 141.345 486.542 141.681 486.542C142.155 486.542 142.547 486.426 142.858 486.196C143.169 485.968 143.324 485.592 143.324 485.069V483.726H143.241C143.155 483.898 143.029 484.075 142.862 484.257C142.699 484.438 142.482 484.591 142.211 484.714C141.944 484.837 141.607 484.898 141.2 484.898C140.656 484.898 140.162 484.771 139.719 484.515C139.278 484.257 138.928 483.872 138.666 483.361C138.407 482.847 138.278 482.204 138.278 481.431C138.278 480.653 138.407 479.996 138.666 479.46C138.928 478.922 139.28 478.514 139.723 478.237C140.166 477.957 140.66 477.817 141.205 477.817C141.621 477.817 141.962 477.888 142.23 478.029C142.501 478.168 142.716 478.335 142.876 478.532C143.036 478.726 143.158 478.909 143.241 479.082H143.333V477.909H144.981V485.115C144.981 485.722 144.837 486.223 144.547 486.62C144.258 487.017 143.863 487.314 143.361 487.511C142.859 487.708 142.29 487.807 141.653 487.807ZM141.667 483.587C142.021 483.587 142.322 483.501 142.572 483.329C142.821 483.156 143.01 482.909 143.139 482.586C143.269 482.262 143.333 481.875 143.333 481.422C143.333 480.976 143.269 480.585 143.139 480.25C143.013 479.914 142.825 479.654 142.576 479.469C142.33 479.282 142.027 479.188 141.667 479.188C141.294 479.188 140.983 479.285 140.734 479.479C140.485 479.673 140.297 479.939 140.171 480.277C140.045 480.613 139.982 480.994 139.982 481.422C139.982 481.856 140.045 482.236 140.171 482.562C140.3 482.886 140.49 483.138 140.739 483.32C140.991 483.498 141.3 483.587 141.667 483.587ZM149.934 485.138C149.242 485.138 148.642 484.986 148.134 484.681C147.626 484.377 147.232 483.951 146.952 483.403C146.675 482.855 146.537 482.215 146.537 481.482C146.537 480.75 146.675 480.108 146.952 479.557C147.232 479.006 147.626 478.578 148.134 478.274C148.642 477.969 149.242 477.817 149.934 477.817C150.627 477.817 151.227 477.969 151.735 478.274C152.243 478.578 152.635 479.006 152.912 479.557C153.192 480.108 153.332 480.75 153.332 481.482C153.332 482.215 153.192 482.855 152.912 483.403C152.635 483.951 152.243 484.377 151.735 484.681C151.227 484.986 150.627 485.138 149.934 485.138ZM149.944 483.8C150.319 483.8 150.633 483.697 150.885 483.49C151.138 483.281 151.325 483.001 151.449 482.65C151.575 482.299 151.638 481.908 151.638 481.478C151.638 481.044 151.575 480.651 151.449 480.3C151.325 479.946 151.138 479.665 150.885 479.456C150.633 479.246 150.319 479.142 149.944 479.142C149.559 479.142 149.239 479.246 148.983 479.456C148.731 479.665 148.542 479.946 148.416 480.3C148.292 480.651 148.231 481.044 148.231 481.478C148.231 481.908 148.292 482.299 148.416 482.65C148.542 483.001 148.731 483.281 148.983 483.49C149.239 483.697 149.559 483.8 149.944 483.8ZM157.991 485.138C157.298 485.138 156.698 484.986 156.19 484.681C155.683 484.377 155.289 483.951 155.009 483.403C154.732 482.855 154.593 482.215 154.593 481.482C154.593 480.75 154.732 480.108 155.009 479.557C155.289 479.006 155.683 478.578 156.19 478.274C156.698 477.969 157.298 477.817 157.991 477.817C158.683 477.817 159.283 477.969 159.791 478.274C160.299 478.578 160.691 479.006 160.968 479.557C161.249 480.108 161.389 480.75 161.389 481.482C161.389 482.215 161.249 482.855 160.968 483.403C160.691 483.951 160.299 484.377 159.791 484.681C159.283 484.986 158.683 485.138 157.991 485.138ZM158 483.8C158.376 483.8 158.689 483.697 158.942 483.49C159.194 483.281 159.382 483.001 159.505 482.65C159.631 482.299 159.694 481.908 159.694 481.478C159.694 481.044 159.631 480.651 159.505 480.3C159.382 479.946 159.194 479.665 158.942 479.456C158.689 479.246 158.376 479.142 158 479.142C157.615 479.142 157.295 479.246 157.04 479.456C156.787 479.665 156.598 479.946 156.472 480.3C156.349 480.651 156.287 481.044 156.287 481.478C156.287 481.908 156.349 482.299 156.472 482.65C156.598 483.001 156.787 483.281 157.04 483.49C157.295 483.697 157.615 483.8 158 483.8ZM165.586 485.125C165.029 485.125 164.53 484.982 164.09 484.695C163.65 484.409 163.302 483.994 163.047 483.449C162.791 482.904 162.663 482.242 162.663 481.464C162.663 480.676 162.793 480.011 163.051 479.469C163.313 478.925 163.665 478.514 164.108 478.237C164.552 477.957 165.046 477.817 165.59 477.817C166.006 477.817 166.347 477.888 166.615 478.029C166.883 478.168 167.095 478.335 167.252 478.532C167.409 478.726 167.531 478.909 167.617 479.082H167.686V475.545H169.362V485H167.718V483.883H167.617C167.531 484.055 167.406 484.238 167.243 484.432C167.08 484.623 166.864 484.786 166.597 484.922C166.329 485.057 165.992 485.125 165.586 485.125ZM166.052 483.754C166.406 483.754 166.707 483.658 166.957 483.467C167.206 483.273 167.395 483.004 167.525 482.659C167.654 482.315 167.718 481.913 167.718 481.455C167.718 480.996 167.654 480.597 167.525 480.259C167.398 479.92 167.211 479.657 166.961 479.469C166.715 479.282 166.412 479.188 166.052 479.188C165.68 479.188 165.369 479.285 165.119 479.479C164.87 479.673 164.682 479.94 164.556 480.282C164.43 480.624 164.367 481.014 164.367 481.455C164.367 481.898 164.43 482.293 164.556 482.641C164.685 482.986 164.875 483.258 165.124 483.458C165.376 483.655 165.686 483.754 166.052 483.754Z" fill="white"/>
<path d="M126.573 495.391C127.022 494.009 128.978 494.009 129.427 495.391L129.684 496.182C129.885 496.8 130.461 497.219 131.11 497.219L131.943 497.219C133.396 497.219 134 499.078 132.825 499.932L132.151 500.422C131.625 500.804 131.405 501.481 131.606 502.099L131.863 502.891C132.313 504.273 130.731 505.422 129.555 504.568L128.882 504.078C128.356 503.696 127.644 503.696 127.118 504.078L126.445 504.568C125.269 505.422 123.687 504.273 124.137 502.891L124.394 502.099C124.595 501.481 124.375 500.804 123.849 500.422L123.175 499.932C122 499.078 122.604 497.219 124.057 497.219L124.89 497.219C125.539 497.219 126.115 496.8 126.316 496.182L126.573 495.391Z" fill="url(#paint6_diamond_1824_40397)"/>
<path d="M144.573 495.391C145.022 494.009 146.978 494.009 147.427 495.391L147.684 496.182C147.885 496.8 148.461 497.219 149.11 497.219L149.943 497.219C151.396 497.219 152 499.078 150.825 499.932L150.151 500.422C149.625 500.804 149.405 501.481 149.606 502.099L149.863 502.891C150.313 504.273 148.731 505.422 147.555 504.568L146.882 504.078C146.356 503.696 145.644 503.696 145.118 504.078L144.445 504.568C143.269 505.422 141.687 504.273 142.137 502.891L142.394 502.099C142.595 501.481 142.375 500.804 141.849 500.422L141.175 499.932C140 499.078 140.604 497.219 142.057 497.219L142.89 497.219C143.539 497.219 144.115 496.8 144.316 496.182L144.573 495.391Z" fill="url(#paint7_diamond_1824_40397)"/>
<path d="M162.573 495.391C163.022 494.009 164.978 494.009 165.427 495.391L165.684 496.182C165.885 496.8 166.461 497.219 167.11 497.219L167.943 497.219C169.396 497.219 170 499.078 168.825 499.932L168.151 500.422C167.625 500.804 167.405 501.481 167.606 502.099L167.863 502.891C168.313 504.273 166.731 505.422 165.555 504.568L164.882 504.078C164.356 503.696 163.644 503.696 163.118 504.078L162.445 504.568C161.269 505.422 159.687 504.273 160.137 502.891L160.394 502.099C160.595 501.481 160.375 500.804 159.849 500.422L159.175 499.932C158 499.078 158.604 497.219 160.057 497.219L160.89 497.219C161.539 497.219 162.115 496.8 162.316 496.182L162.573 495.391Z" fill="url(#paint8_diamond_1824_40397)"/>
<path d="M180.573 495.391C181.022 494.009 182.978 494.009 183.427 495.391L183.684 496.182C183.885 496.8 184.461 497.219 185.11 497.219L185.943 497.219C187.396 497.219 188 499.078 186.825 499.932L186.151 500.422C185.625 500.804 185.405 501.481 185.606 502.099L185.863 502.891C186.313 504.273 184.731 505.422 183.555 504.568L182.882 504.078C182.356 503.696 181.644 503.696 181.118 504.078L180.445 504.568C179.269 505.422 177.687 504.273 178.137 502.891L178.394 502.099C178.595 501.481 178.375 500.804 177.849 500.422L177.175 499.932C176 499.078 176.604 497.219 178.057 497.219L178.89 497.219C179.539 497.219 180.115 496.8 180.316 496.182L180.573 495.391Z" fill="url(#paint9_diamond_1824_40397)"/>
<path d="M198.573 495.391C199.022 494.009 200.978 494.009 201.427 495.391L201.684 496.182C201.885 496.8 202.461 497.219 203.11 497.219L203.943 497.219C205.396 497.219 206 499.078 204.825 499.932L204.151 500.422C203.625 500.804 203.405 501.481 203.606 502.099L203.863 502.891C204.313 504.273 202.731 505.422 201.555 504.568L200.882 504.078C200.356 503.696 199.644 503.696 199.118 504.078L198.445 504.568C197.269 505.422 195.687 504.273 196.137 502.891L196.394 502.099C196.595 501.481 196.375 500.804 195.849 500.422L195.175 499.932C194 499.078 194.604 497.219 196.057 497.219L196.89 497.219C197.539 497.219 198.115 496.8 198.316 496.182L198.573 495.391Z" fill="#282545" fill-opacity="0.29"/>
<path d="M101.412 216.339C99.498 217.632 96.9024 216.369 96.7394 214.065L95.323 194.045C95.16 191.741 97.5519 190.125 99.6284 191.136L117.674 199.919C119.751 200.93 119.955 203.809 118.041 205.102L101.412 216.339Z" fill="#2D3154"/>
<path d="M523.425 403.262C523.371 400.953 520.838 399.568 518.866 400.769L501.724 411.208C499.751 412.409 499.819 415.295 501.845 416.403L519.456 426.029C521.483 427.136 523.948 425.635 523.894 423.326L523.425 403.262Z" fill="#2D3154"/>
<g filter="url(#filter0_d_1824_40397)">
<circle cx="306.645" cy="311.276" r="67.6446" fill="url(#paint10_radial_1824_40397)"/>
</g>
<g style="mix-blend-mode:plus-lighter">
<path d="M318.826 331.895C320.291 333.379 320.291 335.785 318.826 337.267C317.361 338.751 314.986 338.751 313.523 337.267L301.937 325.529C300.959 324.539 299.377 324.539 298.402 325.529C297.424 326.52 297.424 328.123 298.402 329.111L308.93 339.777C310.395 341.262 310.395 343.668 308.93 345.15C307.465 346.634 305.09 346.634 303.627 345.15L291.944 333.313C284.553 326.008 277 316.269 277 306.993C277 297.216 284.291 289.263 293.251 289.263C297.684 289.263 301.08 290.94 303.665 292.801L294.566 301.94C292.911 303.614 292.001 305.843 292.001 308.212C292.001 310.58 292.911 312.806 294.561 314.478C296.214 316.155 298.412 317.077 300.752 317.077C301.817 317.077 302.845 316.862 303.815 316.497L318.828 331.897L318.826 331.895ZM313.056 308.323L307.825 313.587L323.101 328.83C324.566 330.314 326.942 330.314 328.404 328.83C330.644 326.56 328.727 324.048 328.727 324.048L313.056 308.323ZM320.646 289.41C316.561 289.435 312.68 291.233 309.69 294.055L298.097 305.722C296.632 307.206 296.632 309.612 298.097 311.094C299.562 312.579 301.937 312.579 303.4 311.094L309.643 304.813C311.593 302.849 314.738 302.849 316.691 304.813L332.502 320.714C335.48 315.846 337 311.287 337 307.14C337 297.363 329.604 289.41 320.644 289.41H320.646Z" fill="#6940F2"/>
</g>
<g filter="url(#filter1_d_1824_40397)">
<circle cx="83.1279" cy="336.759" r="43.1279" fill="url(#paint11_radial_1824_40397)"/>
</g>
<g style="mix-blend-mode:plus-lighter">
<path fill-rule="evenodd" clip-rule="evenodd" d="M89.2363 325.816C89.2363 322.393 92.012 319.608 95.4239 319.608C98.8359 319.608 101.612 322.393 101.612 325.816C101.302 334.038 89.5472 334.04 89.2363 325.816ZM95.9396 328.92V328.402C97.7097 328.413 98.0985 325.773 96.2928 325.437L94.7247 325.175C94.1647 325.066 94.3942 324.231 94.9083 324.264H96.0778C96.2613 324.264 96.4325 324.363 96.5248 324.523C96.6666 324.77 96.9817 324.855 97.2292 324.712C97.4751 324.569 97.5597 324.252 97.4169 324.005C97.141 323.527 96.6274 323.229 96.0772 323.229H95.939V322.712C95.9365 322.036 94.9109 322.035 94.9078 322.712V323.229C93.1376 323.219 92.7488 325.859 94.5546 326.195L96.1226 326.457C96.6831 326.566 96.4531 327.401 95.939 327.368H94.7696C94.586 327.368 94.4148 327.269 94.3225 327.109C94.1807 326.862 93.8652 326.776 93.6182 326.92C93.3722 327.063 93.2876 327.379 93.4305 327.627C93.7063 328.105 94.2199 328.402 94.7701 328.402H94.9083V328.92C94.9109 329.596 95.937 329.596 95.9396 328.92ZM88.3899 326.555H70.9731L70.9176 326.087C70.804 325.114 70.3406 324.217 69.6152 323.566C68.8898 322.915 67.9529 322.555 66.9821 322.554H66.6887C66.3382 322.554 66.0021 322.695 65.7543 322.945C65.5064 323.195 65.3672 323.534 65.3672 323.888C65.3672 324.242 65.5064 324.581 65.7543 324.831C66.0021 325.081 66.3382 325.222 66.6887 325.222H66.9821C67.3058 325.222 67.6182 325.342 67.8601 325.559C68.102 325.776 68.2565 326.075 68.2944 326.399L70.1128 342.003C70.3015 343.626 71.0741 345.123 72.2839 346.208C73.4937 347.294 75.0564 347.894 76.6754 347.894H90.4761C90.8266 347.894 91.1627 347.754 91.4105 347.504C91.6584 347.254 91.7976 346.914 91.7976 346.561C91.7976 346.207 91.6584 345.868 91.4105 345.618C91.1627 345.367 90.8266 345.227 90.4761 345.227H76.6754C75.8575 345.225 75.0603 344.967 74.3931 344.489C73.7259 344.012 73.2214 343.338 72.9487 342.56H88.7013C90.2505 342.56 91.7505 342.01 92.9392 341.008C94.1278 340.005 94.9296 338.613 95.2045 337.074L95.9597 332.847C95.7819 332.86 95.6023 332.867 95.4211 332.867C91.7723 332.867 88.7689 330.104 88.3899 326.555ZM77.1533 351.725C77.1533 353.189 75.9661 354.376 74.5015 354.376C73.0369 354.376 71.8496 353.189 71.8496 351.725C71.8496 350.26 73.0369 349.073 74.5015 349.073C75.9661 349.073 77.1533 350.26 77.1533 351.725ZM90.4134 351.725C90.4134 353.189 89.2261 354.376 87.7616 354.376C86.297 354.376 85.1097 353.189 85.1097 351.725C85.1097 350.26 86.297 349.073 87.7616 349.073C89.2261 349.073 90.4134 350.26 90.4134 351.725Z" fill="#6940F2"/>
</g>
<g filter="url(#filter2_d_1824_40397)">
<circle cx="534.128" cy="300.759" r="43.1279" fill="url(#paint12_radial_1824_40397)"/>
</g>
<g style="mix-blend-mode:plus-lighter">
<path fill-rule="evenodd" clip-rule="evenodd" d="M540.236 289.816C540.236 286.393 543.012 283.608 546.424 283.608C549.836 283.608 552.612 286.393 552.612 289.816C552.302 298.038 540.547 298.04 540.236 289.816ZM546.94 292.92V292.402C548.71 292.413 549.099 289.773 547.293 289.437L545.725 289.175C545.165 289.066 545.394 288.231 545.908 288.264H547.078C547.261 288.264 547.433 288.363 547.525 288.523C547.667 288.77 547.982 288.855 548.229 288.712C548.475 288.569 548.56 288.252 548.417 288.005C548.141 287.527 547.627 287.229 547.077 287.229H546.939V286.712C546.936 286.036 545.911 286.035 545.908 286.712V287.229C544.138 287.219 543.749 289.859 545.555 290.195L547.123 290.457C547.683 290.566 547.453 291.401 546.939 291.368H545.77C545.586 291.368 545.415 291.269 545.323 291.109C545.181 290.862 544.865 290.776 544.618 290.92C544.372 291.063 544.288 291.379 544.43 291.627C544.706 292.105 545.22 292.402 545.77 292.402H545.908V292.92C545.911 293.596 546.937 293.596 546.94 292.92ZM539.39 290.555H521.973L521.918 290.087C521.804 289.114 521.341 288.217 520.615 287.566C519.89 286.915 518.953 286.555 517.982 286.554H517.689C517.338 286.554 517.002 286.695 516.754 286.945C516.506 287.195 516.367 287.534 516.367 287.888C516.367 288.242 516.506 288.581 516.754 288.831C517.002 289.081 517.338 289.222 517.689 289.222H517.982C518.306 289.222 518.618 289.342 518.86 289.559C519.102 289.776 519.256 290.075 519.294 290.399L521.113 306.003C521.302 307.626 522.074 309.123 523.284 310.208C524.494 311.294 526.056 311.894 527.675 311.894H541.476C541.827 311.894 542.163 311.754 542.411 311.504C542.658 311.254 542.798 310.914 542.798 310.561C542.798 310.207 542.658 309.868 542.411 309.618C542.163 309.367 541.827 309.227 541.476 309.227H527.675C526.857 309.225 526.06 308.967 525.393 308.489C524.726 308.012 524.221 307.338 523.949 306.56H539.701C541.25 306.56 542.75 306.01 543.939 305.008C545.128 304.005 545.93 302.613 546.204 301.074L546.96 296.847C546.782 296.86 546.602 296.867 546.421 296.867C542.772 296.867 539.769 294.104 539.39 290.555ZM528.153 315.725C528.153 317.189 526.966 318.376 525.501 318.376C524.037 318.376 522.85 317.189 522.85 315.725C522.85 314.26 524.037 313.073 525.501 313.073C526.966 313.073 528.153 314.26 528.153 315.725ZM541.413 315.725C541.413 317.189 540.226 318.376 538.762 318.376C537.297 318.376 536.11 317.189 536.11 315.725C536.11 314.26 537.297 313.073 538.762 313.073C540.226 313.073 541.413 314.26 541.413 315.725Z" fill="#6940F2"/>
</g>
<g filter="url(#filter3_d_1824_40397)">
<circle cx="410.128" cy="102.759" r="43.1279" fill="url(#paint13_radial_1824_40397)"/>
</g>
<path d="M419.334 99.1306H403C400.427 99.1306 398.333 101.223 398.333 103.797V109.63C398.333 112.203 400.427 114.296 403 114.296H407.546L409.617 116.04C410.062 116.435 410.621 116.631 411.177 116.631C411.723 116.631 412.263 116.442 412.684 116.067L414.827 114.295H419.333C421.907 114.295 424 112.202 424 109.629V103.796C424 101.222 421.907 99.1294 419.333 99.1294L419.334 99.1306ZM406.293 106.569L404.913 107.693L405.483 109.431C405.561 109.667 405.483 109.926 405.286 110.076C405.089 110.227 404.819 110.237 404.612 110.103L403.005 109.057L401.425 110.114C401.327 110.179 401.214 110.212 401.101 110.212C400.977 110.212 400.855 110.173 400.751 110.095C400.553 109.947 400.47 109.689 400.544 109.454L401.093 107.694L399.705 106.566C399.519 106.408 399.451 106.15 399.535 105.921C399.619 105.691 399.838 105.539 400.082 105.539H401.832L402.452 103.8C402.537 103.572 402.755 103.421 402.999 103.421C403.243 103.421 403.461 103.573 403.546 103.8L404.166 105.539H405.916C406.161 105.539 406.38 105.691 406.464 105.922C406.548 106.153 406.481 106.411 406.293 106.569ZM414.46 106.569L413.08 107.693L413.65 109.431C413.728 109.667 413.65 109.926 413.453 110.076C413.256 110.227 412.986 110.237 412.779 110.103L411.172 109.057L409.592 110.114C409.494 110.179 409.381 110.212 409.268 110.212C409.144 110.212 409.022 110.173 408.918 110.095C408.72 109.947 408.637 109.689 408.711 109.454L409.26 107.694L407.872 106.566C407.686 106.408 407.618 106.15 407.702 105.921C407.786 105.691 408.005 105.539 408.249 105.539H409.999L410.619 103.8C410.704 103.572 410.922 103.421 411.166 103.421C411.41 103.421 411.628 103.573 411.713 103.8L412.333 105.539H414.083C414.328 105.539 414.547 105.691 414.631 105.922C414.715 106.153 414.648 106.411 414.46 106.569ZM422.627 106.569L421.247 107.693L421.817 109.431C421.895 109.667 421.817 109.926 421.62 110.076C421.423 110.227 421.153 110.237 420.946 110.103L419.339 109.057L417.759 110.114C417.661 110.179 417.548 110.212 417.435 110.212C417.311 110.212 417.189 110.173 417.085 110.095C416.887 109.947 416.804 109.689 416.878 109.454L417.427 107.694L416.04 106.566C415.853 106.408 415.785 106.15 415.869 105.921C415.953 105.691 416.173 105.539 416.416 105.539H418.166L418.786 103.8C418.871 103.572 419.089 103.421 419.333 103.421C419.577 103.421 419.795 103.573 419.88 103.8L420.5 105.539H422.25C422.495 105.539 422.714 105.691 422.798 105.922C422.882 106.153 422.813 106.411 422.626 106.569H422.627ZM401.834 96.7974C398.617 96.7974 396 99.4141 396 102.63V93.2977C396 90.7208 398.09 88.6315 400.667 88.6315H414.667C417.245 88.6315 419.334 90.7208 419.334 93.2977V96.7974H401.834ZM412.334 94.4643H414.667C415.311 94.4643 415.834 93.9417 415.834 93.2977C415.834 92.6538 415.311 92.1312 414.667 92.1312H412.334C411.69 92.1312 411.167 92.6538 411.167 93.2977C411.167 93.9417 411.69 94.4643 412.334 94.4643ZM400.667 94.4643H407.667C408.311 94.4643 408.834 93.9417 408.834 93.2977C408.834 92.6538 408.311 92.1312 407.667 92.1312H400.667C400.023 92.1312 399.5 92.6538 399.5 93.2977C399.5 93.9417 400.023 94.4643 400.667 94.4643Z" fill="#094DFC"/>
<g filter="url(#filter4_d_1824_40397)">
<circle cx="188.128" cy="110.759" r="43.1279" fill="url(#paint14_radial_1824_40397)"/>
</g>
<path d="M206 121.131C206 121.961 205.328 122.631 204.5 122.631H200V127.131C200 127.961 199.328 128.631 198.5 128.631C197.672 128.631 197 127.961 197 127.131V122.631H192.5C191.672 122.631 191 121.961 191 121.131C191 120.302 191.672 119.631 192.5 119.631H197V115.131C197 114.302 197.672 113.631 198.5 113.631C199.328 113.631 200 114.302 200 115.131V119.631H204.5C205.328 119.631 206 120.302 206 121.131ZM178.25 103.131C181.145 103.131 183.5 100.776 183.5 97.8815C183.5 94.9865 181.145 92.6315 178.25 92.6315C175.355 92.6315 173 94.9865 173 97.8815C173 100.776 175.355 103.131 178.25 103.131ZM193.25 103.131C196.145 103.131 198.5 100.776 198.5 97.8815C198.5 94.9865 196.145 92.6315 193.25 92.6315C190.355 92.6315 188 94.9865 188 97.8815C188 100.776 190.355 103.131 193.25 103.131ZM180.5 109.881C180.5 112.776 182.855 115.131 185.75 115.131C188.645 115.131 191 112.776 191 109.881C191 106.986 188.645 104.631 185.75 104.631C182.855 104.631 180.5 106.986 180.5 109.881ZM177.5 109.881C177.5 107.942 178.177 106.16 179.302 104.75C178.957 104.712 178.607 104.684 178.25 104.684C173.654 104.684 169.976 107.772 170 112.173C170.005 112.985 170.698 113.631 171.509 113.631H178.412C177.835 112.505 177.5 111.233 177.5 109.881ZM188 121.131C188 119.685 188.698 118.41 189.761 117.587C188.567 117.008 187.198 116.684 185.75 116.684C181.154 116.684 177.476 119.772 177.5 124.173C177.505 124.985 178.198 125.631 179.009 125.631H192.491C192.491 125.631 192.493 125.631 192.494 125.631C190.015 125.628 188 123.611 188 121.131ZM192.199 104.75C193.324 106.16 194 107.942 194 109.881C194 111.233 193.667 112.505 193.09 113.631H194.278C194.899 111.89 196.549 110.631 198.502 110.631C199.649 110.631 200.687 111.077 201.482 111.786C201.287 107.595 197.617 104.685 193.252 104.685C192.893 104.685 192.545 104.714 192.2 104.75H192.199Z" fill="#216F58"/>
<g filter="url(#filter5_d_1824_40397)">
<circle cx="282.128" cy="546.128" r="43.1279" fill="url(#paint15_radial_1824_40397)"/>
</g>
<path d="M291.334 542.499H275C272.427 542.499 270.333 544.592 270.333 547.165V552.998C270.333 555.572 272.427 557.665 275 557.665H279.546L281.617 559.409C282.062 559.804 282.621 560 283.177 560C283.723 560 284.263 559.811 284.684 559.435L286.827 557.663H291.333C293.907 557.663 296 555.571 296 552.997V547.164C296 544.591 293.907 542.498 291.333 542.498L291.334 542.499ZM278.293 549.937L276.913 551.062L277.483 552.8C277.561 553.036 277.483 553.295 277.286 553.445C277.089 553.596 276.819 553.606 276.612 553.472L275.005 552.425L273.425 553.482C273.327 553.548 273.214 553.58 273.101 553.58C272.977 553.58 272.855 553.542 272.751 553.464C272.553 553.316 272.47 553.058 272.544 552.822L273.093 551.063L271.705 549.935C271.519 549.776 271.451 549.518 271.535 549.29C271.619 549.06 271.838 548.907 272.082 548.907H273.832L274.452 547.169C274.537 546.94 274.755 546.79 274.999 546.79C275.243 546.79 275.461 546.941 275.546 547.169L276.166 548.907H277.916C278.161 548.907 278.38 549.06 278.464 549.291C278.548 549.522 278.481 549.78 278.293 549.937ZM286.46 549.937L285.08 551.062L285.65 552.8C285.728 553.036 285.65 553.295 285.453 553.445C285.256 553.596 284.986 553.606 284.779 553.472L283.172 552.425L281.592 553.482C281.494 553.548 281.381 553.58 281.268 553.58C281.144 553.58 281.022 553.542 280.918 553.464C280.72 553.316 280.637 553.058 280.711 552.822L281.26 551.063L279.872 549.935C279.686 549.776 279.618 549.518 279.702 549.29C279.786 549.06 280.005 548.907 280.249 548.907H281.999L282.619 547.169C282.704 546.94 282.922 546.79 283.166 546.79C283.41 546.79 283.628 546.941 283.713 547.169L284.333 548.907H286.083C286.328 548.907 286.547 549.06 286.631 549.291C286.715 549.522 286.648 549.78 286.46 549.937ZM294.627 549.937L293.247 551.062L293.817 552.8C293.895 553.036 293.817 553.295 293.62 553.445C293.423 553.596 293.153 553.606 292.946 553.472L291.339 552.425L289.759 553.482C289.661 553.548 289.548 553.58 289.435 553.58C289.311 553.58 289.189 553.542 289.085 553.464C288.887 553.316 288.804 553.058 288.878 552.822L289.427 551.063L288.04 549.935C287.853 549.776 287.785 549.518 287.869 549.29C287.953 549.06 288.173 548.907 288.416 548.907H290.166L290.786 547.169C290.871 546.94 291.089 546.79 291.333 546.79C291.577 546.79 291.795 546.941 291.88 547.169L292.5 548.907H294.25C294.495 548.907 294.714 549.06 294.798 549.291C294.882 549.522 294.813 549.78 294.626 549.937H294.627ZM273.834 540.166C270.617 540.166 268 542.783 268 545.999V536.666C268 534.089 270.09 532 272.667 532H286.667C289.245 532 291.334 534.089 291.334 536.666V540.166H273.834ZM284.334 537.833H286.667C287.311 537.833 287.834 537.31 287.834 536.666C287.834 536.022 287.311 535.5 286.667 535.5H284.334C283.69 535.5 283.167 536.022 283.167 536.666C283.167 537.31 283.69 537.833 284.334 537.833ZM272.667 537.833H279.667C280.311 537.833 280.834 537.31 280.834 536.666C280.834 536.022 280.311 535.5 279.667 535.5H272.667C272.023 535.5 271.5 536.022 271.5 536.666C271.5 537.31 272.023 537.833 272.667 537.833Z" fill="#094DFC"/>
<g filter="url(#filter6_d_1824_40397)">
<circle cx="467.128" cy="490.128" r="43.1279" fill="url(#paint16_radial_1824_40397)"/>
</g>
<path d="M485 500.5C485 501.329 484.328 502 483.5 502H479V506.5C479 507.329 478.328 508 477.5 508C476.672 508 476 507.329 476 506.5V502H471.5C470.672 502 470 501.329 470 500.5C470 499.67 470.672 499 471.5 499H476V494.5C476 493.67 476.672 493 477.5 493C478.328 493 479 493.67 479 494.5V499H483.5C484.328 499 485 499.67 485 500.5ZM457.25 482.5C460.145 482.5 462.5 480.145 462.5 477.25C462.5 474.355 460.145 472 457.25 472C454.355 472 452 474.355 452 477.25C452 480.145 454.355 482.5 457.25 482.5ZM472.25 482.5C475.145 482.5 477.5 480.145 477.5 477.25C477.5 474.355 475.145 472 472.25 472C469.355 472 467 474.355 467 477.25C467 480.145 469.355 482.5 472.25 482.5ZM459.5 489.25C459.5 492.145 461.855 494.5 464.75 494.5C467.645 494.5 470 492.145 470 489.25C470 486.355 467.645 484 464.75 484C461.855 484 459.5 486.355 459.5 489.25ZM456.5 489.25C456.5 487.31 457.177 485.528 458.302 484.118C457.957 484.081 457.607 484.052 457.25 484.052C452.654 484.052 448.976 487.141 449 491.542C449.005 492.353 449.698 493 450.509 493H457.412C456.835 491.873 456.5 490.601 456.5 489.25ZM467 500.5C467 499.054 467.698 497.779 468.761 496.955C467.567 496.376 466.198 496.052 464.75 496.052C460.154 496.052 456.476 499.141 456.5 503.542C456.505 504.353 457.198 505 458.009 505H471.491C471.491 505 471.493 505 471.494 505C469.015 504.997 467 502.979 467 500.5ZM471.199 484.118C472.324 485.528 473 487.31 473 489.25C473 490.601 472.667 491.873 472.09 493H473.278C473.899 491.258 475.549 490 477.502 490C478.649 490 479.687 490.445 480.482 491.155C480.287 486.964 476.617 484.054 472.252 484.054C471.893 484.054 471.545 484.082 471.2 484.118H471.199Z" fill="#216F58"/>
<g filter="url(#filter7_d_1824_40397)">
<path d="M306.5 197.932C289.095 197.92 271.922 201.928 256.32 209.642C243.861 215.802 232.672 224.192 223.293 234.368C219.22 238.788 219.72 245.577 223.97 249.826L229.415 255.271C236.974 262.831 231.62 275.756 220.929 275.756H177C170.373 275.756 165 270.384 165 263.756V219.827C165 209.136 177.926 203.782 185.485 211.342L186.951 212.808C191.997 217.853 200.279 217.371 205.261 212.262C216.839 200.387 230.445 190.619 245.472 183.437C264.526 174.33 285.381 169.612 306.5 169.632C380.61 169.632 441.41 226.6 447.499 299.136C448.053 305.74 442.627 311.131 436 311.131H431.7C425.073 311.131 419.766 305.743 419.065 299.153C416.339 273.534 404.931 249.474 386.544 231.087C365.315 209.858 336.523 197.932 306.5 197.932ZM181.3 311.131C187.927 311.131 193.234 316.519 193.935 323.11C196 342.522 203.061 361.144 214.519 377.117C228.318 396.353 247.799 410.778 270.224 418.364C292.648 425.95 316.887 426.316 339.529 419.408C358.813 413.526 376.112 402.621 389.698 387.896C393.775 383.477 393.277 376.684 389.026 372.432L383.585 366.992C376.026 359.432 381.38 346.506 392.071 346.506H436C442.627 346.506 448 351.879 448 358.506V402.436C448 413.127 435.074 418.481 427.515 410.921L426.049 409.455C421.003 404.41 412.721 404.892 407.739 410.001C396.161 421.876 382.555 431.644 367.528 438.826C348.474 447.933 327.619 452.651 306.5 452.631C232.39 452.631 171.59 395.663 165.501 323.127C164.947 316.523 170.373 311.131 177 311.131H181.3Z" fill="url(#paint17_radial_1824_40397)"/>
</g>
<defs>
<filter id="filter0_d_1824_40397" x="199" y="203.631" width="223.289" height="223.289" filterUnits="userSpaceOnUse" color-interpolation-filters="sRGB">
<feFlood flood-opacity="0" result="BackgroundImageFix"/>
<feColorMatrix in="SourceAlpha" type="matrix" values="0 0 0 0 0 0 0 0 0 0 0 0 0 0 0 0 0 0 127 0" result="hardAlpha"/>
<feOffset dx="4" dy="4"/>
<feGaussianBlur stdDeviation="22"/>
<feComposite in2="hardAlpha" operator="out"/>
<feColorMatrix type="matrix" values="0 0 0 0 0.411765 0 0 0 0 0.25098 0 0 0 0 0.94902 0 0 0 0.49 0"/>
<feBlend mode="normal" in2="BackgroundImageFix" result="effect1_dropShadow_1824_40397"/>
<feBlend mode="normal" in="SourceGraphic" in2="effect1_dropShadow_1824_40397" result="shape"/>
</filter>
<filter id="filter1_d_1824_40397" x="0" y="253.631" width="174.256" height="174.256" filterUnits="userSpaceOnUse" color-interpolation-filters="sRGB">
<feFlood flood-opacity="0" result="BackgroundImageFix"/>
<feColorMatrix in="SourceAlpha" type="matrix" values="0 0 0 0 0 0 0 0 0 0 0 0 0 0 0 0 0 0 127 0" result="hardAlpha"/>
<feOffset dx="4" dy="4"/>
<feGaussianBlur stdDeviation="22"/>
<feComposite in2="hardAlpha" operator="out"/>
<feColorMatrix type="matrix" values="0 0 0 0 0.411765 0 0 0 0 0.25098 0 0 0 0 0.94902 0 0 0 0.49 0"/>
<feBlend mode="normal" in2="BackgroundImageFix" result="effect1_dropShadow_1824_40397"/>
<feBlend mode="normal" in="SourceGraphic" in2="effect1_dropShadow_1824_40397" result="shape"/>
</filter>
<filter id="filter2_d_1824_40397" x="451" y="217.631" width="174.256" height="174.256" filterUnits="userSpaceOnUse" color-interpolation-filters="sRGB">
<feFlood flood-opacity="0" result="BackgroundImageFix"/>
<feColorMatrix in="SourceAlpha" type="matrix" values="0 0 0 0 0 0 0 0 0 0 0 0 0 0 0 0 0 0 127 0" result="hardAlpha"/>
<feOffset dx="4" dy="4"/>
<feGaussianBlur stdDeviation="22"/>
<feComposite in2="hardAlpha" operator="out"/>
<feColorMatrix type="matrix" values="0 0 0 0 0.411765 0 0 0 0 0.25098 0 0 0 0 0.94902 0 0 0 0.49 0"/>
<feBlend mode="normal" in2="BackgroundImageFix" result="effect1_dropShadow_1824_40397"/>
<feBlend mode="normal" in="SourceGraphic" in2="effect1_dropShadow_1824_40397" result="shape"/>
</filter>
<filter id="filter3_d_1824_40397" x="327" y="19.6315" width="174.256" height="174.256" filterUnits="userSpaceOnUse" color-interpolation-filters="sRGB">
<feFlood flood-opacity="0" result="BackgroundImageFix"/>
<feColorMatrix in="SourceAlpha" type="matrix" values="0 0 0 0 0 0 0 0 0 0 0 0 0 0 0 0 0 0 127 0" result="hardAlpha"/>
<feOffset dx="4" dy="4"/>
<feGaussianBlur stdDeviation="22"/>
<feComposite in2="hardAlpha" operator="out"/>
<feColorMatrix type="matrix" values="0 0 0 0 0.0585938 0 0 0 0 0.304688 0 0 0 0 0.9375 0 0 0 0.55 0"/>
<feBlend mode="normal" in2="BackgroundImageFix" result="effect1_dropShadow_1824_40397"/>
<feBlend mode="normal" in="SourceGraphic" in2="effect1_dropShadow_1824_40397" result="shape"/>
</filter>
<filter id="filter4_d_1824_40397" x="105" y="27.6315" width="174.256" height="174.256" filterUnits="userSpaceOnUse" color-interpolation-filters="sRGB">
<feFlood flood-opacity="0" result="BackgroundImageFix"/>
<feColorMatrix in="SourceAlpha" type="matrix" values="0 0 0 0 0 0 0 0 0 0 0 0 0 0 0 0 0 0 127 0" result="hardAlpha"/>
<feOffset dx="4" dy="4"/>
<feGaussianBlur stdDeviation="22"/>
<feComposite in2="hardAlpha" operator="out"/>
<feColorMatrix type="matrix" values="0 0 0 0 0.0352941 0 0 0 0 0.8 0 0 0 0 0.580392 0 0 0 0.33 0"/>
<feBlend mode="normal" in2="BackgroundImageFix" result="effect1_dropShadow_1824_40397"/>
<feBlend mode="normal" in="SourceGraphic" in2="effect1_dropShadow_1824_40397" result="shape"/>
</filter>
<filter id="filter5_d_1824_40397" x="199" y="463" width="174.256" height="174.256" filterUnits="userSpaceOnUse" color-interpolation-filters="sRGB">
<feFlood flood-opacity="0" result="BackgroundImageFix"/>
<feColorMatrix in="SourceAlpha" type="matrix" values="0 0 0 0 0 0 0 0 0 0 0 0 0 0 0 0 0 0 127 0" result="hardAlpha"/>
<feOffset dx="4" dy="4"/>
<feGaussianBlur stdDeviation="22"/>
<feComposite in2="hardAlpha" operator="out"/>
<feColorMatrix type="matrix" values="0 0 0 0 0.0585938 0 0 0 0 0.304688 0 0 0 0 0.9375 0 0 0 0.55 0"/>
<feBlend mode="normal" in2="BackgroundImageFix" result="effect1_dropShadow_1824_40397"/>
<feBlend mode="normal" in="SourceGraphic" in2="effect1_dropShadow_1824_40397" result="shape"/>
</filter>
<filter id="filter6_d_1824_40397" x="384" y="407" width="174.256" height="174.256" filterUnits="userSpaceOnUse" color-interpolation-filters="sRGB">
<feFlood flood-opacity="0" result="BackgroundImageFix"/>
<feColorMatrix in="SourceAlpha" type="matrix" values="0 0 0 0 0 0 0 0 0 0 0 0 0 0 0 0 0 0 127 0" result="hardAlpha"/>
<feOffset dx="4" dy="4"/>
<feGaussianBlur stdDeviation="22"/>
<feComposite in2="hardAlpha" operator="out"/>
<feColorMatrix type="matrix" values="0 0 0 0 0.0352941 0 0 0 0 0.8 0 0 0 0 0.580392 0 0 0 0.22 0"/>
<feBlend mode="normal" in2="BackgroundImageFix" result="effect1_dropShadow_1824_40397"/>
<feBlend mode="normal" in="SourceGraphic" in2="effect1_dropShadow_1824_40397" result="shape"/>
</filter>
<filter id="filter7_d_1824_40397" x="125" y="129.631" width="371" height="371" filterUnits="userSpaceOnUse" color-interpolation-filters="sRGB">
<feFlood flood-opacity="0" result="BackgroundImageFix"/>
<feColorMatrix in="SourceAlpha" type="matrix" values="0 0 0 0 0 0 0 0 0 0 0 0 0 0 0 0 0 0 127 0" result="hardAlpha"/>
<feOffset dx="4" dy="4"/>
<feGaussianBlur stdDeviation="22"/>
<feComposite in2="hardAlpha" operator="out"/>
<feColorMatrix type="matrix" values="0 0 0 0 0.411765 0 0 0 0 0.25098 0 0 0 0 0.94902 0 0 0 0.49 0"/>
<feBlend mode="normal" in2="BackgroundImageFix" result="effect1_dropShadow_1824_40397"/>
<feBlend mode="normal" in="SourceGraphic" in2="effect1_dropShadow_1824_40397" result="shape"/>
</filter>
<linearGradient id="paint0_linear_1824_40397" x1="513.5" y1="166" x2="513.5" y2="224" gradientUnits="userSpaceOnUse">
<stop stop-color="#2D3154"/>
<stop offset="1" stop-color="#646DBA" stop-opacity="0"/>
</linearGradient>
<radialGradient id="paint1_diamond_1824_40397" cx="0" cy="0" r="1" gradientUnits="userSpaceOnUse" gradientTransform="translate(502 210) rotate(90) scale(4.85526)">
<stop offset="0.268293" stop-color="#FCAF0F"/>
<stop offset="1" stop-color="#FFC752"/>
</radialGradient>
<radialGradient id="paint2_diamond_1824_40397" cx="0" cy="0" r="1" gradientUnits="userSpaceOnUse" gradientTransform="translate(520 210) rotate(90) scale(4.85526)">
<stop offset="0.268293" stop-color="#FCAF0F"/>
<stop offset="1" stop-color="#FFC752"/>
</radialGradient>
<radialGradient id="paint3_diamond_1824_40397" cx="0" cy="0" r="1" gradientUnits="userSpaceOnUse" gradientTransform="translate(538 210) rotate(90) scale(4.85526)">
<stop offset="0.268293" stop-color="#FCAF0F"/>
<stop offset="1" stop-color="#FFC752"/>
</radialGradient>
<radialGradient id="paint4_diamond_1824_40397" cx="0" cy="0" r="1" gradientUnits="userSpaceOnUse" gradientTransform="translate(556 210) rotate(90) scale(4.85526)">
<stop offset="0.268293" stop-color="#FCAF0F"/>
<stop offset="1" stop-color="#FFC752"/>
</radialGradient>
<linearGradient id="paint5_linear_1824_40397" x1="139.5" y1="456" x2="139.5" y2="514" gradientUnits="userSpaceOnUse">
<stop stop-color="#2D3154"/>
<stop offset="1" stop-color="#646DBA" stop-opacity="0"/>
</linearGradient>
<radialGradient id="paint6_diamond_1824_40397" cx="0" cy="0" r="1" gradientUnits="userSpaceOnUse" gradientTransform="translate(128 500) rotate(90) scale(4.85526)">
<stop offset="0.268293" stop-color="#FCAF0F"/>
<stop offset="1" stop-color="#FFC752"/>
</radialGradient>
<radialGradient id="paint7_diamond_1824_40397" cx="0" cy="0" r="1" gradientUnits="userSpaceOnUse" gradientTransform="translate(146 500) rotate(90) scale(4.85526)">
<stop offset="0.268293" stop-color="#FCAF0F"/>
<stop offset="1" stop-color="#FFC752"/>
</radialGradient>
<radialGradient id="paint8_diamond_1824_40397" cx="0" cy="0" r="1" gradientUnits="userSpaceOnUse" gradientTransform="translate(164 500) rotate(90) scale(4.85526)">
<stop offset="0.268293" stop-color="#FCAF0F"/>
<stop offset="1" stop-color="#FFC752"/>
</radialGradient>
<radialGradient id="paint9_diamond_1824_40397" cx="0" cy="0" r="1" gradientUnits="userSpaceOnUse" gradientTransform="translate(182 500) rotate(90) scale(4.85526)">
<stop offset="0.268293" stop-color="#FCAF0F"/>
<stop offset="1" stop-color="#FFC752"/>
</radialGradient>
<radialGradient id="paint10_radial_1824_40397" cx="0" cy="0" r="1" gradientUnits="userSpaceOnUse" gradientTransform="translate(331.376 254.762) rotate(111.414) scale(138.484 110.743)">
<stop offset="0.209049" stop-color="#F9FDFF"/>
<stop offset="0.839525" stop-color="#5B4BB9"/>
</radialGradient>
<radialGradient id="paint11_radial_1824_40397" cx="0" cy="0" r="1" gradientUnits="userSpaceOnUse" gradientTransform="translate(98.8959 300.728) rotate(111.414) scale(88.2927 70.6061)">
<stop offset="0.209049" stop-color="#F9FDFF"/>
<stop offset="0.839525" stop-color="#762EB6"/>
</radialGradient>
<radialGradient id="paint12_radial_1824_40397" cx="0" cy="0" r="1" gradientUnits="userSpaceOnUse" gradientTransform="translate(549.896 264.728) rotate(111.414) scale(88.2927 70.6061)">
<stop offset="0.209049" stop-color="#F9FDFF"/>
<stop offset="0.839525" stop-color="#762EB6"/>
</radialGradient>
<radialGradient id="paint13_radial_1824_40397" cx="0" cy="0" r="1" gradientUnits="userSpaceOnUse" gradientTransform="translate(425.896 66.7281) rotate(111.414) scale(88.2927 70.6061)">
<stop offset="0.209049" stop-color="#F9FDFF"/>
<stop offset="0.839525" stop-color="#0F4EEF"/>
</radialGradient>
<radialGradient id="paint14_radial_1824_40397" cx="0" cy="0" r="1" gradientUnits="userSpaceOnUse" gradientTransform="translate(203.896 74.7281) rotate(111.414) scale(88.2927 70.6061)">
<stop offset="0.209049" stop-color="#F9FDFF"/>
<stop offset="0.839525" stop-color="#278B6F"/>
</radialGradient>
<radialGradient id="paint15_radial_1824_40397" cx="0" cy="0" r="1" gradientUnits="userSpaceOnUse" gradientTransform="translate(297.896 510.097) rotate(111.414) scale(88.2927 70.6061)">
<stop offset="0.209049" stop-color="#F9FDFF"/>
<stop offset="0.839525" stop-color="#0F4EEF"/>
</radialGradient>
<radialGradient id="paint16_radial_1824_40397" cx="0" cy="0" r="1" gradientUnits="userSpaceOnUse" gradientTransform="translate(482.896 454.097) rotate(111.414) scale(88.2927 70.6061)">
<stop offset="0.209049" stop-color="#F9FDFF"/>
<stop offset="0.839525" stop-color="#278B6F"/>
</radialGradient>
<radialGradient id="paint17_radial_1824_40397" cx="0" cy="0" r="1" gradientUnits="userSpaceOnUse" gradientTransform="translate(358.234 192.915) rotate(111.414) scale(289.683 231.654)">
<stop offset="0.209049" stop-color="#F9FDFF"/>
<stop offset="0.839525" stop-color="#5B4BB9"/>
</radialGradient>
</defs>
</svg>
