<svg width="61" height="61" viewBox="0 0 61 61" fill="none" xmlns="http://www.w3.org/2000/svg">
<path d="M41.428 34.1404C40.751 33.6124 39.886 33.4294 39.053 33.6374C36.994 34.1534 33.146 35.0174 30.498 35.0174C27.85 35.0174 24.002 34.1524 21.944 33.6374C21.111 33.4304 20.245 33.6134 19.568 34.1404C18.888 34.6714 18.498 35.4704 18.498 36.3344V39.7004C18.498 40.5644 18.888 41.3634 19.568 41.8944C20.245 42.4224 21.11 42.6054 21.943 42.3974C24.002 41.8814 27.85 41.0174 30.498 41.0174C33.146 41.0174 36.994 41.8824 39.052 42.3974C39.278 42.4534 39.505 42.4814 39.731 42.4814C40.34 42.4814 40.934 42.2794 41.428 41.8944C42.108 41.3634 42.498 40.5644 42.498 39.7004V36.3344C42.498 35.4704 42.108 34.6714 41.428 34.1404ZM29.498 39.0504C26.921 39.2024 23.772 39.8784 21.457 40.4574C21.141 40.5364 20.908 40.4034 20.798 40.3174C20.607 40.1684 20.498 39.9434 20.498 39.7004V36.3344C20.498 36.0914 20.607 35.8664 20.798 35.7174C20.908 35.6304 21.139 35.4974 21.458 35.5774C23.773 36.1564 26.921 36.8324 29.498 36.9844V39.0504ZM40.498 39.7004C40.498 39.9434 40.389 40.1684 40.198 40.3174C40.087 40.4034 39.854 40.5364 39.538 40.4574C37.223 39.8784 34.075 39.2024 31.498 39.0504V36.9844C34.075 36.8324 37.224 36.1564 39.539 35.5774C39.854 35.4964 40.087 35.6304 40.198 35.7174C40.389 35.8664 40.498 36.0914 40.498 36.3344V39.7004ZM41.021 21.8764L33.119 18.9764C31.462 18.3694 29.639 18.3654 27.983 18.9694L19.984 21.8794C19.082 22.2084 18.499 23.0534 18.5 24.0314C18.5 25.0104 19.084 25.8544 19.986 26.1814L23.498 27.4554V31.5164C23.498 32.0684 23.946 32.5164 24.498 32.5164C25.05 32.5164 25.498 32.0684 25.498 31.5164V28.1804L27.94 29.0664C28.763 29.3654 29.628 29.5144 30.492 29.5144C31.356 29.5144 32.22 29.3654 33.042 29.0664L35.498 28.1754V31.5154C35.498 32.0674 35.946 32.5154 36.498 32.5154C37.05 32.5154 37.498 32.0674 37.498 31.5154V27.4494L40.498 26.3614V30.5154C40.498 31.0674 40.946 31.5154 41.498 31.5154C42.05 31.5154 42.498 31.0674 42.498 30.5154V24.0404C42.498 24.0404 42.5 24.0324 42.5 24.0274C42.501 23.0494 41.921 22.2044 41.021 21.8744V21.8764ZM40.331 24.2964L32.36 27.1884C31.153 27.6244 29.826 27.6254 28.621 27.1884L20.667 24.3024C20.521 24.2494 20.499 24.1094 20.499 24.0314C20.499 23.9534 20.52 23.8134 20.666 23.7604L28.666 20.8494C29.27 20.6294 29.904 20.5194 30.539 20.5194C31.179 20.5194 31.819 20.6314 32.428 20.8544L40.331 23.7544C40.472 23.8064 40.495 23.9374 40.497 24.0174C40.495 24.0974 40.473 24.2454 40.331 24.2964Z" fill="#908EB5"/>
</svg>
