<svg width="392" height="548" viewBox="0 0 392 548" fill="none" xmlns="http://www.w3.org/2000/svg">
<g filter="url(#filter0_d_4779_116802)">
<path d="M249.222 126.662C260.201 130.423 270.191 136.606 278.451 144.753L304.211 170.521C312.375 178.763 318.569 188.74 322.333 199.708H249.222V126.662ZM218.111 308.5H155.889C151.763 308.5 147.807 310.137 144.889 313.052C141.972 315.967 140.333 319.92 140.333 324.042C140.333 328.164 141.972 332.117 144.889 335.031C147.807 337.946 151.763 339.583 155.889 339.583H218.111C222.237 339.583 226.193 337.946 229.111 335.031C232.028 332.117 233.667 328.164 233.667 324.042C233.667 319.92 232.028 315.967 229.111 313.052C226.193 310.137 222.237 308.5 218.111 308.5ZM249.222 230.792C240.971 230.792 233.058 227.517 227.223 221.688C221.389 215.858 218.111 207.952 218.111 199.708V122H124.778C104.157 122.025 84.3887 130.22 69.8079 144.788C55.2271 159.355 47.0247 179.106 47 199.708V417.292C47.0247 437.894 55.2271 457.645 69.8079 472.212C84.3887 486.78 104.157 494.975 124.778 495H249.222C269.843 494.975 289.611 486.78 304.192 472.212C318.773 457.645 326.975 437.894 327 417.292V230.792H249.222ZM249.222 432.833H124.778C120.652 432.833 116.696 431.196 113.778 428.281C110.861 425.367 109.222 421.414 109.222 417.292C109.222 413.17 110.861 409.217 113.778 406.302C116.696 403.387 120.652 401.75 124.778 401.75H249.222C253.348 401.75 257.304 403.387 260.222 406.302C263.139 409.217 264.778 413.17 264.778 417.292C264.778 421.414 263.139 425.367 260.222 428.281C257.304 431.196 253.348 432.833 249.222 432.833ZM218.111 370.667H155.889C143.512 370.667 131.642 365.754 122.891 357.011C114.139 348.267 109.222 336.407 109.222 324.042C109.222 311.676 114.139 299.817 122.891 291.073C131.642 282.329 143.512 277.417 155.889 277.417H218.111C230.488 277.417 242.358 282.329 251.109 291.073C259.861 299.817 264.778 311.676 264.778 324.042C264.778 336.407 259.861 348.267 251.109 357.011C242.358 365.754 230.488 370.667 218.111 370.667Z" fill="url(#paint0_radial_4779_116802)"/>
</g>
<g filter="url(#filter1_d_4779_116802)">
<circle cx="91" cy="104" r="45.8337" transform="rotate(-61.9586 91 104)" fill="url(#paint1_radial_4779_116802)"/>
</g>
<path style="mix-blend-mode:color-dodge" fill-rule="evenodd" clip-rule="evenodd" d="M91.5919 86.2974C82.4606 86.2974 75.0586 93.6993 75.0586 102.831C75.0586 105.955 75.9266 108.882 77.4361 111.375L75.9613 116.388C75.8766 116.676 75.8711 116.981 75.9452 117.272C76.0193 117.563 76.1704 117.828 76.3825 118.04C76.5947 118.252 76.86 118.403 77.1507 118.477C77.4415 118.552 77.7468 118.546 78.0346 118.461L83.0475 116.987C85.6246 118.546 88.58 119.368 91.5919 119.364C100.723 119.364 108.125 111.962 108.125 102.831C108.125 93.6993 100.723 86.2974 91.5919 86.2974ZM87.8521 106.572C91.1968 109.915 94.3894 110.357 95.5169 110.398C97.2314 110.461 98.9013 109.151 99.5511 107.632C99.6324 107.443 99.6618 107.235 99.6362 107.031C99.6107 106.827 99.531 106.633 99.4056 106.47C98.4996 105.312 97.2744 104.481 96.0774 103.654C95.8276 103.481 95.5204 103.411 95.2204 103.46C94.9203 103.509 94.6509 103.672 94.4687 103.915L93.4767 105.428C93.4243 105.509 93.343 105.567 93.2494 105.59C93.1558 105.614 93.0568 105.601 92.9725 105.554C92.2996 105.169 91.3191 104.514 90.6148 103.809C89.9105 103.105 89.2954 102.169 88.9499 101.539C88.9081 101.459 88.8963 101.367 88.9166 101.278C88.9369 101.19 88.988 101.112 89.0607 101.058L90.5884 99.9241C90.807 99.735 90.9482 99.4718 90.9848 99.185C91.0214 98.8982 90.9509 98.608 90.7868 98.37C90.0461 97.2854 89.183 95.9065 87.9314 94.9922C87.7696 94.8759 87.5804 94.8034 87.3823 94.7817C87.1842 94.76 86.9838 94.7898 86.8006 94.8682C85.2795 95.5197 83.9634 97.1895 84.0263 98.9073C84.0676 100.035 84.509 103.227 87.8521 106.572Z" fill="#5CFBCD"/>
<g filter="url(#filter2_d_4779_116802)">
<circle cx="74" cy="465.219" r="34" fill="url(#paint2_radial_4779_116802)"/>
</g>
<g style="mix-blend-mode:plus-lighter">
<path d="M81.3478 453.961H66.8756C64.0215 453.961 61.707 456.275 61.707 459.13V467.399C61.707 470.253 64.0215 472.568 66.8756 472.568H73.078V474.635H68.9431C68.3714 474.635 67.9094 475.099 67.9094 475.669C67.9094 476.24 68.3714 476.703 68.9431 476.703H79.2803C79.852 476.703 80.314 476.24 80.314 475.669C80.314 475.099 79.852 474.635 79.2803 474.635H75.1454V472.568H81.3478C84.2019 472.568 86.5164 470.253 86.5164 467.399V459.13C86.5164 456.275 84.2019 453.961 81.3478 453.961ZM68.7384 468.804C66.765 468.34 65.2196 466.677 64.8837 464.678C64.3988 461.792 66.3071 459.252 68.9431 458.716V463.352C68.9431 463.9 69.1612 464.426 69.5489 464.814L72.8247 468.09C71.6949 468.838 70.258 469.161 68.7384 468.804ZM74.2864 466.628L71.3145 463.656C71.1201 463.462 71.0116 463.199 71.0116 462.925V458.717C73.3705 459.196 75.1465 461.281 75.1465 463.781C75.1465 464.835 74.8281 465.812 74.2864 466.628ZM82.3825 468.433H79.2814C78.7107 468.433 78.2476 467.97 78.2476 467.399C78.2476 466.829 78.7107 466.366 79.2814 466.366H82.3825C82.9531 466.366 83.4163 466.829 83.4163 467.399C83.4163 467.97 82.9531 468.433 82.3825 468.433ZM82.3825 464.298H79.2814C78.7107 464.298 78.2476 463.835 78.2476 463.264C78.2476 462.694 78.7107 462.231 79.2814 462.231H82.3825C82.9531 462.231 83.4163 462.694 83.4163 463.264C83.4163 463.835 82.9531 464.298 82.3825 464.298ZM82.3825 460.163H79.2814C78.7107 460.163 78.2476 459.7 78.2476 459.13C78.2476 458.559 78.7107 458.096 79.2814 458.096H82.3825C82.9531 458.096 83.4163 458.559 83.4163 459.13C83.4163 459.7 82.9531 460.163 82.3825 460.163Z" fill="#6940F2"/>
</g>
<g filter="url(#filter3_i_4779_116802)">
<rect x="127.902" y="12.0615" width="214" height="45" rx="22.5" transform="rotate(-3.22825 127.902 12.0615)" fill="url(#paint3_linear_4779_116802)"/>
<rect x="127.902" y="12.0615" width="214" height="45" rx="22.5" transform="rotate(-3.22825 127.902 12.0615)" fill="url(#paint4_linear_4779_116802)" fill-opacity="0.2"/>
<rect x="128.43" y="12.5326" width="213" height="44" rx="22" transform="rotate(-3.22825 128.43 12.5326)" stroke="#0F4EEF"/>
<path d="M153.963 40.6394L149.2 25.5536L152.282 25.3798L156.199 38.5151L155.354 38.079L157.451 37.9607L156.555 38.495L158.332 25.6275L160.89 25.4832L158.617 40.3768L153.963 40.6394ZM163.104 40.1237L158.899 25.5955L161.561 25.4453L165.152 38.0101L164.223 37.5787L166.278 37.4628L165.508 37.99L167.546 24.5189L170.46 24.3545L167.843 39.8565L163.104 40.1237ZM173.473 39.5389L172.61 24.2333L175.524 24.0689L176.028 33.0007L175.525 33.0291C175.46 31.8829 175.552 30.9031 175.8 30.0899C176.049 29.2766 176.448 28.6441 176.997 28.1924C177.561 27.74 178.29 27.4885 179.184 27.4381L179.31 27.431C180.61 27.3577 181.621 27.7494 182.342 28.6061C183.064 29.4628 183.472 30.7439 183.569 32.4491L183.935 38.9488L181.021 39.1132L180.639 32.341C180.598 31.6141 180.356 31.0528 179.913 30.6572C179.484 30.2607 178.934 30.0814 178.263 30.1192C177.55 30.1594 176.983 30.4298 176.563 30.9302C176.156 31.416 175.973 32.0362 176.016 32.791L176.387 39.3745L173.473 39.5389ZM193.966 38.383L193.776 35.0074L193.294 35.0346L193.082 31.2815C193.045 30.6246 192.857 30.1444 192.517 29.8411C192.178 29.5377 191.672 29.405 191.001 29.4428C190.652 29.4625 190.233 29.4932 189.744 29.5347C189.256 29.5763 188.761 29.6253 188.259 29.6816C187.771 29.7232 187.332 29.769 186.942 29.819L186.803 27.3449C187.122 27.2988 187.484 27.2504 187.888 27.1996C188.292 27.1488 188.703 27.1115 189.123 27.0879C189.555 27.0494 189.96 27.0196 190.338 26.9983C191.512 26.9321 192.492 27.031 193.278 27.2952C194.078 27.5586 194.692 28.0077 195.121 28.6426C195.563 29.2766 195.814 30.1249 195.874 31.1872L196.273 38.2529L193.966 38.383ZM190.314 38.8835C189.489 38.93 188.754 38.8242 188.108 38.5662C187.477 38.3073 186.971 37.9152 186.591 37.3898C186.225 36.8636 186.02 36.2161 185.976 35.4473C185.929 34.6086 186.093 33.9123 186.469 33.3583C186.858 32.8035 187.416 32.3724 188.141 32.065C188.881 31.7569 189.754 31.5744 190.761 31.5176L193.403 31.3686L193.501 33.1089L190.817 33.2602C190.146 33.2981 189.638 33.495 189.294 33.851C188.963 34.1922 188.811 34.6213 188.841 35.1385C188.87 35.6557 189.068 36.0652 189.436 36.367C189.817 36.668 190.344 36.7995 191.014 36.7617C191.42 36.7388 191.786 36.648 192.114 36.4893C192.455 36.3159 192.727 36.0481 192.931 35.6861C193.148 35.3092 193.253 34.8125 193.247 34.1959L194.006 34.9734C193.981 35.7741 193.823 36.4561 193.532 37.0193C193.255 37.5818 192.846 38.0256 192.303 38.3506C191.774 38.6609 191.111 38.8386 190.314 38.8835ZM204.351 37.9445C203.303 38.0037 202.429 37.9198 201.729 37.6928C201.042 37.4511 200.513 37.0182 200.141 36.3942C199.768 35.7561 199.551 34.885 199.489 33.7807L198.928 23.4639L201.654 23.3102L202.225 33.8157C202.257 34.3748 202.428 34.7998 202.739 35.0908C203.063 35.367 203.504 35.4893 204.063 35.4578L205.846 35.3573L205.986 37.8523L204.351 37.9445ZM197.405 28.9133L197.285 26.7747L205.336 26.3206L205.457 28.4592L197.405 28.9133ZM212.493 37.6956C210.927 37.7839 209.679 37.5248 208.747 36.9183C207.829 36.2971 207.315 35.4006 207.207 34.2288L209.828 34.081C209.892 34.47 210.129 34.8142 210.538 35.1136C210.948 35.413 211.572 35.5391 212.411 35.4918C213.109 35.4524 213.654 35.2954 214.046 35.0209C214.451 34.7457 214.641 34.3914 214.617 33.9581C214.595 33.5807 214.418 33.2892 214.084 33.0837C213.763 32.8774 213.224 32.7606 212.465 32.7333L211.453 32.6852C210.173 32.6172 209.174 32.309 208.456 31.7605C207.738 31.2121 207.352 30.4487 207.296 29.4702C207.252 28.6875 207.411 28.0195 207.772 27.4662C208.134 26.913 208.649 26.4843 209.319 26.1801C210.002 25.8611 210.791 25.6764 211.686 25.6259C213.084 25.5471 214.233 25.7907 215.134 26.3569C216.036 26.923 216.541 27.799 216.65 28.9847L214.029 29.1325C213.979 28.7427 213.764 28.4183 213.385 28.1593C213.006 27.9002 212.474 27.79 211.789 27.8286C211.174 27.8633 210.705 28.0089 210.383 28.2655C210.061 28.522 209.911 28.839 209.932 29.2164C209.953 29.5798 210.101 29.8519 210.378 30.0326C210.668 30.2125 211.123 30.3201 211.742 30.3553L212.755 30.4033C214.104 30.4674 215.174 30.7787 215.962 31.3372C216.765 31.8949 217.195 32.6839 217.253 33.7043C217.295 34.4591 217.123 35.1278 216.735 35.7106C216.36 36.2786 215.811 36.7373 215.088 37.0866C214.364 37.4358 213.499 37.6389 212.493 37.6956ZM218.57 36.9953L222.928 21.3951L227.792 21.1208L234.023 36.1237L230.962 36.2964L225.663 23.2811L226.759 23.682L224.138 23.8299L225.202 23.3071L221.548 36.8273L218.57 36.9953ZM221.989 32.722L222.791 30.1528L228.997 29.8027L230.061 32.2667L221.989 32.722ZM236.302 40.2018L235.424 24.6236L237.73 24.4935L238.007 29.3997L237.649 29.3988C237.64 28.2355 237.822 27.2507 238.198 26.4443C238.587 25.6371 239.127 25.0247 239.819 24.607C240.509 24.1755 241.295 23.9348 242.176 23.8852C242.986 23.8394 243.722 23.9452 244.381 24.2025C245.055 24.459 245.637 24.8398 246.128 25.3449C246.633 25.8493 247.032 26.4508 247.324 27.1494C247.615 27.8341 247.783 28.5818 247.829 29.3926L247.854 29.8329C247.9 30.6575 247.818 31.4334 247.606 32.1605C247.408 32.8728 247.087 33.5149 246.642 34.0868C246.211 34.644 245.676 35.0949 245.036 35.4394C244.396 35.77 243.67 35.9582 242.859 36.0039C242.007 36.052 241.214 35.9214 240.481 35.6122C239.762 35.2882 239.165 34.768 238.69 34.0516C238.214 33.3212 237.914 32.3636 237.792 31.1786L238.793 32.5314L239.217 40.0374L236.302 40.2018ZM241.987 33.5922C242.616 33.5567 243.153 33.3722 243.596 33.0387C244.054 32.7044 244.401 32.2572 244.636 31.697C244.87 31.1229 244.967 30.4865 244.927 29.7876C244.886 29.0607 244.718 28.4392 244.423 27.923C244.127 27.4069 243.733 27.0154 243.242 26.7487C242.763 26.4672 242.209 26.3442 241.58 26.3797C241.007 26.412 240.483 26.5677 240.008 26.8469C239.547 27.1253 239.177 27.5178 238.897 28.0244C238.631 28.5302 238.517 29.1255 238.556 29.8104L238.603 30.6491C238.64 31.3061 238.825 31.8565 239.159 32.3004C239.492 32.7443 239.911 33.0783 240.414 33.3023C240.918 33.5263 241.442 33.6229 241.987 33.5922ZM250.963 39.3749L250.084 23.7967L252.39 23.6666L252.667 28.5728L252.309 28.5719C252.3 27.4086 252.483 26.4238 252.858 25.6174C253.247 24.8102 253.787 24.1978 254.479 23.7802C255.17 23.3486 255.955 23.1079 256.836 23.0583C257.647 23.0125 258.382 23.1183 259.041 23.3756C259.715 23.6321 260.297 24.0129 260.789 24.518C261.294 25.0224 261.692 25.6239 261.984 26.3226C262.275 27.0073 262.443 27.755 262.489 28.5657L262.514 29.006C262.56 29.8307 262.478 30.6065 262.267 31.3336C262.068 32.0459 261.747 32.688 261.303 33.2599C260.871 33.8171 260.336 34.268 259.696 34.6125C259.056 34.9431 258.33 35.1313 257.52 35.177C256.667 35.2251 255.874 35.0945 255.142 34.7853C254.422 34.4613 253.825 33.9411 253.35 33.2247C252.874 32.4944 252.575 31.5367 252.452 30.3517L253.454 31.7045L253.877 39.2105L250.963 39.3749ZM256.647 32.7653C257.276 32.7298 257.813 32.5453 258.257 32.2118C258.715 31.8775 259.061 31.4303 259.296 30.8702C259.53 30.2961 259.627 29.6596 259.588 28.9607C259.547 28.2338 259.379 27.6123 259.083 27.0961C258.787 26.58 258.394 26.1885 257.902 25.9218C257.423 25.6403 256.87 25.5173 256.241 25.5528C255.667 25.5851 255.143 25.7409 254.668 26.02C254.207 26.2985 253.837 26.6909 253.557 27.1975C253.291 27.7033 253.177 28.2986 253.216 28.9835L253.263 29.8222C253.3 30.4792 253.486 31.0296 253.819 31.4735C254.153 31.9174 254.571 32.2514 255.075 32.4754C255.578 32.6994 256.102 32.7961 256.647 32.7653ZM270.142 34.0865L269.279 18.7808L272.256 18.6129L273.119 33.9185L270.142 34.0865ZM272.34 27.5683L272.199 25.0523L278.32 24.686L278.462 27.202L272.34 27.5683ZM271.979 21.1525L271.837 18.6365L278.252 18.2746L278.394 20.7906L271.979 21.1525ZM286.893 33.5413C285.886 33.5981 284.99 33.4874 284.203 33.2093C283.416 32.9311 282.741 32.5345 282.18 32.0193C281.617 31.4902 281.176 30.884 280.857 30.2009C280.552 29.517 280.378 28.7976 280.336 28.0428L280.311 27.6025C280.267 26.8198 280.365 26.0711 280.605 25.3564C280.858 24.627 281.235 23.9747 281.735 23.3996C282.249 22.8098 282.882 22.3394 283.633 21.9885C284.384 21.6237 285.241 21.4141 286.206 21.3597C287.17 21.3053 288.046 21.4171 288.833 21.6953C289.619 21.9594 290.293 22.3561 290.856 22.8852C291.432 23.3996 291.88 24.0053 292.199 24.7024C292.518 25.3856 292.7 26.1185 292.744 26.9013L292.769 27.3416C292.812 28.0964 292.713 28.8311 292.473 29.5457C292.246 30.2596 291.884 30.9111 291.384 31.5001C290.884 32.0752 290.258 32.5452 289.507 32.9101C288.757 33.2749 287.885 33.4853 286.893 33.5413ZM286.752 31.0463C287.465 31.0061 288.057 30.8184 288.529 30.4833C289 30.1342 289.347 29.687 289.568 29.1417C289.789 28.5823 289.88 27.9602 289.842 27.2753C289.802 26.5764 289.635 25.9689 289.339 25.4527C289.057 24.9218 288.655 24.5167 288.135 24.2376C287.627 23.9437 287.031 23.8161 286.346 23.8547C285.662 23.8933 285.077 24.0876 284.591 24.4375C284.12 24.7726 283.766 25.2202 283.531 25.7803C283.296 26.3264 283.198 26.9489 283.237 27.6478C283.276 28.3327 283.436 28.9407 283.719 29.4716C284.014 29.9878 284.416 30.3928 284.923 30.6867C285.429 30.9666 286.039 31.0865 286.752 31.0463ZM295.628 32.649L294.986 21.264L297.293 21.134L297.564 25.9563L297.502 25.9598C297.409 24.3244 297.689 23.0677 298.341 22.1896C298.992 21.3115 299.996 20.8343 301.352 20.7578L301.771 20.7341L301.914 23.2711L301.117 23.316C300.139 23.3712 299.392 23.6798 298.877 24.2417C298.375 24.7888 298.152 25.5586 298.208 26.551L298.543 32.4846L295.628 32.649ZM304.371 32.1558L303.729 20.7709L306.035 20.6408L306.311 25.5261L306.101 25.5379C306.037 24.3917 306.129 23.426 306.38 22.6406C306.629 21.8413 307.029 21.2298 307.58 20.8061C308.144 20.3676 308.86 20.124 309.726 20.0751L309.852 20.068C310.733 20.0183 311.471 20.18 312.067 20.553C312.676 20.9113 313.143 21.4739 313.466 22.2409C313.803 22.9931 314.004 23.9423 314.069 25.0885L313.335 25.1299C313.27 23.9837 313.363 23.018 313.613 22.2326C313.876 21.4325 314.284 20.8206 314.835 20.3969C315.399 19.9585 316.114 19.7148 316.981 19.6659L317.107 19.6588C317.987 19.6091 318.733 19.7704 319.343 20.1427C319.952 20.5009 320.425 21.0632 320.763 21.8294C321.114 22.5808 321.321 23.5296 321.386 24.6758L321.753 31.1755L318.838 31.3398L318.456 24.5676C318.416 23.8547 318.202 23.2989 317.815 22.9C317.427 22.4872 316.898 22.2997 316.227 22.3376C315.556 22.3754 315.031 22.6294 314.651 23.0996C314.27 23.5558 314.1 24.1543 314.142 24.8951L314.519 31.5835L311.605 31.7478L311.223 24.9756C311.183 24.2627 310.969 23.7069 310.582 23.308C310.194 22.8952 309.665 22.7077 308.994 22.7456C308.323 22.7834 307.797 23.0374 307.417 23.5076C307.036 23.9638 306.867 24.5623 306.908 25.3031L307.286 31.9914L304.371 32.1558Z" fill="white"/>
</g>
<g filter="url(#filter4_d_4779_116802)">
<circle cx="289" cy="162" r="55" fill="url(#paint5_radial_4779_116802)"/>
</g>
<g filter="url(#filter5_d_4779_116802)">
<path d="M267.735 175.162C269.428 178.199 273.181 179.243 276.119 177.493C276.121 177.492 276.123 177.49 276.125 177.489L277.036 176.946C278.754 178.466 280.73 179.645 282.863 180.423V181.509C282.863 185.013 285.612 187.855 289.002 187.855C292.393 187.855 295.141 185.013 295.141 181.509V180.423C297.274 179.644 299.25 178.463 300.969 176.941L301.884 177.487C304.822 179.24 308.578 178.198 310.273 175.16C311.968 172.123 310.961 168.24 308.022 166.487L307.114 165.946C307.523 163.645 307.523 161.287 307.114 158.986L308.022 158.444C310.961 156.692 311.968 152.809 310.273 149.771C308.578 146.734 304.822 145.692 301.884 147.444L300.973 147.988C299.252 146.47 297.275 145.293 295.141 144.517V143.432C295.141 139.927 292.393 137.085 289.002 137.085C285.612 137.085 282.863 139.927 282.863 143.432V144.517C280.73 145.296 278.754 146.477 277.036 147.999L276.121 147.451C273.183 145.698 269.426 146.74 267.731 149.778C266.036 152.815 267.044 156.698 269.982 158.451L270.891 158.992C270.482 161.293 270.482 163.651 270.891 165.952L269.982 166.494C267.052 168.251 266.047 172.126 267.735 175.162ZM289.002 154.009C293.523 154.009 297.187 157.797 297.187 162.47C297.187 167.143 293.523 170.932 289.002 170.932C284.482 170.932 280.817 167.143 280.817 162.47C280.817 157.797 284.482 154.009 289.002 154.009Z" fill="#6940F2" style="mix-blend-mode:plus-lighter" shape-rendering="crispEdges"/>
</g>
<defs>
<filter id="filter0_d_4779_116802" x="7" y="82" width="368" height="461" filterUnits="userSpaceOnUse" color-interpolation-filters="sRGB">
<feFlood flood-opacity="0" result="BackgroundImageFix"/>
<feColorMatrix in="SourceAlpha" type="matrix" values="0 0 0 0 0 0 0 0 0 0 0 0 0 0 0 0 0 0 127 0" result="hardAlpha"/>
<feOffset dx="4" dy="4"/>
<feGaussianBlur stdDeviation="22"/>
<feComposite in2="hardAlpha" operator="out"/>
<feColorMatrix type="matrix" values="0 0 0 0 0.411765 0 0 0 0 0.25098 0 0 0 0 0.94902 0 0 0 0.49 0"/>
<feBlend mode="normal" in2="BackgroundImageFix" result="effect1_dropShadow_4779_116802"/>
<feBlend mode="normal" in="SourceGraphic" in2="effect1_dropShadow_4779_116802" result="shape"/>
</filter>
<filter id="filter1_d_4779_116802" x="5.1582" y="18.1572" width="179.684" height="179.686" filterUnits="userSpaceOnUse" color-interpolation-filters="sRGB">
<feFlood flood-opacity="0" result="BackgroundImageFix"/>
<feColorMatrix in="SourceAlpha" type="matrix" values="0 0 0 0 0 0 0 0 0 0 0 0 0 0 0 0 0 0 127 0" result="hardAlpha"/>
<feOffset dx="4" dy="4"/>
<feGaussianBlur stdDeviation="22"/>
<feComposite in2="hardAlpha" operator="out"/>
<feColorMatrix type="matrix" values="0 0 0 0 0.0352941 0 0 0 0 0.8 0 0 0 0 0.580392 0 0 0 0.38 0"/>
<feBlend mode="normal" in2="BackgroundImageFix" result="effect1_dropShadow_4779_116802"/>
<feBlend mode="normal" in="SourceGraphic" in2="effect1_dropShadow_4779_116802" result="shape"/>
</filter>
<filter id="filter2_d_4779_116802" x="0" y="391.219" width="156" height="156" filterUnits="userSpaceOnUse" color-interpolation-filters="sRGB">
<feFlood flood-opacity="0" result="BackgroundImageFix"/>
<feColorMatrix in="SourceAlpha" type="matrix" values="0 0 0 0 0 0 0 0 0 0 0 0 0 0 0 0 0 0 127 0" result="hardAlpha"/>
<feOffset dx="4" dy="4"/>
<feGaussianBlur stdDeviation="22"/>
<feComposite in2="hardAlpha" operator="out"/>
<feColorMatrix type="matrix" values="0 0 0 0 0.411765 0 0 0 0 0.25098 0 0 0 0 0.94902 0 0 0 0.49 0"/>
<feBlend mode="normal" in2="BackgroundImageFix" result="effect1_dropShadow_4779_116802"/>
<feBlend mode="normal" in="SourceGraphic" in2="effect1_dropShadow_4779_116802" result="shape"/>
</filter>
<filter id="filter3_i_4779_116802" x="127.902" y="0.0102539" width="218.195" height="58.98" filterUnits="userSpaceOnUse" color-interpolation-filters="sRGB">
<feFlood flood-opacity="0" result="BackgroundImageFix"/>
<feBlend mode="normal" in="SourceGraphic" in2="BackgroundImageFix" result="shape"/>
<feColorMatrix in="SourceAlpha" type="matrix" values="0 0 0 0 0 0 0 0 0 0 0 0 0 0 0 0 0 0 127 0" result="hardAlpha"/>
<feOffset dx="2" dy="2"/>
<feGaussianBlur stdDeviation="4"/>
<feComposite in2="hardAlpha" operator="arithmetic" k2="-1" k3="1"/>
<feColorMatrix type="matrix" values="0 0 0 0 0 0 0 0 0 0 0 0 0 0 0 0 0 0 0.25 0"/>
<feBlend mode="normal" in2="shape" result="effect1_innerShadow_4779_116802"/>
</filter>
<filter id="filter4_d_4779_116802" x="194" y="67" width="198" height="198" filterUnits="userSpaceOnUse" color-interpolation-filters="sRGB">
<feFlood flood-opacity="0" result="BackgroundImageFix"/>
<feColorMatrix in="SourceAlpha" type="matrix" values="0 0 0 0 0 0 0 0 0 0 0 0 0 0 0 0 0 0 127 0" result="hardAlpha"/>
<feOffset dx="4" dy="4"/>
<feGaussianBlur stdDeviation="22"/>
<feComposite in2="hardAlpha" operator="out"/>
<feColorMatrix type="matrix" values="0 0 0 0 0.411765 0 0 0 0 0.25098 0 0 0 0 0.94902 0 0 0 0.49 0"/>
<feBlend mode="normal" in2="BackgroundImageFix" result="effect1_dropShadow_4779_116802"/>
<feBlend mode="normal" in="SourceGraphic" in2="effect1_dropShadow_4779_116802" result="shape"/>
</filter>
<filter id="filter5_d_4779_116802" x="226.908" y="97.0854" width="132.188" height="138.769" filterUnits="userSpaceOnUse" color-interpolation-filters="sRGB">
<feFlood flood-opacity="0" result="BackgroundImageFix"/>
<feColorMatrix in="SourceAlpha" type="matrix" values="0 0 0 0 0 0 0 0 0 0 0 0 0 0 0 0 0 0 127 0" result="hardAlpha"/>
<feOffset dx="4" dy="4"/>
<feGaussianBlur stdDeviation="22"/>
<feComposite in2="hardAlpha" operator="out"/>
<feColorMatrix type="matrix" values="0 0 0 0 0.411765 0 0 0 0 0.25098 0 0 0 0 0.94902 0 0 0 0.49 0"/>
<feBlend mode="normal" in2="BackgroundImageFix" result="effect1_dropShadow_4779_116802"/>
<feBlend mode="normal" in="SourceGraphic" in2="effect1_dropShadow_4779_116802" result="shape"/>
</filter>
<radialGradient id="paint0_radial_4779_116802" cx="0" cy="0" r="1" gradientUnits="userSpaceOnUse" gradientTransform="translate(238.186 152.689) rotate(106.404) scale(370.534 236.173)">
<stop offset="0.209049" stop-color="#F9FDFF"/>
<stop offset="0.839525" stop-color="#5B4BB9"/>
</radialGradient>
<radialGradient id="paint1_radial_4779_116802" cx="0" cy="0" r="1" gradientUnits="userSpaceOnUse" gradientTransform="translate(104.369 77.9136) rotate(116.017) scale(84.918 67.9075)">
<stop offset="0.209049" stop-color="#BCF8C0"/>
<stop offset="0.645" stop-color="#54AB5A"/>
<stop offset="0.98" stop-color="#1D4420"/>
</radialGradient>
<radialGradient id="paint2_radial_4779_116802" cx="0" cy="0" r="1" gradientUnits="userSpaceOnUse" gradientTransform="translate(86.4308 436.813) rotate(111.414) scale(69.6058 55.6626)">
<stop offset="0.209049" stop-color="#F9FDFF"/>
<stop offset="0.839525" stop-color="#0F4EEF"/>
</radialGradient>
<linearGradient id="paint3_linear_4779_116802" x1="234.902" y1="12.0615" x2="234.902" y2="57.0615" gradientUnits="userSpaceOnUse">
<stop stop-color="#141530" stop-opacity="0.13"/>
<stop offset="1" stop-color="#2D3154" stop-opacity="0.13"/>
</linearGradient>
<linearGradient id="paint4_linear_4779_116802" x1="234.902" y1="12.0615" x2="234.902" y2="57.0615" gradientUnits="userSpaceOnUse">
<stop stop-color="#094DCC" stop-opacity="0.4"/>
<stop offset="1" stop-color="#0947CC" stop-opacity="0.48"/>
</linearGradient>
<radialGradient id="paint5_radial_4779_116802" cx="0" cy="0" r="1" gradientUnits="userSpaceOnUse" gradientTransform="translate(314.35 116.05) rotate(112.761) scale(113.676 95.4117)">
<stop offset="0.209049" stop-color="#F9FDFF"/>
<stop offset="0.839525" stop-color="#5B4BB9"/>
</radialGradient>
</defs>
</svg>
