<svg width="191" height="103" viewBox="0 0 191 103" fill="none" xmlns="http://www.w3.org/2000/svg">
<rect y="0.5" width="191" height="102" rx="22" fill="#2D3154" fill-opacity="0.34"/>
<path d="M15.7891 27.5V19.5H17.2383V22.8867H20.9453V19.5H22.3984V27.5H20.9453V24.1016H17.2383V27.5H15.7891ZM26.5293 27.6172C25.9434 27.6172 25.4355 27.4883 25.0059 27.2305C24.5762 26.9727 24.2428 26.612 24.0059 26.1484C23.7715 25.6849 23.6543 25.1432 23.6543 24.5234C23.6543 23.9036 23.7715 23.3607 24.0059 22.8945C24.2428 22.4284 24.5762 22.0664 25.0059 21.8086C25.4355 21.5508 25.9434 21.4219 26.5293 21.4219C27.1152 21.4219 27.623 21.5508 28.0527 21.8086C28.4824 22.0664 28.8145 22.4284 29.0488 22.8945C29.2858 23.3607 29.4043 23.9036 29.4043 24.5234C29.4043 25.1432 29.2858 25.6849 29.0488 26.1484C28.8145 26.612 28.4824 26.9727 28.0527 27.2305C27.623 27.4883 27.1152 27.6172 26.5293 27.6172ZM26.5371 26.4844C26.8548 26.4844 27.1204 26.3971 27.334 26.2227C27.5475 26.0456 27.7064 25.8086 27.8105 25.5117C27.9173 25.2148 27.9707 24.8841 27.9707 24.5195C27.9707 24.1523 27.9173 23.8203 27.8105 23.5234C27.7064 23.224 27.5475 22.9857 27.334 22.8086C27.1204 22.6315 26.8548 22.543 26.5371 22.543C26.2116 22.543 25.9408 22.6315 25.7246 22.8086C25.5111 22.9857 25.3509 23.224 25.2441 23.5234C25.14 23.8203 25.0879 24.1523 25.0879 24.5195C25.0879 24.8841 25.14 25.2148 25.2441 25.5117C25.3509 25.8086 25.5111 26.0456 25.7246 26.2227C25.9408 26.3971 26.2116 26.4844 26.5371 26.4844ZM30.6045 29.75V21.5H31.9951V22.4922H32.0771C32.1501 22.3464 32.2529 22.1914 32.3857 22.0273C32.5186 21.8607 32.6982 21.7187 32.9248 21.6016C33.1514 21.4818 33.4404 21.4219 33.792 21.4219C34.2555 21.4219 34.6735 21.5404 35.0459 21.7773C35.4209 22.0117 35.7178 22.3594 35.9365 22.8203C36.1579 23.2786 36.2686 23.8411 36.2686 24.5078C36.2686 25.1667 36.1605 25.7266 35.9443 26.1875C35.7282 26.6484 35.4339 27 35.0615 27.2422C34.6891 27.4844 34.2673 27.6055 33.7959 27.6055C33.4521 27.6055 33.167 27.5482 32.9404 27.4336C32.7139 27.319 32.5316 27.181 32.3936 27.0195C32.2581 26.8555 32.1527 26.7005 32.0771 26.5547H32.0186V29.75H30.6045ZM31.9912 24.5C31.9912 24.888 32.0459 25.2279 32.1553 25.5195C32.2673 25.8112 32.4274 26.0391 32.6357 26.2031C32.8467 26.3646 33.1019 26.4453 33.4014 26.4453C33.7139 26.4453 33.9756 26.362 34.1865 26.1953C34.3975 26.026 34.5563 25.7956 34.6631 25.5039C34.7725 25.2096 34.8271 24.875 34.8271 24.5C34.8271 24.1276 34.7738 23.7969 34.667 23.5078C34.5602 23.2187 34.4014 22.9922 34.1904 22.8281C33.9795 22.6641 33.7165 22.582 33.4014 22.582C33.0993 22.582 32.8428 22.6615 32.6318 22.8203C32.4209 22.9792 32.2607 23.2018 32.1514 23.4883C32.0446 23.7747 31.9912 24.112 31.9912 24.5ZM40.1357 27.6172C39.5342 27.6172 39.0146 27.4922 38.5771 27.2422C38.1423 26.9896 37.8076 26.6328 37.5732 26.1719C37.3389 25.7083 37.2217 25.1628 37.2217 24.5352C37.2217 23.918 37.3389 23.3763 37.5732 22.9102C37.8102 22.4414 38.141 22.0768 38.5654 21.8164C38.9899 21.5534 39.4886 21.4219 40.0615 21.4219C40.4313 21.4219 40.7803 21.4818 41.1084 21.6016C41.4391 21.7187 41.7308 21.901 41.9834 22.1484C42.2386 22.3958 42.4391 22.7109 42.585 23.0937C42.7308 23.474 42.8037 23.9271 42.8037 24.4531V24.8867H37.8857V23.9336H41.4482C41.4456 23.6628 41.387 23.4219 41.2725 23.2109C41.1579 22.9974 40.9977 22.8294 40.792 22.707C40.5889 22.5846 40.3519 22.5234 40.0811 22.5234C39.792 22.5234 39.5381 22.5937 39.3193 22.7344C39.1006 22.8724 38.93 23.0547 38.8076 23.2812C38.6878 23.5052 38.6266 23.7513 38.624 24.0195V24.8516C38.624 25.2005 38.6878 25.5 38.8154 25.75C38.943 25.9974 39.1214 26.1875 39.3506 26.3203C39.5798 26.4505 39.848 26.5156 40.1553 26.5156C40.361 26.5156 40.5472 26.487 40.7139 26.4297C40.8805 26.3698 41.0251 26.2826 41.1475 26.168C41.2699 26.0534 41.3623 25.9115 41.4248 25.7422L42.7451 25.8906C42.6618 26.2396 42.5029 26.5443 42.2686 26.8047C42.0368 27.0625 41.7399 27.263 41.3779 27.4062C41.016 27.5469 40.6019 27.6172 40.1357 27.6172ZM47.6074 29.75C47.4147 29.75 47.2363 29.7344 47.0723 29.7031C46.9108 29.6745 46.7819 29.6406 46.6855 29.6016L47.0137 28.5C47.2194 28.5599 47.403 28.5885 47.5645 28.5859C47.7259 28.5833 47.8678 28.5326 47.9902 28.4336C48.1152 28.3372 48.2207 28.1758 48.3066 27.9492L48.4277 27.625L46.252 21.5H47.752L49.1348 26.0312H49.1973L50.584 21.5H52.0879L49.6855 28.2266C49.5736 28.5443 49.4251 28.8164 49.2402 29.043C49.0553 29.2721 48.8288 29.4466 48.5605 29.5664C48.2949 29.6888 47.9772 29.75 47.6074 29.75ZM55.4795 27.6172C54.8936 27.6172 54.3857 27.4883 53.9561 27.2305C53.5264 26.9727 53.193 26.612 52.9561 26.1484C52.7217 25.6849 52.6045 25.1432 52.6045 24.5234C52.6045 23.9036 52.7217 23.3607 52.9561 22.8945C53.193 22.4284 53.5264 22.0664 53.9561 21.8086C54.3857 21.5508 54.8936 21.4219 55.4795 21.4219C56.0654 21.4219 56.5732 21.5508 57.0029 21.8086C57.4326 22.0664 57.7646 22.4284 57.999 22.8945C58.236 23.3607 58.3545 23.9036 58.3545 24.5234C58.3545 25.1432 58.236 25.6849 57.999 26.1484C57.7646 26.612 57.4326 26.9727 57.0029 27.2305C56.5732 27.4883 56.0654 27.6172 55.4795 27.6172ZM55.4873 26.4844C55.805 26.4844 56.0706 26.3971 56.2842 26.2227C56.4977 26.0456 56.6566 25.8086 56.7607 25.5117C56.8675 25.2148 56.9209 24.8841 56.9209 24.5195C56.9209 24.1523 56.8675 23.8203 56.7607 23.5234C56.6566 23.224 56.4977 22.9857 56.2842 22.8086C56.0706 22.6315 55.805 22.543 55.4873 22.543C55.1618 22.543 54.891 22.6315 54.6748 22.8086C54.4613 22.9857 54.3011 23.224 54.1943 23.5234C54.0902 23.8203 54.0381 24.1523 54.0381 24.5195C54.0381 24.8841 54.0902 25.2148 54.1943 25.5117C54.3011 25.8086 54.4613 26.0456 54.6748 26.2227C54.891 26.3971 55.1618 26.4844 55.4873 26.4844ZM63.3789 24.9766V21.5H64.793V27.5H63.4219V26.4336H63.3594C63.224 26.7695 63.0013 27.0443 62.6914 27.2578C62.3841 27.4714 62.0052 27.5781 61.5547 27.5781C61.1615 27.5781 60.8138 27.4909 60.5117 27.3164C60.2122 27.1393 59.9779 26.8828 59.8086 26.5469C59.6393 26.2083 59.5547 25.7995 59.5547 25.3203V21.5H60.9688V25.1016C60.9688 25.4818 61.0729 25.7839 61.2813 26.0078C61.4896 26.2318 61.763 26.3437 62.1016 26.3437C62.3099 26.3437 62.5117 26.293 62.707 26.1914C62.9023 26.0898 63.0625 25.9388 63.1875 25.7383C63.3151 25.5352 63.3789 25.2812 63.3789 24.9766ZM71.6318 27.6172C71.0303 27.6172 70.5107 27.4922 70.0732 27.2422C69.6383 26.9896 69.3037 26.6328 69.0693 26.1719C68.835 25.7083 68.7178 25.1628 68.7178 24.5352C68.7178 23.918 68.835 23.3763 69.0693 22.9102C69.3063 22.4414 69.637 22.0768 70.0615 21.8164C70.486 21.5534 70.9847 21.4219 71.5576 21.4219C71.9274 21.4219 72.2764 21.4818 72.6045 21.6016C72.9352 21.7187 73.2269 21.901 73.4795 22.1484C73.7347 22.3958 73.9352 22.7109 74.0811 23.0937C74.2269 23.474 74.2998 23.9271 74.2998 24.4531V24.8867H69.3818V23.9336H72.9443C72.9417 23.6628 72.8831 23.4219 72.7686 23.2109C72.654 22.9974 72.4938 22.8294 72.2881 22.707C72.085 22.5846 71.848 22.5234 71.5771 22.5234C71.2881 22.5234 71.0342 22.5937 70.8154 22.7344C70.5967 22.8724 70.4261 23.0547 70.3037 23.2812C70.1839 23.5052 70.1227 23.7513 70.1201 24.0195V24.8516C70.1201 25.2005 70.1839 25.5 70.3115 25.75C70.4391 25.9974 70.6175 26.1875 70.8467 26.3203C71.0758 26.4505 71.3441 26.5156 71.6514 26.5156C71.8571 26.5156 72.0433 26.487 72.21 26.4297C72.3766 26.3698 72.5212 26.2826 72.6436 26.168C72.766 26.0534 72.8584 25.9115 72.9209 25.7422L74.2412 25.8906C74.1579 26.2396 73.999 26.5443 73.7646 26.8047C73.5329 27.0625 73.236 27.263 72.874 27.4062C72.512 27.5469 72.098 27.6172 71.6318 27.6172ZM76.9102 23.9844V27.5H75.4961V21.5H76.8477V22.5195H76.918C77.056 22.1836 77.276 21.9167 77.5781 21.7187C77.8828 21.5208 78.2591 21.4219 78.707 21.4219C79.1211 21.4219 79.4818 21.5104 79.7891 21.6875C80.099 21.8646 80.3385 22.1211 80.5078 22.457C80.6797 22.793 80.7643 23.2005 80.7617 23.6797V27.5H79.3477V23.8984C79.3477 23.4974 79.2435 23.1836 79.0352 22.957C78.8294 22.7305 78.5443 22.6172 78.1797 22.6172C77.9323 22.6172 77.7122 22.6719 77.5195 22.7812C77.3294 22.888 77.1797 23.043 77.0703 23.2461C76.9635 23.4492 76.9102 23.6953 76.9102 23.9844ZM82.1992 21.5H83.6133V27.8438C83.6133 28.276 83.5313 28.6328 83.3672 28.9141C83.2031 29.1953 82.9661 29.4049 82.6563 29.543C82.3464 29.681 81.9701 29.75 81.5273 29.75C81.4753 29.75 81.4271 29.7487 81.3828 29.7461C81.3385 29.7461 81.2904 29.7448 81.2383 29.7422V28.5898C81.2773 28.5924 81.3125 28.5938 81.3438 28.5938C81.375 28.5964 81.4076 28.5977 81.4414 28.5977C81.7122 28.5977 81.9063 28.5313 82.0234 28.3984C82.1406 28.2682 82.1992 28.0768 82.1992 27.8242V21.5ZM82.9023 20.6484C82.6758 20.6484 82.4818 20.5742 82.3203 20.4258C82.1615 20.2747 82.082 20.0937 82.082 19.8828C82.082 19.6693 82.1615 19.4883 82.3203 19.3398C82.4818 19.1888 82.6758 19.1133 82.9023 19.1133C83.1263 19.1133 83.3177 19.1888 83.4766 19.3398C83.638 19.4883 83.7188 19.6693 83.7188 19.8828C83.7188 20.0937 83.638 20.2747 83.4766 20.4258C83.3177 20.5742 83.1263 20.6484 82.9023 20.6484ZM87.6846 27.6172C87.0986 27.6172 86.5908 27.4883 86.1611 27.2305C85.7314 26.9727 85.3981 26.612 85.1611 26.1484C84.9268 25.6849 84.8096 25.1432 84.8096 24.5234C84.8096 23.9036 84.9268 23.3607 85.1611 22.8945C85.3981 22.4284 85.7314 22.0664 86.1611 21.8086C86.5908 21.5508 87.0986 21.4219 87.6846 21.4219C88.2705 21.4219 88.7783 21.5508 89.208 21.8086C89.6377 22.0664 89.9697 22.4284 90.2041 22.8945C90.4411 23.3607 90.5596 23.9036 90.5596 24.5234C90.5596 25.1432 90.4411 25.6849 90.2041 26.1484C89.9697 26.612 89.6377 26.9727 89.208 27.2305C88.7783 27.4883 88.2705 27.6172 87.6846 27.6172ZM87.6924 26.4844C88.0101 26.4844 88.2757 26.3971 88.4893 26.2227C88.7028 26.0456 88.8617 25.8086 88.9658 25.5117C89.0726 25.2148 89.126 24.8841 89.126 24.5195C89.126 24.1523 89.0726 23.8203 88.9658 23.5234C88.8617 23.224 88.7028 22.9857 88.4893 22.8086C88.2757 22.6315 88.0101 22.543 87.6924 22.543C87.3669 22.543 87.096 22.6315 86.8799 22.8086C86.6663 22.9857 86.5062 23.224 86.3994 23.5234C86.2952 23.8203 86.2432 24.1523 86.2432 24.5195C86.2432 24.8841 86.2952 25.2148 86.3994 25.5117C86.5062 25.8086 86.6663 26.0456 86.8799 26.2227C87.096 26.3971 87.3669 26.4844 87.6924 26.4844ZM92.4346 29.75C92.2419 29.75 92.0635 29.7344 91.8994 29.7031C91.738 29.6745 91.609 29.6406 91.5127 29.6016L91.8408 28.5C92.0465 28.5599 92.2301 28.5885 92.3916 28.5859C92.5531 28.5833 92.695 28.5326 92.8174 28.4336C92.9424 28.3372 93.0479 28.1758 93.1338 27.9492L93.2549 27.625L91.0791 21.5H92.5791L93.9619 26.0312H94.0244L95.4111 21.5H96.915L94.5127 28.2266C94.4007 28.5443 94.2523 28.8164 94.0674 29.043C93.8825 29.2721 93.6559 29.4466 93.3877 29.5664C93.1221 29.6888 92.8044 29.75 92.4346 29.75ZM100.346 27.6172C99.7441 27.6172 99.2246 27.4922 98.7871 27.2422C98.3522 26.9896 98.0176 26.6328 97.7832 26.1719C97.5488 25.7083 97.4316 25.1628 97.4316 24.5352C97.4316 23.918 97.5488 23.3763 97.7832 22.9102C98.0202 22.4414 98.3509 22.0768 98.7754 21.8164C99.1999 21.5534 99.6986 21.4219 100.271 21.4219C100.641 21.4219 100.99 21.4818 101.318 21.6016C101.649 21.7187 101.941 21.901 102.193 22.1484C102.449 22.3958 102.649 22.7109 102.795 23.0937C102.941 23.474 103.014 23.9271 103.014 24.4531V24.8867H98.0957V23.9336H101.658C101.656 23.6628 101.597 23.4219 101.482 23.2109C101.368 22.9974 101.208 22.8294 101.002 22.707C100.799 22.5846 100.562 22.5234 100.291 22.5234C100.002 22.5234 99.748 22.5937 99.5293 22.7344C99.3105 22.8724 99.14 23.0547 99.0176 23.2812C98.8978 23.5052 98.8366 23.7513 98.834 24.0195V24.8516C98.834 25.2005 98.8978 25.5 99.0254 25.75C99.153 25.9974 99.3314 26.1875 99.5605 26.3203C99.7897 26.4505 100.058 26.5156 100.365 26.5156C100.571 26.5156 100.757 26.487 100.924 26.4297C101.09 26.3698 101.235 26.2826 101.357 26.168C101.48 26.0534 101.572 25.9115 101.635 25.7422L102.955 25.8906C102.872 26.2396 102.713 26.5443 102.479 26.8047C102.247 27.0625 101.95 27.263 101.588 27.4062C101.226 27.5469 100.812 27.6172 100.346 27.6172ZM106.437 27.6055C105.965 27.6055 105.543 27.4844 105.171 27.2422C104.799 27 104.504 26.6484 104.288 26.1875C104.072 25.7266 103.964 25.1667 103.964 24.5078C103.964 23.8411 104.073 23.2786 104.292 22.8203C104.513 22.3594 104.812 22.0117 105.187 21.7773C105.562 21.5404 105.979 21.4219 106.44 21.4219C106.792 21.4219 107.081 21.4818 107.308 21.6016C107.534 21.7187 107.714 21.8607 107.847 22.0273C107.979 22.1914 108.082 22.3464 108.155 22.4922H108.214V19.5H109.632V27.5H108.241V26.5547H108.155C108.082 26.7005 107.977 26.8555 107.839 27.0195C107.701 27.181 107.519 27.319 107.292 27.4336C107.065 27.5482 106.78 27.6055 106.437 27.6055ZM106.831 26.4453C107.131 26.4453 107.386 26.3646 107.597 26.2031C107.808 26.0391 107.968 25.8112 108.077 25.5195C108.187 25.2279 108.241 24.888 108.241 24.5C108.241 24.112 108.187 23.7747 108.077 23.4883C107.97 23.2018 107.812 22.9792 107.601 22.8203C107.392 22.6615 107.136 22.582 106.831 22.582C106.516 22.582 106.253 22.6641 106.042 22.8281C105.831 22.9922 105.672 23.2187 105.565 23.5078C105.459 23.7969 105.405 24.1276 105.405 24.5C105.405 24.875 105.459 25.2096 105.565 25.5039C105.675 25.7956 105.835 26.026 106.046 26.1953C106.259 26.362 106.521 26.4453 106.831 26.4453ZM114.746 29.75C114.553 29.75 114.375 29.7344 114.211 29.7031C114.049 29.6745 113.921 29.6406 113.824 29.6016L114.152 28.5C114.358 28.5599 114.542 28.5885 114.703 28.5859C114.865 28.5833 115.007 28.5326 115.129 28.4336C115.254 28.3372 115.359 28.1758 115.445 27.9492L115.566 27.625L113.391 21.5H114.891L116.273 26.0312H116.336L117.723 21.5H119.227L116.824 28.2266C116.712 28.5443 116.564 28.8164 116.379 29.043C116.194 29.2721 115.967 29.4466 115.699 29.5664C115.434 29.6888 115.116 29.75 114.746 29.75ZM122.618 27.6172C122.032 27.6172 121.524 27.4883 121.095 27.2305C120.665 26.9727 120.332 26.612 120.095 26.1484C119.86 25.6849 119.743 25.1432 119.743 24.5234C119.743 23.9036 119.86 23.3607 120.095 22.8945C120.332 22.4284 120.665 22.0664 121.095 21.8086C121.524 21.5508 122.032 21.4219 122.618 21.4219C123.204 21.4219 123.712 21.5508 124.142 21.8086C124.571 22.0664 124.903 22.4284 125.138 22.8945C125.375 23.3607 125.493 23.9036 125.493 24.5234C125.493 25.1432 125.375 25.6849 125.138 26.1484C124.903 26.612 124.571 26.9727 124.142 27.2305C123.712 27.4883 123.204 27.6172 122.618 27.6172ZM122.626 26.4844C122.944 26.4844 123.209 26.3971 123.423 26.2227C123.636 26.0456 123.795 25.8086 123.899 25.5117C124.006 25.2148 124.06 24.8841 124.06 24.5195C124.06 24.1523 124.006 23.8203 123.899 23.5234C123.795 23.224 123.636 22.9857 123.423 22.8086C123.209 22.6315 122.944 22.543 122.626 22.543C122.3 22.543 122.03 22.6315 121.813 22.8086C121.6 22.9857 121.44 23.224 121.333 23.5234C121.229 23.8203 121.177 24.1523 121.177 24.5195C121.177 24.8841 121.229 25.2148 121.333 25.5117C121.44 25.8086 121.6 26.0456 121.813 26.2227C122.03 26.3971 122.3 26.4844 122.626 26.4844ZM130.518 24.9766V21.5H131.932V27.5H130.561V26.4336H130.498C130.363 26.7695 130.14 27.0443 129.83 27.2578C129.523 27.4714 129.144 27.5781 128.693 27.5781C128.3 27.5781 127.952 27.4909 127.65 27.3164C127.351 27.1393 127.117 26.8828 126.947 26.5469C126.778 26.2083 126.693 25.7995 126.693 25.3203V21.5H128.107V25.1016C128.107 25.4818 128.212 25.7839 128.42 26.0078C128.628 26.2318 128.902 26.3437 129.24 26.3437C129.449 26.3437 129.65 26.293 129.846 26.1914C130.041 26.0898 130.201 25.9388 130.326 25.7383C130.454 25.5352 130.518 25.2812 130.518 24.9766ZM133.386 27.5V21.5H134.757V22.5H134.819C134.929 22.1536 135.116 21.8867 135.382 21.6992C135.65 21.5091 135.956 21.4141 136.3 21.4141C136.378 21.4141 136.465 21.418 136.562 21.4258C136.66 21.431 136.743 21.4401 136.808 21.4531V22.7539C136.748 22.7331 136.653 22.7148 136.522 22.6992C136.395 22.681 136.271 22.6719 136.151 22.6719C135.894 22.6719 135.662 22.7279 135.456 22.8398C135.253 22.9492 135.093 23.1016 134.976 23.2969C134.858 23.4922 134.8 23.7174 134.8 23.9727V27.5H133.386ZM143.093 27.6172C142.494 27.6172 141.979 27.4857 141.55 27.2227C141.123 26.9596 140.793 26.5964 140.562 26.1328C140.332 25.6667 140.218 25.1302 140.218 24.5234C140.218 23.9141 140.335 23.3763 140.569 22.9102C140.804 22.4414 141.134 22.0768 141.562 21.8164C141.991 21.5534 142.499 21.4219 143.085 21.4219C143.572 21.4219 144.003 21.5117 144.378 21.6914C144.756 21.8685 145.056 22.1198 145.28 22.4453C145.504 22.7682 145.632 23.1458 145.663 23.5781H144.312C144.257 23.2891 144.127 23.0482 143.921 22.8555C143.718 22.6602 143.446 22.5625 143.104 22.5625C142.815 22.5625 142.562 22.6406 142.343 22.7969C142.124 22.9505 141.953 23.1719 141.831 23.4609C141.711 23.75 141.651 24.0964 141.651 24.5C141.651 24.9089 141.711 25.2604 141.831 25.5547C141.951 25.8464 142.119 26.0716 142.335 26.2305C142.554 26.3867 142.81 26.4648 143.104 26.4648C143.313 26.4648 143.499 26.4258 143.663 26.3477C143.83 26.2669 143.969 26.151 144.081 26C144.193 25.849 144.27 25.6654 144.312 25.4492H145.663C145.629 25.8737 145.504 26.25 145.288 26.5781C145.072 26.9036 144.778 27.1589 144.405 27.3437C144.033 27.526 143.595 27.6172 143.093 27.6172ZM148.238 19.5V27.5H146.824V19.5H148.238ZM151.419 27.6211C151.039 27.6211 150.696 27.5534 150.392 27.418C150.09 27.2799 149.85 27.0768 149.673 26.8086C149.498 26.5404 149.411 26.2096 149.411 25.8164C149.411 25.4779 149.474 25.1979 149.599 24.9766C149.724 24.7552 149.894 24.5781 150.11 24.4453C150.326 24.3125 150.57 24.2122 150.841 24.1445C151.114 24.0742 151.397 24.0234 151.688 23.9922C152.04 23.9557 152.325 23.9232 152.544 23.8945C152.763 23.8633 152.922 23.8164 153.021 23.7539C153.122 23.6888 153.173 23.5885 153.173 23.4531V23.4297C153.173 23.1354 153.086 22.9076 152.911 22.7461C152.737 22.5846 152.485 22.5039 152.157 22.5039C151.811 22.5039 151.536 22.5794 151.333 22.7305C151.132 22.8815 150.997 23.0599 150.927 23.2656L149.606 23.0781C149.711 22.7135 149.882 22.4089 150.122 22.1641C150.362 21.9167 150.655 21.7318 151.001 21.6094C151.347 21.4844 151.73 21.4219 152.149 21.4219C152.438 21.4219 152.726 21.4557 153.013 21.5234C153.299 21.5911 153.561 21.7031 153.798 21.8594C154.035 22.013 154.225 22.2227 154.368 22.4883C154.514 22.7539 154.587 23.0859 154.587 23.4844V27.5H153.228V26.6758H153.181C153.095 26.8424 152.974 26.9987 152.817 27.1445C152.664 27.2878 152.47 27.4036 152.235 27.4922C152.004 27.5781 151.731 27.6211 151.419 27.6211ZM151.786 26.582C152.07 26.582 152.316 26.526 152.524 26.4141C152.733 26.2995 152.893 26.1484 153.005 25.9609C153.119 25.7734 153.177 25.569 153.177 25.3477V24.6406C153.132 24.6771 153.057 24.7109 152.95 24.7422C152.846 24.7734 152.729 24.8008 152.599 24.8242C152.468 24.8477 152.34 24.8685 152.212 24.8867C152.084 24.9049 151.974 24.9206 151.88 24.9336C151.669 24.9622 151.48 25.0091 151.313 25.0742C151.147 25.1393 151.015 25.2305 150.919 25.3477C150.823 25.4622 150.774 25.6107 150.774 25.793C150.774 26.0534 150.869 26.25 151.06 26.3828C151.25 26.5156 151.492 26.582 151.786 26.582ZM160.751 23.0859L159.462 23.2266C159.425 23.0964 159.362 22.974 159.271 22.8594C159.182 22.7448 159.062 22.6523 158.911 22.582C158.76 22.5117 158.575 22.4766 158.356 22.4766C158.062 22.4766 157.815 22.5404 157.614 22.668C157.416 22.7956 157.319 22.9609 157.321 23.1641C157.319 23.3385 157.382 23.4805 157.513 23.5898C157.646 23.6992 157.864 23.7891 158.169 23.8594L159.192 24.0781C159.76 24.2005 160.182 24.3945 160.458 24.6602C160.737 24.9258 160.877 25.2734 160.88 25.7031C160.877 26.0807 160.767 26.4141 160.548 26.7031C160.332 26.9896 160.031 27.2135 159.646 27.375C159.26 27.5365 158.817 27.6172 158.317 27.6172C157.583 27.6172 156.992 27.4635 156.544 27.1562C156.096 26.8464 155.829 26.4154 155.743 25.8633L157.122 25.7305C157.185 26.0013 157.317 26.2057 157.521 26.3437C157.724 26.4818 157.988 26.5508 158.313 26.5508C158.649 26.5508 158.919 26.4818 159.122 26.3437C159.328 26.2057 159.431 26.0352 159.431 25.832C159.431 25.6602 159.364 25.5182 159.231 25.4062C159.101 25.2943 158.898 25.2083 158.622 25.1484L157.599 24.9336C157.023 24.8138 156.597 24.612 156.321 24.3281C156.045 24.0417 155.909 23.6797 155.911 23.2422C155.909 22.8724 156.009 22.5521 156.212 22.2812C156.418 22.0078 156.703 21.7969 157.067 21.6484C157.435 21.4974 157.858 21.4219 158.337 21.4219C159.04 21.4219 159.593 21.5716 159.997 21.8711C160.403 22.1706 160.655 22.5755 160.751 23.0859ZM166.788 23.0859L165.499 23.2266C165.463 23.0964 165.399 22.974 165.308 22.8594C165.219 22.7448 165.099 22.6523 164.948 22.582C164.797 22.5117 164.612 22.4766 164.394 22.4766C164.099 22.4766 163.852 22.5404 163.651 22.668C163.453 22.7956 163.356 22.9609 163.358 23.1641C163.356 23.3385 163.42 23.4805 163.55 23.5898C163.683 23.6992 163.901 23.7891 164.206 23.8594L165.229 24.0781C165.797 24.2005 166.219 24.3945 166.495 24.6602C166.774 24.9258 166.914 25.2734 166.917 25.7031C166.914 26.0807 166.804 26.4141 166.585 26.7031C166.369 26.9896 166.068 27.2135 165.683 27.375C165.297 27.5365 164.854 27.6172 164.354 27.6172C163.62 27.6172 163.029 27.4635 162.581 27.1562C162.133 26.8464 161.866 26.4154 161.78 25.8633L163.159 25.7305C163.222 26.0013 163.354 26.2057 163.558 26.3437C163.761 26.4818 164.025 26.5508 164.351 26.5508C164.687 26.5508 164.956 26.4818 165.159 26.3437C165.365 26.2057 165.468 26.0352 165.468 25.832C165.468 25.6602 165.401 25.5182 165.269 25.4062C165.138 25.2943 164.935 25.2083 164.659 25.1484L163.636 24.9336C163.06 24.8138 162.634 24.612 162.358 24.3281C162.082 24.0417 161.946 23.6797 161.948 23.2422C161.946 22.8724 162.046 22.5521 162.249 22.2812C162.455 22.0078 162.74 21.7969 163.104 21.6484C163.472 21.4974 163.895 21.4219 164.374 21.4219C165.077 21.4219 165.631 21.5716 166.034 21.8711C166.44 22.1706 166.692 22.5755 166.788 23.0859ZM171.683 26.5391C171.446 26.5391 171.243 26.4557 171.073 26.2891C170.904 26.1198 170.821 25.9167 170.823 25.6797C170.821 25.4453 170.904 25.2448 171.073 25.0781C171.243 24.9115 171.446 24.8281 171.683 24.8281C171.912 24.8281 172.111 24.9115 172.28 25.0781C172.452 25.2448 172.539 25.4453 172.542 25.6797C172.539 25.8385 172.498 25.9831 172.417 26.1133C172.339 26.2435 172.235 26.3477 172.104 26.4258C171.977 26.5013 171.836 26.5391 171.683 26.5391ZM171.683 22.5742C171.446 22.5742 171.243 22.4909 171.073 22.3242C170.904 22.1549 170.821 21.9518 170.823 21.7148C170.821 21.4805 170.904 21.2799 171.073 21.1133C171.243 20.944 171.446 20.8594 171.683 20.8594C171.912 20.8594 172.111 20.944 172.28 21.1133C172.452 21.2799 172.539 21.4805 172.542 21.7148C172.539 21.8711 172.498 22.0143 172.417 22.1445C172.339 22.2747 172.235 22.3789 172.104 22.457C171.977 22.5352 171.836 22.5742 171.683 22.5742ZM18.5 42.5H15.7891V34.5H18.5547C19.349 34.5 20.0313 34.6602 20.6016 34.9805C21.1745 35.2982 21.6146 35.7552 21.9219 36.3516C22.2292 36.9479 22.3828 37.6615 22.3828 38.4922C22.3828 39.3255 22.2279 40.0417 21.918 40.6406C21.6107 41.2396 21.1667 41.6992 20.5859 42.0195C20.0078 42.3398 19.3125 42.5 18.5 42.5ZM17.2383 41.2461H18.4297C18.987 41.2461 19.4518 41.1445 19.8242 40.9414C20.1966 40.7357 20.4766 40.4297 20.6641 40.0234C20.8516 39.6146 20.9453 39.1042 20.9453 38.4922C20.9453 37.8802 20.8516 37.3724 20.6641 36.9687C20.4766 36.5625 20.1992 36.2591 19.832 36.0586C19.4674 35.8555 19.0143 35.7539 18.4727 35.7539H17.2383V41.2461ZM23.6973 42.5V36.5H25.0684V37.5H25.1309C25.2402 37.1536 25.4277 36.8867 25.6934 36.6992C25.9616 36.5091 26.2676 36.4141 26.6113 36.4141C26.6895 36.4141 26.7767 36.418 26.873 36.4258C26.972 36.431 27.054 36.4401 27.1191 36.4531V37.7539C27.0592 37.7331 26.9642 37.7148 26.834 37.6992C26.7064 37.681 26.5827 37.6719 26.4629 37.6719C26.2051 37.6719 25.9733 37.7279 25.7676 37.8398C25.5645 37.9492 25.4043 38.1016 25.2871 38.2969C25.1699 38.4922 25.1113 38.7174 25.1113 38.9727V42.5H23.6973ZM30.4287 42.6172C29.8428 42.6172 29.335 42.4883 28.9053 42.2305C28.4756 41.9727 28.1423 41.612 27.9053 41.1484C27.6709 40.6849 27.5537 40.1432 27.5537 39.5234C27.5537 38.9036 27.6709 38.3607 27.9053 37.8945C28.1423 37.4284 28.4756 37.0664 28.9053 36.8086C29.335 36.5508 29.8428 36.4219 30.4287 36.4219C31.0146 36.4219 31.5225 36.5508 31.9521 36.8086C32.3818 37.0664 32.7139 37.4284 32.9482 37.8945C33.1852 38.3607 33.3037 38.9036 33.3037 39.5234C33.3037 40.1432 33.1852 40.6849 32.9482 41.1484C32.7139 41.612 32.3818 41.9727 31.9521 42.2305C31.5225 42.4883 31.0146 42.6172 30.4287 42.6172ZM30.4365 41.4844C30.7542 41.4844 31.0199 41.3971 31.2334 41.2227C31.4469 41.0456 31.6058 40.8086 31.71 40.5117C31.8167 40.2148 31.8701 39.8841 31.8701 39.5195C31.8701 39.1523 31.8167 38.8203 31.71 38.5234C31.6058 38.224 31.4469 37.9857 31.2334 37.8086C31.0199 37.6315 30.7542 37.543 30.4365 37.543C30.111 37.543 29.8402 37.6315 29.624 37.8086C29.4105 37.9857 29.2503 38.224 29.1436 38.5234C29.0394 38.8203 28.9873 39.1523 28.9873 39.5195C28.9873 39.8841 29.0394 40.2148 29.1436 40.5117C29.2503 40.8086 29.4105 41.0456 29.624 41.2227C29.8402 41.3971 30.111 41.4844 30.4365 41.4844ZM34.5039 44.75V36.5H35.8945V37.4922H35.9766C36.0495 37.3464 36.1523 37.1914 36.2852 37.0273C36.418 36.8607 36.5977 36.7187 36.8242 36.6016C37.0508 36.4818 37.3398 36.4219 37.6914 36.4219C38.1549 36.4219 38.5729 36.5404 38.9453 36.7773C39.3203 37.0117 39.6172 37.3594 39.8359 37.8203C40.0573 38.2786 40.168 38.8411 40.168 39.5078C40.168 40.1667 40.0599 40.7266 39.8438 41.1875C39.6276 41.6484 39.3333 42 38.9609 42.2422C38.5885 42.4844 38.1667 42.6055 37.6953 42.6055C37.3516 42.6055 37.0664 42.5482 36.8398 42.4336C36.6133 42.319 36.431 42.181 36.293 42.0195C36.1576 41.8555 36.0521 41.7005 35.9766 41.5547H35.918V44.75H34.5039ZM35.8906 39.5C35.8906 39.888 35.9453 40.2279 36.0547 40.5195C36.1667 40.8112 36.3268 41.0391 36.5352 41.2031C36.7461 41.3646 37.0013 41.4453 37.3008 41.4453C37.6133 41.4453 37.875 41.362 38.0859 41.1953C38.2969 41.026 38.4557 40.7956 38.5625 40.5039C38.6719 40.2096 38.7266 39.875 38.7266 39.5C38.7266 39.1276 38.6732 38.7969 38.5664 38.5078C38.4596 38.2187 38.3008 37.9922 38.0898 37.8281C37.8789 37.6641 37.6159 37.582 37.3008 37.582C36.9987 37.582 36.7422 37.6615 36.5313 37.8203C36.3203 37.9792 36.1602 38.2018 36.0508 38.4883C35.944 38.7747 35.8906 39.112 35.8906 39.5ZM45.834 42.6211C45.4538 42.6211 45.1113 42.5534 44.8066 42.418C44.5046 42.2799 44.265 42.0768 44.0879 41.8086C43.9134 41.5404 43.8262 41.2096 43.8262 40.8164C43.8262 40.4779 43.8887 40.1979 44.0137 39.9766C44.1387 39.7552 44.3092 39.5781 44.5254 39.4453C44.7415 39.3125 44.985 39.2122 45.2559 39.1445C45.5293 39.0742 45.8118 39.0234 46.1035 38.9922C46.4551 38.9557 46.7402 38.9232 46.959 38.8945C47.1777 38.8633 47.3366 38.8164 47.4355 38.7539C47.5371 38.6888 47.5879 38.5885 47.5879 38.4531V38.4297C47.5879 38.1354 47.5007 37.9076 47.3262 37.7461C47.1517 37.5846 46.9004 37.5039 46.5723 37.5039C46.2259 37.5039 45.9512 37.5794 45.748 37.7305C45.5475 37.8815 45.4121 38.0599 45.3418 38.2656L44.0215 38.0781C44.1257 37.7135 44.2975 37.4089 44.5371 37.1641C44.7767 36.9167 45.0697 36.7318 45.416 36.6094C45.7624 36.4844 46.1452 36.4219 46.5645 36.4219C46.8535 36.4219 47.1413 36.4557 47.4277 36.5234C47.7142 36.5911 47.9759 36.7031 48.2129 36.8594C48.4499 37.013 48.64 37.2227 48.7832 37.4883C48.929 37.7539 49.002 38.0859 49.002 38.4844V42.5H47.6426V41.6758H47.5957C47.5098 41.8424 47.3887 41.9987 47.2324 42.1445C47.0788 42.2878 46.8848 42.4036 46.6504 42.4922C46.4186 42.5781 46.1465 42.6211 45.834 42.6211ZM46.2012 41.582C46.485 41.582 46.7311 41.526 46.9395 41.4141C47.1478 41.2995 47.3079 41.1484 47.4199 40.9609C47.5345 40.7734 47.5918 40.569 47.5918 40.3477V39.6406C47.5475 39.6771 47.472 39.7109 47.3652 39.7422C47.2611 39.7734 47.1439 39.8008 47.0137 39.8242C46.8835 39.8477 46.7546 39.8685 46.627 39.8867C46.4993 39.9049 46.3887 39.9206 46.2949 39.9336C46.084 39.9622 45.8952 40.0091 45.7285 40.0742C45.5618 40.1393 45.4303 40.2305 45.334 40.3477C45.2376 40.4622 45.1895 40.6107 45.1895 40.793C45.1895 41.0534 45.2845 41.25 45.4746 41.3828C45.6647 41.5156 45.9069 41.582 46.2012 41.582ZM53.1523 42.5V36.5H54.5234V37.5H54.5859C54.6953 37.1536 54.8828 36.8867 55.1484 36.6992C55.4167 36.5091 55.7227 36.4141 56.0664 36.4141C56.1445 36.4141 56.2318 36.418 56.3281 36.4258C56.4271 36.431 56.5091 36.4401 56.5742 36.4531V37.7539C56.5143 37.7331 56.4193 37.7148 56.2891 37.6992C56.1615 37.681 56.0378 37.6719 55.918 37.6719C55.6602 37.6719 55.4284 37.7279 55.2227 37.8398C55.0195 37.9492 54.8594 38.1016 54.7422 38.2969C54.625 38.4922 54.5664 38.7174 54.5664 38.9727V42.5H53.1523ZM59.9229 42.6172C59.3213 42.6172 58.8018 42.4922 58.3643 42.2422C57.9294 41.9896 57.5947 41.6328 57.3604 41.1719C57.126 40.7083 57.0088 40.1628 57.0088 39.5352C57.0088 38.918 57.126 38.3763 57.3604 37.9102C57.5973 37.4414 57.9281 37.0768 58.3525 36.8164C58.777 36.5534 59.2757 36.4219 59.8486 36.4219C60.2184 36.4219 60.5674 36.4818 60.8955 36.6016C61.2262 36.7187 61.5179 36.901 61.7705 37.1484C62.0257 37.3958 62.2262 37.7109 62.3721 38.0937C62.5179 38.474 62.5908 38.9271 62.5908 39.4531V39.8867H57.6729V38.9336H61.2354C61.2327 38.6628 61.1742 38.4219 61.0596 38.2109C60.945 37.9974 60.7848 37.8294 60.5791 37.707C60.376 37.5846 60.139 37.5234 59.8682 37.5234C59.5791 37.5234 59.3252 37.5937 59.1064 37.7344C58.8877 37.8724 58.7171 38.0547 58.5947 38.2812C58.4749 38.5052 58.4137 38.7513 58.4111 39.0195V39.8516C58.4111 40.2005 58.4749 40.5 58.6025 40.75C58.7301 40.9974 58.9085 41.1875 59.1377 41.3203C59.3669 41.4505 59.6351 41.5156 59.9424 41.5156C60.1481 41.5156 60.3343 41.487 60.501 41.4297C60.6676 41.3698 60.8122 41.2826 60.9346 41.168C61.057 41.0534 61.1494 40.9115 61.2119 40.7422L62.5322 40.8906C62.4489 41.2396 62.29 41.5443 62.0557 41.8047C61.8239 42.0625 61.527 42.263 61.165 42.4062C60.8031 42.5469 60.389 42.6172 59.9229 42.6172ZM68.9746 36.5L66.8379 42.5H65.2754L63.1387 36.5H64.6465L66.0254 40.957H66.0879L67.4707 36.5H68.9746ZM69.9531 42.5V36.5H71.3672V42.5H69.9531ZM70.6641 35.6484C70.4401 35.6484 70.2474 35.5742 70.0859 35.4258C69.9245 35.2747 69.8438 35.0937 69.8438 34.8828C69.8438 34.6693 69.9245 34.4883 70.0859 34.3398C70.2474 34.1888 70.4401 34.1133 70.6641 34.1133C70.8906 34.1133 71.0833 34.1888 71.2422 34.3398C71.4036 34.4883 71.4844 34.6693 71.4844 34.8828C71.4844 35.0937 71.4036 35.2747 71.2422 35.4258C71.0833 35.5742 70.8906 35.6484 70.6641 35.6484ZM75.4775 42.6172C74.876 42.6172 74.3564 42.4922 73.9189 42.2422C73.484 41.9896 73.1494 41.6328 72.915 41.1719C72.6807 40.7083 72.5635 40.1628 72.5635 39.5352C72.5635 38.918 72.6807 38.3763 72.915 37.9102C73.152 37.4414 73.4827 37.0768 73.9072 36.8164C74.3317 36.5534 74.8304 36.4219 75.4033 36.4219C75.7731 36.4219 76.1221 36.4818 76.4502 36.6016C76.7809 36.7187 77.0726 36.901 77.3252 37.1484C77.5804 37.3958 77.7809 37.7109 77.9268 38.0937C78.0726 38.474 78.1455 38.9271 78.1455 39.4531V39.8867H73.2275V38.9336H76.79C76.7874 38.6628 76.7288 38.4219 76.6143 38.2109C76.4997 37.9974 76.3395 37.8294 76.1338 37.707C75.9307 37.5846 75.6937 37.5234 75.4229 37.5234C75.1338 37.5234 74.8799 37.5937 74.6611 37.7344C74.4424 37.8724 74.2718 38.0547 74.1494 38.2812C74.0296 38.5052 73.9684 38.7513 73.9658 39.0195V39.8516C73.9658 40.2005 74.0296 40.5 74.1572 40.75C74.2848 40.9974 74.4632 41.1875 74.6924 41.3203C74.9215 41.4505 75.1898 41.5156 75.4971 41.5156C75.7028 41.5156 75.889 41.487 76.0557 41.4297C76.2223 41.3698 76.3669 41.2826 76.4893 41.168C76.6117 41.0534 76.7041 40.9115 76.7666 40.7422L78.0869 40.8906C78.0036 41.2396 77.8447 41.5443 77.6104 41.8047C77.3786 42.0625 77.0817 42.263 76.7197 42.4062C76.3577 42.5469 75.9437 42.6172 75.4775 42.6172ZM80.5479 42.5L78.8525 36.5H80.2939L81.3486 40.7187H81.4033L82.4814 36.5H83.9072L84.9854 40.6953H85.0439L86.083 36.5H87.5283L85.8291 42.5H84.3564L83.2314 38.4453H83.1494L82.0244 42.5H80.5479ZM92.6582 38.9844V42.5H91.2441V34.5H92.627V37.5195H92.6973C92.8379 37.181 93.0553 36.9141 93.3496 36.7187C93.6465 36.5208 94.0241 36.4219 94.4824 36.4219C94.8991 36.4219 95.2624 36.5091 95.5723 36.6836C95.8822 36.8581 96.1217 37.1133 96.291 37.4492C96.4629 37.7852 96.5488 38.1953 96.5488 38.6797V42.5H95.1348V38.8984C95.1348 38.4948 95.0306 38.181 94.8223 37.957C94.6165 37.7305 94.3275 37.6172 93.9551 37.6172C93.7051 37.6172 93.4811 37.6719 93.2832 37.7812C93.0879 37.888 92.9342 38.043 92.8223 38.2461C92.7129 38.4492 92.6582 38.6953 92.6582 38.9844ZM100.646 42.6172C100.045 42.6172 99.5254 42.4922 99.0879 42.2422C98.653 41.9896 98.3184 41.6328 98.084 41.1719C97.8496 40.7083 97.7324 40.1628 97.7324 39.5352C97.7324 38.918 97.8496 38.3763 98.084 37.9102C98.321 37.4414 98.6517 37.0768 99.0762 36.8164C99.5007 36.5534 99.9993 36.4219 100.572 36.4219C100.942 36.4219 101.291 36.4818 101.619 36.6016C101.95 36.7187 102.242 36.901 102.494 37.1484C102.749 37.3958 102.95 37.7109 103.096 38.0937C103.242 38.474 103.314 38.9271 103.314 39.4531V39.8867H98.3965V38.9336H101.959C101.956 38.6628 101.898 38.4219 101.783 38.2109C101.669 37.9974 101.508 37.8294 101.303 37.707C101.1 37.5846 100.863 37.5234 100.592 37.5234C100.303 37.5234 100.049 37.5937 99.8301 37.7344C99.6113 37.8724 99.4408 38.0547 99.3184 38.2812C99.1986 38.5052 99.1374 38.7513 99.1348 39.0195V39.8516C99.1348 40.2005 99.1986 40.5 99.3262 40.75C99.4538 40.9974 99.6322 41.1875 99.8613 41.3203C100.09 41.4505 100.359 41.5156 100.666 41.5156C100.872 41.5156 101.058 41.487 101.225 41.4297C101.391 41.3698 101.536 41.2826 101.658 41.168C101.781 41.0534 101.873 40.9115 101.936 40.7422L103.256 40.8906C103.173 41.2396 103.014 41.5443 102.779 41.8047C102.548 42.0625 102.251 42.263 101.889 42.4062C101.527 42.5469 101.113 42.6172 100.646 42.6172ZM104.511 42.5V36.5H105.882V37.5H105.944C106.054 37.1536 106.241 36.8867 106.507 36.6992C106.775 36.5091 107.081 36.4141 107.425 36.4141C107.503 36.4141 107.59 36.418 107.687 36.4258C107.785 36.431 107.868 36.4401 107.933 36.4531V37.7539C107.873 37.7331 107.778 37.7148 107.647 37.6992C107.52 37.681 107.396 37.6719 107.276 37.6719C107.019 37.6719 106.787 37.7279 106.581 37.8398C106.378 37.9492 106.218 38.1016 106.101 38.2969C105.983 38.4922 105.925 38.7174 105.925 38.9727V42.5H104.511ZM111.281 42.6172C110.68 42.6172 110.16 42.4922 109.723 42.2422C109.288 41.9896 108.953 41.6328 108.719 41.1719C108.484 40.7083 108.367 40.1628 108.367 39.5352C108.367 38.918 108.484 38.3763 108.719 37.9102C108.956 37.4414 109.286 37.0768 109.711 36.8164C110.135 36.5534 110.634 36.4219 111.207 36.4219C111.577 36.4219 111.926 36.4818 112.254 36.6016C112.585 36.7187 112.876 36.901 113.129 37.1484C113.384 37.3958 113.585 37.7109 113.73 38.0937C113.876 38.474 113.949 38.9271 113.949 39.4531V39.8867H109.031V38.9336H112.594C112.591 38.6628 112.533 38.4219 112.418 38.2109C112.303 37.9974 112.143 37.8294 111.938 37.707C111.734 37.5846 111.497 37.5234 111.227 37.5234C110.938 37.5234 110.684 37.5937 110.465 37.7344C110.246 37.8724 110.076 38.0547 109.953 38.2812C109.833 38.5052 109.772 38.7513 109.77 39.0195V39.8516C109.77 40.2005 109.833 40.5 109.961 40.75C110.089 40.9974 110.267 41.1875 110.496 41.3203C110.725 41.4505 110.993 41.5156 111.301 41.5156C111.507 41.5156 111.693 41.487 111.859 41.4297C112.026 41.3698 112.171 41.2826 112.293 41.168C112.415 41.0534 112.508 40.9115 112.57 40.7422L113.891 40.8906C113.807 41.2396 113.648 41.5443 113.414 41.8047C113.182 42.0625 112.885 42.263 112.523 42.4062C112.161 42.5469 111.747 42.6172 111.281 42.6172Z" fill="#7D85C8"/>
<rect x="15.75" y="55.25" width="137.5" height="31.5" rx="11.25" stroke="#06BBFE" stroke-width="1.5"/>
<path d="M52.8154 75.5V67.5H55.8154C56.43 67.5 56.9456 67.6068 57.3623 67.8203C57.7816 68.0339 58.098 68.3333 58.3115 68.7187C58.5277 69.1016 58.6357 69.5482 58.6357 70.0586C58.6357 70.5716 58.5264 71.0169 58.3076 71.3945C58.0915 71.7695 57.7725 72.0599 57.3506 72.2656C56.9287 72.4687 56.4105 72.5703 55.7959 72.5703H53.6592V71.3672H55.6006C55.96 71.3672 56.2542 71.3177 56.4834 71.2187C56.7126 71.1172 56.8818 70.9701 56.9912 70.7773C57.1032 70.582 57.1592 70.3424 57.1592 70.0586C57.1592 69.7747 57.1032 69.5326 56.9912 69.332C56.8792 69.1289 56.7087 68.9753 56.4795 68.8711C56.2503 68.7643 55.9548 68.7109 55.5928 68.7109H54.2646V75.5H52.8154ZM56.9482 71.875L58.9287 75.5H57.3115L55.3662 71.875H56.9482ZM62.4775 75.6172C61.876 75.6172 61.3564 75.4922 60.9189 75.2422C60.484 74.9896 60.1494 74.6328 59.915 74.1719C59.6807 73.7083 59.5635 73.1628 59.5635 72.5352C59.5635 71.918 59.6807 71.3763 59.915 70.9102C60.152 70.4414 60.4827 70.0768 60.9072 69.8164C61.3317 69.5534 61.8304 69.4219 62.4033 69.4219C62.7731 69.4219 63.1221 69.4818 63.4502 69.6016C63.7809 69.7187 64.0726 69.901 64.3252 70.1484C64.5804 70.3958 64.7809 70.7109 64.9268 71.0937C65.0726 71.474 65.1455 71.9271 65.1455 72.4531V72.8867H60.2275V71.9336H63.79C63.7874 71.6628 63.7288 71.4219 63.6143 71.2109C63.4997 70.9974 63.3395 70.8294 63.1338 70.707C62.9307 70.5846 62.6937 70.5234 62.4229 70.5234C62.1338 70.5234 61.8799 70.5937 61.6611 70.7344C61.4424 70.8724 61.2718 71.0547 61.1494 71.2812C61.0296 71.5052 60.9684 71.7513 60.9658 72.0195V72.8516C60.9658 73.2005 61.0296 73.5 61.1572 73.75C61.2848 73.9974 61.4632 74.1875 61.6924 74.3203C61.9215 74.4505 62.1898 74.5156 62.4971 74.5156C62.7028 74.5156 62.889 74.487 63.0557 74.4297C63.2223 74.3698 63.3669 74.2826 63.4893 74.168C63.6117 74.0534 63.7041 73.9115 63.7666 73.7422L65.0869 73.8906C65.0036 74.2396 64.8447 74.5443 64.6104 74.8047C64.3786 75.0625 64.0817 75.263 63.7197 75.4062C63.3577 75.5469 62.9437 75.6172 62.4775 75.6172ZM71.5293 69.5L69.3926 75.5H67.8301L65.6934 69.5H67.2012L68.5801 73.957H68.6426L70.0254 69.5H71.5293ZM72.5078 75.5V69.5H73.9219V75.5H72.5078ZM73.2188 68.6484C72.9948 68.6484 72.8021 68.5742 72.6406 68.4258C72.4792 68.2747 72.3984 68.0937 72.3984 67.8828C72.3984 67.6693 72.4792 67.4883 72.6406 67.3398C72.8021 67.1888 72.9948 67.1133 73.2188 67.1133C73.4453 67.1133 73.638 67.1888 73.7969 67.3398C73.9583 67.4883 74.0391 67.6693 74.0391 67.8828C74.0391 68.0937 73.9583 68.2747 73.7969 68.4258C73.638 68.5742 73.4453 68.6484 73.2188 68.6484ZM78.0322 75.6172C77.4307 75.6172 76.9111 75.4922 76.4736 75.2422C76.0387 74.9896 75.7041 74.6328 75.4697 74.1719C75.2354 73.7083 75.1182 73.1628 75.1182 72.5352C75.1182 71.918 75.2354 71.3763 75.4697 70.9102C75.7067 70.4414 76.0374 70.0768 76.4619 69.8164C76.8864 69.5534 77.3851 69.4219 77.958 69.4219C78.3278 69.4219 78.6768 69.4818 79.0049 69.6016C79.3356 69.7187 79.6273 69.901 79.8799 70.1484C80.1351 70.3958 80.3356 70.7109 80.4814 71.0937C80.6273 71.474 80.7002 71.9271 80.7002 72.4531V72.8867H75.7822V71.9336H79.3447C79.3421 71.6628 79.2835 71.4219 79.1689 71.2109C79.0544 70.9974 78.8942 70.8294 78.6885 70.707C78.4854 70.5846 78.2484 70.5234 77.9775 70.5234C77.6885 70.5234 77.4346 70.5937 77.2158 70.7344C76.9971 70.8724 76.8265 71.0547 76.7041 71.2812C76.5843 71.5052 76.5231 71.7513 76.5205 72.0195V72.8516C76.5205 73.2005 76.5843 73.5 76.7119 73.75C76.8395 73.9974 77.0179 74.1875 77.2471 74.3203C77.4762 74.4505 77.7445 74.5156 78.0518 74.5156C78.2575 74.5156 78.4437 74.487 78.6104 74.4297C78.777 74.3698 78.9215 74.2826 79.0439 74.168C79.1663 74.0534 79.2588 73.9115 79.3213 73.7422L80.6416 73.8906C80.5583 74.2396 80.3994 74.5443 80.165 74.8047C79.9333 75.0625 79.6364 75.263 79.2744 75.4062C78.9124 75.5469 78.4984 75.6172 78.0322 75.6172ZM83.1025 75.5L81.4072 69.5H82.8486L83.9033 73.7187H83.958L85.0361 69.5H86.4619L87.54 73.6953H87.5986L88.6377 69.5H90.083L88.3838 75.5H86.9111L85.7861 71.4453H85.7041L84.5791 75.5H83.1025ZM95.2129 71.9844V75.5H93.7988V67.5H95.1816V70.5195H95.252C95.3926 70.181 95.61 69.9141 95.9043 69.7187C96.2012 69.5208 96.5788 69.4219 97.0371 69.4219C97.4538 69.4219 97.8171 69.5091 98.127 69.6836C98.4368 69.8581 98.6764 70.1133 98.8457 70.4492C99.0176 70.7852 99.1035 71.1953 99.1035 71.6797V75.5H97.6895V71.8984C97.6895 71.4948 97.5853 71.181 97.377 70.957C97.1712 70.7305 96.8822 70.6172 96.5098 70.6172C96.2598 70.6172 96.0358 70.6719 95.8379 70.7812C95.6426 70.888 95.4889 71.043 95.377 71.2461C95.2676 71.4492 95.2129 71.6953 95.2129 71.9844ZM103.201 75.6172C102.6 75.6172 102.08 75.4922 101.643 75.2422C101.208 74.9896 100.873 74.6328 100.639 74.1719C100.404 73.7083 100.287 73.1628 100.287 72.5352C100.287 71.918 100.404 71.3763 100.639 70.9102C100.876 70.4414 101.206 70.0768 101.631 69.8164C102.055 69.5534 102.554 69.4219 103.127 69.4219C103.497 69.4219 103.846 69.4818 104.174 69.6016C104.505 69.7187 104.796 69.901 105.049 70.1484C105.304 70.3958 105.505 70.7109 105.65 71.0937C105.796 71.474 105.869 71.9271 105.869 72.4531V72.8867H100.951V71.9336H104.514C104.511 71.6628 104.452 71.4219 104.338 71.2109C104.223 70.9974 104.063 70.8294 103.857 70.707C103.654 70.5846 103.417 70.5234 103.146 70.5234C102.857 70.5234 102.604 70.5937 102.385 70.7344C102.166 70.8724 101.995 71.0547 101.873 71.2812C101.753 71.5052 101.692 71.7513 101.689 72.0195V72.8516C101.689 73.2005 101.753 73.5 101.881 73.75C102.008 73.9974 102.187 74.1875 102.416 74.3203C102.645 74.4505 102.913 74.5156 103.221 74.5156C103.426 74.5156 103.613 74.487 103.779 74.4297C103.946 74.3698 104.09 74.2826 104.213 74.168C104.335 74.0534 104.428 73.9115 104.49 73.7422L105.811 73.8906C105.727 74.2396 105.568 74.5443 105.334 74.8047C105.102 75.0625 104.805 75.263 104.443 75.4062C104.081 75.5469 103.667 75.6172 103.201 75.6172ZM107.065 75.5V69.5H108.437V70.5H108.499C108.608 70.1536 108.796 69.8867 109.062 69.6992C109.33 69.5091 109.636 69.4141 109.979 69.4141C110.058 69.4141 110.145 69.418 110.241 69.4258C110.34 69.431 110.422 69.4401 110.487 69.4531V70.7539C110.427 70.7331 110.332 70.7148 110.202 70.6992C110.075 70.681 109.951 70.6719 109.831 70.6719C109.573 70.6719 109.341 70.7279 109.136 70.8398C108.933 70.9492 108.772 71.1016 108.655 71.2969C108.538 71.4922 108.479 71.7174 108.479 71.9727V75.5H107.065ZM113.836 75.6172C113.234 75.6172 112.715 75.4922 112.277 75.2422C111.842 74.9896 111.508 74.6328 111.273 74.1719C111.039 73.7083 110.922 73.1628 110.922 72.5352C110.922 71.918 111.039 71.3763 111.273 70.9102C111.51 70.4414 111.841 70.0768 112.266 69.8164C112.69 69.5534 113.189 69.4219 113.762 69.4219C114.132 69.4219 114.48 69.4818 114.809 69.6016C115.139 69.7187 115.431 69.901 115.684 70.1484C115.939 70.3958 116.139 70.7109 116.285 71.0937C116.431 71.474 116.504 71.9271 116.504 72.4531V72.8867H111.586V71.9336H115.148C115.146 71.6628 115.087 71.4219 114.973 71.2109C114.858 70.9974 114.698 70.8294 114.492 70.707C114.289 70.5846 114.052 70.5234 113.781 70.5234C113.492 70.5234 113.238 70.5937 113.02 70.7344C112.801 70.8724 112.63 71.0547 112.508 71.2812C112.388 71.5052 112.327 71.7513 112.324 72.0195V72.8516C112.324 73.2005 112.388 73.5 112.516 73.75C112.643 73.9974 112.822 74.1875 113.051 74.3203C113.28 74.4505 113.548 74.5156 113.855 74.5156C114.061 74.5156 114.247 74.487 114.414 74.4297C114.581 74.3698 114.725 74.2826 114.848 74.168C114.97 74.0534 115.063 73.9115 115.125 73.7422L116.445 73.8906C116.362 74.2396 116.203 74.5443 115.969 74.8047C115.737 75.0625 115.44 75.263 115.078 75.4062C114.716 75.5469 114.302 75.6172 113.836 75.6172Z" fill="#06BBFE"/>
<path d="M164.5 85L167 87.5M170.5 83.5L173 81M168.5 85L171 87.5L177 81" stroke="#06BBFE" stroke-width="1.5" stroke-linecap="round" stroke-linejoin="round"/>
</svg>
