<svg width="207" height="75" viewBox="0 0 207 75" fill="none" xmlns="http://www.w3.org/2000/svg">
<rect width="206.5" height="75" rx="22" fill="#2D3154" fill-opacity="0.34"/>
<path d="M15.4375 20.2148V19H21.8203V20.2148H19.3477V27H17.9102V20.2148H15.4375ZM24.4023 23.4844V27H22.9883V19H24.3711V22.0195H24.4414C24.582 21.681 24.7995 21.4141 25.0938 21.2187C25.3906 21.0208 25.7682 20.9219 26.2266 20.9219C26.6432 20.9219 27.0065 21.0091 27.3164 21.1836C27.6263 21.3581 27.8659 21.6133 28.0352 21.9492C28.207 22.2852 28.293 22.6953 28.293 23.1797V27H26.8789V23.3984C26.8789 22.9948 26.7747 22.681 26.5664 22.457C26.3607 22.2305 26.0716 22.1172 25.6992 22.1172C25.4492 22.1172 25.2253 22.1719 25.0273 22.2812C24.832 22.388 24.6784 22.543 24.5664 22.7461C24.457 22.9492 24.4023 23.1953 24.4023 23.4844ZM31.4609 27.1211C31.0807 27.1211 30.7383 27.0534 30.4336 26.918C30.1315 26.7799 29.8919 26.5768 29.7148 26.3086C29.5404 26.0404 29.4531 25.7096 29.4531 25.3164C29.4531 24.9779 29.5156 24.6979 29.6406 24.4766C29.7656 24.2552 29.9362 24.0781 30.1523 23.9453C30.3685 23.8125 30.612 23.7122 30.8828 23.6445C31.1563 23.5742 31.4388 23.5234 31.7305 23.4922C32.082 23.4557 32.3672 23.4232 32.5859 23.3945C32.8047 23.3633 32.9635 23.3164 33.0625 23.2539C33.1641 23.1888 33.2148 23.0885 33.2148 22.9531V22.9297C33.2148 22.6354 33.1276 22.4076 32.9531 22.2461C32.7786 22.0846 32.5273 22.0039 32.1992 22.0039C31.8529 22.0039 31.5781 22.0794 31.375 22.2305C31.1745 22.3815 31.0391 22.5599 30.9688 22.7656L29.6484 22.5781C29.7526 22.2135 29.9245 21.9089 30.1641 21.6641C30.4036 21.4167 30.6966 21.2318 31.043 21.1094C31.3893 20.9844 31.7721 20.9219 32.1914 20.9219C32.4805 20.9219 32.7682 20.9557 33.0547 21.0234C33.3411 21.0911 33.6029 21.2031 33.8398 21.3594C34.0768 21.513 34.2669 21.7227 34.4102 21.9883C34.556 22.2539 34.6289 22.5859 34.6289 22.9844V27H33.2695V26.1758H33.2227C33.1367 26.3424 33.0156 26.4987 32.8594 26.6445C32.7057 26.7878 32.5117 26.9036 32.2773 26.9922C32.0456 27.0781 31.7734 27.1211 31.4609 27.1211ZM31.8281 26.082C32.112 26.082 32.3581 26.026 32.5664 25.9141C32.7747 25.7995 32.9349 25.6484 33.0469 25.4609C33.1615 25.2734 33.2188 25.069 33.2188 24.8477V24.1406C33.1745 24.1771 33.099 24.2109 32.9922 24.2422C32.888 24.2734 32.7708 24.3008 32.6406 24.3242C32.5104 24.3477 32.3815 24.3685 32.2539 24.3867C32.1263 24.4049 32.0156 24.4206 31.9219 24.4336C31.7109 24.4622 31.5221 24.5091 31.3555 24.5742C31.1888 24.6393 31.0573 24.7305 30.9609 24.8477C30.8646 24.9622 30.8164 25.1107 30.8164 25.293C30.8164 25.5534 30.9115 25.75 31.1016 25.8828C31.2917 26.0156 31.5339 26.082 31.8281 26.082ZM37.4648 23.4844V27H36.0508V21H37.4023V22.0195H37.4727C37.6107 21.6836 37.8307 21.4167 38.1328 21.2187C38.4375 21.0208 38.8138 20.9219 39.2617 20.9219C39.6758 20.9219 40.0365 21.0104 40.3438 21.1875C40.6536 21.3646 40.8932 21.6211 41.0625 21.957C41.2344 22.293 41.319 22.7005 41.3164 23.1797V27H39.9023V23.3984C39.9023 22.9974 39.7982 22.6836 39.5898 22.457C39.3841 22.2305 39.099 22.1172 38.7344 22.1172C38.487 22.1172 38.2669 22.1719 38.0742 22.2812C37.8841 22.388 37.7344 22.543 37.625 22.7461C37.5182 22.9492 37.4648 23.1953 37.4648 23.4844ZM44.043 25.1172L44.0391 23.4102H44.2656L46.4219 21H48.0742L45.4219 23.9531H45.1289L44.043 25.1172ZM42.7539 27V19H44.168V27H42.7539ZM46.5195 27L44.5664 24.2695L45.5195 23.2734L48.2109 27H46.5195ZM52.624 29.25C52.4313 29.25 52.2529 29.2344 52.0889 29.2031C51.9274 29.1745 51.7985 29.1406 51.7021 29.1016L52.0303 28C52.236 28.0599 52.4196 28.0885 52.5811 28.0859C52.7425 28.0833 52.8844 28.0326 53.0068 27.9336C53.1318 27.8372 53.2373 27.6758 53.3232 27.4492L53.4443 27.125L51.2686 21H52.7686L54.1514 25.5312H54.2139L55.6006 21H57.1045L54.7021 27.7266C54.5902 28.0443 54.4417 28.3164 54.2568 28.543C54.0719 28.7721 53.8454 28.9466 53.5771 29.0664C53.3115 29.1888 52.9938 29.25 52.624 29.25ZM60.4961 27.1172C59.9102 27.1172 59.4023 26.9883 58.9727 26.7305C58.543 26.4727 58.2096 26.112 57.9727 25.6484C57.7383 25.1849 57.6211 24.6432 57.6211 24.0234C57.6211 23.4036 57.7383 22.8607 57.9727 22.3945C58.2096 21.9284 58.543 21.5664 58.9727 21.3086C59.4023 21.0508 59.9102 20.9219 60.4961 20.9219C61.082 20.9219 61.5898 21.0508 62.0195 21.3086C62.4492 21.5664 62.7813 21.9284 63.0156 22.3945C63.2526 22.8607 63.3711 23.4036 63.3711 24.0234C63.3711 24.6432 63.2526 25.1849 63.0156 25.6484C62.7813 26.112 62.4492 26.4727 62.0195 26.7305C61.5898 26.9883 61.082 27.1172 60.4961 27.1172ZM60.5039 25.9844C60.8216 25.9844 61.0872 25.8971 61.3008 25.7227C61.5143 25.5456 61.6732 25.3086 61.7773 25.0117C61.8841 24.7148 61.9375 24.3841 61.9375 24.0195C61.9375 23.6523 61.8841 23.3203 61.7773 23.0234C61.6732 22.724 61.5143 22.4857 61.3008 22.3086C61.0872 22.1315 60.8216 22.043 60.5039 22.043C60.1784 22.043 59.9076 22.1315 59.6914 22.3086C59.4779 22.4857 59.3177 22.724 59.2109 23.0234C59.1068 23.3203 59.0547 23.6523 59.0547 24.0195C59.0547 24.3841 59.1068 24.7148 59.2109 25.0117C59.3177 25.3086 59.4779 25.5456 59.6914 25.7227C59.9076 25.8971 60.1784 25.9844 60.5039 25.9844ZM68.3955 24.4766V21H69.8096V27H68.4385V25.9336H68.376C68.2406 26.2695 68.0179 26.5443 67.708 26.7578C67.4007 26.9714 67.0218 27.0781 66.5713 27.0781C66.1781 27.0781 65.8304 26.9909 65.5283 26.8164C65.2288 26.6393 64.9945 26.3828 64.8252 26.0469C64.6559 25.7083 64.5713 25.2995 64.5713 24.8203V21H65.9854V24.6016C65.9854 24.9818 66.0895 25.2839 66.2979 25.5078C66.5062 25.7318 66.7796 25.8437 67.1182 25.8437C67.3265 25.8437 67.5283 25.793 67.7236 25.6914C67.9189 25.5898 68.0791 25.4388 68.2041 25.2383C68.3317 25.0352 68.3955 24.7812 68.3955 24.4766ZM78.7344 22.5859L77.4453 22.7266C77.4089 22.5964 77.3451 22.474 77.2539 22.3594C77.1654 22.2448 77.0456 22.1523 76.8945 22.082C76.7435 22.0117 76.5586 21.9766 76.3398 21.9766C76.0456 21.9766 75.7982 22.0404 75.5977 22.168C75.3997 22.2956 75.3021 22.4609 75.3047 22.6641C75.3021 22.8385 75.3659 22.9805 75.4961 23.0898C75.6289 23.1992 75.8477 23.2891 76.1523 23.3594L77.1758 23.5781C77.7435 23.7005 78.1654 23.8945 78.4414 24.1602C78.7201 24.4258 78.8607 24.7734 78.8633 25.2031C78.8607 25.5807 78.75 25.9141 78.5313 26.2031C78.3151 26.4896 78.0143 26.7135 77.6289 26.875C77.2435 27.0365 76.8008 27.1172 76.3008 27.1172C75.5664 27.1172 74.9753 26.9635 74.5273 26.6562C74.0794 26.3464 73.8125 25.9154 73.7266 25.3633L75.1055 25.2305C75.168 25.5013 75.3008 25.7057 75.5039 25.8437C75.707 25.9818 75.9714 26.0508 76.2969 26.0508C76.6328 26.0508 76.9023 25.9818 77.1055 25.8437C77.3112 25.7057 77.4141 25.5352 77.4141 25.332C77.4141 25.1602 77.3477 25.0182 77.2148 24.9062C77.0846 24.7943 76.8815 24.7083 76.6055 24.6484L75.582 24.4336C75.0065 24.3138 74.5807 24.112 74.3047 23.8281C74.0286 23.5417 73.8919 23.1797 73.8945 22.7422C73.8919 22.3724 73.9922 22.0521 74.1953 21.7812C74.401 21.5078 74.6862 21.2969 75.0508 21.1484C75.418 20.9974 75.8411 20.9219 76.3203 20.9219C77.0234 20.9219 77.5768 21.0716 77.9805 21.3711C78.3867 21.6706 78.638 22.0755 78.7344 22.5859ZM82.6465 27.1172C82.0605 27.1172 81.5527 26.9883 81.123 26.7305C80.6934 26.4727 80.36 26.112 80.123 25.6484C79.8887 25.1849 79.7715 24.6432 79.7715 24.0234C79.7715 23.4036 79.8887 22.8607 80.123 22.3945C80.36 21.9284 80.6934 21.5664 81.123 21.3086C81.5527 21.0508 82.0605 20.9219 82.6465 20.9219C83.2324 20.9219 83.7402 21.0508 84.1699 21.3086C84.5996 21.5664 84.9316 21.9284 85.166 22.3945C85.403 22.8607 85.5215 23.4036 85.5215 24.0234C85.5215 24.6432 85.403 25.1849 85.166 25.6484C84.9316 26.112 84.5996 26.4727 84.1699 26.7305C83.7402 26.9883 83.2324 27.1172 82.6465 27.1172ZM82.6543 25.9844C82.972 25.9844 83.2376 25.8971 83.4512 25.7227C83.6647 25.5456 83.8236 25.3086 83.9277 25.0117C84.0345 24.7148 84.0879 24.3841 84.0879 24.0195C84.0879 23.6523 84.0345 23.3203 83.9277 23.0234C83.8236 22.724 83.6647 22.4857 83.4512 22.3086C83.2376 22.1315 82.972 22.043 82.6543 22.043C82.3288 22.043 82.0579 22.1315 81.8418 22.3086C81.6283 22.4857 81.4681 22.724 81.3613 23.0234C81.2572 23.3203 81.2051 23.6523 81.2051 24.0195C81.2051 24.3841 81.2572 24.7148 81.3613 25.0117C81.4681 25.3086 81.6283 25.5456 81.8418 25.7227C82.0579 25.8971 82.3288 25.9844 82.6543 25.9844ZM89.4502 27V21H90.8018V22.0195H90.8721C90.9971 21.6758 91.2041 21.4076 91.4932 21.2148C91.7822 21.0195 92.1273 20.9219 92.5283 20.9219C92.9346 20.9219 93.277 21.0208 93.5557 21.2187C93.8369 21.4141 94.0348 21.681 94.1494 22.0195H94.2119C94.3447 21.6862 94.5687 21.4206 94.8838 21.2227C95.2015 21.0221 95.5778 20.9219 96.0127 20.9219C96.5648 20.9219 97.0153 21.0964 97.3643 21.4453C97.7132 21.7943 97.8877 22.3034 97.8877 22.9727V27H96.4697V23.1914C96.4697 22.819 96.3708 22.5469 96.1729 22.375C95.9749 22.2005 95.7327 22.1133 95.4463 22.1133C95.1051 22.1133 94.8382 22.2201 94.6455 22.4336C94.4554 22.6445 94.3604 22.9193 94.3604 23.2578V27H92.9736V23.1328C92.9736 22.8229 92.8799 22.5755 92.6924 22.3906C92.5075 22.2057 92.2653 22.1133 91.9658 22.1133C91.7627 22.1133 91.5778 22.1654 91.4111 22.2695C91.2445 22.3711 91.1117 22.5156 91.0127 22.7031C90.9137 22.888 90.8643 23.1042 90.8643 23.3516V27H89.4502ZM103.146 24.4766V21H104.561V27H103.189V25.9336H103.127C102.992 26.2695 102.769 26.5443 102.459 26.7578C102.152 26.9714 101.773 27.0781 101.322 27.0781C100.929 27.0781 100.581 26.9909 100.279 26.8164C99.9798 26.6393 99.7454 26.3828 99.5762 26.0469C99.4069 25.7083 99.3223 25.2995 99.3223 24.8203V21H100.736V24.6016C100.736 24.9818 100.84 25.2839 101.049 25.5078C101.257 25.7318 101.531 25.8437 101.869 25.8437C102.077 25.8437 102.279 25.793 102.475 25.6914C102.67 25.5898 102.83 25.4388 102.955 25.2383C103.083 25.0352 103.146 24.7812 103.146 24.4766ZM108.632 27.1172C108.033 27.1172 107.519 26.9857 107.089 26.7227C106.662 26.4596 106.332 26.0964 106.101 25.6328C105.871 25.1667 105.757 24.6302 105.757 24.0234C105.757 23.4141 105.874 22.8763 106.108 22.4102C106.343 21.9414 106.674 21.5768 107.101 21.3164C107.53 21.0534 108.038 20.9219 108.624 20.9219C109.111 20.9219 109.542 21.0117 109.917 21.1914C110.295 21.3685 110.595 21.6198 110.819 21.9453C111.043 22.2682 111.171 22.6458 111.202 23.0781H109.851C109.796 22.7891 109.666 22.5482 109.46 22.3555C109.257 22.1602 108.985 22.0625 108.644 22.0625C108.354 22.0625 108.101 22.1406 107.882 22.2969C107.663 22.4505 107.493 22.6719 107.37 22.9609C107.25 23.25 107.19 23.5964 107.19 24C107.19 24.4089 107.25 24.7604 107.37 25.0547C107.49 25.3464 107.658 25.5716 107.874 25.7305C108.093 25.8867 108.349 25.9648 108.644 25.9648C108.852 25.9648 109.038 25.9258 109.202 25.8477C109.369 25.7669 109.508 25.651 109.62 25.5C109.732 25.349 109.809 25.1654 109.851 24.9492H111.202C111.168 25.3737 111.043 25.75 110.827 26.0781C110.611 26.4036 110.317 26.6589 109.944 26.8437C109.572 27.026 109.134 27.1172 108.632 27.1172ZM113.777 23.4844V27H112.363V19H113.746V22.0195H113.816C113.957 21.681 114.174 21.4141 114.469 21.2187C114.766 21.0208 115.143 20.9219 115.602 20.9219C116.018 20.9219 116.382 21.0091 116.691 21.1836C117.001 21.3581 117.241 21.6133 117.41 21.9492C117.582 22.2852 117.668 22.6953 117.668 23.1797V27H116.254V23.3984C116.254 22.9948 116.15 22.681 115.941 22.457C115.736 22.2305 115.447 22.1172 115.074 22.1172C114.824 22.1172 114.6 22.1719 114.402 22.2812C114.207 22.388 114.053 22.543 113.941 22.7461C113.832 22.9492 113.777 23.1953 113.777 23.4844ZM124.877 21V22.0937H121.33V21H124.877ZM122.217 27V20.4336C122.217 20.0299 122.3 19.694 122.467 19.4258C122.636 19.1576 122.863 18.957 123.146 18.8242C123.43 18.6914 123.745 18.625 124.092 18.625C124.337 18.625 124.554 18.6445 124.744 18.6836C124.934 18.7227 125.075 18.7578 125.166 18.7891L124.885 19.8828C124.825 19.8646 124.749 19.8464 124.658 19.8281C124.567 19.8073 124.465 19.7969 124.354 19.7969C124.09 19.7969 123.904 19.8607 123.795 19.9883C123.688 20.1133 123.635 20.293 123.635 20.5273V27H122.217ZM128.376 27.1172C127.79 27.1172 127.282 26.9883 126.853 26.7305C126.423 26.4727 126.09 26.112 125.853 25.6484C125.618 25.1849 125.501 24.6432 125.501 24.0234C125.501 23.4036 125.618 22.8607 125.853 22.3945C126.09 21.9284 126.423 21.5664 126.853 21.3086C127.282 21.0508 127.79 20.9219 128.376 20.9219C128.962 20.9219 129.47 21.0508 129.899 21.3086C130.329 21.5664 130.661 21.9284 130.896 22.3945C131.132 22.8607 131.251 23.4036 131.251 24.0234C131.251 24.6432 131.132 25.1849 130.896 25.6484C130.661 26.112 130.329 26.4727 129.899 26.7305C129.47 26.9883 128.962 27.1172 128.376 27.1172ZM128.384 25.9844C128.701 25.9844 128.967 25.8971 129.181 25.7227C129.394 25.5456 129.553 25.3086 129.657 25.0117C129.764 24.7148 129.817 24.3841 129.817 24.0195C129.817 23.6523 129.764 23.3203 129.657 23.0234C129.553 22.724 129.394 22.4857 129.181 22.3086C128.967 22.1315 128.701 22.043 128.384 22.043C128.058 22.043 127.787 22.1315 127.571 22.3086C127.358 22.4857 127.198 22.724 127.091 23.0234C126.987 23.3203 126.935 23.6523 126.935 24.0195C126.935 24.3841 126.987 24.7148 127.091 25.0117C127.198 25.3086 127.358 25.5456 127.571 25.7227C127.787 25.8971 128.058 25.9844 128.384 25.9844ZM132.451 27V21H133.822V22H133.885C133.994 21.6536 134.182 21.3867 134.447 21.1992C134.715 21.0091 135.021 20.9141 135.365 20.9141C135.443 20.9141 135.531 20.918 135.627 20.9258C135.726 20.931 135.808 20.9401 135.873 20.9531V22.2539C135.813 22.2331 135.718 22.2148 135.588 22.1992C135.46 22.181 135.337 22.1719 135.217 22.1719C134.959 22.1719 134.727 22.2279 134.521 22.3398C134.318 22.4492 134.158 22.6016 134.041 22.7969C133.924 22.9922 133.865 23.2174 133.865 23.4727V27H132.451ZM18.7227 36V37.0937H15.2734V36H18.7227ZM16.125 34.5625H17.5391V40.1953C17.5391 40.3854 17.5677 40.5313 17.625 40.6328C17.6849 40.7318 17.763 40.7995 17.8594 40.8359C17.9557 40.8724 18.0625 40.8906 18.1797 40.8906C18.2682 40.8906 18.349 40.8841 18.4219 40.8711C18.4974 40.8581 18.5547 40.8464 18.5938 40.8359L18.832 41.9414C18.7565 41.9674 18.6484 41.9961 18.5078 42.0273C18.3698 42.0586 18.2005 42.0768 18 42.082C17.6458 42.0924 17.3268 42.0391 17.043 41.9219C16.7591 41.8021 16.5339 41.6172 16.3672 41.3672C16.2031 41.1172 16.1224 40.8047 16.125 40.4297V34.5625ZM21.6318 42.1211C21.2516 42.1211 20.9092 42.0534 20.6045 41.918C20.3024 41.7799 20.0628 41.5768 19.8857 41.3086C19.7113 41.0404 19.624 40.7096 19.624 40.3164C19.624 39.9779 19.6865 39.6979 19.8115 39.4766C19.9365 39.2552 20.1071 39.0781 20.3232 38.9453C20.5394 38.8125 20.7829 38.7122 21.0537 38.6445C21.3271 38.5742 21.6097 38.5234 21.9014 38.4922C22.2529 38.4557 22.5381 38.4232 22.7568 38.3945C22.9756 38.3633 23.1344 38.3164 23.2334 38.2539C23.335 38.1888 23.3857 38.0885 23.3857 37.9531V37.9297C23.3857 37.6354 23.2985 37.4076 23.124 37.2461C22.9495 37.0846 22.6982 37.0039 22.3701 37.0039C22.0238 37.0039 21.749 37.0794 21.5459 37.2305C21.3454 37.3815 21.21 37.5599 21.1396 37.7656L19.8193 37.5781C19.9235 37.2135 20.0954 36.9089 20.335 36.6641C20.5745 36.4167 20.8675 36.2318 21.2139 36.1094C21.5602 35.9844 21.943 35.9219 22.3623 35.9219C22.6514 35.9219 22.9391 35.9557 23.2256 36.0234C23.512 36.0911 23.7738 36.2031 24.0107 36.3594C24.2477 36.513 24.4378 36.7227 24.5811 36.9883C24.7269 37.2539 24.7998 37.5859 24.7998 37.9844V42H23.4404V41.1758H23.3936C23.3076 41.3424 23.1865 41.4987 23.0303 41.6445C22.8766 41.7878 22.6826 41.9036 22.4482 41.9922C22.2165 42.0781 21.9443 42.1211 21.6318 42.1211ZM21.999 41.082C22.2829 41.082 22.529 41.026 22.7373 40.9141C22.9456 40.7995 23.1058 40.6484 23.2178 40.4609C23.3324 40.2734 23.3896 40.069 23.3896 39.8477V39.1406C23.3454 39.1771 23.2699 39.2109 23.1631 39.2422C23.0589 39.2734 22.9417 39.3008 22.8115 39.3242C22.6813 39.3477 22.5524 39.3685 22.4248 39.3867C22.2972 39.4049 22.1865 39.4206 22.0928 39.4336C21.8818 39.4622 21.693 39.5091 21.5264 39.5742C21.3597 39.6393 21.2282 39.7305 21.1318 39.8477C21.0355 39.9622 20.9873 40.1107 20.9873 40.293C20.9873 40.5534 21.0824 40.75 21.2725 40.8828C21.4626 41.0156 21.7048 41.082 21.999 41.082ZM27.5107 40.1172L27.5068 38.4102H27.7334L29.8896 36H31.542L28.8896 38.9531H28.5967L27.5107 40.1172ZM26.2217 42V34H27.6357V42H26.2217ZM29.9873 42L28.0342 39.2695L28.9873 38.2734L31.6787 42H29.9873ZM32.4844 42V36H33.8984V42H32.4844ZM33.1953 35.1484C32.9714 35.1484 32.7786 35.0742 32.6172 34.9258C32.4557 34.7747 32.375 34.5937 32.375 34.3828C32.375 34.1693 32.4557 33.9883 32.6172 33.8398C32.7786 33.6888 32.9714 33.6133 33.1953 33.6133C33.4219 33.6133 33.6146 33.6888 33.7734 33.8398C33.9349 33.9883 34.0156 34.1693 34.0156 34.3828C34.0156 34.5937 33.9349 34.7747 33.7734 34.9258C33.6146 35.0742 33.4219 35.1484 33.1953 35.1484ZM36.7666 38.4844V42H35.3525V36H36.7041V37.0195H36.7744C36.9124 36.6836 37.1325 36.4167 37.4346 36.2187C37.7393 36.0208 38.1156 35.9219 38.5635 35.9219C38.9775 35.9219 39.3382 36.0104 39.6455 36.1875C39.9554 36.3646 40.195 36.6211 40.3643 36.957C40.5361 37.293 40.6208 37.7005 40.6182 38.1797V42H39.2041V38.3984C39.2041 37.9974 39.0999 37.6836 38.8916 37.457C38.6859 37.2305 38.4007 37.1172 38.0361 37.1172C37.7887 37.1172 37.5687 37.1719 37.376 37.2812C37.1859 37.388 37.0361 37.543 36.9268 37.7461C36.82 37.9492 36.7666 38.1953 36.7666 38.4844ZM44.665 44.375C44.1572 44.375 43.721 44.306 43.3564 44.168C42.9919 44.0326 42.6989 43.8503 42.4775 43.6211C42.2562 43.3919 42.1025 43.138 42.0166 42.8594L43.29 42.5508C43.3473 42.668 43.4307 42.7839 43.54 42.8984C43.6494 43.0156 43.7965 43.112 43.9814 43.1875C44.1689 43.2656 44.4046 43.3047 44.6885 43.3047C45.0895 43.3047 45.4215 43.207 45.6846 43.0117C45.9476 42.819 46.0791 42.5013 46.0791 42.0586V40.9219H46.0088C45.9359 41.0677 45.8291 41.2174 45.6885 41.3711C45.5505 41.5247 45.3669 41.6536 45.1377 41.7578C44.9111 41.862 44.626 41.9141 44.2822 41.9141C43.8213 41.9141 43.4033 41.806 43.0283 41.5898C42.6559 41.3711 42.359 41.0456 42.1377 40.6133C41.9189 40.1784 41.8096 39.6341 41.8096 38.9805C41.8096 38.3216 41.9189 37.7656 42.1377 37.3125C42.359 36.8568 42.6572 36.5117 43.0322 36.2773C43.4072 36.0404 43.8252 35.9219 44.2861 35.9219C44.6377 35.9219 44.9268 35.9818 45.1533 36.1016C45.3825 36.2187 45.5648 36.3607 45.7002 36.5273C45.8356 36.6914 45.9385 36.8464 46.0088 36.9922H46.0869V36H47.4814V42.0977C47.4814 42.6107 47.359 43.0352 47.1143 43.3711C46.8695 43.707 46.5348 43.9583 46.1104 44.125C45.6859 44.2917 45.2041 44.375 44.665 44.375ZM44.6768 40.8047C44.9762 40.8047 45.2314 40.7318 45.4424 40.5859C45.6533 40.4401 45.8135 40.2305 45.9229 39.957C46.0322 39.6836 46.0869 39.3555 46.0869 38.9727C46.0869 38.5951 46.0322 38.2643 45.9229 37.9805C45.8161 37.6966 45.6572 37.4766 45.4463 37.3203C45.238 37.1615 44.9814 37.082 44.6768 37.082C44.3617 37.082 44.0986 37.1641 43.8877 37.3281C43.6768 37.4922 43.5179 37.7174 43.4111 38.0039C43.3044 38.2878 43.251 38.6107 43.251 38.9727C43.251 39.3398 43.3044 39.6615 43.4111 39.9375C43.5205 40.2109 43.6807 40.4245 43.8916 40.5781C44.1051 40.7292 44.3669 40.8047 44.6768 40.8047ZM54.6553 36V37.0937H51.2061V36H54.6553ZM52.0576 34.5625H53.4717V40.1953C53.4717 40.3854 53.5003 40.5313 53.5576 40.6328C53.6175 40.7318 53.6956 40.7995 53.792 40.8359C53.8883 40.8724 53.9951 40.8906 54.1123 40.8906C54.2008 40.8906 54.2816 40.8841 54.3545 40.8711C54.43 40.8581 54.4873 40.8464 54.5264 40.8359L54.7646 41.9414C54.6891 41.9674 54.5811 41.9961 54.4404 42.0273C54.3024 42.0586 54.1331 42.0768 53.9326 42.082C53.5785 42.0924 53.2594 42.0391 52.9756 41.9219C52.6917 41.8021 52.4665 41.6172 52.2998 41.3672C52.1357 41.1172 52.055 40.8047 52.0576 40.4297V34.5625ZM57.3809 38.4844V42H55.9668V34H57.3496V37.0195H57.4199C57.5605 36.681 57.778 36.4141 58.0723 36.2187C58.3691 36.0208 58.7467 35.9219 59.2051 35.9219C59.6217 35.9219 59.985 36.0091 60.2949 36.1836C60.6048 36.3581 60.8444 36.6133 61.0137 36.9492C61.1855 37.2852 61.2715 37.6953 61.2715 38.1797V42H59.8574V38.3984C59.8574 37.9948 59.7533 37.681 59.5449 37.457C59.3392 37.2305 59.0501 37.1172 58.6777 37.1172C58.4277 37.1172 58.2038 37.1719 58.0059 37.2812C57.8105 37.388 57.6569 37.543 57.5449 37.7461C57.4355 37.9492 57.3809 38.1953 57.3809 38.4844ZM65.3691 42.1172C64.7676 42.1172 64.248 41.9922 63.8105 41.7422C63.3757 41.4896 63.041 41.1328 62.8066 40.6719C62.5723 40.2083 62.4551 39.6628 62.4551 39.0352C62.4551 38.418 62.5723 37.8763 62.8066 37.4102C63.0436 36.9414 63.3743 36.5768 63.7988 36.3164C64.2233 36.0534 64.722 35.9219 65.2949 35.9219C65.6647 35.9219 66.0137 35.9818 66.3418 36.1016C66.6725 36.2187 66.9642 36.401 67.2168 36.6484C67.472 36.8958 67.6725 37.2109 67.8184 37.5937C67.9642 37.974 68.0371 38.4271 68.0371 38.9531V39.3867H63.1191V38.4336H66.6816C66.679 38.1628 66.6204 37.9219 66.5059 37.7109C66.3913 37.4974 66.2311 37.3294 66.0254 37.207C65.8223 37.0846 65.5853 37.0234 65.3145 37.0234C65.0254 37.0234 64.7715 37.0937 64.5527 37.2344C64.334 37.3724 64.1634 37.5547 64.041 37.7812C63.9212 38.0052 63.86 38.2513 63.8574 38.5195V39.3516C63.8574 39.7005 63.9212 40 64.0488 40.25C64.1764 40.4974 64.3548 40.6875 64.584 40.8203C64.8132 40.9505 65.0814 41.0156 65.3887 41.0156C65.5944 41.0156 65.7806 40.987 65.9473 40.9297C66.1139 40.8698 66.2585 40.7826 66.3809 40.668C66.5033 40.5534 66.5957 40.4115 66.6582 40.2422L67.9785 40.3906C67.8952 40.7396 67.7363 41.0443 67.502 41.3047C67.2702 41.5625 66.9733 41.763 66.6113 41.9062C66.2493 42.0469 65.8353 42.1172 65.3691 42.1172ZM74.958 36V37.0937H71.5088V36H74.958ZM72.3604 34.5625H73.7744V40.1953C73.7744 40.3854 73.8031 40.5313 73.8604 40.6328C73.9202 40.7318 73.9984 40.7995 74.0947 40.8359C74.1911 40.8724 74.2979 40.8906 74.415 40.8906C74.5036 40.8906 74.5843 40.8841 74.6572 40.8711C74.7327 40.8581 74.79 40.8464 74.8291 40.8359L75.0674 41.9414C74.9919 41.9674 74.8838 41.9961 74.7432 42.0273C74.6051 42.0586 74.4359 42.0768 74.2354 42.082C73.8812 42.0924 73.5622 42.0391 73.2783 41.9219C72.9945 41.8021 72.7692 41.6172 72.6025 41.3672C72.4385 41.1172 72.3577 40.8047 72.3604 40.4297V34.5625ZM76.1406 42V36H77.5547V42H76.1406ZM76.8516 35.1484C76.6276 35.1484 76.4349 35.0742 76.2734 34.9258C76.112 34.7747 76.0313 34.5937 76.0313 34.3828C76.0313 34.1693 76.112 33.9883 76.2734 33.8398C76.4349 33.6888 76.6276 33.6133 76.8516 33.6133C77.0781 33.6133 77.2708 33.6888 77.4297 33.8398C77.5911 33.9883 77.6719 34.1693 77.6719 34.3828C77.6719 34.5937 77.5911 34.7747 77.4297 34.9258C77.2708 35.0742 77.0781 35.1484 76.8516 35.1484ZM79.0088 42V36H80.3604V37.0195H80.4307C80.5557 36.6758 80.7627 36.4076 81.0518 36.2148C81.3408 36.0195 81.6859 35.9219 82.0869 35.9219C82.4932 35.9219 82.8356 36.0208 83.1143 36.2187C83.3955 36.4141 83.5934 36.681 83.708 37.0195H83.7705C83.9033 36.6862 84.1273 36.4206 84.4424 36.2227C84.7601 36.0221 85.1364 35.9219 85.5713 35.9219C86.1234 35.9219 86.5739 36.0964 86.9229 36.4453C87.2718 36.7943 87.4463 37.3034 87.4463 37.9727V42H86.0283V38.1914C86.0283 37.819 85.9294 37.5469 85.7314 37.375C85.5335 37.2005 85.2913 37.1133 85.0049 37.1133C84.6637 37.1133 84.3968 37.2201 84.2041 37.4336C84.014 37.6445 83.9189 37.9193 83.9189 38.2578V42H82.5322V38.1328C82.5322 37.8229 82.4385 37.5755 82.251 37.3906C82.0661 37.2057 81.8239 37.1133 81.5244 37.1133C81.3213 37.1133 81.1364 37.1654 80.9697 37.2695C80.8031 37.3711 80.6702 37.5156 80.5713 37.7031C80.4723 37.888 80.4229 38.1042 80.4229 38.3516V42H79.0088ZM91.5371 42.1172C90.9355 42.1172 90.416 41.9922 89.9785 41.7422C89.5436 41.4896 89.209 41.1328 88.9746 40.6719C88.7402 40.2083 88.623 39.6628 88.623 39.0352C88.623 38.418 88.7402 37.8763 88.9746 37.4102C89.2116 36.9414 89.5423 36.5768 89.9668 36.3164C90.3913 36.0534 90.89 35.9219 91.4629 35.9219C91.8327 35.9219 92.1816 35.9818 92.5098 36.1016C92.8405 36.2187 93.1322 36.401 93.3848 36.6484C93.64 36.8958 93.8405 37.2109 93.9863 37.5937C94.1322 37.974 94.2051 38.4271 94.2051 38.9531V39.3867H89.2871V38.4336H92.8496C92.847 38.1628 92.7884 37.9219 92.6738 37.7109C92.5592 37.4974 92.3991 37.3294 92.1934 37.207C91.9902 37.0846 91.7533 37.0234 91.4824 37.0234C91.1934 37.0234 90.9395 37.0937 90.7207 37.2344C90.502 37.3724 90.3314 37.5547 90.209 37.7812C90.0892 38.0052 90.028 38.2513 90.0254 38.5195V39.3516C90.0254 39.7005 90.0892 40 90.2168 40.25C90.3444 40.4974 90.5228 40.6875 90.752 40.8203C90.9811 40.9505 91.2493 41.0156 91.5566 41.0156C91.7624 41.0156 91.9486 40.987 92.1152 40.9297C92.2819 40.8698 92.4264 40.7826 92.5488 40.668C92.6712 40.5534 92.7637 40.4115 92.8262 40.2422L94.1465 40.3906C94.0632 40.7396 93.9043 41.0443 93.6699 41.3047C93.4382 41.5625 93.1413 41.763 92.7793 41.9062C92.4173 42.0469 92.0033 42.1172 91.5371 42.1172ZM101.126 36V37.0937H97.6768V36H101.126ZM98.5283 34.5625H99.9424V40.1953C99.9424 40.3854 99.971 40.5313 100.028 40.6328C100.088 40.7318 100.166 40.7995 100.263 40.8359C100.359 40.8724 100.466 40.8906 100.583 40.8906C100.672 40.8906 100.752 40.8841 100.825 40.8711C100.901 40.8581 100.958 40.8464 100.997 40.8359L101.235 41.9414C101.16 41.9674 101.052 41.9961 100.911 42.0273C100.773 42.0586 100.604 42.0768 100.403 42.082C100.049 42.0924 99.7301 42.0391 99.4463 41.9219C99.1624 41.8021 98.9372 41.6172 98.7705 41.3672C98.6064 41.1172 98.5257 40.8047 98.5283 40.4297V34.5625ZM104.861 42.1172C104.275 42.1172 103.768 41.9883 103.338 41.7305C102.908 41.4727 102.575 41.112 102.338 40.6484C102.104 40.1849 101.986 39.6432 101.986 39.0234C101.986 38.4036 102.104 37.8607 102.338 37.3945C102.575 36.9284 102.908 36.5664 103.338 36.3086C103.768 36.0508 104.275 35.9219 104.861 35.9219C105.447 35.9219 105.955 36.0508 106.385 36.3086C106.814 36.5664 107.146 36.9284 107.381 37.3945C107.618 37.8607 107.736 38.4036 107.736 39.0234C107.736 39.6432 107.618 40.1849 107.381 40.6484C107.146 41.112 106.814 41.4727 106.385 41.7305C105.955 41.9883 105.447 42.1172 104.861 42.1172ZM104.869 40.9844C105.187 40.9844 105.452 40.8971 105.666 40.7227C105.88 40.5456 106.038 40.3086 106.143 40.0117C106.249 39.7148 106.303 39.3841 106.303 39.0195C106.303 38.6523 106.249 38.3203 106.143 38.0234C106.038 37.724 105.88 37.4857 105.666 37.3086C105.452 37.1315 105.187 37.043 104.869 37.043C104.544 37.043 104.273 37.1315 104.057 37.3086C103.843 37.4857 103.683 37.724 103.576 38.0234C103.472 38.3203 103.42 38.6523 103.42 39.0195C103.42 39.3841 103.472 39.7148 103.576 40.0117C103.683 40.3086 103.843 40.5456 104.057 40.7227C104.273 40.8971 104.544 40.9844 104.869 40.9844ZM116.407 37.5859L115.118 37.7266C115.082 37.5964 115.018 37.474 114.927 37.3594C114.838 37.2448 114.718 37.1523 114.567 37.082C114.416 37.0117 114.231 36.9766 114.013 36.9766C113.718 36.9766 113.471 37.0404 113.271 37.168C113.073 37.2956 112.975 37.4609 112.978 37.6641C112.975 37.8385 113.039 37.9805 113.169 38.0898C113.302 38.1992 113.521 38.2891 113.825 38.3594L114.849 38.5781C115.416 38.7005 115.838 38.8945 116.114 39.1602C116.393 39.4258 116.534 39.7734 116.536 40.2031C116.534 40.5807 116.423 40.9141 116.204 41.2031C115.988 41.4896 115.687 41.7135 115.302 41.875C114.916 42.0365 114.474 42.1172 113.974 42.1172C113.239 42.1172 112.648 41.9635 112.2 41.6562C111.752 41.3464 111.485 40.9154 111.399 40.3633L112.778 40.2305C112.841 40.5013 112.974 40.7057 113.177 40.8437C113.38 40.9818 113.644 41.0508 113.97 41.0508C114.306 41.0508 114.575 40.9818 114.778 40.8437C114.984 40.7057 115.087 40.5352 115.087 40.332C115.087 40.1602 115.021 40.0182 114.888 39.9062C114.757 39.7943 114.554 39.7083 114.278 39.6484L113.255 39.4336C112.679 39.3138 112.254 39.112 111.978 38.8281C111.701 38.5417 111.565 38.1797 111.567 37.7422C111.565 37.3724 111.665 37.0521 111.868 36.7812C112.074 36.5078 112.359 36.2969 112.724 36.1484C113.091 35.9974 113.514 35.9219 113.993 35.9219C114.696 35.9219 115.25 36.0716 115.653 36.3711C116.06 36.6706 116.311 37.0755 116.407 37.5859ZM119.116 38.4844V42H117.702V34H119.085V37.0195H119.155C119.296 36.681 119.513 36.4141 119.808 36.2187C120.104 36.0208 120.482 35.9219 120.94 35.9219C121.357 35.9219 121.72 36.0091 122.03 36.1836C122.34 36.3581 122.58 36.6133 122.749 36.9492C122.921 37.2852 123.007 37.6953 123.007 38.1797V42H121.593V38.3984C121.593 37.9948 121.489 37.681 121.28 37.457C121.075 37.2305 120.785 37.1172 120.413 37.1172C120.163 37.1172 119.939 37.1719 119.741 37.2812C119.546 37.388 119.392 37.543 119.28 37.7461C119.171 37.9492 119.116 38.1953 119.116 38.4844ZM126.175 42.1211C125.795 42.1211 125.452 42.0534 125.147 41.918C124.845 41.7799 124.606 41.5768 124.429 41.3086C124.254 41.0404 124.167 40.7096 124.167 40.3164C124.167 39.9779 124.229 39.6979 124.354 39.4766C124.479 39.2552 124.65 39.0781 124.866 38.9453C125.082 38.8125 125.326 38.7122 125.597 38.6445C125.87 38.5742 126.153 38.5234 126.444 38.4922C126.796 38.4557 127.081 38.4232 127.3 38.3945C127.519 38.3633 127.677 38.3164 127.776 38.2539C127.878 38.1888 127.929 38.0885 127.929 37.9531V37.9297C127.929 37.6354 127.841 37.4076 127.667 37.2461C127.493 37.0846 127.241 37.0039 126.913 37.0039C126.567 37.0039 126.292 37.0794 126.089 37.2305C125.888 37.3815 125.753 37.5599 125.683 37.7656L124.362 37.5781C124.466 37.2135 124.638 36.9089 124.878 36.6641C125.118 36.4167 125.41 36.2318 125.757 36.1094C126.103 35.9844 126.486 35.9219 126.905 35.9219C127.194 35.9219 127.482 35.9557 127.769 36.0234C128.055 36.0911 128.317 36.2031 128.554 36.3594C128.791 36.513 128.981 36.7227 129.124 36.9883C129.27 37.2539 129.343 37.5859 129.343 37.9844V42H127.983V41.1758H127.937C127.851 41.3424 127.729 41.4987 127.573 41.6445C127.42 41.7878 127.226 41.9036 126.991 41.9922C126.759 42.0781 126.487 42.1211 126.175 42.1211ZM126.542 41.082C126.826 41.082 127.072 41.026 127.28 40.9141C127.489 40.7995 127.649 40.6484 127.761 40.4609C127.875 40.2734 127.933 40.069 127.933 39.8477V39.1406C127.888 39.1771 127.813 39.2109 127.706 39.2422C127.602 39.2734 127.485 39.3008 127.354 39.3242C127.224 39.3477 127.095 39.3685 126.968 39.3867C126.84 39.4049 126.729 39.4206 126.636 39.4336C126.425 39.4622 126.236 39.5091 126.069 39.5742C125.903 39.6393 125.771 39.7305 125.675 39.8477C125.578 39.9622 125.53 40.1107 125.53 40.293C125.53 40.5534 125.625 40.75 125.815 40.8828C126.006 41.0156 126.248 41.082 126.542 41.082ZM130.765 42V36H132.136V37H132.198C132.308 36.6536 132.495 36.3867 132.761 36.1992C133.029 36.0091 133.335 35.9141 133.679 35.9141C133.757 35.9141 133.844 35.918 133.94 35.9258C134.039 35.931 134.121 35.9401 134.187 35.9531V37.2539C134.127 37.2331 134.032 37.2148 133.901 37.1992C133.774 37.181 133.65 37.1719 133.53 37.1719C133.272 37.1719 133.041 37.2279 132.835 37.3398C132.632 37.4492 132.472 37.6016 132.354 37.7969C132.237 37.9922 132.179 38.2174 132.179 38.4727V42H130.765ZM137.535 42.1172C136.934 42.1172 136.414 41.9922 135.977 41.7422C135.542 41.4896 135.207 41.1328 134.973 40.6719C134.738 40.2083 134.621 39.6628 134.621 39.0352C134.621 38.418 134.738 37.8763 134.973 37.4102C135.21 36.9414 135.54 36.5768 135.965 36.3164C136.389 36.0534 136.888 35.9219 137.461 35.9219C137.831 35.9219 138.18 35.9818 138.508 36.1016C138.839 36.2187 139.13 36.401 139.383 36.6484C139.638 36.8958 139.839 37.2109 139.984 37.5937C140.13 37.974 140.203 38.4271 140.203 38.9531V39.3867H135.285V38.4336H138.848C138.845 38.1628 138.786 37.9219 138.672 37.7109C138.557 37.4974 138.397 37.3294 138.191 37.207C137.988 37.0846 137.751 37.0234 137.48 37.0234C137.191 37.0234 136.938 37.0937 136.719 37.2344C136.5 37.3724 136.329 37.5547 136.207 37.7812C136.087 38.0052 136.026 38.2513 136.023 38.5195V39.3516C136.023 39.7005 136.087 40 136.215 40.25C136.342 40.4974 136.521 40.6875 136.75 40.8203C136.979 40.9505 137.247 41.0156 137.555 41.0156C137.76 41.0156 137.947 40.987 138.113 40.9297C138.28 40.8698 138.424 40.7826 138.547 40.668C138.669 40.5534 138.762 40.4115 138.824 40.2422L140.145 40.3906C140.061 40.7396 139.902 41.0443 139.668 41.3047C139.436 41.5625 139.139 41.763 138.777 41.9062C138.415 42.0469 138.001 42.1172 137.535 42.1172ZM145.007 44.25C144.814 44.25 144.636 44.2344 144.472 44.2031C144.31 44.1745 144.181 44.1406 144.085 44.1016L144.413 43C144.619 43.0599 144.802 43.0885 144.964 43.0859C145.125 43.0833 145.267 43.0326 145.39 42.9336C145.515 42.8372 145.62 42.6758 145.706 42.4492L145.827 42.125L143.651 36H145.151L146.534 40.5312H146.597L147.983 36H149.487L147.085 42.7266C146.973 43.0443 146.825 43.3164 146.64 43.543C146.455 43.7721 146.228 43.9466 145.96 44.0664C145.694 44.1888 145.377 44.25 145.007 44.25ZM152.879 42.1172C152.293 42.1172 151.785 41.9883 151.355 41.7305C150.926 41.4727 150.592 41.112 150.355 40.6484C150.121 40.1849 150.004 39.6432 150.004 39.0234C150.004 38.4036 150.121 37.8607 150.355 37.3945C150.592 36.9284 150.926 36.5664 151.355 36.3086C151.785 36.0508 152.293 35.9219 152.879 35.9219C153.465 35.9219 153.973 36.0508 154.402 36.3086C154.832 36.5664 155.164 36.9284 155.398 37.3945C155.635 37.8607 155.754 38.4036 155.754 39.0234C155.754 39.6432 155.635 40.1849 155.398 40.6484C155.164 41.112 154.832 41.4727 154.402 41.7305C153.973 41.9883 153.465 42.1172 152.879 42.1172ZM152.887 40.9844C153.204 40.9844 153.47 40.8971 153.684 40.7227C153.897 40.5456 154.056 40.3086 154.16 40.0117C154.267 39.7148 154.32 39.3841 154.32 39.0195C154.32 38.6523 154.267 38.3203 154.16 38.0234C154.056 37.724 153.897 37.4857 153.684 37.3086C153.47 37.1315 153.204 37.043 152.887 37.043C152.561 37.043 152.29 37.1315 152.074 37.3086C151.861 37.4857 151.701 37.724 151.594 38.0234C151.49 38.3203 151.438 38.6523 151.438 39.0195C151.438 39.3841 151.49 39.7148 151.594 40.0117C151.701 40.3086 151.861 40.5456 152.074 40.7227C152.29 40.8971 152.561 40.9844 152.887 40.9844ZM160.778 39.4766V36H162.192V42H160.821V40.9336H160.759C160.623 41.2695 160.401 41.5443 160.091 41.7578C159.784 41.9714 159.405 42.0781 158.954 42.0781C158.561 42.0781 158.213 41.9909 157.911 41.8164C157.612 41.6393 157.377 41.3828 157.208 41.0469C157.039 40.7083 156.954 40.2995 156.954 39.8203V36H158.368V39.6016C158.368 39.9818 158.472 40.2839 158.681 40.5078C158.889 40.7318 159.162 40.8437 159.501 40.8437C159.709 40.8437 159.911 40.793 160.106 40.6914C160.302 40.5898 160.462 40.4388 160.587 40.2383C160.715 40.0352 160.778 39.7812 160.778 39.4766ZM163.646 42V36H165.018V37H165.08C165.189 36.6536 165.377 36.3867 165.643 36.1992C165.911 36.0091 166.217 35.9141 166.561 35.9141C166.639 35.9141 166.726 35.918 166.822 35.9258C166.921 35.931 167.003 35.9401 167.068 35.9531V37.2539C167.008 37.2331 166.913 37.2148 166.783 37.1992C166.656 37.181 166.532 37.1719 166.412 37.1719C166.154 37.1719 165.923 37.2279 165.717 37.3398C165.514 37.4492 165.354 37.6016 165.236 37.7969C165.119 37.9922 165.061 38.2174 165.061 38.4727V42H163.646ZM18.7656 51V52.0937H15.2187V51H18.7656ZM16.1055 57V50.4336C16.1055 50.0299 16.1888 49.694 16.3555 49.4258C16.5247 49.1576 16.7513 48.957 17.0352 48.8242C17.319 48.6914 17.6341 48.625 17.9805 48.625C18.2253 48.625 18.4427 48.6445 18.6328 48.6836C18.8229 48.7227 18.9635 48.7578 19.0547 48.7891L18.7734 49.8828C18.7135 49.8646 18.638 49.8464 18.5469 49.8281C18.4557 49.8073 18.3542 49.7969 18.2422 49.7969C17.9792 49.7969 17.793 49.8607 17.6836 49.9883C17.5768 50.1133 17.5234 50.293 17.5234 50.5273V57H16.1055ZM22.3037 57.1172C21.7021 57.1172 21.1826 56.9922 20.7451 56.7422C20.3102 56.4896 19.9756 56.1328 19.7412 55.6719C19.5068 55.2083 19.3896 54.6628 19.3896 54.0352C19.3896 53.418 19.5068 52.8763 19.7412 52.4102C19.9782 51.9414 20.3089 51.5768 20.7334 51.3164C21.1579 51.0534 21.6566 50.9219 22.2295 50.9219C22.5993 50.9219 22.9482 50.9818 23.2764 51.1016C23.6071 51.2187 23.8988 51.401 24.1514 51.6484C24.4066 51.8958 24.6071 52.2109 24.7529 52.5937C24.8988 52.974 24.9717 53.4271 24.9717 53.9531V54.3867H20.0537V53.4336H23.6162C23.6136 53.1628 23.555 52.9219 23.4404 52.7109C23.3258 52.4974 23.1657 52.3294 22.96 52.207C22.7568 52.0846 22.5199 52.0234 22.249 52.0234C21.96 52.0234 21.7061 52.0937 21.4873 52.2344C21.2686 52.3724 21.098 52.5547 20.9756 52.7812C20.8558 53.0052 20.7946 53.2513 20.792 53.5195V54.3516C20.792 54.7005 20.8558 55 20.9834 55.25C21.111 55.4974 21.2894 55.6875 21.5186 55.8203C21.7477 55.9505 22.016 56.0156 22.3232 56.0156C22.529 56.0156 22.7152 55.987 22.8818 55.9297C23.0485 55.8698 23.193 55.7826 23.3154 55.668C23.4378 55.5534 23.5303 55.4115 23.5928 55.2422L24.9131 55.3906C24.8298 55.7396 24.6709 56.0443 24.4365 56.3047C24.2048 56.5625 23.9079 56.763 23.5459 56.9062C23.1839 57.0469 22.7699 57.1172 22.3037 57.1172ZM28.8242 57.1172C28.2227 57.1172 27.7031 56.9922 27.2656 56.7422C26.8307 56.4896 26.4961 56.1328 26.2617 55.6719C26.0273 55.2083 25.9102 54.6628 25.9102 54.0352C25.9102 53.418 26.0273 52.8763 26.2617 52.4102C26.4987 51.9414 26.8294 51.5768 27.2539 51.3164C27.6784 51.0534 28.1771 50.9219 28.75 50.9219C29.1198 50.9219 29.4688 50.9818 29.7969 51.1016C30.1276 51.2187 30.4193 51.401 30.6719 51.6484C30.9271 51.8958 31.1276 52.2109 31.2734 52.5937C31.4193 52.974 31.4922 53.4271 31.4922 53.9531V54.3867H26.5742V53.4336H30.1367C30.1341 53.1628 30.0755 52.9219 29.9609 52.7109C29.8464 52.4974 29.6862 52.3294 29.4805 52.207C29.2773 52.0846 29.0404 52.0234 28.7695 52.0234C28.4805 52.0234 28.2266 52.0937 28.0078 52.2344C27.7891 52.3724 27.6185 52.5547 27.4961 52.7812C27.3763 53.0052 27.3151 53.2513 27.3125 53.5195V54.3516C27.3125 54.7005 27.3763 55 27.5039 55.25C27.6315 55.4974 27.8099 55.6875 28.0391 55.8203C28.2682 55.9505 28.5365 56.0156 28.8438 56.0156C29.0495 56.0156 29.2357 55.987 29.4023 55.9297C29.569 55.8698 29.7135 55.7826 29.8359 55.668C29.9583 55.5534 30.0508 55.4115 30.1133 55.2422L31.4336 55.3906C31.3503 55.7396 31.1914 56.0443 30.957 56.3047C30.7253 56.5625 30.4284 56.763 30.0664 56.9062C29.7044 57.0469 29.2904 57.1172 28.8242 57.1172ZM34.915 57.1055C34.4437 57.1055 34.0218 56.9844 33.6494 56.7422C33.277 56.5 32.9827 56.1484 32.7666 55.6875C32.5505 55.2266 32.4424 54.6667 32.4424 54.0078C32.4424 53.3411 32.5518 52.7786 32.7705 52.3203C32.9919 51.8594 33.29 51.5117 33.665 51.2773C34.04 51.0404 34.458 50.9219 34.9189 50.9219C35.2705 50.9219 35.5596 50.9818 35.7861 51.1016C36.0127 51.2187 36.1924 51.3607 36.3252 51.5273C36.458 51.6914 36.5609 51.8464 36.6338 51.9922H36.6924V49H38.1104V57H36.7197V56.0547H36.6338C36.5609 56.2005 36.4554 56.3555 36.3174 56.5195C36.1794 56.681 35.9971 56.819 35.7705 56.9336C35.5439 57.0482 35.2588 57.1055 34.915 57.1055ZM35.3096 55.9453C35.609 55.9453 35.8643 55.8646 36.0752 55.7031C36.2861 55.5391 36.4463 55.3112 36.5557 55.0195C36.665 54.7279 36.7197 54.388 36.7197 54C36.7197 53.612 36.665 53.2747 36.5557 52.9883C36.4489 52.7018 36.29 52.4792 36.0791 52.3203C35.8708 52.1615 35.6143 52.082 35.3096 52.082C34.9945 52.082 34.7314 52.1641 34.5205 52.3281C34.3096 52.4922 34.1507 52.7187 34.0439 53.0078C33.9372 53.2969 33.8838 53.6276 33.8838 54C33.8838 54.375 33.9372 54.7096 34.0439 55.0039C34.1533 55.2956 34.3135 55.526 34.5244 55.6953C34.738 55.862 34.9997 55.9453 35.3096 55.9453ZM39.6797 57V49H41.0938V51.9922H41.1523C41.2253 51.8464 41.3281 51.6914 41.4609 51.5273C41.5937 51.3607 41.7734 51.2187 42 51.1016C42.2266 50.9818 42.5156 50.9219 42.8672 50.9219C43.3307 50.9219 43.7487 51.0404 44.1211 51.2773C44.4961 51.5117 44.793 51.8594 45.0117 52.3203C45.2331 52.7786 45.3438 53.3411 45.3438 54.0078C45.3438 54.6667 45.2357 55.2266 45.0195 55.6875C44.8034 56.1484 44.5091 56.5 44.1367 56.7422C43.7643 56.9844 43.3424 57.1055 42.8711 57.1055C42.5273 57.1055 42.2422 57.0482 42.0156 56.9336C41.7891 56.819 41.6068 56.681 41.4688 56.5195C41.3333 56.3555 41.2279 56.2005 41.1523 56.0547H41.0703V57H39.6797ZM41.0664 54C41.0664 54.388 41.1211 54.7279 41.2305 55.0195C41.3424 55.3112 41.5026 55.5391 41.7109 55.7031C41.9219 55.8646 42.1771 55.9453 42.4766 55.9453C42.7891 55.9453 43.0508 55.862 43.2617 55.6953C43.4727 55.526 43.6315 55.2956 43.7383 55.0039C43.8477 54.7096 43.9023 54.375 43.9023 54C43.9023 53.6276 43.849 53.2969 43.7422 53.0078C43.6354 52.7187 43.4766 52.4922 43.2656 52.3281C43.0547 52.1641 42.7917 52.082 42.4766 52.082C42.1745 52.082 41.918 52.1615 41.707 52.3203C41.4961 52.4792 41.3359 52.7018 41.2266 52.9883C41.1198 53.2747 41.0664 53.612 41.0664 54ZM48.2725 57.1211C47.8923 57.1211 47.5498 57.0534 47.2451 56.918C46.943 56.7799 46.7035 56.5768 46.5264 56.3086C46.3519 56.0404 46.2646 55.7096 46.2646 55.3164C46.2646 54.9779 46.3271 54.6979 46.4521 54.4766C46.5771 54.2552 46.7477 54.0781 46.9639 53.9453C47.18 53.8125 47.4235 53.7122 47.6943 53.6445C47.9678 53.5742 48.2503 53.5234 48.542 53.4922C48.8936 53.4557 49.1787 53.4232 49.3975 53.3945C49.6162 53.3633 49.7751 53.3164 49.874 53.2539C49.9756 53.1888 50.0264 53.0885 50.0264 52.9531V52.9297C50.0264 52.6354 49.9391 52.4076 49.7646 52.2461C49.5902 52.0846 49.3389 52.0039 49.0107 52.0039C48.6644 52.0039 48.3896 52.0794 48.1865 52.2305C47.986 52.3815 47.8506 52.5599 47.7803 52.7656L46.46 52.5781C46.5641 52.2135 46.736 51.9089 46.9756 51.6641C47.2152 51.4167 47.5081 51.2318 47.8545 51.1094C48.2008 50.9844 48.5837 50.9219 49.0029 50.9219C49.292 50.9219 49.5798 50.9557 49.8662 51.0234C50.1527 51.0911 50.4144 51.2031 50.6514 51.3594C50.8883 51.513 51.0785 51.7227 51.2217 51.9883C51.3675 52.2539 51.4404 52.5859 51.4404 52.9844V57H50.0811V56.1758H50.0342C49.9482 56.3424 49.8271 56.4987 49.6709 56.6445C49.5173 56.7878 49.3232 56.9036 49.0889 56.9922C48.8571 57.0781 48.585 57.1211 48.2725 57.1211ZM48.6396 56.082C48.9235 56.082 49.1696 56.026 49.3779 55.9141C49.5863 55.7995 49.7464 55.6484 49.8584 55.4609C49.973 55.2734 50.0303 55.069 50.0303 54.8477V54.1406C49.986 54.1771 49.9105 54.2109 49.8037 54.2422C49.6995 54.2734 49.5824 54.3008 49.4521 54.3242C49.3219 54.3477 49.193 54.3685 49.0654 54.3867C48.9378 54.4049 48.8271 54.4206 48.7334 54.4336C48.5225 54.4622 48.3337 54.5091 48.167 54.5742C48.0003 54.6393 47.8688 54.7305 47.7725 54.8477C47.6761 54.9622 47.6279 55.1107 47.6279 55.293C47.6279 55.5534 47.723 55.75 47.9131 55.8828C48.1032 56.0156 48.3454 56.082 48.6396 56.082ZM55.4795 57.1172C54.8805 57.1172 54.3662 56.9857 53.9365 56.7227C53.5094 56.4596 53.18 56.0964 52.9482 55.6328C52.7191 55.1667 52.6045 54.6302 52.6045 54.0234C52.6045 53.4141 52.7217 52.8763 52.9561 52.4102C53.1904 51.9414 53.5212 51.5768 53.9482 51.3164C54.3779 51.0534 54.8857 50.9219 55.4717 50.9219C55.9587 50.9219 56.3896 51.0117 56.7646 51.1914C57.1423 51.3685 57.443 51.6198 57.667 51.9453C57.891 52.2682 58.0186 52.6458 58.0498 53.0781H56.6982C56.6436 52.7891 56.5133 52.5482 56.3076 52.3555C56.1045 52.1602 55.8324 52.0625 55.4912 52.0625C55.2021 52.0625 54.9482 52.1406 54.7295 52.2969C54.5107 52.4505 54.3402 52.6719 54.2178 52.9609C54.098 53.25 54.0381 53.5964 54.0381 54C54.0381 54.4089 54.098 54.7604 54.2178 55.0547C54.3376 55.3464 54.5055 55.5716 54.7217 55.7305C54.9404 55.8867 55.1969 55.9648 55.4912 55.9648C55.6995 55.9648 55.8857 55.9258 56.0498 55.8477C56.2165 55.7669 56.3558 55.651 56.4678 55.5C56.5798 55.349 56.6566 55.1654 56.6982 54.9492H58.0498C58.016 55.3737 57.891 55.75 57.6748 56.0781C57.4587 56.4036 57.1644 56.6589 56.792 56.8437C56.4196 57.026 55.9821 57.1172 55.4795 57.1172ZM60.5 55.1172L60.4961 53.4102H60.7227L62.8789 51H64.5313L61.8789 53.9531H61.5859L60.5 55.1172ZM59.2109 57V49H60.625V57H59.2109ZM62.9766 57L61.0234 54.2695L61.9766 53.2734L64.668 57H62.9766ZM67.2041 49L67.0752 54.6484H65.8174L65.6924 49H67.2041ZM66.4463 57.0859C66.2093 57.0859 66.0062 57.0026 65.8369 56.8359C65.6702 56.6693 65.5869 56.4661 65.5869 56.2266C65.5869 55.9922 65.6702 55.7917 65.8369 55.625C66.0062 55.4583 66.2093 55.375 66.4463 55.375C66.6781 55.375 66.8786 55.4583 67.0479 55.625C67.2197 55.7917 67.3057 55.9922 67.3057 56.2266C67.3057 56.3854 67.2653 56.5299 67.1846 56.6602C67.1064 56.7904 67.0023 56.8945 66.8721 56.9727C66.7445 57.0482 66.6025 57.0859 66.4463 57.0859ZM70.8701 57.77H81.8701V46.77H70.8701V57.77Z" fill="#7D85C8"/>
<path d="M179 57.5L181.5 60M185 56L187.5 53.5M183 57.5L185.5 60L191.5 53.5" stroke="#06BBFE" stroke-width="1.5" stroke-linecap="round" stroke-linejoin="round"/>
</svg>
