<svg width="109" height="44" viewBox="0 0 109 44" fill="none" xmlns="http://www.w3.org/2000/svg">
<rect y="0.5" width="108.5" height="43" rx="21.5" fill="#2D3154" fill-opacity="0.34"/>
<path d="M22.3574 18.5H23.7949V24.125C23.7923 24.6406 23.6829 25.0846 23.4668 25.457C23.2507 25.8268 22.9486 26.112 22.5605 26.3125C22.1751 26.5104 21.7259 26.6094 21.2129 26.6094C20.7441 26.6094 20.3223 26.526 19.9473 26.3594C19.5749 26.1901 19.2793 25.9401 19.0605 25.6094C18.8418 25.2786 18.7324 24.8672 18.7324 24.375H20.1738C20.1764 24.5911 20.2233 24.7773 20.3145 24.9336C20.4082 25.0898 20.5371 25.2096 20.7012 25.293C20.8652 25.3763 21.054 25.418 21.2676 25.418C21.4993 25.418 21.696 25.3698 21.8574 25.2734C22.0189 25.1745 22.1413 25.0286 22.2246 24.8359C22.3105 24.6432 22.3548 24.4062 22.3574 24.125V18.5ZM27.9219 26.6172C27.3359 26.6172 26.8281 26.4883 26.3984 26.2305C25.9688 25.9727 25.6354 25.612 25.3984 25.1484C25.1641 24.6849 25.0469 24.1432 25.0469 23.5234C25.0469 22.9036 25.1641 22.3607 25.3984 21.8945C25.6354 21.4284 25.9688 21.0664 26.3984 20.8086C26.8281 20.5508 27.3359 20.4219 27.9219 20.4219C28.5078 20.4219 29.0156 20.5508 29.4453 20.8086C29.875 21.0664 30.207 21.4284 30.4414 21.8945C30.6784 22.3607 30.7969 22.9036 30.7969 23.5234C30.7969 24.1432 30.6784 24.6849 30.4414 25.1484C30.207 25.612 29.875 25.9727 29.4453 26.2305C29.0156 26.4883 28.5078 26.6172 27.9219 26.6172ZM27.9297 25.4844C28.2474 25.4844 28.513 25.3971 28.7266 25.2227C28.9401 25.0456 29.099 24.8086 29.2031 24.5117C29.3099 24.2148 29.3633 23.8841 29.3633 23.5195C29.3633 23.1523 29.3099 22.8203 29.2031 22.5234C29.099 22.224 28.9401 21.9857 28.7266 21.8086C28.513 21.6315 28.2474 21.543 27.9297 21.543C27.6042 21.543 27.3333 21.6315 27.1172 21.8086C26.9036 21.9857 26.7435 22.224 26.6367 22.5234C26.5326 22.8203 26.4805 23.1523 26.4805 23.5195C26.4805 23.8841 26.5326 24.2148 26.6367 24.5117C26.7435 24.8086 26.9036 25.0456 27.1172 25.2227C27.3333 25.3971 27.6042 25.4844 27.9297 25.4844ZM31.9971 26.5V20.5H33.4111V26.5H31.9971ZM32.708 19.6484C32.484 19.6484 32.2913 19.5742 32.1299 19.4258C31.9684 19.2747 31.8877 19.0937 31.8877 18.8828C31.8877 18.6693 31.9684 18.4883 32.1299 18.3398C32.2913 18.1888 32.484 18.1133 32.708 18.1133C32.9346 18.1133 33.1273 18.1888 33.2861 18.3398C33.4476 18.4883 33.5283 18.6693 33.5283 18.8828C33.5283 19.0937 33.4476 19.2747 33.2861 19.4258C33.1273 19.5742 32.9346 19.6484 32.708 19.6484ZM36.2793 22.9844V26.5H34.8652V20.5H36.2168V21.5195H36.2871C36.4251 21.1836 36.6452 20.9167 36.9473 20.7187C37.252 20.5208 37.6283 20.4219 38.0762 20.4219C38.4902 20.4219 38.8509 20.5104 39.1582 20.6875C39.4681 20.8646 39.7077 21.1211 39.877 21.457C40.0488 21.793 40.1335 22.2005 40.1309 22.6797V26.5H38.7168V22.8984C38.7168 22.4974 38.6126 22.1836 38.4043 21.957C38.1986 21.7305 37.9134 21.6172 37.5488 21.6172C37.3014 21.6172 37.0814 21.6719 36.8887 21.7812C36.6986 21.888 36.5488 22.043 36.4395 22.2461C36.3327 22.4492 36.2793 22.6953 36.2793 22.9844ZM45.7109 22.9844V26.5H44.2969V20.5H45.6484V21.5195H45.7188C45.8568 21.1836 46.0768 20.9167 46.3789 20.7187C46.6836 20.5208 47.0599 20.4219 47.5078 20.4219C47.9219 20.4219 48.2826 20.5104 48.5898 20.6875C48.8997 20.8646 49.1393 21.1211 49.3086 21.457C49.4805 21.793 49.5651 22.2005 49.5625 22.6797V26.5H48.1484V22.8984C48.1484 22.4974 48.0443 22.1836 47.8359 21.957C47.6302 21.7305 47.3451 21.6172 46.9805 21.6172C46.7331 21.6172 46.513 21.6719 46.3203 21.7812C46.1302 21.888 45.9805 22.043 45.8711 22.2461C45.7643 22.4492 45.7109 22.6953 45.7109 22.9844ZM53.6172 26.6172C53.0313 26.6172 52.5234 26.4883 52.0937 26.2305C51.6641 25.9727 51.3307 25.612 51.0938 25.1484C50.8594 24.6849 50.7422 24.1432 50.7422 23.5234C50.7422 22.9036 50.8594 22.3607 51.0938 21.8945C51.3307 21.4284 51.6641 21.0664 52.0937 20.8086C52.5234 20.5508 53.0313 20.4219 53.6172 20.4219C54.2031 20.4219 54.7109 20.5508 55.1406 20.8086C55.5703 21.0664 55.9023 21.4284 56.1367 21.8945C56.3737 22.3607 56.4922 22.9036 56.4922 23.5234C56.4922 24.1432 56.3737 24.6849 56.1367 25.1484C55.9023 25.612 55.5703 25.9727 55.1406 26.2305C54.7109 26.4883 54.2031 26.6172 53.6172 26.6172ZM53.625 25.4844C53.9427 25.4844 54.2083 25.3971 54.4219 25.2227C54.6354 25.0456 54.7943 24.8086 54.8984 24.5117C55.0052 24.2148 55.0586 23.8841 55.0586 23.5195C55.0586 23.1523 55.0052 22.8203 54.8984 22.5234C54.7943 22.224 54.6354 21.9857 54.4219 21.8086C54.2083 21.6315 53.9427 21.543 53.625 21.543C53.2995 21.543 53.0286 21.6315 52.8125 21.8086C52.599 21.9857 52.4388 22.224 52.332 22.5234C52.2279 22.8203 52.1758 23.1523 52.1758 23.5195C52.1758 23.8841 52.2279 24.2148 52.332 24.5117C52.4388 24.8086 52.599 25.0456 52.8125 25.2227C53.0286 25.3971 53.2995 25.4844 53.625 25.4844ZM58.7588 26.5L57.0635 20.5H58.5049L59.5596 24.7187H59.6143L60.6924 20.5H62.1182L63.1963 24.6953H63.2549L64.2939 20.5H65.7393L64.04 26.5H62.5674L61.4424 22.4453H61.3604L60.2354 26.5H58.7588Z" fill="#7D85C8"/>
<path d="M81 26L83.5 28.5M87 24.5L89.5 22M85 26L87.5 28.5L93.5 22" stroke="#06BBFE" stroke-width="1.5" stroke-linecap="round" stroke-linejoin="round"/>
</svg>
