<svg width="47" height="52" viewBox="0 0 47 52" fill="none" xmlns="http://www.w3.org/2000/svg">
<g opacity="0.5">
<rect x="0.5" y="0.5" width="45.038" height="50.8673" rx="17.5" fill="#2D3154" fill-opacity="0.34"/>
<rect x="0.5" y="0.5" width="45.038" height="50.8673" rx="17.5" stroke="#4B528E"/>
<g filter="url(#filter0_i_2229_56767)">
<path d="M26.6881 15.3463C26.6957 14.9097 26.6162 14.4758 26.4544 14.0702C26.2926 13.6645 26.0515 13.2952 25.7454 12.9837C25.4393 12.6722 25.0742 12.4248 24.6714 12.2559C24.2687 12.087 23.8363 12 23.3996 12C22.9628 12 22.5304 12.087 22.1277 12.2559C21.7249 12.4248 21.3598 12.6722 21.0537 12.9837C20.7476 13.2952 20.5066 13.6645 20.3447 14.0702C20.1829 14.4758 20.1034 14.9097 20.1111 15.3463V19.1313C20.1104 19.4533 20.1347 19.7753 20.1841 20.0973C20.2034 20.2147 20.2191 20.332 20.2311 20.4493C20.2671 20.8193 20.2231 21.3033 19.9711 21.6293L20.5731 22.2093C19.0412 22.9942 17.756 24.1871 16.8594 25.6564C15.9627 27.1257 15.4896 28.8141 15.4921 30.5353C15.4912 31.4935 15.6369 32.4462 15.9241 33.3603L16.9211 39.8673H25.0221V39.8643C30.0251 39.7563 34.0391 36.4943 34.0391 30.5343C34.0391 27.0323 32.3621 24.2123 29.8251 22.6223L29.8311 22.6173C29.6581 22.4973 29.4541 22.3743 29.2361 22.2433H29.2341C28.5141 21.8113 27.6341 21.2833 27.1711 20.4213C26.7681 19.6743 26.6911 18.4613 26.6911 17.8983H26.6881V15.3463Z" fill="url(#paint0_linear_2229_56767)"/>
</g>
<path d="M26.6881 15.3463C26.6957 14.9097 26.6162 14.4758 26.4544 14.0702C26.2926 13.6645 26.0515 13.2952 25.7454 12.9837C25.4393 12.6722 25.0742 12.4248 24.6714 12.2559C24.2687 12.087 23.8363 12 23.3996 12C22.9628 12 22.5304 12.087 22.1277 12.2559C21.7249 12.4248 21.3598 12.6722 21.0537 12.9837C20.7476 13.2952 20.5066 13.6645 20.3447 14.0702C20.1829 14.4758 20.1034 14.9097 20.1111 15.3463V19.1313C20.1104 19.4533 20.1347 19.7753 20.1841 20.0973C20.2034 20.2147 20.2191 20.332 20.2311 20.4493C20.2671 20.8193 20.2231 21.3033 19.9711 21.6293L20.5731 22.2093C19.0412 22.9942 17.756 24.1871 16.8594 25.6564C15.9627 27.1257 15.4896 28.8141 15.4921 30.5353C15.4912 31.4935 15.6369 32.4462 15.9241 33.3603L16.9211 39.8673H25.0221V39.8643C30.0251 39.7563 34.0391 36.4943 34.0391 30.5343C34.0391 27.0323 32.3621 24.2123 29.8251 22.6223L29.8311 22.6173C29.6581 22.4973 29.4541 22.3743 29.2361 22.2433H29.2341C28.5141 21.8113 27.6341 21.2833 27.1711 20.4213C26.7681 19.6743 26.6911 18.4613 26.6911 17.8983H26.6881V15.3463Z" fill="url(#paint1_radial_2229_56767)"/>
<path d="M26.6881 15.3463C26.6957 14.9097 26.6162 14.4758 26.4544 14.0702C26.2926 13.6645 26.0515 13.2952 25.7454 12.9837C25.4393 12.6722 25.0742 12.4248 24.6714 12.2559C24.2687 12.087 23.8363 12 23.3996 12C22.9628 12 22.5304 12.087 22.1277 12.2559C21.7249 12.4248 21.3598 12.6722 21.0537 12.9837C20.7476 13.2952 20.5066 13.6645 20.3447 14.0702C20.1829 14.4758 20.1034 14.9097 20.1111 15.3463V19.1313C20.1104 19.4533 20.1347 19.7753 20.1841 20.0973C20.2034 20.2147 20.2191 20.332 20.2311 20.4493C20.2671 20.8193 20.2231 21.3033 19.9711 21.6293L20.5731 22.2093C19.0412 22.9942 17.756 24.1871 16.8594 25.6564C15.9627 27.1257 15.4896 28.8141 15.4921 30.5353C15.4912 31.4935 15.6369 32.4462 15.9241 33.3603L16.9211 39.8673H25.0221V39.8643C30.0251 39.7563 34.0391 36.4943 34.0391 30.5343C34.0391 27.0323 32.3621 24.2123 29.8251 22.6223L29.8311 22.6173C29.6581 22.4973 29.4541 22.3743 29.2361 22.2433H29.2341C28.5141 21.8113 27.6341 21.2833 27.1711 20.4213C26.7681 19.6743 26.6911 18.4613 26.6911 17.8983H26.6881V15.3463Z" fill="url(#paint2_radial_2229_56767)"/>
<path d="M26.6881 15.3463C26.6957 14.9097 26.6162 14.4758 26.4544 14.0702C26.2926 13.6645 26.0515 13.2952 25.7454 12.9837C25.4393 12.6722 25.0742 12.4248 24.6714 12.2559C24.2687 12.087 23.8363 12 23.3996 12C22.9628 12 22.5304 12.087 22.1277 12.2559C21.7249 12.4248 21.3598 12.6722 21.0537 12.9837C20.7476 13.2952 20.5066 13.6645 20.3447 14.0702C20.1829 14.4758 20.1034 14.9097 20.1111 15.3463V19.1313C20.1104 19.4533 20.1347 19.7753 20.1841 20.0973C20.2034 20.2147 20.2191 20.332 20.2311 20.4493C20.2671 20.8193 20.2231 21.3033 19.9711 21.6293L20.5731 22.2093C19.0412 22.9942 17.756 24.1871 16.8594 25.6564C15.9627 27.1257 15.4896 28.8141 15.4921 30.5353C15.4912 31.4935 15.6369 32.4462 15.9241 33.3603L16.9211 39.8673H25.0221V39.8643C30.0251 39.7563 34.0391 36.4943 34.0391 30.5343C34.0391 27.0323 32.3621 24.2123 29.8251 22.6223L29.8311 22.6173C29.6581 22.4973 29.4541 22.3743 29.2361 22.2433H29.2341C28.5141 21.8113 27.6341 21.2833 27.1711 20.4213C26.7681 19.6743 26.6911 18.4613 26.6911 17.8983H26.6881V15.3463Z" fill="url(#paint3_radial_2229_56767)"/>
<path d="M26.6881 15.3463C26.6957 14.9097 26.6162 14.4758 26.4544 14.0702C26.2926 13.6645 26.0515 13.2952 25.7454 12.9837C25.4393 12.6722 25.0742 12.4248 24.6714 12.2559C24.2687 12.087 23.8363 12 23.3996 12C22.9628 12 22.5304 12.087 22.1277 12.2559C21.7249 12.4248 21.3598 12.6722 21.0537 12.9837C20.7476 13.2952 20.5066 13.6645 20.3447 14.0702C20.1829 14.4758 20.1034 14.9097 20.1111 15.3463V19.1313C20.1104 19.4533 20.1347 19.7753 20.1841 20.0973C20.2034 20.2147 20.2191 20.332 20.2311 20.4493C20.2671 20.8193 20.2231 21.3033 19.9711 21.6293L20.5731 22.2093C19.0412 22.9942 17.756 24.1871 16.8594 25.6564C15.9627 27.1257 15.4896 28.8141 15.4921 30.5353C15.4912 31.4935 15.6369 32.4462 15.9241 33.3603L16.9211 39.8673H25.0221V39.8643C30.0251 39.7563 34.0391 36.4943 34.0391 30.5343C34.0391 27.0323 32.3621 24.2123 29.8251 22.6223L29.8311 22.6173C29.6581 22.4973 29.4541 22.3743 29.2361 22.2433H29.2341C28.5141 21.8113 27.6341 21.2833 27.1711 20.4213C26.7681 19.6743 26.6911 18.4613 26.6911 17.8983H26.6881V15.3463Z" fill="url(#paint4_linear_2229_56767)"/>
<g filter="url(#filter1_f_2229_56767)">
<path d="M15.278 24.8972C15.2777 24.562 15.3435 24.23 15.4717 23.9203C15.5998 23.6106 15.7878 23.3291 16.0248 23.0921C16.2619 22.8551 16.5433 22.6671 16.853 22.5389C17.1628 22.4108 17.4948 22.345 17.83 22.3452H20.656C21.18 22.3452 21.6913 22.5065 22.1204 22.8072C22.5496 23.1079 22.8757 23.5333 23.0547 24.0259C23.2336 24.5184 23.2565 25.054 23.1205 25.56C22.9844 26.066 22.6958 26.5179 22.294 26.8542C22.6003 27.085 22.8508 27.3817 23.0269 27.7224C23.2031 28.063 23.3003 28.439 23.3114 28.8223C23.3226 29.2057 23.2473 29.5866 23.0913 29.937C22.9352 30.2873 22.7024 30.5981 22.41 30.8462C22.6926 31.0858 22.9196 31.3841 23.0752 31.7204C23.2308 32.0566 23.3113 32.4227 23.311 32.7932V32.9182C23.311 33.6182 23.031 34.2512 22.575 34.7122C22.9248 35.0584 23.1639 35.5007 23.2619 35.9831C23.3598 36.4654 23.3122 36.9659 23.1251 37.4211C22.938 37.8764 22.6198 38.2657 22.211 38.5397C21.8022 38.8138 21.3211 38.9601 20.829 38.9602H18.025C17.5886 38.9605 17.1599 38.8458 16.782 38.6277C16.4041 38.4095 16.0903 38.0957 15.8724 37.7177C15.6544 37.3397 15.5398 36.9109 15.5403 36.4746C15.5407 36.0383 15.6562 35.6097 15.875 35.2322C15.4347 35.0268 15.0622 34.6999 14.8014 34.29C14.5406 33.88 14.4024 33.4041 14.403 32.9182V32.7932C14.403 32.0032 14.761 31.2972 15.325 30.8292C15.0033 30.55 14.7564 30.1949 14.6066 29.7962C14.4569 29.3974 14.409 28.9676 14.4672 28.5457C14.5255 28.1237 14.6882 27.723 14.9405 27.3798C15.1927 27.0366 15.5267 26.7618 15.912 26.5802C15.5025 26.1153 15.277 25.5168 15.278 24.8972Z" fill="url(#paint5_linear_2229_56767)"/>
</g>
<g filter="url(#filter2_i_2229_56767)">
<path d="M15.91 26.7385C14.3029 26.7385 13 25.4356 13 23.8285C13 22.2213 14.3029 20.9185 15.91 20.9185H19.133C20.7401 20.9185 22.043 22.2213 22.043 23.8285C22.043 25.4356 20.7401 26.7385 19.133 26.7385H15.91Z" fill="url(#paint6_linear_2229_56767)"/>
<path d="M15.91 26.7385C14.3029 26.7385 13 25.4356 13 23.8285C13 22.2213 14.3029 20.9185 15.91 20.9185H19.133C20.7401 20.9185 22.043 22.2213 22.043 23.8285C22.043 25.4356 20.7401 26.7385 19.133 26.7385H15.91Z" fill="url(#paint7_radial_2229_56767)"/>
</g>
<g filter="url(#filter3_i_2229_56767)">
<path d="M16.1328 39.8671C14.5687 39.8671 13.3008 38.5992 13.3008 37.0351C13.3008 35.4711 14.5687 34.2031 16.1328 34.2031H19.3298C20.8939 34.2031 22.1618 35.4711 22.1618 37.0351C22.1618 38.5992 20.8939 39.8671 19.3298 39.8671H16.1328Z" fill="url(#paint8_linear_2229_56767)"/>
<path d="M16.1328 39.8671C14.5687 39.8671 13.3008 38.5992 13.3008 37.0351C13.3008 35.4711 14.5687 34.2031 16.1328 34.2031H19.3298C20.8939 34.2031 22.1618 35.4711 22.1618 37.0351C22.1618 38.5992 20.8939 39.8671 19.3298 39.8671H16.1328Z" fill="url(#paint9_radial_2229_56767)"/>
<path d="M16.1328 39.8671C14.5687 39.8671 13.3008 38.5992 13.3008 37.0351C13.3008 35.4711 14.5687 34.2031 16.1328 34.2031H19.3298C20.8939 34.2031 22.1618 35.4711 22.1618 37.0351C22.1618 38.5992 20.8939 39.8671 19.3298 39.8671H16.1328Z" fill="url(#paint10_radial_2229_56767)"/>
</g>
<path d="M16.1328 39.8671C14.5687 39.8671 13.3008 38.5992 13.3008 37.0351C13.3008 35.4711 14.5687 34.2031 16.1328 34.2031H19.3298C20.8939 34.2031 22.1618 35.4711 22.1618 37.0351C22.1618 38.5992 20.8939 39.8671 19.3298 39.8671H16.1328Z" fill="url(#paint11_linear_2229_56767)"/>
<path d="M16.1328 39.8671C14.5687 39.8671 13.3008 38.5992 13.3008 37.0351C13.3008 35.4711 14.5687 34.2031 16.1328 34.2031H19.3298C20.8939 34.2031 22.1618 35.4711 22.1618 37.0351C22.1618 38.5992 20.8939 39.8671 19.3298 39.8671H16.1328Z" fill="url(#paint12_radial_2229_56767)"/>
<g filter="url(#filter4_f_2229_56767)">
<path d="M14.7039 35.8872H18.5979C19.0055 35.8872 19.3359 36.2176 19.3359 36.6252C19.3359 37.0328 19.0055 37.3632 18.5979 37.3632H14.7039C14.2964 37.3632 13.9659 37.0328 13.9659 36.6252C13.9659 36.2176 14.2964 35.8872 14.7039 35.8872Z" fill="url(#paint13_linear_2229_56767)"/>
</g>
<path d="M14.982 35.8873C13.3351 35.8873 12 34.5523 12 32.9053C12 31.2584 13.3351 29.9233 14.982 29.9233H19.177C20.8239 29.9233 22.159 31.2584 22.159 32.9053C22.159 34.5523 20.8239 35.8873 19.177 35.8873H14.982Z" fill="#C4C4C4" fill-opacity="0.66"/>
<g filter="url(#filter5_i_2229_56767)">
<path d="M12 32.9773V32.8333C12 31.2262 13.3029 29.9233 14.91 29.9233H19.249C20.8561 29.9233 22.159 31.2262 22.159 32.8333V32.9773C22.159 34.5845 20.8561 35.8873 19.249 35.8873H14.91C13.3029 35.8873 12 34.5845 12 32.9773Z" fill="url(#paint14_linear_2229_56767)"/>
<path d="M12 32.9773V32.8333C12 31.2262 13.3029 29.9233 14.91 29.9233H19.249C20.8561 29.9233 22.159 31.2262 22.159 32.8333V32.9773C22.159 34.5845 20.8561 35.8873 19.249 35.8873H14.91C13.3029 35.8873 12 34.5845 12 32.9773Z" fill="url(#paint15_radial_2229_56767)"/>
<path d="M12 32.9773V32.8333C12 31.2262 13.3029 29.9233 14.91 29.9233H19.249C20.8561 29.9233 22.159 31.2262 22.159 32.8333V32.9773C22.159 34.5845 20.8561 35.8873 19.249 35.8873H14.91C13.3029 35.8873 12 34.5845 12 32.9773Z" fill="url(#paint16_radial_2229_56767)"/>
</g>
<g filter="url(#filter6_f_2229_56767)">
<path d="M13.7357 32.0176H18.9847C19.3922 32.0176 19.7227 32.348 19.7227 32.7556C19.7227 33.1632 19.3922 33.4936 18.9847 33.4936H13.7357C13.3281 33.4936 12.9977 33.1632 12.9977 32.7556C12.9977 32.348 13.3281 32.0176 13.7357 32.0176Z" fill="url(#paint17_linear_2229_56767)"/>
</g>
<g filter="url(#filter7_i_2229_56767)">
<path d="M12.0469 28.3952V28.3822C12.0469 26.775 13.3497 25.4722 14.9569 25.4722H19.2509C20.858 25.4722 22.1609 26.775 22.1609 28.3822V28.3952C22.1609 30.0023 20.858 31.3052 19.2509 31.3052H14.9569C13.3497 31.3052 12.0469 30.0023 12.0469 28.3952Z" fill="url(#paint18_linear_2229_56767)"/>
<path d="M12.0469 28.3952V28.3822C12.0469 26.775 13.3497 25.4722 14.9569 25.4722H19.2509C20.858 25.4722 22.1609 26.775 22.1609 28.3822V28.3952C22.1609 30.0023 20.858 31.3052 19.2509 31.3052H14.9569C13.3497 31.3052 12.0469 30.0023 12.0469 28.3952Z" fill="url(#paint19_radial_2229_56767)"/>
</g>
<path d="M23.401 12.0581C24.2729 12.0586 25.1089 12.4052 25.7254 13.0217C26.3419 13.6382 26.6885 14.4742 26.689 15.3461V17.8991L26.691 17.8981C26.691 18.4601 26.769 19.6741 27.171 20.4211C27.636 21.2841 28.515 21.8111 29.235 22.2421C29.455 22.3741 29.659 22.4961 29.832 22.6161C28.837 23.4131 26.8 25.0061 26.75 24.9681C25.5921 24.3418 24.4307 23.7218 23.266 23.1081L23.314 22.4181C22.4573 22.3952 21.6434 22.0389 21.0454 21.425C20.4474 20.8111 20.1125 19.9881 20.112 19.1311V15.3461C20.1126 14.4741 20.4593 13.6379 21.076 13.0214C21.6927 12.4048 22.529 12.0584 23.401 12.0581Z" fill="url(#paint20_radial_2229_56767)"/>
<path d="M23.401 12.0581C24.2729 12.0586 25.1089 12.4052 25.7254 13.0217C26.3419 13.6382 26.6885 14.4742 26.689 15.3461V17.8991L26.691 17.8981C26.691 18.4601 26.769 19.6741 27.171 20.4211C27.636 21.2841 28.515 21.8111 29.235 22.2421C29.455 22.3741 29.659 22.4961 29.832 22.6161C28.837 23.4131 26.8 25.0061 26.75 24.9681C25.5921 24.3418 24.4307 23.7218 23.266 23.1081L23.314 22.4181C22.4573 22.3952 21.6434 22.0389 21.0454 21.425C20.4474 20.8111 20.1125 19.9881 20.112 19.1311V15.3461C20.1126 14.4741 20.4593 13.6379 21.076 13.0214C21.6927 12.4048 22.529 12.0584 23.401 12.0581Z" fill="url(#paint21_radial_2229_56767)"/>
<path d="M25.4795 12.7993C25.8575 13.1074 26.1621 13.4958 26.3711 13.9364C26.58 14.377 26.6881 14.8587 26.6875 15.3463V15.5383H25.2015C25.1956 15.1538 25.2244 14.7696 25.2875 14.3903L25.3045 14.2993C25.3865 13.8513 25.4805 13.3393 25.4795 12.7993Z" fill="#FFBF71"/>
<path d="M25.4795 12.7993C25.8575 13.1074 26.1621 13.4958 26.3711 13.9364C26.58 14.377 26.6881 14.8587 26.6875 15.3463V15.5383H25.2015C25.1956 15.1538 25.2244 14.7696 25.2875 14.3903L25.3045 14.2993C25.3865 13.8513 25.4805 13.3393 25.4795 12.7993Z" fill="url(#paint22_radial_2229_56767)"/>
<g filter="url(#filter8_f_2229_56767)">
<path d="M15.2236 21.7124H18.8436C19.5383 21.7124 20.1016 22.2756 20.1016 22.9704C20.1016 23.6652 19.5383 24.2284 18.8436 24.2284H15.2236C14.5288 24.2284 13.9656 23.6652 13.9656 22.9704C13.9656 22.2756 14.5288 21.7124 15.2236 21.7124Z" fill="url(#paint23_linear_2229_56767)"/>
</g>
<g filter="url(#filter9_f_2229_56767)">
<path d="M14.2579 26.1885H18.9139C19.6086 26.1885 20.1719 26.7517 20.1719 27.4465C20.1719 28.1413 19.6086 28.7045 18.9139 28.7045H14.2579C13.5631 28.7045 12.9999 28.1413 12.9999 27.4465C12.9999 26.7517 13.5631 26.1885 14.2579 26.1885Z" fill="url(#paint24_linear_2229_56767)"/>
</g>
<g filter="url(#filter10_f_2229_56767)">
<path d="M20.9397 14.7333C20.9397 13.9419 21.581 13.3003 22.3722 13.3003C23.1633 13.3003 23.8047 13.9419 23.8047 14.7333V19.8643C23.8047 20.6557 23.1633 21.2973 22.3722 21.2973C21.581 21.2973 20.9397 20.6557 20.9397 19.8643V14.7333Z" fill="url(#paint25_linear_2229_56767)"/>
</g>
</g>
<defs>
<filter id="filter0_i_2229_56767" x="15.4922" y="12" width="19.0469" height="27.8672" filterUnits="userSpaceOnUse" color-interpolation-filters="sRGB">
<feFlood flood-opacity="0" result="BackgroundImageFix"/>
<feBlend mode="normal" in="SourceGraphic" in2="BackgroundImageFix" result="shape"/>
<feColorMatrix in="SourceAlpha" type="matrix" values="0 0 0 0 0 0 0 0 0 0 0 0 0 0 0 0 0 0 127 0" result="hardAlpha"/>
<feOffset dx="0.5"/>
<feGaussianBlur stdDeviation="1"/>
<feComposite in2="hardAlpha" operator="arithmetic" k2="-1" k3="1"/>
<feColorMatrix type="matrix" values="0 0 0 0 0.847059 0 0 0 0 0.458824 0 0 0 0 0.360784 0 0 0 1 0"/>
<feBlend mode="normal" in2="shape" result="effect1_innerShadow_2229_56767"/>
</filter>
<filter id="filter1_f_2229_56767" x="12.4023" y="20.3452" width="12.9102" height="20.6152" filterUnits="userSpaceOnUse" color-interpolation-filters="sRGB">
<feFlood flood-opacity="0" result="BackgroundImageFix"/>
<feBlend mode="normal" in="SourceGraphic" in2="BackgroundImageFix" result="shape"/>
<feGaussianBlur stdDeviation="1" result="effect1_foregroundBlur_2229_56767"/>
</filter>
<filter id="filter2_i_2229_56767" x="13" y="20.9185" width="9.54297" height="5.81982" filterUnits="userSpaceOnUse" color-interpolation-filters="sRGB">
<feFlood flood-opacity="0" result="BackgroundImageFix"/>
<feBlend mode="normal" in="SourceGraphic" in2="BackgroundImageFix" result="shape"/>
<feColorMatrix in="SourceAlpha" type="matrix" values="0 0 0 0 0 0 0 0 0 0 0 0 0 0 0 0 0 0 127 0" result="hardAlpha"/>
<feOffset dx="0.5"/>
<feGaussianBlur stdDeviation="0.75"/>
<feComposite in2="hardAlpha" operator="arithmetic" k2="-1" k3="1"/>
<feColorMatrix type="matrix" values="0 0 0 0 0.878431 0 0 0 0 0.541176 0 0 0 0 0.0627451 0 0 0 1 0"/>
<feBlend mode="normal" in2="shape" result="effect1_innerShadow_2229_56767"/>
</filter>
<filter id="filter3_i_2229_56767" x="13.3008" y="33.7031" width="9.35938" height="6.16406" filterUnits="userSpaceOnUse" color-interpolation-filters="sRGB">
<feFlood flood-opacity="0" result="BackgroundImageFix"/>
<feBlend mode="normal" in="SourceGraphic" in2="BackgroundImageFix" result="shape"/>
<feColorMatrix in="SourceAlpha" type="matrix" values="0 0 0 0 0 0 0 0 0 0 0 0 0 0 0 0 0 0 127 0" result="hardAlpha"/>
<feOffset dx="0.5" dy="-0.5"/>
<feGaussianBlur stdDeviation="0.75"/>
<feComposite in2="hardAlpha" operator="arithmetic" k2="-1" k3="1"/>
<feColorMatrix type="matrix" values="0 0 0 0 0.941176 0 0 0 0 0.643137 0 0 0 0 0.215686 0 0 0 1 0"/>
<feBlend mode="normal" in2="shape" result="effect1_innerShadow_2229_56767"/>
</filter>
<filter id="filter4_f_2229_56767" x="12.7148" y="34.6372" width="7.87109" height="3.97607" filterUnits="userSpaceOnUse" color-interpolation-filters="sRGB">
<feFlood flood-opacity="0" result="BackgroundImageFix"/>
<feBlend mode="normal" in="SourceGraphic" in2="BackgroundImageFix" result="shape"/>
<feGaussianBlur stdDeviation="0.625" result="effect1_foregroundBlur_2229_56767"/>
</filter>
<filter id="filter5_i_2229_56767" x="12" y="29.4233" width="10.6602" height="6.46387" filterUnits="userSpaceOnUse" color-interpolation-filters="sRGB">
<feFlood flood-opacity="0" result="BackgroundImageFix"/>
<feBlend mode="normal" in="SourceGraphic" in2="BackgroundImageFix" result="shape"/>
<feColorMatrix in="SourceAlpha" type="matrix" values="0 0 0 0 0 0 0 0 0 0 0 0 0 0 0 0 0 0 127 0" result="hardAlpha"/>
<feOffset dx="0.5" dy="-0.5"/>
<feGaussianBlur stdDeviation="0.75"/>
<feComposite in2="hardAlpha" operator="arithmetic" k2="-1" k3="1"/>
<feColorMatrix type="matrix" values="0 0 0 0 0.941176 0 0 0 0 0.643137 0 0 0 0 0.215686 0 0 0 1 0"/>
<feBlend mode="normal" in2="shape" result="effect1_innerShadow_2229_56767"/>
</filter>
<filter id="filter6_f_2229_56767" x="11.7461" y="30.7676" width="9.22656" height="3.97607" filterUnits="userSpaceOnUse" color-interpolation-filters="sRGB">
<feFlood flood-opacity="0" result="BackgroundImageFix"/>
<feBlend mode="normal" in="SourceGraphic" in2="BackgroundImageFix" result="shape"/>
<feGaussianBlur stdDeviation="0.625" result="effect1_foregroundBlur_2229_56767"/>
</filter>
<filter id="filter7_i_2229_56767" x="12.0469" y="24.9722" width="10.6133" height="6.33301" filterUnits="userSpaceOnUse" color-interpolation-filters="sRGB">
<feFlood flood-opacity="0" result="BackgroundImageFix"/>
<feBlend mode="normal" in="SourceGraphic" in2="BackgroundImageFix" result="shape"/>
<feColorMatrix in="SourceAlpha" type="matrix" values="0 0 0 0 0 0 0 0 0 0 0 0 0 0 0 0 0 0 127 0" result="hardAlpha"/>
<feOffset dx="0.5" dy="-0.5"/>
<feGaussianBlur stdDeviation="0.75"/>
<feComposite in2="hardAlpha" operator="arithmetic" k2="-1" k3="1"/>
<feColorMatrix type="matrix" values="0 0 0 0 0.941176 0 0 0 0 0.643137 0 0 0 0 0.215686 0 0 0 1 0"/>
<feBlend mode="normal" in2="shape" result="effect1_innerShadow_2229_56767"/>
</filter>
<filter id="filter8_f_2229_56767" x="12.7148" y="20.4624" width="8.63672" height="5.01611" filterUnits="userSpaceOnUse" color-interpolation-filters="sRGB">
<feFlood flood-opacity="0" result="BackgroundImageFix"/>
<feBlend mode="normal" in="SourceGraphic" in2="BackgroundImageFix" result="shape"/>
<feGaussianBlur stdDeviation="0.625" result="effect1_foregroundBlur_2229_56767"/>
</filter>
<filter id="filter9_f_2229_56767" x="11.75" y="24.9385" width="9.67188" height="5.01611" filterUnits="userSpaceOnUse" color-interpolation-filters="sRGB">
<feFlood flood-opacity="0" result="BackgroundImageFix"/>
<feBlend mode="normal" in="SourceGraphic" in2="BackgroundImageFix" result="shape"/>
<feGaussianBlur stdDeviation="0.625" result="effect1_foregroundBlur_2229_56767"/>
</filter>
<filter id="filter10_f_2229_56767" x="19.6914" y="12.0503" width="5.36328" height="10.4971" filterUnits="userSpaceOnUse" color-interpolation-filters="sRGB">
<feFlood flood-opacity="0" result="BackgroundImageFix"/>
<feBlend mode="normal" in="SourceGraphic" in2="BackgroundImageFix" result="shape"/>
<feGaussianBlur stdDeviation="0.625" result="effect1_foregroundBlur_2229_56767"/>
</filter>
<linearGradient id="paint0_linear_2229_56767" x1="19.7021" y1="16.8273" x2="29.7651" y2="38.0153" gradientUnits="userSpaceOnUse">
<stop stop-color="#FFCA44"/>
<stop offset="1" stop-color="#F8A528"/>
</linearGradient>
<radialGradient id="paint1_radial_2229_56767" cx="0" cy="0" r="1" gradientUnits="userSpaceOnUse" gradientTransform="translate(18.5159 15.0334) rotate(38.884) scale(5.01564 14.8034)">
<stop stop-color="#FFE34C"/>
<stop offset="1" stop-color="#FFE34C" stop-opacity="0"/>
</radialGradient>
<radialGradient id="paint2_radial_2229_56767" cx="0" cy="0" r="1" gradientUnits="userSpaceOnUse" gradientTransform="translate(27.6475 25.9634) rotate(54.809) scale(7.43021 5.38256)">
<stop stop-color="#FFCA2E"/>
<stop offset="1" stop-color="#FFCA2E" stop-opacity="0"/>
</radialGradient>
<radialGradient id="paint3_radial_2229_56767" cx="0" cy="0" r="1" gradientUnits="userSpaceOnUse" gradientTransform="translate(19.5861 28.3193) rotate(33.257) scale(16.1907 28.3343)">
<stop offset="0.681" stop-color="#E18E3F" stop-opacity="0"/>
<stop offset="1" stop-color="#E18E3F"/>
</radialGradient>
<linearGradient id="paint4_linear_2229_56767" x1="24.7661" y1="35.7503" x2="24.7661" y2="40.8513" gradientUnits="userSpaceOnUse">
<stop stop-color="#D8796F" stop-opacity="0"/>
<stop offset="1" stop-color="#D8796F"/>
</linearGradient>
<linearGradient id="paint5_linear_2229_56767" x1="18.857" y1="22.3452" x2="18.857" y2="35.6332" gradientUnits="userSpaceOnUse">
<stop stop-color="#D1730B"/>
<stop offset="1" stop-color="#E27D47"/>
</linearGradient>
<linearGradient id="paint6_linear_2229_56767" x1="13" y1="23.8285" x2="22.044" y2="23.8285" gradientUnits="userSpaceOnUse">
<stop stop-color="#FFDB44"/>
<stop offset="1" stop-color="#F9A928"/>
</linearGradient>
<radialGradient id="paint7_radial_2229_56767" cx="0" cy="0" r="1" gradientUnits="userSpaceOnUse" gradientTransform="translate(20.573 26.4085) rotate(-37.367) scale(2.3211 1.55367)">
<stop stop-color="#D98320"/>
<stop offset="1" stop-color="#D98320" stop-opacity="0"/>
</radialGradient>
<linearGradient id="paint8_linear_2229_56767" x1="14.0768" y1="37.0341" x2="22.1618" y2="37.0341" gradientUnits="userSpaceOnUse">
<stop stop-color="#FFDB44"/>
<stop offset="1" stop-color="#F9A928"/>
</linearGradient>
<radialGradient id="paint9_radial_2229_56767" cx="0" cy="0" r="1" gradientUnits="userSpaceOnUse" gradientTransform="translate(20.3668 39.8661) rotate(180) scale(7.31347 2.78222)">
<stop stop-color="#F29545"/>
<stop offset="1" stop-color="#F29545" stop-opacity="0"/>
</radialGradient>
<radialGradient id="paint10_radial_2229_56767" cx="0" cy="0" r="1" gradientUnits="userSpaceOnUse" gradientTransform="translate(20.7178 35.1961) rotate(180) scale(7.4169 1.99096)">
<stop stop-color="#DA810B"/>
<stop offset="1" stop-color="#FFB610" stop-opacity="0"/>
</radialGradient>
<linearGradient id="paint11_linear_2229_56767" x1="17.7318" y1="40.4501" x2="17.7318" y2="38.6181" gradientUnits="userSpaceOnUse">
<stop stop-color="#DC7C6A"/>
<stop offset="1" stop-color="#DC7C6A" stop-opacity="0"/>
</linearGradient>
<radialGradient id="paint12_radial_2229_56767" cx="0" cy="0" r="1" gradientUnits="userSpaceOnUse" gradientTransform="translate(23.3348 37.0341) rotate(180) scale(5.60324 8.4227)">
<stop stop-color="#E38811"/>
<stop offset="1" stop-color="#E38811" stop-opacity="0"/>
</radialGradient>
<linearGradient id="paint13_linear_2229_56767" x1="14.2449" y1="36.2912" x2="20.0339" y2="36.2912" gradientUnits="userSpaceOnUse">
<stop stop-color="#FFF166"/>
<stop offset="1" stop-color="#FFF166" stop-opacity="0"/>
</linearGradient>
<linearGradient id="paint14_linear_2229_56767" x1="12.89" y1="32.9053" x2="22.159" y2="32.9053" gradientUnits="userSpaceOnUse">
<stop stop-color="#FFDB44"/>
<stop offset="1" stop-color="#F9A928"/>
</linearGradient>
<radialGradient id="paint15_radial_2229_56767" cx="0" cy="0" r="1" gradientUnits="userSpaceOnUse" gradientTransform="translate(20.101 35.8873) rotate(180) scale(8.38517 2.92967)">
<stop stop-color="#F29545"/>
<stop offset="1" stop-color="#F29545" stop-opacity="0"/>
</radialGradient>
<radialGradient id="paint16_radial_2229_56767" cx="0" cy="0" r="1" gradientUnits="userSpaceOnUse" gradientTransform="translate(20.504 30.9703) rotate(180) scale(8.50376 2.09648)">
<stop stop-color="#DA810B"/>
<stop offset="1" stop-color="#FFB610" stop-opacity="0"/>
</radialGradient>
<linearGradient id="paint17_linear_2229_56767" x1="13.3477" y1="32.4216" x2="20.5957" y2="32.4216" gradientUnits="userSpaceOnUse">
<stop stop-color="#FFF166"/>
<stop offset="1" stop-color="#FFF166" stop-opacity="0"/>
</linearGradient>
<linearGradient id="paint18_linear_2229_56767" x1="12.0469" y1="28.3892" x2="22.1599" y2="28.3892" gradientUnits="userSpaceOnUse">
<stop stop-color="#FFDB44"/>
<stop offset="1" stop-color="#F9A928"/>
</linearGradient>
<radialGradient id="paint19_radial_2229_56767" cx="0" cy="0" r="1" gradientUnits="userSpaceOnUse" gradientTransform="translate(20.0689 30.6002) rotate(180) scale(5.50067 2.44847)">
<stop stop-color="#F29545"/>
<stop offset="1" stop-color="#F29545" stop-opacity="0"/>
</radialGradient>
<radialGradient id="paint20_radial_2229_56767" cx="0" cy="0" r="1" gradientUnits="userSpaceOnUse" gradientTransform="translate(26.42 15.0321) rotate(90) scale(6.36013 2.36143)">
<stop stop-color="#F3A52A"/>
<stop offset="1" stop-color="#F3A52A" stop-opacity="0"/>
</radialGradient>
<radialGradient id="paint21_radial_2229_56767" cx="0" cy="0" r="1" gradientUnits="userSpaceOnUse" gradientTransform="translate(28.277 19.2201) rotate(137.003) scale(3.18567 4.82046)">
<stop stop-color="#CDA25E"/>
<stop offset="1" stop-color="#CDA25E" stop-opacity="0"/>
</radialGradient>
<radialGradient id="paint22_radial_2229_56767" cx="0" cy="0" r="1" gradientUnits="userSpaceOnUse" gradientTransform="translate(24.9689 14.6392) rotate(-11.634) scale(1.63946 3.57849)">
<stop offset="0.55" stop-color="#CCB28B" stop-opacity="0"/>
<stop offset="1" stop-color="#CCB28B"/>
</radialGradient>
<linearGradient id="paint23_linear_2229_56767" x1="14.2846" y1="22.4024" x2="20.8986" y2="22.4024" gradientUnits="userSpaceOnUse">
<stop stop-color="#FFF166"/>
<stop offset="1" stop-color="#FFF166" stop-opacity="0"/>
</linearGradient>
<linearGradient id="paint24_linear_2229_56767" x1="13.3729" y1="26.8785" x2="21.1039" y2="26.8785" gradientUnits="userSpaceOnUse">
<stop stop-color="#FFF166"/>
<stop offset="1" stop-color="#FFF166" stop-opacity="0"/>
</linearGradient>
<linearGradient id="paint25_linear_2229_56767" x1="21.0877" y1="15.4933" x2="24.1767" y2="15.4933" gradientUnits="userSpaceOnUse">
<stop stop-color="#FFF166"/>
<stop offset="1" stop-color="#FFF166" stop-opacity="0"/>
</linearGradient>
</defs>
</svg>
