<svg width="17" height="17" viewBox="0 0 17 17" fill="none" xmlns="http://www.w3.org/2000/svg">
<path d="M0.87029 1.89129C0.821002 1.63286 0.843805 1.36598 0.936142 1.12054C1.02848 0.8751 1.1867 0.660805 1.39308 0.501667C1.59946 0.342529 1.84585 0.244836 2.10463 0.219533C2.36341 0.194231 2.62436 0.24232 2.85824 0.358411L15.4498 6.61285C16.6587 7.21296 16.4225 9.02323 15.1024 9.27501L9.67459 10.3102C9.46385 10.3503 9.26525 10.4388 9.09412 10.569C8.92298 10.6991 8.78389 10.8674 8.68758 11.0609L6.14968 16.1815C5.55188 17.3887 3.7761 17.1346 3.52238 15.8043L0.87029 1.89129Z" fill="#0ACD95"/>
</svg>
