<svg width="95" height="95" viewBox="0 0 95 95" fill="none" xmlns="http://www.w3.org/2000/svg">
<circle cx="47.2993" cy="47.2991" r="34.9662" transform="rotate(-61.9586 47.2993 47.2991)" fill="url(#paint0_radial_3161_58306)"/>
<path d="M46.848 35.1362C53.9545 35.1362 59.4616 40.3419 59.4616 47.3714C59.4616 54.401 53.9532 59.6066 46.848 59.6066C45.6147 59.6082 44.3866 59.4453 43.1963 59.1223C42.9728 59.0608 42.735 59.0782 42.5228 59.1715L40.019 60.2764C39.8678 60.3432 39.7025 60.3719 39.5376 60.3599C39.3727 60.3478 39.2134 60.2955 39.0735 60.2074C38.9336 60.1193 38.8175 59.9982 38.7353 59.8548C38.6532 59.7113 38.6076 59.5499 38.6025 59.3846L38.5344 57.1394C38.5294 57.0028 38.4968 56.8687 38.4385 56.7451C38.3802 56.6215 38.2973 56.5111 38.195 56.4204C35.7417 54.2257 34.2344 51.0496 34.2344 47.3714C34.2344 40.3419 39.7415 35.1362 46.848 35.1362ZM39.2735 50.9499C38.9178 51.5137 39.6116 52.1495 40.1426 51.7458L44.1222 48.7261C44.2535 48.627 44.4136 48.5733 44.5782 48.5733C44.7427 48.5733 44.9028 48.627 45.0341 48.7261L47.9807 50.9335C48.1898 51.0906 48.4292 51.2026 48.6838 51.2624C48.9384 51.3223 49.2027 51.3287 49.4599 51.2813C49.7171 51.2339 49.9617 51.1337 50.1782 50.987C50.3947 50.8403 50.5785 50.6503 50.7178 50.429L54.4225 44.551C54.7782 43.9859 54.0844 43.3502 53.5534 43.7526L49.5738 46.7748C49.4424 46.874 49.2824 46.9276 49.1178 46.9276C48.9532 46.9276 48.7932 46.874 48.6618 46.7748L45.714 44.5674C45.5049 44.4106 45.2656 44.2988 45.0111 44.239C44.7567 44.1793 44.4926 44.1729 44.2355 44.2203C43.9785 44.2677 43.734 44.3679 43.5176 44.5144C43.3012 44.661 43.1175 44.8509 42.9781 45.072L39.2735 50.9499Z" fill="#6940F2" style="mix-blend-mode:color-dodge"/>
<defs>
<radialGradient id="paint0_radial_3161_58306" cx="0" cy="0" r="1" gradientUnits="userSpaceOnUse" gradientTransform="translate(60.0834 18.0867) rotate(111.414) scale(71.5838 57.2443)">
<stop offset="0.209049" stop-color="#F9FDFF"/>
<stop offset="0.839525" stop-color="#5B4BB9"/>
</radialGradient>
</defs>
</svg>
