<svg width="96" height="95" viewBox="0 0 96 95" fill="none" xmlns="http://www.w3.org/2000/svg">
<circle cx="48.0962" cy="47.2991" r="34.9662" transform="rotate(-61.9586 48.0962 47.2991)" fill="url(#paint0_radial_3161_58288)"/>
<path d="M49.8434 34.6948C51.2623 34.6986 51.9825 34.7062 52.6043 34.7238L52.849 34.7327C53.1315 34.7428 53.4102 34.7554 53.747 34.7705C55.0889 34.8336 56.0046 35.0455 56.808 35.357C57.6404 35.6774 58.3417 36.1112 59.043 36.8113C59.6846 37.4416 60.1808 38.2043 60.4972 39.0463C60.8087 39.8497 61.0206 40.7654 61.0837 42.1087C61.0988 42.4442 61.1114 42.7229 61.1215 43.0067L61.1291 43.2514C61.148 43.8719 61.1556 44.5921 61.1581 46.0111L61.1593 46.952V48.6043C61.1624 49.5243 61.1527 50.4442 61.1303 51.364L61.1228 51.6086C61.1127 51.8924 61.1001 52.1712 61.0849 52.5067C61.0219 53.85 60.8075 54.7644 60.4972 55.5691C60.1808 56.411 59.6846 57.1738 59.043 57.8041C58.4127 58.4457 57.6499 58.942 56.808 59.2583C56.0046 59.5699 55.0889 59.7818 53.747 59.8448L52.849 59.8827L52.6043 59.8902C51.9825 59.9079 51.2623 59.9167 49.8434 59.9193L48.9025 59.9205H47.2515C46.3311 59.9238 45.4108 59.9141 44.4906 59.8915L44.246 59.8839C43.9466 59.8726 43.6472 59.8596 43.3479 59.8448C42.006 59.7818 41.0903 59.5699 40.2856 59.2583C39.4442 58.9418 38.6819 58.4455 38.052 57.8041C37.4099 57.1739 36.9132 56.4111 36.5965 55.5691C36.2849 54.7656 36.073 53.85 36.01 52.5067L35.9721 51.6086L35.9658 51.364C35.9426 50.4443 35.9321 49.5243 35.9343 48.6043V46.0111C35.9308 45.0911 35.9401 44.1711 35.9621 43.2514L35.9709 43.0067C35.981 42.7229 35.9936 42.4442 36.0087 42.1087C36.0718 40.7654 36.2837 39.851 36.5952 39.0463C36.9127 38.204 37.4103 37.4412 38.0532 36.8113C38.6828 36.17 39.4446 35.6737 40.2856 35.357C41.0903 35.0455 42.0047 34.8336 43.3479 34.7705C43.6834 34.7554 43.9634 34.7428 44.246 34.7327L44.4906 34.7251C45.4103 34.7027 46.3303 34.693 47.2503 34.6961L49.8434 34.6948ZM48.5468 41.0012C46.8743 41.0012 45.2703 41.6657 44.0876 42.8484C42.905 44.031 42.2406 45.6351 42.2406 47.3077C42.2406 48.9802 42.905 50.5843 44.0876 51.767C45.2703 52.9497 46.8743 53.6141 48.5468 53.6141C50.2193 53.6141 51.8234 52.9497 53.006 51.767C54.1887 50.5843 54.8531 48.9802 54.8531 47.3077C54.8531 45.6351 54.1887 44.031 53.006 42.8484C51.8234 41.6657 50.2193 41.0012 48.5468 41.0012ZM48.5468 43.5238C49.0437 43.5237 49.5358 43.6215 49.9949 43.8116C50.454 44.0017 50.8711 44.2803 51.2225 44.6316C51.5739 44.9829 51.8527 45.4 52.0429 45.8591C52.2332 46.3181 52.3311 46.8101 52.3312 47.307C52.3313 47.8039 52.2335 48.296 52.0434 48.7551C51.8534 49.2142 51.5747 49.6314 51.2234 49.9828C50.8721 50.3342 50.4551 50.613 49.996 50.8033C49.537 50.9935 49.045 51.0914 48.5481 51.0915C47.5446 51.0915 46.5822 50.6929 45.8726 49.9833C45.163 49.2736 44.7643 48.3112 44.7643 47.3077C44.7643 46.3041 45.163 45.3417 45.8726 44.6321C46.5822 43.9225 47.5446 43.5238 48.5481 43.5238M55.1697 39.1093C54.7515 39.1093 54.3505 39.2754 54.0549 39.5711C53.7592 39.8668 53.5931 40.2678 53.5931 40.6859C53.5931 41.1041 53.7592 41.5051 54.0549 41.8008C54.3505 42.0964 54.7515 42.2625 55.1697 42.2625C55.5878 42.2625 55.9888 42.0964 56.2845 41.8008C56.5801 41.5051 56.7462 41.1041 56.7462 40.6859C56.7462 40.2678 56.5801 39.8668 56.2845 39.5711C55.9888 39.2754 55.5878 39.1093 55.1697 39.1093Z" fill="white" style="mix-blend-mode:color-dodge"/>
<defs>
<radialGradient id="paint0_radial_3161_58288" cx="0" cy="0" r="1" gradientUnits="userSpaceOnUse" gradientTransform="translate(73.5847 24.3199) rotate(132.561) scale(75.2728 60.1944)">
<stop offset="0.04" stop-color="#FFC752"/>
<stop offset="0.33383" stop-color="#FA5147"/>
<stop offset="0.560234" stop-color="#C837AB"/>
<stop offset="0.837017" stop-color="#4664C9"/>
<stop offset="0.96" stop-color="#0E2B8D"/>
</radialGradient>
</defs>
</svg>
