<svg width="95" height="95" viewBox="0 0 95 95" fill="none" xmlns="http://www.w3.org/2000/svg">
<circle cx="47.2993" cy="47.2991" r="34.9662" transform="rotate(-61.9586 47.2993 47.2991)" fill="url(#paint0_radial_3161_58303)"/>
<path d="M49.0465 34.6948C50.4654 34.6986 51.1856 34.7062 51.8074 34.7238L52.0521 34.7327C52.3346 34.7428 52.6133 34.7554 52.9501 34.7705C54.2921 34.8336 55.2077 35.0455 56.0111 35.357C56.8436 35.6774 57.5448 36.1112 58.2461 36.8113C58.8877 37.4416 59.384 38.2043 59.7003 39.0463C60.0118 39.8497 60.2237 40.7654 60.2868 42.1087C60.3019 42.4442 60.3145 42.7229 60.3246 43.0067L60.3322 43.2514C60.3511 43.8719 60.3587 44.5921 60.3612 46.0111L60.3625 46.952V48.6043C60.3655 49.5243 60.3559 50.4442 60.3335 51.364L60.3259 51.6086C60.3158 51.8924 60.3032 52.1712 60.2881 52.5067C60.225 53.85 60.0106 54.7644 59.7003 55.5691C59.384 56.411 58.8877 57.1738 58.2461 57.8041C57.6158 58.4457 56.8531 58.942 56.0111 59.2583C55.2077 59.5699 54.2921 59.7818 52.9501 59.8448L52.0521 59.8827L51.8074 59.8902C51.1856 59.9079 50.4654 59.9167 49.0465 59.9193L48.1056 59.9205H46.4546C45.5343 59.9238 44.6139 59.9141 43.6938 59.8915L43.4491 59.8839C43.1497 59.8726 42.8503 59.8596 42.5511 59.8448C41.2091 59.7818 40.2934 59.5699 39.4888 59.2583C38.6473 58.9418 37.885 58.4455 37.2551 57.8041C36.613 57.1739 36.1163 56.4111 35.7996 55.5691C35.4881 54.7656 35.2762 53.85 35.2131 52.5067L35.1753 51.6086L35.169 51.364C35.1457 50.4443 35.1352 49.5243 35.1374 48.6043V46.0111C35.1339 45.0911 35.1432 44.1711 35.1652 43.2514L35.174 43.0067C35.1841 42.7229 35.1967 42.4442 35.2119 42.1087C35.2749 40.7654 35.4868 39.851 35.7983 39.0463C36.1158 38.204 36.6134 37.4412 37.2563 36.8113C37.8859 36.17 38.6477 35.6737 39.4888 35.357C40.2934 35.0455 41.2078 34.8336 42.5511 34.7705C42.8866 34.7554 43.1666 34.7428 43.4491 34.7327L43.6938 34.7251C44.6135 34.7027 45.5334 34.693 46.4534 34.6961L49.0465 34.6948ZM47.75 41.0012C46.0774 41.0012 44.4734 41.6657 43.2908 42.8484C42.1081 44.031 41.4437 45.6351 41.4437 47.3077C41.4437 48.9802 42.1081 50.5843 43.2908 51.767C44.4734 52.9497 46.0774 53.6141 47.75 53.6141C49.4225 53.6141 51.0265 52.9497 52.2091 51.767C53.3918 50.5843 54.0562 48.9802 54.0562 47.3077C54.0562 45.6351 53.3918 44.031 52.2091 42.8484C51.0265 41.6657 49.4225 41.0012 47.75 41.0012ZM47.75 43.5238C48.2468 43.5237 48.7389 43.6215 49.198 43.8116C49.6571 44.0017 50.0742 44.2803 50.4257 44.6316C50.7771 44.9829 51.0558 45.4 51.2461 45.8591C51.4363 46.3181 51.5343 46.8101 51.5343 47.307C51.5344 47.8039 51.4366 48.296 51.2466 48.7551C51.0565 49.2142 50.7778 49.6314 50.4265 49.9828C50.0752 50.3342 49.6582 50.613 49.1991 50.8033C48.7401 50.9935 48.2481 51.0914 47.7512 51.0915C46.7477 51.0915 45.7853 50.6929 45.0757 49.9833C44.3661 49.2736 43.9675 48.3112 43.9675 47.3077C43.9675 46.3041 44.3661 45.3417 45.0757 44.6321C45.7853 43.9225 46.7477 43.5238 47.7512 43.5238M54.3728 39.1093C53.9547 39.1093 53.5536 39.2754 53.258 39.5711C52.9623 39.8668 52.7962 40.2678 52.7962 40.6859C52.7962 41.1041 52.9623 41.5051 53.258 41.8008C53.5536 42.0964 53.9547 42.2625 54.3728 42.2625C54.7909 42.2625 55.1919 42.0964 55.4876 41.8008C55.7832 41.5051 55.9493 41.1041 55.9493 40.6859C55.9493 40.2678 55.7832 39.8668 55.4876 39.5711C55.1919 39.2754 54.7909 39.1093 54.3728 39.1093Z" fill="#6940F2" style="mix-blend-mode:color-dodge"/>
<defs>
<radialGradient id="paint0_radial_3161_58303" cx="0" cy="0" r="1" gradientUnits="userSpaceOnUse" gradientTransform="translate(60.0834 18.0867) rotate(111.414) scale(71.5838 57.2443)">
<stop offset="0.209049" stop-color="#F9FDFF"/>
<stop offset="0.839525" stop-color="#5B4BB9"/>
</radialGradient>
</defs>
</svg>
