<svg width="2043" height="883" viewBox="0 0 2043 883" fill="none" xmlns="http://www.w3.org/2000/svg">
<g style="mix-blend-mode:color-dodge" opacity="0.2">
<path d="M1551.98 419.657C1533.38 491.731 1455.78 565.422 1345.06 626.291C1234.37 687.14 1090.74 735.071 940.428 755.633C790.115 776.194 661.623 765.487 575.388 731.576C489.126 697.654 445.277 640.576 463.877 568.503C482.478 496.43 560.076 422.738 670.801 361.87C781.491 301.021 925.116 253.09 1075.43 232.528C1225.74 211.966 1354.23 222.673 1440.47 256.584C1526.73 290.506 1570.58 347.584 1551.98 419.657Z" stroke="#D7D2FC"/>
</g>
<g style="mix-blend-mode:color-dodge" opacity="0.2">
<path d="M1755.03 366.324C1744.83 405.847 1714.47 446.372 1668.18 485.834C1621.9 525.298 1559.73 563.661 1486.03 598.828C1338.62 669.161 1145.19 726.662 940.684 754.638C736.174 782.613 559.352 775.761 438.793 742.083C378.513 725.244 332.32 701.704 303.76 672.479C275.2 643.255 264.297 608.375 274.496 568.853C284.696 529.33 315.06 488.805 361.346 449.343C407.634 409.879 469.802 371.516 543.504 336.349C690.906 266.016 884.336 208.515 1088.85 180.539C1293.36 152.563 1470.18 159.416 1590.74 193.094C1651.02 209.933 1697.21 233.473 1725.77 262.698C1754.33 291.922 1765.23 326.802 1755.03 366.324Z" stroke="#D7D2FC"/>
</g>
<g style="mix-blend-mode:color-dodge" opacity="0.2">
<path d="M1961.78 312.862C1950.69 355.842 1913.9 400.445 1856.71 444.326C1799.52 488.203 1722 531.297 1629.61 571.23C1444.82 651.093 1200.65 718.264 940.901 753.796C681.152 789.328 455.049 786.487 299.469 753.184C221.677 736.532 161.541 712.269 123.643 681.399C85.7407 650.526 70.1292 613.091 81.2214 570.111C92.3136 527.13 129.097 482.528 186.292 438.646C243.481 394.769 321 351.676 413.395 311.743C598.181 231.88 842.353 164.708 1102.1 129.176C1361.85 93.6444 1587.95 96.4852 1743.53 129.789C1821.32 146.441 1881.46 170.704 1919.36 201.574C1957.26 232.446 1972.87 269.882 1961.78 312.862Z" stroke="#D7D2FC"/>
</g>
</svg>
