<svg width="61" height="61" viewBox="0 0 61 61" fill="none" xmlns="http://www.w3.org/2000/svg">
<path d="M35.288 19C35.0339 19 34.7902 19.101 34.6105 19.2807C34.4308 19.4604 34.3299 19.7042 34.3299 19.9583C34.3299 22.7845 31.8551 23.7917 29.5393 23.7917H22.8325C21.816 23.7917 20.8412 24.1955 20.1225 24.9144C19.4038 25.6333 19 26.6083 19 27.625V29.5417C19.0021 30.1155 19.1336 30.6814 19.3848 31.1973C19.6359 31.7131 20.0003 32.1657 20.4506 32.5211L23.873 40.161C24.1164 40.7083 24.5132 41.1732 25.0153 41.4996C25.5175 41.826 26.1034 41.9998 26.7023 42C27.1788 41.9997 27.6476 41.8802 28.0661 41.6524C28.4847 41.4246 28.8396 41.0957 29.0986 40.6957C29.3576 40.2956 29.5125 39.8372 29.5491 39.362C29.5858 38.8868 29.503 38.41 29.3084 37.975L27.2005 33.375H29.5393C31.8551 33.375 34.3299 34.3822 34.3299 37.2083C34.3299 37.4625 34.4308 37.7063 34.6105 37.886C34.7902 38.0657 35.0339 38.1667 35.288 38.1667C35.5421 38.1667 35.7858 38.0657 35.9655 37.886C36.1452 37.7063 36.2461 37.4625 36.2461 37.2083V19.9583C36.2461 19.7042 36.1452 19.4604 35.9655 19.2807C35.7858 19.101 35.5421 19 35.288 19ZM27.5627 38.7599C27.6262 38.9032 27.6528 39.0602 27.6403 39.2164C27.6278 39.3727 27.5765 39.5234 27.4911 39.6548C27.4056 39.7863 27.2888 39.8943 27.151 39.9691C27.0133 40.0439 26.859 40.0832 26.7023 40.0833C26.4737 40.0832 26.25 40.0166 26.0585 39.8917C25.867 39.7669 25.7159 39.5891 25.6235 39.3799L22.9331 33.375H25.0927L27.5627 38.7599ZM34.3299 32.9917C32.961 31.9367 31.2662 31.3942 29.5393 31.4583H22.8325C22.3243 31.4583 21.8368 31.2564 21.4775 30.897C21.1181 30.5375 20.9162 30.05 20.9162 29.5417V27.625C20.9162 27.1167 21.1181 26.6292 21.4775 26.2697C21.8368 25.9103 22.3243 25.7083 22.8325 25.7083H29.5393C31.2656 25.7738 32.9604 25.233 34.3299 24.1798V32.9917ZM41.899 33.8082C41.8428 33.9208 41.7649 34.0213 41.6699 34.1039C41.5748 34.1865 41.4645 34.2495 41.3451 34.2893C41.2256 34.3292 41.0995 34.3452 40.974 34.3363C40.8484 34.3274 40.7258 34.2938 40.6132 34.2375L38.697 33.2792C38.4695 33.1656 38.2966 32.9662 38.2161 32.725C38.1356 32.4839 38.1541 32.2206 38.2677 31.9931C38.3813 31.7656 38.5806 31.5926 38.8217 31.5121C39.0629 31.4315 39.3261 31.4501 39.5535 31.5637L41.4698 32.5221C41.696 32.6356 41.8682 32.8341 41.9486 33.0742C42.029 33.3143 42.0112 33.5764 41.899 33.8034V33.8082ZM38.2677 25.1832C38.2114 25.0705 38.1779 24.9479 38.169 24.8223C38.1601 24.6967 38.176 24.5706 38.2159 24.4512C38.2558 24.3317 38.3188 24.2213 38.4013 24.1262C38.4839 24.0312 38.5843 23.9533 38.697 23.8971L40.6132 22.9388C40.8406 22.8251 41.1039 22.8065 41.345 22.8871C41.5861 22.9676 41.7854 23.1406 41.899 23.3681C42.0126 23.5956 42.0312 23.8589 41.9507 24.1C41.8702 24.3412 41.6972 24.5406 41.4698 24.6542L39.5535 25.6125C39.4409 25.6688 39.3183 25.7024 39.1928 25.7113C39.0672 25.7202 38.9411 25.7042 38.8217 25.6643C38.7023 25.6245 38.5919 25.5615 38.4968 25.4789C38.4018 25.3963 38.3239 25.2958 38.2677 25.1832ZM38.1623 28.5833C38.1623 28.3292 38.2633 28.0854 38.443 27.9057C38.6226 27.726 38.8664 27.625 39.1205 27.625H41.0367C41.2908 27.625 41.5345 27.726 41.7142 27.9057C41.8939 28.0854 41.9948 28.3292 41.9948 28.5833C41.9948 28.8375 41.8939 29.0813 41.7142 29.261C41.5345 29.4407 41.2908 29.5417 41.0367 29.5417H39.1205C38.8664 29.5417 38.6226 29.4407 38.443 29.261C38.2633 29.0813 38.1623 28.8375 38.1623 28.5833Z" fill="#908EB5"/>
</svg>
