<svg width="569" height="457" viewBox="0 0 569 457" fill="none" xmlns="http://www.w3.org/2000/svg">
<g style="mix-blend-mode:color-dodge" opacity="0.2">
<path d="M543.697 166.659C536.908 212.418 501.822 260.801 450.438 302.05C399.06 343.293 331.456 377.342 259.81 394.388C188.163 411.435 126.085 408.24 83.6347 389.321C41.1786 370.399 18.4087 335.782 25.1986 290.022C31.9884 244.263 67.0739 195.88 118.458 154.631C169.836 113.388 237.44 79.3393 309.086 62.2928C380.733 45.2464 442.811 48.4409 485.261 67.3601C527.717 86.2818 550.487 120.899 543.697 166.659Z" stroke="#D7D2FC"/>
</g>
<g style="mix-blend-mode:color-dodge" opacity="0.2">
<path d="M428.131 234.278C417.873 303.412 342.534 375.553 259.678 395.266C176.822 414.98 118.161 374.721 128.419 305.586C138.678 236.452 214.016 164.311 296.873 144.598C379.729 124.884 438.389 165.143 428.131 234.278Z" stroke="#D7D2FC"/>
</g>
<g style="mix-blend-mode:color-dodge" opacity="0.2">
<path d="M485.583 199.286C479.571 239.801 451.345 281.949 410.476 317.352C369.607 352.754 316.134 381.374 259.748 394.789C203.361 408.205 154.779 403.867 121.81 386.032C88.8398 368.197 71.5131 336.888 77.5249 296.372C83.5367 255.857 111.763 213.709 152.632 178.306C193.501 142.904 246.974 114.284 303.36 100.869C359.747 87.4529 408.329 91.7914 441.298 109.626C474.268 127.461 491.595 158.77 485.583 199.286Z" stroke="#D7D2FC"/>
</g>
<g filter="url(#filter0_d_3873_88687)">
<circle cx="276.737" cy="110.37" r="16.0359" transform="rotate(-61.9586 276.737 110.37)" fill="url(#paint0_radial_3873_88687)"/>
</g>
<path d="M272.927 112.382C272.927 113.18 272.276 113.832 271.477 113.832C270.679 113.832 270.027 113.18 270.027 112.382C270.027 111.584 270.679 110.932 271.478 110.932H272.927L272.927 112.382ZM273.657 112.382C273.657 111.584 274.309 110.932 275.107 110.932C275.906 110.932 276.558 111.583 276.558 112.382V116.012C276.558 116.81 275.906 117.462 275.107 117.462C274.309 117.462 273.657 116.81 273.657 116.012V112.382Z" fill="#DE1C59"/>
<path d="M275.107 106.56C274.309 106.56 273.657 105.909 273.657 105.11C273.657 104.312 274.309 103.66 275.107 103.66C275.906 103.66 276.558 104.312 276.558 105.11V106.56L275.107 106.56ZM275.107 107.29C275.906 107.29 276.558 107.942 276.558 108.74C276.558 109.538 275.906 110.19 275.107 110.19H271.477C270.679 110.19 270.027 109.539 270.027 108.74C270.027 107.942 270.679 107.29 271.478 107.29H275.107Z" fill="#35C5F0"/>
<path d="M280.93 108.74C280.93 107.942 281.581 107.29 282.379 107.29C283.177 107.29 283.829 107.942 283.829 108.74C283.829 109.538 283.177 110.19 282.379 110.19H280.93V108.74ZM280.199 108.74C280.199 109.538 279.547 110.19 278.749 110.19C277.951 110.19 277.299 109.539 277.299 108.74V105.11C277.299 104.312 277.951 103.66 278.749 103.66C279.547 103.66 280.199 104.312 280.199 105.11V108.74Z" fill="#2EB57D"/>
<path d="M278.749 114.563C279.547 114.563 280.199 115.214 280.199 116.012C280.199 116.81 279.547 117.462 278.749 117.462C277.951 117.462 277.299 116.81 277.299 116.012V114.563H278.749ZM278.749 113.832C277.951 113.832 277.299 113.18 277.299 112.382C277.299 111.584 277.951 110.932 278.749 110.932H282.379C283.177 110.932 283.829 111.583 283.829 112.382C283.829 113.18 283.177 113.832 282.379 113.832H278.749Z" fill="#EBB02E"/>
<g filter="url(#filter1_d_3873_88687)">
<circle cx="159.962" cy="121.595" r="25.0733" transform="rotate(-61.9586 159.962 121.595)" fill="url(#paint1_radial_3873_88687)"/>
</g>
<g style="mix-blend-mode:saturation">
<circle cx="159.962" cy="121.595" r="25.0733" transform="rotate(-61.9586 159.962 121.595)" fill="url(#paint2_radial_3873_88687)"/>
</g>
<g filter="url(#filter2_d_3873_88687)">
<circle cx="159.962" cy="121.595" r="25.0733" fill="url(#paint3_radial_3873_88687)"/>
</g>
<path d="M159.557 108.879C166.356 108.879 171.867 114.39 171.867 121.189C171.867 127.989 166.356 133.5 159.557 133.5C157.381 133.504 155.244 132.928 153.364 131.832L147.251 133.5L148.915 127.384C147.819 125.504 147.242 123.366 147.246 121.189C147.246 114.39 152.758 108.879 159.557 108.879ZM155.361 115.403L155.115 115.413C154.956 115.424 154.8 115.466 154.657 115.536C154.524 115.612 154.402 115.707 154.295 115.817C154.147 115.956 154.064 116.077 153.974 116.194C153.518 116.786 153.273 117.513 153.277 118.26C153.28 118.863 153.437 119.45 153.683 119.999C154.187 121.109 155.015 122.285 156.108 123.375C156.372 123.637 156.63 123.9 156.909 124.145C158.267 125.341 159.886 126.204 161.636 126.664L162.335 126.771C162.563 126.783 162.791 126.766 163.02 126.755C163.378 126.736 163.728 126.639 164.045 126.471C164.206 126.387 164.363 126.297 164.517 126.2C164.517 126.2 164.569 126.165 164.67 126.089C164.837 125.966 164.939 125.879 165.077 125.735C165.18 125.628 165.266 125.504 165.335 125.363C165.431 125.162 165.527 124.779 165.567 124.46C165.596 124.217 165.588 124.084 165.584 124.001C165.579 123.869 165.469 123.733 165.35 123.675L164.634 123.354C164.634 123.354 163.563 122.887 162.908 122.589C162.839 122.559 162.766 122.542 162.691 122.539C162.607 122.53 162.522 122.539 162.441 122.566C162.361 122.593 162.287 122.637 162.226 122.695C162.219 122.693 162.137 122.763 161.247 123.841C161.196 123.91 161.125 123.962 161.045 123.99C160.964 124.019 160.877 124.023 160.794 124.001C160.714 123.98 160.635 123.953 160.559 123.92C160.406 123.856 160.353 123.831 160.249 123.787C159.542 123.479 158.888 123.062 158.31 122.552C158.154 122.417 158.01 122.269 157.863 122.126C157.378 121.662 156.956 121.138 156.607 120.565L156.534 120.448C156.483 120.369 156.441 120.285 156.409 120.196C156.362 120.015 156.484 119.87 156.484 119.87C156.484 119.87 156.783 119.542 156.922 119.365C157.058 119.193 157.172 119.025 157.246 118.906C157.391 118.672 157.437 118.432 157.36 118.246C157.016 117.404 156.66 116.566 156.292 115.733C156.219 115.568 156.004 115.45 155.808 115.427C155.742 115.419 155.675 115.412 155.609 115.407C155.443 115.398 155.278 115.399 155.113 115.412L155.361 115.403Z" fill="white" style="mix-blend-mode:color-dodge"/>
<g filter="url(#filter3_d_3873_88687)">
<circle cx="139.698" cy="270.328" r="14.6727" transform="rotate(-61.9586 139.698 270.328)" fill="url(#paint4_radial_3873_88687)"/>
</g>
<g style="mix-blend-mode:screen">
<path d="M136.241 266.003C136.241 266.336 136.11 266.655 135.877 266.891C135.644 267.126 135.328 267.258 134.998 267.258C134.668 267.258 134.352 267.126 134.119 266.89C133.886 266.654 133.756 266.335 133.756 266.002C133.756 265.668 133.887 265.349 134.12 265.114C134.353 264.878 134.67 264.746 134.999 264.746C135.329 264.746 135.645 264.879 135.878 265.114C136.111 265.35 136.242 265.67 136.241 266.003ZM136.279 268.188H133.793V276.051H136.279V268.188ZM140.206 268.188H137.733V276.051H140.181V271.925C140.181 269.627 143.145 269.413 143.145 271.925V276.051H145.6V271.071C145.6 267.196 141.213 267.341 140.181 269.243L140.206 268.188Z" fill="white"/>
</g>
<g filter="url(#filter4_d_3873_88687)">
<circle cx="428.499" cy="216.131" r="15.5582" transform="rotate(-61.9586 428.499 216.131)" fill="url(#paint5_radial_3873_88687)"/>
</g>
<path d="M432.688 210.221C432.108 209.534 431.788 208.651 431.788 207.736H429.165V218.664C429.145 219.255 428.905 219.815 428.494 220.226C428.084 220.637 427.536 220.867 426.966 220.867C425.76 220.867 424.759 219.844 424.759 218.575C424.759 217.06 426.168 215.923 427.62 216.39V213.605C424.691 213.2 422.127 215.562 422.127 218.575C422.127 221.51 424.47 223.598 426.957 223.598C429.623 223.598 431.788 221.351 431.788 218.575V213.032C432.852 213.825 434.129 214.251 435.439 214.249V211.526C435.439 211.526 433.843 211.605 432.688 210.221Z" fill="#00F2EA" style="mix-blend-mode:color-dodge"/>
<circle cx="352.7" cy="52.3331" r="18.2265" transform="rotate(-61.9586 352.7 52.3331)" fill="url(#paint6_radial_3873_88687)"/>
<g style="mix-blend-mode:hard-light">
<circle cx="352.7" cy="52.3331" r="18.2265" transform="rotate(-61.9586 352.7 52.3331)" fill="url(#paint7_radial_3873_88687)"/>
</g>
<path d="M353.366 44.9746C354.185 44.9768 354.6 44.9812 354.959 44.9913L355.1 44.9964C355.263 45.0023 355.424 45.0095 355.618 45.0183C356.392 45.0546 356.92 45.1769 357.384 45.3566C357.864 45.5414 358.269 45.7917 358.673 46.1955C359.043 46.5591 359.33 46.9991 359.512 47.4848C359.692 47.9483 359.814 48.4765 359.85 49.2514C359.859 49.4449 359.866 49.6057 359.872 49.7694L359.877 49.9106C359.887 50.2686 359.892 50.684 359.893 51.5025L359.894 52.0453V52.9985C359.896 53.5292 359.89 54.0599 359.877 54.5904L359.873 54.7316C359.867 54.8953 359.86 55.0561 359.851 55.2496C359.815 56.0245 359.691 56.552 359.512 57.0162C359.33 57.5019 359.043 57.9419 358.673 58.3055C358.31 58.6756 357.87 58.9619 357.384 59.1444C356.92 59.3241 356.392 59.4464 355.618 59.4827L355.1 59.5046L354.959 59.5089C354.6 59.5191 354.185 59.5242 353.366 59.5257L352.823 59.5264H351.871C351.34 59.5283 350.809 59.5227 350.278 59.5097L350.137 59.5053C349.964 59.4988 349.792 59.4912 349.619 59.4827C348.845 59.4464 348.317 59.3241 347.852 59.1444C347.367 58.9618 346.927 58.6755 346.564 58.3055C346.193 57.942 345.907 57.502 345.724 57.0162C345.544 56.5527 345.422 56.0245 345.386 55.2496L345.364 54.7316L345.36 54.5904C345.347 54.0599 345.341 53.5292 345.342 52.9985V51.5025C345.34 50.9718 345.346 50.4411 345.358 49.9106L345.363 49.7694C345.369 49.6057 345.376 49.4449 345.385 49.2514C345.422 48.4765 345.544 47.949 345.723 47.4848C345.907 46.9989 346.194 46.5589 346.565 46.1955C346.928 45.8256 347.367 45.5393 347.852 45.3566C348.317 45.1769 348.844 45.0546 349.619 45.0183C349.813 45.0095 349.974 45.0023 350.137 44.9964L350.278 44.9921C350.809 44.9791 351.339 44.9736 351.87 44.9753L353.366 44.9746ZM352.618 48.6126C351.653 48.6126 350.728 48.9958 350.046 49.6781C349.363 50.3603 348.98 51.2857 348.98 52.2505C348.98 53.2154 349.363 54.1407 350.046 54.8229C350.728 55.5052 351.653 55.8885 352.618 55.8885C353.583 55.8885 354.508 55.5052 355.191 54.8229C355.873 54.1407 356.256 53.2154 356.256 52.2505C356.256 51.2857 355.873 50.3603 355.191 49.6781C354.508 48.9958 353.583 48.6126 352.618 48.6126ZM352.618 50.0677C352.905 50.0677 353.189 50.1241 353.453 50.2338C353.718 50.3434 353.959 50.5041 354.162 50.7068C354.364 50.9095 354.525 51.1501 354.635 51.4149C354.745 51.6797 354.801 51.9635 354.801 52.2501C354.801 52.5368 354.745 52.8206 354.635 53.0855C354.526 53.3503 354.365 53.591 354.162 53.7937C353.96 53.9964 353.719 54.1572 353.454 54.267C353.189 54.3767 352.905 54.4332 352.619 54.4333C352.04 54.4333 351.485 54.2033 351.075 53.794C350.666 53.3846 350.436 52.8294 350.436 52.2505C350.436 51.6716 350.666 51.1164 351.075 50.7071C351.485 50.2977 352.04 50.0677 352.619 50.0677M356.439 47.5212C356.197 47.5212 355.966 47.617 355.796 47.7876C355.625 47.9581 355.529 48.1894 355.529 48.4307C355.529 48.6719 355.625 48.9032 355.796 49.0738C355.966 49.2443 356.197 49.3401 356.439 49.3401C356.68 49.3401 356.911 49.2443 357.082 49.0738C357.252 48.9032 357.348 48.6719 357.348 48.4307C357.348 48.1894 357.252 47.9581 357.082 47.7876C356.911 47.617 356.68 47.5212 356.439 47.5212Z" fill="white" style="mix-blend-mode:color-dodge"/>
<g filter="url(#filter5_d_3873_88687)">
<circle cx="424.39" cy="105.022" r="21.6931" transform="rotate(-61.9586 424.39 105.022)" fill="url(#paint8_radial_3873_88687)"/>
</g>
<g style="mix-blend-mode:multiply">
<circle cx="424.39" cy="105.022" r="21.6931" transform="rotate(-61.9586 424.39 105.022)" fill="url(#paint9_radial_3873_88687)"/>
</g>
<path d="M424.45 97.166C428.986 97.166 432.501 100.489 432.501 104.976C432.501 109.463 428.985 112.786 424.45 112.786C423.662 112.787 422.879 112.683 422.119 112.477C421.976 112.438 421.824 112.449 421.689 112.508L420.091 113.214C419.994 113.256 419.889 113.275 419.783 113.267C419.678 113.259 419.577 113.226 419.487 113.17C419.398 113.113 419.324 113.036 419.271 112.944C419.219 112.853 419.19 112.75 419.187 112.644L419.143 111.211C419.14 111.124 419.119 111.038 419.082 110.959C419.045 110.881 418.992 110.81 418.927 110.752C417.361 109.351 416.398 107.324 416.398 104.976C416.398 100.489 419.914 97.166 424.45 97.166ZM419.615 107.26C419.388 107.62 419.831 108.026 420.17 107.768L422.71 105.841C422.794 105.777 422.896 105.743 423.001 105.743C423.106 105.743 423.208 105.777 423.292 105.841L425.173 107.25C425.306 107.35 425.459 107.422 425.622 107.46C425.784 107.498 425.953 107.502 426.117 107.472C426.281 107.442 426.437 107.378 426.575 107.284C426.714 107.19 426.831 107.069 426.92 106.928L429.284 103.176C429.512 102.815 429.069 102.409 428.73 102.666L426.19 104.595C426.106 104.658 426.004 104.693 425.899 104.693C425.793 104.693 425.691 104.658 425.607 104.595L423.726 103.186C423.592 103.086 423.44 103.015 423.277 102.977C423.115 102.938 422.946 102.934 422.782 102.965C422.618 102.995 422.462 103.059 422.324 103.152C422.186 103.246 422.069 103.367 421.98 103.508L419.615 107.26Z" fill="white"/>
<defs>
<filter id="filter0_d_3873_88687" x="220.697" y="54.3301" width="120.078" height="120.078" filterUnits="userSpaceOnUse" color-interpolation-filters="sRGB">
<feFlood flood-opacity="0" result="BackgroundImageFix"/>
<feColorMatrix in="SourceAlpha" type="matrix" values="0 0 0 0 0 0 0 0 0 0 0 0 0 0 0 0 0 0 127 0" result="hardAlpha"/>
<feOffset dx="4" dy="4"/>
<feGaussianBlur stdDeviation="22"/>
<feComposite in2="hardAlpha" operator="out"/>
<feColorMatrix type="matrix" values="0 0 0 0 0.411765 0 0 0 0 0.25098 0 0 0 0 0.94902 0 0 0 0.54 0"/>
<feBlend mode="normal" in2="BackgroundImageFix" result="effect1_dropShadow_3873_88687"/>
<feBlend mode="normal" in="SourceGraphic" in2="effect1_dropShadow_3873_88687" result="shape"/>
</filter>
<filter id="filter1_d_3873_88687" x="94.8828" y="56.5156" width="138.158" height="138.158" filterUnits="userSpaceOnUse" color-interpolation-filters="sRGB">
<feFlood flood-opacity="0" result="BackgroundImageFix"/>
<feColorMatrix in="SourceAlpha" type="matrix" values="0 0 0 0 0 0 0 0 0 0 0 0 0 0 0 0 0 0 127 0" result="hardAlpha"/>
<feOffset dx="4" dy="4"/>
<feGaussianBlur stdDeviation="22"/>
<feComposite in2="hardAlpha" operator="out"/>
<feColorMatrix type="matrix" values="0 0 0 0 0.411765 0 0 0 0 0.25098 0 0 0 0 0.94902 0 0 0 0.15 0"/>
<feBlend mode="normal" in2="BackgroundImageFix" result="effect1_dropShadow_3873_88687"/>
<feBlend mode="normal" in="SourceGraphic" in2="effect1_dropShadow_3873_88687" result="shape"/>
</filter>
<filter id="filter2_d_3873_88687" x="94.8887" y="56.5215" width="138.146" height="138.146" filterUnits="userSpaceOnUse" color-interpolation-filters="sRGB">
<feFlood flood-opacity="0" result="BackgroundImageFix"/>
<feColorMatrix in="SourceAlpha" type="matrix" values="0 0 0 0 0 0 0 0 0 0 0 0 0 0 0 0 0 0 127 0" result="hardAlpha"/>
<feOffset dx="4" dy="4"/>
<feGaussianBlur stdDeviation="22"/>
<feComposite in2="hardAlpha" operator="out"/>
<feColorMatrix type="matrix" values="0 0 0 0 0.411765 0 0 0 0 0.25098 0 0 0 0 0.94902 0 0 0 0.49 0"/>
<feBlend mode="normal" in2="BackgroundImageFix" result="effect1_dropShadow_3873_88687"/>
<feBlend mode="normal" in="SourceGraphic" in2="effect1_dropShadow_3873_88687" result="shape"/>
</filter>
<filter id="filter3_d_3873_88687" x="85.0215" y="215.652" width="117.352" height="117.352" filterUnits="userSpaceOnUse" color-interpolation-filters="sRGB">
<feFlood flood-opacity="0" result="BackgroundImageFix"/>
<feColorMatrix in="SourceAlpha" type="matrix" values="0 0 0 0 0 0 0 0 0 0 0 0 0 0 0 0 0 0 127 0" result="hardAlpha"/>
<feOffset dx="4" dy="4"/>
<feGaussianBlur stdDeviation="22"/>
<feComposite in2="hardAlpha" operator="out"/>
<feColorMatrix type="matrix" values="0 0 0 0 0.411765 0 0 0 0 0.25098 0 0 0 0 0.94902 0 0 0 0.45 0"/>
<feBlend mode="normal" in2="BackgroundImageFix" result="effect1_dropShadow_3873_88687"/>
<feBlend mode="normal" in="SourceGraphic" in2="effect1_dropShadow_3873_88687" result="shape"/>
</filter>
<filter id="filter4_d_3873_88687" x="372.938" y="160.57" width="119.123" height="119.121" filterUnits="userSpaceOnUse" color-interpolation-filters="sRGB">
<feFlood flood-opacity="0" result="BackgroundImageFix"/>
<feColorMatrix in="SourceAlpha" type="matrix" values="0 0 0 0 0 0 0 0 0 0 0 0 0 0 0 0 0 0 127 0" result="hardAlpha"/>
<feOffset dx="4" dy="4"/>
<feGaussianBlur stdDeviation="22"/>
<feComposite in2="hardAlpha" operator="out"/>
<feColorMatrix type="matrix" values="0 0 0 0 0.411765 0 0 0 0 0.25098 0 0 0 0 0.94902 0 0 0 0.38 0"/>
<feBlend mode="normal" in2="BackgroundImageFix" result="effect1_dropShadow_3873_88687"/>
<feBlend mode="normal" in="SourceGraphic" in2="effect1_dropShadow_3873_88687" result="shape"/>
</filter>
<filter id="filter5_d_3873_88687" x="362.691" y="43.3242" width="131.396" height="131.395" filterUnits="userSpaceOnUse" color-interpolation-filters="sRGB">
<feFlood flood-opacity="0" result="BackgroundImageFix"/>
<feColorMatrix in="SourceAlpha" type="matrix" values="0 0 0 0 0 0 0 0 0 0 0 0 0 0 0 0 0 0 127 0" result="hardAlpha"/>
<feOffset dx="4" dy="4"/>
<feGaussianBlur stdDeviation="22"/>
<feComposite in2="hardAlpha" operator="out"/>
<feColorMatrix type="matrix" values="0 0 0 0 0.411765 0 0 0 0 0.25098 0 0 0 0 0.94902 0 0 0 0.38 0"/>
<feBlend mode="normal" in2="BackgroundImageFix" result="effect1_dropShadow_3873_88687"/>
<feBlend mode="normal" in="SourceGraphic" in2="effect1_dropShadow_3873_88687" result="shape"/>
</filter>
<radialGradient id="paint0_radial_3873_88687" cx="0" cy="0" r="1" gradientUnits="userSpaceOnUse" gradientTransform="translate(282.6 96.9724) rotate(111.414) scale(32.8292 26.2529)">
<stop offset="0.209049" stop-color="#F9FDFF"/>
<stop offset="0.839525" stop-color="#A3A3A3"/>
</radialGradient>
<radialGradient id="paint1_radial_3873_88687" cx="0" cy="0" r="1" gradientUnits="userSpaceOnUse" gradientTransform="translate(173.549 103.509) rotate(123.618) scale(45.9146 36.7171)">
<stop stop-color="#F9FDFF"/>
<stop offset="0.38325" stop-color="#5AF087"/>
<stop offset="0.925" stop-color="#09503B"/>
</radialGradient>
<radialGradient id="paint2_radial_3873_88687" cx="0" cy="0" r="1" gradientUnits="userSpaceOnUse" gradientTransform="translate(134.799 121.492) rotate(-1.44818) scale(57.5921 57.5921)">
<stop stop-color="#FFA3A3" stop-opacity="0"/>
<stop offset="0.737543" stop-color="#4A658E"/>
<stop offset="0.9375" stop-color="#A99CEC"/>
</radialGradient>
<radialGradient id="paint3_radial_3873_88687" cx="0" cy="0" r="1" gradientUnits="userSpaceOnUse" gradientTransform="translate(167.275 107.324) rotate(116.017) scale(46.4545 37.1488)">
<stop offset="0.209049" stop-color="#BCF8C0"/>
<stop offset="0.645" stop-color="#54AB5A"/>
<stop offset="0.98" stop-color="#1D4420"/>
</radialGradient>
<radialGradient id="paint4_radial_3873_88687" cx="0" cy="0" r="1" gradientUnits="userSpaceOnUse" gradientTransform="translate(145.062 258.07) rotate(111.414) scale(30.0384 24.0212)">
<stop offset="0.209049" stop-color="#0FD9EF"/>
<stop offset="0.839525" stop-color="#0F4EEF"/>
</radialGradient>
<radialGradient id="paint5_radial_3873_88687" cx="0" cy="0" r="1" gradientUnits="userSpaceOnUse" gradientTransform="translate(434.187 203.133) rotate(111.414) scale(31.8511 25.4708)">
<stop offset="0.18" stop-color="#00F2EA"/>
<stop offset="0.875"/>
<stop offset="0.985" stop-color="#FF004F"/>
</radialGradient>
<radialGradient id="paint6_radial_3873_88687" cx="0" cy="0" r="1" gradientUnits="userSpaceOnUse" gradientTransform="translate(370.608 52.7474) rotate(-167.727) scale(38.1601 30.516)">
<stop offset="0.04" stop-color="#FFC752"/>
<stop offset="0.33383" stop-color="#FA5147"/>
<stop offset="0.560234" stop-color="#C837AB"/>
<stop offset="0.837017" stop-color="#4664C9"/>
<stop offset="1" stop-color="#0E2B8D"/>
</radialGradient>
<radialGradient id="paint7_radial_3873_88687" cx="0" cy="0" r="1" gradientUnits="userSpaceOnUse" gradientTransform="translate(343.153 53.718) rotate(-4.34859) scale(33.2036 33.2035)">
<stop stop-color="#FFA3A3" stop-opacity="0"/>
<stop offset="0.737543" stop-color="#4A658E"/>
<stop offset="0.9375" stop-color="#A99CEC"/>
</radialGradient>
<radialGradient id="paint8_radial_3873_88687" cx="0" cy="0" r="1" gradientUnits="userSpaceOnUse" gradientTransform="translate(430.847 85.2983) rotate(104.876) scale(46.612 37.2748)">
<stop offset="0.251955" stop-color="#7552FF"/>
<stop offset="0.785" stop-color="#0F4EEF"/>
<stop offset="0.935" stop-color="#1D2334"/>
</radialGradient>
<radialGradient id="paint9_radial_3873_88687" cx="0" cy="0" r="1" gradientUnits="userSpaceOnUse" gradientTransform="translate(402.619 104.933) rotate(-1.44818) scale(49.828 49.8279)">
<stop stop-color="#FFA3A3" stop-opacity="0"/>
<stop offset="0.737543" stop-color="#4A658E"/>
<stop offset="0.9375" stop-color="#A99CEC"/>
</radialGradient>
</defs>
</svg>
