<svg width="279" height="210" viewBox="0 0 279 210" fill="none" xmlns="http://www.w3.org/2000/svg">
<rect width="279" height="210" rx="12" fill="#3D3F40"/>
<rect x="12" y="16" width="57" height="57" rx="21" fill="url(#paint0_radial_3161_59036)"/>
<path d="M40.5 35C41.4183 35 42.3159 35.2786 43.0794 35.8005C43.8429 36.3225 44.438 37.0643 44.7894 37.9323C45.1408 38.8002 45.2328 39.7553 45.0536 40.6767C44.8745 41.5981 44.4323 42.4445 43.783 43.1088C43.1337 43.7731 42.3064 44.2255 41.4058 44.4087C40.5052 44.592 39.5716 44.4979 38.7233 44.1384C37.8749 43.7789 37.1498 43.1701 36.6396 42.389C36.1294 41.6078 35.8571 40.6895 35.8571 39.75L35.8618 39.5438C35.9137 38.321 36.4251 37.1658 37.2892 36.3192C38.1534 35.4727 39.3036 35.0001 40.5 35ZM42.3571 46.4C43.5885 46.4 44.7694 46.9004 45.6401 47.7912C46.5108 48.682 47 49.8902 47 51.15V52.1C47 52.6039 46.8043 53.0872 46.4561 53.4435C46.1078 53.7998 45.6354 54 45.1429 54H35.8571C35.3646 54 34.8922 53.7998 34.5439 53.4435C34.1957 53.0872 34 52.6039 34 52.1V51.15C34 49.8902 34.4892 48.682 35.3599 47.7912C36.2306 46.9004 37.4115 46.4 38.6429 46.4H42.3571Z" fill="#E3ECF8"/>
<path d="M81.6761 29.5138V27.6364H91.5405V29.5138H87.7191V40H85.4975V29.5138H81.6761ZM92.5299 40V30.7273H94.6489V32.2727H94.7455C94.9145 31.7375 95.2043 31.3249 95.6148 31.0352C96.0293 30.7414 96.5022 30.5945 97.0335 30.5945C97.1542 30.5945 97.289 30.6005 97.4379 30.6126C97.5909 30.6206 97.7176 30.6347 97.8183 30.6548V32.6651C97.7257 32.6329 97.5788 32.6048 97.3776 32.5806C97.1804 32.5524 96.9892 32.5384 96.8041 32.5384C96.4056 32.5384 96.0474 32.6249 95.7295 32.7979C95.4156 32.967 95.1681 33.2024 94.9869 33.5043C94.8058 33.8061 94.7153 34.1542 94.7153 34.5487V40H92.5299ZM101.92 40.1871C101.332 40.1871 100.803 40.0825 100.332 39.8732C99.8652 39.6599 99.4949 39.346 99.2212 38.9315C98.9516 38.5169 98.8167 38.0058 98.8167 37.3981C98.8167 36.8749 98.9133 36.4422 99.1065 36.1001C99.2997 35.758 99.5633 35.4844 99.8974 35.2791C100.231 35.0739 100.608 34.9189 101.026 34.8143C101.449 34.7056 101.886 34.6271 102.336 34.5788C102.88 34.5225 103.32 34.4722 103.658 34.4279C103.996 34.3796 104.242 34.3072 104.395 34.2106C104.552 34.11 104.63 33.955 104.63 33.7457V33.7095C104.63 33.2547 104.495 32.9026 104.226 32.6531C103.956 32.4035 103.568 32.2788 103.061 32.2788C102.525 32.2788 102.101 32.3955 101.787 32.6289C101.477 32.8623 101.268 33.138 101.159 33.456L99.1186 33.1662C99.2796 32.6027 99.5452 32.1319 99.9155 31.7536C100.286 31.3712 100.739 31.0855 101.274 30.8963C101.809 30.7031 102.401 30.6065 103.049 30.6065C103.495 30.6065 103.94 30.6589 104.383 30.7635C104.826 30.8681 105.23 31.0412 105.596 31.2827C105.962 31.5201 106.256 31.8441 106.478 32.2546C106.703 32.6651 106.816 33.1783 106.816 33.794V40H104.715V38.7262H104.642C104.51 38.9838 104.322 39.2253 104.081 39.4506C103.844 39.672 103.544 39.8511 103.181 39.9879C102.823 40.1207 102.403 40.1871 101.92 40.1871ZM102.487 38.5813C102.926 38.5813 103.306 38.4948 103.628 38.3217C103.95 38.1446 104.198 37.9112 104.371 37.6214C104.548 37.3317 104.636 37.0157 104.636 36.6737V35.581C104.568 35.6373 104.451 35.6896 104.286 35.7379C104.125 35.7862 103.944 35.8285 103.743 35.8647C103.542 35.9009 103.342 35.9331 103.145 35.9613C102.948 35.9895 102.777 36.0136 102.632 36.0337C102.306 36.078 102.014 36.1504 101.757 36.2511C101.499 36.3517 101.296 36.4925 101.147 36.6737C100.998 36.8507 100.924 37.0801 100.924 37.3619C100.924 37.7643 101.071 38.0682 101.364 38.2734C101.658 38.4787 102.032 38.5813 102.487 38.5813ZM117.111 30.7273L113.809 40H111.394L108.092 30.7273H110.422L112.553 37.6154H112.65L114.787 30.7273H117.111ZM122.56 40.1811C121.631 40.1811 120.828 39.9879 120.152 39.6016C119.479 39.2112 118.962 38.6598 118.6 37.9474C118.238 37.2311 118.057 36.3879 118.057 35.418C118.057 34.4641 118.238 33.627 118.6 32.9066C118.966 32.1822 119.477 31.6187 120.133 31.2163C120.789 30.8098 121.56 30.6065 122.446 30.6065C123.017 30.6065 123.556 30.6991 124.063 30.8842C124.575 31.0653 125.025 31.3471 125.416 31.7294C125.81 32.1117 126.12 32.5987 126.345 33.1903C126.571 33.7779 126.683 34.4782 126.683 35.2912V35.9613H119.083V34.4883H124.589C124.585 34.0697 124.494 33.6974 124.317 33.3714C124.14 33.0414 123.892 32.7818 123.574 32.5927C123.261 32.4035 122.894 32.3089 122.476 32.3089C122.029 32.3089 121.637 32.4176 121.299 32.6349C120.96 32.8482 120.697 33.13 120.508 33.4801C120.323 33.8262 120.228 34.2066 120.224 34.6211V35.907C120.224 36.4463 120.323 36.9091 120.52 37.2955C120.717 37.6778 120.993 37.9716 121.347 38.1768C121.701 38.3781 122.116 38.4787 122.59 38.4787C122.908 38.4787 123.196 38.4344 123.454 38.3459C123.711 38.2533 123.935 38.1185 124.124 37.9414C124.313 37.7643 124.456 37.545 124.552 37.2834L126.593 37.5128C126.464 38.0521 126.219 38.523 125.856 38.9254C125.498 39.3239 125.039 39.6338 124.48 39.8551C123.921 40.0724 123.281 40.1811 122.56 40.1811ZM130.865 27.6364V40H128.68V27.6364H130.865ZM140.588 33.1783L138.596 33.3956C138.54 33.1944 138.441 33.0052 138.3 32.8281C138.163 32.651 137.978 32.5082 137.745 32.3995C137.511 32.2908 137.226 32.2365 136.888 32.2365C136.433 32.2365 136.051 32.3351 135.741 32.5323C135.435 32.7295 135.284 32.9851 135.288 33.299C135.284 33.5687 135.382 33.788 135.584 33.957C135.789 34.1261 136.127 34.2649 136.598 34.3736L138.18 34.7116C139.057 34.9008 139.709 35.2006 140.136 35.6112C140.566 36.0217 140.783 36.5589 140.788 37.223C140.783 37.8066 140.612 38.3217 140.274 38.7685C139.94 39.2112 139.475 39.5573 138.88 39.8068C138.284 40.0563 137.6 40.1811 136.827 40.1811C135.692 40.1811 134.779 39.9437 134.087 39.4688C133.394 38.9898 132.982 38.3237 132.849 37.4705L134.98 37.2653C135.077 37.6838 135.282 37.9998 135.596 38.2131C135.91 38.4264 136.318 38.533 136.821 38.533C137.34 38.533 137.757 38.4264 138.071 38.2131C138.389 37.9998 138.548 37.7362 138.548 37.4222C138.548 37.1566 138.445 36.9373 138.24 36.7642C138.039 36.5911 137.725 36.4583 137.298 36.3658L135.716 36.0337C134.827 35.8486 134.169 35.5367 133.742 35.098C133.316 34.6553 133.105 34.0959 133.109 33.4197C133.105 32.8482 133.259 32.3532 133.573 31.9347C133.891 31.5121 134.332 31.1861 134.895 30.9567C135.463 30.7232 136.117 30.6065 136.857 30.6065C137.944 30.6065 138.799 30.8379 139.423 31.3008C140.051 31.7636 140.439 32.3894 140.588 33.1783Z" fill="#717D8B"/>
<path d="M90.3068 56.8182V67H89.1136L83.5653 59.0057H83.4659V67H82.233V56.8182H83.4261L88.9943 64.8324H89.0938V56.8182H90.3068ZM95.8644 67.1591C95.175 67.1591 94.5702 66.995 94.0498 66.6669C93.5328 66.3388 93.1284 65.8797 92.8367 65.2898C92.5484 64.6998 92.4042 64.0104 92.4042 63.2216C92.4042 62.4261 92.5484 61.7318 92.8367 61.1385C93.1284 60.5452 93.5328 60.0845 94.0498 59.7564C94.5702 59.4283 95.175 59.2642 95.8644 59.2642C96.5538 59.2642 97.157 59.4283 97.6741 59.7564C98.1944 60.0845 98.5988 60.5452 98.8872 61.1385C99.1788 61.7318 99.3247 62.4261 99.3247 63.2216C99.3247 64.0104 99.1788 64.6998 98.8872 65.2898C98.5988 65.8797 98.1944 66.3388 97.6741 66.6669C97.157 66.995 96.5538 67.1591 95.8644 67.1591ZM95.8644 66.1051C96.3881 66.1051 96.819 65.9709 97.157 65.7024C97.4951 65.4339 97.7453 65.081 97.9078 64.6435C98.0702 64.206 98.1514 63.732 98.1514 63.2216C98.1514 62.7112 98.0702 62.2356 97.9078 61.7947C97.7453 61.3539 97.4951 60.9976 97.157 60.7259C96.819 60.4541 96.3881 60.3182 95.8644 60.3182C95.3408 60.3182 94.9099 60.4541 94.5718 60.7259C94.2337 60.9976 93.9835 61.3539 93.8211 61.7947C93.6587 62.2356 93.5775 62.7112 93.5775 63.2216C93.5775 63.732 93.6587 64.206 93.8211 64.6435C93.9835 65.081 94.2337 65.4339 94.5718 65.7024C94.9099 65.9709 95.3408 66.1051 95.8644 66.1051ZM102.733 67L100.407 59.3636H101.64L103.29 65.2102H103.37L105 59.3636H106.253L107.864 65.1903H107.944L109.594 59.3636H110.827L108.5 67H107.347L105.676 61.1335H105.557L103.887 67H102.733Z" fill="#717D8B"/>
<rect x="12" y="85" width="255" height="18" rx="9" fill="#C0CFE0" fill-opacity="0.12"/>
<rect x="12" y="108" width="255" height="18" rx="9" fill="#C0CFE0" fill-opacity="0.12"/>
<rect x="12" y="131" width="255" height="17" rx="8.5" fill="#C0CFE0" fill-opacity="0.12"/>
<rect x="12" y="153" width="255" height="18" rx="9" fill="#C0CFE0" fill-opacity="0.12"/>
<rect x="12" y="176" width="185" height="18" rx="9" fill="#C0CFE0" fill-opacity="0.12"/>
<defs>
<radialGradient id="paint0_radial_3161_59036" cx="0" cy="0" r="1" gradientUnits="userSpaceOnUse" gradientTransform="translate(40.5 44.5) rotate(90) scale(28.5)">
<stop stop-color="#5EC953"/>
<stop offset="1" stop-color="#4AA741"/>
</radialGradient>
</defs>
</svg>
