<svg width="66" height="65" viewBox="0 0 66 65" fill="none" xmlns="http://www.w3.org/2000/svg">
<rect x="1" y="0.5" width="64" height="64" rx="26.5" stroke="#908EB5"/>
<path d="M40.5594 29C42.7654 29 44.5594 27.206 44.5594 25C44.5594 22.794 42.7654 21 40.5594 21C38.3534 21 36.5594 22.794 36.5594 25C36.5594 27.206 38.3534 29 40.5594 29ZM40.5594 23C41.6624 23 42.5594 23.897 42.5594 25C42.5594 26.103 41.6624 27 40.5594 27C39.4564 27 38.5594 26.103 38.5594 25C38.5594 23.897 39.4564 23 40.5594 23ZM42.4274 31.301C42.3004 30.763 41.7524 30.432 41.2254 30.556C40.6874 30.683 40.3544 31.221 40.4804 31.758L41.5374 36.247C41.7214 36.905 41.5884 37.595 41.1724 38.14C40.7534 38.687 40.1164 39 39.4244 39H25.6944C25.0244 39 24.4004 38.703 23.9824 38.185C23.5654 37.668 23.4094 37.002 23.5434 36.399L25.6374 28.622C26.3774 25.312 29.2794 23.001 32.6934 23.001C33.1234 23.001 33.5524 23.039 33.9684 23.115C34.5194 23.213 35.0324 22.851 35.1314 22.309C35.2304 21.765 34.8684 21.245 34.3254 21.146C33.7914 21.049 33.2424 21 32.6924 21C28.3354 21 24.6314 23.955 23.6954 28.144L21.6014 35.92C21.3234 37.164 21.6234 38.447 22.4254 39.441C23.2244 40.432 24.4164 41.001 25.6944 41.001H27.6604C28.1254 43.28 30.1444 45.001 32.5594 45.001C34.9744 45.001 36.9934 43.28 37.4584 41.001H39.4234C40.7434 41.001 41.9604 40.401 42.7604 39.355C43.5614 38.307 43.8174 36.978 43.4734 35.75L42.4274 31.302V31.301ZM32.5594 43C31.2574 43 30.1574 42.161 29.7434 41H35.3744C34.9604 42.161 33.8604 43 32.5584 43H32.5594Z" fill="#908EB5"/>
</svg>
