<svg width="87" height="88" viewBox="0 0 87 88" fill="none" xmlns="http://www.w3.org/2000/svg">
<rect x="0.308594" y="0.669922" width="86.5005" height="86.5005" rx="14.5328" fill="#131846"/>
<path d="M43.8457 29.7378L43.9839 29.7463H48.8636L48.9762 29.74C49.5811 29.6738 50.1916 29.6781 50.7955 29.7527C51.6047 29.7921 52.3941 30.016 53.1035 30.4073C54.4425 31.0151 55.6114 31.9949 56.4445 33.2765C57.2124 34.4541 57.6468 35.8179 57.7014 37.2228C57.7561 38.6277 57.4289 40.0211 56.7548 41.2548L49.922 34.3349C49.8229 34.235 49.7051 34.1557 49.5752 34.1017C49.4453 34.0477 49.306 34.0201 49.1654 34.0203H46.3366C46.105 34.02 45.8796 34.0954 45.6947 34.235L41.1296 37.6928C40.8505 37.9036 40.5282 38.0501 40.1858 38.1217C39.8434 38.1934 39.4894 38.1884 39.1492 38.1071C38.809 38.0259 38.491 37.8704 38.2179 37.6518C37.9448 37.4332 37.7235 37.1569 37.5697 36.8427C37.3344 36.3573 37.2748 35.8053 37.4012 35.2809C37.5275 34.7564 37.832 34.2921 38.2626 33.9672L43.8457 29.7378ZM35.3509 48.5573L35.3212 48.585L33.6996 50.2002L33.6719 50.2257C33.4306 50.4519 33.1108 50.5754 32.7801 50.5703C32.4494 50.5651 32.1336 50.4317 31.8994 50.1981C31.7809 50.0814 31.6867 49.9423 31.6225 49.7889C31.5582 49.6354 31.5251 49.4707 31.5251 49.3044C31.5251 49.138 31.5582 48.9734 31.6225 48.8199C31.6867 48.6665 31.7809 48.5274 31.8994 48.4107L33.5232 46.7976C33.7622 46.5595 34.0858 46.4257 34.4232 46.4257C34.7606 46.4257 35.0843 46.5595 35.3233 46.7976C35.8121 47.2822 35.8206 48.0622 35.3509 48.5573ZM35.1788 51.724C34.7112 52.2192 34.7197 52.9992 35.2064 53.4838C35.4454 53.7219 35.7691 53.8557 36.1065 53.8557C36.4439 53.8557 36.7675 53.7219 37.0065 53.4838L38.6303 51.8707C38.7635 51.7386 38.8655 51.5784 38.9288 51.4018C38.9921 51.2253 39.0151 51.0367 38.9962 50.8501C38.9772 50.6635 38.9168 50.4835 38.8193 50.3232C38.7218 50.1629 38.5896 50.0265 38.4326 49.9239C38.1937 49.7662 37.9087 49.6934 37.6234 49.7173C37.3381 49.7412 37.0692 49.8604 36.8599 50.0557L36.8301 50.0833L35.2085 51.6964L35.1788 51.724ZM31.349 44.175C31.4675 44.2917 31.5617 44.4308 31.626 44.5842C31.6902 44.7376 31.7233 44.9023 31.7233 45.0687C31.7233 45.235 31.6902 45.3997 31.626 45.5531C31.5617 45.7066 31.4675 45.8457 31.349 45.9624L29.7253 47.5755C29.4862 47.8136 29.1626 47.9473 28.8252 47.9473C28.4878 47.9473 28.1641 47.8136 27.9251 47.5755C27.8066 47.4588 27.7124 47.3197 27.6481 47.1662C27.5839 47.0128 27.5508 46.8481 27.5508 46.6818C27.5508 46.5154 27.5839 46.3507 27.6481 46.1973C27.7124 46.0439 27.8066 45.9048 27.9251 45.7881L29.5489 44.1729C29.7879 43.9347 30.1115 43.801 30.4489 43.801C30.7863 43.801 31.11 43.9347 31.349 44.1729M41.9372 53.3669C42.0558 53.4836 42.1499 53.6227 42.2142 53.7761C42.2785 53.9296 42.3116 54.0942 42.3116 54.2606C42.3116 54.4269 42.2785 54.5916 42.2142 54.745C42.1499 54.8985 42.0558 55.0376 41.9372 55.1543L40.3135 56.7695C40.0745 57.0076 39.7508 57.1414 39.4134 57.1414C39.076 57.1414 38.7524 57.0076 38.5134 56.7695C38.3105 56.5697 38.1817 56.3068 38.1481 56.0241C38.1144 55.7413 38.1781 55.4556 38.3285 55.2138L38.3348 55.2053C38.3857 55.1237 38.4456 55.0481 38.5134 54.98L40.1371 53.3669C40.3761 53.1287 40.6998 52.995 41.0372 52.995C41.3746 52.995 41.6982 53.1287 41.9372 53.3669ZM30.8857 32.692C32.0674 31.5183 33.5206 30.6546 35.1163 30.1774C36.7121 29.7002 38.4009 29.6245 40.033 29.9567L36.9789 32.2733C36.5108 32.628 36.1174 33.0718 35.8213 33.579C35.5252 34.0863 35.3324 34.647 35.2538 35.2291C35.1751 35.8111 35.2124 36.403 35.3633 36.9706C35.5142 37.5382 35.7758 38.0704 36.133 38.5366C36.8557 39.4792 37.9219 40.0976 39.0989 40.2569C40.276 40.4162 41.4682 40.1033 42.4154 39.3867L46.6958 36.1456H48.6277L52.7465 40.2368L52.755 40.2262L56.1725 43.6883L56.2235 43.7372L58.0619 45.5756C58.4514 45.9697 58.6752 46.498 58.6873 47.0519C58.6995 47.6059 58.499 48.1435 58.1271 48.5543C57.7552 48.9651 57.2402 49.2179 56.6877 49.2607C56.1353 49.3036 55.5874 49.1333 55.1566 48.7848L55.0014 48.6317L54.8867 48.5318L53.0802 46.7253C52.8809 46.5258 52.6105 46.4136 52.3285 46.4134C52.0466 46.4132 51.776 46.525 51.5765 46.7243C51.377 46.9235 51.2648 47.1939 51.2646 47.4759C51.2644 47.7579 51.3762 48.0284 51.5754 48.2279L53.4925 50.1449C53.5661 50.2158 53.6405 50.2845 53.7156 50.3511L53.7794 50.4149C54.055 50.6902 54.21 51.0638 54.2102 51.4534C54.2104 51.843 54.0558 52.2167 53.7804 52.4923C53.5051 52.768 53.1315 52.9229 52.7419 52.9231C52.3523 52.9233 51.9786 52.7687 51.703 52.4934L51.4203 52.2129C51.2708 52.0638 51.0803 51.9626 50.8731 51.9223C50.6658 51.882 50.4513 51.9043 50.2568 51.9863C50.0623 52.0684 49.8967 52.2066 49.781 52.3832C49.6653 52.5598 49.6049 52.7669 49.6074 52.978C49.6046 53.1208 49.6307 53.2628 49.684 53.3953C49.7373 53.5279 49.8168 53.6483 49.9177 53.7494L50.2896 54.1214C50.4143 54.246 50.5131 54.3939 50.5805 54.5568C50.648 54.7196 50.6827 54.8941 50.6827 55.0703C50.6827 55.2466 50.648 55.4211 50.5805 55.5839C50.5131 55.7467 50.4143 55.8947 50.2896 56.0193C50.165 56.1439 50.0171 56.2427 49.8543 56.3102C49.6914 56.3776 49.5169 56.4123 49.3407 56.4123C49.1645 56.4123 48.9899 56.3776 48.8271 56.3102C48.6643 56.2427 48.5164 56.1439 48.3917 56.0193L48.2026 55.828C48.1379 55.7527 48.0705 55.6797 48.0007 55.6091L47.6543 55.2627C47.4539 55.0691 47.1854 54.962 46.9068 54.9644C46.6282 54.9668 46.3617 55.0786 46.1646 55.2756C45.9676 55.4726 45.8558 55.7392 45.8534 56.0178C45.851 56.2964 45.9581 56.5648 46.1517 56.7652L46.411 57.0245C46.4436 57.067 46.479 57.1088 46.5172 57.1499L46.6214 57.2519C46.8333 57.527 46.9336 57.8719 46.9021 58.2177C46.8705 58.5635 46.7095 58.8846 46.4513 59.1168C46.1931 59.3489 45.8567 59.475 45.5095 59.4697C45.1623 59.4644 44.83 59.3281 44.579 59.0882L42.7406 57.3561L43.4462 56.6547C43.7619 56.3417 44.0126 55.9693 44.1836 55.5589C44.3547 55.1486 44.4427 54.7084 44.4427 54.2638C44.4427 53.8192 44.3547 53.379 44.1836 52.9686C44.0126 52.5582 43.7619 52.1858 43.4462 51.8728C42.8303 51.2592 42.0029 50.9048 41.1339 50.8824C41.1103 50.0178 40.754 49.1955 40.1392 48.5871C39.5239 47.974 38.6973 47.6197 37.829 47.5967C37.8049 46.7318 37.4478 45.9095 36.8323 45.3014C36.4389 44.9084 35.9552 44.6178 35.4235 44.4552C34.8918 44.2925 34.3283 44.2627 33.7825 44.3684C33.6439 43.7271 33.3229 43.1396 32.8579 42.6767C32.2591 42.0838 31.4626 41.7328 30.621 41.6908C29.7794 41.6488 28.9519 41.9189 28.2971 42.4492C27.8218 40.7396 27.8116 38.9341 28.2674 37.2192C28.7232 35.5043 29.6285 33.9422 30.8899 32.6941" fill="#0ACD95"/>
</svg>
