<svg width="66" height="65" viewBox="0 0 66 65" fill="none" xmlns="http://www.w3.org/2000/svg">
<rect x="1" y="0.5" width="64" height="64" rx="26.5" stroke="#908EB5"/>
<path d="M27.4684 43.2835C27.2499 43.2834 27.0375 43.2117 26.8637 43.0794C26.6898 42.9471 26.564 42.7614 26.5057 42.5508C26.4473 42.3402 26.4595 42.1162 26.5404 41.9132C26.6213 41.7102 26.7665 41.5393 26.9537 41.4266C30.4946 39.2988 30.4946 34.7291 30.4946 31.9993C30.4946 31.2037 30.8105 30.4407 31.3727 29.8781C31.935 29.3155 32.6976 28.9995 33.4928 28.9995C34.2879 28.9995 35.0505 29.3155 35.6128 29.8781C36.1751 30.4407 36.491 31.2037 36.491 31.9993C36.491 32.2645 36.3857 32.5188 36.1982 32.7063C36.0108 32.8939 35.7566 32.9992 35.4916 32.9992C35.2265 32.9992 34.9723 32.8939 34.7849 32.7063C34.5975 32.5188 34.4922 32.2645 34.4922 31.9993C34.4922 31.7341 34.3869 31.4797 34.1994 31.2922C34.012 31.1047 33.7578 30.9994 33.4928 30.9994C33.2277 30.9994 32.9735 31.1047 32.7861 31.2922C32.5987 31.4797 32.4934 31.7341 32.4934 31.9993C32.4934 34.9461 32.4934 40.4327 27.9821 43.1415C27.8269 43.2345 27.6493 43.2836 27.4684 43.2835ZM32.4284 44.7044C34.709 42.4046 36.0412 39.1708 36.387 35.0841C36.3987 34.953 36.3843 34.8209 36.3449 34.6953C36.3054 34.5698 36.2415 34.4533 36.1569 34.3525C36.0723 34.2517 35.9687 34.1686 35.852 34.1079C35.7352 34.0473 35.6076 34.0103 35.4766 33.9991C35.3454 33.9857 35.2129 33.9988 35.0869 34.0376C34.9609 34.0765 34.8441 34.1403 34.7433 34.2253C34.6425 34.3103 34.5598 34.4148 34.5002 34.5324C34.4405 34.65 34.4052 34.7785 34.3962 34.9101C34.0854 38.5668 32.9781 41.3096 31.0103 43.2905C30.8234 43.4787 30.7189 43.7334 30.7197 43.9986C30.7206 44.2639 30.8267 44.5179 31.0148 44.7049C31.2028 44.8919 31.4574 44.9964 31.7225 44.9956C31.9876 44.9947 32.2415 44.8886 32.4284 44.7004V44.7044ZM37.6253 44.5184C38.2315 43.5106 38.7363 42.4451 39.1324 41.3376C39.2151 41.0899 39.1978 40.8197 39.084 40.5846C38.9702 40.3495 38.769 40.1684 38.5234 40.0798C38.2779 39.9912 38.0074 40.0023 37.7699 40.1107C37.5324 40.2191 37.3467 40.4161 37.2525 40.6597C36.9006 41.6417 36.4527 42.5865 35.9153 43.4805C35.8472 43.5928 35.8019 43.7175 35.7819 43.8473C35.7619 43.9772 35.7677 44.1097 35.799 44.2374C35.8302 44.365 35.8862 44.4852 35.9639 44.5912C36.0416 44.6971 36.1393 44.7867 36.2516 44.8549C36.4784 44.9925 36.7505 45.0344 37.0081 44.9713C37.1356 44.9401 37.2558 44.884 37.3617 44.8063C37.4676 44.7286 37.5572 44.6307 37.6253 44.5184ZM39.9888 38.1899C40.3591 36.1479 40.5265 34.0742 40.4885 31.9993C40.4876 30.5827 40.0571 29.1997 39.2538 28.0331C38.4506 26.8665 37.3125 25.9712 35.99 25.4656C34.6674 24.9599 33.2226 24.8677 31.8465 25.201C30.4704 25.5344 29.2278 26.2776 28.2829 27.3326C28.1909 27.4296 28.1192 27.5441 28.0722 27.6693C28.0252 27.7945 28.0038 27.9278 28.0092 28.0615C28.0146 28.1951 28.0467 28.3263 28.1037 28.4472C28.1607 28.5682 28.2413 28.6765 28.3409 28.7658C28.4404 28.855 28.5569 28.9234 28.6833 28.9668C28.8097 29.0102 28.9436 29.0278 29.0769 29.0186C29.2102 29.0093 29.3404 28.9734 29.4596 28.9129C29.5788 28.8524 29.6847 28.7687 29.771 28.6665C30.4459 27.9128 31.3334 27.3818 32.3164 27.1436C33.2993 26.9054 34.3314 26.9712 35.2761 27.3323C36.2209 27.6935 37.0339 28.3329 37.6077 29.1662C38.1815 29.9995 38.489 30.9874 38.4897 31.9993C38.5266 33.9459 38.372 35.8915 38.028 37.8079C37.9776 38.068 38.0324 38.3376 38.1804 38.5573C38.3284 38.777 38.5576 38.929 38.8175 38.9798C38.8811 38.9925 38.9457 38.9989 39.0104 38.9988C39.2419 38.9982 39.466 38.9172 39.6445 38.7697C39.8229 38.6221 39.9446 38.4172 39.9888 38.1899ZM28.4958 31.9993C28.4955 31.7202 28.5186 31.4416 28.5647 31.1663C28.5946 31.0338 28.5971 30.8966 28.5722 30.7631C28.5473 30.6296 28.4955 30.5026 28.4199 30.3897C28.3443 30.2769 28.2465 30.1807 28.1326 30.1069C28.0186 30.0332 27.8908 29.9834 27.7569 29.9607C27.6231 29.938 27.486 29.9428 27.3541 29.9748C27.2222 30.0068 27.0982 30.0654 26.9896 30.147C26.8811 30.2286 26.7903 30.3314 26.7228 30.4492C26.6552 30.5671 26.6124 30.6974 26.5969 30.8324C26.531 31.2178 26.4975 31.6082 26.497 31.9993C26.497 36.644 25.1518 38.9988 22.4994 38.9988C22.2343 38.9988 21.9801 39.1041 21.7927 39.2917C21.6053 39.4792 21.5 39.7335 21.5 39.9987C21.5 40.2639 21.6053 40.5183 21.7927 40.7058C21.9801 40.8933 22.2343 40.9987 22.4994 40.9987C26.3661 40.9987 28.4958 37.7989 28.4958 31.9993ZM42.1875 44.4124C43.8322 40.4868 44.6161 36.2539 44.4861 31.9993C44.4907 30.3383 44.1147 28.6984 43.3868 27.2056C43.3294 27.0874 43.2493 26.9817 43.151 26.8945C43.0528 26.8073 42.9383 26.7403 42.8142 26.6974C42.6901 26.6545 42.5587 26.6364 42.4276 26.6442C42.2965 26.6521 42.1682 26.6857 42.0501 26.7431C41.932 26.8006 41.8263 26.8808 41.7392 26.9791C41.652 27.0774 41.5851 27.1919 41.5421 27.3161C41.4992 27.4403 41.4812 27.5717 41.489 27.7029C41.4969 27.834 41.5305 27.9624 41.5879 28.0806C42.1826 29.301 42.4902 30.6415 42.4873 31.9993C42.6131 35.9678 41.8912 39.9174 40.3696 43.5845C40.3154 43.7042 40.2854 43.8335 40.2812 43.9648C40.277 44.0962 40.2987 44.2271 40.3451 44.3501C40.3915 44.473 40.4617 44.5856 40.5517 44.6814C40.6416 44.7772 40.7496 44.8544 40.8693 44.9084C40.9988 44.9679 41.1396 44.9986 41.2821 44.9984C41.4732 44.9976 41.6601 44.9419 41.8206 44.8381C41.981 44.7342 42.1084 44.5865 42.1875 44.4124ZM24.4982 34.9991V31.9993C24.5008 29.6133 25.4493 27.3258 27.1356 25.6387C28.8218 23.9516 31.1081 23.0026 33.4928 22.9999C35.44 22.9934 37.3356 23.6256 38.8895 24.7998C39.1015 24.9589 39.3681 25.0272 39.6305 24.9897C39.8929 24.9522 40.1296 24.812 40.2887 24.5998C40.4477 24.3876 40.516 24.121 40.4785 23.8584C40.441 23.5959 40.3008 23.359 40.0888 23.1999C38.1893 21.7654 35.8726 20.9928 33.4928 21.0001C30.5782 21.0035 27.784 22.1634 25.7231 24.2255C23.6622 26.2875 22.5028 29.0832 22.4994 31.9993V34.9991C22.4994 35.2643 22.6047 35.5186 22.7921 35.7061C22.9795 35.8937 23.2337 35.999 23.4988 35.999C23.7639 35.999 24.0181 35.8937 24.2055 35.7061C24.3929 35.5186 24.4982 35.2643 24.4982 34.9991Z" fill="#908EB5"/>
</svg>
