<svg width="209" height="131" viewBox="0 0 209 131" fill="none" xmlns="http://www.w3.org/2000/svg">
<rect width="209" height="130.5" rx="22" fill="#0E0C31" fill-opacity="0.31"/>
<rect x="0.5" y="0.5" width="208" height="129.5" rx="21.5" stroke="url(#paint0_linear_2678_56935)" stroke-opacity="0.26"/>
<path d="M15.4773 20.598V19.2727H22.4403V20.598H19.7429V28H18.1747V20.598H15.4773ZM25.2595 24.1648V28H23.7169V19.2727H25.2254V22.5668H25.3021C25.4555 22.1974 25.6927 21.9062 26.0138 21.6932C26.3376 21.4773 26.7496 21.3693 27.2496 21.3693C27.7041 21.3693 28.1004 21.4645 28.4385 21.6548C28.7765 21.8452 29.0379 22.1236 29.2226 22.4901C29.4101 22.8565 29.5038 23.304 29.5038 23.8324V28H27.9612V24.071C27.9612 23.6307 27.8476 23.2884 27.6203 23.044C27.3959 22.7969 27.0805 22.6733 26.6743 22.6733C26.4015 22.6733 26.1572 22.733 25.9413 22.8523C25.7283 22.9687 25.5606 23.1378 25.4385 23.3594C25.3192 23.581 25.2595 23.8494 25.2595 24.1648ZM32.9622 28.1321C32.5474 28.1321 32.1738 28.0582 31.8414 27.9105C31.5119 27.7599 31.2505 27.5384 31.0574 27.2457C30.867 26.9531 30.7718 26.5923 30.7718 26.1634C30.7718 25.794 30.84 25.4886 30.9764 25.2472C31.1128 25.0057 31.2988 24.8125 31.5346 24.6676C31.7704 24.5227 32.036 24.4134 32.3315 24.3395C32.6298 24.2628 32.938 24.2074 33.2562 24.1733C33.6397 24.1335 33.9508 24.098 34.1895 24.0668C34.4281 24.0327 34.6014 23.9815 34.7093 23.9134C34.8201 23.8423 34.8755 23.733 34.8755 23.5852V23.5597C34.8755 23.2386 34.7804 22.9901 34.59 22.8139C34.3997 22.6378 34.1255 22.5497 33.7676 22.5497C33.3897 22.5497 33.09 22.6321 32.8684 22.7969C32.6497 22.9616 32.502 23.1562 32.4253 23.3807L30.9849 23.1761C31.0985 22.7784 31.286 22.446 31.5474 22.179C31.8088 21.9091 32.1284 21.7074 32.5062 21.5739C32.8841 21.4375 33.3017 21.3693 33.7591 21.3693C34.0744 21.3693 34.3883 21.4062 34.7008 21.4801C35.0133 21.554 35.2988 21.6761 35.5574 21.8466C35.8159 22.0142 36.0233 22.2429 36.1795 22.5327C36.3386 22.8224 36.4182 23.1847 36.4182 23.6193V28H34.9352V27.1009H34.8841C34.7903 27.2827 34.6582 27.4531 34.4878 27.6122C34.3201 27.7685 34.1085 27.8949 33.8528 27.9915C33.6 28.0852 33.3031 28.1321 32.9622 28.1321ZM33.3628 26.9986C33.6724 26.9986 33.9409 26.9375 34.1682 26.8153C34.3954 26.6903 34.5701 26.5256 34.6923 26.321C34.8173 26.1165 34.8798 25.8935 34.8798 25.652V24.8807C34.8315 24.9205 34.7491 24.9574 34.6326 24.9915C34.519 25.0256 34.3912 25.0554 34.2491 25.081C34.1071 25.1065 33.9664 25.1293 33.8272 25.1491C33.688 25.169 33.5673 25.1861 33.465 25.2003C33.2349 25.2315 33.0289 25.2827 32.8471 25.3537C32.6653 25.4247 32.5218 25.5241 32.4167 25.652C32.3116 25.777 32.2591 25.9389 32.2591 26.1378C32.2591 26.4219 32.3628 26.6364 32.5701 26.7812C32.7775 26.9261 33.0417 26.9986 33.3628 26.9986ZM39.5143 24.1648V28H37.9717V21.4545H39.4461V22.5668H39.5228C39.6734 22.2003 39.9135 21.9091 40.243 21.6932C40.5754 21.4773 40.9859 21.3693 41.4745 21.3693C41.9262 21.3693 42.3197 21.4659 42.6549 21.6591C42.993 21.8523 43.2544 22.1321 43.439 22.4986C43.6265 22.8651 43.7188 23.3097 43.716 23.8324V28H42.1734V24.071C42.1734 23.6335 42.0598 23.2912 41.8325 23.044C41.6081 22.7969 41.297 22.6733 40.8992 22.6733C40.6294 22.6733 40.3893 22.733 40.1791 22.8523C39.9717 22.9687 39.8083 23.1378 39.689 23.3594C39.5725 23.581 39.5143 23.8494 39.5143 24.1648ZM46.6928 25.946L46.6886 24.0838H46.9357L49.288 21.4545H51.0906L48.1971 24.6761H47.8775L46.6928 25.946ZM45.2866 28V19.2727H46.8292V28H45.2866ZM49.3945 28L47.2639 25.0213L48.3036 23.9347L51.2397 28H49.3945ZM57.2943 23.1847L55.8881 23.3381C55.8483 23.196 55.7787 23.0625 55.6793 22.9375C55.5827 22.8125 55.452 22.7116 55.2872 22.6349C55.1224 22.5582 54.9207 22.5199 54.6821 22.5199C54.3611 22.5199 54.0912 22.5895 53.8724 22.7287C53.6565 22.8679 53.55 23.0483 53.5528 23.2699C53.55 23.4602 53.6196 23.6151 53.7616 23.7344C53.9065 23.8537 54.1452 23.9517 54.4776 24.0284L55.594 24.267C56.2134 24.4006 56.6736 24.6122 56.9747 24.902C57.2787 25.1918 57.4321 25.571 57.4349 26.0398C57.4321 26.4517 57.3114 26.8153 57.0727 27.1307C56.8369 27.4432 56.5088 27.6875 56.0884 27.8636C55.6679 28.0398 55.1849 28.1278 54.6395 28.1278C53.8384 28.1278 53.1935 27.9602 52.7048 27.625C52.2162 27.2869 51.925 26.8168 51.8312 26.2145L53.3355 26.0696C53.4037 26.3651 53.5486 26.5881 53.7702 26.7386C53.9918 26.8892 54.2801 26.9645 54.6352 26.9645C55.0017 26.9645 55.2957 26.8892 55.5173 26.7386C55.7418 26.5881 55.854 26.402 55.854 26.1804C55.854 25.9929 55.7815 25.8381 55.6366 25.7159C55.4946 25.5937 55.273 25.5 54.9719 25.4347L53.8554 25.2003C53.2276 25.0696 52.7631 24.8494 52.4619 24.5398C52.1608 24.2273 52.0116 23.8324 52.0145 23.3551C52.0116 22.9517 52.121 22.6023 52.3426 22.3068C52.567 22.0085 52.8781 21.7784 53.2759 21.6165C53.6764 21.4517 54.1381 21.3693 54.6608 21.3693C55.4278 21.3693 56.0315 21.5327 56.4719 21.8594C56.9151 22.1861 57.1892 22.6278 57.2943 23.1847ZM61.7565 28V19.2727H67.3474V20.598H63.3375V22.9673H66.9639V24.2926H63.3375V28H61.7565ZM71.0966 28.1278C70.4574 28.1278 69.9034 27.9872 69.4347 27.706C68.9659 27.4247 68.6023 27.0312 68.3438 26.5256C68.0881 26.0199 67.9603 25.429 67.9603 24.7528C67.9603 24.0767 68.0881 23.4844 68.3438 22.9759C68.6023 22.4673 68.9659 22.0724 69.4347 21.7912C69.9034 21.5099 70.4574 21.3693 71.0966 21.3693C71.7358 21.3693 72.2898 21.5099 72.7585 21.7912C73.2273 22.0724 73.5895 22.4673 73.8452 22.9759C74.1037 23.4844 74.233 24.0767 74.233 24.7528C74.233 25.429 74.1037 26.0199 73.8452 26.5256C73.5895 27.0312 73.2273 27.4247 72.7585 27.706C72.2898 27.9872 71.7358 28.1278 71.0966 28.1278ZM71.1051 26.892C71.4517 26.892 71.7415 26.7969 71.9745 26.6065C72.2074 26.4134 72.3807 26.1548 72.4943 25.831C72.6108 25.5071 72.6691 25.1463 72.6691 24.7486C72.6691 24.348 72.6108 23.9858 72.4943 23.6619C72.3807 23.3352 72.2074 23.0753 71.9745 22.8821C71.7415 22.6889 71.4517 22.5923 71.1051 22.5923C70.75 22.5923 70.4546 22.6889 70.2188 22.8821C69.9858 23.0753 69.8111 23.3352 69.6946 23.6619C69.581 23.9858 69.5242 24.348 69.5242 24.7486C69.5242 25.1463 69.581 25.5071 69.6946 25.831C69.8111 26.1548 69.9858 26.4134 70.2188 26.6065C70.4546 26.7969 70.75 26.892 71.1051 26.892ZM75.5447 28V21.4545H77.0404V22.5455H77.1086C77.2279 22.1676 77.4325 21.8764 77.7222 21.6719C78.0149 21.4645 78.3487 21.3608 78.7237 21.3608C78.8089 21.3608 78.9041 21.3651 79.0092 21.3736C79.1171 21.3793 79.2066 21.3892 79.2776 21.4034V22.8224C79.2123 22.7997 79.1086 22.7798 78.9666 22.7628C78.8274 22.7429 78.6924 22.733 78.5617 22.733C78.2805 22.733 78.0276 22.794 77.8032 22.9162C77.5816 23.0355 77.4069 23.2017 77.2791 23.4148C77.1512 23.6278 77.0873 23.8736 77.0873 24.152V28H75.5447ZM89.1986 22.0597C89.1276 21.8295 89.0296 21.6236 88.9046 21.4418C88.7824 21.2571 88.6347 21.0994 88.4614 20.9688C88.291 20.8381 88.0949 20.7401 87.8733 20.6747C87.6518 20.6065 87.4103 20.5724 87.1489 20.5724C86.6802 20.5724 86.2625 20.6903 85.8961 20.9261C85.5296 21.1619 85.2412 21.5085 85.031 21.9659C84.8236 22.4205 84.7199 22.9744 84.7199 23.6278C84.7199 24.2869 84.8236 24.8452 85.031 25.3026C85.2384 25.7599 85.5268 26.108 85.8961 26.3466C86.2654 26.5824 86.6944 26.7003 87.183 26.7003C87.6262 26.7003 88.0097 26.6151 88.3336 26.4446C88.6603 26.2741 88.9117 26.0327 89.0878 25.7202C89.264 25.4048 89.352 25.0355 89.352 24.6122L89.71 24.6676H87.3407V23.4318H90.8819V24.4801C90.8819 25.2273 90.7228 25.8736 90.4046 26.419C90.0864 26.9645 89.6489 27.3849 89.0921 27.6804C88.5353 27.973 87.8961 28.1193 87.1745 28.1193C86.3705 28.1193 85.6645 27.9389 85.0566 27.5781C84.4515 27.2145 83.9785 26.6989 83.6375 26.0312C83.2995 25.3608 83.1304 24.5653 83.1304 23.6449C83.1304 22.9403 83.2299 22.3111 83.4287 21.7571C83.6304 21.2031 83.9117 20.733 84.2725 20.3466C84.6333 19.9574 85.0566 19.6619 85.5424 19.4602C86.0282 19.2557 86.5566 19.1534 87.1276 19.1534C87.6106 19.1534 88.0608 19.2244 88.4785 19.3665C88.8961 19.5057 89.2668 19.7045 89.5907 19.9631C89.9174 20.2216 90.1858 20.5284 90.3961 20.8835C90.6063 21.2386 90.7441 21.6307 90.8094 22.0597H89.1986ZM95.2426 28.1278C94.5863 28.1278 94.0196 27.9915 93.5423 27.7188C93.0679 27.4432 92.7028 27.054 92.4471 26.5511C92.1914 26.0455 92.0636 25.4503 92.0636 24.7656C92.0636 24.0923 92.1914 23.5014 92.4471 22.9929C92.7056 22.4815 93.0664 22.0838 93.5295 21.7997C93.9926 21.5128 94.5366 21.3693 95.1616 21.3693C95.565 21.3693 95.9457 21.4347 96.3037 21.5653C96.6645 21.6932 96.9826 21.892 97.2582 22.1619C97.5366 22.4318 97.7554 22.7756 97.9145 23.1932C98.0735 23.608 98.1531 24.1023 98.1531 24.6761V25.1491H92.788V24.1094H96.6744C96.6716 23.8139 96.6076 23.5511 96.4826 23.321C96.3576 23.0881 96.1829 22.9048 95.9585 22.7713C95.7369 22.6378 95.4784 22.571 95.1829 22.571C94.8676 22.571 94.5906 22.6477 94.352 22.8011C94.1133 22.9517 93.9272 23.1506 93.7937 23.3977C93.663 23.642 93.5963 23.9105 93.5934 24.2031V25.1108C93.5934 25.4915 93.663 25.8182 93.8022 26.0909C93.9414 26.3608 94.136 26.5682 94.386 26.7131C94.636 26.8551 94.9287 26.9261 95.2639 26.9261C95.4883 26.9261 95.6914 26.8949 95.8733 26.8324C96.0551 26.767 96.2127 26.6719 96.3463 26.5469C96.4798 26.4219 96.5806 26.267 96.6488 26.0824L98.0892 26.2443C97.9983 26.625 97.825 26.9574 97.5693 27.2415C97.3164 27.5227 96.9926 27.7415 96.5977 27.8977C96.2028 28.0511 95.7511 28.1278 95.2426 28.1278ZM102.729 21.4545V22.6477H98.9662V21.4545H102.729ZM99.8952 19.8864H101.438V26.0312C101.438 26.2386 101.469 26.3977 101.532 26.5085C101.597 26.6165 101.682 26.6903 101.787 26.7301C101.892 26.7699 102.009 26.7898 102.137 26.7898C102.233 26.7898 102.321 26.7827 102.401 26.7685C102.483 26.7543 102.546 26.7415 102.588 26.7301L102.848 27.9361C102.766 27.9645 102.648 27.9957 102.495 28.0298C102.344 28.0639 102.159 28.0838 101.941 28.0895C101.554 28.1009 101.206 28.0426 100.897 27.9148C100.587 27.7841 100.341 27.5824 100.159 27.3097C99.9804 27.0369 99.8923 26.696 99.8952 26.2869V19.8864ZM107.29 21.4545V22.6477H103.527V21.4545H107.29ZM104.456 19.8864H105.999V26.0312C105.999 26.2386 106.03 26.3977 106.093 26.5085C106.158 26.6165 106.243 26.6903 106.348 26.7301C106.453 26.7699 106.57 26.7898 106.698 26.7898C106.794 26.7898 106.882 26.7827 106.962 26.7685C107.044 26.7543 107.107 26.7415 107.149 26.7301L107.409 27.9361C107.327 27.9645 107.209 27.9957 107.056 28.0298C106.905 28.0639 106.72 28.0838 106.502 28.0895C106.115 28.1009 105.767 28.0426 105.458 27.9148C105.148 27.7841 104.902 27.5824 104.72 27.3097C104.541 27.0369 104.453 26.696 104.456 26.2869V19.8864ZM108.583 28V21.4545H110.125V28H108.583ZM109.358 20.5256C109.114 20.5256 108.904 20.4446 108.727 20.2827C108.551 20.1179 108.463 19.9205 108.463 19.6903C108.463 19.4574 108.551 19.2599 108.727 19.098C108.904 18.9332 109.114 18.8509 109.358 18.8509C109.605 18.8509 109.815 18.9332 109.989 19.098C110.165 19.2599 110.253 19.4574 110.253 19.6903C110.253 19.9205 110.165 20.1179 109.989 20.2827C109.815 20.4446 109.605 20.5256 109.358 20.5256ZM113.256 24.1648V28H111.714V21.4545H113.188V22.5668H113.265C113.416 22.2003 113.656 21.9091 113.985 21.6932C114.318 21.4773 114.728 21.3693 115.217 21.3693C115.668 21.3693 116.062 21.4659 116.397 21.6591C116.735 21.8523 116.996 22.1321 117.181 22.4986C117.369 22.8651 117.461 23.3097 117.458 23.8324V28H115.916V24.071C115.916 23.6335 115.802 23.2912 115.575 23.044C115.35 22.7969 115.039 22.6733 114.641 22.6733C114.371 22.6733 114.131 22.733 113.921 22.8523C113.714 22.9687 113.55 23.1378 113.431 23.3594C113.315 23.581 113.256 23.8494 113.256 24.1648ZM121.875 30.5909C121.321 30.5909 120.845 30.5156 120.448 30.3651C120.05 30.2173 119.73 30.0185 119.489 29.7685C119.247 29.5185 119.08 29.2415 118.986 28.9375L120.375 28.6009C120.438 28.7287 120.529 28.8551 120.648 28.9801C120.767 29.108 120.928 29.2131 121.13 29.2955C121.334 29.3807 121.591 29.4233 121.901 29.4233C122.338 29.4233 122.701 29.3168 122.988 29.1037C123.274 28.8935 123.418 28.5469 123.418 28.0639V26.8239H123.341C123.262 26.983 123.145 27.1463 122.992 27.3139C122.841 27.4815 122.641 27.6222 122.391 27.7358C122.144 27.8494 121.833 27.9062 121.458 27.9062C120.955 27.9062 120.499 27.7884 120.09 27.5526C119.684 27.3139 119.36 26.9588 119.118 26.4872C118.88 26.0128 118.76 25.419 118.76 24.706C118.76 23.9872 118.88 23.3807 119.118 22.8864C119.36 22.3892 119.685 22.0128 120.094 21.7571C120.503 21.4986 120.959 21.3693 121.462 21.3693C121.845 21.3693 122.161 21.4347 122.408 21.5653C122.658 21.6932 122.857 21.848 123.005 22.0298C123.152 22.2088 123.265 22.3778 123.341 22.5369H123.426V21.4545H124.948V28.1065C124.948 28.6662 124.814 29.1293 124.547 29.4957C124.28 29.8622 123.915 30.1364 123.452 30.3182C122.989 30.5 122.463 30.5909 121.875 30.5909ZM121.888 26.696C122.215 26.696 122.493 26.6165 122.723 26.4574C122.953 26.2983 123.128 26.0696 123.247 25.7713C123.367 25.473 123.426 25.1151 123.426 24.6974C123.426 24.2855 123.367 23.9247 123.247 23.6151C123.131 23.3054 122.958 23.0653 122.728 22.8949C122.5 22.7216 122.22 22.6349 121.888 22.6349C121.544 22.6349 121.257 22.7244 121.027 22.9034C120.797 23.0824 120.624 23.3281 120.507 23.6406C120.391 23.9503 120.333 24.3026 120.333 24.6974C120.333 25.098 120.391 25.4489 120.507 25.75C120.627 26.0483 120.801 26.2812 121.032 26.4489C121.265 26.6136 121.55 26.696 121.888 26.696ZM129.195 20.598V19.2727H136.158V20.598H133.46V28H131.892V20.598H129.195ZM139.34 28.1278C138.701 28.1278 138.147 27.9872 137.678 27.706C137.21 27.4247 136.846 27.0312 136.587 26.5256C136.332 26.0199 136.204 25.429 136.204 24.7528C136.204 24.0767 136.332 23.4844 136.587 22.9759C136.846 22.4673 137.21 22.0724 137.678 21.7912C138.147 21.5099 138.701 21.3693 139.34 21.3693C139.979 21.3693 140.533 21.5099 141.002 21.7912C141.471 22.0724 141.833 22.4673 142.089 22.9759C142.347 23.4844 142.477 24.0767 142.477 24.7528C142.477 25.429 142.347 26.0199 142.089 26.5256C141.833 27.0312 141.471 27.4247 141.002 27.706C140.533 27.9872 139.979 28.1278 139.34 28.1278ZM139.349 26.892C139.695 26.892 139.985 26.7969 140.218 26.6065C140.451 26.4134 140.624 26.1548 140.738 25.831C140.854 25.5071 140.913 25.1463 140.913 24.7486C140.913 24.348 140.854 23.9858 140.738 23.6619C140.624 23.3352 140.451 23.0753 140.218 22.8821C139.985 22.6889 139.695 22.5923 139.349 22.5923C138.994 22.5923 138.698 22.6889 138.462 22.8821C138.229 23.0753 138.055 23.3352 137.938 23.6619C137.825 23.9858 137.768 24.348 137.768 24.7486C137.768 25.1463 137.825 25.5071 137.938 25.831C138.055 26.1548 138.229 26.4134 138.462 26.6065C138.698 26.7969 138.994 26.892 139.349 26.892ZM147.96 25.2472V21.4545H149.503V28H148.007V26.8366H147.939C147.791 27.2031 147.548 27.5028 147.21 27.7358C146.875 27.9687 146.462 28.0852 145.97 28.0852C145.541 28.0852 145.162 27.9901 144.832 27.7997C144.506 27.6065 144.25 27.3267 144.065 26.9602C143.881 26.5909 143.788 26.1449 143.788 25.6222V21.4545H145.331V25.3835C145.331 25.7983 145.445 26.1278 145.672 26.3722C145.899 26.6165 146.197 26.7386 146.567 26.7386C146.794 26.7386 147.014 26.6832 147.227 26.5724C147.44 26.4616 147.615 26.2969 147.751 26.0781C147.891 25.8565 147.96 25.5795 147.96 25.2472ZM153.947 28.1278C153.293 28.1278 152.732 27.9844 152.263 27.6974C151.797 27.4105 151.438 27.0142 151.185 26.5085C150.935 26 150.81 25.4148 150.81 24.7528C150.81 24.0881 150.938 23.5014 151.194 22.9929C151.449 22.4815 151.81 22.0838 152.276 21.7997C152.745 21.5128 153.299 21.3693 153.938 21.3693C154.469 21.3693 154.94 21.4673 155.349 21.6634C155.761 21.8565 156.089 22.1307 156.333 22.4858C156.577 22.8381 156.717 23.25 156.751 23.7216H155.276C155.217 23.4062 155.074 23.1435 154.85 22.9332C154.628 22.7202 154.332 22.6136 153.959 22.6136C153.644 22.6136 153.367 22.6989 153.128 22.8693C152.89 23.0369 152.704 23.2784 152.57 23.5938C152.44 23.9091 152.374 24.2869 152.374 24.7273C152.374 25.1733 152.44 25.5568 152.57 25.8778C152.701 26.196 152.884 26.4418 153.12 26.6151C153.359 26.7855 153.638 26.8707 153.959 26.8707C154.187 26.8707 154.39 26.8281 154.569 26.7429C154.751 26.6548 154.903 26.5284 155.025 26.3636C155.147 26.1989 155.231 25.9986 155.276 25.7628H156.751C156.714 26.2259 156.577 26.6364 156.342 26.9943C156.106 27.3494 155.785 27.6278 155.378 27.8295C154.972 28.0284 154.495 28.1278 153.947 28.1278ZM159.562 24.1648V28H158.02V19.2727H159.528V22.5668H159.605C159.758 22.1974 159.996 21.9062 160.317 21.6932C160.64 21.4773 161.052 21.3693 161.552 21.3693C162.007 21.3693 162.403 21.4645 162.741 21.6548C163.079 21.8452 163.341 22.1236 163.525 22.4901C163.713 22.8565 163.807 23.304 163.807 23.8324V28H162.264V24.071C162.264 23.6307 162.15 23.2884 161.923 23.044C161.699 22.7969 161.383 22.6733 160.977 22.6733C160.704 22.6733 160.46 22.733 160.244 22.8523C160.031 22.9687 159.863 23.1378 159.741 23.3594C159.622 23.581 159.562 23.8494 159.562 24.1648ZM17.6974 45L15.2344 36.2727H16.9347L18.5071 42.6861H18.5881L20.267 36.2727H21.8139L23.4972 42.6903H23.5739L25.1463 36.2727H26.8466L24.3835 45H22.8239L21.0767 38.8764H21.0085L19.2571 45H17.6974ZM27.877 45V38.4545H29.4197V45H27.877ZM28.6526 37.5256C28.4083 37.5256 28.1981 37.4446 28.0219 37.2827C27.8458 37.1179 27.7577 36.9205 27.7577 36.6903C27.7577 36.4574 27.8458 36.2599 28.0219 36.098C28.1981 35.9332 28.4083 35.8509 28.6526 35.8509C28.8998 35.8509 29.11 35.9332 29.2833 36.098C29.4594 36.2599 29.5475 36.4574 29.5475 36.6903C29.5475 36.9205 29.4594 37.1179 29.2833 37.2827C29.11 37.4446 28.8998 37.5256 28.6526 37.5256ZM34.2768 38.4545V39.6477H30.514V38.4545H34.2768ZM31.443 36.8864H32.9856V43.0312C32.9856 43.2386 33.0169 43.3977 33.0794 43.5085C33.1447 43.6165 33.2299 43.6903 33.3351 43.7301C33.4402 43.7699 33.5566 43.7898 33.6845 43.7898C33.7811 43.7898 33.8691 43.7827 33.9487 43.7685C34.0311 43.7543 34.0936 43.7415 34.1362 43.7301L34.3961 44.9361C34.3137 44.9645 34.1959 44.9957 34.0424 45.0298C33.8919 45.0639 33.7072 45.0838 33.4885 45.0895C33.1021 45.1009 32.7541 45.0426 32.4444 44.9148C32.1348 44.7841 31.889 44.5824 31.7072 44.3097C31.5282 44.0369 31.4402 43.696 31.443 43.2869V36.8864ZM37.2526 41.1648V45H35.71V36.2727H37.2185V39.5668H37.2952C37.4486 39.1974 37.6858 38.9062 38.0068 38.6932C38.3307 38.4773 38.7426 38.3693 39.2426 38.3693C39.6972 38.3693 40.0935 38.4645 40.4316 38.6548C40.7696 38.8452 41.031 39.1236 41.2157 39.4901C41.4032 39.8565 41.4969 40.304 41.4969 40.8324V45H39.9543V41.071C39.9543 40.6307 39.8407 40.2884 39.6134 40.044C39.3889 39.7969 39.0736 39.6733 38.6674 39.6733C38.3946 39.6733 38.1503 39.733 37.9344 39.8523C37.7213 39.9687 37.5537 40.1378 37.4316 40.3594C37.3122 40.581 37.2526 40.8494 37.2526 41.1648ZM53.5891 39.2173H51.9953C51.9499 38.956 51.866 38.7244 51.7439 38.5227C51.6217 38.3182 51.4697 38.1449 51.2879 38.0028C51.1061 37.8608 50.8987 37.7543 50.6658 37.6832C50.4356 37.6094 50.1871 37.5724 49.92 37.5724C49.4456 37.5724 49.0251 37.6918 48.6587 37.9304C48.2922 38.1662 48.0053 38.5128 47.7979 38.9702C47.5905 39.4247 47.4868 39.9801 47.4868 40.6364C47.4868 41.304 47.5905 41.8665 47.7979 42.3239C48.0081 42.7784 48.295 43.1222 48.6587 43.3551C49.0251 43.5852 49.4442 43.7003 49.9158 43.7003C50.1771 43.7003 50.4214 43.6662 50.6487 43.598C50.8788 43.527 51.0848 43.4233 51.2666 43.2869C51.4513 43.1506 51.6061 42.983 51.7311 42.7841C51.8589 42.5852 51.947 42.358 51.9953 42.1023L53.5891 42.1108C53.5294 42.5256 53.4001 42.9148 53.2013 43.2784C53.0053 43.642 52.7481 43.9631 52.43 44.2415C52.1118 44.517 51.7396 44.733 51.3135 44.8892C50.8874 45.0426 50.4143 45.1193 49.8945 45.1193C49.1274 45.1193 48.4428 44.9418 47.8405 44.5866C47.2382 44.2315 46.7638 43.7188 46.4172 43.0483C46.0706 42.3778 45.8973 41.5739 45.8973 40.6364C45.8973 39.696 46.072 38.892 46.4214 38.2244C46.7709 37.554 47.2467 37.0412 47.849 36.6861C48.4513 36.331 49.1331 36.1534 49.8945 36.1534C50.3803 36.1534 50.832 36.2216 51.2496 36.358C51.6672 36.4943 52.0393 36.6946 52.366 36.9588C52.6928 37.2202 52.9612 37.5412 53.1714 37.9219C53.3845 38.2997 53.5237 38.7315 53.5891 39.2173ZM56.5137 41.1648V45H54.9711V36.2727H56.4796V39.5668H56.5563C56.7097 39.1974 56.9469 38.9062 57.268 38.6932C57.5918 38.4773 58.0037 38.3693 58.5037 38.3693C58.9583 38.3693 59.3546 38.4645 59.6927 38.6548C60.0307 38.8452 60.2921 39.1236 60.4768 39.4901C60.6643 39.8565 60.758 40.304 60.758 40.8324V45H59.2154V41.071C59.2154 40.6307 59.1018 40.2884 58.8745 40.044C58.6501 39.7969 58.3347 39.6733 57.9285 39.6733C57.6557 39.6733 57.4114 39.733 57.1955 39.8523C56.9824 39.9687 56.8148 40.1378 56.6927 40.3594C56.5733 40.581 56.5137 40.8494 56.5137 41.1648ZM65.2306 45.1278C64.5743 45.1278 64.0076 44.9915 63.5303 44.7188C63.0559 44.4432 62.6908 44.054 62.4351 43.5511C62.1794 43.0455 62.0516 42.4503 62.0516 41.7656C62.0516 41.0923 62.1794 40.5014 62.4351 39.9929C62.6936 39.4815 63.0544 39.0838 63.5175 38.7997C63.9806 38.5128 64.5246 38.3693 65.1496 38.3693C65.553 38.3693 65.9337 38.4347 66.2917 38.5653C66.6525 38.6932 66.9706 38.892 67.2462 39.1619C67.5246 39.4318 67.7434 39.7756 67.9025 40.1932C68.0615 40.608 68.1411 41.1023 68.1411 41.6761V42.1491H62.776V41.1094H66.6624C66.6596 40.8139 66.5956 40.5511 66.4706 40.321C66.3456 40.0881 66.1709 39.9048 65.9465 39.7713C65.7249 39.6378 65.4664 39.571 65.1709 39.571C64.8556 39.571 64.5786 39.6477 64.34 39.8011C64.1013 39.9517 63.9152 40.1506 63.7817 40.3977C63.651 40.642 63.5843 40.9105 63.5814 41.2031V42.1108C63.5814 42.4915 63.651 42.8182 63.7902 43.0909C63.9294 43.3608 64.124 43.5682 64.374 43.7131C64.624 43.8551 64.9167 43.9261 65.2519 43.9261C65.4763 43.9261 65.6794 43.8949 65.8613 43.8324C66.0431 43.767 66.2007 43.6719 66.3343 43.5469C66.4678 43.4219 66.5686 43.267 66.6368 43.0824L68.0772 43.2443C67.9863 43.625 67.813 43.9574 67.5573 44.2415C67.3044 44.5227 66.9806 44.7415 66.5857 44.8977C66.1908 45.0511 65.7391 45.1278 65.2306 45.1278ZM70.9911 41.1648V45H69.4485V38.4545H70.923V39.5668H70.9997C71.1502 39.2003 71.3903 38.9091 71.7198 38.6932C72.0522 38.4773 72.4627 38.3693 72.9514 38.3693C73.4031 38.3693 73.7965 38.4659 74.1318 38.6591C74.4698 38.8523 74.7312 39.1321 74.9159 39.4986C75.1034 39.8651 75.1957 40.3097 75.1928 40.8324V45H73.6502V41.071C73.6502 40.6335 73.5366 40.2912 73.3093 40.044C73.0849 39.7969 72.7738 39.6733 72.3761 39.6733C72.1062 39.6733 71.8661 39.733 71.6559 39.8523C71.4485 39.9687 71.2852 40.1378 71.1659 40.3594C71.0494 40.581 70.9911 40.8494 70.9911 41.1648ZM78.306 41.1648V45H76.7634V38.4545H78.2379V39.5668H78.3146C78.4651 39.2003 78.7052 38.9091 79.0347 38.6932C79.3671 38.4773 79.7776 38.3693 80.2663 38.3693C80.718 38.3693 81.1114 38.4659 81.4467 38.6591C81.7847 38.8523 82.0461 39.1321 82.2308 39.4986C82.4183 39.8651 82.5106 40.3097 82.5077 40.8324V45H80.9651V41.071C80.9651 40.6335 80.8515 40.2912 80.6242 40.044C80.3998 39.7969 80.0887 39.6733 79.691 39.6733C79.4211 39.6733 79.181 39.733 78.9708 39.8523C78.7634 39.9687 78.6001 40.1378 78.4808 40.3594C78.3643 40.581 78.306 40.8494 78.306 41.1648ZM85.9619 45.1321C85.5471 45.1321 85.1735 45.0582 84.8411 44.9105C84.5116 44.7599 84.2502 44.5384 84.057 44.2457C83.8667 43.9531 83.7715 43.5923 83.7715 43.1634C83.7715 42.794 83.8397 42.4886 83.9761 42.2472C84.1124 42.0057 84.2985 41.8125 84.5343 41.6676C84.7701 41.5227 85.0357 41.4134 85.3312 41.3395C85.6295 41.2628 85.9377 41.2074 86.2559 41.1733C86.6394 41.1335 86.9505 41.098 87.1891 41.0668C87.4278 41.0327 87.6011 40.9815 87.709 40.9134C87.8198 40.8423 87.8752 40.733 87.8752 40.5852V40.5597C87.8752 40.2386 87.78 39.9901 87.5897 39.8139C87.3994 39.6378 87.1252 39.5497 86.7673 39.5497C86.3894 39.5497 86.0897 39.6321 85.8681 39.7969C85.6494 39.9616 85.5016 40.1562 85.4249 40.3807L83.9846 40.1761C84.0982 39.7784 84.2857 39.446 84.5471 39.179C84.8084 38.9091 85.1281 38.7074 85.5059 38.5739C85.8837 38.4375 86.3013 38.3693 86.7587 38.3693C87.0741 38.3693 87.388 38.4062 87.7005 38.4801C88.013 38.554 88.2985 38.6761 88.557 38.8466C88.8156 39.0142 89.0229 39.2429 89.1792 39.5327C89.3383 39.8224 89.4178 40.1847 89.4178 40.6193V45H87.9349V44.1009H87.8837C87.79 44.2827 87.6579 44.4531 87.4874 44.6122C87.3198 44.7685 87.1082 44.8949 86.8525 44.9915C86.5996 45.0852 86.3028 45.1321 85.9619 45.1321ZM86.3624 43.9986C86.6721 43.9986 86.9406 43.9375 87.1678 43.8153C87.3951 43.6903 87.5698 43.5256 87.692 43.321C87.817 43.1165 87.8795 42.8935 87.8795 42.652V41.8807C87.8312 41.9205 87.7488 41.9574 87.6323 41.9915C87.5187 42.0256 87.3908 42.0554 87.2488 42.081C87.1067 42.1065 86.9661 42.1293 86.8269 42.1491C86.6877 42.169 86.567 42.1861 86.4647 42.2003C86.2346 42.2315 86.0286 42.2827 85.8468 42.3537C85.665 42.4247 85.5215 42.5241 85.4164 42.652C85.3113 42.777 85.2587 42.9389 85.2587 43.1378C85.2587 43.4219 85.3624 43.6364 85.5698 43.7812C85.7772 43.9261 86.0414 43.9986 86.3624 43.9986ZM90.9714 45V38.4545H92.514V45H90.9714ZM91.7469 37.5256C91.5026 37.5256 91.2924 37.4446 91.1162 37.2827C90.9401 37.1179 90.852 36.9205 90.852 36.6903C90.852 36.4574 90.9401 36.2599 91.1162 36.098C91.2924 35.9332 91.5026 35.8509 91.7469 35.8509C91.9941 35.8509 92.2043 35.9332 92.3776 36.098C92.5537 36.2599 92.6418 36.4574 92.6418 36.6903C92.6418 36.9205 92.5537 37.1179 92.3776 37.2827C92.2043 37.4446 91.9941 37.5256 91.7469 37.5256ZM97.1498 45V36.2727H100.423C101.093 36.2727 101.655 36.3977 102.11 36.6477C102.567 36.8977 102.913 37.2415 103.146 37.679C103.381 38.1136 103.499 38.608 103.499 39.1619C103.499 39.7216 103.381 40.2187 103.146 40.6534C102.91 41.0881 102.562 41.4304 102.102 41.6804C101.641 41.9276 101.075 42.0511 100.401 42.0511H98.2322V40.7514H100.188C100.58 40.7514 100.901 40.6832 101.151 40.5469C101.401 40.4105 101.586 40.223 101.705 39.9844C101.827 39.7457 101.888 39.4716 101.888 39.1619C101.888 38.8523 101.827 38.5795 101.705 38.3438C101.586 38.108 101.4 37.9247 101.147 37.794C100.897 37.6605 100.575 37.5938 100.18 37.5938H98.7308V45H97.1498ZM104.807 45V38.4545H106.302V39.5455H106.371C106.49 39.1676 106.694 38.8764 106.984 38.6719C107.277 38.4645 107.611 38.3608 107.986 38.3608C108.071 38.3608 108.166 38.3651 108.271 38.3736C108.379 38.3793 108.469 38.3892 108.54 38.4034V39.8224C108.474 39.7997 108.371 39.7798 108.229 39.7628C108.089 39.7429 107.954 39.733 107.824 39.733C107.542 39.733 107.29 39.794 107.065 39.9162C106.844 40.0355 106.669 40.2017 106.541 40.4148C106.413 40.6278 106.349 40.8736 106.349 41.152V45H104.807ZM112.152 45.1278C111.513 45.1278 110.959 44.9872 110.491 44.706C110.022 44.4247 109.658 44.0312 109.4 43.5256C109.144 43.0199 109.016 42.429 109.016 41.7528C109.016 41.0767 109.144 40.4844 109.4 39.9759C109.658 39.4673 110.022 39.0724 110.491 38.7912C110.959 38.5099 111.513 38.3693 112.152 38.3693C112.792 38.3693 113.346 38.5099 113.814 38.7912C114.283 39.0724 114.645 39.4673 114.901 39.9759C115.16 40.4844 115.289 41.0767 115.289 41.7528C115.289 42.429 115.16 43.0199 114.901 43.5256C114.645 44.0312 114.283 44.4247 113.814 44.706C113.346 44.9872 112.792 45.1278 112.152 45.1278ZM112.161 43.892C112.508 43.892 112.797 43.7969 113.03 43.6065C113.263 43.4134 113.437 43.1548 113.55 42.831C113.667 42.5071 113.725 42.1463 113.725 41.7486C113.725 41.348 113.667 40.9858 113.55 40.6619C113.437 40.3352 113.263 40.0753 113.03 39.8821C112.797 39.6889 112.508 39.5923 112.161 39.5923C111.806 39.5923 111.51 39.6889 111.275 39.8821C111.042 40.0753 110.867 40.3352 110.75 40.6619C110.637 40.9858 110.58 41.348 110.58 41.7486C110.58 42.1463 110.637 42.5071 110.75 42.831C110.867 43.1548 111.042 43.4134 111.275 43.6065C111.51 43.7969 111.806 43.892 112.161 43.892ZM116.601 47.4545V38.4545H118.118V39.5369H118.207C118.287 39.3778 118.399 39.2088 118.544 39.0298C118.689 38.848 118.885 38.6932 119.132 38.5653C119.379 38.4347 119.694 38.3693 120.078 38.3693C120.583 38.3693 121.039 38.4986 121.446 38.7571C121.855 39.0128 122.179 39.392 122.417 39.8949C122.659 40.3949 122.78 41.0085 122.78 41.7358C122.78 42.4545 122.662 43.0653 122.426 43.5682C122.19 44.071 121.869 44.4545 121.463 44.7188C121.057 44.983 120.596 45.1151 120.082 45.1151C119.707 45.1151 119.396 45.0526 119.149 44.9276C118.902 44.8026 118.703 44.652 118.552 44.4759C118.405 44.2969 118.289 44.1278 118.207 43.9688H118.143V47.4545H116.601ZM118.113 41.7273C118.113 42.1506 118.173 42.5213 118.292 42.8395C118.414 43.1577 118.589 43.4062 118.816 43.5852C119.047 43.7614 119.325 43.8494 119.652 43.8494C119.993 43.8494 120.278 43.7585 120.508 43.5767C120.738 43.392 120.912 43.1406 121.028 42.8224C121.147 42.5014 121.207 42.1364 121.207 41.7273C121.207 41.321 121.149 40.9602 121.032 40.6449C120.916 40.3295 120.743 40.0824 120.512 39.9034C120.282 39.7244 119.995 39.6349 119.652 39.6349C119.322 39.6349 119.042 39.7216 118.812 39.8949C118.582 40.0682 118.407 40.3111 118.288 40.6236C118.172 40.9361 118.113 41.304 118.113 41.7273ZM127.001 45.1278C126.344 45.1278 125.778 44.9915 125.3 44.7188C124.826 44.4432 124.461 44.054 124.205 43.5511C123.95 43.0455 123.822 42.4503 123.822 41.7656C123.822 41.0923 123.95 40.5014 124.205 39.9929C124.464 39.4815 124.825 39.0838 125.288 38.7997C125.751 38.5128 126.295 38.3693 126.92 38.3693C127.323 38.3693 127.704 38.4347 128.062 38.5653C128.423 38.6932 128.741 38.892 129.016 39.1619C129.295 39.4318 129.513 39.7756 129.673 40.1932C129.832 40.608 129.911 41.1023 129.911 41.6761V42.1491H124.546V41.1094H128.432C128.43 40.8139 128.366 40.5511 128.241 40.321C128.116 40.0881 127.941 39.9048 127.717 39.7713C127.495 39.6378 127.236 39.571 126.941 39.571C126.626 39.571 126.349 39.6477 126.11 39.8011C125.871 39.9517 125.685 40.1506 125.552 40.3977C125.421 40.642 125.354 40.9105 125.352 41.2031V42.1108C125.352 42.4915 125.421 42.8182 125.56 43.0909C125.7 43.3608 125.894 43.5682 126.144 43.7131C126.394 43.8551 126.687 43.9261 127.022 43.9261C127.246 43.9261 127.45 43.8949 127.631 43.8324C127.813 43.767 127.971 43.6719 128.104 43.5469C128.238 43.4219 128.339 43.267 128.407 43.0824L129.847 43.2443C129.756 43.625 129.583 43.9574 129.327 44.2415C129.075 44.5227 128.751 44.7415 128.356 44.8977C127.961 45.0511 127.509 45.1278 127.001 45.1278ZM131.219 45V38.4545H132.714V39.5455H132.783C132.902 39.1676 133.106 38.8764 133.396 38.6719C133.689 38.4645 134.023 38.3608 134.398 38.3608C134.483 38.3608 134.578 38.3651 134.683 38.3736C134.791 38.3793 134.881 38.3892 134.952 38.4034V39.8224C134.886 39.7997 134.783 39.7798 134.64 39.7628C134.501 39.7429 134.366 39.733 134.236 39.733C133.954 39.733 133.702 39.794 133.477 39.9162C133.256 40.0355 133.081 40.2017 132.953 40.4148C132.825 40.6278 132.761 40.8736 132.761 41.152V45H131.219ZM139.599 38.4545V39.6477H135.836V38.4545H139.599ZM136.765 36.8864H138.308V43.0312C138.308 43.2386 138.339 43.3977 138.401 43.5085C138.467 43.6165 138.552 43.6903 138.657 43.7301C138.762 43.7699 138.879 43.7898 139.007 43.7898C139.103 43.7898 139.191 43.7827 139.271 43.7685C139.353 43.7543 139.416 43.7415 139.458 43.7301L139.718 44.9361C139.636 44.9645 139.518 44.9957 139.364 45.0298C139.214 45.0639 139.029 45.0838 138.811 45.0895C138.424 45.1009 138.076 45.0426 137.766 44.9148C137.457 44.7841 137.211 44.5824 137.029 44.3097C136.85 44.0369 136.762 43.696 136.765 43.2869V36.8864ZM140.891 45V38.4545H142.434V45H140.891ZM141.667 37.5256C141.423 37.5256 141.212 37.4446 141.036 37.2827C140.86 37.1179 140.772 36.9205 140.772 36.6903C140.772 36.4574 140.86 36.2599 141.036 36.098C141.212 35.9332 141.423 35.8509 141.667 35.8509C141.914 35.8509 142.124 35.9332 142.298 36.098C142.474 36.2599 142.562 36.4574 142.562 36.6903C142.562 36.9205 142.474 37.1179 142.298 37.2827C142.124 37.4446 141.914 37.5256 141.667 37.5256ZM146.92 45.1278C146.264 45.1278 145.697 44.9915 145.22 44.7188C144.746 44.4432 144.381 44.054 144.125 43.5511C143.869 43.0455 143.741 42.4503 143.741 41.7656C143.741 41.0923 143.869 40.5014 144.125 39.9929C144.383 39.4815 144.744 39.0838 145.207 38.7997C145.67 38.5128 146.214 38.3693 146.839 38.3693C147.243 38.3693 147.624 38.4347 147.982 38.5653C148.342 38.6932 148.66 38.892 148.936 39.1619C149.214 39.4318 149.433 39.7756 149.592 40.1932C149.751 40.608 149.831 41.1023 149.831 41.6761V42.1491H144.466V41.1094H148.352C148.349 40.8139 148.285 40.5511 148.16 40.321C148.035 40.0881 147.861 39.9048 147.636 39.7713C147.415 39.6378 147.156 39.571 146.861 39.571C146.545 39.571 146.268 39.6477 146.03 39.8011C145.791 39.9517 145.605 40.1506 145.472 40.3977C145.341 40.642 145.274 40.9105 145.271 41.2031V42.1108C145.271 42.4915 145.341 42.8182 145.48 43.0909C145.619 43.3608 145.814 43.5682 146.064 43.7131C146.314 43.8551 146.607 43.9261 146.942 43.9261C147.166 43.9261 147.369 43.8949 147.551 43.8324C147.733 43.767 147.891 43.6719 148.024 43.5469C148.158 43.4219 148.258 43.267 148.327 43.0824L149.767 43.2443C149.676 43.625 149.503 43.9574 149.247 44.2415C148.994 44.5227 148.67 44.7415 148.276 44.8977C147.881 45.0511 147.429 45.1278 146.92 45.1278ZM156.312 40.1847L154.905 40.3381C154.866 40.196 154.796 40.0625 154.697 39.9375C154.6 39.8125 154.469 39.7116 154.305 39.6349C154.14 39.5582 153.938 39.5199 153.699 39.5199C153.378 39.5199 153.109 39.5895 152.89 39.7287C152.674 39.8679 152.567 40.0483 152.57 40.2699C152.567 40.4602 152.637 40.6151 152.779 40.7344C152.924 40.8537 153.163 40.9517 153.495 41.0284L154.611 41.267C155.231 41.4006 155.691 41.6122 155.992 41.902C156.296 42.1918 156.449 42.571 156.452 43.0398C156.449 43.4517 156.329 43.8153 156.09 44.1307C155.854 44.4432 155.526 44.6875 155.106 44.8636C154.685 45.0398 154.202 45.1278 153.657 45.1278C152.856 45.1278 152.211 44.9602 151.722 44.625C151.234 44.2869 150.942 43.8168 150.849 43.2145L152.353 43.0696C152.421 43.3651 152.566 43.5881 152.788 43.7386C153.009 43.8892 153.297 43.9645 153.653 43.9645C154.019 43.9645 154.313 43.8892 154.535 43.7386C154.759 43.5881 154.871 43.402 154.871 43.1804C154.871 42.9929 154.799 42.8381 154.654 42.7159C154.512 42.5937 154.29 42.5 153.989 42.4347L152.873 42.2003C152.245 42.0696 151.78 41.8494 151.479 41.5398C151.178 41.2273 151.029 40.8324 151.032 40.3551C151.029 39.9517 151.138 39.6023 151.36 39.3068C151.584 39.0085 151.895 38.7784 152.293 38.6165C152.694 38.4517 153.155 38.3693 153.678 38.3693C154.445 38.3693 155.049 38.5327 155.489 38.8594C155.932 39.1861 156.207 39.6278 156.312 40.1847ZM23.6591 74.6364C23.6591 75.5767 23.483 76.3821 23.1307 77.0526C22.7813 77.7202 22.304 78.2315 21.6989 78.5866C21.0966 78.9418 20.4134 79.1193 19.6491 79.1193C18.8849 79.1193 18.2003 78.9418 17.5952 78.5866C16.9929 78.2287 16.5156 77.7159 16.1634 77.0483C15.8139 76.3778 15.6392 75.5739 15.6392 74.6364C15.6392 73.696 15.8139 72.892 16.1634 72.2244C16.5156 71.554 16.9929 71.0412 17.5952 70.6861C18.2003 70.331 18.8849 70.1534 19.6491 70.1534C20.4134 70.1534 21.0966 70.331 21.6989 70.6861C22.304 71.0412 22.7813 71.554 23.1307 72.2244C23.483 72.892 23.6591 73.696 23.6591 74.6364ZM22.0696 74.6364C22.0696 73.9744 21.9659 73.4162 21.7585 72.9616C21.554 72.5043 21.2699 72.1591 20.9062 71.9261C20.5426 71.6903 20.1236 71.5724 19.6491 71.5724C19.1747 71.5724 18.7557 71.6903 18.392 71.9261C18.0284 72.1591 17.7429 72.5043 17.5355 72.9616C17.331 73.4162 17.2287 73.9744 17.2287 74.6364C17.2287 75.2983 17.331 75.858 17.5355 76.3153C17.7429 76.7699 18.0284 77.1151 18.392 77.3509C18.7557 77.5838 19.1747 77.7003 19.6491 77.7003C20.1236 77.7003 20.5426 77.5838 20.9062 77.3509C21.2699 77.1151 21.554 76.7699 21.7585 76.3153C21.9659 75.858 22.0696 75.2983 22.0696 74.6364ZM29.2599 76.2472V72.4545H30.8025V79H29.3067V77.8366H29.2386C29.0908 78.2031 28.8479 78.5028 28.5099 78.7358C28.1746 78.9687 27.7613 79.0852 27.2698 79.0852C26.8408 79.0852 26.4616 78.9901 26.132 78.7997C25.8053 78.6065 25.5496 78.3267 25.365 77.9602C25.1803 77.5909 25.088 77.1449 25.088 76.6222V72.4545H26.6306V76.3835C26.6306 76.7983 26.7442 77.1278 26.9715 77.3722C27.1988 77.6165 27.4971 77.7386 27.8664 77.7386C28.0937 77.7386 28.3138 77.6832 28.5269 77.5724C28.74 77.4616 28.9147 77.2969 29.0511 77.0781C29.1903 76.8565 29.2599 76.5795 29.2599 76.2472ZM32.3912 79V72.4545H33.8869V73.5455H33.9551C34.0744 73.1676 34.2789 72.8764 34.5687 72.6719C34.8613 72.4645 35.1951 72.3608 35.5701 72.3608C35.6554 72.3608 35.7505 72.3651 35.8557 72.3736C35.9636 72.3793 36.0531 72.3892 36.1241 72.4034V73.8224C36.0588 73.7997 35.9551 73.7798 35.813 73.7628C35.6738 73.7429 35.5389 73.733 35.4082 73.733C35.127 73.733 34.8741 73.794 34.6497 73.9162C34.4281 74.0355 34.2534 74.2017 34.1255 74.4148C33.9977 74.6278 33.9338 74.8736 33.9338 75.152V79H32.3912ZM44.9414 72.6719C44.9016 72.2997 44.734 72.0099 44.4386 71.8026C44.146 71.5952 43.7653 71.4915 43.2965 71.4915C42.967 71.4915 42.6843 71.5412 42.4485 71.6406C42.2127 71.7401 42.0323 71.875 41.9073 72.0455C41.7823 72.2159 41.7184 72.4105 41.7156 72.6293C41.7156 72.8111 41.7568 72.9687 41.8391 73.1023C41.9244 73.2358 42.0394 73.3494 42.1843 73.4432C42.3292 73.5341 42.4897 73.6108 42.6658 73.6733C42.842 73.7358 43.0195 73.7884 43.1985 73.831L44.0167 74.0355C44.3462 74.1122 44.663 74.2159 44.967 74.3466C45.2738 74.4773 45.548 74.642 45.7894 74.8409C46.0337 75.0398 46.2269 75.2798 46.369 75.5611C46.511 75.8423 46.582 76.1719 46.582 76.5497C46.582 77.0611 46.4514 77.5114 46.19 77.9006C45.9286 78.2869 45.5508 78.5895 45.0565 78.8082C44.565 79.0241 43.9698 79.1321 43.271 79.1321C42.592 79.1321 42.0025 79.027 41.5025 78.8168C41.0053 78.6065 40.6161 78.2997 40.3349 77.8963C40.0565 77.4929 39.9059 77.0014 39.8832 76.4219H41.4386C41.4613 76.7259 41.5551 76.9787 41.7198 77.1804C41.8846 77.3821 42.0991 77.5327 42.3633 77.6321C42.6303 77.7315 42.9286 77.7812 43.2582 77.7812C43.6019 77.7812 43.9031 77.7301 44.1616 77.6278C44.423 77.5227 44.6275 77.3778 44.7752 77.1932C44.923 77.0057 44.9982 76.7869 45.0011 76.5369C44.9982 76.3097 44.9315 76.1222 44.8008 75.9744C44.6701 75.8239 44.4869 75.6989 44.2511 75.5994C44.0181 75.4972 43.7454 75.4062 43.4329 75.3267L42.44 75.071C41.7212 74.8864 41.1531 74.6065 40.7355 74.2315C40.3207 73.8537 40.1133 73.3523 40.1133 72.7273C40.1133 72.2131 40.2525 71.7628 40.5309 71.3764C40.8122 70.9901 41.1943 70.6903 41.6772 70.4773C42.1602 70.2614 42.707 70.1534 43.3178 70.1534C43.9372 70.1534 44.4798 70.2614 44.9457 70.4773C45.4144 70.6903 45.7823 70.9872 46.0494 71.3679C46.3164 71.7457 46.4542 72.1804 46.4627 72.6719H44.9414ZM52.0976 76.2472V72.4545H53.6402V79H52.1445V77.8366H52.0763C51.9285 78.2031 51.6857 78.5028 51.3476 78.7358C51.0124 78.9687 50.599 79.0852 50.1075 79.0852C49.6785 79.0852 49.2993 78.9901 48.9697 78.7997C48.643 78.6065 48.3874 78.3267 48.2027 77.9602C48.018 77.5909 47.9257 77.1449 47.9257 76.6222V72.4545H49.4683V76.3835C49.4683 76.7983 49.582 77.1278 49.8092 77.3722C50.0365 77.6165 50.3348 77.7386 50.7041 77.7386C50.9314 77.7386 51.1516 77.6832 51.3646 77.5724C51.5777 77.4616 51.7524 77.2969 51.8888 77.0781C52.028 76.8565 52.0976 76.5795 52.0976 76.2472ZM55.2289 81.4545V72.4545H56.7459V73.5369H56.8354C56.915 73.3778 57.0272 73.2088 57.1721 73.0298C57.317 72.848 57.513 72.6932 57.7601 72.5653C58.0073 72.4347 58.3226 72.3693 58.7062 72.3693C59.2118 72.3693 59.6678 72.4986 60.0741 72.7571C60.4832 73.0128 60.807 73.392 61.0457 73.8949C61.2871 74.3949 61.4079 75.0085 61.4079 75.7358C61.4079 76.4545 61.29 77.0653 61.0542 77.5682C60.8184 78.071 60.4974 78.4545 60.0911 78.7188C59.6849 78.983 59.2246 79.1151 58.7104 79.1151C58.3354 79.1151 58.0243 79.0526 57.7772 78.9276C57.53 78.8026 57.3312 78.652 57.1806 78.4759C57.0329 78.2969 56.9178 78.1278 56.8354 77.9688H56.7715V81.4545H55.2289ZM56.7417 75.7273C56.7417 76.1506 56.8013 76.5213 56.9207 76.8395C57.0428 77.1577 57.2175 77.4062 57.4448 77.5852C57.6749 77.7614 57.9533 77.8494 58.28 77.8494C58.6209 77.8494 58.9064 77.7585 59.1366 77.5767C59.3667 77.392 59.54 77.1406 59.6564 76.8224C59.7758 76.5014 59.8354 76.1364 59.8354 75.7273C59.8354 75.321 59.7772 74.9602 59.6607 74.6449C59.5442 74.3295 59.3709 74.0824 59.1408 73.9034C58.9107 73.7244 58.6238 73.6349 58.28 73.6349C57.9505 73.6349 57.6707 73.7216 57.4405 73.8949C57.2104 74.0682 57.0357 74.3111 56.9164 74.6236C56.7999 74.9361 56.7417 75.304 56.7417 75.7273ZM62.7313 81.4545V72.4545H64.2483V73.5369H64.3378C64.4174 73.3778 64.5296 73.2088 64.6745 73.0298C64.8194 72.848 65.0154 72.6932 65.2625 72.5653C65.5097 72.4347 65.825 72.3693 66.2086 72.3693C66.7142 72.3693 67.1702 72.4986 67.5765 72.7571C67.9856 73.0128 68.3094 73.392 68.548 73.8949C68.7895 74.3949 68.9103 75.0085 68.9103 75.7358C68.9103 76.4545 68.7924 77.0653 68.5566 77.5682C68.3208 78.071 67.9998 78.4545 67.5935 78.7188C67.1873 78.983 66.727 79.1151 66.2128 79.1151C65.8378 79.1151 65.5267 79.0526 65.2796 78.9276C65.0324 78.8026 64.8336 78.652 64.683 78.4759C64.5353 78.2969 64.4202 78.1278 64.3378 77.9688H64.2739V81.4545H62.7313ZM64.2441 75.7273C64.2441 76.1506 64.3037 76.5213 64.423 76.8395C64.5452 77.1577 64.7199 77.4062 64.9472 77.5852C65.1773 77.7614 65.4557 77.8494 65.7824 77.8494C66.1233 77.8494 66.4088 77.7585 66.639 77.5767C66.8691 77.392 67.0424 77.1406 67.1588 76.8224C67.2782 76.5014 67.3378 76.1364 67.3378 75.7273C67.3378 75.321 67.2796 74.9602 67.1631 74.6449C67.0466 74.3295 66.8733 74.0824 66.6432 73.9034C66.4131 73.7244 66.1262 73.6349 65.7824 73.6349C65.4529 73.6349 65.173 73.7216 64.9429 73.8949C64.7128 74.0682 64.5381 74.3111 64.4188 74.6236C64.3023 74.9361 64.2441 75.304 64.2441 75.7273ZM73.0888 79.1278C72.4496 79.1278 71.8956 78.9872 71.4269 78.706C70.9581 78.4247 70.5945 78.0312 70.336 77.5256C70.0803 77.0199 69.9524 76.429 69.9524 75.7528C69.9524 75.0767 70.0803 74.4844 70.336 73.9759C70.5945 73.4673 70.9581 73.0724 71.4269 72.7912C71.8956 72.5099 72.4496 72.3693 73.0888 72.3693C73.728 72.3693 74.282 72.5099 74.7507 72.7912C75.2195 73.0724 75.5817 73.4673 75.8374 73.9759C76.0959 74.4844 76.2252 75.0767 76.2252 75.7528C76.2252 76.429 76.0959 77.0199 75.8374 77.5256C75.5817 78.0312 75.2195 78.4247 74.7507 78.706C74.282 78.9872 73.728 79.1278 73.0888 79.1278ZM73.0973 77.892C73.4439 77.892 73.7337 77.7969 73.9666 77.6065C74.1996 77.4134 74.3729 77.1548 74.4865 76.831C74.603 76.5071 74.6612 76.1463 74.6612 75.7486C74.6612 75.348 74.603 74.9858 74.4865 74.6619C74.3729 74.3352 74.1996 74.0753 73.9666 73.8821C73.7337 73.6889 73.4439 73.5923 73.0973 73.5923C72.7422 73.5923 72.4468 73.6889 72.211 73.8821C71.978 74.0753 71.8033 74.3352 71.6868 74.6619C71.5732 74.9858 71.5164 75.348 71.5164 75.7486C71.5164 76.1463 71.5732 76.5071 71.6868 76.831C71.8033 77.1548 71.978 77.4134 72.211 77.6065C72.4468 77.7969 72.7422 77.892 73.0973 77.892ZM77.5369 79V72.4545H79.0326V73.5455H79.1008C79.2201 73.1676 79.4247 72.8764 79.7144 72.6719C80.007 72.4645 80.3408 72.3608 80.7158 72.3608C80.8011 72.3608 80.8962 72.3651 81.0014 72.3736C81.1093 72.3793 81.1988 72.3892 81.2698 72.4034V73.8224C81.2045 73.7997 81.1008 73.7798 80.9587 73.7628C80.8195 73.7429 80.6846 73.733 80.5539 73.733C80.2727 73.733 80.0198 73.794 79.7954 73.9162C79.5738 74.0355 79.3991 74.2017 79.2712 74.4148C79.1434 74.6278 79.0795 74.8736 79.0795 75.152V79H77.5369ZM85.9171 72.4545V73.6477H82.1543V72.4545H85.9171ZM83.0833 70.8864H84.6259V77.0312C84.6259 77.2386 84.6572 77.3977 84.7197 77.5085C84.785 77.6165 84.8702 77.6903 84.9754 77.7301C85.0805 77.7699 85.1969 77.7898 85.3248 77.7898C85.4214 77.7898 85.5094 77.7827 85.589 77.7685C85.6714 77.7543 85.7339 77.7415 85.7765 77.7301L86.0364 78.9361C85.954 78.9645 85.8361 78.9957 85.6827 79.0298C85.5322 79.0639 85.3475 79.0838 85.1288 79.0895C84.7424 79.1009 84.3944 79.0426 84.0847 78.9148C83.7751 78.7841 83.5293 78.5824 83.3475 78.3097C83.1685 78.0369 83.0805 77.696 83.0833 77.2869V70.8864ZM89.8733 71.598V70.2727H96.8363V71.598H94.1389V79H92.5707V71.598H89.8733ZM100.061 79.1278C99.4051 79.1278 98.8384 78.9915 98.3611 78.7188C97.8867 78.4432 97.5216 78.054 97.2659 77.5511C97.0102 77.0455 96.8824 76.4503 96.8824 75.7656C96.8824 75.0923 97.0102 74.5014 97.2659 73.9929C97.5244 73.4815 97.8852 73.0838 98.3483 72.7997C98.8114 72.5128 99.3554 72.3693 99.9804 72.3693C100.384 72.3693 100.765 72.4347 101.122 72.5653C101.483 72.6932 101.801 72.892 102.077 73.1619C102.355 73.4318 102.574 73.7756 102.733 74.1932C102.892 74.608 102.972 75.1023 102.972 75.6761V76.1491H97.6068V75.1094H101.493C101.49 74.8139 101.426 74.5511 101.301 74.321C101.176 74.0881 101.002 73.9048 100.777 73.7713C100.556 73.6378 100.297 73.571 100.002 73.571C99.6864 73.571 99.4094 73.6477 99.1708 73.8011C98.9321 73.9517 98.746 74.1506 98.6125 74.3977C98.4818 74.642 98.4151 74.9105 98.4122 75.2031V76.1108C98.4122 76.4915 98.4818 76.8182 98.621 77.0909C98.7602 77.3608 98.9548 77.5682 99.2048 77.7131C99.4548 77.8551 99.7475 77.9261 100.083 77.9261C100.307 77.9261 100.51 77.8949 100.692 77.8324C100.874 77.767 101.032 77.6719 101.165 77.5469C101.299 77.4219 101.399 77.267 101.468 77.0824L102.908 77.2443C102.817 77.625 102.644 77.9574 102.388 78.2415C102.135 78.5227 101.811 78.7415 101.416 78.8977C101.022 79.0511 100.57 79.1278 100.061 79.1278ZM106.163 79.1321C105.748 79.1321 105.375 79.0582 105.042 78.9105C104.713 78.7599 104.451 78.5384 104.258 78.2457C104.068 77.9531 103.973 77.5923 103.973 77.1634C103.973 76.794 104.041 76.4886 104.177 76.2472C104.313 76.0057 104.5 75.8125 104.735 75.6676C104.971 75.5227 105.237 75.4134 105.532 75.3395C105.83 75.2628 106.139 75.2074 106.457 75.1733C106.84 75.1335 107.151 75.098 107.39 75.0668C107.629 75.0327 107.802 74.9815 107.91 74.9134C108.021 74.8423 108.076 74.733 108.076 74.5852V74.5597C108.076 74.2386 107.981 73.9901 107.791 73.8139C107.6 73.6378 107.326 73.5497 106.968 73.5497C106.59 73.5497 106.291 73.6321 106.069 73.7969C105.85 73.9616 105.703 74.1562 105.626 74.3807L104.186 74.1761C104.299 73.7784 104.487 73.446 104.748 73.179C105.009 72.9091 105.329 72.7074 105.707 72.5739C106.085 72.4375 106.502 72.3693 106.96 72.3693C107.275 72.3693 107.589 72.4062 107.901 72.4801C108.214 72.554 108.5 72.6761 108.758 72.8466C109.017 73.0142 109.224 73.2429 109.38 73.5327C109.539 73.8224 109.619 74.1847 109.619 74.6193V79H108.136V78.1009H108.085C107.991 78.2827 107.859 78.4531 107.688 78.6122C107.521 78.7685 107.309 78.8949 107.053 78.9915C106.801 79.0852 106.504 79.1321 106.163 79.1321ZM106.563 77.9986C106.873 77.9986 107.142 77.9375 107.369 77.8153C107.596 77.6903 107.771 77.5256 107.893 77.321C108.018 77.1165 108.08 76.8935 108.08 76.652V75.8807C108.032 75.9205 107.95 75.9574 107.833 75.9915C107.72 76.0256 107.592 76.0554 107.45 76.081C107.308 76.1065 107.167 76.1293 107.028 76.1491C106.889 76.169 106.768 76.1861 106.666 76.2003C106.436 76.2315 106.23 76.2827 106.048 76.3537C105.866 76.4247 105.723 76.5241 105.617 76.652C105.512 76.777 105.46 76.9389 105.46 77.1378C105.46 77.4219 105.563 77.6364 105.771 77.7812C105.978 77.9261 106.242 77.9986 106.563 77.9986ZM111.172 79V72.4545H112.647V73.5668H112.724C112.86 73.1918 113.086 72.8991 113.401 72.6889C113.716 72.4759 114.093 72.3693 114.53 72.3693C114.974 72.3693 115.347 72.4773 115.651 72.6932C115.958 72.9062 116.174 73.1974 116.299 73.5668H116.367C116.512 73.2031 116.756 72.9134 117.1 72.6974C117.447 72.4787 117.857 72.3693 118.331 72.3693C118.934 72.3693 119.425 72.5597 119.806 72.9403C120.187 73.321 120.377 73.8764 120.377 74.6065V79H118.83V74.8452C118.83 74.4389 118.722 74.142 118.506 73.9545C118.29 73.7642 118.026 73.669 117.714 73.669C117.341 73.669 117.05 73.7855 116.84 74.0185C116.633 74.2486 116.529 74.5483 116.529 74.9176V79H115.016V74.7812C115.016 74.4432 114.914 74.1733 114.709 73.9716C114.508 73.7699 114.243 73.669 113.917 73.669C113.695 73.669 113.493 73.7259 113.312 73.8395C113.13 73.9503 112.985 74.108 112.877 74.3125C112.769 74.5142 112.715 74.75 112.715 75.0199V79H111.172ZM126.828 79L124.365 70.2727H126.065L127.638 76.6861H127.719L129.398 70.2727H130.945L132.628 76.6903H132.705L134.277 70.2727H135.977L133.514 79H131.955L130.207 72.8764H130.139L128.388 79H126.828ZM137.008 79V72.4545H138.55V79H137.008ZM137.783 71.5256C137.539 71.5256 137.329 71.4446 137.153 71.2827C136.976 71.1179 136.888 70.9205 136.888 70.6903C136.888 70.4574 136.976 70.2599 137.153 70.098C137.329 69.9332 137.539 69.8509 137.783 69.8509C138.03 69.8509 138.241 69.9332 138.414 70.098C138.59 70.2599 138.678 70.4574 138.678 70.6903C138.678 70.9205 138.59 71.1179 138.414 71.2827C138.241 71.4446 138.03 71.5256 137.783 71.5256ZM141.682 70.2727V79H140.139V70.2727H141.682ZM144.813 70.2727V79H143.27V70.2727H144.813ZM149.449 79V70.2727H151.03V73.9673H155.074V70.2727H156.659V79H155.074V75.2926H151.03V79H149.449ZM161.21 79.1278C160.554 79.1278 159.987 78.9915 159.51 78.7188C159.036 78.4432 158.671 78.054 158.415 77.5511C158.159 77.0455 158.031 76.4503 158.031 75.7656C158.031 75.0923 158.159 74.5014 158.415 73.9929C158.673 73.4815 159.034 73.0838 159.497 72.7997C159.96 72.5128 160.504 72.3693 161.129 72.3693C161.533 72.3693 161.914 72.4347 162.271 72.5653C162.632 72.6932 162.95 72.892 163.226 73.1619C163.504 73.4318 163.723 73.7756 163.882 74.1932C164.041 74.608 164.121 75.1023 164.121 75.6761V76.1491H158.756V75.1094H162.642C162.639 74.8139 162.575 74.5511 162.45 74.321C162.325 74.0881 162.151 73.9048 161.926 73.7713C161.705 73.6378 161.446 73.571 161.151 73.571C160.835 73.571 160.558 73.6477 160.32 73.8011C160.081 73.9517 159.895 74.1506 159.762 74.3977C159.631 74.642 159.564 74.9105 159.561 75.2031V76.1108C159.561 76.4915 159.631 76.8182 159.77 77.0909C159.909 77.3608 160.104 77.5682 160.354 77.7131C160.604 77.8551 160.896 77.9261 161.232 77.9261C161.456 77.9261 161.659 77.8949 161.841 77.8324C162.023 77.767 162.181 77.6719 162.314 77.5469C162.448 77.4219 162.548 77.267 162.617 77.0824L164.057 77.2443C163.966 77.625 163.793 77.9574 163.537 78.2415C163.284 78.5227 162.96 78.7415 162.566 78.8977C162.171 79.0511 161.719 79.1278 161.21 79.1278ZM166.971 70.2727V79H165.428V70.2727H166.971ZM168.56 81.4545V72.4545H170.077V73.5369H170.166C170.246 73.3778 170.358 73.2088 170.503 73.0298C170.648 72.848 170.844 72.6932 171.091 72.5653C171.338 72.4347 171.653 72.3693 172.037 72.3693C172.543 72.3693 172.999 72.4986 173.405 72.7571C173.814 73.0128 174.138 73.392 174.376 73.8949C174.618 74.3949 174.739 75.0085 174.739 75.7358C174.739 76.4545 174.621 77.0653 174.385 77.5682C174.149 78.071 173.828 78.4545 173.422 78.7188C173.016 78.983 172.555 79.1151 172.041 79.1151C171.666 79.1151 171.355 79.0526 171.108 78.9276C170.861 78.8026 170.662 78.652 170.511 78.4759C170.364 78.2969 170.249 78.1278 170.166 77.9688H170.102V81.4545H168.56ZM170.072 75.7273C170.072 76.1506 170.132 76.5213 170.251 76.8395C170.374 77.1577 170.548 77.4062 170.776 77.5852C171.006 77.7614 171.284 77.8494 171.611 77.8494C171.952 77.8494 172.237 77.7585 172.467 77.5767C172.697 77.392 172.871 77.1406 172.987 76.8224C173.107 76.5014 173.166 76.1364 173.166 75.7273C173.166 75.321 173.108 74.9602 172.991 74.6449C172.875 74.3295 172.702 74.0824 172.472 73.9034C172.241 73.7244 171.955 73.6349 171.611 73.6349C171.281 73.6349 171.001 73.7216 170.771 73.8949C170.541 74.0682 170.366 74.3111 170.247 74.6236C170.131 74.9361 170.072 75.304 170.072 75.7273ZM15.2642 87.2727H17.0497L19.1847 91.1335H19.2699L21.4048 87.2727H23.1903L20.0156 92.7443V96H18.4389V92.7443L15.2642 87.2727ZM25.8806 96.1278C25.2414 96.1278 24.6874 95.9872 24.2187 95.706C23.7499 95.4247 23.3863 95.0312 23.1278 94.5256C22.8721 94.0199 22.7442 93.429 22.7442 92.7528C22.7442 92.0767 22.8721 91.4844 23.1278 90.9759C23.3863 90.4673 23.7499 90.0724 24.2187 89.7912C24.6874 89.5099 25.2414 89.3693 25.8806 89.3693C26.5198 89.3693 27.0738 89.5099 27.5425 89.7912C28.0113 90.0724 28.3735 90.4673 28.6292 90.9759C28.8877 91.4844 29.017 92.0767 29.017 92.7528C29.017 93.429 28.8877 94.0199 28.6292 94.5256C28.3735 95.0312 28.0113 95.4247 27.5425 95.706C27.0738 95.9872 26.5198 96.1278 25.8806 96.1278ZM25.8891 94.892C26.2357 94.892 26.5255 94.7969 26.7584 94.6065C26.9914 94.4134 27.1647 94.1548 27.2783 93.831C27.3948 93.5071 27.453 93.1463 27.453 92.7486C27.453 92.348 27.3948 91.9858 27.2783 91.6619C27.1647 91.3352 26.9914 91.0753 26.7584 90.8821C26.5255 90.6889 26.2357 90.5923 25.8891 90.5923C25.534 90.5923 25.2386 90.6889 25.0028 90.8821C24.7698 91.0753 24.5951 91.3352 24.4786 91.6619C24.365 91.9858 24.3082 92.348 24.3082 92.7486C24.3082 93.1463 24.365 93.5071 24.4786 93.831C24.5951 94.1548 24.7698 94.4134 25.0028 94.6065C25.2386 94.7969 25.534 94.892 25.8891 94.892ZM34.5005 93.2472V89.4545H36.0432V96H34.5474V94.8366H34.4792C34.3315 95.2031 34.0886 95.5028 33.7505 95.7358C33.4153 95.9687 33.002 96.0852 32.5105 96.0852C32.0815 96.0852 31.7022 95.9901 31.3727 95.7997C31.046 95.6065 30.7903 95.3267 30.6057 94.9602C30.421 94.5909 30.3287 94.1449 30.3287 93.6222V89.4545H31.8713V93.3835C31.8713 93.7983 31.9849 94.1278 32.2122 94.3722C32.4395 94.6165 32.7378 94.7386 33.1071 94.7386C33.3343 94.7386 33.5545 94.6832 33.7676 94.5724C33.9807 94.4616 34.1554 94.2969 34.2917 94.0781C34.4309 93.8565 34.5005 93.5795 34.5005 93.2472ZM40.2955 88.598V87.2727H47.2585V88.598H44.5611V96H42.9929V88.598H40.2955ZM50.441 96.1278C49.8018 96.1278 49.2478 95.9872 48.779 95.706C48.3103 95.4247 47.9467 95.0312 47.6881 94.5256C47.4325 94.0199 47.3046 93.429 47.3046 92.7528C47.3046 92.0767 47.4325 91.4844 47.6881 90.9759C47.9467 90.4673 48.3103 90.0724 48.779 89.7912C49.2478 89.5099 49.8018 89.3693 50.441 89.3693C51.0802 89.3693 51.6342 89.5099 52.1029 89.7912C52.5717 90.0724 52.9339 90.4673 53.1896 90.9759C53.4481 91.4844 53.5773 92.0767 53.5773 92.7528C53.5773 93.429 53.4481 94.0199 53.1896 94.5256C52.9339 95.0312 52.5717 95.4247 52.1029 95.706C51.6342 95.9872 51.0802 96.1278 50.441 96.1278ZM50.4495 94.892C50.7961 94.892 51.0859 94.7969 51.3188 94.6065C51.5518 94.4134 51.7251 94.1548 51.8387 93.831C51.9552 93.5071 52.0134 93.1463 52.0134 92.7486C52.0134 92.348 51.9552 91.9858 51.8387 91.6619C51.7251 91.3352 51.5518 91.0753 51.3188 90.8821C51.0859 90.6889 50.7961 90.5923 50.4495 90.5923C50.0944 90.5923 49.7989 90.6889 49.5631 90.8821C49.3302 91.0753 49.1555 91.3352 49.039 91.6619C48.9254 91.9858 48.8685 92.348 48.8685 92.7486C48.8685 93.1463 48.9254 93.5071 49.039 93.831C49.1555 94.1548 49.3302 94.4134 49.5631 94.6065C49.7989 94.7969 50.0944 94.892 50.4495 94.892ZM57.9362 96V87.2727H59.5172V91.2827H59.6237L63.0285 87.2727H64.9589L61.5839 91.1889L64.9887 96H63.0882L60.4845 92.2585L59.5172 93.4006V96H57.9362ZM67.5341 92.1648V96H65.9915V89.4545H67.4659V90.5668H67.5426C67.6932 90.2003 67.9333 89.9091 68.2628 89.6932C68.5952 89.4773 69.0057 89.3693 69.4943 89.3693C69.946 89.3693 70.3395 89.4659 70.6747 89.6591C71.0128 89.8523 71.2742 90.1321 71.4588 90.4986C71.6463 90.8651 71.7387 91.3097 71.7358 91.8324V96H70.1932V92.071C70.1932 91.6335 70.0796 91.2912 69.8523 91.044C69.6279 90.7969 69.3168 90.6733 68.9191 90.6733C68.6492 90.6733 68.4091 90.733 68.1989 90.8523C67.9915 90.9687 67.8281 91.1378 67.7088 91.3594C67.5924 91.581 67.5341 91.8494 67.5341 92.1648ZM76.1615 96.1278C75.5223 96.1278 74.9683 95.9872 74.4996 95.706C74.0308 95.4247 73.6672 95.0312 73.4087 94.5256C73.153 94.0199 73.0251 93.429 73.0251 92.7528C73.0251 92.0767 73.153 91.4844 73.4087 90.9759C73.6672 90.4673 74.0308 90.0724 74.4996 89.7912C74.9683 89.5099 75.5223 89.3693 76.1615 89.3693C76.8007 89.3693 77.3547 89.5099 77.8234 89.7912C78.2922 90.0724 78.6544 90.4673 78.9101 90.9759C79.1686 91.4844 79.2979 92.0767 79.2979 92.7528C79.2979 93.429 79.1686 94.0199 78.9101 94.5256C78.6544 95.0312 78.2922 95.4247 77.8234 95.706C77.3547 95.9872 76.8007 96.1278 76.1615 96.1278ZM76.17 94.892C76.5166 94.892 76.8064 94.7969 77.0394 94.6065C77.2723 94.4134 77.4456 94.1548 77.5592 93.831C77.6757 93.5071 77.734 93.1463 77.734 92.7486C77.734 92.348 77.6757 91.9858 77.5592 91.6619C77.4456 91.3352 77.2723 91.0753 77.0394 90.8821C76.8064 90.6889 76.5166 90.5923 76.17 90.5923C75.8149 90.5923 75.5195 90.6889 75.2837 90.8821C75.0507 91.0753 74.876 91.3352 74.7595 91.6619C74.6459 91.9858 74.5891 92.348 74.5891 92.7486C74.5891 93.1463 74.6459 93.5071 74.7595 93.831C74.876 94.1548 75.0507 94.4134 75.2837 94.6065C75.5195 94.7969 75.8149 94.892 76.17 94.892ZM81.7729 96L79.9235 89.4545H81.4959L82.6465 94.0568H82.7062L83.8823 89.4545H85.4377L86.6138 94.0312H86.6778L87.8113 89.4545H89.388L87.5343 96H85.9278L84.7005 91.5767H84.611L83.3837 96H81.7729ZM93.5146 87.2727H95.4493L98.0402 93.5966H98.1424L100.733 87.2727H102.668V96H101.151V90.0043H101.07L98.6581 95.9744H97.5245L95.1126 89.9915H95.0316V96H93.5146V87.2727ZM107.179 96.1278C106.54 96.1278 105.986 95.9872 105.517 95.706C105.048 95.4247 104.685 95.0312 104.426 94.5256C104.17 94.0199 104.043 93.429 104.043 92.7528C104.043 92.0767 104.17 91.4844 104.426 90.9759C104.685 90.4673 105.048 90.0724 105.517 89.7912C105.986 89.5099 106.54 89.3693 107.179 89.3693C107.818 89.3693 108.372 89.5099 108.841 89.7912C109.31 90.0724 109.672 90.4673 109.928 90.9759C110.186 91.4844 110.315 92.0767 110.315 92.7528C110.315 93.429 110.186 94.0199 109.928 94.5256C109.672 95.0312 109.31 95.4247 108.841 95.706C108.372 95.9872 107.818 96.1278 107.179 96.1278ZM107.187 94.892C107.534 94.892 107.824 94.7969 108.057 94.6065C108.29 94.4134 108.463 94.1548 108.577 93.831C108.693 93.5071 108.751 93.1463 108.751 92.7486C108.751 92.348 108.693 91.9858 108.577 91.6619C108.463 91.3352 108.29 91.0753 108.057 90.8821C107.824 90.6889 107.534 90.5923 107.187 90.5923C106.832 90.5923 106.537 90.6889 106.301 90.8821C106.068 91.0753 105.893 91.3352 105.777 91.6619C105.663 91.9858 105.606 92.348 105.606 92.7486C105.606 93.1463 105.663 93.5071 105.777 93.831C105.893 94.1548 106.068 94.4134 106.301 94.6065C106.537 94.7969 106.832 94.892 107.187 94.892ZM111.627 96V89.4545H113.123V90.5455H113.191C113.31 90.1676 113.515 89.8764 113.805 89.6719C114.097 89.4645 114.431 89.3608 114.806 89.3608C114.891 89.3608 114.986 89.3651 115.091 89.3736C115.199 89.3793 115.289 89.3892 115.36 89.4034V90.8224C115.295 90.7997 115.191 90.7798 115.049 90.7628C114.91 90.7429 114.775 90.733 114.644 90.733C114.363 90.733 114.11 90.794 113.886 90.9162C113.664 91.0355 113.489 91.2017 113.361 91.4148C113.234 91.6278 113.17 91.8736 113.17 92.152V96H111.627ZM119.015 96.1278C118.359 96.1278 117.792 95.9915 117.315 95.7188C116.841 95.4432 116.476 95.054 116.22 94.5511C115.964 94.0455 115.836 93.4503 115.836 92.7656C115.836 92.0923 115.964 91.5014 116.22 90.9929C116.478 90.4815 116.839 90.0838 117.302 89.7997C117.765 89.5128 118.309 89.3693 118.934 89.3693C119.338 89.3693 119.719 89.4347 120.076 89.5653C120.437 89.6932 120.755 89.892 121.031 90.1619C121.309 90.4318 121.528 90.7756 121.687 91.1932C121.846 91.608 121.926 92.1023 121.926 92.6761V93.1491H116.561V92.1094H120.447C120.444 91.8139 120.38 91.5511 120.255 91.321C120.13 91.0881 119.956 90.9048 119.731 90.7713C119.51 90.6378 119.251 90.571 118.956 90.571C118.64 90.571 118.363 90.6477 118.125 90.8011C117.886 90.9517 117.7 91.1506 117.567 91.3977C117.436 91.642 117.369 91.9105 117.366 92.2031V93.1108C117.366 93.4915 117.436 93.8182 117.575 94.0909C117.714 94.3608 117.909 94.5682 118.159 94.7131C118.409 94.8551 118.701 94.9261 119.037 94.9261C119.261 94.9261 119.464 94.8949 119.646 94.8324C119.828 94.767 119.986 94.6719 120.119 94.5469C120.253 94.4219 120.353 94.267 120.422 94.0824L121.862 94.2443C121.771 94.625 121.598 94.9574 121.342 95.2415C121.089 95.5227 120.765 95.7415 120.371 95.8977C119.976 96.0511 119.524 96.1278 119.015 96.1278Z" fill="white"/>
<path d="M15 113L17.5 115.5M21 111.5L23.5 109M19 113L21.5 115.5L27.5 109" stroke="#06BBFE" stroke-width="1.5" stroke-linecap="round" stroke-linejoin="round"/>
<defs>
<linearGradient id="paint0_linear_2678_56935" x1="104.5" y1="0" x2="104.5" y2="130.5" gradientUnits="userSpaceOnUse">
<stop stop-color="#BEAAFF"/>
<stop offset="1" stop-color="#726699" stop-opacity="0.05"/>
</linearGradient>
</defs>
</svg>
