<svg width="61" height="61" viewBox="0 0 61 61" fill="none" xmlns="http://www.w3.org/2000/svg">
<path d="M37.7917 33.625H36.75C36.174 33.625 35.7083 33.1594 35.7083 32.5833C35.7083 32.0073 36.174 31.5417 36.75 31.5417H37.7917C38.3677 31.5417 38.8333 32.0073 38.8333 32.5833C38.8333 33.1594 38.3677 33.625 37.7917 33.625ZM38.8333 36.75C38.8333 36.174 38.3677 35.7083 37.7917 35.7083H36.75C36.174 35.7083 35.7083 36.174 35.7083 36.75C35.7083 37.326 36.174 37.7917 36.75 37.7917H37.7917C38.3677 37.7917 38.8333 37.326 38.8333 36.75ZM34.6667 24.25C34.6667 23.674 34.201 23.2083 33.625 23.2083H32.5833C32.0073 23.2083 31.5417 23.674 31.5417 24.25C31.5417 24.826 32.0073 25.2917 32.5833 25.2917H33.625C34.201 25.2917 34.6667 24.826 34.6667 24.25ZM38.8333 24.25C38.8333 23.674 38.3677 23.2083 37.7917 23.2083H36.75C36.174 23.2083 35.7083 23.674 35.7083 24.25C35.7083 24.826 36.174 25.2917 36.75 25.2917H37.7917C38.3677 25.2917 38.8333 24.826 38.8333 24.25ZM38.8333 28.4167C38.8333 27.8406 38.3677 27.375 37.7917 27.375H36.75C36.174 27.375 35.7083 27.8406 35.7083 28.4167C35.7083 28.9927 36.174 29.4583 36.75 29.4583H37.7917C38.3677 29.4583 38.8333 28.9927 38.8333 28.4167ZM43 37.7917V23.2083C43 20.3365 40.6635 18 37.7917 18H32.5833C29.7115 18 27.375 20.3365 27.375 23.2083C27.375 23.7844 27.8406 24.25 28.4167 24.25C28.9927 24.25 29.4583 23.7844 29.4583 23.2083C29.4583 21.4854 30.8604 20.0833 32.5833 20.0833H37.7917C39.5146 20.0833 40.9167 21.4854 40.9167 23.2083V37.7917C40.9167 39.5146 39.5146 40.9167 37.7917 40.9167H36.75C36.174 40.9167 35.7083 41.3823 35.7083 41.9583C35.7083 42.5344 36.174 43 36.75 43H37.7917C40.6635 43 43 40.6635 43 37.7917ZM34.6667 38.3125V33.9875C34.6667 32.375 33.9385 30.8812 32.6677 29.8854L29.5427 27.4385C27.6531 25.9615 25.0135 25.9604 23.124 27.4385L19.999 29.8844C18.7281 30.8792 18 32.374 18 33.9865V38.3115C18 40.8958 20.1031 42.999 22.6875 42.999H29.9792C32.5635 42.999 34.6667 40.8969 34.6667 38.3125ZM28.2594 29.0802L31.3844 31.526C32.1458 32.1229 32.5833 33.0208 32.5833 33.9875V38.3125C32.5833 39.749 31.4156 40.9167 29.9792 40.9167H22.6875C21.251 40.9167 20.0833 39.749 20.0833 38.3125V33.9875C20.0833 33.0198 20.5208 32.1229 21.2823 31.526L24.4073 29.0812C24.974 28.6375 25.6531 28.4156 26.3333 28.4156C27.0135 28.4156 27.6927 28.6375 28.2594 29.0802ZM28.4167 36.75V34.6667C28.4167 34.0917 27.95 33.625 27.375 33.625H25.2917C24.7167 33.625 24.25 34.0917 24.25 34.6667V36.75C24.25 37.325 24.7167 37.7917 25.2917 37.7917H27.375C27.95 37.7917 28.4167 37.325 28.4167 36.75Z" fill="#908EB5"/>
</svg>
