<svg width="67" height="52" viewBox="0 0 67 52" fill="none" xmlns="http://www.w3.org/2000/svg">
<g opacity="0.7">
<rect x="1" y="0.5" width="65.538" height="50.8673" rx="17.5" fill="#2D3154" fill-opacity="0.34"/>
<rect x="1" y="0.5" width="65.538" height="50.8673" rx="17.5" stroke="#4B528E"/>
<path d="M12.5 37.3672L15 39.8672M18.5 35.8672L21 33.3672M16.5 37.3672L19 39.8672L25 33.3672" stroke="#06BBFE" stroke-width="1.5" stroke-linecap="round" stroke-linejoin="round"/>
<g filter="url(#filter0_i_1923_35383)">
<path d="M47.6881 15.3463C47.6957 14.9097 47.6162 14.4758 47.4544 14.0702C47.2926 13.6645 47.0515 13.2952 46.7454 12.9837C46.4393 12.6722 46.0742 12.4248 45.6714 12.2559C45.2687 12.087 44.8363 12 44.3996 12C43.9628 12 43.5304 12.087 43.1277 12.2559C42.7249 12.4248 42.3598 12.6722 42.0537 12.9837C41.7476 13.2952 41.5066 13.6645 41.3447 14.0702C41.1829 14.4758 41.1034 14.9097 41.1111 15.3463V19.1313C41.1104 19.4533 41.1347 19.7753 41.1841 20.0973C41.2034 20.2147 41.2191 20.332 41.2311 20.4493C41.2671 20.8193 41.2231 21.3033 40.9711 21.6293L41.5731 22.2093C40.0412 22.9942 38.756 24.1871 37.8594 25.6564C36.9627 27.1257 36.4896 28.8141 36.4921 30.5353C36.4912 31.4935 36.6369 32.4462 36.9241 33.3603L37.9211 39.8673H46.0221V39.8643C51.0251 39.7563 55.0391 36.4943 55.0391 30.5343C55.0391 27.0323 53.3621 24.2123 50.8251 22.6223L50.8311 22.6173C50.6581 22.4973 50.4541 22.3743 50.2361 22.2433H50.2341C49.5141 21.8113 48.6341 21.2833 48.1711 20.4213C47.7681 19.6743 47.6911 18.4613 47.6911 17.8983H47.6881V15.3463Z" fill="url(#paint0_linear_1923_35383)"/>
</g>
<path d="M47.6881 15.3463C47.6957 14.9097 47.6162 14.4758 47.4544 14.0702C47.2926 13.6645 47.0515 13.2952 46.7454 12.9837C46.4393 12.6722 46.0742 12.4248 45.6714 12.2559C45.2687 12.087 44.8363 12 44.3996 12C43.9628 12 43.5304 12.087 43.1277 12.2559C42.7249 12.4248 42.3598 12.6722 42.0537 12.9837C41.7476 13.2952 41.5066 13.6645 41.3447 14.0702C41.1829 14.4758 41.1034 14.9097 41.1111 15.3463V19.1313C41.1104 19.4533 41.1347 19.7753 41.1841 20.0973C41.2034 20.2147 41.2191 20.332 41.2311 20.4493C41.2671 20.8193 41.2231 21.3033 40.9711 21.6293L41.5731 22.2093C40.0412 22.9942 38.756 24.1871 37.8594 25.6564C36.9627 27.1257 36.4896 28.8141 36.4921 30.5353C36.4912 31.4935 36.6369 32.4462 36.9241 33.3603L37.9211 39.8673H46.0221V39.8643C51.0251 39.7563 55.0391 36.4943 55.0391 30.5343C55.0391 27.0323 53.3621 24.2123 50.8251 22.6223L50.8311 22.6173C50.6581 22.4973 50.4541 22.3743 50.2361 22.2433H50.2341C49.5141 21.8113 48.6341 21.2833 48.1711 20.4213C47.7681 19.6743 47.6911 18.4613 47.6911 17.8983H47.6881V15.3463Z" fill="url(#paint1_radial_1923_35383)"/>
<path d="M47.6881 15.3463C47.6957 14.9097 47.6162 14.4758 47.4544 14.0702C47.2926 13.6645 47.0515 13.2952 46.7454 12.9837C46.4393 12.6722 46.0742 12.4248 45.6714 12.2559C45.2687 12.087 44.8363 12 44.3996 12C43.9628 12 43.5304 12.087 43.1277 12.2559C42.7249 12.4248 42.3598 12.6722 42.0537 12.9837C41.7476 13.2952 41.5066 13.6645 41.3447 14.0702C41.1829 14.4758 41.1034 14.9097 41.1111 15.3463V19.1313C41.1104 19.4533 41.1347 19.7753 41.1841 20.0973C41.2034 20.2147 41.2191 20.332 41.2311 20.4493C41.2671 20.8193 41.2231 21.3033 40.9711 21.6293L41.5731 22.2093C40.0412 22.9942 38.756 24.1871 37.8594 25.6564C36.9627 27.1257 36.4896 28.8141 36.4921 30.5353C36.4912 31.4935 36.6369 32.4462 36.9241 33.3603L37.9211 39.8673H46.0221V39.8643C51.0251 39.7563 55.0391 36.4943 55.0391 30.5343C55.0391 27.0323 53.3621 24.2123 50.8251 22.6223L50.8311 22.6173C50.6581 22.4973 50.4541 22.3743 50.2361 22.2433H50.2341C49.5141 21.8113 48.6341 21.2833 48.1711 20.4213C47.7681 19.6743 47.6911 18.4613 47.6911 17.8983H47.6881V15.3463Z" fill="url(#paint2_radial_1923_35383)"/>
<path d="M47.6881 15.3463C47.6957 14.9097 47.6162 14.4758 47.4544 14.0702C47.2926 13.6645 47.0515 13.2952 46.7454 12.9837C46.4393 12.6722 46.0742 12.4248 45.6714 12.2559C45.2687 12.087 44.8363 12 44.3996 12C43.9628 12 43.5304 12.087 43.1277 12.2559C42.7249 12.4248 42.3598 12.6722 42.0537 12.9837C41.7476 13.2952 41.5066 13.6645 41.3447 14.0702C41.1829 14.4758 41.1034 14.9097 41.1111 15.3463V19.1313C41.1104 19.4533 41.1347 19.7753 41.1841 20.0973C41.2034 20.2147 41.2191 20.332 41.2311 20.4493C41.2671 20.8193 41.2231 21.3033 40.9711 21.6293L41.5731 22.2093C40.0412 22.9942 38.756 24.1871 37.8594 25.6564C36.9627 27.1257 36.4896 28.8141 36.4921 30.5353C36.4912 31.4935 36.6369 32.4462 36.9241 33.3603L37.9211 39.8673H46.0221V39.8643C51.0251 39.7563 55.0391 36.4943 55.0391 30.5343C55.0391 27.0323 53.3621 24.2123 50.8251 22.6223L50.8311 22.6173C50.6581 22.4973 50.4541 22.3743 50.2361 22.2433H50.2341C49.5141 21.8113 48.6341 21.2833 48.1711 20.4213C47.7681 19.6743 47.6911 18.4613 47.6911 17.8983H47.6881V15.3463Z" fill="url(#paint3_radial_1923_35383)"/>
<path d="M47.6881 15.3463C47.6957 14.9097 47.6162 14.4758 47.4544 14.0702C47.2926 13.6645 47.0515 13.2952 46.7454 12.9837C46.4393 12.6722 46.0742 12.4248 45.6714 12.2559C45.2687 12.087 44.8363 12 44.3996 12C43.9628 12 43.5304 12.087 43.1277 12.2559C42.7249 12.4248 42.3598 12.6722 42.0537 12.9837C41.7476 13.2952 41.5066 13.6645 41.3447 14.0702C41.1829 14.4758 41.1034 14.9097 41.1111 15.3463V19.1313C41.1104 19.4533 41.1347 19.7753 41.1841 20.0973C41.2034 20.2147 41.2191 20.332 41.2311 20.4493C41.2671 20.8193 41.2231 21.3033 40.9711 21.6293L41.5731 22.2093C40.0412 22.9942 38.756 24.1871 37.8594 25.6564C36.9627 27.1257 36.4896 28.8141 36.4921 30.5353C36.4912 31.4935 36.6369 32.4462 36.9241 33.3603L37.9211 39.8673H46.0221V39.8643C51.0251 39.7563 55.0391 36.4943 55.0391 30.5343C55.0391 27.0323 53.3621 24.2123 50.8251 22.6223L50.8311 22.6173C50.6581 22.4973 50.4541 22.3743 50.2361 22.2433H50.2341C49.5141 21.8113 48.6341 21.2833 48.1711 20.4213C47.7681 19.6743 47.6911 18.4613 47.6911 17.8983H47.6881V15.3463Z" fill="url(#paint4_linear_1923_35383)"/>
<g filter="url(#filter1_f_1923_35383)">
<path d="M36.278 24.8977C36.2777 24.5625 36.3435 24.2305 36.4717 23.9208C36.5998 23.611 36.7878 23.3296 37.0248 23.0926C37.2619 22.8556 37.5433 22.6676 37.853 22.5394C38.1628 22.4113 38.4948 22.3454 38.83 22.3457H41.656C42.18 22.3457 42.6913 22.507 43.1204 22.8077C43.5496 23.1083 43.8757 23.5338 44.0547 24.0263C44.2336 24.5189 44.2565 25.0545 44.1205 25.5605C43.9844 26.0665 43.6958 26.5184 43.294 26.8547C43.6003 27.0855 43.8508 27.3822 44.0269 27.7228C44.2031 28.0635 44.3003 28.4395 44.3114 28.8228C44.3226 29.2062 44.2473 29.5871 44.0913 29.9375C43.9352 30.2878 43.7024 30.5986 43.41 30.8467C43.6926 31.0863 43.9196 31.3846 44.0752 31.7208C44.2308 32.0571 44.3113 32.4232 44.311 32.7937V32.9187C44.311 33.6187 44.031 34.2517 43.575 34.7127C43.9248 35.0589 44.1639 35.5012 44.2619 35.9835C44.3598 36.4659 44.3122 36.9664 44.1251 37.4216C43.938 37.8769 43.6198 38.2662 43.211 38.5402C42.8022 38.8143 42.3211 38.9606 41.829 38.9607H39.025C38.5886 38.961 38.1599 38.8463 37.782 38.6282C37.4041 38.41 37.0903 38.0962 36.8724 37.7182C36.6544 37.3402 36.5398 36.9114 36.5403 36.4751C36.5407 36.0387 36.6562 35.6102 36.875 35.2327C36.4347 35.0273 36.0622 34.7004 35.8014 34.2904C35.5406 33.8805 35.4024 33.4046 35.403 32.9187V32.7937C35.403 32.0037 35.761 31.2977 36.325 30.8297C36.0033 30.5505 35.7564 30.1954 35.6066 29.7967C35.4569 29.3979 35.409 28.9681 35.4672 28.5462C35.5255 28.1242 35.6882 27.7235 35.9405 27.3803C36.1927 27.0371 36.5267 26.7623 36.912 26.5807C36.5025 26.1158 36.277 25.5173 36.278 24.8977Z" fill="url(#paint5_linear_1923_35383)"/>
</g>
<g filter="url(#filter2_i_1923_35383)">
<path d="M36.91 26.738C35.3029 26.738 34 25.4351 34 23.828C34 22.2208 35.3029 20.918 36.91 20.918H40.133C41.7401 20.918 43.043 22.2208 43.043 23.828C43.043 25.4351 41.7401 26.738 40.133 26.738H36.91Z" fill="url(#paint6_linear_1923_35383)"/>
<path d="M36.91 26.738C35.3029 26.738 34 25.4351 34 23.828C34 22.2208 35.3029 20.918 36.91 20.918H40.133C41.7401 20.918 43.043 22.2208 43.043 23.828C43.043 25.4351 41.7401 26.738 40.133 26.738H36.91Z" fill="url(#paint7_radial_1923_35383)"/>
</g>
<g filter="url(#filter3_i_1923_35383)">
<path d="M37.1328 39.8671C35.5687 39.8671 34.3008 38.5992 34.3008 37.0351C34.3008 35.4711 35.5687 34.2031 37.1328 34.2031H40.3298C41.8939 34.2031 43.1618 35.4711 43.1618 37.0351C43.1618 38.5992 41.8939 39.8671 40.3298 39.8671H37.1328Z" fill="url(#paint8_linear_1923_35383)"/>
<path d="M37.1328 39.8671C35.5687 39.8671 34.3008 38.5992 34.3008 37.0351C34.3008 35.4711 35.5687 34.2031 37.1328 34.2031H40.3298C41.8939 34.2031 43.1618 35.4711 43.1618 37.0351C43.1618 38.5992 41.8939 39.8671 40.3298 39.8671H37.1328Z" fill="url(#paint9_radial_1923_35383)"/>
<path d="M37.1328 39.8671C35.5687 39.8671 34.3008 38.5992 34.3008 37.0351C34.3008 35.4711 35.5687 34.2031 37.1328 34.2031H40.3298C41.8939 34.2031 43.1618 35.4711 43.1618 37.0351C43.1618 38.5992 41.8939 39.8671 40.3298 39.8671H37.1328Z" fill="url(#paint10_radial_1923_35383)"/>
</g>
<path d="M37.1328 39.8671C35.5687 39.8671 34.3008 38.5992 34.3008 37.0351C34.3008 35.4711 35.5687 34.2031 37.1328 34.2031H40.3298C41.8939 34.2031 43.1618 35.4711 43.1618 37.0351C43.1618 38.5992 41.8939 39.8671 40.3298 39.8671H37.1328Z" fill="url(#paint11_linear_1923_35383)"/>
<path d="M37.1328 39.8671C35.5687 39.8671 34.3008 38.5992 34.3008 37.0351C34.3008 35.4711 35.5687 34.2031 37.1328 34.2031H40.3298C41.8939 34.2031 43.1618 35.4711 43.1618 37.0351C43.1618 38.5992 41.8939 39.8671 40.3298 39.8671H37.1328Z" fill="url(#paint12_radial_1923_35383)"/>
<g filter="url(#filter4_f_1923_35383)">
<path d="M35.7039 35.8877H39.5979C40.0055 35.8877 40.3359 36.2181 40.3359 36.6257C40.3359 37.0333 40.0055 37.3637 39.5979 37.3637H35.7039C35.2964 37.3637 34.9659 37.0333 34.9659 36.6257C34.9659 36.2181 35.2964 35.8877 35.7039 35.8877Z" fill="url(#paint13_linear_1923_35383)"/>
</g>
<path d="M35.982 35.8878C34.3351 35.8878 33 34.5527 33 32.9058C33 31.2589 34.3351 29.9238 35.982 29.9238H40.177C41.8239 29.9238 43.159 31.2589 43.159 32.9058C43.159 34.5527 41.8239 35.8878 40.177 35.8878H35.982Z" fill="#C4C4C4" fill-opacity="0.66"/>
<g filter="url(#filter5_i_1923_35383)">
<path d="M33 32.9778V32.8338C33 31.2267 34.3029 29.9238 35.91 29.9238H40.249C41.8561 29.9238 43.159 31.2267 43.159 32.8338V32.9778C43.159 34.585 41.8561 35.8878 40.249 35.8878H35.91C34.3029 35.8878 33 34.585 33 32.9778Z" fill="url(#paint14_linear_1923_35383)"/>
<path d="M33 32.9778V32.8338C33 31.2267 34.3029 29.9238 35.91 29.9238H40.249C41.8561 29.9238 43.159 31.2267 43.159 32.8338V32.9778C43.159 34.585 41.8561 35.8878 40.249 35.8878H35.91C34.3029 35.8878 33 34.585 33 32.9778Z" fill="url(#paint15_radial_1923_35383)"/>
<path d="M33 32.9778V32.8338C33 31.2267 34.3029 29.9238 35.91 29.9238H40.249C41.8561 29.9238 43.159 31.2267 43.159 32.8338V32.9778C43.159 34.585 41.8561 35.8878 40.249 35.8878H35.91C34.3029 35.8878 33 34.585 33 32.9778Z" fill="url(#paint16_radial_1923_35383)"/>
</g>
<g filter="url(#filter6_f_1923_35383)">
<path d="M34.7357 32.0176H39.9847C40.3922 32.0176 40.7227 32.348 40.7227 32.7556C40.7227 33.1632 40.3922 33.4936 39.9847 33.4936H34.7357C34.3281 33.4936 33.9977 33.1632 33.9977 32.7556C33.9977 32.348 34.3281 32.0176 34.7357 32.0176Z" fill="url(#paint17_linear_1923_35383)"/>
</g>
<g filter="url(#filter7_i_1923_35383)">
<path d="M33.0469 28.3957V28.3827C33.0469 26.7755 34.3497 25.4727 35.9569 25.4727H40.2509C41.858 25.4727 43.1609 26.7755 43.1609 28.3827V28.3957C43.1609 30.0028 41.858 31.3057 40.2509 31.3057H35.9569C34.3497 31.3057 33.0469 30.0028 33.0469 28.3957Z" fill="url(#paint18_linear_1923_35383)"/>
<path d="M33.0469 28.3957V28.3827C33.0469 26.7755 34.3497 25.4727 35.9569 25.4727H40.2509C41.858 25.4727 43.1609 26.7755 43.1609 28.3827V28.3957C43.1609 30.0028 41.858 31.3057 40.2509 31.3057H35.9569C34.3497 31.3057 33.0469 30.0028 33.0469 28.3957Z" fill="url(#paint19_radial_1923_35383)"/>
</g>
<path d="M44.401 12.0586C45.2729 12.0591 46.1089 12.4057 46.7254 13.0222C47.3419 13.6387 47.6885 14.4747 47.689 15.3466V17.8996L47.691 17.8986C47.691 18.4606 47.769 19.6746 48.171 20.4216C48.636 21.2846 49.515 21.8116 50.235 22.2426C50.455 22.3746 50.659 22.4966 50.832 22.6166C49.837 23.4136 47.8 25.0066 47.75 24.9686C46.5921 24.3423 45.4307 23.7223 44.266 23.1086L44.314 22.4186C43.4573 22.3957 42.6434 22.0394 42.0454 21.4255C41.4474 20.8116 41.1125 19.9886 41.112 19.1316V15.3466C41.1126 14.4746 41.4593 13.6384 42.076 13.0219C42.6927 12.4053 43.529 12.0589 44.401 12.0586Z" fill="url(#paint20_radial_1923_35383)"/>
<path d="M44.401 12.0586C45.2729 12.0591 46.1089 12.4057 46.7254 13.0222C47.3419 13.6387 47.6885 14.4747 47.689 15.3466V17.8996L47.691 17.8986C47.691 18.4606 47.769 19.6746 48.171 20.4216C48.636 21.2846 49.515 21.8116 50.235 22.2426C50.455 22.3746 50.659 22.4966 50.832 22.6166C49.837 23.4136 47.8 25.0066 47.75 24.9686C46.5921 24.3423 45.4307 23.7223 44.266 23.1086L44.314 22.4186C43.4573 22.3957 42.6434 22.0394 42.0454 21.4255C41.4474 20.8116 41.1125 19.9886 41.112 19.1316V15.3466C41.1126 14.4746 41.4593 13.6384 42.076 13.0219C42.6927 12.4053 43.529 12.0589 44.401 12.0586Z" fill="url(#paint21_radial_1923_35383)"/>
<path d="M46.4795 12.7998C46.8575 13.1079 47.1621 13.4963 47.3711 13.9369C47.58 14.3775 47.6881 14.8592 47.6875 15.3468V15.5388H46.2015C46.1956 15.1543 46.2244 14.7701 46.2875 14.3908L46.3045 14.2998C46.3865 13.8518 46.4805 13.3398 46.4795 12.7998Z" fill="#FFBF71"/>
<path d="M46.4795 12.7998C46.8575 13.1079 47.1621 13.4963 47.3711 13.9369C47.58 14.3775 47.6881 14.8592 47.6875 15.3468V15.5388H46.2015C46.1956 15.1543 46.2244 14.7701 46.2875 14.3908L46.3045 14.2998C46.3865 13.8518 46.4805 13.3398 46.4795 12.7998Z" fill="url(#paint22_radial_1923_35383)"/>
<g filter="url(#filter8_f_1923_35383)">
<path d="M36.2236 21.7119H39.8436C40.5383 21.7119 41.1016 22.2751 41.1016 22.9699C41.1016 23.6647 40.5383 24.2279 39.8436 24.2279H36.2236C35.5288 24.2279 34.9656 23.6647 34.9656 22.9699C34.9656 22.2751 35.5288 21.7119 36.2236 21.7119Z" fill="url(#paint23_linear_1923_35383)"/>
</g>
<g filter="url(#filter9_f_1923_35383)">
<path d="M35.2579 26.1885H39.9139C40.6086 26.1885 41.1719 26.7517 41.1719 27.4465C41.1719 28.1413 40.6086 28.7045 39.9139 28.7045H35.2579C34.5631 28.7045 33.9999 28.1413 33.9999 27.4465C33.9999 26.7517 34.5631 26.1885 35.2579 26.1885Z" fill="url(#paint24_linear_1923_35383)"/>
</g>
<g filter="url(#filter10_f_1923_35383)">
<path d="M41.9397 14.7338C41.9397 13.9424 42.581 13.3008 43.3722 13.3008C44.1633 13.3008 44.8047 13.9424 44.8047 14.7338V19.8648C44.8047 20.6562 44.1633 21.2978 43.3722 21.2978C42.581 21.2978 41.9397 20.6562 41.9397 19.8648V14.7338Z" fill="url(#paint25_linear_1923_35383)"/>
</g>
</g>
<defs>
<filter id="filter0_i_1923_35383" x="36.4922" y="12" width="19.0469" height="27.8672" filterUnits="userSpaceOnUse" color-interpolation-filters="sRGB">
<feFlood flood-opacity="0" result="BackgroundImageFix"/>
<feBlend mode="normal" in="SourceGraphic" in2="BackgroundImageFix" result="shape"/>
<feColorMatrix in="SourceAlpha" type="matrix" values="0 0 0 0 0 0 0 0 0 0 0 0 0 0 0 0 0 0 127 0" result="hardAlpha"/>
<feOffset dx="0.5"/>
<feGaussianBlur stdDeviation="1"/>
<feComposite in2="hardAlpha" operator="arithmetic" k2="-1" k3="1"/>
<feColorMatrix type="matrix" values="0 0 0 0 0.847059 0 0 0 0 0.458824 0 0 0 0 0.360784 0 0 0 1 0"/>
<feBlend mode="normal" in2="shape" result="effect1_innerShadow_1923_35383"/>
</filter>
<filter id="filter1_f_1923_35383" x="33.4023" y="20.3457" width="12.9102" height="20.6152" filterUnits="userSpaceOnUse" color-interpolation-filters="sRGB">
<feFlood flood-opacity="0" result="BackgroundImageFix"/>
<feBlend mode="normal" in="SourceGraphic" in2="BackgroundImageFix" result="shape"/>
<feGaussianBlur stdDeviation="1" result="effect1_foregroundBlur_1923_35383"/>
</filter>
<filter id="filter2_i_1923_35383" x="34" y="20.918" width="9.54297" height="5.82031" filterUnits="userSpaceOnUse" color-interpolation-filters="sRGB">
<feFlood flood-opacity="0" result="BackgroundImageFix"/>
<feBlend mode="normal" in="SourceGraphic" in2="BackgroundImageFix" result="shape"/>
<feColorMatrix in="SourceAlpha" type="matrix" values="0 0 0 0 0 0 0 0 0 0 0 0 0 0 0 0 0 0 127 0" result="hardAlpha"/>
<feOffset dx="0.5"/>
<feGaussianBlur stdDeviation="0.75"/>
<feComposite in2="hardAlpha" operator="arithmetic" k2="-1" k3="1"/>
<feColorMatrix type="matrix" values="0 0 0 0 0.878431 0 0 0 0 0.541176 0 0 0 0 0.0627451 0 0 0 1 0"/>
<feBlend mode="normal" in2="shape" result="effect1_innerShadow_1923_35383"/>
</filter>
<filter id="filter3_i_1923_35383" x="34.3008" y="33.7031" width="9.35938" height="6.16406" filterUnits="userSpaceOnUse" color-interpolation-filters="sRGB">
<feFlood flood-opacity="0" result="BackgroundImageFix"/>
<feBlend mode="normal" in="SourceGraphic" in2="BackgroundImageFix" result="shape"/>
<feColorMatrix in="SourceAlpha" type="matrix" values="0 0 0 0 0 0 0 0 0 0 0 0 0 0 0 0 0 0 127 0" result="hardAlpha"/>
<feOffset dx="0.5" dy="-0.5"/>
<feGaussianBlur stdDeviation="0.75"/>
<feComposite in2="hardAlpha" operator="arithmetic" k2="-1" k3="1"/>
<feColorMatrix type="matrix" values="0 0 0 0 0.941176 0 0 0 0 0.643137 0 0 0 0 0.215686 0 0 0 1 0"/>
<feBlend mode="normal" in2="shape" result="effect1_innerShadow_1923_35383"/>
</filter>
<filter id="filter4_f_1923_35383" x="33.7148" y="34.6377" width="7.87109" height="3.97559" filterUnits="userSpaceOnUse" color-interpolation-filters="sRGB">
<feFlood flood-opacity="0" result="BackgroundImageFix"/>
<feBlend mode="normal" in="SourceGraphic" in2="BackgroundImageFix" result="shape"/>
<feGaussianBlur stdDeviation="0.625" result="effect1_foregroundBlur_1923_35383"/>
</filter>
<filter id="filter5_i_1923_35383" x="33" y="29.4238" width="10.6602" height="6.46387" filterUnits="userSpaceOnUse" color-interpolation-filters="sRGB">
<feFlood flood-opacity="0" result="BackgroundImageFix"/>
<feBlend mode="normal" in="SourceGraphic" in2="BackgroundImageFix" result="shape"/>
<feColorMatrix in="SourceAlpha" type="matrix" values="0 0 0 0 0 0 0 0 0 0 0 0 0 0 0 0 0 0 127 0" result="hardAlpha"/>
<feOffset dx="0.5" dy="-0.5"/>
<feGaussianBlur stdDeviation="0.75"/>
<feComposite in2="hardAlpha" operator="arithmetic" k2="-1" k3="1"/>
<feColorMatrix type="matrix" values="0 0 0 0 0.941176 0 0 0 0 0.643137 0 0 0 0 0.215686 0 0 0 1 0"/>
<feBlend mode="normal" in2="shape" result="effect1_innerShadow_1923_35383"/>
</filter>
<filter id="filter6_f_1923_35383" x="32.7461" y="30.7676" width="9.22656" height="3.97559" filterUnits="userSpaceOnUse" color-interpolation-filters="sRGB">
<feFlood flood-opacity="0" result="BackgroundImageFix"/>
<feBlend mode="normal" in="SourceGraphic" in2="BackgroundImageFix" result="shape"/>
<feGaussianBlur stdDeviation="0.625" result="effect1_foregroundBlur_1923_35383"/>
</filter>
<filter id="filter7_i_1923_35383" x="33.0469" y="24.9727" width="10.6133" height="6.33301" filterUnits="userSpaceOnUse" color-interpolation-filters="sRGB">
<feFlood flood-opacity="0" result="BackgroundImageFix"/>
<feBlend mode="normal" in="SourceGraphic" in2="BackgroundImageFix" result="shape"/>
<feColorMatrix in="SourceAlpha" type="matrix" values="0 0 0 0 0 0 0 0 0 0 0 0 0 0 0 0 0 0 127 0" result="hardAlpha"/>
<feOffset dx="0.5" dy="-0.5"/>
<feGaussianBlur stdDeviation="0.75"/>
<feComposite in2="hardAlpha" operator="arithmetic" k2="-1" k3="1"/>
<feColorMatrix type="matrix" values="0 0 0 0 0.941176 0 0 0 0 0.643137 0 0 0 0 0.215686 0 0 0 1 0"/>
<feBlend mode="normal" in2="shape" result="effect1_innerShadow_1923_35383"/>
</filter>
<filter id="filter8_f_1923_35383" x="33.7148" y="20.4619" width="8.63672" height="5.01562" filterUnits="userSpaceOnUse" color-interpolation-filters="sRGB">
<feFlood flood-opacity="0" result="BackgroundImageFix"/>
<feBlend mode="normal" in="SourceGraphic" in2="BackgroundImageFix" result="shape"/>
<feGaussianBlur stdDeviation="0.625" result="effect1_foregroundBlur_1923_35383"/>
</filter>
<filter id="filter9_f_1923_35383" x="32.75" y="24.9385" width="9.67188" height="5.01562" filterUnits="userSpaceOnUse" color-interpolation-filters="sRGB">
<feFlood flood-opacity="0" result="BackgroundImageFix"/>
<feBlend mode="normal" in="SourceGraphic" in2="BackgroundImageFix" result="shape"/>
<feGaussianBlur stdDeviation="0.625" result="effect1_foregroundBlur_1923_35383"/>
</filter>
<filter id="filter10_f_1923_35383" x="40.6914" y="12.0508" width="5.36328" height="10.4971" filterUnits="userSpaceOnUse" color-interpolation-filters="sRGB">
<feFlood flood-opacity="0" result="BackgroundImageFix"/>
<feBlend mode="normal" in="SourceGraphic" in2="BackgroundImageFix" result="shape"/>
<feGaussianBlur stdDeviation="0.625" result="effect1_foregroundBlur_1923_35383"/>
</filter>
<linearGradient id="paint0_linear_1923_35383" x1="40.7021" y1="16.8273" x2="50.7651" y2="38.0153" gradientUnits="userSpaceOnUse">
<stop stop-color="#FFCA44"/>
<stop offset="1" stop-color="#F8A528"/>
</linearGradient>
<radialGradient id="paint1_radial_1923_35383" cx="0" cy="0" r="1" gradientUnits="userSpaceOnUse" gradientTransform="translate(39.5159 15.0334) rotate(38.884) scale(5.01564 14.8034)">
<stop stop-color="#FFE34C"/>
<stop offset="1" stop-color="#FFE34C" stop-opacity="0"/>
</radialGradient>
<radialGradient id="paint2_radial_1923_35383" cx="0" cy="0" r="1" gradientUnits="userSpaceOnUse" gradientTransform="translate(48.6475 25.9634) rotate(54.809) scale(7.43021 5.38256)">
<stop stop-color="#FFCA2E"/>
<stop offset="1" stop-color="#FFCA2E" stop-opacity="0"/>
</radialGradient>
<radialGradient id="paint3_radial_1923_35383" cx="0" cy="0" r="1" gradientUnits="userSpaceOnUse" gradientTransform="translate(40.5861 28.3193) rotate(33.257) scale(16.1907 28.3343)">
<stop offset="0.681" stop-color="#E18E3F" stop-opacity="0"/>
<stop offset="1" stop-color="#E18E3F"/>
</radialGradient>
<linearGradient id="paint4_linear_1923_35383" x1="45.7661" y1="35.7503" x2="45.7661" y2="40.8513" gradientUnits="userSpaceOnUse">
<stop stop-color="#D8796F" stop-opacity="0"/>
<stop offset="1" stop-color="#D8796F"/>
</linearGradient>
<linearGradient id="paint5_linear_1923_35383" x1="39.857" y1="22.3457" x2="39.857" y2="35.6337" gradientUnits="userSpaceOnUse">
<stop stop-color="#D1730B"/>
<stop offset="1" stop-color="#E27D47"/>
</linearGradient>
<linearGradient id="paint6_linear_1923_35383" x1="34" y1="23.828" x2="43.044" y2="23.828" gradientUnits="userSpaceOnUse">
<stop stop-color="#FFDB44"/>
<stop offset="1" stop-color="#F9A928"/>
</linearGradient>
<radialGradient id="paint7_radial_1923_35383" cx="0" cy="0" r="1" gradientUnits="userSpaceOnUse" gradientTransform="translate(41.573 26.408) rotate(-37.367) scale(2.3211 1.55367)">
<stop stop-color="#D98320"/>
<stop offset="1" stop-color="#D98320" stop-opacity="0"/>
</radialGradient>
<linearGradient id="paint8_linear_1923_35383" x1="35.0768" y1="37.0341" x2="43.1618" y2="37.0341" gradientUnits="userSpaceOnUse">
<stop stop-color="#FFDB44"/>
<stop offset="1" stop-color="#F9A928"/>
</linearGradient>
<radialGradient id="paint9_radial_1923_35383" cx="0" cy="0" r="1" gradientUnits="userSpaceOnUse" gradientTransform="translate(41.3668 39.8661) rotate(180) scale(7.31347 2.78222)">
<stop stop-color="#F29545"/>
<stop offset="1" stop-color="#F29545" stop-opacity="0"/>
</radialGradient>
<radialGradient id="paint10_radial_1923_35383" cx="0" cy="0" r="1" gradientUnits="userSpaceOnUse" gradientTransform="translate(41.7178 35.1961) rotate(180) scale(7.4169 1.99096)">
<stop stop-color="#DA810B"/>
<stop offset="1" stop-color="#FFB610" stop-opacity="0"/>
</radialGradient>
<linearGradient id="paint11_linear_1923_35383" x1="38.7318" y1="40.4501" x2="38.7318" y2="38.6181" gradientUnits="userSpaceOnUse">
<stop stop-color="#DC7C6A"/>
<stop offset="1" stop-color="#DC7C6A" stop-opacity="0"/>
</linearGradient>
<radialGradient id="paint12_radial_1923_35383" cx="0" cy="0" r="1" gradientUnits="userSpaceOnUse" gradientTransform="translate(44.3348 37.0341) rotate(180) scale(5.60324 8.4227)">
<stop stop-color="#E38811"/>
<stop offset="1" stop-color="#E38811" stop-opacity="0"/>
</radialGradient>
<linearGradient id="paint13_linear_1923_35383" x1="35.2449" y1="36.2917" x2="41.0339" y2="36.2917" gradientUnits="userSpaceOnUse">
<stop stop-color="#FFF166"/>
<stop offset="1" stop-color="#FFF166" stop-opacity="0"/>
</linearGradient>
<linearGradient id="paint14_linear_1923_35383" x1="33.89" y1="32.9058" x2="43.159" y2="32.9058" gradientUnits="userSpaceOnUse">
<stop stop-color="#FFDB44"/>
<stop offset="1" stop-color="#F9A928"/>
</linearGradient>
<radialGradient id="paint15_radial_1923_35383" cx="0" cy="0" r="1" gradientUnits="userSpaceOnUse" gradientTransform="translate(41.101 35.8878) rotate(180) scale(8.38517 2.92967)">
<stop stop-color="#F29545"/>
<stop offset="1" stop-color="#F29545" stop-opacity="0"/>
</radialGradient>
<radialGradient id="paint16_radial_1923_35383" cx="0" cy="0" r="1" gradientUnits="userSpaceOnUse" gradientTransform="translate(41.504 30.9708) rotate(180) scale(8.50376 2.09648)">
<stop stop-color="#DA810B"/>
<stop offset="1" stop-color="#FFB610" stop-opacity="0"/>
</radialGradient>
<linearGradient id="paint17_linear_1923_35383" x1="34.3477" y1="32.4216" x2="41.5957" y2="32.4216" gradientUnits="userSpaceOnUse">
<stop stop-color="#FFF166"/>
<stop offset="1" stop-color="#FFF166" stop-opacity="0"/>
</linearGradient>
<linearGradient id="paint18_linear_1923_35383" x1="33.0469" y1="28.3897" x2="43.1599" y2="28.3897" gradientUnits="userSpaceOnUse">
<stop stop-color="#FFDB44"/>
<stop offset="1" stop-color="#F9A928"/>
</linearGradient>
<radialGradient id="paint19_radial_1923_35383" cx="0" cy="0" r="1" gradientUnits="userSpaceOnUse" gradientTransform="translate(41.0689 30.6007) rotate(180) scale(5.50067 2.44847)">
<stop stop-color="#F29545"/>
<stop offset="1" stop-color="#F29545" stop-opacity="0"/>
</radialGradient>
<radialGradient id="paint20_radial_1923_35383" cx="0" cy="0" r="1" gradientUnits="userSpaceOnUse" gradientTransform="translate(47.42 15.0326) rotate(90) scale(6.36013 2.36143)">
<stop stop-color="#F3A52A"/>
<stop offset="1" stop-color="#F3A52A" stop-opacity="0"/>
</radialGradient>
<radialGradient id="paint21_radial_1923_35383" cx="0" cy="0" r="1" gradientUnits="userSpaceOnUse" gradientTransform="translate(49.277 19.2206) rotate(137.003) scale(3.18567 4.82046)">
<stop stop-color="#CDA25E"/>
<stop offset="1" stop-color="#CDA25E" stop-opacity="0"/>
</radialGradient>
<radialGradient id="paint22_radial_1923_35383" cx="0" cy="0" r="1" gradientUnits="userSpaceOnUse" gradientTransform="translate(45.9689 14.6397) rotate(-11.634) scale(1.63946 3.57849)">
<stop offset="0.55" stop-color="#CCB28B" stop-opacity="0"/>
<stop offset="1" stop-color="#CCB28B"/>
</radialGradient>
<linearGradient id="paint23_linear_1923_35383" x1="35.2846" y1="22.4019" x2="41.8986" y2="22.4019" gradientUnits="userSpaceOnUse">
<stop stop-color="#FFF166"/>
<stop offset="1" stop-color="#FFF166" stop-opacity="0"/>
</linearGradient>
<linearGradient id="paint24_linear_1923_35383" x1="34.3729" y1="26.8785" x2="42.1039" y2="26.8785" gradientUnits="userSpaceOnUse">
<stop stop-color="#FFF166"/>
<stop offset="1" stop-color="#FFF166" stop-opacity="0"/>
</linearGradient>
<linearGradient id="paint25_linear_1923_35383" x1="42.0877" y1="15.4938" x2="45.1767" y2="15.4938" gradientUnits="userSpaceOnUse">
<stop stop-color="#FFF166"/>
<stop offset="1" stop-color="#FFF166" stop-opacity="0"/>
</linearGradient>
</defs>
</svg>
