<svg width="61" height="61" viewBox="0 0 61 61" fill="none" xmlns="http://www.w3.org/2000/svg">
<path d="M31.1444 20.4579C33.5266 20.4579 35.9088 20.4816 38.291 20.4499C39.4858 20.4341 40.5486 21.2495 40.9151 22.4844C41.3329 23.8777 41.7947 25.2472 42.2345 26.6325C42.5497 27.6141 42.5203 28.5641 41.9926 29.4586C41.6921 29.9653 41.2816 30.3373 40.7685 30.559C40.5486 30.654 40.4826 30.7806 40.4826 31.034C40.49 33.4326 40.4606 35.8312 40.4973 38.2298C40.5266 40.0506 39.1266 41.7447 37.2575 41.7288C33.1674 41.7051 29.0774 41.7288 24.9873 41.7288C23.1328 41.7288 21.7402 40.2168 21.7328 38.2061C21.7328 36.512 21.7328 34.8179 21.7328 33.1239C21.7328 32.7043 21.8721 32.3639 22.2459 32.1818C22.8323 31.8968 23.4334 32.3481 23.448 33.0764C23.4627 33.8601 23.448 34.6517 23.448 35.4354C23.448 36.3695 23.448 37.3036 23.448 38.2378C23.448 39.2115 24.0417 39.8606 24.9433 39.8685C25.8009 39.8764 26.6585 39.8685 27.5161 39.8685C27.7507 39.8685 27.8093 39.7735 27.802 39.5439C27.7946 38.3565 27.802 37.177 27.802 35.9895C27.802 34.0026 29.224 32.4985 31.0638 32.451C32.8449 32.4035 34.0837 33.7255 34.3842 35.1029C34.4428 35.3562 34.4721 35.6096 34.4648 35.8708C34.4648 37.0899 34.4648 38.3169 34.4648 39.536C34.4648 39.7973 34.5454 39.8685 34.78 39.8685C35.6009 39.8606 36.4292 39.8685 37.2502 39.8685C38.1811 39.8685 38.7968 39.2431 38.8041 38.2298C38.8261 35.8391 38.8041 33.4563 38.8114 31.0656C38.8114 30.8994 38.7601 30.8123 38.5989 30.7806C37.8659 30.6382 37.2135 30.2978 36.6345 29.807C36.5172 29.704 36.4512 29.712 36.3339 29.8228C34.9339 31.216 32.7716 31.2319 31.313 29.8544C31.1664 29.712 31.0857 29.712 30.9318 29.8465C29.781 30.8519 28.4983 31.1448 27.0763 30.6223C26.6512 30.464 26.27 30.2028 25.9475 29.8703C25.8082 29.7278 25.713 29.712 25.5517 29.8465C24.8334 30.4482 24.0198 30.7965 23.1182 30.8677C21.6449 30.9786 20.1569 30.1711 19.8491 28.382C19.7464 27.8041 19.8051 27.2183 19.9883 26.6563C20.4501 25.2314 20.8972 23.8064 21.359 22.3815C21.7475 21.1782 22.6857 20.4658 23.8658 20.4658C26.2847 20.4658 28.7035 20.4658 31.1151 20.4658L31.1444 20.4579ZM39.1779 29.0153C40.4167 29.0153 40.9591 28.3266 40.6439 27.3054C40.1968 25.8488 39.7203 24.4001 39.2512 22.9515C39.1339 22.5794 38.8847 22.3498 38.5109 22.3103C38.3863 22.2944 38.2544 22.2786 38.1298 22.2786C33.468 22.2786 28.8062 22.2786 24.137 22.2786C23.9978 22.2786 23.8658 22.2944 23.7266 22.3103C23.3527 22.3578 23.1108 22.5873 22.9936 22.9594C22.5245 24.4001 22.0553 25.8409 21.6082 27.2896C21.3077 28.2633 21.8061 28.9995 22.7517 29.0153C23.7559 29.0391 24.5328 28.5641 25.1266 27.7091C25.3465 27.3925 25.5957 27.155 25.9842 27.2025C26.38 27.25 26.6219 27.5112 26.7538 27.9229C26.915 28.4216 27.2522 28.7383 27.7067 28.9045C28.6815 29.2686 29.8103 28.8016 30.3088 27.8041C30.492 27.44 30.7486 27.2025 31.1297 27.1946C31.5255 27.1946 31.7674 27.4558 31.9433 27.8121C32.3025 28.5245 32.8816 28.9045 33.6146 29.0074C34.4941 29.1262 35.2125 28.7066 35.4983 27.915C35.6376 27.5112 35.8722 27.2421 36.268 27.2025C36.6491 27.1629 36.8983 27.3925 37.1182 27.7171C37.6606 28.5245 38.4083 28.9678 39.1706 29.0232L39.1779 29.0153ZM29.5318 37.6915C29.5318 38.3169 29.5318 38.9502 29.5318 39.5756C29.5318 39.7973 29.6051 39.8685 29.803 39.8685C30.7193 39.8685 31.6355 39.8685 32.5517 39.8685C32.7423 39.8685 32.8009 39.7894 32.8009 39.5914C32.8009 38.3961 32.8009 37.2007 32.8009 36.0133C32.8009 35.5146 32.6397 35.0713 32.2878 34.7229C31.914 34.3509 31.4669 34.2955 30.9978 34.3192C30.1622 34.3588 29.5538 35.0158 29.5391 35.9183C29.5318 36.512 29.5391 37.1057 29.5391 37.6915H29.5318Z" fill="#908EB5"/>
</svg>
