<svg width="377" height="261" viewBox="0 0 377 261" fill="none" xmlns="http://www.w3.org/2000/svg">
<rect width="377" height="261" rx="25.8882" fill="url(#paint0_linear_5023_51509)"/>
<g filter="url(#filter0_di_5023_51509)">
<path d="M150.473 166.311L169.998 161.179C175.553 164.132 181.769 165.7 188.097 165.7C209.352 165.7 226.673 148.379 226.673 127.124C226.673 116.812 222.663 107.117 215.385 99.8389C211.816 96.2349 207.565 93.3773 202.88 91.4325C198.194 89.4875 193.169 88.4944 188.096 88.5109C166.842 88.5118 149.522 105.832 149.522 127.086C149.522 133.757 151.24 140.241 154.454 145.99L149.254 165.081L148.799 166.751L150.473 166.311ZM170.781 152.32L160.626 154.989L163.317 145.133L163.434 144.702L163.192 144.327L162.438 143.157C159.421 138.339 157.82 132.77 157.816 127.086C157.817 110.424 171.398 96.843 188.06 96.843C196.135 96.843 203.729 99.998 209.418 105.724L209.422 105.728C212.238 108.531 214.471 111.865 215.989 115.537C217.507 119.21 218.28 123.147 218.265 127.12L218.265 127.129C218.338 143.785 204.762 157.33 188.097 157.33C182.667 157.33 177.346 155.862 172.684 153.11C172.683 153.109 172.682 153.109 172.681 153.108L171.549 152.429L171.188 152.213L170.781 152.32ZM199.207 130.976L199.182 130.966L199.156 130.957L199.15 130.955C198.748 130.815 198.169 130.614 197.571 130.68C196.861 130.759 196.32 131.17 195.889 131.779L195.883 131.787L195.878 131.794C195.272 132.686 193.528 134.767 192.995 135.376L192.985 135.387L192.975 135.399C192.89 135.502 192.832 135.547 192.803 135.566C192.78 135.58 192.772 135.581 192.765 135.582C192.732 135.585 192.568 135.587 192.161 135.375L192.147 135.368L192.132 135.361C191.979 135.287 191.785 135.203 191.553 135.103C190.241 134.538 187.735 133.457 184.82 130.853L184.82 130.852C182.148 128.469 180.359 125.528 179.788 124.577C179.707 124.431 179.689 124.347 179.685 124.315C179.682 124.291 179.685 124.285 179.687 124.277C179.693 124.261 179.712 124.219 179.774 124.142C179.838 124.062 179.921 123.974 180.046 123.85C180.364 123.532 180.758 123.056 181.103 122.639C181.247 122.465 181.383 122.301 181.501 122.163C182.001 121.58 182.246 121.087 182.506 120.561C182.532 120.51 182.558 120.458 182.584 120.405L182.589 120.395L182.594 120.384C183.081 119.349 182.805 118.475 182.508 117.88C182.305 117.474 180.43 112.903 179.661 110.98L179.658 110.973L179.655 110.966C179.229 109.944 178.709 109.291 178.032 108.966C177.498 108.709 176.872 108.72 176.712 108.723C176.693 108.723 176.68 108.723 176.675 108.723L176.642 108.721H176.609H174.789C173.911 108.721 172.641 109.033 171.55 110.219L171.543 110.227L171.536 110.235C171.473 110.306 171.401 110.386 171.319 110.475C170.321 111.568 168.025 114.084 168.025 118.745C168.025 121.283 168.945 123.722 169.878 125.558C170.807 127.386 171.793 128.702 172.046 129.039C172.065 129.066 172.092 129.106 172.127 129.158C173.023 130.47 179.216 139.544 188.494 143.549C190.775 144.554 192.556 145.135 193.941 145.558C196.379 146.342 198.595 146.21 200.293 145.973L200.299 145.973C201.399 145.812 202.928 145.168 204.26 144.312C205.564 143.474 206.934 142.269 207.43 140.842C207.856 139.664 208.073 138.566 208.147 137.687C208.184 137.248 208.186 136.847 208.155 136.508C208.128 136.217 208.064 135.816 207.862 135.498C207.588 135.068 207.192 134.816 206.853 134.635C206.654 134.53 206.396 134.41 206.129 134.287C205.975 134.216 205.818 134.143 205.669 134.072C205.454 133.969 205.028 133.761 204.49 133.499C202.758 132.655 199.871 131.248 199.207 130.976Z" stroke="#60D669" stroke-width="2" shape-rendering="crispEdges"/>
</g>
<g opacity="0.2">
<path fill-rule="evenodd" clip-rule="evenodd" d="M58.5137 61.7119C48.0124 61.7119 39.5 70.2243 39.5 80.7256C39.5 91.2268 48.0124 99.7393 58.5137 99.7393C69.0149 99.7393 77.5273 91.2268 77.5273 80.7256C77.5273 70.2243 69.0149 61.7119 58.5137 61.7119ZM51.8589 75.9722C51.8589 75.0982 52.031 74.2329 52.3655 73.4255C52.6999 72.6181 53.1901 71.8845 53.808 71.2665C54.426 70.6486 55.1596 70.1584 55.967 69.8239C56.7744 69.4895 57.6398 69.3174 58.5137 69.3174C59.3876 69.3174 60.253 69.4895 61.0603 69.8239C61.8677 70.1584 62.6014 70.6486 63.2193 71.2665C63.8373 71.8845 64.3275 72.6181 64.6619 73.4255C64.9963 74.2329 65.1685 75.0982 65.1685 75.9722C65.1685 77.7371 64.4673 79.4298 63.2193 80.6778C61.9713 81.9258 60.2786 82.627 58.5137 82.627C56.7487 82.627 55.056 81.9258 53.808 80.6778C52.56 79.4298 51.8589 77.7371 51.8589 75.9722ZM70.4124 90.202C68.9887 91.9918 67.1792 93.4371 65.1189 94.4301C63.0586 95.423 60.8007 95.938 58.5137 95.9365C56.2266 95.938 53.9687 95.423 51.9085 94.4301C49.8482 93.4371 48.0387 91.9918 46.6149 90.202C49.697 87.9907 53.9029 86.4297 58.5137 86.4297C63.1245 86.4297 67.3303 87.9907 70.4124 90.202Z" fill="black"/>
</g>
<g opacity="0.2">
<path fill-rule="evenodd" clip-rule="evenodd" d="M134.219 36.6006C119.031 36.6006 106.719 48.9123 106.719 64.1006C106.719 79.2888 119.031 91.6006 134.219 91.6006C149.407 91.6006 161.719 79.2888 161.719 64.1006C161.719 48.9123 149.407 36.6006 134.219 36.6006ZM124.594 57.2256C124.594 55.9616 124.843 54.71 125.326 53.5423C125.81 52.3745 126.519 51.3134 127.413 50.4197C128.307 49.5259 129.368 48.8169 130.535 48.3332C131.703 47.8495 132.955 47.6006 134.219 47.6006C135.483 47.6006 136.734 47.8495 137.902 48.3332C139.07 48.8169 140.131 49.5259 141.025 50.4197C141.918 51.3134 142.627 52.3745 143.111 53.5423C143.595 54.71 143.844 55.9616 143.844 57.2256C143.844 59.7783 142.83 62.2264 141.025 64.0315C139.22 65.8365 136.771 66.8506 134.219 66.8506C131.666 66.8506 129.218 65.8365 127.413 64.0315C125.608 62.2264 124.594 59.7783 124.594 57.2256ZM151.428 77.8066C149.369 80.3953 146.752 82.4857 143.772 83.9218C140.792 85.3579 137.527 86.1027 134.219 86.1006C130.911 86.1027 127.645 85.3579 124.665 83.9218C121.686 82.4857 119.068 80.3953 117.009 77.8066C121.467 74.6083 127.55 72.3506 134.219 72.3506C140.888 72.3506 146.97 74.6083 151.428 77.8066Z" fill="black"/>
</g>
<g opacity="0.2">
<path fill-rule="evenodd" clip-rule="evenodd" d="M279.445 63.4893C264.257 63.4893 251.945 75.801 251.945 90.9893C251.945 106.178 264.257 118.489 279.445 118.489C294.634 118.489 306.945 106.178 306.945 90.9893C306.945 75.801 294.634 63.4893 279.445 63.4893ZM269.82 84.1143C269.82 82.8503 270.069 81.5987 270.553 80.4309C271.037 79.2632 271.746 78.2021 272.639 77.3084C273.533 76.4146 274.594 75.7056 275.762 75.2219C276.93 74.7382 278.181 74.4893 279.445 74.4893C280.709 74.4893 281.961 74.7382 283.129 75.2219C284.296 75.7056 285.357 76.4146 286.251 77.3084C287.145 78.2021 287.854 79.2632 288.338 80.4309C288.821 81.5987 289.07 82.8503 289.07 84.1143C289.07 86.667 288.056 89.1151 286.251 90.9202C284.446 92.7252 281.998 93.7393 279.445 93.7393C276.893 93.7393 274.444 92.7252 272.639 90.9202C270.834 89.1151 269.82 86.667 269.82 84.1143ZM296.655 104.695C294.596 107.284 291.978 109.374 288.999 110.81C286.019 112.247 282.753 112.991 279.445 112.989C276.137 112.991 272.872 112.247 269.892 110.81C266.912 109.374 264.295 107.284 262.236 104.695C266.694 101.497 272.777 99.2393 279.445 99.2393C286.114 99.2393 292.197 101.497 296.655 104.695Z" fill="black"/>
</g>
<path opacity="0.2" fill-rule="evenodd" clip-rule="evenodd" d="M328.361 41.7119C317.944 41.7119 309.5 50.1561 309.5 60.5732C309.5 70.9904 317.944 79.4346 328.361 79.4346C338.778 79.4346 347.223 70.9904 347.223 60.5732C347.223 50.1561 338.778 41.7119 328.361 41.7119ZM321.76 55.8579C321.76 54.991 321.931 54.1326 322.262 53.3316C322.594 52.5307 323.08 51.803 323.693 51.19C324.306 50.577 325.034 50.0907 325.835 49.759C326.636 49.4272 327.494 49.2564 328.361 49.2564C329.228 49.2564 330.087 49.4272 330.888 49.759C331.689 50.0907 332.416 50.577 333.029 51.19C333.642 51.803 334.129 52.5307 334.46 53.3316C334.792 54.1326 334.963 54.991 334.963 55.8579C334.963 57.6087 334.267 59.2878 333.029 60.5259C331.791 61.7639 330.112 62.4594 328.361 62.4594C326.611 62.4594 324.931 61.7639 323.693 60.5259C322.455 59.2878 321.76 57.6087 321.76 55.8579ZM340.165 69.9737C338.752 71.7492 336.957 73.183 334.914 74.1679C332.87 75.1529 330.63 75.6637 328.361 75.6623C326.093 75.6637 323.853 75.1529 321.809 74.1679C319.765 73.183 317.97 71.7492 316.558 69.9737C319.615 67.7802 323.787 66.2316 328.361 66.2316C332.935 66.2316 337.107 67.7802 340.165 69.9737Z" fill="black"/>
<circle cx="306.111" cy="147.284" r="28.6113" fill="url(#paint1_radial_5023_51509)"/>
<path d="M307.159 135.732C308.444 135.736 309.096 135.743 309.659 135.759L309.88 135.767C310.136 135.776 310.389 135.787 310.694 135.801C311.909 135.858 312.738 136.05 313.466 136.332C314.219 136.622 314.855 137.015 315.49 137.649C316.071 138.22 316.52 138.91 316.806 139.673C317.089 140.4 317.28 141.23 317.338 142.446C317.351 142.75 317.363 143.002 317.372 143.259L317.379 143.481C317.396 144.043 317.403 144.695 317.405 145.98L317.406 146.832V148.328C317.409 149.161 317.4 149.994 317.38 150.827L317.373 151.049C317.364 151.306 317.352 151.558 317.339 151.862C317.282 153.078 317.087 153.906 316.806 154.635C316.52 155.397 316.071 156.088 315.49 156.659C314.919 157.24 314.228 157.689 313.466 157.976C312.738 158.258 311.909 158.45 310.694 158.507L309.88 158.541L309.659 158.548C309.096 158.564 308.444 158.572 307.159 158.574L306.307 158.575H304.812C303.978 158.578 303.145 158.57 302.311 158.549L302.09 158.542C301.819 158.532 301.548 158.52 301.277 158.507C300.061 158.45 299.232 158.258 298.504 157.976C297.742 157.689 297.051 157.24 296.481 156.659C295.899 156.088 295.45 155.397 295.163 154.635C294.881 153.907 294.689 153.078 294.632 151.862L294.597 151.049L294.592 150.827C294.571 149.994 294.561 149.161 294.563 148.328V145.98C294.56 145.147 294.568 144.314 294.588 143.481L294.596 143.259C294.605 143.002 294.617 142.75 294.631 142.446C294.688 141.23 294.88 140.402 295.162 139.673C295.449 138.91 295.9 138.219 296.482 137.649C297.052 137.068 297.742 136.619 298.504 136.332C299.232 136.05 300.06 135.858 301.277 135.801C301.58 135.787 301.834 135.776 302.09 135.767L302.311 135.76C303.144 135.74 303.977 135.731 304.81 135.734L307.159 135.732ZM305.985 141.443C304.47 141.443 303.017 142.045 301.947 143.116C300.876 144.187 300.274 145.639 300.274 147.154C300.274 148.668 300.876 150.121 301.947 151.192C303.017 152.263 304.47 152.865 305.985 152.865C307.499 152.865 308.952 152.263 310.023 151.192C311.094 150.121 311.695 148.668 311.695 147.154C311.695 145.639 311.094 144.187 310.023 143.116C308.952 142.045 307.499 141.443 305.985 141.443ZM305.985 143.727C306.435 143.727 306.88 143.816 307.296 143.988C307.712 144.16 308.089 144.413 308.408 144.731C308.726 145.049 308.978 145.426 309.151 145.842C309.323 146.258 309.412 146.703 309.412 147.153C309.412 147.603 309.323 148.049 309.151 148.465C308.979 148.88 308.727 149.258 308.408 149.576C308.09 149.895 307.713 150.147 307.297 150.319C306.881 150.492 306.436 150.58 305.986 150.58C305.077 150.58 304.205 150.219 303.563 149.577C302.92 148.934 302.559 148.063 302.559 147.154C302.559 146.245 302.92 145.374 303.563 144.731C304.205 144.088 305.077 143.727 305.986 143.727M311.982 139.73C311.603 139.73 311.24 139.88 310.972 140.148C310.705 140.416 310.554 140.779 310.554 141.158C310.554 141.536 310.705 141.899 310.972 142.167C311.24 142.435 311.603 142.585 311.982 142.585C312.361 142.585 312.724 142.435 312.992 142.167C313.259 141.899 313.41 141.536 313.41 141.158C313.41 140.779 313.259 140.416 312.992 140.148C312.724 139.88 312.361 139.73 311.982 139.73Z" fill="white"/>
<circle cx="81.2042" cy="123.416" r="33.7042" fill="url(#paint2_radial_5023_51509)"/>
<path d="M81.2187 107.854C72.4187 107.854 65.2188 115.066 65.2188 123.95C65.2188 131.982 71.0747 138.649 78.7227 139.854V128.609H74.6587V123.95H78.7227V120.4C78.7227 116.368 81.1067 114.151 84.7707 114.151C86.5147 114.151 88.3387 114.456 88.3387 114.456V118.424H86.3227C84.3387 118.424 83.7147 119.661 83.7147 120.93V123.95H88.1627L87.4427 128.609H83.7147V139.854C87.485 139.256 90.9182 137.324 93.3946 134.408C95.871 131.491 97.2273 127.782 97.2187 123.95C97.2187 115.066 90.0187 107.854 81.2187 107.854Z" fill="#D1EBFF" fill-opacity="0.96" style="mix-blend-mode:plus-lighter"/>
<g filter="url(#filter1_d_5023_51509)">
<rect x="200" y="197.712" width="141" height="36" rx="8" fill="#006AFF" shape-rendering="crispEdges"/>
<path d="M214.624 214.326C214.593 214.038 214.463 213.815 214.235 213.655C214.009 213.494 213.715 213.414 213.354 213.414C213.099 213.414 212.881 213.453 212.699 213.53C212.517 213.606 212.377 213.711 212.281 213.842C212.184 213.974 212.135 214.124 212.133 214.293C212.133 214.433 212.165 214.555 212.228 214.658C212.294 214.761 212.383 214.849 212.495 214.921C212.607 214.992 212.731 215.051 212.867 215.099C213.003 215.147 213.14 215.188 213.278 215.221L213.91 215.379C214.164 215.438 214.409 215.518 214.643 215.619C214.88 215.72 215.092 215.847 215.278 216.001C215.467 216.154 215.616 216.339 215.726 216.557C215.836 216.774 215.89 217.028 215.89 217.32C215.89 217.715 215.789 218.063 215.588 218.363C215.386 218.661 215.094 218.895 214.712 219.064C214.333 219.231 213.873 219.314 213.334 219.314C212.81 219.314 212.354 219.233 211.968 219.07C211.584 218.908 211.284 218.671 211.067 218.36C210.852 218.048 210.736 217.669 210.718 217.221H211.919C211.937 217.456 212.009 217.651 212.136 217.807C212.263 217.963 212.429 218.079 212.633 218.156C212.839 218.233 213.069 218.271 213.324 218.271C213.589 218.271 213.822 218.231 214.021 218.152C214.223 218.071 214.381 217.959 214.495 217.817C214.609 217.672 214.667 217.503 214.67 217.31C214.667 217.135 214.616 216.99 214.515 216.876C214.414 216.76 214.273 216.663 214.091 216.586C213.911 216.507 213.7 216.437 213.459 216.376L212.692 216.178C212.137 216.036 211.699 215.82 211.376 215.53C211.056 215.238 210.896 214.851 210.896 214.369C210.896 213.972 211.003 213.624 211.218 213.326C211.435 213.027 211.73 212.796 212.103 212.631C212.476 212.465 212.898 212.381 213.37 212.381C213.848 212.381 214.267 212.465 214.627 212.631C214.989 212.796 215.273 213.025 215.479 213.319C215.685 213.611 215.792 213.946 215.798 214.326H214.624ZM219.163 219.311C218.657 219.311 218.219 219.205 217.851 218.995C217.484 218.782 217.202 218.481 217.005 218.093C216.808 217.703 216.709 217.243 216.709 216.715C216.709 216.195 216.808 215.738 217.005 215.346C217.205 214.951 217.483 214.644 217.841 214.425C218.198 214.203 218.618 214.092 219.101 214.092C219.412 214.092 219.706 214.143 219.983 214.244C220.261 214.342 220.507 214.496 220.72 214.704C220.935 214.913 221.104 215.178 221.226 215.5C221.349 215.821 221.411 216.202 221.411 216.645V217.011H217.268V216.208H220.269C220.267 215.98 220.217 215.777 220.121 215.599C220.024 215.419 219.889 215.278 219.716 215.175C219.545 215.072 219.345 215.02 219.117 215.02C218.874 215.02 218.66 215.079 218.476 215.198C218.291 215.314 218.148 215.468 218.045 215.658C217.944 215.847 217.892 216.054 217.89 216.28V216.981C217.89 217.275 217.944 217.527 218.051 217.738C218.159 217.946 218.309 218.106 218.502 218.218C218.695 218.328 218.921 218.383 219.18 218.383C219.353 218.383 219.51 218.359 219.65 218.31C219.791 218.26 219.912 218.186 220.016 218.09C220.119 217.993 220.197 217.874 220.249 217.731L221.361 217.856C221.291 218.15 221.157 218.407 220.96 218.626C220.765 218.843 220.515 219.012 220.21 219.133C219.905 219.251 219.556 219.311 219.163 219.311ZM223.609 216.251V219.212H222.418V214.158H223.557V215.017H223.616C223.732 214.734 223.918 214.509 224.172 214.342C224.429 214.176 224.746 214.092 225.123 214.092C225.472 214.092 225.776 214.167 226.034 214.316C226.295 214.465 226.497 214.681 226.64 214.964C226.785 215.247 226.856 215.59 226.854 215.994V219.212H225.663V216.178C225.663 215.84 225.575 215.576 225.399 215.385C225.226 215.194 224.986 215.099 224.679 215.099C224.47 215.099 224.285 215.145 224.123 215.237C223.963 215.327 223.836 215.458 223.744 215.629C223.654 215.8 223.609 216.007 223.609 216.251ZM229.94 219.301C229.543 219.301 229.188 219.199 228.874 218.995C228.56 218.791 228.312 218.495 228.13 218.106C227.948 217.718 227.857 217.247 227.857 216.692C227.857 216.13 227.949 215.656 228.134 215.27C228.32 214.882 228.571 214.589 228.887 214.392C229.203 214.192 229.555 214.092 229.943 214.092C230.239 214.092 230.483 214.143 230.674 214.244C230.864 214.342 231.016 214.462 231.128 214.602C231.24 214.74 231.326 214.871 231.388 214.994H231.437V212.473H232.631V219.212H231.46V218.416H231.388C231.326 218.539 231.237 218.669 231.121 218.807C231.005 218.943 230.851 219.059 230.661 219.156C230.47 219.252 230.229 219.301 229.94 219.301ZM230.272 218.324C230.525 218.324 230.739 218.256 230.917 218.12C231.095 217.981 231.23 217.789 231.322 217.544C231.414 217.298 231.46 217.012 231.46 216.685C231.46 216.358 231.414 216.074 231.322 215.833C231.232 215.591 231.098 215.404 230.92 215.27C230.745 215.136 230.529 215.069 230.272 215.069C230.007 215.069 229.785 215.139 229.608 215.277C229.43 215.415 229.296 215.606 229.206 215.849C229.116 216.093 229.071 216.371 229.071 216.685C229.071 217.001 229.116 217.283 229.206 217.531C229.298 217.776 229.433 217.97 229.611 218.113C229.791 218.253 230.011 218.324 230.272 218.324ZM236.252 212.473H237.745L239.746 217.356H239.825L241.825 212.473H243.319V219.212H242.148V214.582H242.085L240.223 219.192H239.348L237.485 214.573H237.423V219.212H236.252V212.473ZM246.833 219.311C246.326 219.311 245.889 219.205 245.52 218.995C245.154 218.782 244.872 218.481 244.675 218.093C244.477 217.703 244.379 217.243 244.379 216.715C244.379 216.195 244.477 215.738 244.675 215.346C244.874 214.951 245.153 214.644 245.51 214.425C245.868 214.203 246.288 214.092 246.771 214.092C247.082 214.092 247.376 214.143 247.652 214.244C247.931 214.342 248.177 214.496 248.389 214.704C248.604 214.913 248.773 215.178 248.896 215.5C249.019 215.821 249.08 216.202 249.08 216.645V217.011H244.938V216.208H247.939C247.936 215.98 247.887 215.777 247.791 215.599C247.694 215.419 247.559 215.278 247.386 215.175C247.215 215.072 247.015 215.02 246.787 215.02C246.544 215.02 246.33 215.079 246.145 215.198C245.961 215.314 245.818 215.468 245.714 215.658C245.614 215.847 245.562 216.054 245.56 216.28V216.981C245.56 217.275 245.614 217.527 245.721 217.738C245.828 217.946 245.979 218.106 246.172 218.218C246.365 218.328 246.591 218.383 246.85 218.383C247.023 218.383 247.18 218.359 247.32 218.31C247.46 218.26 247.582 218.186 247.685 218.09C247.788 217.993 247.866 217.874 247.919 217.731L249.031 217.856C248.961 218.15 248.827 218.407 248.63 218.626C248.434 218.843 248.184 219.012 247.879 219.133C247.575 219.251 247.226 219.311 246.833 219.311ZM254.082 215.494L252.997 215.612C252.966 215.503 252.912 215.4 252.835 215.303C252.761 215.207 252.66 215.129 252.533 215.069C252.406 215.01 252.25 214.981 252.066 214.981C251.818 214.981 251.609 215.034 251.44 215.142C251.274 215.249 251.191 215.389 251.194 215.56C251.191 215.707 251.245 215.826 251.355 215.918C251.467 216.01 251.651 216.086 251.908 216.145L252.77 216.33C253.248 216.433 253.603 216.596 253.836 216.82C254.07 217.044 254.189 217.336 254.191 217.698C254.189 218.016 254.096 218.297 253.911 218.541C253.729 218.782 253.476 218.971 253.151 219.107C252.827 219.243 252.454 219.311 252.033 219.311C251.414 219.311 250.916 219.181 250.539 218.922C250.162 218.661 249.937 218.298 249.864 217.833L251.026 217.721C251.078 217.95 251.19 218.122 251.361 218.238C251.532 218.354 251.755 218.412 252.029 218.412C252.312 218.412 252.539 218.354 252.71 218.238C252.884 218.122 252.97 217.978 252.97 217.807C252.97 217.662 252.914 217.543 252.803 217.448C252.693 217.354 252.522 217.282 252.289 217.231L251.427 217.05C250.942 216.949 250.584 216.779 250.351 216.54C250.119 216.299 250.004 215.994 250.006 215.625C250.004 215.314 250.088 215.044 250.259 214.816C250.432 214.586 250.673 214.408 250.98 214.283C251.289 214.156 251.645 214.092 252.049 214.092C252.641 214.092 253.107 214.218 253.447 214.471C253.79 214.723 254.001 215.064 254.082 215.494ZM259.168 215.494L258.082 215.612C258.051 215.503 257.997 215.4 257.921 215.303C257.846 215.207 257.745 215.129 257.618 215.069C257.491 215.01 257.335 214.981 257.151 214.981C256.903 214.981 256.694 215.034 256.526 215.142C256.359 215.249 256.277 215.389 256.279 215.56C256.277 215.707 256.33 215.826 256.44 215.918C256.552 216.01 256.736 216.086 256.993 216.145L257.855 216.33C258.333 216.433 258.688 216.596 258.921 216.82C259.156 217.044 259.274 217.336 259.276 217.698C259.274 218.016 259.181 218.297 258.997 218.541C258.814 218.782 258.561 218.971 258.236 219.107C257.912 219.243 257.539 219.311 257.118 219.311C256.499 219.311 256.001 219.181 255.624 218.922C255.247 218.661 255.022 218.298 254.949 217.833L256.111 217.721C256.164 217.95 256.275 218.122 256.447 218.238C256.618 218.354 256.84 218.412 257.114 218.412C257.397 218.412 257.624 218.354 257.796 218.238C257.969 218.122 258.055 217.978 258.055 217.807C258.055 217.662 258 217.543 257.888 217.448C257.778 217.354 257.607 217.282 257.374 217.231L256.512 217.05C256.028 216.949 255.669 216.779 255.436 216.54C255.204 216.299 255.089 215.994 255.091 215.625C255.089 215.314 255.173 215.044 255.344 214.816C255.518 214.586 255.758 214.408 256.065 214.283C256.374 214.156 256.731 214.092 257.134 214.092C257.726 214.092 258.193 214.218 258.533 214.471C258.875 214.723 259.086 215.064 259.168 215.494ZM261.713 219.314C261.392 219.314 261.104 219.257 260.847 219.143C260.593 219.027 260.391 218.855 260.242 218.63C260.095 218.404 260.021 218.125 260.021 217.794C260.021 217.509 260.074 217.273 260.179 217.086C260.285 216.9 260.428 216.751 260.61 216.639C260.792 216.527 260.998 216.443 261.226 216.386C261.456 216.326 261.694 216.284 261.94 216.257C262.236 216.227 262.476 216.199 262.66 216.175C262.845 216.149 262.978 216.109 263.062 216.057C263.147 216.002 263.19 215.917 263.19 215.803V215.783C263.19 215.536 263.117 215.344 262.97 215.208C262.823 215.072 262.611 215.004 262.335 215.004C262.043 215.004 261.811 215.067 261.64 215.194C261.471 215.322 261.357 215.472 261.298 215.645L260.186 215.487C260.274 215.18 260.418 214.924 260.62 214.717C260.822 214.509 261.069 214.353 261.361 214.25C261.652 214.145 261.975 214.092 262.328 214.092C262.571 214.092 262.814 214.121 263.055 214.178C263.296 214.235 263.517 214.329 263.716 214.461C263.916 214.59 264.076 214.767 264.197 214.99C264.32 215.214 264.381 215.494 264.381 215.829V219.212H263.236V218.518H263.197C263.124 218.658 263.022 218.79 262.891 218.912C262.761 219.033 262.598 219.131 262.4 219.205C262.205 219.278 261.976 219.314 261.713 219.314ZM262.022 218.439C262.261 218.439 262.468 218.392 262.644 218.297C262.819 218.201 262.954 218.073 263.049 217.916C263.145 217.758 263.193 217.585 263.193 217.399V216.803C263.156 216.834 263.092 216.863 263.002 216.889C262.915 216.915 262.816 216.938 262.706 216.958C262.597 216.978 262.488 216.995 262.381 217.011C262.273 217.026 262.18 217.039 262.101 217.05C261.923 217.074 261.764 217.114 261.624 217.169C261.483 217.223 261.373 217.3 261.291 217.399C261.21 217.495 261.17 217.621 261.17 217.774C261.17 217.993 261.25 218.159 261.41 218.271C261.57 218.383 261.774 218.439 262.022 218.439ZM267.777 221.212C267.349 221.212 266.982 221.154 266.674 221.038C266.367 220.924 266.121 220.77 265.934 220.577C265.748 220.384 265.618 220.17 265.546 219.936L266.618 219.676C266.667 219.775 266.737 219.872 266.829 219.969C266.921 220.067 267.045 220.149 267.201 220.212C267.359 220.278 267.557 220.311 267.796 220.311C268.134 220.311 268.414 220.229 268.635 220.064C268.857 219.902 268.968 219.634 268.968 219.261V218.304H268.909C268.847 218.427 268.757 218.553 268.639 218.682C268.522 218.812 268.368 218.92 268.175 219.008C267.984 219.096 267.744 219.14 267.454 219.14C267.066 219.14 266.714 219.048 266.398 218.866C266.084 218.682 265.834 218.408 265.648 218.044C265.464 217.678 265.371 217.219 265.371 216.669C265.371 216.114 265.464 215.645 265.648 215.264C265.834 214.88 266.085 214.589 266.401 214.392C266.717 214.192 267.069 214.092 267.457 214.092C267.754 214.092 267.997 214.143 268.188 214.244C268.381 214.342 268.535 214.462 268.649 214.602C268.763 214.74 268.849 214.871 268.909 214.994H268.974V214.158H270.149V219.294C270.149 219.726 270.046 220.084 269.84 220.367C269.633 220.65 269.352 220.861 268.994 221.002C268.637 221.142 268.231 221.212 267.777 221.212ZM267.787 218.205C268.039 218.205 268.254 218.144 268.431 218.021C268.609 217.898 268.744 217.721 268.836 217.491C268.928 217.261 268.974 216.984 268.974 216.662C268.974 216.344 268.928 216.065 268.836 215.826C268.746 215.587 268.612 215.402 268.435 215.27C268.259 215.136 268.043 215.069 267.787 215.069C267.521 215.069 267.3 215.139 267.122 215.277C266.944 215.415 266.81 215.605 266.72 215.846C266.631 216.085 266.586 216.357 266.586 216.662C266.586 216.971 266.631 217.242 266.72 217.475C266.813 217.705 266.948 217.885 267.125 218.014C267.305 218.141 267.525 218.205 267.787 218.205ZM273.607 219.311C273.1 219.311 272.663 219.205 272.294 218.995C271.928 218.782 271.646 218.481 271.449 218.093C271.251 217.703 271.152 217.243 271.152 216.715C271.152 216.195 271.251 215.738 271.449 215.346C271.648 214.951 271.927 214.644 272.284 214.425C272.642 214.203 273.062 214.092 273.545 214.092C273.856 214.092 274.15 214.143 274.426 214.244C274.705 214.342 274.951 214.496 275.163 214.704C275.378 214.913 275.547 215.178 275.67 215.5C275.793 215.821 275.854 216.202 275.854 216.645V217.011H271.712V216.208H274.713C274.71 215.98 274.661 215.777 274.565 215.599C274.468 215.419 274.333 215.278 274.16 215.175C273.989 215.072 273.789 215.02 273.561 215.02C273.318 215.02 273.104 215.079 272.919 215.198C272.735 215.314 272.591 215.468 272.488 215.658C272.387 215.847 272.336 216.054 272.334 216.28V216.981C272.334 217.275 272.387 217.527 272.495 217.738C272.602 217.946 272.753 218.106 272.946 218.218C273.139 218.328 273.365 218.383 273.624 218.383C273.797 218.383 273.954 218.359 274.094 218.31C274.234 218.26 274.356 218.186 274.459 218.09C274.562 217.993 274.64 217.874 274.693 217.731L275.805 217.856C275.735 218.15 275.601 218.407 275.404 218.626C275.208 218.843 274.958 219.012 274.653 219.133C274.348 219.251 274 219.311 273.607 219.311Z" fill="white"/>
<path fill-rule="evenodd" clip-rule="evenodd" d="M329.084 216.246L324.842 220.488L323.781 219.428L327.494 215.715L323.781 212.003L324.842 210.942L329.084 215.185C329.225 215.326 329.304 215.517 329.304 215.715C329.304 215.914 329.225 216.105 329.084 216.246Z" fill="white"/>
</g>
<g filter="url(#filter2_d_5023_51509)">
<rect x="30" y="181.712" width="103.738" height="35.7402" rx="12.354" fill="white" shape-rendering="crispEdges"/>
<rect x="30.5147" y="182.227" width="102.709" height="34.7107" rx="11.8392" stroke="#B1B1B1" stroke-width="1.0295" shape-rendering="crispEdges"/>
<path d="M37.9022 199.51C37.9018 200.904 38.266 202.265 38.9585 203.464L37.8359 207.563L42.0305 206.463C43.1906 207.095 44.4905 207.426 45.8114 207.426H45.8149C50.1755 207.426 53.7252 203.878 53.7271 199.516C53.7279 197.403 52.9056 195.415 51.4116 193.92C49.9179 192.425 47.9313 191.602 45.8146 191.601C41.4534 191.601 37.904 195.149 37.9022 199.51" fill="url(#paint3_linear_5023_51509)"/>
<path d="M37.6157 199.508C37.6152 200.952 37.9925 202.361 38.7097 203.604L37.5469 207.849L41.8918 206.71C43.089 207.363 44.4369 207.707 45.8084 207.708H45.812C50.3291 207.708 54.0062 204.032 54.0082 199.514C54.0089 197.325 53.1571 195.266 51.6097 193.717C50.0621 192.169 48.0045 191.315 45.812 191.314C41.2941 191.314 37.6175 194.99 37.6157 199.508ZM40.2033 203.39L40.041 203.132C39.359 202.048 38.9991 200.795 38.9996 199.508C39.001 195.753 42.0569 192.698 45.8146 192.698C47.6343 192.699 49.3445 193.408 50.6308 194.695C51.917 195.983 52.6248 197.694 52.6243 199.514C52.6227 203.268 49.5667 206.324 45.812 206.324H45.8093C44.5867 206.323 43.3877 205.995 42.342 205.374L42.0931 205.227L39.5148 205.903L40.2033 203.39Z" fill="url(#paint4_linear_5023_51509)"/>
<path d="M43.7646 196.081C43.6112 195.74 43.4497 195.733 43.3038 195.727C43.1844 195.722 43.0478 195.723 42.9113 195.723C42.7747 195.723 42.5528 195.774 42.3653 195.979C42.1775 196.184 41.6484 196.679 41.6484 197.687C41.6484 198.694 42.3823 199.668 42.4846 199.805C42.5871 199.941 43.9014 202.075 45.983 202.896C47.7129 203.578 48.065 203.443 48.4405 203.408C48.816 203.374 49.6522 202.913 49.8228 202.435C49.9935 201.957 49.9935 201.547 49.9423 201.461C49.8911 201.376 49.7545 201.325 49.5497 201.222C49.3449 201.12 48.338 200.624 48.1503 200.556C47.9626 200.488 47.8261 200.454 47.6895 200.659C47.5529 200.863 47.1607 201.325 47.0412 201.461C46.9218 201.598 46.8022 201.615 46.5975 201.513C46.3926 201.41 45.733 201.194 44.9505 200.496C44.3417 199.954 43.9307 199.283 43.8112 199.078C43.6918 198.873 43.7984 198.762 43.9011 198.66C43.9931 198.569 44.106 198.421 44.2085 198.302C44.3106 198.182 44.3447 198.097 44.413 197.96C44.4813 197.823 44.4471 197.704 44.396 197.601C44.3447 197.499 43.9467 196.486 43.7646 196.081Z" fill="white"/>
<path d="M64.5142 198.196C64.4835 197.909 64.3541 197.685 64.126 197.525C63.9 197.365 63.6061 197.285 63.2442 197.285C62.9897 197.285 62.7715 197.323 62.5894 197.4C62.4074 197.476 62.2681 197.581 62.1715 197.712C62.075 197.844 62.0257 197.994 62.0235 198.163C62.0235 198.303 62.0553 198.425 62.1189 198.528C62.1847 198.631 62.2735 198.719 62.3854 198.791C62.4973 198.862 62.6212 198.921 62.7572 198.969C62.8932 199.017 63.0303 199.058 63.1685 199.091L63.8002 199.249C64.0547 199.308 64.2993 199.388 64.534 199.489C64.7709 199.59 64.9826 199.717 65.169 199.871C65.3576 200.024 65.5068 200.21 65.6165 200.427C65.7262 200.644 65.781 200.898 65.781 201.19C65.781 201.585 65.6801 201.933 65.4783 202.233C65.2765 202.531 64.9847 202.765 64.6031 202.934C64.2236 203.101 63.764 203.184 63.2244 203.184C62.7002 203.184 62.245 203.103 61.859 202.941C61.4751 202.778 61.1746 202.541 60.9574 202.23C60.7425 201.918 60.6262 201.539 60.6087 201.091H61.8096C61.8272 201.326 61.8995 201.521 62.0268 201.677C62.154 201.833 62.3196 201.949 62.5236 202.026C62.7298 202.103 62.9601 202.141 63.2146 202.141C63.48 202.141 63.7125 202.102 63.9121 202.023C64.1139 201.941 64.2719 201.83 64.3859 201.687C64.5 201.542 64.5581 201.373 64.5603 201.18C64.5581 201.005 64.5066 200.86 64.4057 200.746C64.3048 200.63 64.1633 200.533 63.9812 200.456C63.8013 200.377 63.5908 200.307 63.3495 200.246L62.5828 200.048C62.0279 199.906 61.5892 199.69 61.2667 199.4C60.9465 199.108 60.7863 198.721 60.7863 198.239C60.7863 197.842 60.8938 197.494 61.1088 197.196C61.3259 196.897 61.621 196.666 61.9939 196.501C62.3668 196.335 62.789 196.251 63.2606 196.251C63.7388 196.251 64.1578 196.335 64.5175 196.501C64.8795 196.666 65.1635 196.895 65.3697 197.189C65.5759 197.481 65.6823 197.816 65.6889 198.196H64.5142ZM69.054 203.181C68.5473 203.181 68.1097 203.075 67.7412 202.865C67.3749 202.652 67.093 202.352 66.8956 201.963C66.6982 201.573 66.5995 201.113 66.5995 200.585C66.5995 200.065 66.6982 199.609 66.8956 199.216C67.0952 198.821 67.3738 198.514 67.7313 198.295C68.0889 198.073 68.5089 197.962 68.9915 197.962C69.303 197.962 69.5969 198.013 69.8733 198.114C70.1519 198.212 70.3976 198.366 70.6103 198.574C70.8253 198.783 70.9942 199.048 71.117 199.371C71.2399 199.691 71.3013 200.073 71.3013 200.516V200.881H67.1588V200.078H70.1596C70.1574 199.85 70.108 199.647 70.0115 199.469C69.915 199.289 69.7801 199.148 69.6068 199.045C69.4357 198.942 69.2361 198.89 69.008 198.89C68.7645 198.89 68.5506 198.949 68.3663 199.068C68.1821 199.184 68.0384 199.338 67.9353 199.529C67.8344 199.717 67.7829 199.924 67.7807 200.15V200.851C67.7807 201.145 67.8344 201.397 67.9419 201.608C68.0494 201.816 68.1996 201.976 68.3927 202.088C68.5857 202.198 68.8116 202.253 69.0705 202.253C69.2438 202.253 69.4006 202.229 69.541 202.18C69.6814 202.13 69.8031 202.057 69.9062 201.96C70.0093 201.864 70.0872 201.744 70.1398 201.601L71.2519 201.726C71.1817 202.02 71.0479 202.277 70.8505 202.496C70.6553 202.714 70.4052 202.882 70.1003 203.003C69.7954 203.122 69.4467 203.181 69.054 203.181ZM73.5 200.121V203.082H72.3089V198.028H73.4474V198.887H73.5066C73.6229 198.604 73.8082 198.379 74.0627 198.212C74.3193 198.046 74.6363 197.962 75.0136 197.962C75.3623 197.962 75.6661 198.037 75.925 198.186C76.186 198.335 76.3878 198.551 76.5304 198.834C76.6752 199.117 76.7465 199.461 76.7443 199.864V203.082H75.5532V200.048C75.5532 199.711 75.4654 199.446 75.2899 199.255C75.1167 199.065 74.8765 198.969 74.5694 198.969C74.361 198.969 74.1756 199.015 74.0133 199.107C73.8532 199.197 73.7271 199.328 73.6349 199.499C73.545 199.67 73.5 199.877 73.5 200.121ZM79.8306 203.171C79.4335 203.171 79.0782 203.069 78.7645 202.865C78.4508 202.661 78.203 202.365 78.0209 201.976C77.8388 201.588 77.7478 201.117 77.7478 200.562C77.7478 200 77.8399 199.526 78.0242 199.14C78.2106 198.752 78.4618 198.459 78.7777 198.262C79.0935 198.062 79.4456 197.962 79.8338 197.962C80.13 197.962 80.3735 198.013 80.5643 198.114C80.7551 198.212 80.9065 198.332 81.0183 198.472C81.1302 198.611 81.2169 198.741 81.2783 198.864H81.3276V196.344H82.522V203.082H81.3507V202.286H81.2783C81.2169 202.409 81.128 202.539 81.0118 202.677C80.8955 202.813 80.742 202.93 80.5511 203.026C80.3603 203.123 80.1201 203.171 79.8306 203.171ZM80.1629 202.194C80.4151 202.194 80.6301 202.126 80.8078 201.99C80.9854 201.851 81.1203 201.66 81.2125 201.414C81.3046 201.168 81.3507 200.882 81.3507 200.555C81.3507 200.228 81.3046 199.944 81.2125 199.703C81.1225 199.462 80.9887 199.274 80.8111 199.14C80.6356 199.006 80.4195 198.94 80.1629 198.94C79.8975 198.94 79.6759 199.009 79.4982 199.147C79.3206 199.285 79.1868 199.476 79.0968 199.719C79.0069 199.963 78.9619 200.241 78.9619 200.555C78.9619 200.871 79.0069 201.153 79.0968 201.401C79.1889 201.646 79.3238 201.84 79.5015 201.983C79.6814 202.123 79.9018 202.194 80.1629 202.194ZM86.1422 196.344H87.636L89.6364 201.226H89.7154L91.7159 196.344H93.2097V203.082H92.0384V198.453H91.9758L90.1135 203.062H89.2383L87.376 198.443H87.3135V203.082H86.1422V196.344ZM96.7237 203.181C96.217 203.181 95.7794 203.075 95.4109 202.865C95.0446 202.652 94.7627 202.352 94.5653 201.963C94.3679 201.573 94.2692 201.113 94.2692 200.585C94.2692 200.065 94.3679 199.609 94.5653 199.216C94.7649 198.821 95.0435 198.514 95.401 198.295C95.7586 198.073 96.1786 197.962 96.6612 197.962C96.9727 197.962 97.2666 198.013 97.543 198.114C97.8216 198.212 98.0673 198.366 98.2801 198.574C98.495 198.783 98.6639 199.048 98.7868 199.371C98.9096 199.691 98.971 200.073 98.971 200.516V200.881H94.8285V200.078H97.8293C97.8271 199.85 97.7777 199.647 97.6812 199.469C97.5847 199.289 97.4498 199.148 97.2765 199.045C97.1054 198.942 96.9058 198.89 96.6777 198.89C96.4342 198.89 96.2203 198.949 96.0361 199.068C95.8518 199.184 95.7081 199.338 95.605 199.529C95.5041 199.717 95.4526 199.924 95.4504 200.15V200.851C95.4504 201.145 95.5041 201.397 95.6116 201.608C95.7191 201.816 95.8694 201.976 96.0624 202.088C96.2554 202.198 96.4814 202.253 96.7402 202.253C96.9135 202.253 97.0703 202.229 97.2107 202.18C97.3511 202.13 97.4728 202.057 97.5759 201.96C97.679 201.864 97.7569 201.744 97.8095 201.601L98.9217 201.726C98.8515 202.02 98.7177 202.277 98.5202 202.496C98.325 202.714 98.075 202.882 97.7701 203.003C97.4652 203.122 97.1164 203.181 96.7237 203.181ZM103.973 199.364L102.887 199.482C102.857 199.373 102.803 199.27 102.726 199.173C102.651 199.077 102.551 198.999 102.423 198.94C102.296 198.88 102.14 198.851 101.956 198.851C101.708 198.851 101.5 198.904 101.331 199.012C101.164 199.119 101.082 199.259 101.084 199.43C101.082 199.577 101.136 199.696 101.245 199.788C101.357 199.881 101.542 199.956 101.798 200.015L102.66 200.2C103.138 200.303 103.494 200.466 103.726 200.69C103.961 200.914 104.079 201.207 104.082 201.568C104.079 201.887 103.986 202.167 103.802 202.411C103.62 202.652 103.367 202.841 103.042 202.977C102.717 203.113 102.344 203.181 101.923 203.181C101.305 203.181 100.807 203.051 100.429 202.792C100.052 202.531 99.8273 202.168 99.7549 201.703L100.916 201.592C100.969 201.82 101.081 201.992 101.252 202.108C101.423 202.224 101.646 202.282 101.92 202.282C102.203 202.282 102.43 202.224 102.601 202.108C102.774 201.992 102.861 201.848 102.861 201.677C102.861 201.532 102.805 201.413 102.693 201.318C102.583 201.224 102.412 201.152 102.18 201.101L101.318 200.92C100.833 200.819 100.474 200.649 100.242 200.41C100.009 200.169 99.8942 199.864 99.8964 199.496C99.8942 199.184 99.9787 198.914 100.15 198.686C100.323 198.456 100.563 198.278 100.87 198.153C101.18 198.026 101.536 197.962 101.94 197.962C102.532 197.962 102.998 198.088 103.338 198.341C103.68 198.593 103.892 198.934 103.973 199.364ZM109.058 199.364L107.972 199.482C107.942 199.373 107.888 199.27 107.811 199.173C107.737 199.077 107.636 198.999 107.509 198.94C107.381 198.88 107.226 198.851 107.041 198.851C106.793 198.851 106.585 198.904 106.416 199.012C106.249 199.119 106.167 199.259 106.169 199.43C106.167 199.577 106.221 199.696 106.331 199.788C106.442 199.881 106.627 199.956 106.883 200.015L107.745 200.2C108.224 200.303 108.579 200.466 108.811 200.69C109.046 200.914 109.165 201.207 109.167 201.568C109.165 201.887 109.071 202.167 108.887 202.411C108.705 202.652 108.452 202.841 108.127 202.977C107.802 203.113 107.43 203.181 107.008 203.181C106.39 203.181 105.892 203.051 105.515 202.792C105.137 202.531 104.912 202.168 104.84 201.703L106.002 201.592C106.054 201.82 106.166 201.992 106.337 202.108C106.508 202.224 106.731 202.282 107.005 202.282C107.288 202.282 107.515 202.224 107.686 202.108C107.859 201.992 107.946 201.848 107.946 201.677C107.946 201.532 107.89 201.413 107.778 201.318C107.669 201.224 107.498 201.152 107.265 201.101L106.403 200.92C105.918 200.819 105.56 200.649 105.327 200.41C105.095 200.169 104.979 199.864 104.982 199.496C104.979 199.184 105.064 198.914 105.235 198.686C105.408 198.456 105.648 198.278 105.955 198.153C106.265 198.026 106.621 197.962 107.025 197.962C107.617 197.962 108.083 198.088 108.423 198.341C108.765 198.593 108.977 198.934 109.058 199.364ZM111.603 203.184C111.283 203.184 110.995 203.127 110.738 203.013C110.483 202.897 110.282 202.726 110.133 202.5C109.986 202.274 109.912 201.995 109.912 201.664C109.912 201.379 109.965 201.143 110.07 200.957C110.175 200.77 110.319 200.621 110.501 200.509C110.683 200.397 110.888 200.313 111.116 200.256C111.347 200.196 111.585 200.154 111.83 200.127C112.126 200.097 112.367 200.069 112.551 200.045C112.735 200.019 112.869 199.979 112.952 199.927C113.038 199.872 113.081 199.787 113.081 199.673V199.654C113.081 199.406 113.007 199.214 112.86 199.078C112.713 198.942 112.502 198.874 112.225 198.874C111.933 198.874 111.702 198.937 111.531 199.065C111.362 199.192 111.248 199.342 111.189 199.515L110.077 199.357C110.164 199.05 110.309 198.794 110.511 198.587C110.713 198.379 110.959 198.223 111.251 198.12C111.543 198.015 111.865 197.962 112.219 197.962C112.462 197.962 112.704 197.991 112.946 198.048C113.187 198.105 113.407 198.199 113.607 198.331C113.807 198.46 113.967 198.637 114.087 198.861C114.21 199.084 114.272 199.364 114.272 199.7V203.082H113.127V202.388H113.087C113.015 202.528 112.913 202.66 112.781 202.783C112.652 202.903 112.488 203.001 112.291 203.075C112.096 203.148 111.866 203.184 111.603 203.184ZM111.913 202.309C112.152 202.309 112.359 202.262 112.534 202.167C112.71 202.071 112.845 201.944 112.939 201.786C113.036 201.628 113.084 201.456 113.084 201.269V200.674C113.047 200.704 112.983 200.733 112.893 200.759C112.805 200.785 112.707 200.808 112.597 200.828C112.487 200.848 112.379 200.865 112.271 200.881C112.164 200.896 112.07 200.909 111.992 200.92C111.814 200.944 111.655 200.984 111.514 201.039C111.374 201.094 111.263 201.17 111.182 201.269C111.101 201.366 111.06 201.491 111.06 201.644C111.06 201.864 111.14 202.029 111.301 202.141C111.461 202.253 111.665 202.309 111.913 202.309ZM117.667 205.083C117.24 205.083 116.872 205.024 116.565 204.908C116.258 204.794 116.011 204.641 115.825 204.448C115.638 204.254 115.509 204.041 115.436 203.806L116.509 203.546C116.557 203.645 116.628 203.742 116.72 203.839C116.812 203.938 116.936 204.019 117.091 204.082C117.249 204.148 117.448 204.181 117.687 204.181C118.025 204.181 118.305 204.099 118.526 203.934C118.748 203.772 118.858 203.504 118.858 203.131V202.174H118.799C118.738 202.297 118.648 202.423 118.529 202.552C118.413 202.682 118.258 202.79 118.065 202.878C117.875 202.966 117.634 203.01 117.345 203.01C116.957 203.01 116.605 202.919 116.289 202.737C115.975 202.552 115.725 202.278 115.538 201.914C115.354 201.548 115.262 201.089 115.262 200.539C115.262 199.984 115.354 199.515 115.538 199.134C115.725 198.75 115.976 198.459 116.292 198.262C116.608 198.062 116.96 197.962 117.348 197.962C117.644 197.962 117.888 198.013 118.079 198.114C118.272 198.212 118.425 198.332 118.539 198.472C118.653 198.611 118.74 198.741 118.799 198.864H118.865V198.028H120.04V203.164C120.04 203.596 119.936 203.954 119.73 204.237C119.524 204.52 119.242 204.732 118.885 204.872C118.527 205.012 118.121 205.083 117.667 205.083ZM117.677 202.075C117.929 202.075 118.144 202.014 118.322 201.891C118.5 201.768 118.635 201.592 118.727 201.361C118.819 201.131 118.865 200.855 118.865 200.532C118.865 200.214 118.819 199.935 118.727 199.696C118.637 199.457 118.503 199.272 118.325 199.14C118.15 199.006 117.934 198.94 117.677 198.94C117.412 198.94 117.19 199.009 117.013 199.147C116.835 199.285 116.701 199.475 116.611 199.716C116.521 199.955 116.476 200.227 116.476 200.532C116.476 200.841 116.521 201.112 116.611 201.345C116.703 201.575 116.838 201.755 117.016 201.884C117.196 202.012 117.416 202.075 117.677 202.075ZM123.498 203.181C122.991 203.181 122.553 203.075 122.185 202.865C121.819 202.652 121.537 202.352 121.339 201.963C121.142 201.573 121.043 201.113 121.043 200.585C121.043 200.065 121.142 199.609 121.339 199.216C121.539 198.821 121.817 198.514 122.175 198.295C122.533 198.073 122.953 197.962 123.435 197.962C123.747 197.962 124.041 198.013 124.317 198.114C124.596 198.212 124.841 198.366 125.054 198.574C125.269 198.783 125.438 199.048 125.561 199.371C125.684 199.691 125.745 200.073 125.745 200.516V200.881H121.602V200.078H124.603C124.601 199.85 124.552 199.647 124.455 199.469C124.359 199.289 124.224 199.148 124.05 199.045C123.879 198.942 123.68 198.89 123.452 198.89C123.208 198.89 122.994 198.949 122.81 199.068C122.626 199.184 122.482 199.338 122.379 199.529C122.278 199.717 122.227 199.924 122.224 200.15V200.851C122.224 201.145 122.278 201.397 122.386 201.608C122.493 201.816 122.643 201.976 122.836 202.088C123.029 202.198 123.255 202.253 123.514 202.253C123.687 202.253 123.844 202.229 123.985 202.18C124.125 202.13 124.247 202.057 124.35 201.96C124.453 201.864 124.531 201.744 124.583 201.601L125.696 201.726C125.625 202.02 125.492 202.277 125.294 202.496C125.099 202.714 124.849 202.882 124.544 203.003C124.239 203.122 123.89 203.181 123.498 203.181Z" fill="#6F6F6F"/>
</g>
<defs>
<filter id="filter0_di_5023_51509" x="143.383" y="87.5107" width="88.2891" height="88.6475" filterUnits="userSpaceOnUse" color-interpolation-filters="sRGB">
<feFlood flood-opacity="0" result="BackgroundImageFix"/>
<feColorMatrix in="SourceAlpha" type="matrix" values="0 0 0 0 0 0 0 0 0 0 0 0 0 0 0 0 0 0 127 0" result="hardAlpha"/>
<feOffset dy="4"/>
<feGaussianBlur stdDeviation="2"/>
<feComposite in2="hardAlpha" operator="out"/>
<feColorMatrix type="matrix" values="0 0 0 0 0 0 0 0 0 0 0 0 0 0 0 0 0 0 0.25 0"/>
<feBlend mode="normal" in2="BackgroundImageFix" result="effect1_dropShadow_5023_51509"/>
<feBlend mode="normal" in="SourceGraphic" in2="effect1_dropShadow_5023_51509" result="shape"/>
<feColorMatrix in="SourceAlpha" type="matrix" values="0 0 0 0 0 0 0 0 0 0 0 0 0 0 0 0 0 0 127 0" result="hardAlpha"/>
<feOffset dx="2" dy="2"/>
<feGaussianBlur stdDeviation="11"/>
<feComposite in2="hardAlpha" operator="arithmetic" k2="-1" k3="1"/>
<feColorMatrix type="matrix" values="0 0 0 0 0.0392157 0 0 0 0 0.803922 0 0 0 0 0.584314 0 0 0 0.62 0"/>
<feBlend mode="normal" in2="shape" result="effect2_innerShadow_5023_51509"/>
</filter>
<filter id="filter1_d_5023_51509" x="195.882" y="197.712" width="149.236" height="44.236" filterUnits="userSpaceOnUse" color-interpolation-filters="sRGB">
<feFlood flood-opacity="0" result="BackgroundImageFix"/>
<feColorMatrix in="SourceAlpha" type="matrix" values="0 0 0 0 0 0 0 0 0 0 0 0 0 0 0 0 0 0 127 0" result="hardAlpha"/>
<feOffset dy="4.11798"/>
<feGaussianBlur stdDeviation="2.05899"/>
<feComposite in2="hardAlpha" operator="out"/>
<feColorMatrix type="matrix" values="0 0 0 0 0 0 0 0 0 0 0 0 0 0 0 0 0 0 0.25 0"/>
<feBlend mode="normal" in2="BackgroundImageFix" result="effect1_dropShadow_5023_51509"/>
<feBlend mode="normal" in="SourceGraphic" in2="effect1_dropShadow_5023_51509" result="shape"/>
</filter>
<filter id="filter2_d_5023_51509" x="25.882" y="181.712" width="111.97" height="43.9762" filterUnits="userSpaceOnUse" color-interpolation-filters="sRGB">
<feFlood flood-opacity="0" result="BackgroundImageFix"/>
<feColorMatrix in="SourceAlpha" type="matrix" values="0 0 0 0 0 0 0 0 0 0 0 0 0 0 0 0 0 0 127 0" result="hardAlpha"/>
<feOffset dy="4.11798"/>
<feGaussianBlur stdDeviation="2.05899"/>
<feComposite in2="hardAlpha" operator="out"/>
<feColorMatrix type="matrix" values="0 0 0 0 0 0 0 0 0 0 0 0 0 0 0 0 0 0 0.25 0"/>
<feBlend mode="normal" in2="BackgroundImageFix" result="effect1_dropShadow_5023_51509"/>
<feBlend mode="normal" in="SourceGraphic" in2="effect1_dropShadow_5023_51509" result="shape"/>
</filter>
<linearGradient id="paint0_linear_5023_51509" x1="216.574" y1="-5.38061e-08" x2="216.574" y2="285.836" gradientUnits="userSpaceOnUse">
<stop stop-color="#0ACD95"/>
<stop offset="1" stop-color="#070E27"/>
</linearGradient>
<radialGradient id="paint1_radial_5023_51509" cx="0" cy="0" r="1" gradientUnits="userSpaceOnUse" gradientTransform="translate(318.551 117.182) rotate(109.113) scale(65.6677 52.5133)">
<stop offset="0.04" stop-color="#FFC752"/>
<stop offset="0.33383" stop-color="#FA5147"/>
<stop offset="0.560234" stop-color="#C837AB"/>
<stop offset="0.837017" stop-color="#4664C9"/>
<stop offset="1" stop-color="#0E2B8D"/>
</radialGradient>
<radialGradient id="paint2_radial_5023_51509" cx="0" cy="0" r="1" gradientUnits="userSpaceOnUse" gradientTransform="translate(91.1113 89.7119) rotate(103.353) scale(69.2813 55.4031)">
<stop offset="0.209049" stop-color="#0FD9EF"/>
<stop offset="0.74" stop-color="#0F4EEF"/>
<stop offset="0.97" stop-color="#0B35A2"/>
</radialGradient>
<linearGradient id="paint3_linear_5023_51509" x1="832.392" y1="1787.86" x2="832.392" y2="191.601" gradientUnits="userSpaceOnUse">
<stop stop-color="#1FAF38"/>
<stop offset="1" stop-color="#60D669"/>
</linearGradient>
<linearGradient id="paint4_linear_5023_51509" x1="860.611" y1="1844.82" x2="860.611" y2="191.314" gradientUnits="userSpaceOnUse">
<stop stop-color="#F9F9F9"/>
<stop offset="1" stop-color="white"/>
</linearGradient>
</defs>
</svg>
