<svg width="66" height="65" viewBox="0 0 66 65" fill="none" xmlns="http://www.w3.org/2000/svg">
<rect x="1" y="0.5" width="64" height="64" rx="26.5" stroke="#908EB5"/>
<path d="M32.3513 51.002C31.5548 50.7848 30.8596 50.4082 30.3479 49.7372C28.8949 47.84 29.7783 45.1946 32.1051 44.5091C32.3996 44.4222 32.4768 44.2919 32.472 44.0071C32.4575 43.0802 32.4624 42.1582 32.472 41.2313C32.472 40.7968 32.641 40.5941 32.9789 40.5844C33.3361 40.5796 33.534 40.8017 33.534 41.2265C33.534 42.1775 33.5389 43.1237 33.534 44.0747C33.534 44.2967 33.5871 44.4174 33.8237 44.4946C35.465 45.016 36.3629 46.1891 36.3484 47.7676C36.3388 49.2641 35.3733 50.4613 33.7851 50.9537C33.7416 50.9682 33.6982 50.9875 33.6499 51.0068H32.3513V51.002Z" fill="#908EB5"/>
<path d="M27.0577 32.5273C27.0577 31.5425 27.0674 30.5529 27.0529 29.5681C27.048 29.2254 27.1784 29.0081 27.4729 28.844C29.1769 27.8737 30.8762 26.8986 32.5754 25.9186C32.8651 25.7496 33.1354 25.7448 33.4251 25.9138C35.1195 26.8937 36.8187 27.8737 38.518 28.8488C38.8221 29.0226 38.9573 29.2495 38.9525 29.6067C38.9428 31.557 38.9428 33.5025 38.9525 35.4528C38.9525 35.81 38.8125 36.032 38.5083 36.2058C36.8332 37.1568 35.1629 38.1078 33.5023 39.0733C33.1644 39.2664 32.8747 39.2857 32.5272 39.0878C30.8521 38.1175 29.1673 37.1617 27.4825 36.2107C27.1736 36.0369 27.048 35.81 27.0529 35.4528C27.0674 34.4776 27.0577 33.5025 27.0577 32.5322V32.5273ZM33.0099 29.2302C31.2672 29.2157 29.7466 30.717 29.7128 32.4887C29.679 34.2121 31.2045 35.7762 32.9568 35.8148C34.7043 35.8486 36.2829 34.2893 36.2974 32.508C36.3119 30.7895 34.7671 29.2447 33.0099 29.2302Z" fill="#908EB5"/>
<path d="M16.5137 25.3103C16.5137 23.0559 18.0005 21.5932 19.8832 21.598C21.7321 21.598 23.2045 23.0752 23.2093 24.9193C23.2093 25.2089 23.2045 25.5034 23.1079 25.7738C23.0162 26.0296 23.1031 26.1744 23.3252 26.2999C24.0445 26.7103 24.7589 27.1351 25.4734 27.5551C25.5892 27.6227 25.7051 27.6854 25.8113 27.7627C26.1058 27.9702 26.1782 28.2695 26.0092 28.5447C25.8499 28.7957 25.5506 28.873 25.2465 28.704C24.5658 28.3178 23.8948 27.9171 23.219 27.5213C22.9824 27.3813 22.7459 27.1641 22.4949 27.1399C22.2438 27.1158 22.1038 27.4489 21.8914 27.6034C20.8246 28.3757 19.6805 28.5447 18.4929 27.9799C17.2185 27.3765 16.5571 26.3337 16.5137 25.3103Z" fill="#908EB5"/>
<path d="M16.5048 40.0246C16.5628 38.644 17.2579 37.582 18.5951 37.0172C19.8889 36.4668 21.1005 36.7179 22.1384 37.664C22.4039 37.9054 22.5826 37.9247 22.877 37.7413C23.6398 37.2633 24.4266 36.8192 25.2038 36.3654C25.5514 36.1675 25.8604 36.2303 26.0197 36.5103C26.1838 36.7951 26.0873 37.0799 25.7493 37.302C25.6769 37.3502 25.6045 37.3889 25.5321 37.4323C24.7983 37.8668 24.0646 38.3061 23.3212 38.7212C23.0846 38.8564 23.0267 38.9819 23.0991 39.2619C23.5915 41.1205 22.4233 42.9838 20.5357 43.3942C18.6917 43.79 16.8621 42.5349 16.5434 40.6522C16.5145 40.4736 16.5193 40.295 16.5 40.0246H16.5048Z" fill="#908EB5"/>
<path d="M46.1605 21.598C48.0045 21.598 49.4817 23.0801 49.4817 24.9241C49.4817 26.7634 47.9659 28.284 46.1412 28.2937C45.2191 28.2985 44.4516 27.9509 43.8095 27.3234C43.5826 27.1013 43.4426 27.1254 43.2013 27.2703C42.424 27.7482 41.6275 28.1971 40.8406 28.6606C40.6041 28.8005 40.3676 28.8537 40.131 28.6895C39.7931 28.4578 39.8365 27.9799 40.2372 27.7385C41.0289 27.2558 41.8254 26.7827 42.6316 26.3337C42.8971 26.1841 42.9647 26.0393 42.8923 25.7303C42.3709 23.5821 43.9543 21.5932 46.1605 21.598Z" fill="#908EB5"/>
<path d="M46.1366 43.4563C43.9595 43.4467 42.3616 41.4288 42.8926 39.3144C42.9795 38.9668 42.8926 38.8268 42.6126 38.6724C41.8451 38.2427 41.0968 37.7889 40.3389 37.3448C40.1699 37.2483 40.0058 37.1469 39.9431 36.9441C39.8755 36.7172 39.9237 36.5097 40.112 36.36C40.3244 36.1862 40.5658 36.22 40.7879 36.3504C41.5796 36.809 42.3713 37.2627 43.1485 37.7407C43.4285 37.9145 43.6071 37.9145 43.8581 37.6731C44.9201 36.6593 46.4359 36.4614 47.6959 37.1372C48.9366 37.8034 49.6703 39.2179 49.4676 40.5357C49.2359 42.0274 48.169 43.1474 46.7159 43.4081C46.5277 43.4419 46.3346 43.4419 46.1415 43.4563H46.1366Z" fill="#908EB5"/>
<path d="M33.0158 14.0046C34.6813 14.0239 36.0957 15.2404 36.3323 16.8672C36.5688 18.4941 35.5551 20.0533 33.933 20.5023C33.6048 20.594 33.5275 20.734 33.5324 21.0478C33.5517 21.9843 33.542 22.9257 33.5324 23.8622C33.5324 24.3063 33.1703 24.5766 32.7938 24.427C32.5283 24.3208 32.4703 24.1036 32.4703 23.838C32.4703 22.887 32.4607 21.936 32.4752 20.985C32.4752 20.705 32.3834 20.5892 32.1131 20.512C30.5007 20.0533 29.5835 18.7403 29.6608 17.0507C29.7284 15.6314 30.8918 14.357 32.4076 14.0577C32.6055 14.0191 32.8131 14.0191 33.0158 13.9998V14.0046Z" fill="#908EB5"/>
<path d="M35.3352 32.5516C35.3256 33.8115 34.2346 34.8687 32.9553 34.8591C31.7147 34.8494 30.6623 33.7584 30.6719 32.4936C30.6768 31.2337 31.7678 30.1765 33.0519 30.1909C34.2973 30.2054 35.3497 31.2916 35.3401 32.5516H35.3352Z" fill="#908EB5"/>
</svg>
