<svg width="66" height="65" viewBox="0 0 66 65" fill="none" xmlns="http://www.w3.org/2000/svg">
<rect x="1" y="0.5" width="64" height="64" rx="26.5" stroke="#908EB5"/>
<path d="M29.9975 30.8207C30.2027 29.8501 30.3737 28.9137 30.6046 27.9987C30.7243 27.5198 30.626 27.2077 30.2754 26.8443C28.1418 24.6508 27.4491 22.0512 28.4283 19.148C29.4074 16.2277 31.5324 14.5216 34.5682 14.077C38.6985 13.4698 42.5339 16.527 42.9871 20.6958C43.4275 24.7406 40.5756 28.3921 36.5564 28.9436C35.325 29.1104 34.1278 28.9992 32.9691 28.5588C32.5714 28.4092 32.3021 28.4819 32.0241 28.794C31.4982 29.3883 30.9509 29.9613 30.4079 30.5385C30.3139 30.6411 30.2412 30.7822 30.0017 30.8164L29.9975 30.8207ZM32.5672 20.2041C32.1952 20.2041 31.9044 20.2041 31.6137 20.2041C31.3101 20.2041 31.1348 20.3666 31.1348 20.6659C31.1262 22.0127 31.1305 23.3638 31.1348 24.7107C31.1348 24.9972 31.2973 25.1511 31.5837 25.1511C32.2037 25.1511 32.8408 25.228 33.4437 25.1254C33.8584 25.057 34.2133 25.1254 34.5939 25.2067C35.9022 25.4803 37.2106 25.5616 38.519 25.2067C39.3228 24.9886 39.8744 24.3173 39.9171 23.4793C39.9471 22.9405 39.9471 22.3932 39.9171 21.8545C39.8829 21.1276 39.2886 20.5504 38.5574 20.4991C38.3736 20.4863 38.1855 20.4863 38.0016 20.4991C37.7365 20.5119 37.6082 20.405 37.6211 20.1271C37.6296 19.8748 37.6253 19.6226 37.6211 19.3746C37.604 18.5408 37.0994 17.8866 36.2956 17.6472C35.4789 17.4035 34.9701 17.7712 34.9487 18.6178C34.9402 18.9855 34.9787 19.3575 34.8889 19.7252C34.7863 20.1399 34.2304 20.5803 33.9183 20.4008C33.448 20.1314 32.9691 20.2468 32.5757 20.2084L32.5672 20.2041Z" fill="#908EB5"/>
<path d="M34.4655 50.4421C32.9861 50.4421 31.5025 50.4421 30.0231 50.4421C28.3384 50.4421 27.3465 49.2534 27.6415 47.6073C28.1289 44.9007 30.3181 42.9083 33.0717 42.6902C34.2603 42.5961 35.449 42.5662 36.6291 42.78C39.1988 43.246 41.2255 45.5036 41.405 48.0733C41.4948 49.3518 40.5157 50.4292 39.2287 50.4378C37.6424 50.4506 36.0561 50.4378 34.4655 50.4378V50.4421Z" fill="#908EB5"/>
<path d="M49.8575 29.3412C49.5411 29.0077 49.2162 28.6913 48.9211 28.345C48.6432 28.0243 48.3739 27.9645 47.9506 28.1013C45.8982 28.7469 44.0682 28.3279 42.499 26.8357C42.2895 26.639 42.2639 26.4893 42.4349 26.2328C43.9143 24.0223 44.2649 21.6278 43.5337 19.0795C43.4354 18.7417 43.5337 18.6092 43.8117 18.4638C47.1553 16.7193 51.1916 18.9598 51.4823 22.7224C51.6063 24.3387 51.0718 25.7154 49.9516 26.8571C49.6566 27.1606 49.554 27.4428 49.6651 27.8447C49.772 28.2253 49.8362 28.6186 49.9174 29.0077C49.9388 29.1061 49.9986 29.2087 49.8618 29.3412H49.8575ZM48.6561 23.1586C48.6561 22.902 48.5321 22.7524 48.2755 22.7395C48.0104 22.7267 47.7496 22.7267 47.4845 22.7267C47.2365 22.7267 47.1211 22.6241 47.1339 22.3675C47.1425 22.1025 47.1467 21.8374 47.1211 21.5765C47.0954 21.3243 46.9458 21.1575 46.6764 21.1661C46.4199 21.1703 46.3044 21.3371 46.2916 21.5808C46.2873 21.6749 46.283 21.7647 46.283 21.8587C46.283 22.8464 46.3087 22.7182 45.4407 22.731C45.3766 22.731 45.3082 22.731 45.244 22.7353C44.9832 22.7481 44.8079 22.8593 44.8079 23.1372C44.8079 23.4322 44.9918 23.5605 45.2654 23.569C45.4749 23.5776 45.6887 23.5819 45.8982 23.569C46.1719 23.5519 46.283 23.6802 46.283 23.941C46.283 24.1805 46.283 24.4156 46.2916 24.6551C46.2959 24.9116 46.4113 25.1083 46.6807 25.1168C46.9629 25.1254 47.1082 24.9244 47.1296 24.6593C47.151 24.4113 47.1467 24.1591 47.1382 23.9068C47.1339 23.6759 47.2322 23.5647 47.4674 23.5733C47.7197 23.5776 47.9677 23.5733 48.2199 23.569C48.485 23.5605 48.6304 23.4194 48.6603 23.1586H48.6561Z" fill="#908EB5"/>
<path d="M27.171 21.4487C27.1539 22.5904 27.3378 23.5609 27.7055 24.4888C27.8124 24.7539 27.8124 24.9933 27.7141 25.2541C27.4319 26.0109 27.0257 26.6865 26.4313 27.2295C26.1406 27.4946 26.0594 27.7768 26.1577 28.1488C26.2646 28.5593 26.3416 28.974 26.4271 29.3888C26.4442 29.4743 26.504 29.5812 26.3886 29.6325C26.3031 29.6667 26.2475 29.5769 26.1962 29.5213C25.9396 29.2562 25.6617 29.0039 25.4351 28.7132C25.1615 28.3669 24.8622 28.3113 24.4602 28.4566C23.1818 28.9099 21.9205 28.8415 20.672 28.3155C18.5213 27.4048 17.2343 25.1216 17.5464 22.7528C17.8457 20.4739 19.7698 18.5413 22.0573 18.2762C23.5666 18.1009 24.9519 18.4557 26.132 19.4477C26.7905 19.9993 27.4276 20.585 27.1796 21.453L27.171 21.4487ZM26.209 22.7571C26.2133 21.9105 25.8242 21.2734 25.1315 20.9912C24.3747 20.6791 23.6692 20.7988 23.092 21.3846C22.844 21.6369 22.6944 21.6583 22.4293 21.3932C21.6554 20.6278 20.5394 20.6406 19.8083 21.3846C19.0942 22.1072 19.0985 23.2274 19.8425 23.9885C20.6634 24.8308 21.5014 25.656 22.3352 26.4813C22.673 26.8148 22.8397 26.819 23.169 26.4898C24.0156 25.6518 24.8536 24.8137 25.6916 23.9671C26.0423 23.6123 26.2304 23.189 26.209 22.7528V22.7571Z" fill="#908EB5"/>
<path d="M23.4426 46.0038C22.3737 46.0038 21.3005 46.0081 20.2316 46.0038C19.1413 45.9995 18.4101 45.1529 18.5555 44.0712C18.8505 41.8392 20.6421 40.2016 22.8954 40.0691C23.8232 40.0135 24.751 39.9622 25.6575 40.1717C27.2651 40.5394 28.3683 41.5271 28.9968 43.0535C29.0951 43.293 29.0567 43.464 28.86 43.6436C28.2315 44.2208 27.7312 44.9049 27.372 45.6788C27.2523 45.9396 27.0856 46.0123 26.8162 46.0081C25.6917 45.9952 24.5714 46.0038 23.4469 46.0038H23.4426Z" fill="#908EB5"/>
<path d="M45.5148 46.0034C44.4031 46.0034 43.2957 45.9949 42.184 46.0077C41.9104 46.0077 41.7522 45.9265 41.6324 45.6699C41.2733 44.896 40.773 44.2119 40.1402 43.6389C39.9392 43.4551 39.9221 43.2883 40.0077 43.0446C40.6105 41.3856 42.2738 40.1713 44.0568 40.0687C44.9974 40.0131 45.9381 39.9704 46.8574 40.1628C48.8327 40.5775 50.2822 42.2322 50.4746 44.2333C50.5601 45.1312 49.8033 45.9863 48.8841 45.9991C47.7595 46.012 46.6393 45.9991 45.5148 45.9991V46.0034Z" fill="#908EB5"/>
<path d="M34.4882 41.395C32.4829 41.395 30.8239 39.7446 30.8068 37.735C30.7897 35.734 32.4829 34.045 34.5053 34.0493C36.5106 34.0493 38.1738 35.704 38.1867 37.7136C38.1995 39.7189 36.5149 41.3993 34.4882 41.395Z" fill="#908EB5"/>
<path d="M21.0996 36.0452C21.0996 34.4889 22.3396 33.2489 23.9002 33.2489C25.4566 33.2489 26.7051 34.4889 26.7094 36.0409C26.7094 37.6144 25.4651 38.8586 23.8874 38.8544C22.3353 38.8544 21.1039 37.6059 21.1039 36.0452H21.0996Z" fill="#908EB5"/>
<path d="M47.9047 36.0452C47.9047 37.6101 46.6775 38.8501 45.1212 38.8544C43.5392 38.8544 42.2949 37.6144 42.2949 36.0409C42.2949 34.4931 43.552 33.2489 45.1041 33.2489C46.6604 33.2489 47.9004 34.4889 47.9004 36.0452H47.9047Z" fill="#908EB5"/>
<path d="M33.883 22.735C33.883 22.3802 33.8873 22.021 33.883 21.6661C33.8787 21.4309 33.9557 21.3155 34.2037 21.2599C35.3153 21.0205 35.7857 20.4262 35.79 19.276C35.79 19.1306 35.79 18.9852 35.79 18.8399C35.7985 18.4508 35.9353 18.3738 36.2774 18.5705C36.6194 18.7672 36.7648 19.0836 36.7734 19.4598C36.7819 19.896 36.7734 20.3321 36.7776 20.7682C36.7862 21.2129 36.9102 21.3369 37.342 21.3412C37.6713 21.3412 38.0048 21.3326 38.334 21.3412C38.7958 21.3497 39.0609 21.5934 39.078 22.0424C39.0951 22.4657 39.0994 22.889 39.078 23.3123C39.048 23.898 38.7274 24.2743 38.1673 24.4068C36.8204 24.7275 35.4906 24.5822 34.178 24.2059C33.9642 24.146 33.8787 24.022 33.8873 23.804C33.8958 23.4491 33.8873 23.0899 33.8873 22.735H33.883Z" fill="#908EB5"/>
<path d="M33.0337 22.7143C33.0337 23.1247 33.0337 23.5352 33.0337 23.9457C33.0337 24.4245 32.6788 24.3005 32.4094 24.3219C32.1272 24.3433 31.9647 24.2621 31.969 23.9286C31.9861 23.0948 31.9861 22.261 31.969 21.4315C31.9605 21.0809 32.1614 21.0382 32.4265 21.0553C32.6831 21.0724 33.0294 20.9569 33.0294 21.4102C33.0294 21.8463 33.0294 22.2824 33.0294 22.7185L33.0337 22.7143Z" fill="#908EB5"/>
<path d="M20.1504 22.65C20.1675 22.2609 20.3471 21.9701 20.6934 21.7948C21.0654 21.6067 21.416 21.6666 21.7281 21.9231C21.9505 22.107 22.1429 22.3293 22.3567 22.526C22.6303 22.7825 22.8783 22.7782 23.1562 22.526C23.3572 22.3379 23.541 22.1241 23.7548 21.9488C24.1781 21.5896 24.6998 21.611 25.076 21.9872C25.4437 22.355 25.4865 22.9193 25.1145 23.3127C24.4047 24.061 23.665 24.775 22.9382 25.5062C22.8056 25.6387 22.6944 25.6259 22.5704 25.4976C21.8436 24.7665 21.1167 24.0396 20.3898 23.3042C20.2145 23.1289 20.1418 22.9022 20.1547 22.65H20.1504Z" fill="#908EB5"/>
</svg>
