<svg width="61" height="61" viewBox="0 0 61 61" fill="none" xmlns="http://www.w3.org/2000/svg">
<path d="M25.5 32.5C27.71 32.5 29.5 30.71 29.5 28.5C29.5 26.29 27.71 24.5 25.5 24.5C23.29 24.5 21.5 26.29 21.5 28.5C21.5 30.71 23.29 32.5 25.5 32.5ZM25.5 26.5C26.6 26.5 27.5 27.4 27.5 28.5C27.5 29.6 26.6 30.5 25.5 30.5C24.4 30.5 23.5 29.6 23.5 28.5C23.5 27.4 24.4 26.5 25.5 26.5ZM32.5 41.5C32.5 42.05 32.05 42.5 31.5 42.5C30.95 42.5 30.5 42.05 30.5 41.5C30.5 38.74 28.26 36.5 25.5 36.5C22.74 36.5 20.5 38.74 20.5 41.5C20.5 42.05 20.05 42.5 19.5 42.5C18.95 42.5 18.5 42.05 18.5 41.5C18.5 37.64 21.64 34.5 25.5 34.5C29.36 34.5 32.5 37.64 32.5 41.5ZM42.5 23.5V31.5C42.5 34.26 40.26 36.5 37.5 36.5H33.5C32.95 36.5 32.5 36.05 32.5 35.5C32.5 34.95 32.95 34.5 33.5 34.5H37.5C39.15 34.5 40.5 33.15 40.5 31.5V23.5C40.5 21.85 39.15 20.5 37.5 20.5H27.96C26.89 20.5 25.9 21.08 25.36 22C25.08 22.48 24.47 22.64 23.99 22.37C23.51 22.09 23.35 21.48 23.63 21C24.53 19.46 26.19 18.5 27.96 18.5H37.5C40.26 18.5 42.5 20.74 42.5 23.5ZM32.17 29.42L35.09 26.5H33.5C32.95 26.5 32.5 26.05 32.5 25.5C32.5 24.95 32.95 24.5 33.5 24.5H36.5C37.6 24.5 38.5 25.4 38.5 26.5V29.5C38.5 30.05 38.05 30.5 37.5 30.5C36.95 30.5 36.5 30.05 36.5 29.5V27.91L33.58 30.83C33.12 31.29 32.5 31.54 31.87 31.54C31.65 31.54 31.43 31.51 31.21 31.45C30.68 31.3 30.37 30.75 30.52 30.22C30.67 29.69 31.22 29.38 31.76 29.53C31.88 29.56 32.04 29.55 32.17 29.42Z" fill="#908EB5"/>
</svg>
