<svg width="591" height="621" viewBox="0 0 591 621" fill="none" xmlns="http://www.w3.org/2000/svg">
<g filter="url(#filter0_i_3235_59808)">
<rect width="591" height="621" rx="33" fill="url(#paint0_linear_3235_59808)"/>
<rect width="591" height="621" rx="33" fill="url(#paint1_linear_3235_59808)" fill-opacity="0.2"/>
</g>
<rect x="0.5" y="0.5" width="590" height="620" rx="32.5" stroke="#2D3154"/>
<mask id="mask0_3235_59808" style="mask-type:alpha" maskUnits="userSpaceOnUse" x="0" y="0" width="591" height="621">
<rect width="591" height="621" rx="33" fill="url(#paint2_linear_3235_59808)"/>
<rect width="591" height="621" rx="33" fill="url(#paint3_linear_3235_59808)" fill-opacity="0.2"/>
</mask>
<g mask="url(#mask0_3235_59808)">
<g filter="url(#filter1_f_3235_59808)">
<ellipse cx="298" cy="409.87" rx="263" ry="270.165" fill="#6940F2"/>
</g>
</g>
<g filter="url(#filter2_d_3235_59808)">
<path fill-rule="evenodd" clip-rule="evenodd" d="M130.327 529.045C135.124 541.69 144.658 548.939 157.379 552.48L157.333 552.465H172.247C180.661 549.874 188.049 545.751 193.551 538.64C207.039 521.197 202.195 496.03 182.899 484.842C179.527 482.88 178.163 480.811 178.347 476.933C178.658 470.729 178.539 464.497 178.42 458.278L178.408 457.667C178.347 454.632 179.557 453.605 182.562 453.605C209.583 453.682 236.589 453.697 263.611 453.605C266.722 453.59 267.672 454.755 267.611 457.728C267.458 464.733 267.504 471.752 267.596 478.757C267.626 481.041 266.952 482.497 264.822 483.646C251.303 490.957 243.87 502.284 244.621 517.764C245.448 534.762 254.767 545.843 270.738 551.438C271.278 551.628 271.798 551.863 272.316 552.098C272.592 552.223 272.867 552.347 273.144 552.465H288.931C290.328 551.808 291.772 551.263 293.217 550.718C295.45 549.875 297.686 549.031 299.752 547.774C323.907 533.137 323.463 498.314 298.771 484.505C295.46 482.65 294.28 480.673 294.433 476.994C294.682 471.09 294.595 465.174 294.508 459.257C294.498 458.599 294.489 457.941 294.479 457.284C294.433 454.694 295.353 453.621 298.035 453.621C325.348 453.667 352.645 453.667 379.958 453.621C382.564 453.621 383.652 454.632 383.637 457.238C383.575 464.687 383.529 472.136 383.652 479.585C383.695 482.192 382.041 483.118 380.269 484.109C380.135 484.184 380.001 484.26 379.866 484.336C369.459 490.298 363.16 499.111 361.366 511.036C358.837 527.819 368.233 544.05 384.081 550.303C385.274 550.765 386.473 551.209 387.674 551.653C388.386 551.917 389.1 552.181 389.813 552.449H404.727C404.876 552.388 405.022 552.321 405.166 552.255C405.422 552.137 405.673 552.022 405.937 551.943C421.74 547.468 431.625 537.168 433.649 520.937C435.718 504.338 428.591 491.662 413.8 483.631C411.394 482.328 411.118 480.535 411.118 478.22C411.149 466.378 411.133 454.55 411.118 442.708V442.692C411.103 431.611 406.152 426.691 395.025 426.691C387.529 426.691 380.033 426.688 372.536 426.684C348.163 426.673 323.784 426.662 299.415 426.768C295.552 426.783 294.265 425.664 294.433 421.786C294.628 417.262 294.586 412.73 294.545 408.196C294.527 406.294 294.51 404.392 294.51 402.49C294.52 398.505 296.492 396.436 300.426 396.282C310.726 395.884 314.972 392.389 317.148 382.442C318.433 376.535 319.646 370.6 320.857 364.678L320.995 364.004C321.486 361.597 322.421 359.819 324.995 358.808C335.265 354.761 344.706 349.228 353.366 342.393C355.297 340.875 357.06 340.553 359.389 341.366C366.011 343.68 372.662 345.918 379.376 347.956C387.33 350.378 392.986 348.186 397.201 340.998C404.297 328.889 411.317 316.735 418.23 304.535C422.537 296.933 421.31 290.802 414.75 284.993C412.416 282.922 410.101 280.827 407.786 278.733C405.116 276.317 402.446 273.901 399.745 271.52C397.967 269.942 397.232 268.394 397.63 265.819C399.316 254.937 399.316 243.978 397.645 233.08C397.262 230.536 397.906 228.942 399.715 227.363C404.773 222.934 409.769 218.443 414.75 213.922C421.494 207.806 422.537 201.783 418.076 193.966C411.256 182.041 404.374 170.163 397.431 158.3C392.833 150.452 387.392 148.445 378.594 151.234C372.187 153.273 365.796 155.326 359.451 157.549C357.121 158.361 355.343 158.039 353.412 156.507C344.905 149.732 335.586 144.23 325.455 140.275C322.804 139.248 321.562 137.67 321.026 134.972C319.631 127.952 318.19 120.948 316.52 113.989C314.788 106.77 310.067 103.077 302.679 103.046C288.073 102.985 273.451 102.985 258.829 103.046C251.38 103.077 246.521 107.108 244.927 114.511C243.41 121.346 241.908 128.198 240.559 135.079C240.053 137.624 238.996 139.218 236.482 140.199C226.351 144.168 217.001 149.594 208.495 156.384C206.242 158.193 204.249 158.285 201.674 157.396C195.854 155.371 189.969 153.514 184.091 151.66C183.561 151.492 183.03 151.325 182.5 151.157C174.438 148.613 168.844 150.529 164.583 157.733C157.287 170.056 150.114 182.471 143.095 194.947C139.11 202.028 140.075 207.438 146.053 213.048C151.279 217.953 156.582 222.75 161.977 227.471C163.709 229.003 164.414 230.628 164.062 232.85C162.315 243.886 162.192 254.952 164.062 265.987C164.506 268.624 163.418 270.371 161.487 272.042C156.613 276.241 151.816 280.533 147.11 284.901C139.615 291.859 138.91 296.902 144.06 305.853C150.681 317.379 157.333 328.905 163.985 340.415C168.507 348.232 174.116 350.485 182.746 347.803C189.305 345.749 195.835 343.619 202.333 341.412C204.617 340.645 206.364 340.936 208.326 342.515C216.679 349.259 225.922 354.577 235.884 358.578C238.612 359.666 240.069 361.168 240.605 364.157C241.745 370.536 243.184 376.871 244.62 383.192L244.774 383.867C246.537 391.623 250.322 395.041 258.2 396.098C258.326 396.115 258.452 396.131 258.579 396.148C259.763 396.305 260.975 396.465 262.124 396.313C266.722 395.685 267.902 397.8 267.688 402.107C267.366 408.513 267.366 414.966 267.688 421.388C267.902 425.634 266.492 426.829 262.262 426.814C235.895 426.687 209.529 426.707 183.162 426.726C177.51 426.73 171.859 426.734 166.208 426.737C156.291 426.737 151.034 431.948 150.988 441.849C150.982 443.465 150.975 445.081 150.967 446.697C150.922 456.929 150.877 467.159 151.049 477.377C151.111 480.918 149.915 482.803 146.788 484.535C130.94 493.287 123.997 512.338 130.327 529.045ZM280.762 177.229C320.842 177.229 352.875 209.247 352.921 249.327C352.967 289.514 321.133 321.532 281.038 321.624C241.019 321.701 208.572 289.576 208.51 249.802C208.449 209.569 240.651 177.229 280.762 177.229ZM281.066 296.519C306.677 296.427 327.828 275.046 327.782 249.296C327.721 223.654 306.401 202.365 280.729 202.365C255.332 202.35 233.659 224.022 233.659 249.434C233.659 275.214 255.194 296.611 281.066 296.519Z" fill="url(#paint4_radial_3235_59808)"/>
</g>
<g filter="url(#filter3_d_3235_59808)">
<circle cx="164.043" cy="516.767" r="27.3789" fill="url(#paint5_radial_3235_59808)"/>
</g>
<path d="M163.997 509.764C164.709 509.764 165.406 509.975 165.999 510.371C166.591 510.767 167.053 511.33 167.326 511.988C167.599 512.647 167.67 513.371 167.531 514.07C167.392 514.77 167.049 515.412 166.545 515.916C166.041 516.42 165.399 516.763 164.7 516.902C164.001 517.041 163.276 516.97 162.617 516.697C161.959 516.424 161.396 515.962 161 515.37C160.604 514.777 160.393 514.08 160.393 513.367L160.396 513.211C160.437 512.283 160.834 511.407 161.504 510.764C162.175 510.122 163.068 509.764 163.997 509.764ZM165.438 518.413C166.394 518.413 167.311 518.792 167.986 519.468C168.662 520.144 169.042 521.061 169.042 522.017V522.737C169.042 523.12 168.89 523.486 168.62 523.757C168.349 524.027 167.983 524.179 167.6 524.179H160.393C160.01 524.179 159.644 524.027 159.373 523.757C159.103 523.486 158.951 523.12 158.951 522.737V522.017C158.951 521.061 159.331 520.144 160.007 519.468C160.683 518.792 161.599 518.413 162.555 518.413H165.438Z" fill="#513D95"/>
<g filter="url(#filter4_d_3235_59808)">
<circle cx="280.842" cy="516.768" r="27.3789" fill="url(#paint6_radial_3235_59808)"/>
</g>
<path d="M280.791 509.763C281.504 509.763 282.201 509.975 282.794 510.371C283.386 510.767 283.848 511.329 284.121 511.988C284.394 512.646 284.465 513.371 284.326 514.07C284.187 514.769 283.844 515.411 283.34 515.915C282.836 516.419 282.194 516.763 281.495 516.902C280.795 517.041 280.071 516.969 279.412 516.697C278.754 516.424 278.191 515.962 277.795 515.369C277.399 514.777 277.188 514.08 277.188 513.367L277.191 513.211C277.232 512.283 277.628 511.406 278.299 510.764C278.97 510.122 279.863 509.763 280.791 509.763ZM282.233 518.412C283.189 518.412 284.105 518.792 284.781 519.468C285.457 520.144 285.837 521.061 285.837 522.016V522.737C285.837 523.119 285.685 523.486 285.415 523.756C285.144 524.027 284.778 524.179 284.395 524.179H277.188C276.805 524.179 276.439 524.027 276.168 523.756C275.898 523.486 275.746 523.119 275.746 522.737V522.016C275.746 521.061 276.126 520.144 276.802 519.468C277.477 518.792 278.394 518.412 279.35 518.412H282.233Z" fill="#513D95"/>
<g filter="url(#filter5_d_3235_59808)">
<circle cx="397.959" cy="516.768" r="27.3789" fill="url(#paint7_radial_3235_59808)"/>
</g>
<path d="M397.909 509.763C398.621 509.763 399.318 509.975 399.911 510.371C400.504 510.767 400.965 511.329 401.238 511.988C401.511 512.646 401.582 513.371 401.443 514.07C401.304 514.769 400.961 515.411 400.457 515.915C399.953 516.419 399.311 516.763 398.612 516.902C397.913 517.041 397.188 516.969 396.53 516.697C395.871 516.424 395.308 515.962 394.912 515.369C394.516 514.777 394.305 514.08 394.305 513.367L394.308 513.211C394.349 512.283 394.746 511.406 395.416 510.764C396.087 510.122 396.98 509.763 397.909 509.763ZM399.35 518.412C400.306 518.412 401.223 518.792 401.899 519.468C402.574 520.144 402.954 521.061 402.954 522.016V522.737C402.954 523.119 402.802 523.486 402.532 523.756C402.261 524.027 401.895 524.179 401.513 524.179H394.305C393.922 524.179 393.556 524.027 393.285 523.756C393.015 523.486 392.863 523.119 392.863 522.737V522.016C392.863 521.061 393.243 520.144 393.919 519.468C394.595 518.792 395.511 518.412 396.467 518.412H399.35Z" fill="#513D95"/>
<g filter="url(#filter6_d_3235_59808)">
<ellipse cx="48.977" cy="48.7211" rx="48.977" ry="48.7211" transform="matrix(1 0 -0.00779189 0.99997 232.047 201.053)" fill="url(#paint8_radial_3235_59808)"/>
</g>
<path d="M289.683 249.516C284.622 249.516 280.508 253.629 280.508 258.691C280.508 263.752 284.622 267.866 289.683 267.866C294.745 267.866 298.858 263.752 298.858 258.691C298.858 253.629 294.745 249.516 289.683 249.516ZM291.212 263.278C291.212 264.119 290.524 264.808 289.683 264.808C288.842 264.808 288.154 264.119 288.154 263.278V260.22C288.154 259.379 288.842 258.691 289.683 258.691C290.524 258.691 291.212 259.379 291.212 260.22V263.278ZM289.683 257.162C288.414 257.162 287.389 256.137 287.389 254.868C287.389 253.599 288.414 252.574 289.683 252.574C290.952 252.574 291.977 253.599 291.977 254.868C291.977 256.137 290.952 257.162 289.683 257.162ZM279.101 264.808H269.804C265.584 264.808 262.158 261.382 262.158 257.162V238.812C262.158 234.591 265.584 231.166 269.804 231.166H277.45V238.812C277.45 241.335 279.514 243.399 282.037 243.399H289.683V246.458C282.94 246.458 277.45 251.947 277.45 258.691C277.45 260.923 278.061 263.003 279.101 264.808ZM280.508 238.812V231.395C281.212 231.625 281.854 231.992 282.389 232.512L288.353 238.537C288.857 239.041 289.209 239.653 289.423 240.326H282.037C281.196 240.326 280.508 239.638 280.508 238.797V238.812Z" fill="#6940F2" style="mix-blend-mode:plus-lighter"/>
<mask id="path-14-inside-1_3235_59808" fill="white">
<path fill-rule="evenodd" clip-rule="evenodd" d="M48 318C42.4772 318 38 322.477 38 328V361.642C38 367.165 42.4772 371.642 48 371.642H62.4324C66.0051 371.642 69.3063 373.548 71.0927 376.642L75.036 383.472C76.5756 386.139 80.4246 386.139 81.9642 383.472L85.9075 376.642C87.6938 373.548 90.9951 371.642 94.5677 371.642H109C114.523 371.642 119 367.165 119 361.642V328C119 322.477 114.523 318 109 318H48Z"/>
</mask>
<path fill-rule="evenodd" clip-rule="evenodd" d="M48 318C42.4772 318 38 322.477 38 328V361.642C38 367.165 42.4772 371.642 48 371.642H62.4324C66.0051 371.642 69.3063 373.548 71.0927 376.642L75.036 383.472C76.5756 386.139 80.4246 386.139 81.9642 383.472L85.9075 376.642C87.6938 373.548 90.9951 371.642 94.5677 371.642H109C114.523 371.642 119 367.165 119 361.642V328C119 322.477 114.523 318 109 318H48Z" fill="url(#paint9_linear_3235_59808)"/>
<path fill-rule="evenodd" clip-rule="evenodd" d="M48 318C42.4772 318 38 322.477 38 328V361.642C38 367.165 42.4772 371.642 48 371.642H62.4324C66.0051 371.642 69.3063 373.548 71.0927 376.642L75.036 383.472C76.5756 386.139 80.4246 386.139 81.9642 383.472L85.9075 376.642C87.6938 373.548 90.9951 371.642 94.5677 371.642H109C114.523 371.642 119 367.165 119 361.642V328C119 322.477 114.523 318 109 318H48Z" fill="url(#paint10_linear_3235_59808)" fill-opacity="0.2"/>
<path d="M75.036 383.472L74.1699 383.972L75.036 383.472ZM81.9642 383.472L82.8302 383.972L81.9642 383.472ZM85.9075 376.642L85.0414 376.142L85.9075 376.642ZM71.0927 376.642L70.2266 377.142L71.0927 376.642ZM39 328C39 323.029 43.0294 319 48 319V317C41.9249 317 37 321.925 37 328H39ZM39 361.642V328H37V361.642H39ZM48 370.642C43.0294 370.642 39 366.613 39 361.642H37C37 367.717 41.9249 372.642 48 372.642V370.642ZM62.4324 370.642H48V372.642H62.4324V370.642ZM70.2266 377.142L74.1699 383.972L75.902 382.972L71.9587 376.142L70.2266 377.142ZM74.1699 383.972C76.0944 387.306 80.9057 387.306 82.8302 383.972L81.0981 382.972C79.9434 384.972 77.0567 384.972 75.902 382.972L74.1699 383.972ZM82.8302 383.972L86.7735 377.142L85.0414 376.142L81.0981 382.972L82.8302 383.972ZM109 370.642H94.5677V372.642H109V370.642ZM118 361.642C118 366.613 113.971 370.642 109 370.642V372.642C115.075 372.642 120 367.717 120 361.642H118ZM118 328V361.642H120V328H118ZM109 319C113.971 319 118 323.029 118 328H120C120 321.925 115.075 317 109 317V319ZM48 319H109V317H48V319ZM86.7735 377.142C88.3812 374.358 91.3523 372.642 94.5677 372.642V370.642C90.6378 370.642 87.0064 372.739 85.0414 376.142L86.7735 377.142ZM62.4324 372.642C65.6478 372.642 68.6189 374.358 70.2266 377.142L71.9587 376.142C69.9937 372.739 66.3623 370.642 62.4324 370.642V372.642Z" fill="#2D3154" mask="url(#path-14-inside-1_3235_59808)"/>
<path d="M55.5301 334.925C51.8579 334.925 48.8809 338.048 48.8809 341.899C48.8809 348.872 56.7391 355.212 60.9704 356.686C65.2018 355.212 73.06 348.872 73.06 341.899C73.06 338.048 70.0829 334.925 66.4107 334.925C64.1621 334.925 62.1733 336.096 60.9704 337.888C60.3572 336.973 59.5426 336.225 58.5956 335.709C57.6487 335.194 56.5972 334.925 55.5301 334.925Z" fill="#DA3367"/>
<path d="M86.2029 352.716C85.4174 352.711 84.6593 352.579 83.9284 352.321C83.2026 352.062 82.5513 351.642 81.9746 351.061C81.3979 350.479 80.9405 349.708 80.6025 348.749C80.2694 347.789 80.1028 346.611 80.1028 345.214C80.1078 343.931 80.2544 342.785 80.5428 341.776C80.8361 340.762 81.2537 339.902 81.7956 339.196C82.3425 338.49 82.9963 337.953 83.7569 337.585C84.5176 337.212 85.3702 337.026 86.3148 337.026C87.334 337.026 88.2338 337.225 89.0144 337.622C89.7949 338.015 90.4213 338.55 90.8936 339.226C91.3709 339.902 91.6593 340.66 91.7587 341.5H88.5744C88.4501 340.968 88.1891 340.551 87.7914 340.247C87.3936 339.944 86.9015 339.792 86.3148 339.792C85.3205 339.792 84.5648 340.225 84.0478 341.09C83.5357 341.955 83.2747 343.131 83.2647 344.617H83.3691C83.5978 344.165 83.9061 343.78 84.2939 343.462C84.6866 343.138 85.1316 342.892 85.6287 342.723C86.1309 342.549 86.6603 342.462 87.2172 342.462C88.122 342.462 88.9274 342.676 89.6333 343.104C90.3393 343.526 90.8961 344.108 91.3038 344.849C91.7115 345.589 91.9153 346.437 91.9153 347.392C91.9153 348.426 91.6742 349.345 91.1919 350.151C90.7147 350.956 90.046 351.588 89.1859 352.045C88.3308 352.497 87.3365 352.721 86.2029 352.716ZM86.188 350.181C86.6852 350.181 87.1301 350.061 87.5229 349.823C87.9157 349.584 88.2239 349.261 88.4476 348.853C88.6713 348.446 88.7832 347.988 88.7832 347.481C88.7832 346.974 88.6713 346.519 88.4476 346.116C88.2289 345.714 87.9256 345.393 87.5378 345.154C87.15 344.916 86.7076 344.796 86.2104 344.796C85.8375 344.796 85.492 344.866 85.1738 345.005C84.8606 345.144 84.5847 345.338 84.3461 345.587C84.1124 345.835 83.9284 346.124 83.7942 346.452C83.66 346.775 83.5929 347.121 83.5929 347.489C83.5929 347.981 83.7047 348.431 83.9284 348.838C84.1571 349.246 84.4654 349.572 84.8532 349.815C85.2459 350.059 85.6909 350.181 86.188 350.181ZM99.7828 352.716C98.7289 352.716 97.7892 352.522 96.964 352.134C96.1436 351.747 95.4924 351.212 95.0101 350.531C94.5279 349.85 94.2768 349.069 94.2569 348.189H97.389C97.4238 348.781 97.6724 349.261 98.1348 349.629C98.5971 349.997 99.1465 350.181 99.7828 350.181C100.29 350.181 100.737 350.069 101.125 349.845C101.518 349.616 101.824 349.301 102.042 348.898C102.266 348.49 102.378 348.023 102.378 347.496C102.378 346.959 102.264 346.487 102.035 346.079C101.811 345.671 101.501 345.353 101.103 345.125C100.705 344.896 100.25 344.779 99.7381 344.774C99.2907 344.774 98.8556 344.866 98.4331 345.05C98.0154 345.234 97.6898 345.485 97.4561 345.803L94.585 345.289L95.3084 337.235H104.645V339.875H97.9707L97.5755 343.7H97.665C97.9334 343.322 98.3386 343.009 98.8805 342.761C99.4224 342.512 100.029 342.388 100.7 342.388C101.62 342.388 102.44 342.604 103.161 343.036C103.882 343.469 104.451 344.063 104.869 344.819C105.286 345.569 105.493 346.435 105.488 347.414C105.493 348.443 105.254 349.358 104.772 350.158C104.295 350.954 103.626 351.58 102.766 352.038C101.911 352.49 100.916 352.716 99.7828 352.716Z" fill="#DA3367"/>
<mask id="path-18-inside-2_3235_59808" fill="white">
<path fill-rule="evenodd" clip-rule="evenodd" d="M453 335C447.477 335 443 339.477 443 345V387.252C443 392.775 447.477 397.252 453 397.252H473.435C476.293 397.252 478.934 398.776 480.363 401.252L486.536 411.943C488.076 414.61 491.925 414.61 493.464 411.943L499.637 401.252C501.066 398.776 503.707 397.252 506.565 397.252H527C532.523 397.252 537 392.775 537 387.252V345C537 339.477 532.523 335 527 335H453Z"/>
</mask>
<path fill-rule="evenodd" clip-rule="evenodd" d="M453 335C447.477 335 443 339.477 443 345V387.252C443 392.775 447.477 397.252 453 397.252H473.435C476.293 397.252 478.934 398.776 480.363 401.252L486.536 411.943C488.076 414.61 491.925 414.61 493.464 411.943L499.637 401.252C501.066 398.776 503.707 397.252 506.565 397.252H527C532.523 397.252 537 392.775 537 387.252V345C537 339.477 532.523 335 527 335H453Z" fill="url(#paint11_linear_3235_59808)"/>
<path fill-rule="evenodd" clip-rule="evenodd" d="M453 335C447.477 335 443 339.477 443 345V387.252C443 392.775 447.477 397.252 453 397.252H473.435C476.293 397.252 478.934 398.776 480.363 401.252L486.536 411.943C488.076 414.61 491.925 414.61 493.464 411.943L499.637 401.252C501.066 398.776 503.707 397.252 506.565 397.252H527C532.523 397.252 537 392.775 537 387.252V345C537 339.477 532.523 335 527 335H453Z" fill="url(#paint12_linear_3235_59808)" fill-opacity="0.2"/>
<path d="M486.536 411.943L485.67 412.443L486.536 411.943ZM493.464 411.943L494.33 412.443L493.464 411.943ZM444 345C444 340.029 448.029 336 453 336V334C446.925 334 442 338.925 442 345H444ZM444 387.252V345H442V387.252H444ZM453 396.252C448.029 396.252 444 392.222 444 387.252H442C442 393.327 446.925 398.252 453 398.252V396.252ZM473.435 396.252H453V398.252H473.435V396.252ZM479.497 401.752L485.67 412.443L487.402 411.443L481.229 400.752L479.497 401.752ZM485.67 412.443C487.594 415.776 492.406 415.776 494.33 412.443L492.598 411.443C491.443 413.443 488.557 413.443 487.402 411.443L485.67 412.443ZM494.33 412.443L500.503 401.752L498.771 400.752L492.598 411.443L494.33 412.443ZM527 396.252H506.565V398.252H527V396.252ZM536 387.252C536 392.222 531.971 396.252 527 396.252V398.252C533.075 398.252 538 393.327 538 387.252H536ZM536 345V387.252H538V345H536ZM527 336C531.971 336 536 340.029 536 345H538C538 338.925 533.075 334 527 334V336ZM453 336H527V334H453V336ZM500.503 401.752C501.753 399.586 504.064 398.252 506.565 398.252V396.252C503.35 396.252 500.379 397.967 498.771 400.752L500.503 401.752ZM473.435 398.252C475.936 398.252 478.247 399.586 479.497 401.752L481.229 400.752C479.622 397.967 476.65 396.252 473.435 396.252V398.252Z" fill="#2D3154" mask="url(#path-18-inside-2_3235_59808)"/>
<path d="M491.292 357.381V374.836H487.601V360.884H487.499L483.502 363.39V360.117L487.823 357.381H491.292ZM502.139 375.074C501.241 375.069 500.375 374.918 499.54 374.623C498.71 374.327 497.966 373.847 497.307 373.182C496.648 372.518 496.125 371.637 495.738 370.54C495.358 369.444 495.167 368.097 495.167 366.5C495.173 365.035 495.341 363.725 495.67 362.571C496.006 361.412 496.483 360.429 497.102 359.623C497.727 358.816 498.474 358.202 499.344 357.782C500.213 357.356 501.187 357.143 502.267 357.143C503.432 357.143 504.46 357.37 505.352 357.824C506.244 358.273 506.96 358.884 507.5 359.657C508.045 360.429 508.375 361.296 508.488 362.256H504.849C504.707 361.648 504.409 361.171 503.954 360.824C503.5 360.478 502.937 360.304 502.267 360.304C501.131 360.304 500.267 360.799 499.676 361.787C499.091 362.776 498.792 364.12 498.781 365.819H498.9C499.162 365.302 499.514 364.861 499.957 364.498C500.406 364.128 500.915 363.847 501.483 363.654C502.057 363.455 502.662 363.356 503.298 363.356C504.332 363.356 505.253 363.6 506.059 364.089C506.866 364.571 507.503 365.236 507.969 366.083C508.434 366.929 508.667 367.898 508.667 368.989C508.667 370.171 508.392 371.222 507.841 372.143C507.295 373.063 506.531 373.785 505.548 374.307C504.571 374.824 503.434 375.08 502.139 375.074ZM502.122 372.177C502.69 372.177 503.199 372.04 503.648 371.768C504.096 371.495 504.449 371.125 504.704 370.66C504.96 370.194 505.088 369.671 505.088 369.091C505.088 368.512 504.96 367.992 504.704 367.532C504.454 367.071 504.108 366.705 503.665 366.432C503.221 366.16 502.716 366.023 502.148 366.023C501.721 366.023 501.327 366.103 500.963 366.262C500.605 366.421 500.29 366.643 500.017 366.927C499.75 367.211 499.54 367.54 499.386 367.915C499.233 368.285 499.156 368.679 499.156 369.1C499.156 369.662 499.284 370.177 499.54 370.643C499.801 371.108 500.153 371.481 500.596 371.759C501.045 372.037 501.554 372.177 502.122 372.177ZM517.659 375.074C516.454 375.074 515.381 374.853 514.437 374.41C513.5 373.966 512.756 373.356 512.204 372.577C511.653 371.799 511.366 370.907 511.344 369.901H514.923C514.963 370.577 515.247 371.125 515.775 371.546C516.304 371.966 516.932 372.177 517.659 372.177C518.238 372.177 518.75 372.049 519.193 371.793C519.642 371.532 519.991 371.171 520.241 370.711C520.497 370.245 520.625 369.711 520.625 369.108C520.625 368.495 520.494 367.955 520.233 367.489C519.977 367.023 519.622 366.66 519.167 366.398C518.713 366.137 518.193 366.003 517.608 365.998C517.096 365.998 516.599 366.103 516.116 366.313C515.639 366.523 515.267 366.81 515 367.174L511.719 366.586L512.545 357.381H523.216V360.398H515.588L515.136 364.77H515.238C515.545 364.339 516.008 363.981 516.628 363.696C517.247 363.412 517.94 363.27 518.707 363.27C519.758 363.27 520.696 363.518 521.52 364.012C522.344 364.506 522.994 365.185 523.471 366.049C523.949 366.907 524.184 367.895 524.179 369.015C524.184 370.191 523.912 371.236 523.361 372.151C522.815 373.06 522.051 373.776 521.068 374.299C520.091 374.816 518.954 375.074 517.659 375.074Z" fill="#09CC94"/>
<path d="M475.919 358.716L468.534 377.794C468.46 377.983 468.342 378.151 468.188 378.283C468.035 378.415 467.851 378.508 467.653 378.552C467.456 378.596 467.25 378.59 467.055 378.536C466.86 378.481 466.681 378.38 466.535 378.24L462.372 374.258L459.819 376.809C459.733 376.895 459.623 376.954 459.504 376.977C459.385 377.001 459.261 376.989 459.149 376.942C459.036 376.895 458.94 376.816 458.873 376.715C458.805 376.614 458.769 376.495 458.769 376.374V370.812L452.38 364.7C452.221 364.549 452.106 364.357 452.047 364.146C451.987 363.935 451.985 363.712 452.04 363.5C452.095 363.287 452.207 363.094 452.362 362.939C452.518 362.784 452.712 362.674 452.924 362.619L474.464 357.08C474.683 357.024 474.913 357.029 475.129 357.096C475.345 357.162 475.539 357.286 475.689 357.455C475.839 357.624 475.94 357.831 475.98 358.053C476.021 358.276 475.999 358.505 475.917 358.716H475.919ZM472.924 360.119L459.424 368.921L461.56 370.964L472.924 360.119Z" fill="#09CC94"/>
<mask id="path-22-inside-3_3235_59808" fill="white">
<path fill-rule="evenodd" clip-rule="evenodd" d="M80 93.6144C74.4772 93.6144 70 98.0915 70 103.614V131.614C70 137.137 74.4772 141.614 80 141.614H89.9874C92.7325 141.614 95.2859 143.022 96.7516 145.343L101.118 152.258C102.688 154.744 106.313 154.744 107.883 152.258L112.249 145.343C113.715 143.022 116.269 141.614 119.014 141.614H129C134.523 141.614 139 137.137 139 131.614V103.614C139 98.0915 134.523 93.6144 129 93.6144H80Z"/>
</mask>
<path fill-rule="evenodd" clip-rule="evenodd" d="M80 93.6144C74.4772 93.6144 70 98.0915 70 103.614V131.614C70 137.137 74.4772 141.614 80 141.614H89.9874C92.7325 141.614 95.2859 143.022 96.7516 145.343L101.118 152.258C102.688 154.744 106.313 154.744 107.883 152.258L112.249 145.343C113.715 143.022 116.269 141.614 119.014 141.614H129C134.523 141.614 139 137.137 139 131.614V103.614C139 98.0915 134.523 93.6144 129 93.6144H80Z" fill="url(#paint13_linear_3235_59808)"/>
<path fill-rule="evenodd" clip-rule="evenodd" d="M80 93.6144C74.4772 93.6144 70 98.0915 70 103.614V131.614C70 137.137 74.4772 141.614 80 141.614H89.9874C92.7325 141.614 95.2859 143.022 96.7516 145.343L101.118 152.258C102.688 154.744 106.313 154.744 107.883 152.258L112.249 145.343C113.715 143.022 116.269 141.614 119.014 141.614H129C134.523 141.614 139 137.137 139 131.614V103.614C139 98.0915 134.523 93.6144 129 93.6144H80Z" fill="url(#paint14_linear_3235_59808)" fill-opacity="0.2"/>
<path d="M101.118 152.258L100.273 152.792L101.118 152.258ZM107.883 152.258L108.728 152.792L107.883 152.258ZM112.249 145.343L111.404 144.809L112.249 145.343ZM96.7516 145.343L95.9061 145.877L96.7516 145.343ZM71 103.614C71 98.6438 75.0294 94.6144 80 94.6144V92.6144C73.9249 92.6144 69 97.5392 69 103.614H71ZM71 131.614V103.614H69V131.614H71ZM80 140.614C75.0294 140.614 71 136.585 71 131.614H69C69 137.69 73.9249 142.614 80 142.614V140.614ZM89.9874 140.614H80V142.614H89.9874V140.614ZM95.9061 145.877L100.273 152.792L101.964 151.724L97.5972 144.809L95.9061 145.877ZM100.273 152.792C102.235 155.899 106.766 155.899 108.728 152.792L107.037 151.724C105.86 153.588 103.141 153.588 101.964 151.724L100.273 152.792ZM108.728 152.792L113.095 145.877L111.404 144.809L107.037 151.724L108.728 152.792ZM129 140.614H119.014V142.614H129V140.614ZM138 131.614C138 136.585 133.971 140.614 129 140.614V142.614C135.075 142.614 140 137.69 140 131.614H138ZM138 103.614V131.614H140V103.614H138ZM129 94.6144C133.971 94.6144 138 98.6438 138 103.614H140C140 97.5392 135.075 92.6144 129 92.6144V94.6144ZM80 94.6144H129V92.6144H80V94.6144ZM113.095 145.877C114.377 143.846 116.612 142.614 119.014 142.614V140.614C115.925 140.614 113.053 142.198 111.404 144.809L113.095 145.877ZM89.9874 142.614C92.3894 142.614 94.6236 143.846 95.9061 145.877L97.5972 144.809C95.9482 142.198 93.0757 140.614 89.9874 140.614V142.614Z" fill="#2D3154" mask="url(#path-22-inside-3_3235_59808)"/>
<path d="M117.877 126.165C116.773 126.165 115.788 125.962 114.924 125.555C114.064 125.149 113.382 124.589 112.877 123.876C112.372 123.162 112.109 122.344 112.088 121.422H115.369C115.406 122.042 115.666 122.545 116.15 122.93C116.635 123.316 117.21 123.508 117.877 123.508C118.408 123.508 118.877 123.391 119.283 123.157C119.695 122.917 120.015 122.587 120.244 122.165C120.479 121.738 120.596 121.248 120.596 120.696C120.596 120.133 120.476 119.639 120.236 119.212C120.002 118.784 119.676 118.451 119.26 118.212C118.843 117.972 118.367 117.85 117.83 117.844C117.361 117.844 116.906 117.941 116.463 118.133C116.025 118.326 115.684 118.589 115.439 118.922L112.432 118.383L113.189 109.946H122.971V112.712H115.979L115.564 116.719H115.658C115.939 116.324 116.364 115.995 116.932 115.735C117.499 115.475 118.135 115.344 118.838 115.344C119.801 115.344 120.661 115.571 121.416 116.024C122.171 116.477 122.768 117.1 123.205 117.891C123.643 118.678 123.859 119.584 123.854 120.61C123.859 121.688 123.609 122.646 123.104 123.485C122.604 124.318 121.903 124.975 121.002 125.454C120.106 125.928 119.064 126.165 117.877 126.165Z" fill="#09CC94"/>
<path d="M104.833 118.272C105.162 117.895 105.162 117.333 104.833 116.957L98.4443 109.636C97.8367 108.94 96.6909 109.37 96.6909 110.294V111.621C96.6909 112.173 96.2444 112.617 95.6945 112.669C91.1317 113.095 83.6172 116.473 83.6172 127.601C83.6172 125.99 86.0637 122.823 95.69 122.618C96.2421 122.606 96.6909 123.055 96.6909 123.607V124.934C96.6909 125.858 97.8367 126.288 98.4443 125.592L104.833 118.272Z" fill="#09CC94"/>
<mask id="path-26-inside-4_3235_59808" fill="white">
<path fill-rule="evenodd" clip-rule="evenodd" d="M458 84C452.477 84 448 88.4771 448 94V121.02C448 126.543 452.477 131.02 458 131.02H469.858C472.716 131.02 475.357 132.545 476.786 135.02L480.036 140.649C481.576 143.315 485.425 143.315 486.964 140.649L490.214 135.02C491.643 132.545 494.284 131.02 497.142 131.02H509C514.523 131.02 519 126.543 519 121.02V94C519 88.4772 514.523 84 509 84H458Z"/>
</mask>
<path fill-rule="evenodd" clip-rule="evenodd" d="M458 84C452.477 84 448 88.4771 448 94V121.02C448 126.543 452.477 131.02 458 131.02H469.858C472.716 131.02 475.357 132.545 476.786 135.02L480.036 140.649C481.576 143.315 485.425 143.315 486.964 140.649L490.214 135.02C491.643 132.545 494.284 131.02 497.142 131.02H509C514.523 131.02 519 126.543 519 121.02V94C519 88.4772 514.523 84 509 84H458Z" fill="url(#paint15_linear_3235_59808)"/>
<path fill-rule="evenodd" clip-rule="evenodd" d="M458 84C452.477 84 448 88.4771 448 94V121.02C448 126.543 452.477 131.02 458 131.02H469.858C472.716 131.02 475.357 132.545 476.786 135.02L480.036 140.649C481.576 143.315 485.425 143.315 486.964 140.649L490.214 135.02C491.643 132.545 494.284 131.02 497.142 131.02H509C514.523 131.02 519 126.543 519 121.02V94C519 88.4772 514.523 84 509 84H458Z" fill="url(#paint16_linear_3235_59808)" fill-opacity="0.2"/>
<path d="M480.036 140.649L480.902 140.149L480.036 140.649ZM486.964 140.649L486.098 140.149L486.964 140.649ZM476.786 135.02L475.92 135.52L476.786 135.02ZM449 94C449 89.0294 453.029 85 458 85V83C451.925 83 447 87.9249 447 94H449ZM449 121.02V94H447V121.02H449ZM458 130.02C453.029 130.02 449 125.99 449 121.02H447C447 127.095 451.925 132.02 458 132.02V130.02ZM469.858 130.02H458V132.02H469.858V130.02ZM475.92 135.52L479.17 141.149L480.902 140.149L477.652 134.52L475.92 135.52ZM479.17 141.149C481.094 144.482 485.906 144.482 487.83 141.149L486.098 140.149C484.943 142.149 482.057 142.149 480.902 140.149L479.17 141.149ZM487.83 141.149L491.08 135.52L489.348 134.52L486.098 140.149L487.83 141.149ZM509 130.02H497.142V132.02H509V130.02ZM518 121.02C518 125.99 513.971 130.02 509 130.02V132.02C515.075 132.02 520 127.095 520 121.02H518ZM518 94V121.02H520V94H518ZM509 85C513.971 85 518 89.0294 518 94H520C520 87.9249 515.075 83 509 83V85ZM458 85H509V83H458V85ZM491.08 135.52C492.33 133.354 494.641 132.02 497.142 132.02V130.02C493.927 130.02 490.956 131.735 489.348 134.52L491.08 135.52ZM469.858 132.02C472.359 132.02 474.67 133.354 475.92 135.52L477.652 134.52C476.045 131.735 473.073 130.02 469.858 130.02V132.02Z" fill="#2D3154" mask="url(#path-26-inside-4_3235_59808)"/>
<path fill-rule="evenodd" clip-rule="evenodd" d="M465.641 114.398C466.102 114.617 466.606 114.731 467.117 114.731H474.451C475.268 114.731 476.059 114.44 476.681 113.911C477.302 113.381 477.713 112.648 477.839 111.843L478.698 106.374C478.759 105.984 478.735 105.586 478.627 105.206C478.519 104.826 478.33 104.474 478.072 104.174C477.815 103.874 477.495 103.634 477.135 103.469C476.775 103.303 476.383 103.218 475.987 103.218H471.485V99.9992C471.486 99.5074 471.322 99.0294 471.021 98.64C470.719 98.2507 470.296 97.9721 469.818 97.848C469.341 97.7239 468.835 97.7613 468.381 97.9543C467.927 98.1473 467.55 98.485 467.309 98.9144L464.46 103.983C464.288 104.289 464.198 104.634 464.198 104.985V112.42C464.198 112.807 464.308 113.186 464.515 113.513C464.723 113.841 465.019 114.103 465.37 114.27L465.644 114.399L465.641 114.398ZM461.024 104.233C460.844 104.233 460.667 104.268 460.501 104.336C460.335 104.405 460.184 104.505 460.057 104.631C459.93 104.758 459.829 104.908 459.76 105.073C459.692 105.238 459.656 105.415 459.656 105.594V112.578C459.656 112.939 459.8 113.286 460.057 113.541C460.313 113.797 460.661 113.94 461.024 113.94H461.704C461.886 113.94 462.061 113.868 462.189 113.74C462.318 113.612 462.39 113.438 462.39 113.257V104.915C462.39 104.734 462.318 104.56 462.189 104.432C462.061 104.304 461.886 104.232 461.704 104.232L461.024 104.233Z" fill="#3461D3"/>
<path d="M490.662 112.826C489.76 112.826 488.958 112.671 488.253 112.361C487.553 112.047 487 111.616 486.593 111.069C486.191 110.518 485.983 109.882 485.971 109.161H488.603C488.619 109.463 488.718 109.729 488.899 109.958C489.084 110.184 489.33 110.359 489.636 110.483C489.942 110.608 490.286 110.671 490.668 110.671C491.066 110.671 491.419 110.6 491.724 110.459C492.03 110.318 492.27 110.123 492.443 109.874C492.616 109.624 492.702 109.336 492.702 109.01C492.702 108.68 492.61 108.389 492.425 108.135C492.244 107.878 491.982 107.676 491.64 107.531C491.302 107.386 490.899 107.314 490.433 107.314H489.279V105.394H490.433C490.827 105.394 491.175 105.326 491.477 105.189C491.783 105.052 492.02 104.863 492.189 104.622C492.358 104.376 492.443 104.09 492.443 103.764C492.443 103.454 492.368 103.183 492.219 102.949C492.075 102.712 491.869 102.527 491.604 102.394C491.342 102.261 491.036 102.195 490.686 102.195C490.332 102.195 490.008 102.259 489.714 102.388C489.42 102.513 489.185 102.692 489.008 102.925C488.831 103.159 488.736 103.432 488.724 103.746H486.219C486.231 103.034 486.434 102.406 486.828 101.863C487.223 101.319 487.754 100.895 488.422 100.589C489.094 100.279 489.853 100.124 490.698 100.124C491.551 100.124 492.298 100.279 492.938 100.589C493.578 100.899 494.075 101.317 494.429 101.845C494.787 102.368 494.964 102.955 494.96 103.607C494.964 104.3 494.749 104.877 494.314 105.34C493.884 105.803 493.322 106.097 492.63 106.221V106.318C493.54 106.435 494.232 106.751 494.707 107.266C495.186 107.777 495.423 108.417 495.419 109.186C495.423 109.89 495.22 110.516 494.809 111.063C494.403 111.61 493.841 112.041 493.125 112.355C492.409 112.669 491.588 112.826 490.662 112.826ZM501.814 112.826C500.96 112.826 500.2 112.669 499.532 112.355C498.868 112.041 498.34 111.608 497.95 111.057C497.56 110.506 497.356 109.874 497.34 109.161H499.876C499.904 109.64 500.105 110.029 500.479 110.326C500.854 110.624 501.299 110.773 501.814 110.773C502.224 110.773 502.586 110.683 502.9 110.502C503.218 110.316 503.466 110.061 503.643 109.735C503.824 109.405 503.915 109.027 503.915 108.6C503.915 108.165 503.822 107.783 503.637 107.453C503.456 107.123 503.204 106.865 502.882 106.68C502.56 106.495 502.192 106.4 501.777 106.396C501.415 106.396 501.063 106.471 500.721 106.62C500.383 106.769 500.119 106.972 499.93 107.23L497.606 106.813L498.191 100.293H505.75V102.43H500.347L500.027 105.527H500.099C500.316 105.221 500.645 104.968 501.083 104.766C501.522 104.565 502.013 104.465 502.556 104.465C503.301 104.465 503.965 104.64 504.548 104.99C505.132 105.34 505.593 105.821 505.931 106.433C506.269 107.04 506.436 107.741 506.432 108.534C506.436 109.367 506.243 110.107 505.852 110.755C505.466 111.399 504.925 111.906 504.228 112.276C503.536 112.643 502.731 112.826 501.814 112.826Z" fill="#3461D3"/>
<g filter="url(#filter7_d_3235_59808)">
<circle cx="505.448" cy="159.448" r="32.5629" fill="url(#paint17_radial_3235_59808)"/>
</g>
<g clip-path="url(#clip0_3235_59808)">
<path d="M505.139 154.841C508.664 154.841 512.188 154.841 515.713 154.841C516.133 154.841 516.133 154.841 516.133 155.269C516.133 158.372 516.106 161.477 516.142 164.581C516.172 167.149 514.283 169.744 511.223 170.113C511.007 170.138 510.785 170.131 510.567 170.131C506.948 170.131 503.327 170.104 499.707 170.141C497.132 170.168 494.538 168.286 494.161 165.235C494.138 165.056 494.143 164.873 494.143 164.693C494.143 161.542 494.143 158.39 494.143 155.239C494.143 154.843 494.143 154.841 494.538 154.841C498.072 154.841 501.605 154.841 505.139 154.841ZM502.705 158.579C502.336 158.584 502.125 158.818 502.125 159.227C502.122 161.198 502.122 163.168 502.125 165.139C502.125 165.725 502.557 165.973 503.076 165.686C504.85 164.705 506.624 163.72 508.394 162.733C508.888 162.458 508.898 161.927 508.409 161.653C506.631 160.658 504.848 159.674 503.067 158.686C502.949 158.62 502.827 158.57 502.707 158.579L502.705 158.579Z" fill="#6940F2" style="mix-blend-mode:plus-lighter"/>
<path d="M506.209 153.676C505.238 153.676 504.266 153.672 503.295 153.679C503.094 153.681 502.96 153.624 502.846 153.451C501.737 151.776 500.621 150.106 499.507 148.434C499.462 148.365 499.375 148.296 499.417 148.207C499.461 148.113 499.569 148.15 499.65 148.15C501.64 148.149 503.631 148.15 505.621 148.146C505.796 148.146 505.902 148.215 505.993 148.353C507.111 150.033 508.232 151.711 509.351 153.39C509.396 153.459 509.486 153.531 509.44 153.616C509.387 153.715 509.269 153.672 509.179 153.672C508.188 153.675 507.198 153.673 506.208 153.673L506.209 153.676Z" fill="#6940F2" style="mix-blend-mode:plus-lighter"/>
<path d="M513.513 153.676C512.742 153.676 511.969 153.671 511.198 153.679C511.004 153.68 510.884 153.617 510.776 153.455C509.672 151.789 508.56 150.125 507.451 148.462C507.4 148.385 507.299 148.304 507.343 148.213C507.397 148.1 507.53 148.153 507.628 148.153C508.686 148.15 509.742 148.145 510.8 148.153C513.357 148.171 515.713 150.236 516.07 152.771C516.099 152.969 516.106 153.169 516.132 153.367C516.16 153.601 516.067 153.685 515.829 153.682C515.057 153.67 514.286 153.677 513.513 153.677L513.513 153.676Z" fill="#6940F2" style="mix-blend-mode:plus-lighter"/>
<path d="M497.879 153.676C496.746 153.676 495.611 153.669 494.478 153.681C494.214 153.684 494.123 153.598 494.144 153.337C494.304 151.311 495.285 149.809 497.043 148.803C497.299 148.656 497.571 148.542 497.85 148.443C498.009 148.386 498.111 148.414 498.209 148.561C499.288 150.187 500.373 151.81 501.454 153.435C501.495 153.495 501.573 153.561 501.522 153.636C501.477 153.703 501.381 153.675 501.307 153.675C500.164 153.675 499.022 153.675 497.879 153.675L497.879 153.676Z" fill="#6940F2" style="mix-blend-mode:plus-lighter"/>
</g>
<g filter="url(#filter8_d_3235_59808)">
<circle cx="95.4476" cy="399.448" r="32.5629" fill="url(#paint18_radial_3235_59808)"/>
</g>
<g clip-path="url(#clip1_3235_59808)">
<path d="M95.1394 394.841C98.6643 394.841 102.188 394.841 105.713 394.841C106.133 394.841 106.133 394.841 106.133 395.269C106.133 398.372 106.106 401.477 106.142 404.581C106.172 407.149 104.283 409.744 101.223 410.113C101.007 410.138 100.785 410.131 100.567 410.131C96.9476 410.131 93.3267 410.104 89.7072 410.141C87.1322 410.168 84.5376 408.286 84.161 405.235C84.1384 405.056 84.1429 404.873 84.1429 404.693C84.1429 401.542 84.1429 398.39 84.1429 395.239C84.1429 394.843 84.1429 394.841 84.5376 394.841C88.0715 394.841 91.6055 394.841 95.1394 394.841ZM92.7054 398.579C92.3363 398.584 92.1247 398.818 92.1247 399.227C92.1217 401.198 92.1217 403.168 92.1247 405.139C92.1247 405.725 92.5569 405.973 93.0761 405.686C94.8498 404.705 96.6235 403.72 98.3942 402.733C98.8879 402.458 98.8984 401.927 98.4092 401.653C96.631 400.658 94.8483 399.674 93.0671 398.686C92.9485 398.62 92.827 398.57 92.7069 398.579L92.7054 398.579Z" fill="#6940F2" style="mix-blend-mode:plus-lighter"/>
<path d="M96.2092 393.676C95.2383 393.676 94.2659 393.672 93.295 393.679C93.0939 393.681 92.9603 393.624 92.8463 393.451C91.7373 391.776 90.6209 390.106 89.5074 388.434C89.4624 388.365 89.3754 388.296 89.4174 388.207C89.4609 388.113 89.569 388.15 89.65 388.15C91.6398 388.149 93.6311 388.15 95.6209 388.146C95.7965 388.146 95.9015 388.215 95.9931 388.353C97.111 390.033 98.232 391.711 99.3514 393.39C99.3965 393.459 99.4865 393.531 99.44 393.616C99.3875 393.715 99.2689 393.672 99.1789 393.672C98.1885 393.675 97.1981 393.673 96.2077 393.673L96.2092 393.676Z" fill="#6940F2" style="mix-blend-mode:plus-lighter"/>
<path d="M103.513 393.676C102.742 393.676 101.969 393.671 101.198 393.679C101.004 393.68 100.884 393.617 100.776 393.455C99.6716 391.789 98.5597 390.125 97.4507 388.462C97.3997 388.385 97.2992 388.304 97.3427 388.213C97.3967 388.1 97.5303 388.153 97.6278 388.153C98.6857 388.15 99.7422 388.145 100.8 388.153C103.357 388.171 105.713 390.236 106.07 392.771C106.099 392.969 106.106 393.169 106.132 393.367C106.16 393.601 106.067 393.685 105.829 393.682C105.057 393.67 104.286 393.677 103.513 393.677L103.513 393.676Z" fill="#6940F2" style="mix-blend-mode:plus-lighter"/>
<path d="M87.8785 393.676C86.7456 393.676 85.6111 393.669 84.4782 393.681C84.214 393.684 84.1225 393.598 84.1435 393.337C84.3041 391.311 85.2855 389.809 87.0427 388.803C87.2993 388.656 87.5709 388.542 87.85 388.443C88.0091 388.386 88.1111 388.414 88.2087 388.561C89.2876 390.187 90.3726 391.81 91.4545 393.435C91.495 393.495 91.573 393.561 91.522 393.636C91.477 393.703 91.381 393.675 91.3074 393.675C90.164 393.675 89.022 393.675 87.8785 393.675L87.8785 393.676Z" fill="#6940F2" style="mix-blend-mode:plus-lighter"/>
</g>
<defs>
<filter id="filter0_i_3235_59808" x="0" y="0" width="593" height="623" filterUnits="userSpaceOnUse" color-interpolation-filters="sRGB">
<feFlood flood-opacity="0" result="BackgroundImageFix"/>
<feBlend mode="normal" in="SourceGraphic" in2="BackgroundImageFix" result="shape"/>
<feColorMatrix in="SourceAlpha" type="matrix" values="0 0 0 0 0 0 0 0 0 0 0 0 0 0 0 0 0 0 127 0" result="hardAlpha"/>
<feOffset dx="2" dy="2"/>
<feGaussianBlur stdDeviation="4"/>
<feComposite in2="hardAlpha" operator="arithmetic" k2="-1" k3="1"/>
<feColorMatrix type="matrix" values="0 0 0 0 0 0 0 0 0 0 0 0 0 0 0 0 0 0 0.25 0"/>
<feBlend mode="normal" in2="shape" result="effect1_innerShadow_3235_59808"/>
</filter>
<filter id="filter1_f_3235_59808" x="-190" y="-85.2949" width="976" height="990.33" filterUnits="userSpaceOnUse" color-interpolation-filters="sRGB">
<feFlood flood-opacity="0" result="BackgroundImageFix"/>
<feBlend mode="normal" in="SourceGraphic" in2="BackgroundImageFix" result="shape"/>
<feGaussianBlur stdDeviation="112.5" result="effect1_foregroundBlur_3235_59808"/>
</filter>
<filter id="filter2_d_3235_59808" x="88" y="63" width="394" height="537.48" filterUnits="userSpaceOnUse" color-interpolation-filters="sRGB">
<feFlood flood-opacity="0" result="BackgroundImageFix"/>
<feColorMatrix in="SourceAlpha" type="matrix" values="0 0 0 0 0 0 0 0 0 0 0 0 0 0 0 0 0 0 127 0" result="hardAlpha"/>
<feOffset dx="4" dy="4"/>
<feGaussianBlur stdDeviation="22"/>
<feComposite in2="hardAlpha" operator="out"/>
<feColorMatrix type="matrix" values="0 0 0 0 0.411765 0 0 0 0 0.25098 0 0 0 0 0.94902 0 0 0 0.49 0"/>
<feBlend mode="normal" in2="BackgroundImageFix" result="effect1_dropShadow_3235_59808"/>
<feBlend mode="normal" in="SourceGraphic" in2="effect1_dropShadow_3235_59808" result="shape"/>
</filter>
<filter id="filter3_d_3235_59808" x="96.6641" y="449.388" width="142.758" height="142.758" filterUnits="userSpaceOnUse" color-interpolation-filters="sRGB">
<feFlood flood-opacity="0" result="BackgroundImageFix"/>
<feColorMatrix in="SourceAlpha" type="matrix" values="0 0 0 0 0 0 0 0 0 0 0 0 0 0 0 0 0 0 127 0" result="hardAlpha"/>
<feOffset dx="4" dy="4"/>
<feGaussianBlur stdDeviation="22"/>
<feComposite in2="hardAlpha" operator="out"/>
<feColorMatrix type="matrix" values="0 0 0 0 0.411765 0 0 0 0 0.25098 0 0 0 0 0.94902 0 0 0 0.49 0"/>
<feBlend mode="normal" in2="BackgroundImageFix" result="effect1_dropShadow_3235_59808"/>
<feBlend mode="normal" in="SourceGraphic" in2="effect1_dropShadow_3235_59808" result="shape"/>
</filter>
<filter id="filter4_d_3235_59808" x="213.463" y="449.389" width="142.758" height="142.758" filterUnits="userSpaceOnUse" color-interpolation-filters="sRGB">
<feFlood flood-opacity="0" result="BackgroundImageFix"/>
<feColorMatrix in="SourceAlpha" type="matrix" values="0 0 0 0 0 0 0 0 0 0 0 0 0 0 0 0 0 0 127 0" result="hardAlpha"/>
<feOffset dx="4" dy="4"/>
<feGaussianBlur stdDeviation="22"/>
<feComposite in2="hardAlpha" operator="out"/>
<feColorMatrix type="matrix" values="0 0 0 0 0.411765 0 0 0 0 0.25098 0 0 0 0 0.94902 0 0 0 0.49 0"/>
<feBlend mode="normal" in2="BackgroundImageFix" result="effect1_dropShadow_3235_59808"/>
<feBlend mode="normal" in="SourceGraphic" in2="effect1_dropShadow_3235_59808" result="shape"/>
</filter>
<filter id="filter5_d_3235_59808" x="330.58" y="449.389" width="142.758" height="142.758" filterUnits="userSpaceOnUse" color-interpolation-filters="sRGB">
<feFlood flood-opacity="0" result="BackgroundImageFix"/>
<feColorMatrix in="SourceAlpha" type="matrix" values="0 0 0 0 0 0 0 0 0 0 0 0 0 0 0 0 0 0 127 0" result="hardAlpha"/>
<feOffset dx="4" dy="4"/>
<feGaussianBlur stdDeviation="22"/>
<feComposite in2="hardAlpha" operator="out"/>
<feColorMatrix type="matrix" values="0 0 0 0 0.411765 0 0 0 0 0.25098 0 0 0 0 0.94902 0 0 0 0.49 0"/>
<feBlend mode="normal" in2="BackgroundImageFix" result="effect1_dropShadow_3235_59808"/>
<feBlend mode="normal" in="SourceGraphic" in2="effect1_dropShadow_3235_59808" result="shape"/>
</filter>
<filter id="filter6_d_3235_59808" x="191.666" y="161.053" width="185.957" height="185.439" filterUnits="userSpaceOnUse" color-interpolation-filters="sRGB">
<feFlood flood-opacity="0" result="BackgroundImageFix"/>
<feColorMatrix in="SourceAlpha" type="matrix" values="0 0 0 0 0 0 0 0 0 0 0 0 0 0 0 0 0 0 127 0" result="hardAlpha"/>
<feOffset dx="4" dy="4"/>
<feGaussianBlur stdDeviation="22"/>
<feComposite in2="hardAlpha" operator="out"/>
<feColorMatrix type="matrix" values="0 0 0 0 0.0585938 0 0 0 0 0.304688 0 0 0 0 0.9375 0 0 0 1 0"/>
<feBlend mode="normal" in2="BackgroundImageFix" result="effect1_dropShadow_3235_59808"/>
<feBlend mode="normal" in="SourceGraphic" in2="effect1_dropShadow_3235_59808" result="shape"/>
</filter>
<filter id="filter7_d_3235_59808" x="432.885" y="86.8851" width="153.125" height="153.126" filterUnits="userSpaceOnUse" color-interpolation-filters="sRGB">
<feFlood flood-opacity="0" result="BackgroundImageFix"/>
<feColorMatrix in="SourceAlpha" type="matrix" values="0 0 0 0 0 0 0 0 0 0 0 0 0 0 0 0 0 0 127 0" result="hardAlpha"/>
<feOffset dx="4" dy="4"/>
<feGaussianBlur stdDeviation="22"/>
<feComposite in2="hardAlpha" operator="out"/>
<feColorMatrix type="matrix" values="0 0 0 0 0.411765 0 0 0 0 0.25098 0 0 0 0 0.94902 0 0 0 1 0"/>
<feBlend mode="normal" in2="BackgroundImageFix" result="effect1_dropShadow_3235_59808"/>
<feBlend mode="normal" in="SourceGraphic" in2="effect1_dropShadow_3235_59808" result="shape"/>
</filter>
<filter id="filter8_d_3235_59808" x="22.8848" y="326.885" width="153.125" height="153.126" filterUnits="userSpaceOnUse" color-interpolation-filters="sRGB">
<feFlood flood-opacity="0" result="BackgroundImageFix"/>
<feColorMatrix in="SourceAlpha" type="matrix" values="0 0 0 0 0 0 0 0 0 0 0 0 0 0 0 0 0 0 127 0" result="hardAlpha"/>
<feOffset dx="4" dy="4"/>
<feGaussianBlur stdDeviation="22"/>
<feComposite in2="hardAlpha" operator="out"/>
<feColorMatrix type="matrix" values="0 0 0 0 0.94902 0 0 0 0 0.25098 0 0 0 0 0.36732 0 0 0 0.49 0"/>
<feBlend mode="normal" in2="BackgroundImageFix" result="effect1_dropShadow_3235_59808"/>
<feBlend mode="normal" in="SourceGraphic" in2="effect1_dropShadow_3235_59808" result="shape"/>
</filter>
<linearGradient id="paint0_linear_3235_59808" x1="295.5" y1="0" x2="295.5" y2="621" gradientUnits="userSpaceOnUse">
<stop stop-color="#141530" stop-opacity="0.13"/>
<stop offset="1" stop-color="#2D3154" stop-opacity="0.13"/>
</linearGradient>
<linearGradient id="paint1_linear_3235_59808" x1="295.5" y1="0" x2="295.5" y2="621" gradientUnits="userSpaceOnUse">
<stop stop-color="#2D3154" stop-opacity="0.37"/>
<stop offset="1" stop-color="#5B4BB9" stop-opacity="0.28"/>
</linearGradient>
<linearGradient id="paint2_linear_3235_59808" x1="295.5" y1="0" x2="295.5" y2="621" gradientUnits="userSpaceOnUse">
<stop stop-color="#141530" stop-opacity="0.13"/>
<stop offset="1" stop-color="#2D3154" stop-opacity="0.13"/>
</linearGradient>
<linearGradient id="paint3_linear_3235_59808" x1="295.5" y1="0" x2="295.5" y2="621" gradientUnits="userSpaceOnUse">
<stop stop-color="#2D3154" stop-opacity="0.37"/>
<stop offset="1" stop-color="#5B4BB9" stop-opacity="0.28"/>
</linearGradient>
<radialGradient id="paint4_radial_3235_59808" cx="0" cy="0" r="1" gradientUnits="userSpaceOnUse" gradientTransform="translate(367.214 113.702) rotate(107.836) scale(476.723 287.721)">
<stop offset="0.209049" stop-color="#F9FDFF"/>
<stop offset="0.839525" stop-color="#5B4BB9"/>
</radialGradient>
<radialGradient id="paint5_radial_3235_59808" cx="0" cy="0" r="1" gradientUnits="userSpaceOnUse" gradientTransform="translate(174.053 493.893) rotate(111.414) scale(56.051 44.823)">
<stop offset="0.209049" stop-color="#F9FDFF"/>
<stop offset="0.839525" stop-color="#5B4BB9"/>
</radialGradient>
<radialGradient id="paint6_radial_3235_59808" cx="0" cy="0" r="1" gradientUnits="userSpaceOnUse" gradientTransform="translate(290.852 493.894) rotate(111.414) scale(56.051 44.823)">
<stop offset="0.209049" stop-color="#F9FDFF"/>
<stop offset="0.839525" stop-color="#2D644C"/>
</radialGradient>
<radialGradient id="paint7_radial_3235_59808" cx="0" cy="0" r="1" gradientUnits="userSpaceOnUse" gradientTransform="translate(407.969 493.894) rotate(111.414) scale(56.051 44.823)">
<stop offset="0.209049" stop-color="#F9FDFF"/>
<stop offset="0.839525" stop-color="#4B65B9"/>
</radialGradient>
<radialGradient id="paint8_radial_3235_59808" cx="0" cy="0" r="1" gradientUnits="userSpaceOnUse" gradientTransform="translate(59.9299 32.6887) rotate(123.339) scale(84.5795 67.778)">
<stop offset="0.0242314" stop-color="#AC9BEE"/>
<stop offset="0.508518" stop-color="#0F4EEF"/>
<stop offset="0.935" stop-color="#1D2334"/>
</radialGradient>
<linearGradient id="paint9_linear_3235_59808" x1="78.5" y1="318" x2="78.5" y2="385.472" gradientUnits="userSpaceOnUse">
<stop stop-color="#141530" stop-opacity="0.13"/>
<stop offset="1" stop-color="#2D3154" stop-opacity="0.13"/>
</linearGradient>
<linearGradient id="paint10_linear_3235_59808" x1="78.5" y1="318" x2="78.5" y2="385.472" gradientUnits="userSpaceOnUse">
<stop stop-color="#2D3154" stop-opacity="0.37"/>
<stop offset="1" stop-color="#5B4BB9" stop-opacity="0.28"/>
</linearGradient>
<linearGradient id="paint11_linear_3235_59808" x1="490" y1="335" x2="490" y2="413.943" gradientUnits="userSpaceOnUse">
<stop stop-color="#141530" stop-opacity="0.13"/>
<stop offset="1" stop-color="#2D3154" stop-opacity="0.13"/>
</linearGradient>
<linearGradient id="paint12_linear_3235_59808" x1="490" y1="335" x2="490" y2="413.943" gradientUnits="userSpaceOnUse">
<stop stop-color="#2D3154" stop-opacity="0.37"/>
<stop offset="1" stop-color="#5B4BB9" stop-opacity="0.28"/>
</linearGradient>
<linearGradient id="paint13_linear_3235_59808" x1="104.5" y1="89.2853" x2="104.5" y2="160.589" gradientUnits="userSpaceOnUse">
<stop stop-color="#141530" stop-opacity="0.13"/>
<stop offset="1" stop-color="#2D3154" stop-opacity="0.13"/>
</linearGradient>
<linearGradient id="paint14_linear_3235_59808" x1="104.5" y1="89.2853" x2="104.5" y2="160.589" gradientUnits="userSpaceOnUse">
<stop stop-color="#2D3154" stop-opacity="0.37"/>
<stop offset="1" stop-color="#5B4BB9" stop-opacity="0.28"/>
</linearGradient>
<linearGradient id="paint15_linear_3235_59808" x1="483.5" y1="84" x2="483.5" y2="142.649" gradientUnits="userSpaceOnUse">
<stop stop-color="#141530" stop-opacity="0.13"/>
<stop offset="1" stop-color="#2D3154" stop-opacity="0.13"/>
</linearGradient>
<linearGradient id="paint16_linear_3235_59808" x1="483.5" y1="84" x2="483.5" y2="142.649" gradientUnits="userSpaceOnUse">
<stop stop-color="#2D3154" stop-opacity="0.37"/>
<stop offset="1" stop-color="#5B4BB9" stop-opacity="0.28"/>
</linearGradient>
<radialGradient id="paint17_radial_3235_59808" cx="0" cy="0" r="1" gradientUnits="userSpaceOnUse" gradientTransform="translate(517.353 132.243) rotate(111.414) scale(66.6637 53.3098)">
<stop offset="0.209049" stop-color="#F9FDFF"/>
<stop offset="0.839525" stop-color="#6838C7"/>
</radialGradient>
<radialGradient id="paint18_radial_3235_59808" cx="0" cy="0" r="1" gradientUnits="userSpaceOnUse" gradientTransform="translate(107.353 372.243) rotate(111.414) scale(66.6637 53.3098)">
<stop offset="0.209049" stop-color="#F9FDFF"/>
<stop offset="0.839525" stop-color="#C73865"/>
</radialGradient>
<clipPath id="clip0_3235_59808">
<rect width="22.0019" height="22.0019" fill="white" transform="translate(494.141 148.141)"/>
</clipPath>
<clipPath id="clip1_3235_59808">
<rect width="22.0019" height="22.0019" fill="white" transform="translate(84.1406 388.141)"/>
</clipPath>
</defs>
</svg>
