<svg width="61" height="61" viewBox="0 0 61 61" fill="none" xmlns="http://www.w3.org/2000/svg">
<path d="M18.7932 22.793L20.0862 21.5L18.7932 20.207C18.4022 19.816 18.4022 19.184 18.7932 18.793C19.1842 18.402 19.8162 18.402 20.2072 18.793L21.5003 20.086L22.7933 18.793C23.1842 18.402 23.8162 18.402 24.2072 18.793C24.5982 19.184 24.5982 19.816 24.2072 20.207L22.9142 21.5L24.2072 22.793C24.5982 23.184 24.5982 23.816 24.2072 24.207C24.0122 24.402 23.7562 24.5 23.5002 24.5C23.2442 24.5 22.9883 24.402 22.7933 24.207L21.5003 22.914L20.2072 24.207C20.0122 24.402 19.7563 24.5 19.5002 24.5C19.2442 24.5 18.9882 24.402 18.7932 24.207C18.4022 23.816 18.4022 23.184 18.7932 22.793ZM27.7933 29.207C27.9882 29.402 28.2443 29.5 28.5002 29.5C28.7562 29.5 29.0122 29.402 29.2072 29.207L30.5002 27.914L31.7933 29.207C31.9882 29.402 32.2443 29.5 32.5002 29.5C32.7562 29.5 33.0122 29.402 33.2072 29.207C33.5982 28.816 33.5982 28.184 33.2072 27.793L31.9142 26.5L33.2072 25.207C33.5982 24.816 33.5982 24.184 33.2072 23.793C32.8162 23.402 32.1842 23.402 31.7933 23.793L30.5002 25.086L29.2072 23.793C28.8162 23.402 28.1842 23.402 27.7933 23.793C27.4023 24.184 27.4023 24.816 27.7933 25.207L29.0863 26.5L27.7933 27.793C27.4023 28.184 27.4023 28.816 27.7933 29.207ZM39.2073 36.793C38.8162 36.402 38.1842 36.402 37.7932 36.793L36.5002 38.086L35.2073 36.793C34.8162 36.402 34.1842 36.402 33.7933 36.793C33.4023 37.184 33.4023 37.816 33.7933 38.207L35.0863 39.5L33.7933 40.793C33.4023 41.184 33.4023 41.816 33.7933 42.207C33.9882 42.402 34.2443 42.5 34.5002 42.5C34.7563 42.5 35.0123 42.402 35.2073 42.207L36.5002 40.914L37.7932 42.207C37.9882 42.402 38.2442 42.5 38.5002 42.5C38.7563 42.5 39.0123 42.402 39.2073 42.207C39.5983 41.816 39.5983 41.184 39.2073 40.793L37.9142 39.5L39.2073 38.207C39.5983 37.816 39.5983 37.184 39.2073 36.793ZM42.2213 22.693C42.0253 22.897 41.7633 23 41.5002 23C41.2512 23 41.0013 22.907 40.8083 22.721L39.5002 21.465V29.5C39.5002 31.706 37.7062 33.5 35.5002 33.5H25.0043C23.9053 33.5 23.0093 34.394 23.0043 35.492V35.664C24.4423 36.099 25.5002 37.421 25.5002 39C25.5002 40.93 23.9303 42.5 22.0003 42.5C20.0703 42.5 18.5002 40.93 18.5002 39C18.5002 37.419 19.5613 36.095 21.0033 35.662V35.484C21.0123 33.287 22.8073 31.5 25.0043 31.5H35.5002C36.6033 31.5 37.5002 30.603 37.5002 29.5V21.472L36.1922 22.721C35.7952 23.104 35.1612 23.091 34.7792 22.693C34.3962 22.295 34.4092 21.662 34.8072 21.279L37.1082 19.069C37.8692 18.308 39.1292 18.309 39.9062 19.083L42.1922 21.28C42.5903 21.663 42.6032 22.296 42.2202 22.694L42.2213 22.693ZM22.0003 37.5C21.1733 37.5 20.5003 38.173 20.5003 39C20.5003 39.827 21.1733 40.5 22.0003 40.5C22.8273 40.5 23.5002 39.827 23.5002 39C23.5002 38.173 22.8273 37.5 22.0003 37.5Z" fill="#908EB5"/>
</svg>
