<svg width="66" height="65" viewBox="0 0 66 65" fill="none" xmlns="http://www.w3.org/2000/svg">
<rect x="1" y="0.5" width="64" height="64" rx="26.5" stroke="#908EB5"/>
<g clip-path="url(#clip0_1748_45714)">
<path d="M46.0723 29.0625H45.4299V27.7778C45.4299 24.2358 42.5483 21.3542 39.0063 21.3542H33.8674V18.7847C33.8674 18.0756 33.2931 17.5 32.5827 17.5C31.8722 17.5 31.298 18.0756 31.298 18.7847V21.3542H26.1591C22.6171 21.3542 19.7355 24.2358 19.7355 27.7778V29.0625H19.0931C18.0306 29.0625 17.166 29.9271 17.166 30.9896V34.8438C17.166 35.9062 18.0306 36.7708 19.0931 36.7708H19.7355V38.0556C19.7355 41.5975 22.6171 44.4792 26.1591 44.4792H36.0476L41.1389 47.8734C41.6014 48.1817 42.1346 48.3372 42.669 48.3372C43.1161 48.3372 43.5632 48.2293 43.973 48.0096C44.871 47.5278 45.4299 46.5964 45.4299 45.5763V36.7696H46.0723C47.1347 36.7696 47.9993 35.9049 47.9993 34.8425V30.9883C47.9993 29.9258 47.1347 29.0612 46.0723 29.0612V29.0625ZM42.8605 45.5776C42.8605 45.6059 42.8605 45.6919 42.7603 45.7446C42.6575 45.7999 42.5855 45.7498 42.565 45.7356L37.1499 42.1256C36.9392 41.9855 36.6912 41.9097 36.4368 41.9097H26.1591C24.0341 41.9097 22.3049 40.1805 22.3049 38.0556V27.7778C22.3049 25.6528 24.0341 23.9236 26.1591 23.9236H39.0063C41.1312 23.9236 42.8605 25.6528 42.8605 27.7778V45.5776ZM26.1591 29.7049C26.1591 28.6411 27.0224 27.7778 28.0862 27.7778C29.1499 27.7778 30.0132 28.6411 30.0132 29.7049C30.0132 30.7686 29.1499 31.6319 28.0862 31.6319C27.0224 31.6319 26.1591 30.7686 26.1591 29.7049ZM39.0063 29.7049C39.0063 30.7686 38.143 31.6319 37.0792 31.6319C36.0155 31.6319 35.1521 30.7686 35.1521 29.7049C35.1521 28.6411 36.0155 27.7778 37.0792 27.7778C38.143 27.7778 39.0063 28.6411 39.0063 29.7049ZM38.8097 35.7366C39.1874 36.3379 39.005 37.1306 38.405 37.507C37.0728 38.3433 34.98 39.3403 32.584 39.3403C30.188 39.3403 28.0951 38.3433 26.7629 37.507C26.1616 37.1306 25.9805 36.3366 26.3582 35.7366C26.7359 35.1367 27.5286 34.9542 28.1286 35.3307C29.1756 35.9884 30.7995 36.7708 32.5853 36.7708C34.371 36.7708 35.9936 35.9884 37.042 35.3307C37.6406 34.953 38.4359 35.1354 38.8123 35.7366H38.8097Z" fill="#908EB5"/>
</g>
<defs>
<clipPath id="clip0_1748_45714">
<rect width="30.8333" height="30.8333" fill="white" transform="translate(17.166 17.5)"/>
</clipPath>
</defs>
</svg>
