<svg width="61" height="61" viewBox="0 0 61 61" fill="none" xmlns="http://www.w3.org/2000/svg">
<path d="M20.9336 32.1719L22.7492 33.4643C23.6785 34.1249 24.7766 34.4618 25.8748 34.4618C26.6561 34.4618 27.4384 34.2912 28.1602 33.9456L39.4941 28.9598C40.7944 28.3386 41.3605 26.7688 40.755 25.4598C40.1477 24.1499 38.5894 23.5768 37.276 24.1779L34.5259 25.4047L28.7343 21.8294C27.9625 21.2554 26.9405 21.1522 26.0637 21.5573L25.3804 21.8776C24.8458 22.1287 24.4765 22.6274 24.3925 23.2119C24.3085 23.7973 24.522 24.3801 24.9647 24.7721L28.6433 28.0271L25.5011 29.4288L22.8263 28.4471C21.9653 28.1329 21.0028 28.4112 20.4331 29.1392C20.0901 29.5776 19.9466 30.1297 20.0289 30.6932C20.1155 31.2856 20.4445 31.8237 20.9327 32.1702L20.9336 32.1719ZM26.125 23.4622L26.804 23.1437C27.0945 23.0089 27.4349 23.0448 27.7534 23.2758L32.593 26.2666L30.4002 27.2448L26.125 23.4622ZM21.8121 30.2189C21.8979 30.1096 22.0081 30.0711 22.1044 30.0711C22.1481 30.0711 25.2316 31.1954 25.2316 31.1954C25.446 31.2742 25.6823 31.2663 25.8896 31.1736L37.9935 25.7739L38.0049 25.7687C38.4432 25.5666 38.9639 25.7582 39.1669 26.1948C39.3716 26.6384 39.1809 27.1696 38.7644 27.3691L27.4305 32.3548C26.2431 32.9209 24.837 32.8011 23.7634 32.0381L21.9478 30.7466C21.848 30.6757 21.7789 30.5619 21.7614 30.4421C21.7483 30.3528 21.7658 30.2784 21.8121 30.2189ZM41 38.8123C41 39.2962 40.608 39.6873 40.125 39.6873H20.875C20.392 39.6873 20 39.2962 20 38.8123C20 38.3284 20.392 37.9373 20.875 37.9373H40.125C40.608 37.9373 41 38.3284 41 38.8123Z" fill="#908EB5"/>
</svg>
