<svg width="30" height="25" viewBox="0 0 30 25" fill="none" xmlns="http://www.w3.org/2000/svg">
<path fill-rule="evenodd" clip-rule="evenodd" d="M9 0.961691C7.4087 0.961691 5.88258 1.59383 4.75736 2.71905C3.63214 3.84427 3 5.37039 3 6.96169C3 8.55299 3.63214 10.0791 4.75736 11.2043C5.88258 12.3295 7.4087 12.9617 9 12.9617C10.5913 12.9617 12.1174 12.3295 13.2426 11.2043C14.3679 10.0791 15 8.55299 15 6.96169C15 5.37039 14.3679 3.84427 13.2426 2.71905C12.1174 1.59383 10.5913 0.961691 9 0.961691ZM6 14.4617C4.4087 14.4617 2.88258 15.0938 1.75736 16.219C0.632141 17.3443 0 18.8704 0 20.4617V21.9617C0 22.7573 0.31607 23.5204 0.87868 24.083C1.44129 24.6456 2.20435 24.9617 3 24.9617H15C15.7956 24.9617 16.5587 24.6456 17.1213 24.083C17.6839 23.5204 18 22.7573 18 21.9617V20.4617C18 18.8704 17.3679 17.3443 16.2426 16.219C15.1174 15.0938 13.5913 14.4617 12 14.4617H6ZM16.875 11.3192C17.592 10.0292 18 8.54419 18 6.96169C18.0003 5.43685 17.6132 3.93693 16.875 2.60269C17.7267 1.79678 18.7959 1.25811 19.9505 1.05323C21.105 0.84836 22.2943 0.986269 23.3713 1.44992C24.4483 1.91357 25.3658 2.68263 26.0105 3.66206C26.6552 4.6415 26.9988 5.78837 26.9988 6.96094C26.9988 8.13351 26.6552 9.28038 26.0105 10.2598C25.3658 11.2393 24.4483 12.0083 23.3713 12.472C22.2943 12.9356 21.105 13.0735 19.9505 12.8686C18.7959 12.6638 17.7267 12.1251 16.875 11.3192ZM20.199 24.9617C20.709 24.0797 21.0015 23.0552 21.0015 21.9617V20.4617C21.0043 18.2473 20.1879 16.1102 18.7095 14.4617H24C25.5913 14.4617 27.1174 15.0938 28.2426 16.219C29.3679 17.3443 30 18.8704 30 20.4617V21.9617C30 22.7573 29.6839 23.5204 29.1213 24.083C28.5587 24.6456 27.7956 24.9617 27 24.9617H20.199Z" fill="#2B2E4F"/>
</svg>
