<svg width="95" height="95" viewBox="0 0 95 95" fill="none" xmlns="http://www.w3.org/2000/svg">
<circle cx="47.4946" cy="47.2991" r="34.9662" transform="rotate(-61.9586 47.4946 47.2991)" fill="url(#paint0_radial_3161_58297)"/>
<path fill-rule="evenodd" clip-rule="evenodd" d="M47.9452 33.7939C40.9789 33.7939 35.332 39.4409 35.332 46.4071C35.332 48.791 35.9942 51.0235 37.1458 52.9256L36.0207 56.7499C35.9561 56.9694 35.9519 57.2024 36.0084 57.4241C36.0649 57.6459 36.1802 57.8484 36.342 58.0102C36.5039 58.1721 36.7063 58.2873 36.9281 58.3439C37.1499 58.4004 37.3828 58.3962 37.6024 58.3316L41.4267 57.2065C43.3928 58.3958 45.6474 59.0232 47.9452 59.0202C54.9114 59.0202 60.5583 53.3733 60.5583 46.4071C60.5583 39.4409 54.9114 33.7939 47.9452 33.7939ZM45.0921 49.2614C47.6437 51.8118 50.0793 52.1486 50.9395 52.1801C52.2475 52.2281 53.5215 51.2291 54.0172 50.07C54.0792 49.9256 54.1016 49.7674 54.0821 49.6115C54.0626 49.4556 54.0019 49.3078 53.9062 49.1832C53.215 48.3003 52.2803 47.6659 51.3671 47.0352C51.1766 46.9031 50.9422 46.85 50.7133 46.8872C50.4844 46.9244 50.2788 47.0489 50.1399 47.2345L49.3831 48.3886C49.3431 48.4504 49.2811 48.4947 49.2097 48.5125C49.1382 48.5303 49.0627 48.5203 48.9984 48.4845C48.485 48.1906 47.7371 47.6911 47.1997 47.1538C46.6624 46.6165 46.1932 45.9026 45.9296 45.422C45.8977 45.3608 45.8887 45.2902 45.9042 45.2229C45.9197 45.1556 45.9587 45.0961 46.0141 45.055L47.1796 44.1897C47.3464 44.0454 47.4541 43.8446 47.482 43.6258C47.5099 43.407 47.4561 43.1856 47.3309 43.0041C46.7659 42.1766 46.1074 41.1247 45.1526 40.4272C45.0291 40.3385 44.8848 40.2831 44.7337 40.2666C44.5825 40.25 44.4297 40.2727 44.2899 40.3326C43.1295 40.8296 42.1255 42.1035 42.1734 43.414C42.2049 44.2742 42.5417 46.7098 45.0921 49.2614Z" fill="white" style="mix-blend-mode:color-dodge"/>
<defs>
<radialGradient id="paint0_radial_3161_58297" cx="0" cy="0" r="1" gradientUnits="userSpaceOnUse" gradientTransform="translate(60.2787 18.0867) rotate(111.414) scale(71.5838 57.2443)">
<stop offset="0.175" stop-color="#32D77A"/>
<stop offset="0.745" stop-color="#1E5E3A"/>
<stop offset="0.935" stop-color="#0A321C"/>
</radialGradient>
</defs>
</svg>
