<svg width="188" height="187" viewBox="0 0 188 187" fill="none" xmlns="http://www.w3.org/2000/svg">
<g filter="url(#filter0_d_2731_81971)">
<circle cx="89.7739" cy="89.5922" r="49.2285" transform="rotate(-61.9586 89.7739 89.5922)" fill="url(#paint0_radial_2731_81971)"/>
</g>
<path d="M78.0824 95.7737C78.0824 98.2241 76.0839 100.226 73.6332 100.226C71.1824 100.226 69.1816 98.2241 69.1816 95.7737C69.1816 93.3232 71.1831 91.3218 73.6335 91.3218H78.0827L78.0824 95.7737ZM80.3252 95.7737C80.3252 93.3232 82.3267 91.3218 84.7771 91.3218C87.2275 91.3218 89.229 93.3229 89.229 95.7737V106.918C89.229 109.368 87.2278 111.369 84.7771 111.369C82.3267 111.369 80.3252 109.368 80.3252 106.918V95.7737Z" fill="#DE1C59"/>
<path d="M84.7771 77.9008C82.3267 77.9008 80.3252 75.9023 80.3252 73.4515C80.3252 71.0008 82.3267 69 84.7771 69C87.2275 69 89.229 71.0015 89.229 73.4519V77.9011L84.7771 77.9008ZM84.7771 80.1436C87.2275 80.1436 89.229 82.145 89.229 84.5955C89.229 87.0459 87.2278 89.0473 84.7771 89.0473H73.6332C71.1828 89.0473 69.1816 87.0462 69.1816 84.5955C69.1816 82.145 71.1831 80.1436 73.6335 80.1436H84.7771Z" fill="#35C5F0"/>
<path d="M102.65 84.5955C102.65 82.145 104.649 80.1436 107.1 80.1436C109.55 80.1436 111.552 82.145 111.552 84.5955C111.552 87.0459 109.55 89.0473 107.1 89.0473H102.65V84.5955ZM100.408 84.5955C100.408 87.0459 98.4062 89.0473 95.9558 89.0473C93.5054 89.0473 91.5039 87.0462 91.5039 84.5955V73.4515C91.5039 71.0011 93.505 69 95.9558 69C98.4062 69 100.408 71.0015 100.408 73.4519V84.5955Z" fill="#2EB57D"/>
<path d="M95.9558 102.468C98.4062 102.468 100.408 104.467 100.408 106.918C100.408 109.368 98.4062 111.369 95.9558 111.369C93.5054 111.369 91.5039 109.368 91.5039 106.918V102.468H95.9558ZM95.9558 100.226C93.5054 100.226 91.5039 98.2241 91.5039 95.7737C91.5039 93.3232 93.505 91.3218 95.9558 91.3218H107.1C109.55 91.3218 111.552 93.3229 111.552 95.7737C111.552 98.2241 109.55 100.226 107.1 100.226H95.9558Z" fill="#EBB02E"/>
<defs>
<filter id="filter0_d_2731_81971" x="0.535156" y="0.354004" width="186.477" height="186.477" filterUnits="userSpaceOnUse" color-interpolation-filters="sRGB">
<feFlood flood-opacity="0" result="BackgroundImageFix"/>
<feColorMatrix in="SourceAlpha" type="matrix" values="0 0 0 0 0 0 0 0 0 0 0 0 0 0 0 0 0 0 127 0" result="hardAlpha"/>
<feOffset dx="4" dy="4"/>
<feGaussianBlur stdDeviation="22"/>
<feComposite in2="hardAlpha" operator="out"/>
<feColorMatrix type="matrix" values="0 0 0 0 0.411765 0 0 0 0 0.25098 0 0 0 0 0.94902 0 0 0 0.54 0"/>
<feBlend mode="normal" in2="BackgroundImageFix" result="effect1_dropShadow_2731_81971"/>
<feBlend mode="normal" in="SourceGraphic" in2="effect1_dropShadow_2731_81971" result="shape"/>
</filter>
<radialGradient id="paint0_radial_2731_81971" cx="0" cy="0" r="1" gradientUnits="userSpaceOnUse" gradientTransform="translate(107.772 48.4642) rotate(111.414) scale(100.782 80.5937)">
<stop offset="0.209049" stop-color="#F9FDFF"/>
<stop offset="0.839525" stop-color="#A3A3A3"/>
</radialGradient>
</defs>
</svg>
