<svg width="127" height="126" viewBox="0 0 127 126" fill="none" xmlns="http://www.w3.org/2000/svg">
<circle cx="63.3652" cy="63.0001" r="46.5729" transform="rotate(-61.9586 63.3652 63.0001)" fill="url(#paint0_radial_2731_81975)"/>
<g style="mix-blend-mode:hard-light">
<circle cx="63.3652" cy="63.0001" r="46.5729" transform="rotate(-61.9586 63.3652 63.0001)" fill="url(#paint1_radial_2731_81975)"/>
</g>
<path d="M65.0644 44.1968C67.156 44.2024 68.2176 44.2135 69.1341 44.2395L69.4948 44.2526C69.9113 44.2674 70.3222 44.286 70.8185 44.3083C72.7967 44.4013 74.1464 44.7136 75.3307 45.1728C76.5578 45.6451 77.5915 46.2846 78.6252 47.3165C79.5709 48.2455 80.3025 49.3698 80.7688 50.6109C81.228 51.7952 81.5403 53.1449 81.6333 55.1249C81.6556 55.6195 81.6742 56.0303 81.6891 56.4487L81.7002 56.8093C81.7281 57.724 81.7393 58.7856 81.743 60.8772L81.7448 62.2641V64.6996C81.7494 66.0557 81.7351 67.4118 81.7021 68.7675L81.6909 69.1281C81.6761 69.5465 81.6575 69.9573 81.6352 70.4519C81.5422 72.4319 81.2261 73.7798 80.7688 74.9659C80.3025 76.207 79.5709 77.3313 78.6252 78.2603C77.6961 79.2061 76.5718 79.9377 75.3307 80.404C74.1464 80.8632 72.7967 81.1755 70.8185 81.2685L69.4948 81.3242L69.1341 81.3354C68.2176 81.3614 67.156 81.3744 65.0644 81.3782L63.6775 81.38H61.2439C59.8872 81.3848 58.5305 81.3705 57.1742 81.3373L56.8135 81.3261C56.3721 81.3094 55.9309 81.2902 55.4898 81.2685C53.5116 81.1755 52.1619 80.8632 50.9757 80.404C49.7353 79.9374 48.6117 79.2059 47.6831 78.2603C46.7367 77.3314 46.0045 76.2071 45.5377 74.9659C45.0785 73.7816 44.7661 72.4319 44.6732 70.4519L44.6174 69.1281L44.6081 68.7675C44.5738 67.4118 44.5583 66.0557 44.5616 64.6996V60.8772C44.5565 59.5211 44.5701 58.165 44.6025 56.8093L44.6155 56.4487C44.6304 56.0303 44.649 55.6195 44.6713 55.1249C44.7643 53.1449 45.0766 51.797 45.5358 50.6109C46.0037 49.3693 46.7372 48.245 47.685 47.3165C48.613 46.3712 49.736 45.6396 50.9757 45.1728C52.1619 44.7136 53.5098 44.4013 55.4898 44.3083C55.9843 44.286 56.397 44.2674 56.8135 44.2526L57.1742 44.2414C58.5298 44.2084 59.8859 44.1941 61.242 44.1986L65.0644 44.1968ZM63.1532 53.4926C60.6878 53.4926 58.3234 54.472 56.5801 56.2153C54.8368 57.9586 53.8574 60.323 53.8574 62.7884C53.8574 65.2538 54.8368 67.6182 56.5801 69.3615C58.3234 71.1048 60.6878 72.0842 63.1532 72.0842C65.6186 72.0842 67.9831 71.1048 69.7264 69.3615C71.4697 67.6182 72.449 65.2538 72.449 62.7884C72.449 60.323 71.4697 57.9586 69.7264 56.2153C67.9831 54.472 65.6186 53.4926 63.1532 53.4926ZM63.1532 57.2109C63.8857 57.2108 64.611 57.3549 65.2877 57.6351C65.9644 57.9153 66.5794 58.326 67.0974 58.8439C67.6154 59.3617 68.0263 59.9765 68.3067 60.6531C68.5871 61.3298 68.7315 62.055 68.7316 62.7875C68.7318 63.5199 68.5876 64.2452 68.3074 64.922C68.0273 65.5987 67.6165 66.2136 67.0987 66.7316C66.5809 67.2496 65.9661 67.6606 65.2894 67.941C64.6128 68.2214 63.8875 68.3658 63.1551 68.3659C61.6758 68.3659 60.2572 67.7783 59.2112 66.7323C58.1652 65.6863 57.5776 64.2676 57.5776 62.7884C57.5776 61.3092 58.1652 59.8905 59.2112 58.8445C60.2572 57.7985 61.6758 57.2109 63.1551 57.2109M72.9157 50.7038C72.2993 50.7038 71.7082 50.9487 71.2724 51.3845C70.8366 51.8203 70.5917 52.4114 70.5917 53.0278C70.5917 53.6441 70.8366 54.2353 71.2724 54.6711C71.7082 55.1069 72.2993 55.3517 72.9157 55.3517C73.532 55.3517 74.1231 55.1069 74.559 54.6711C74.9948 54.2353 75.2396 53.6441 75.2396 53.0278C75.2396 52.4114 74.9948 51.8203 74.559 51.3845C74.1231 50.9487 73.532 50.7038 72.9157 50.7038Z" fill="white" style="mix-blend-mode:color-dodge"/>
<defs>
<radialGradient id="paint0_radial_2731_81975" cx="0" cy="0" r="1" gradientUnits="userSpaceOnUse" gradientTransform="translate(109.124 64.0586) rotate(-167.727) scale(97.5079 77.9754)">
<stop offset="0.04" stop-color="#FFC752"/>
<stop offset="0.33383" stop-color="#FA5147"/>
<stop offset="0.560234" stop-color="#C837AB"/>
<stop offset="0.837017" stop-color="#4664C9"/>
<stop offset="1" stop-color="#0E2B8D"/>
</radialGradient>
<radialGradient id="paint1_radial_2731_81975" cx="0" cy="0" r="1" gradientUnits="userSpaceOnUse" gradientTransform="translate(38.9687 66.5386) rotate(-4.34859) scale(84.8429 84.8428)">
<stop stop-color="#FFA3A3" stop-opacity="0"/>
<stop offset="0.737543" stop-color="#4A658E"/>
<stop offset="0.9375" stop-color="#A99CEC"/>
</radialGradient>
</defs>
</svg>
