<svg width="66" height="65" viewBox="0 0 66 65" fill="none" xmlns="http://www.w3.org/2000/svg">
<rect x="1" y="0.5" width="64" height="64" rx="26.5" stroke="#908EB5"/>
<path d="M32.6342 50.2076C31.7895 50.0355 30.9657 49.8166 30.241 49.3212C29.0001 48.4766 28.3171 47.3139 28.2285 45.8124C28.2076 45.4891 28.1972 45.1659 28.1868 44.8426C28.1868 44.6184 28.2754 44.5715 28.4631 44.707C28.9636 45.0616 29.459 45.4213 29.9699 45.7654C30.241 45.9479 30.5434 45.8906 30.7155 45.6612C30.8875 45.4318 30.8458 45.0929 30.6112 44.8791C30.5486 44.827 30.4809 44.78 30.4183 44.7331C29.6623 44.1961 28.9271 43.6226 28.1399 43.1377C26.8364 42.3295 25.9449 41.1564 25.1993 39.8634C24.0523 37.877 22.6602 36.073 21.2003 34.3107C21.096 34.1856 20.9918 34.0605 20.8927 33.9353C20.2983 33.2054 20.3817 32.2982 21.1221 31.709C21.925 31.073 22.8479 30.8436 23.8646 30.953C25.3036 31.1042 26.4819 31.756 27.4308 32.8352C27.4673 32.8769 27.5142 32.9082 27.5611 32.9499C27.6654 32.8092 27.6185 32.6632 27.6185 32.5328C27.6185 28.9614 27.6185 25.3899 27.6185 21.8185C27.6185 21.0364 27.7697 20.3065 28.2911 19.6808C28.9741 18.8622 30.1159 18.5181 31.1482 18.857C32.1701 19.1907 32.9783 20.197 32.9939 21.2397C33.02 22.7935 33.0096 24.3472 33.0043 25.9009C33.0043 26.1199 32.9887 26.2554 33.2963 26.1199C35.0169 25.3274 36.8886 26.3649 37.1441 28.2419C37.1858 28.5443 37.2275 28.5964 37.5247 28.4608C39.1618 27.7153 41.044 28.7737 41.2838 30.5568C41.3221 30.8314 41.4715 30.9131 41.7322 30.8018C43.385 30.098 45.2828 31.2398 45.4549 33.0281C45.4862 33.3775 45.4966 33.7216 45.4966 34.0709C45.4966 36.3441 45.507 38.6173 45.4914 40.8853C45.481 41.975 45.3819 43.0595 44.9752 44.0918C44.8814 44.3264 44.7458 44.4724 44.5164 44.5663C43.703 44.9156 42.8688 45.1919 42.0242 45.437C41.482 45.5934 41.2682 45.8489 41.3621 46.2034C41.4559 46.5579 41.7792 46.6622 42.3266 46.5058C42.7385 46.3859 43.1452 46.2503 43.5571 46.1252C43.6665 46.0939 43.7865 45.9948 43.8803 46.0731C43.9794 46.1565 43.896 46.2868 43.8699 46.3963C43.4215 48.4558 42.1076 49.6393 40.0951 50.1085C39.97 50.1346 39.8501 50.1763 39.7301 50.2076H32.6342Z" fill="#908EB5"/>
<path d="M31.2591 16.0941C31.2591 16.3704 31.2696 16.6467 31.2591 16.923C31.2383 17.3141 30.9776 17.58 30.6387 17.5904C30.3207 17.6008 30.0235 17.3558 30.0078 16.9804C29.9766 16.3808 29.9766 15.7812 30.0078 15.1816C30.0287 14.7802 30.3207 14.5508 30.67 14.5716C31.0037 14.5925 31.2383 14.8375 31.2591 15.2233C31.2748 15.5101 31.2591 15.8021 31.2591 16.0888V16.0941Z" fill="#908EB5"/>
<path d="M24.9966 21.7614C24.7411 21.7614 24.4857 21.7719 24.2354 21.7614C23.7922 21.7354 23.5055 21.4695 23.5159 21.1149C23.5263 20.7552 23.8131 20.4997 24.2563 20.4893C24.7672 20.4788 25.2729 20.4788 25.7839 20.4893C26.2375 20.4945 26.519 20.7343 26.5347 21.0941C26.5451 21.4695 26.2636 21.7354 25.7995 21.7614C25.5336 21.7771 25.2677 21.7614 25.0018 21.7614H24.9966Z" fill="#908EB5"/>
<path d="M35.6174 21.7564C35.3411 21.7564 35.0596 21.7772 34.7884 21.7564C34.3609 21.7147 34.1263 21.4488 34.1524 21.0838C34.1732 20.7397 34.4287 20.5051 34.8406 20.4946C35.3828 20.4842 35.925 20.4842 36.4673 20.4946C36.8635 20.5051 37.1294 20.7553 37.1503 21.0994C37.1659 21.4175 36.9313 21.6782 36.5507 21.7512C36.5142 21.7564 36.4829 21.7668 36.4464 21.7668C36.1701 21.7668 35.8938 21.7668 35.6122 21.7668L35.6174 21.7564Z" fill="#908EB5"/>
<path d="M33.5626 18.7785C33.3436 18.7681 33.1611 18.6638 33.0412 18.4553C32.9161 18.2363 32.9004 17.9913 33.0725 17.8036C33.4844 17.35 33.9119 16.9068 34.3655 16.4949C34.621 16.2603 34.9547 16.302 35.1841 16.5262C35.4083 16.7452 35.45 17.0788 35.231 17.3447C34.84 17.8192 34.402 18.2467 33.9328 18.6482C33.8337 18.7316 33.7086 18.7733 33.5574 18.7785H33.5626Z" fill="#908EB5"/>
<path d="M25.9206 16.3438C26.1031 16.3594 26.2543 16.4272 26.3846 16.5575C26.7548 16.9277 27.1302 17.2874 27.4847 17.6681C27.7767 17.9809 27.7819 18.3406 27.516 18.5961C27.2553 18.8464 26.9112 18.8464 26.614 18.5648C26.2282 18.1999 25.8528 17.8193 25.4879 17.4334C25.2897 17.2249 25.2272 16.9694 25.3575 16.6931C25.467 16.4637 25.6703 16.3646 25.9206 16.3438Z" fill="#908EB5"/>
</svg>
