<svg width="36" height="37" viewBox="0 0 36 37" fill="none" xmlns="http://www.w3.org/2000/svg">
<path d="M28.5 15.9619C29.6935 15.9619 30.8381 16.436 31.682 17.2799C32.5259 18.1238 33 19.2684 33 20.4619V24.9619C33 26.1554 32.5259 27.3 31.682 28.1439C30.8381 28.9878 29.6935 29.4619 28.5 29.4619V30.9109C28.5 32.5009 26.646 33.3694 25.425 32.3509L21.957 29.4619H18C16.8065 29.4619 15.6619 28.9878 14.818 28.1439C13.9741 27.3 13.5 26.1554 13.5 24.9619V20.4619C13.5 19.2684 13.9741 18.1238 14.818 17.2799C15.6619 16.436 16.8065 15.9619 18 15.9619H28.5Z" fill="#2B2E4F"/>
<path d="M24 6.96191C25.1935 6.96191 26.3381 7.43602 27.182 8.27993C28.0259 9.12385 28.5 10.2684 28.5 11.4619V12.9619H16.5C14.9087 12.9619 13.3826 13.5941 12.2574 14.7193C11.1321 15.8445 10.5 17.3706 10.5 18.9619V24.9619C10.5 26.5279 11.1 27.9559 12.084 29.0239L10.5 30.2119C9.264 31.1389 7.5 30.2569 7.5 28.7119V26.4619C6.30653 26.4619 5.16193 25.9878 4.31802 25.1439C3.47411 24.3 3 23.1554 3 21.9619V11.4619C3 10.2684 3.47411 9.12385 4.31802 8.27993C5.16193 7.43602 6.30653 6.96191 7.5 6.96191H24Z" fill="#2B2E4F"/>
</svg>
