<svg width="87" height="87" viewBox="0 0 87 87" fill="none" xmlns="http://www.w3.org/2000/svg">
<rect x="0.308594" y="0.125977" width="86.5005" height="86.5005" rx="14.5328" fill="#131846"/>
<g clip-path="url(#clip0_5026_5493)">
<path d="M26.8423 39.6413C26.8423 37.4672 28.6039 35.7056 30.778 35.7056C32.9521 35.7056 34.7137 37.4672 34.7137 39.6413C34.7137 41.8154 32.9521 43.5771 30.778 43.5771C28.6039 43.5771 26.8423 41.8154 26.8423 39.6413ZM48.8824 56.1714H39.4366C37.7002 56.1714 36.288 57.5836 36.288 59.32V60.8943C36.288 61.7633 36.9917 62.4686 37.8623 62.4686H50.4567C51.3272 62.4686 52.031 61.7633 52.031 60.8943V59.32C52.031 57.5836 50.6188 56.1714 48.8824 56.1714ZM57.541 43.5771C59.7151 43.5771 61.4767 41.8154 61.4767 39.6413C61.4767 37.4672 59.7151 35.7056 57.541 35.7056C55.3669 35.7056 53.6053 37.4672 53.6053 39.6413C53.6053 41.8154 55.3669 43.5771 57.541 43.5771ZM59.7639 45.2049C58.6257 45.0144 57.4481 45.3387 56.5665 46.0897C56.535 46.1164 51.8027 49.8758 51.8027 49.8758H47.3096C46.4391 49.8758 45.7354 50.5811 45.7354 51.4501C45.7354 52.3191 46.4391 53.0244 47.3096 53.0244H52.3553C52.7126 53.0244 53.059 52.9032 53.3376 52.6796L55.1811 51.2077V59.3216C55.1811 61.058 56.5933 62.4702 58.3297 62.4702H59.904C61.6404 62.4702 63.0526 61.058 63.0526 59.3216V49.2146C63.0526 47.2342 61.6404 45.5103 59.7655 45.2065L59.7639 45.2049ZM42.5852 51.4485C42.5852 50.5795 41.8815 49.8743 41.0109 49.8743H36.5179C36.5179 49.8743 31.7855 46.1164 31.754 46.0881C30.8709 45.3371 29.6933 45.0144 28.5567 45.2033C26.6832 45.5087 25.2695 47.2326 25.2695 49.2115V59.3184C25.2695 61.0549 26.6817 62.467 28.4181 62.467H29.9924C31.7289 62.467 33.141 61.0549 33.141 59.3184V51.2045L34.9845 52.6765C35.2632 52.9 35.6095 53.0213 35.9669 53.0213H41.0125C41.8831 53.0213 42.5868 52.316 42.5868 51.447L42.5852 51.4485ZM44.1595 29.4084C45.0301 29.4084 45.7338 28.7031 45.7338 27.8341V26.2598C45.7338 25.3908 45.0301 24.6855 44.1595 24.6855C43.2889 24.6855 42.5852 25.3908 42.5852 26.2598V27.8341C42.5852 28.7031 43.2889 29.4084 44.1595 29.4084ZM50.4567 30.9827C50.8597 30.9827 51.2627 30.8284 51.5697 30.5215L52.6717 29.4194C53.2872 28.8039 53.2872 27.8089 52.6717 27.1934C52.0561 26.5778 51.0612 26.5778 50.4456 27.1934L49.3436 28.2954C48.7281 28.911 48.7281 29.9059 49.3436 30.5215C49.6506 30.8284 50.0536 30.9827 50.4567 30.9827ZM36.7493 30.5215C37.3648 31.137 38.3598 31.137 38.9753 30.5215C39.5909 29.9059 39.5909 28.911 38.9753 28.2954L37.8733 27.1934C37.2578 26.5778 36.2628 26.5778 35.6473 27.1934C35.0317 27.8089 35.0317 28.8039 35.6473 29.4194L36.7493 30.5215ZM40.0207 42.0028H48.292C49.6443 40.8221 50.4582 39.1045 50.4582 37.2799C50.4582 35.4112 49.638 33.6527 48.2038 32.4531C46.7712 31.2504 44.8742 30.7545 43.0197 31.0835C40.4331 31.5432 38.344 33.6795 37.9394 36.2834C37.6041 38.459 38.4117 40.6001 40.0207 42.0028ZM43.3723 48.3H44.9466C45.8172 48.3 46.5209 47.5947 46.5209 46.7257V45.1514H41.798V46.7257C41.798 47.5947 42.5018 48.3 43.3723 48.3Z" fill="#0ACD95"/>
</g>
<defs>
<clipPath id="clip0_5026_5493">
<rect width="37.7831" height="37.7831" fill="white" transform="translate(25.2695 24.6855)"/>
</clipPath>
</defs>
</svg>
