<svg width="20" height="20" viewBox="0 0 20 20" fill="none" xmlns="http://www.w3.org/2000/svg">
<path fill-rule="evenodd" clip-rule="evenodd" d="M15.3131 3.9707H4.09075C3.34666 3.9707 2.63305 4.26629 2.1069 4.79244C1.58074 5.31859 1.28516 6.03221 1.28516 6.7763V13.3227C1.28516 14.0668 1.58074 14.7804 2.1069 15.3065C2.63305 15.8327 3.34666 16.1283 4.09075 16.1283H15.3131C16.0572 16.1283 16.7708 15.8327 17.297 15.3065C17.8231 14.7804 18.1187 14.0668 18.1187 13.3227V6.7763C18.1187 6.03221 17.8231 5.31859 17.297 4.79244C16.7708 4.26629 16.0572 3.9707 15.3131 3.9707ZM3.15555 6.7763C3.15555 6.52827 3.25408 6.2904 3.42947 6.11501C3.60485 5.93963 3.84272 5.8411 4.09075 5.8411H15.3131C15.5612 5.8411 15.799 5.93963 15.9744 6.11501C16.1498 6.2904 16.2483 6.52827 16.2483 6.7763V13.3227C16.2483 13.5707 16.1498 13.8086 15.9744 13.984C15.799 14.1594 15.5612 14.2579 15.3131 14.2579H4.09075C3.84272 14.2579 3.60485 14.1594 3.42947 13.984C3.25408 13.8086 3.15555 13.5707 3.15555 13.3227V6.7763Z" fill="#0ACD95"/>
<path d="M2.68635 6.77637H16.7143C16.8383 6.77637 16.9573 6.82563 17.045 6.91332C17.1327 7.00102 17.1819 7.11995 17.1819 7.24397V8.17917C17.1819 8.30318 17.1327 8.42212 17.045 8.50981C16.9573 8.5975 16.8383 8.64676 16.7143 8.64676H2.68635C2.56233 8.64676 2.4434 8.5975 2.35571 8.50981C2.26801 8.42212 2.21875 8.30318 2.21875 8.17917V7.24397C2.21875 7.11995 2.26801 7.00102 2.35571 6.91332C2.4434 6.82563 2.56233 6.77637 2.68635 6.77637Z" fill="#0ACD95"/>
<path fill-rule="evenodd" clip-rule="evenodd" d="M5.96024 9.58203H5.02504C4.77701 9.58203 4.53914 9.68056 4.36376 9.85594C4.18837 10.0313 4.08984 10.2692 4.08984 10.5172V11.4524C4.08984 11.7005 4.18837 11.9383 4.36376 12.1137C4.53914 12.2891 4.77701 12.3876 5.02504 12.3876H5.96024C6.20827 12.3876 6.44614 12.2891 6.62153 12.1137C6.79691 11.9383 6.89544 11.7005 6.89544 11.4524V10.5172C6.89544 10.2692 6.79691 10.0313 6.62153 9.85594C6.44614 9.68056 6.20827 9.58203 5.96024 9.58203ZM5.02504 11.4524V10.5172H5.96024V11.4524H5.02504Z" fill="#0ACD95"/>
<path d="M1.5594 3.22942C1.38904 3.05304 1.29478 2.81681 1.29691 2.5716C1.29904 2.3264 1.39739 2.09184 1.57079 1.91844C1.74418 1.74505 1.97874 1.6467 2.22395 1.64457C2.46915 1.64244 2.70539 1.7367 2.88177 1.90705L17.8449 16.8702C18.0153 17.0466 18.1096 17.2828 18.1074 17.5281C18.1053 17.7733 18.0069 18.0078 17.8336 18.1812C17.6602 18.3546 17.4256 18.453 17.1804 18.4551C16.9352 18.4572 16.699 18.363 16.5226 18.1926L1.5594 3.22942Z" fill="#0ACD95"/>
</svg>
