<svg width="87" height="88" viewBox="0 0 87 88" fill="none" xmlns="http://www.w3.org/2000/svg">
<rect x="0.015625" y="0.910156" width="86.5005" height="86.5005" rx="14.5328" fill="#131846"/>
<path d="M42.9233 52.862C41.9734 52.8622 41.0583 52.5046 40.3602 51.8604C39.6621 51.2162 39.2323 50.3328 39.1563 49.3859C36.6365 48.494 34.5129 46.7406 33.1602 44.4351C31.8075 42.1297 31.3128 39.4205 31.7634 36.7858C32.2139 34.1511 33.5808 31.7602 35.6227 30.0353C37.6647 28.3104 40.2503 27.3623 42.9233 27.3584C45.7663 27.358 48.5056 28.4259 50.5981 30.3505C52.6906 32.275 53.9835 34.9157 54.2204 37.7487C54.2283 37.8716 54.2106 37.9948 54.1683 38.1105C54.126 38.2261 54.0601 38.3317 53.9749 38.4206C53.8896 38.5094 53.7868 38.5795 53.6729 38.6265C53.5591 38.6734 53.4367 38.6962 53.3136 38.6933C53.0606 38.687 52.8189 38.5868 52.6356 38.4122C52.4523 38.2377 52.3405 38.0012 52.3218 37.7487C52.1536 36.0784 51.5432 34.4831 50.5535 33.1271C49.5639 31.771 48.2307 30.7032 46.6913 30.0336C45.1518 29.364 43.4617 29.1168 41.795 29.3173C40.1282 29.5179 38.545 30.1591 37.2084 31.1749C35.8718 32.1906 34.8301 33.5442 34.1904 35.0964C33.5507 36.6485 33.3363 38.3431 33.5692 40.0056C33.802 41.6682 34.4738 43.2386 35.5152 44.5553C36.5567 45.872 37.9302 46.8873 39.4945 47.4968C39.7791 46.8818 40.2239 46.3546 40.7823 45.9706C41.3406 45.5866 41.992 45.3598 42.6681 45.314C43.3443 45.2682 44.0203 45.4051 44.6253 45.7104C45.2303 46.0156 45.7421 46.478 46.1071 47.049C46.472 47.62 46.6766 48.2787 46.6995 48.956C46.7224 49.6333 46.5627 50.3043 46.2372 50.8987C45.9117 51.493 45.4323 51.9889 44.8492 52.3343C44.2662 52.6797 43.601 52.862 42.9233 52.862ZM33.4945 48.1391H33.6664C34.7817 49.2331 36.082 50.1209 37.5071 50.7612C37.9259 52.143 38.8563 53.3129 40.1084 54.032C41.3605 54.7511 42.8398 54.9651 44.2444 54.6305C45.6489 54.2959 46.8728 53.4378 47.6662 52.2314C48.4595 51.025 48.7625 49.5613 48.5133 48.1391H52.3691C53.3711 48.1391 54.3321 48.5372 55.0407 49.2457C55.7493 49.9543 56.1474 50.9153 56.1474 51.9174C56.1474 55.1119 54.5737 57.5206 52.114 59.0905C49.6921 60.6339 46.4277 61.3632 42.9233 61.3632C39.4189 61.3632 36.1545 60.6339 33.7326 59.0905C31.2729 57.5225 29.6992 55.1101 29.6992 51.9174C29.6992 49.8148 31.4051 48.1391 33.4945 48.1391ZM50.4799 38.6933C50.4803 39.9716 50.1564 41.2291 49.5386 42.3481C48.9208 43.4672 48.0292 44.4112 46.9472 45.0919C46.4203 44.5608 45.7934 44.1393 45.1028 43.8517C44.4121 43.5641 43.6714 43.4161 42.9233 43.4162C42.1752 43.4161 41.4344 43.5641 40.7438 43.8517C40.0532 44.1393 39.4263 44.5608 38.8994 45.0919C37.4644 44.1895 36.3746 42.8308 35.805 41.2342C35.5144 40.4186 35.3661 39.5591 35.3667 38.6933C35.3667 36.6892 36.1628 34.7671 37.58 33.35C38.9971 31.9328 40.9192 31.1367 42.9233 31.1367C44.9274 31.1367 46.8495 31.9328 48.2666 33.35C49.6838 34.7671 50.4799 36.6892 50.4799 38.6933Z" fill="#0ACD95"/>
</svg>
