<svg width="96" height="95" viewBox="0 0 96 95" fill="none" xmlns="http://www.w3.org/2000/svg">
<circle cx="47.897" cy="47.2991" r="34.9662" transform="rotate(-61.9586 47.897 47.2991)" fill="url(#paint0_radial_3161_58291)"/>
<g style="mix-blend-mode:plus-lighter">
<path d="M48.5143 37H41.181C38.6537 37 36.5977 39.0557 36.5977 41.5826V53.3634C36.5977 54.0902 36.9964 54.7556 37.6372 55.0993C37.9287 55.256 38.2486 55.333 38.5676 55.333C38.9489 55.333 39.3293 55.2221 39.6593 55.0031L43.2921 52.5807H48.5143C51.0416 52.5807 53.0977 50.525 53.0977 47.9982V41.5826C53.0977 39.0557 51.0416 37 48.5143 37ZM58.5977 45.2486V57.0295C58.5977 57.7563 58.1989 58.4217 57.5582 58.7654C57.2667 58.9221 56.9467 58.9991 56.6277 59C56.2464 59 55.866 58.8891 55.5369 58.6701L51.9032 56.2468H46.681C45.3518 56.2468 44.1629 55.6685 43.3251 54.762L43.8467 54.4138H48.5143C52.0517 54.4138 54.931 51.535 54.931 47.9982V41.5826C54.931 41.3003 54.9062 41.0253 54.8714 40.7522C56.9898 41.1555 58.5977 43.0151 58.5977 45.2486Z" fill="white"/>
</g>
<defs>
<radialGradient id="paint0_radial_3161_58291" cx="0" cy="0" r="1" gradientUnits="userSpaceOnUse" gradientTransform="translate(57.9686 33.6644) rotate(124.809) scale(43.8292)">
<stop stop-color="#5EC953"/>
<stop offset="0.95" stop-color="#255F20"/>
</radialGradient>
</defs>
</svg>
