<svg width="95" height="95" viewBox="0 0 95 95" fill="none" xmlns="http://www.w3.org/2000/svg">
<circle cx="47.2993" cy="47.2991" r="34.9662" transform="rotate(-61.9586 47.2993 47.2991)" fill="url(#paint0_radial_3161_58300)"/>
<g style="mix-blend-mode:plus-lighter">
<path d="M47.9167 37H40.5833C38.0561 37 36 39.0557 36 41.5826V53.3634C36 54.0902 36.3987 54.7556 37.0395 55.0993C37.331 55.256 37.6509 55.333 37.9699 55.333C38.3512 55.333 38.7317 55.2221 39.0617 55.0031L42.6944 52.5807H47.9167C50.4439 52.5807 52.5 50.525 52.5 47.9982V41.5826C52.5 39.0557 50.4439 37 47.9167 37ZM58 45.2486V57.0295C58 57.7563 57.6012 58.4217 56.9605 58.7654C56.669 58.9221 56.3491 58.9991 56.0301 59C55.6488 59 55.2683 58.8891 54.9392 58.6701L51.3056 56.2468H46.0833C44.7542 56.2468 43.5653 55.6685 42.7274 54.762L43.249 54.4138H47.9167C51.4541 54.4138 54.3333 51.535 54.3333 47.9982V41.5826C54.3333 41.3003 54.3086 41.0253 54.2738 40.7522C56.3922 41.1555 58 43.0151 58 45.2486Z" fill="#6940F2"/>
</g>
<defs>
<radialGradient id="paint0_radial_3161_58300" cx="0" cy="0" r="1" gradientUnits="userSpaceOnUse" gradientTransform="translate(60.0834 18.0867) rotate(111.414) scale(71.5838 57.2443)">
<stop offset="0.209049" stop-color="#F9FDFF"/>
<stop offset="0.839525" stop-color="#5B4BB9"/>
</radialGradient>
</defs>
</svg>
