<svg width="66" height="65" viewBox="0 0 66 65" fill="none" xmlns="http://www.w3.org/2000/svg">
<rect x="1" y="0.5" width="64" height="64" rx="26.5" stroke="#908EB5"/>
<path d="M40 21H27C23.967 21 21.5 23.467 21.5 26.5V27.5C21.5 28.451 21.882 29.315 22.5 29.947V39.5C22.5 42.533 24.967 45 28 45H30C30.829 45 31.5 44.329 31.5 43.5C31.5 42.671 30.829 42 30 42H28C26.622 42 25.5 40.878 25.5 39.5V31H42C43.93 31 45.5 29.43 45.5 27.5V26.5C45.5 23.467 43.033 21 40 21ZM42.5 27.5C42.5 27.776 42.276 28 42 28H25C24.724 28 24.5 27.776 24.5 27.5V26.5C24.5 25.122 25.622 24 27 24H40C41.378 24 42.5 25.122 42.5 26.5V27.5ZM39.5 33C36.186 33 33.5 35.686 33.5 39C33.5 42.314 36.186 45 39.5 45C42.814 45 45.5 42.314 45.5 39C45.5 35.686 42.814 33 39.5 33ZM43.183 38.712L40.48 41.326C40.028 41.772 39.428 41.997 38.827 41.997C38.226 41.997 37.624 41.772 37.164 41.323L35.81 39.991C35.415 39.604 35.41 38.971 35.796 38.577C36.182 38.182 36.815 38.176 37.21 38.563L38.564 39.894C38.708 40.036 38.944 40.033 39.086 39.892L41.799 37.268C42.196 36.887 42.83 36.898 43.213 37.297C43.595 37.695 43.582 38.328 43.184 38.711L43.183 38.712Z" fill="#908EB5"/>
</svg>
