<svg width="115" height="44" viewBox="0 0 115 44" fill="none" xmlns="http://www.w3.org/2000/svg">
<rect width="115" height="44" rx="22" fill="#0E0C31" fill-opacity="0.31"/>
<rect x="0.5" y="0.5" width="114" height="43" rx="21.5" stroke="url(#paint0_linear_2678_57020)" stroke-opacity="0.26"/>
<path d="M17.0284 17.2727L19.2997 24.142H19.3892L21.6562 17.2727H23.3949L20.3182 26H18.3665L15.294 17.2727H17.0284ZM24.4786 26V19.4545H26.0212V26H24.4786ZM25.2542 18.5256C25.0099 18.5256 24.7996 18.4446 24.6235 18.2827C24.4474 18.1179 24.3593 17.9205 24.3593 17.6903C24.3593 17.4574 24.4474 17.2599 24.6235 17.098C24.7996 16.9332 25.0099 16.8509 25.2542 16.8509C25.5013 16.8509 25.7116 16.9332 25.8849 17.098C26.061 17.2599 26.1491 17.4574 26.1491 17.6903C26.1491 17.9205 26.061 18.1179 25.8849 18.2827C25.7116 18.4446 25.5013 18.5256 25.2542 18.5256ZM30.5076 26.1278C29.8514 26.1278 29.2846 25.9915 28.8074 25.7188C28.3329 25.4432 27.9679 25.054 27.7122 24.5511C27.4565 24.0455 27.3287 23.4503 27.3287 22.7656C27.3287 22.0923 27.4565 21.5014 27.7122 20.9929C27.9707 20.4815 28.3315 20.0838 28.7946 19.7997C29.2576 19.5128 29.8017 19.3693 30.4267 19.3693C30.8301 19.3693 31.2108 19.4347 31.5687 19.5653C31.9295 19.6932 32.2477 19.892 32.5233 20.1619C32.8017 20.4318 33.0204 20.7756 33.1795 21.1932C33.3386 21.608 33.4182 22.1023 33.4182 22.6761V23.1491H28.0531V22.1094H31.9395C31.9366 21.8139 31.8727 21.5511 31.7477 21.321C31.6227 21.0881 31.448 20.9048 31.2235 20.7713C31.002 20.6378 30.7434 20.571 30.448 20.571C30.1326 20.571 29.8557 20.6477 29.617 20.8011C29.3784 20.9517 29.1923 21.1506 29.0588 21.3977C28.9281 21.642 28.8613 21.9105 28.8585 22.2031V23.1108C28.8585 23.4915 28.9281 23.8182 29.0673 24.0909C29.2065 24.3608 29.4011 24.5682 29.6511 24.7131C29.9011 24.8551 30.1937 24.9261 30.5289 24.9261C30.7534 24.9261 30.9565 24.8949 31.1383 24.8324C31.3201 24.767 31.4778 24.6719 31.6113 24.5469C31.7449 24.4219 31.8457 24.267 31.9139 24.0824L33.3542 24.2443C33.2633 24.625 33.09 24.9574 32.8343 25.2415C32.5815 25.5227 32.2576 25.7415 31.8628 25.8977C31.4679 26.0511 31.0162 26.1278 30.5076 26.1278ZM36.0413 26L34.1919 19.4545H35.7643L36.9149 24.0568H36.9745L38.1507 19.4545H39.7061L40.8822 24.0312H40.9461L42.0796 19.4545H43.6563L41.8027 26H40.1961L38.9688 21.5767H38.8794L37.6521 26H36.0413ZM50.7403 26H47.783V17.2727H50.8C51.6665 17.2727 52.4108 17.4474 53.033 17.7969C53.658 18.1435 54.1381 18.642 54.4733 19.2926C54.8085 19.9432 54.9761 20.7216 54.9761 21.6278C54.9761 22.5369 54.8071 23.3182 54.469 23.9716C54.1338 24.625 53.6494 25.1264 53.0159 25.4759C52.3852 25.8253 51.6267 26 50.7403 26ZM49.3639 24.6321H50.6636C51.2716 24.6321 51.7787 24.5213 52.1849 24.2997C52.5912 24.0753 52.8966 23.7415 53.1011 23.2983C53.3057 22.8523 53.408 22.2955 53.408 21.6278C53.408 20.9602 53.3057 20.4062 53.1011 19.9659C52.8966 19.5227 52.594 19.1918 52.1935 18.973C51.7957 18.7514 51.3014 18.6406 50.7105 18.6406H49.3639V24.6321ZM59.3102 26.1278C58.654 26.1278 58.0872 25.9915 57.6099 25.7188C57.1355 25.4432 56.7704 25.054 56.5148 24.5511C56.2591 24.0455 56.1312 23.4503 56.1312 22.7656C56.1312 22.0923 56.2591 21.5014 56.5148 20.9929C56.7733 20.4815 57.1341 20.0838 57.5971 19.7997C58.0602 19.5128 58.6042 19.3693 59.2292 19.3693C59.6327 19.3693 60.0133 19.4347 60.3713 19.5653C60.7321 19.6932 61.0503 19.892 61.3258 20.1619C61.6042 20.4318 61.823 20.7756 61.9821 21.1932C62.1412 21.608 62.2207 22.1023 62.2207 22.6761V23.1491H56.8557V22.1094H60.742C60.7392 21.8139 60.6753 21.5511 60.5503 21.321C60.4253 21.0881 60.2506 20.9048 60.0261 20.7713C59.8045 20.6378 59.546 20.571 59.2506 20.571C58.9352 20.571 58.6582 20.6477 58.4196 20.8011C58.1809 20.9517 57.9949 21.1506 57.8613 21.3977C57.7307 21.642 57.6639 21.9105 57.6611 22.2031V23.1108C57.6611 23.4915 57.7307 23.8182 57.8699 24.0909C58.0091 24.3608 58.2037 24.5682 58.4537 24.7131C58.7037 24.8551 58.9963 24.9261 59.3315 24.9261C59.5559 24.9261 59.7591 24.8949 59.9409 24.8324C60.1227 24.767 60.2804 24.6719 60.4139 24.5469C60.5474 24.4219 60.6483 24.267 60.7165 24.0824L62.1568 24.2443C62.0659 24.625 61.8926 24.9574 61.6369 25.2415C61.3841 25.5227 61.0602 25.7415 60.6653 25.8977C60.2704 26.0511 59.8187 26.1278 59.3102 26.1278ZM66.7966 19.4545V20.6477H63.0338V19.4545H66.7966ZM63.9628 17.8864H65.5054V24.0312C65.5054 24.2386 65.5367 24.3977 65.5992 24.5085C65.6645 24.6165 65.7498 24.6903 65.8549 24.7301C65.96 24.7699 66.0765 24.7898 66.2043 24.7898C66.3009 24.7898 66.389 24.7827 66.4685 24.7685C66.5509 24.7543 66.6134 24.7415 66.656 24.7301L66.9159 25.9361C66.8336 25.9645 66.7157 25.9957 66.5623 26.0298C66.4117 26.0639 66.227 26.0838 66.0083 26.0895C65.6219 26.1009 65.2739 26.0426 64.9642 25.9148C64.6546 25.7841 64.4088 25.5824 64.227 25.3097C64.048 25.0369 63.96 24.696 63.9628 24.2869V17.8864ZM69.9727 26.1321C69.5579 26.1321 69.1843 26.0582 68.8519 25.9105C68.5224 25.7599 68.261 25.5384 68.0678 25.2457C67.8775 24.9531 67.7823 24.5923 67.7823 24.1634C67.7823 23.794 67.8505 23.4886 67.9869 23.2472C68.1232 23.0057 68.3093 22.8125 68.5451 22.6676C68.7809 22.5227 69.0465 22.4134 69.342 22.3395C69.6403 22.2628 69.9485 22.2074 70.2667 22.1733C70.6502 22.1335 70.9613 22.098 71.2 22.0668C71.4386 22.0327 71.6119 21.9815 71.7198 21.9134C71.8306 21.8423 71.886 21.733 71.886 21.5852V21.5597C71.886 21.2386 71.7909 20.9901 71.6005 20.8139C71.4102 20.6378 71.136 20.5497 70.7781 20.5497C70.4002 20.5497 70.1005 20.6321 69.8789 20.7969C69.6602 20.9616 69.5125 21.1562 69.4357 21.3807L67.9954 21.1761C68.109 20.7784 68.2965 20.446 68.5579 20.179C68.8193 19.9091 69.1389 19.7074 69.5167 19.5739C69.8946 19.4375 70.3122 19.3693 70.7696 19.3693C71.0849 19.3693 71.3988 19.4062 71.7113 19.4801C72.0238 19.554 72.3093 19.6761 72.5679 19.8466C72.8264 20.0142 73.0338 20.2429 73.19 20.5327C73.3491 20.8224 73.4286 21.1847 73.4286 21.6193V26H71.9457V25.1009H71.8946C71.8008 25.2827 71.6687 25.4531 71.4982 25.6122C71.3306 25.7685 71.119 25.8949 70.8633 25.9915C70.6105 26.0852 70.3136 26.1321 69.9727 26.1321ZM70.3732 24.9986C70.6829 24.9986 70.9514 24.9375 71.1786 24.8153C71.4059 24.6903 71.5806 24.5256 71.7028 24.321C71.8278 24.1165 71.8903 23.8935 71.8903 23.652V22.8807C71.842 22.9205 71.7596 22.9574 71.6431 22.9915C71.5295 23.0256 71.4017 23.0554 71.2596 23.081C71.1176 23.1065 70.9769 23.1293 70.8377 23.1491C70.6985 23.169 70.5778 23.1861 70.4755 23.2003C70.2454 23.2315 70.0394 23.2827 69.8576 23.3537C69.6758 23.4247 69.5323 23.5241 69.4272 23.652C69.3221 23.777 69.2696 23.9389 69.2696 24.1378C69.2696 24.4219 69.3732 24.6364 69.5806 24.7812C69.788 24.9261 70.0522 24.9986 70.3732 24.9986ZM74.9822 26V19.4545H76.5248V26H74.9822ZM75.7577 18.5256C75.5134 18.5256 75.3032 18.4446 75.1271 18.2827C74.9509 18.1179 74.8629 17.9205 74.8629 17.6903C74.8629 17.4574 74.9509 17.2599 75.1271 17.098C75.3032 16.9332 75.5134 16.8509 75.7577 16.8509C76.0049 16.8509 76.2151 16.9332 76.3884 17.098C76.5646 17.2599 76.6526 17.4574 76.6526 17.6903C76.6526 17.9205 76.5646 18.1179 76.3884 18.2827C76.2151 18.4446 76.0049 18.5256 75.7577 18.5256ZM79.6561 17.2727V26H78.1135V17.2727H79.6561ZM86.4181 21.1847L85.0118 21.3381C84.9721 21.196 84.9025 21.0625 84.803 20.9375C84.7064 20.8125 84.5758 20.7116 84.411 20.6349C84.2462 20.5582 84.0445 20.5199 83.8059 20.5199C83.4848 20.5199 83.215 20.5895 82.9962 20.7287C82.7803 20.8679 82.6738 21.0483 82.6766 21.2699C82.6738 21.4602 82.7434 21.6151 82.8854 21.7344C83.0303 21.8537 83.2689 21.9517 83.6013 22.0284L84.7178 22.267C85.3371 22.4006 85.7973 22.6122 86.0985 22.902C86.4025 23.1918 86.5559 23.571 86.5587 24.0398C86.5559 24.4517 86.4351 24.8153 86.1965 25.1307C85.9607 25.4432 85.6326 25.6875 85.2121 25.8636C84.7917 26.0398 84.3087 26.1278 83.7633 26.1278C82.9621 26.1278 82.3172 25.9602 81.8286 25.625C81.34 25.2869 81.0488 24.8168 80.955 24.2145L82.4593 24.0696C82.5275 24.3651 82.6723 24.5881 82.8939 24.7386C83.1155 24.8892 83.4039 24.9645 83.759 24.9645C84.1255 24.9645 84.4195 24.8892 84.6411 24.7386C84.8655 24.5881 84.9777 24.402 84.9777 24.1804C84.9777 23.9929 84.9053 23.8381 84.7604 23.7159C84.6184 23.5937 84.3968 23.5 84.0956 23.4347L82.9792 23.2003C82.3513 23.0696 81.8868 22.8494 81.5857 22.5398C81.2846 22.2273 81.1354 21.8324 81.1383 21.3551C81.1354 20.9517 81.2448 20.6023 81.4664 20.3068C81.6908 20.0085 82.0019 19.7784 82.3996 19.6165C82.8002 19.4517 83.2618 19.3693 83.7846 19.3693C84.5516 19.3693 85.1553 19.5327 85.5956 19.8594C86.0388 20.1861 86.313 20.6278 86.4181 21.1847Z" fill="white"/>
<path d="M97 26.5L99.5 29M103 25L105.5 22.5M101 26.5L103.5 29L109.5 22.5" stroke="#06BBFE" stroke-width="1.5" stroke-linecap="round" stroke-linejoin="round"/>
<defs>
<linearGradient id="paint0_linear_2678_57020" x1="57.5" y1="0" x2="57.5" y2="44" gradientUnits="userSpaceOnUse">
<stop stop-color="#BEAAFF"/>
<stop offset="1" stop-color="#726699" stop-opacity="0.05"/>
</linearGradient>
</defs>
</svg>
