<svg width="115" height="38" viewBox="0 0 115 38" fill="none" xmlns="http://www.w3.org/2000/svg">
<g opacity="0.8">
<rect x="0.5" y="0.5" width="113.5" height="37" rx="15.5" fill="#2D3154" fill-opacity="0.34"/>
<rect x="0.5" y="0.5" width="113.5" height="37" rx="15.5" stroke="#4B528E"/>
<path d="M13.4347 15.7273L15.4588 21.6506H15.5405L17.5646 15.7273H18.7507L16.1335 23H14.8658L12.2486 15.7273H13.4347ZM19.7157 23V17.5455H20.7775V23H19.7157ZM20.252 16.7038C20.0673 16.7038 19.9087 16.6423 19.7761 16.5192C19.6459 16.3937 19.5808 16.2446 19.5808 16.0717C19.5808 15.8965 19.6459 15.7474 19.7761 15.6243C19.9087 15.4988 20.0673 15.4361 20.252 15.4361C20.4366 15.4361 20.594 15.4988 20.7243 15.6243C20.8568 15.7474 20.9231 15.8965 20.9231 16.0717C20.9231 16.2446 20.8568 16.3937 20.7243 16.5192C20.594 16.6423 20.4366 16.7038 20.252 16.7038ZM24.5568 23.1101C24.0194 23.1101 23.5566 22.9953 23.1683 22.7656C22.7824 22.5336 22.4841 22.2081 22.2734 21.7891C22.0651 21.3677 21.9609 20.8741 21.9609 20.3082C21.9609 19.7495 22.0651 19.2571 22.2734 18.831C22.4841 18.4048 22.7777 18.0722 23.1541 17.8331C23.5329 17.594 23.9756 17.4744 24.4822 17.4744C24.79 17.4744 25.0883 17.5253 25.3771 17.6271C25.666 17.7289 25.9252 17.8887 26.1548 18.1065C26.3845 18.3243 26.5656 18.6072 26.6982 18.9553C26.8307 19.3009 26.897 19.7211 26.897 20.2159V20.5923H22.5611V19.7969H25.8565C25.8565 19.5175 25.7997 19.2701 25.6861 19.0547C25.5724 18.8369 25.4126 18.6652 25.2067 18.5398C25.0031 18.4143 24.764 18.3516 24.4893 18.3516C24.1911 18.3516 23.9306 18.425 23.7081 18.5717C23.4879 18.7161 23.3175 18.9055 23.1967 19.1399C23.0784 19.3719 23.0192 19.6241 23.0192 19.8963V20.5178C23.0192 20.8823 23.0831 21.1925 23.2109 21.4482C23.3411 21.7038 23.5223 21.8991 23.7543 22.0341C23.9863 22.1667 24.2573 22.233 24.5675 22.233C24.7687 22.233 24.9522 22.2045 25.1179 22.1477C25.2836 22.0885 25.4268 22.0009 25.5476 21.8849C25.6683 21.7689 25.7607 21.6257 25.8246 21.4553L26.8295 21.6364C26.7491 21.9323 26.6046 22.1915 26.3963 22.4141C26.1903 22.6342 25.9311 22.8059 25.6186 22.929C25.3085 23.0497 24.9545 23.1101 24.5568 23.1101ZM29.2479 23L27.6428 17.5455H28.7401L29.8089 21.5511H29.8622L30.9347 17.5455H32.032L33.0973 21.5334H33.1506L34.2124 17.5455H35.3097L33.7081 23H32.625L31.517 19.0618H31.4354L30.3274 23H29.2479ZM39.049 23V15.7273H40.1463V22.0554H43.4418V23H39.049ZM46.9059 23.1101C46.3945 23.1101 45.9483 22.9929 45.5671 22.7585C45.186 22.5241 44.89 22.1963 44.6793 21.7749C44.4686 21.3535 44.3633 20.861 44.3633 20.2976C44.3633 19.7318 44.4686 19.237 44.6793 18.8132C44.89 18.3894 45.186 18.0604 45.5671 17.826C45.9483 17.5916 46.3945 17.4744 46.9059 17.4744C47.4173 17.4744 47.8635 17.5916 48.2447 17.826C48.6258 18.0604 48.9218 18.3894 49.1325 18.8132C49.3432 19.237 49.4485 19.7318 49.4485 20.2976C49.4485 20.861 49.3432 21.3535 49.1325 21.7749C48.9218 22.1963 48.6258 22.5241 48.2447 22.7585C47.8635 22.9929 47.4173 23.1101 46.9059 23.1101ZM46.9094 22.2188C47.2409 22.2188 47.5155 22.1312 47.7333 21.956C47.9511 21.7808 48.1121 21.5476 48.2163 21.2564C48.3228 20.9652 48.3761 20.6444 48.3761 20.294C48.3761 19.946 48.3228 19.6264 48.2163 19.3352C48.1121 19.0417 47.9511 18.8061 47.7333 18.6286C47.5155 18.451 47.2409 18.3622 46.9094 18.3622C46.5756 18.3622 46.2987 18.451 46.0785 18.6286C45.8607 18.8061 45.6985 19.0417 45.592 19.3352C45.4878 19.6264 45.4357 19.946 45.4357 20.294C45.4357 20.6444 45.4878 20.9652 45.592 21.2564C45.6985 21.5476 45.8607 21.7808 46.0785 21.956C46.2987 22.1312 46.5756 22.2188 46.9094 22.2188ZM52.9313 23.1101C52.4033 23.1101 51.9488 22.9905 51.5676 22.7514C51.1889 22.5099 50.8977 22.1773 50.6941 21.7536C50.4905 21.3298 50.3887 20.8445 50.3887 20.2976C50.3887 19.7436 50.4928 19.2547 50.7012 18.831C50.9095 18.4048 51.2031 18.0722 51.5819 17.8331C51.9606 17.594 52.4069 17.4744 52.9206 17.4744C53.3349 17.4744 53.7042 17.5514 54.0286 17.7053C54.3529 17.8568 54.6145 18.0698 54.8134 18.3445C55.0146 18.6191 55.1342 18.9399 55.1721 19.3068H54.1387C54.0819 19.0511 53.9516 18.831 53.748 18.6463C53.5468 18.4616 53.2769 18.3693 52.9384 18.3693C52.6425 18.3693 52.3832 18.4474 52.1607 18.6037C51.9405 18.7576 51.7689 18.9777 51.6458 19.2642C51.5227 19.5483 51.4611 19.8845 51.4611 20.2727C51.4611 20.6705 51.5215 21.0137 51.6422 21.3026C51.763 21.5914 51.9334 21.8151 52.1536 21.9737C52.3761 22.1323 52.6377 22.2116 52.9384 22.2116C53.1396 22.2116 53.3219 22.175 53.4853 22.1016C53.651 22.0258 53.7895 21.9181 53.9007 21.7784C54.0144 21.6387 54.0937 21.4706 54.1387 21.2741H55.1721C55.1342 21.6269 55.0194 21.9418 54.8276 22.2188C54.6358 22.4957 54.379 22.7135 54.057 22.8722C53.7374 23.0308 53.3622 23.1101 52.9313 23.1101ZM57.8949 23.1207C57.5492 23.1207 57.2367 23.0568 56.9574 22.929C56.678 22.7988 56.4567 22.6106 56.2933 22.3643C56.1323 22.1181 56.0518 21.8163 56.0518 21.4588C56.0518 21.151 56.111 20.8977 56.2294 20.6989C56.3478 20.5 56.5076 20.3426 56.7088 20.2266C56.91 20.1106 57.1349 20.023 57.3835 19.9638C57.6321 19.9046 57.8854 19.8596 58.1435 19.8288C58.4702 19.791 58.7353 19.7602 58.9389 19.7365C59.1425 19.7105 59.2905 19.669 59.3828 19.6122C59.4751 19.5554 59.5213 19.4631 59.5213 19.3352V19.3104C59.5213 19.0002 59.4337 18.7599 59.2585 18.5895C59.0857 18.419 58.8277 18.3338 58.4844 18.3338C58.1269 18.3338 57.8452 18.4131 57.6392 18.5717C57.4356 18.728 57.2947 18.902 57.2166 19.0938L56.2188 18.8665C56.3371 18.535 56.5099 18.2675 56.7372 18.0639C56.9669 17.858 57.2308 17.7088 57.5291 17.6165C57.8274 17.5218 58.1411 17.4744 58.4702 17.4744C58.688 17.4744 58.9188 17.5005 59.1626 17.5526C59.4089 17.6023 59.6385 17.6946 59.8516 17.8295C60.067 17.9645 60.2434 18.1574 60.3807 18.4084C60.518 18.657 60.5866 18.9801 60.5866 19.3778V23H59.5497V22.2543H59.5071C59.4384 22.3916 59.3355 22.5265 59.1982 22.6591C59.0608 22.7917 58.8845 22.9018 58.669 22.9893C58.4536 23.0769 58.1955 23.1207 57.8949 23.1207ZM58.1257 22.2685C58.4193 22.2685 58.6702 22.2105 58.8786 22.0945C59.0893 21.9785 59.2491 21.8269 59.358 21.6399C59.4692 21.4505 59.5249 21.2481 59.5249 21.0327V20.3295C59.487 20.3674 59.4136 20.4029 59.3047 20.4361C59.1982 20.4669 59.0762 20.4941 58.9389 20.5178C58.8016 20.5391 58.6679 20.5592 58.5376 20.5781C58.4074 20.5947 58.2985 20.6089 58.2109 20.6207C58.005 20.6468 57.8168 20.6906 57.6463 20.7521C57.4782 20.8137 57.3433 20.9025 57.2415 21.0185C57.142 21.1321 57.0923 21.2836 57.0923 21.473C57.0923 21.7358 57.1894 21.9347 57.3835 22.0696C57.5777 22.2022 57.825 22.2685 58.1257 22.2685ZM64.5471 17.5455V18.3977H61.5676V17.5455H64.5471ZM62.3667 16.2386H63.4284V21.3984C63.4284 21.6044 63.4592 21.7595 63.5208 21.8636C63.5823 21.9654 63.6616 22.0353 63.7587 22.0732C63.8581 22.1087 63.9658 22.1264 64.0819 22.1264C64.1671 22.1264 64.2417 22.1205 64.3056 22.1087C64.3695 22.0968 64.4192 22.0874 64.4547 22.0803L64.6465 22.9574C64.5849 22.9811 64.4973 23.0047 64.3837 23.0284C64.2701 23.0545 64.128 23.0687 63.9576 23.071C63.6782 23.0758 63.4178 23.026 63.1763 22.9219C62.9348 22.8177 62.7395 22.6567 62.5904 22.4389C62.4412 22.2211 62.3667 21.9477 62.3667 21.6186V16.2386ZM65.7216 23V17.5455H66.7834V23H65.7216ZM66.2578 16.7038C66.0732 16.7038 65.9145 16.6423 65.782 16.5192C65.6518 16.3937 65.5866 16.2446 65.5866 16.0717C65.5866 15.8965 65.6518 15.7474 65.782 15.6243C65.9145 15.4988 66.0732 15.4361 66.2578 15.4361C66.4425 15.4361 66.5999 15.4988 66.7301 15.6243C66.8627 15.7474 66.929 15.8965 66.929 16.0717C66.929 16.2446 66.8627 16.3937 66.7301 16.5192C66.5999 16.6423 66.4425 16.7038 66.2578 16.7038ZM70.5094 23.1101C69.998 23.1101 69.5518 22.9929 69.1706 22.7585C68.7895 22.5241 68.4935 22.1963 68.2828 21.7749C68.0721 21.3535 67.9668 20.861 67.9668 20.2976C67.9668 19.7318 68.0721 19.237 68.2828 18.8132C68.4935 18.3894 68.7895 18.0604 69.1706 17.826C69.5518 17.5916 69.998 17.4744 70.5094 17.4744C71.0208 17.4744 71.467 17.5916 71.8482 17.826C72.2293 18.0604 72.5253 18.3894 72.736 18.8132C72.9467 19.237 73.052 19.7318 73.052 20.2976C73.052 20.861 72.9467 21.3535 72.736 21.7749C72.5253 22.1963 72.2293 22.5241 71.8482 22.7585C71.467 22.9929 71.0208 23.1101 70.5094 23.1101ZM70.513 22.2188C70.8444 22.2188 71.119 22.1312 71.3368 21.956C71.5546 21.7808 71.7156 21.5476 71.8198 21.2564C71.9263 20.9652 71.9796 20.6444 71.9796 20.294C71.9796 19.946 71.9263 19.6264 71.8198 19.3352C71.7156 19.0417 71.5546 18.8061 71.3368 18.6286C71.119 18.451 70.8444 18.3622 70.513 18.3622C70.1792 18.3622 69.9022 18.451 69.682 18.6286C69.4642 18.8061 69.302 19.0417 69.1955 19.3352C69.0913 19.6264 69.0392 19.946 69.0392 20.294C69.0392 20.6444 69.0913 20.9652 69.1955 21.2564C69.302 21.5476 69.4642 21.7808 69.682 21.956C69.9022 22.1312 70.1792 22.2188 70.513 22.2188ZM75.299 19.7614V23H74.2372V17.5455H75.2564V18.4332H75.3239C75.4493 18.1444 75.6458 17.9124 75.9134 17.7372C76.1832 17.562 76.523 17.4744 76.9325 17.4744C77.3042 17.4744 77.6297 17.5526 77.9091 17.7088C78.1884 17.8627 78.4051 18.0923 78.5589 18.3977C78.7128 18.7031 78.7898 19.0807 78.7898 19.5305V23H77.728V19.6584C77.728 19.263 77.625 18.9541 77.419 18.7315C77.2131 18.5066 76.9302 18.3942 76.5703 18.3942C76.3241 18.3942 76.1051 18.4474 75.9134 18.554C75.724 18.6605 75.5736 18.8168 75.4624 19.0227C75.3535 19.2263 75.299 19.4725 75.299 19.7614Z" fill="white"/>
<path d="M90 23.5L92.5 26M96 22L98.5 19.5M94 23.5L96.5 26L102.5 19.5" stroke="#06BBFE" stroke-width="1.5" stroke-linecap="round" stroke-linejoin="round"/>
</g>
</svg>
