<svg width="66" height="65" viewBox="0 0 66 65" fill="none" xmlns="http://www.w3.org/2000/svg">
<rect x="1" y="0.5" width="64" height="64" rx="26.5" stroke="#908EB5"/>
<path d="M49.109 48.6093C48.849 48.8693 48.5077 49 48.1663 49C47.825 49 47.4837 48.8693 47.2237 48.6093L43.8371 45.2227C42.7824 45.9213 41.5224 46.3333 40.1664 46.3333C36.4905 46.3333 33.4998 43.3427 33.4998 39.6667C33.4998 35.9907 36.4905 33 40.1664 33C43.8424 33 46.833 35.9907 46.833 39.6667C46.833 41.0227 46.421 42.2827 45.7224 43.3373L49.109 46.724C49.6303 47.2453 49.6303 48.088 49.109 48.6093ZM29.4999 33C33.9118 33 37.4998 29.412 37.4998 25C37.4998 20.588 33.9118 17 29.4999 17C25.0879 17 21.5 20.588 21.5 25C21.5 29.412 25.0879 33 29.4999 33ZM30.8332 39.6667C30.8332 38.32 31.1239 37.044 31.6372 35.888C30.9412 35.7587 30.2332 35.6667 29.4999 35.6667C22.8906 35.6667 17.512 41.0373 17.5 47.644C17.4987 48.3867 18.0907 49 18.8333 49H40.1664C35.0118 49 30.8332 44.8213 30.8332 39.6667Z" fill="#908EB5"/>
</svg>
