<svg width="61" height="61" viewBox="0 0 61 61" fill="none" xmlns="http://www.w3.org/2000/svg">
<path d="M39.5 29.5H34.5C32.846 29.5 31.5 30.846 31.5 32.5V39.5C31.5 41.154 32.846 42.5 34.5 42.5H39.5C41.154 42.5 42.5 41.154 42.5 39.5V32.5C42.5 30.846 41.154 29.5 39.5 29.5ZM40.5 39.5C40.5 40.051 40.052 40.5 39.5 40.5H34.5C33.948 40.5 33.5 40.051 33.5 39.5V32.5C33.5 31.949 33.948 31.5 34.5 31.5H39.5C40.052 31.5 40.5 31.949 40.5 32.5V39.5ZM39.5 34.497C39.5 35.049 39.053 35.497 38.5 35.497H35.5C34.947 35.497 34.5 35.049 34.5 34.497C34.5 33.945 34.947 33.497 35.5 33.497H38.5C39.053 33.497 39.5 33.945 39.5 34.497ZM39.5 37.5C39.5 38.052 39.053 38.5 38.5 38.5H35.5C34.947 38.5 34.5 38.052 34.5 37.5C34.5 36.948 34.947 36.5 35.5 36.5H38.5C39.053 36.5 39.5 36.948 39.5 37.5ZM27.5 30.5C30.809 30.5 33.5 27.809 33.5 24.5C33.5 21.191 30.809 18.5 27.5 18.5C24.191 18.5 21.5 21.191 21.5 24.5C21.5 27.809 24.191 30.5 27.5 30.5ZM27.5 20.5C29.706 20.5 31.5 22.294 31.5 24.5C31.5 26.706 29.706 28.5 27.5 28.5C25.294 28.5 23.5 26.706 23.5 24.5C23.5 22.294 25.294 20.5 27.5 20.5ZM29.5 33.5C29.5 34.052 29.053 34.5 28.5 34.5H27.5C23.641 34.5 20.5 37.64 20.5 41.5C20.5 42.052 20.053 42.5 19.5 42.5C18.947 42.5 18.5 42.052 18.5 41.5C18.5 36.538 22.537 32.5 27.5 32.5H28.5C29.053 32.5 29.5 32.948 29.5 33.5Z" fill="#908EB5"/>
</svg>
