<svg width="87" height="88" viewBox="0 0 87 88" fill="none" xmlns="http://www.w3.org/2000/svg">
<rect x="0.015625" y="0.669922" width="86.5005" height="86.5005" rx="14.5328" fill="#131846"/>
<path d="M60.914 44.0967C60.914 41.6312 59.8322 39.3052 57.9974 37.8434C58.2095 35.384 57.3308 32.9746 55.5884 31.2294C53.8461 29.4871 51.4446 28.6092 49.1083 28.8715C46.0569 24.9959 39.4647 24.9231 36.4845 28.8185C34.024 28.6001 31.6195 29.4841 29.8771 31.2294C28.1363 32.9731 27.2575 35.384 27.5211 37.7146C23.6485 40.7684 23.5743 47.3658 27.4681 50.3499C27.256 52.8093 28.1348 55.2187 29.8771 56.9639C31.6195 58.7062 34.024 59.5871 36.3572 59.3218C39.4086 63.1974 46.0009 63.2702 48.9811 59.3748C51.4355 59.5811 53.8445 58.7092 55.5884 56.9639C57.3293 55.2202 58.208 52.8093 57.9444 50.4787C59.8322 48.8897 60.914 46.5637 60.914 44.0982V44.0967ZM51.1264 41.9223L43.9464 48.8487C42.1843 50.6091 39.3011 50.594 37.539 48.829L34.127 45.6569C33.5149 45.0868 33.4785 44.127 34.0482 43.5144C34.6194 42.9003 35.58 42.8669 36.189 43.4355L39.6405 46.6455C40.2738 47.2778 41.2313 47.2763 41.8222 46.6835L49.022 39.7373C49.625 39.1581 50.584 39.1748 51.1643 39.7767C51.7461 40.3787 51.7279 41.34 51.1264 41.9208V41.9223Z" fill="#0ACD95"/>
</svg>
