<svg width="96" height="95" viewBox="0 0 96 95" fill="none" xmlns="http://www.w3.org/2000/svg">
<circle cx="47.897" cy="47.2991" r="34.9662" transform="rotate(-61.9586 47.897 47.2991)" fill="url(#paint0_radial_3161_58309)"/>
<path fill-rule="evenodd" clip-rule="evenodd" d="M48.3475 33.7939C41.3813 33.7939 35.7344 39.4409 35.7344 46.4071C35.7344 48.791 36.3966 51.0235 37.5481 52.9256L36.4231 56.7499C36.3585 56.9694 36.3542 57.2024 36.4107 57.4241C36.4673 57.6459 36.5825 57.8484 36.7444 58.0102C36.9062 58.1721 37.1087 58.2873 37.3305 58.3439C37.5522 58.4004 37.7852 58.3962 38.0047 58.3316L41.829 57.2065C43.7951 58.3958 46.0497 59.0232 48.3475 59.0202C55.3138 59.0202 60.9607 53.3733 60.9607 46.4071C60.9607 39.4409 55.3138 33.7939 48.3475 33.7939ZM45.4944 49.2614C48.0461 51.8118 50.4817 52.1486 51.3419 52.1801C52.6499 52.2281 53.9238 51.2291 54.4195 50.07C54.4815 49.9256 54.504 49.7674 54.4845 49.6115C54.465 49.4556 54.4042 49.3078 54.3085 49.1832C53.6173 48.3003 52.6827 47.6659 51.7695 47.0352C51.5789 46.9031 51.3445 46.85 51.1156 46.8872C50.8867 46.9244 50.6812 47.0489 50.5422 47.2345L49.7854 48.3886C49.7454 48.4504 49.6834 48.4947 49.612 48.5125C49.5406 48.5303 49.465 48.5203 49.4007 48.4845C48.8874 48.1906 48.1394 47.6911 47.6021 47.1538C47.0648 46.6165 46.5956 45.9026 46.3319 45.422C46.3001 45.3608 46.291 45.2902 46.3065 45.2229C46.322 45.1556 46.361 45.0961 46.4165 45.055L47.5819 44.1897C47.7487 44.0454 47.8564 43.8446 47.8843 43.6258C47.9123 43.407 47.8585 43.1856 47.7333 43.0041C47.1682 42.1766 46.5098 41.1247 45.555 40.4272C45.4315 40.3385 45.2872 40.2831 45.136 40.2666C44.9849 40.25 44.832 40.2727 44.6922 40.3326C43.5318 40.8296 42.5278 42.1035 42.5757 43.414C42.6073 44.2742 42.9441 46.7098 45.4944 49.2614Z" fill="#6940F2" style="mix-blend-mode:color-dodge"/>
<defs>
<radialGradient id="paint0_radial_3161_58309" cx="0" cy="0" r="1" gradientUnits="userSpaceOnUse" gradientTransform="translate(60.681 18.0867) rotate(111.414) scale(71.5838 57.2443)">
<stop offset="0.209049" stop-color="#F9FDFF"/>
<stop offset="0.839525" stop-color="#5B4BB9"/>
</radialGradient>
</defs>
</svg>
