<svg width="16" height="16" viewBox="0 0 16 16" fill="none" xmlns="http://www.w3.org/2000/svg">
<path d="M5.87121 1.73573C5.69589 1.9111 5.59739 2.14893 5.59739 2.39691C5.59739 2.64489 5.69589 2.88272 5.87121 3.0581L10.5004 7.68733L5.87121 12.3166C5.70085 12.4929 5.60659 12.7292 5.60872 12.9744C5.61085 13.2196 5.70921 13.4542 5.8826 13.6275C6.05599 13.8009 6.29055 13.8993 6.53576 13.9014C6.78097 13.9036 7.0172 13.8093 7.19358 13.6389L12.484 8.34852C12.6593 8.17314 12.7578 7.93531 12.7578 7.68733C12.7578 7.43935 12.6593 7.20152 12.484 7.02615L7.19358 1.73573C7.0182 1.5604 6.78037 1.46191 6.53239 1.46191C6.28441 1.46191 6.04658 1.5604 5.87121 1.73573Z" fill="white"/>
</svg>
